<!-- Generator: Adobe Illustrator 24.1.3, SVG Export Plug-In  -->
<svg version="1.1" xmlns="http://www.w3.org/2000/svg" xmlns:xlink="http://www.w3.org/1999/xlink" x="0px" y="0px"
	 width="445.216px" height="40.466px" viewBox="0 0 445.216 40.466"
	 style="overflow:visible;enable-background:new 0 0 445.216 40.466;" xml:space="preserve">
<style type="text/css">
	.st0{fill:#3752A1;}
	.st1{fill:none;stroke:#BF2222;stroke-width:3;stroke-linecap:round;stroke-linejoin:round;stroke-miterlimit:10;}
	.st2{font-family:'HYQingFenTi-W';}
	.st3{font-size:34px;}
	.st4{letter-spacing:1;}
</style>
<defs>
</defs>
<g>
	<g>
		<path class="st0" d="M63.906,5.889c-0.136,1.088-0.301,2.131-0.493,3.128S62.988,11,62.716,11.975h14.008
			c0.362,0,0.629,0.125,0.799,0.374s0.255,0.516,0.255,0.799s-0.091,0.55-0.271,0.799c-0.182,0.25-0.442,0.374-0.782,0.374H62.003
			c-1.156,3.423-2.76,6.647-4.812,9.673c-2.052,3.026-4.517,6.024-7.395,8.993c-0.25,0.249-0.505,0.374-0.766,0.374
			s-0.481-0.068-0.663-0.204s-0.295-0.317-0.34-0.544c-0.046-0.227,0.034-0.442,0.238-0.646c2.38-2.674,4.425-5.462,6.137-8.363
			c1.711-2.901,3.089-5.995,4.131-9.282h-6.46c-0.34,0-0.623-0.068-0.85-0.204s-0.402-0.306-0.527-0.51s-0.204-0.419-0.237-0.646
			c-0.034-0.226-0.029-0.441,0.017-0.646l1.836-5.168c0.136-0.544,0.419-0.912,0.85-1.105c0.431-0.192,0.851-0.243,1.259-0.152
			c0.407,0.091,0.73,0.312,0.969,0.663s0.243,0.776,0.017,1.274l-1.632,3.876c-0.022,0.046-0.017,0.103,0.018,0.17
			c0.033,0.068,0.096,0.103,0.187,0.103h5.202c0.544-2.04,0.952-4.159,1.224-6.358c0.068-0.634,0.301-1.076,0.697-1.326
			c0.396-0.249,0.811-0.345,1.241-0.289c0.43,0.058,0.815,0.25,1.156,0.578C63.838,4.908,63.974,5.345,63.906,5.889z M60.302,23.16
			c-0.25-0.227-0.369-0.476-0.357-0.748c0.012-0.271,0.103-0.504,0.272-0.697c0.17-0.191,0.391-0.3,0.663-0.322
			c0.271-0.022,0.544,0.079,0.815,0.306c0.748,0.658,1.484,1.258,2.21,1.802c0.726,0.544,1.439,1.043,2.143,1.496
			c0.702-0.544,1.394-1.122,2.074-1.733c0.68-0.612,1.348-1.247,2.006-1.904c0.271-0.272,0.385-0.51,0.34-0.714
			c-0.046-0.204-0.261-0.307-0.646-0.307h-8.023c-0.363,0-0.635-0.118-0.816-0.356s-0.271-0.504-0.271-0.799s0.09-0.562,0.271-0.8
			c0.182-0.237,0.453-0.356,0.816-0.356h10.336c0.68,0,1.224,0.147,1.632,0.442c0.408,0.294,0.691,0.662,0.85,1.104
			s0.17,0.918,0.034,1.428c-0.136,0.511-0.408,0.981-0.815,1.411c-1.338,1.338-3.026,2.754-5.066,4.25
			c1.519,0.862,3.048,1.621,4.59,2.278c1.541,0.657,3.185,1.314,4.93,1.972c0.545,0.204,0.873,0.556,0.986,1.054
			c0.113,0.499,0.073,0.98-0.119,1.445s-0.521,0.827-0.985,1.088c-0.465,0.261-1.015,0.232-1.649-0.085
			c-1.904-0.93-3.684-1.882-5.338-2.855c-1.655-0.975-3.275-2.052-4.862-3.23c-1.768,1.156-3.684,2.267-5.746,3.332
			s-4.25,2.052-6.562,2.958c-0.363,0.136-0.675,0.136-0.936,0s-0.447-0.323-0.561-0.561c-0.113-0.238-0.136-0.493-0.068-0.766
			c0.068-0.271,0.249-0.476,0.544-0.611c2.131-0.998,4.092-1.983,5.883-2.958c1.79-0.975,3.502-2.04,5.134-3.196
			c-0.612-0.521-1.225-1.06-1.836-1.615C61.56,24.357,60.936,23.773,60.302,23.16z M68.632,5.242
			c1.155,0.59,2.107,1.105,2.855,1.547c0.748,0.442,1.383,0.856,1.904,1.241c0.476,0.34,0.702,0.737,0.68,1.19
			s-0.182,0.833-0.476,1.139c-0.295,0.306-0.675,0.476-1.139,0.51c-0.465,0.034-0.913-0.187-1.344-0.663
			c-0.431-0.521-0.924-1.088-1.479-1.7c-0.556-0.611-1.196-1.246-1.921-1.903c-0.159-0.137-0.233-0.307-0.222-0.51
			c0.012-0.204,0.073-0.38,0.188-0.527c0.113-0.147,0.255-0.261,0.425-0.34S68.451,5.152,68.632,5.242z"/>
		<path class="st0" d="M84.205,30.113c-0.182-0.124-0.318-0.289-0.408-0.493c-0.091-0.204-0.114-0.413-0.068-0.629
			c0.045-0.215,0.182-0.379,0.408-0.493c1.11-0.544,2.227-1.122,3.349-1.733c1.122-0.612,2.204-1.247,3.247-1.904
			s2.023-1.326,2.941-2.006c0.918-0.681,1.729-1.36,2.431-2.04c0.431-0.408,0.861-0.595,1.292-0.562
			c0.431,0.034,0.776,0.199,1.037,0.493c0.261,0.295,0.392,0.669,0.392,1.122c0,0.454-0.216,0.873-0.646,1.258
			c-0.566,0.522-1.309,1.066-2.227,1.632c-0.918,0.567-1.961,1.151-3.128,1.752c-1.168,0.601-2.426,1.206-3.774,1.818
			S86.3,29.541,84.85,30.13C84.601,30.244,84.385,30.238,84.205,30.113z M110.843,14.507c0.192-0.237,0.289-0.492,0.289-0.765
			c0-0.271-0.097-0.527-0.289-0.765c-0.192-0.238-0.471-0.357-0.833-0.357h-8.942v-2.72h10.71c0.362,0,0.641-0.119,0.833-0.357
			c0.192-0.237,0.289-0.498,0.289-0.781s-0.097-0.544-0.289-0.782c-0.192-0.238-0.471-0.357-0.833-0.357h-10.71v-1.87
			c0-0.566-0.176-0.991-0.526-1.274c-0.352-0.283-0.731-0.425-1.14-0.425c-0.407,0-0.787,0.142-1.139,0.425
			s-0.527,0.708-0.527,1.274v1.87h-10.71c-0.362,0-0.635,0.119-0.815,0.357c-0.182,0.238-0.272,0.499-0.272,0.782
			s0.091,0.544,0.272,0.781c0.181,0.238,0.453,0.357,0.815,0.357h10.71v2.72h-8.941c-0.363,0-0.635,0.119-0.816,0.357
			c-0.182,0.237-0.271,0.493-0.271,0.765c0,0.272,0.09,0.527,0.271,0.765c0.182,0.238,0.453,0.357,0.816,0.357h8.941v2.822H85.802
			c-0.363,0-0.641,0.119-0.833,0.356c-0.192,0.238-0.289,0.499-0.289,0.782c0,0.284,0.091,0.544,0.272,0.782
			c0.181,0.238,0.464,0.356,0.85,0.356h27.166c0.362,0,0.641-0.118,0.833-0.356s0.289-0.498,0.289-0.782
			c0-0.283-0.097-0.544-0.289-0.782c-0.192-0.237-0.471-0.356-0.833-0.356h-11.9v-2.822h8.942
			C110.373,14.864,110.651,14.745,110.843,14.507z M101.34,29.042c0.204,0.137,0.34,0.313,0.408,0.527
			c0.067,0.216,0.051,0.437-0.051,0.663c-0.103,0.227-0.301,0.396-0.596,0.51c-0.815,0.294-1.547,0.572-2.192,0.833
			c-0.646,0.261-1.225,0.521-1.734,0.782c-0.51,0.26-0.958,0.527-1.343,0.799c-0.386,0.272-0.737,0.578-1.055,0.918
			c-0.317,0.317-0.641,0.504-0.969,0.562c-0.329,0.056-0.629,0.017-0.9-0.119c-0.272-0.137-0.499-0.363-0.681-0.681
			s-0.271-0.68-0.271-1.088v-4.216c0-0.544,0.175-0.952,0.526-1.224c0.352-0.272,0.736-0.408,1.156-0.408
			c0.419,0,0.805,0.142,1.156,0.425c0.351,0.284,0.527,0.709,0.527,1.275v1.258c0,0.25,0.124,0.352,0.373,0.306
			c0.861-0.181,1.666-0.368,2.414-0.561s1.587-0.413,2.517-0.663C100.898,28.872,101.136,28.906,101.34,29.042z M109.381,31.371
			c-1.168-0.714-2.313-1.501-3.434-2.363c-1.122-0.86-2.199-1.796-3.23-2.805c-1.031-1.008-1.967-2.057-2.805-3.145
			c-0.182-0.249-0.255-0.493-0.222-0.731c0.034-0.238,0.137-0.425,0.307-0.561c0.17-0.137,0.379-0.204,0.629-0.204
			c0.249,0,0.476,0.102,0.68,0.306c0.975,1.021,1.96,1.933,2.958,2.737c0.997,0.805,2.018,1.53,3.061,2.176
			c1.042,0.646,2.107,1.235,3.195,1.768c1.088,0.533,2.222,1.037,3.4,1.514c0.566,0.227,0.918,0.556,1.054,0.985
			c0.136,0.431,0.119,0.839-0.051,1.225c-0.17,0.385-0.448,0.691-0.833,0.918c-0.386,0.227-0.794,0.238-1.224,0.034
			C111.711,32.702,110.548,32.085,109.381,31.371z M107.171,25.762c-0.193-0.079-0.346-0.198-0.459-0.357
			c-0.114-0.158-0.17-0.34-0.17-0.544s0.09-0.385,0.271-0.544c0.521-0.453,0.991-0.872,1.411-1.258
			c0.419-0.386,0.855-0.839,1.31-1.36c0.385-0.476,0.793-0.68,1.224-0.612c0.431,0.068,0.782,0.261,1.054,0.578
			c0.272,0.318,0.402,0.697,0.392,1.14c-0.012,0.441-0.255,0.799-0.731,1.07c-0.59,0.34-1.145,0.646-1.666,0.918
			c-0.521,0.272-1.179,0.578-1.972,0.918C107.585,25.824,107.364,25.841,107.171,25.762z"/>
		<path class="st0" d="M130.003,26.765c0.226-0.137,0.436-0.164,0.629-0.085c0.192,0.079,0.334,0.209,0.425,0.391
			c0.09,0.182,0.13,0.38,0.119,0.595c-0.012,0.216-0.108,0.38-0.289,0.493c-1.202,0.794-2.159,1.593-2.873,2.397
			c-0.714,0.804-1.173,1.399-1.377,1.784c-0.204,0.386-0.488,0.663-0.851,0.833c-0.362,0.171-0.72,0.204-1.07,0.103
			c-0.352-0.103-0.663-0.357-0.936-0.765c-0.271-0.408-0.408-1.01-0.408-1.803V17.687c0-0.453-0.227-0.681-0.68-0.681h-1.836
			c-0.431,0-0.748-0.124-0.952-0.374c-0.204-0.249-0.306-0.526-0.306-0.833c0-0.306,0.107-0.589,0.323-0.85
			c0.215-0.26,0.538-0.391,0.969-0.391h3.808c0.566,0,1.043,0.21,1.429,0.629c0.385,0.42,0.577,0.912,0.577,1.479v11.356
			c0,0.317,0.192,0.396,0.578,0.238c0.249-0.113,0.584-0.289,1.003-0.527C128.705,27.495,129.276,27.172,130.003,26.765z
			 M125.038,11.09c-0.295-0.498-0.566-0.939-0.815-1.325c-0.25-0.386-0.493-0.76-0.731-1.122c-0.237-0.362-0.481-0.72-0.73-1.071
			c-0.25-0.352-0.533-0.731-0.851-1.139c-0.158-0.204-0.232-0.431-0.221-0.681c0.011-0.249,0.073-0.459,0.188-0.629
			c0.112-0.17,0.276-0.277,0.492-0.323c0.216-0.045,0.447,0.012,0.697,0.171c1.065,0.748,1.989,1.428,2.771,2.04
			c0.781,0.611,1.444,1.155,1.988,1.632c0.521,0.476,0.742,0.985,0.663,1.529s-0.312,0.992-0.697,1.344
			c-0.385,0.352-0.844,0.526-1.377,0.526C125.882,12.042,125.423,11.726,125.038,11.09z M130.41,17.04
			c-0.317,0.25-0.606,0.363-0.866,0.34c-0.262-0.021-0.471-0.118-0.63-0.289c-0.158-0.17-0.237-0.379-0.237-0.629
			c0-0.249,0.102-0.486,0.306-0.714c0.906-0.906,1.711-1.768,2.414-2.584c0.702-0.815,1.349-1.637,1.938-2.465
			c0.589-0.827,1.149-1.711,1.683-2.652c0.532-0.939,1.082-2,1.648-3.179c0.227-0.476,0.578-0.776,1.055-0.9
			c0.476-0.125,0.918-0.097,1.326,0.085c0.407,0.182,0.702,0.498,0.884,0.951c0.181,0.454,0.102,1.009-0.238,1.666
			c-0.612,1.156-1.253,2.188-1.921,3.095c-0.669,0.906-1.377,1.763-2.125,2.566c-0.748,0.805-1.553,1.581-2.414,2.329
			S131.43,16.202,130.41,17.04z M138.4,33.599c-1.632,0-2.901-0.392-3.808-1.174c-0.907-0.781-1.36-2.136-1.36-4.063V16.836
			c0-0.611,0.176-1.064,0.527-1.359c0.351-0.295,0.742-0.442,1.173-0.442c0.43,0,0.821,0.147,1.173,0.442s0.527,0.748,0.527,1.359
			v10.847c0,0.657,0.051,1.189,0.152,1.598c0.103,0.408,0.267,0.731,0.493,0.969c0.227,0.238,0.521,0.397,0.884,0.477
			s0.794,0.119,1.292,0.119h3.944c0.884,0,1.569-0.42,2.057-1.259c0.487-0.838,0.754-2.198,0.8-4.08
			c0-0.316,0.096-0.555,0.289-0.714c0.191-0.158,0.401-0.237,0.629-0.237c0.226,0,0.436,0.079,0.629,0.237
			c0.192,0.159,0.289,0.397,0.289,0.714c0,0.952,0.073,1.746,0.221,2.381s0.413,1.02,0.799,1.155
			c0.477,0.182,0.731,0.517,0.765,1.003c0.034,0.488-0.142,0.997-0.526,1.53c-0.386,0.532-0.964,1.003-1.734,1.411
			s-1.712,0.612-2.822,0.612H138.4z M137.448,22.242c1.27-0.793,2.397-1.609,3.383-2.448c0.986-0.838,2.001-1.756,3.043-2.754
			c0.499-0.476,1.004-0.686,1.514-0.629s0.906,0.267,1.189,0.629c0.283,0.363,0.402,0.794,0.357,1.292
			c-0.046,0.499-0.352,0.952-0.918,1.36c-0.861,0.59-1.972,1.241-3.332,1.955s-2.731,1.399-4.114,2.057
			c-0.317,0.159-0.584,0.188-0.799,0.085c-0.216-0.102-0.374-0.249-0.476-0.441c-0.103-0.192-0.143-0.402-0.119-0.629
			C137.199,22.492,137.29,22.333,137.448,22.242z M147.75,16.599c-0.611-0.59-1.246-1.259-1.903-2.006
			c-0.658-0.748-1.292-1.542-1.904-2.381c-0.612-0.838-1.189-1.722-1.734-2.651c-0.544-0.93-1.02-1.882-1.428-2.856
			c-0.113-0.227-0.125-0.453-0.034-0.68s0.227-0.396,0.408-0.51s0.386-0.153,0.612-0.119s0.431,0.198,0.612,0.493
			c0.611,0.93,1.184,1.751,1.717,2.465c0.532,0.714,1.093,1.389,1.683,2.022c0.589,0.635,1.241,1.264,1.955,1.888
			c0.714,0.623,1.547,1.298,2.499,2.022c0.408,0.317,0.589,0.691,0.544,1.122c-0.046,0.431-0.221,0.799-0.527,1.105
			c-0.306,0.306-0.691,0.498-1.155,0.577C148.629,17.171,148.18,17.006,147.75,16.599z"/>
		<path class="st0" d="M186.375,31.626c0.158,0.477,0.152,0.936-0.018,1.377c-0.17,0.442-0.465,0.794-0.884,1.055
			c-0.42,0.26-0.913,0.277-1.479,0.051c-2.472-0.952-4.795-2.097-6.971-3.435c-2.176-1.337-4.193-2.844-6.052-4.521
			c-1.995,1.678-4.193,3.15-6.596,4.42c-2.403,1.27-5.021,2.482-7.854,3.638c-0.295,0.113-0.556,0.113-0.782,0
			s-0.385-0.277-0.476-0.492c-0.091-0.216-0.102-0.448-0.034-0.697c0.068-0.25,0.249-0.442,0.544-0.578
			c2.766-1.314,5.23-2.623,7.396-3.927c2.164-1.304,4.097-2.737,5.797-4.302c-1.383-1.45-2.646-2.979-3.791-4.59
			c-1.145-1.609-2.159-3.298-3.043-5.065c-0.136-0.249-0.147-0.499-0.034-0.748s0.283-0.431,0.51-0.544s0.477-0.142,0.748-0.085
			c0.272,0.057,0.51,0.267,0.714,0.629c0.816,1.563,1.797,3.049,2.941,4.454s2.442,2.731,3.893,3.978
			c1.043-1.201,1.989-2.499,2.84-3.893c0.85-1.395,1.614-2.964,2.295-4.709c0.226-0.566,0.566-0.912,1.02-1.037
			s0.884-0.091,1.292,0.102c0.408,0.193,0.726,0.505,0.952,0.936s0.227,0.918,0,1.462c-0.794,1.813-1.7,3.457-2.72,4.93
			c-1.021,1.474-2.143,2.834-3.366,4.08c1.768,1.314,3.655,2.511,5.661,3.587c2.006,1.077,4.131,2.035,6.375,2.873
			C185.841,30.799,186.215,31.151,186.375,31.626z M185.439,11.227c0.216-0.249,0.317-0.527,0.307-0.833
			c-0.012-0.307-0.125-0.59-0.341-0.851c-0.215-0.26-0.526-0.391-0.935-0.391h-12.342c0.317-0.249,0.521-0.572,0.611-0.969
			c0.091-0.396-0.022-0.811-0.34-1.241c-0.271-0.362-0.623-0.793-1.054-1.292c-0.431-0.498-1.009-1.076-1.734-1.734
			c-0.204-0.181-0.413-0.277-0.629-0.289c-0.216-0.011-0.402,0.034-0.561,0.137c-0.159,0.102-0.272,0.255-0.34,0.459
			c-0.068,0.204-0.058,0.419,0.033,0.646l1.326,3.604c0.091,0.317,0.216,0.544,0.374,0.68h-12.58c-0.431,0-0.754,0.131-0.969,0.391
			c-0.216,0.261-0.323,0.544-0.323,0.851c0,0.306,0.107,0.584,0.323,0.833c0.215,0.249,0.538,0.374,0.969,0.374h27.234
			C184.901,11.601,185.223,11.476,185.439,11.227z"/>
		<path class="st0" d="M194.84,12.246c-0.386,0-0.692-0.152-0.918-0.459c-0.228-0.306-0.341-0.651-0.341-1.037
			c0-0.294,0.068-0.549,0.204-0.765c0.137-0.215,0.34-0.368,0.612-0.459l3.774-1.19c0.476-0.158,0.929-0.237,1.359-0.237
			c0.612,0,1.065,0.176,1.36,0.526c0.294,0.352,0.441,0.833,0.441,1.445v19.652h1.904c0.408,0,0.726,0.113,0.952,0.34
			s0.34,0.51,0.34,0.85s-0.113,0.623-0.34,0.851c-0.227,0.226-0.544,0.34-0.952,0.34h-7.548c-0.408,0-0.726-0.114-0.952-0.34
			c-0.227-0.228-0.34-0.511-0.34-0.851s0.113-0.623,0.34-0.85s0.544-0.34,0.952-0.34h2.244v-18.36l-2.652,0.816
			C195.055,12.224,194.908,12.246,194.84,12.246z"/>
		<path class="st0" d="M219.796,7.758c1.7,0,3.179,0.517,4.437,1.548s2.232,2.487,2.924,4.368c0.691,1.882,1.037,4.059,1.037,6.528
			c0,2.471-0.346,4.647-1.037,6.528c-0.691,1.882-1.666,3.338-2.924,4.369s-2.736,1.547-4.437,1.547s-3.18-0.516-4.438-1.547
			s-2.232-2.487-2.924-4.369c-0.691-1.881-1.037-4.058-1.037-6.528c0-2.47,0.346-4.646,1.037-6.528
			c0.691-1.881,1.666-3.337,2.924-4.368S218.096,7.758,219.796,7.758z M219.796,10.206c-1.542,0-2.743,0.879-3.604,2.635
			c-0.861,1.757-1.292,4.211-1.292,7.361c0,3.128,0.431,5.576,1.292,7.344c0.861,1.769,2.063,2.652,3.604,2.652
			c1.541,0,2.742-0.884,3.604-2.652c0.861-1.768,1.292-4.216,1.292-7.344c0-3.15-0.431-5.604-1.292-7.361
			C222.539,11.085,221.337,10.206,219.796,10.206z"/>
		<path class="st0" d="M233.617,34.432c-0.261,0.056-0.499,0.033-0.714-0.068c-0.216-0.102-0.368-0.261-0.459-0.476
			c-0.091-0.216-0.057-0.482,0.102-0.8c0.566-1.088,1.065-2.181,1.496-3.28s0.782-2.335,1.055-3.706
			c0.271-1.371,0.476-2.941,0.611-4.709c0.137-1.769,0.204-3.843,0.204-6.223c0-0.589,0.176-1.031,0.527-1.325
			c0.351-0.295,0.736-0.442,1.156-0.442c0.419,0,0.804,0.147,1.155,0.442c0.352,0.294,0.527,0.736,0.527,1.325
			c0,2.244-0.097,4.229-0.289,5.95c-0.192,1.723-0.493,3.304-0.901,4.743c-0.407,1.439-0.93,2.805-1.563,4.097
			c-0.635,1.292-1.395,2.63-2.278,4.013C234.087,34.222,233.878,34.374,233.617,34.432z M232.801,12.808
			c0.033,0.192,0.13,0.34,0.289,0.441c0.158,0.103,0.345,0.153,0.561,0.153c0.215,0,0.425-0.091,0.629-0.272
			c0.657-0.565,1.252-1.099,1.785-1.598c0.532-0.498,1.025-1.014,1.479-1.547c0.453-0.532,0.873-1.094,1.259-1.683
			c0.385-0.59,0.759-1.247,1.122-1.973c0.249-0.498,0.255-0.952,0.017-1.359c-0.238-0.408-0.572-0.697-1.003-0.867
			c-0.431-0.17-0.884-0.176-1.36-0.018c-0.476,0.159-0.827,0.544-1.054,1.156c-0.295,0.839-0.572,1.576-0.833,2.21
			c-0.261,0.635-0.533,1.219-0.816,1.751c-0.283,0.533-0.578,1.037-0.884,1.513c-0.306,0.477-0.651,0.976-1.037,1.496
			C232.818,12.416,232.767,12.615,232.801,12.808z M248.373,9.05c0.192-0.226,0.289-0.476,0.289-0.747
			c0-0.272-0.097-0.521-0.289-0.748s-0.493-0.341-0.9-0.341h-6.767c-0.386,0-0.669,0.114-0.85,0.341
			c-0.182,0.227-0.272,0.476-0.272,0.748c0,0.271,0.091,0.521,0.272,0.747c0.181,0.228,0.464,0.341,0.85,0.341h6.767
			C247.879,9.391,248.18,9.277,248.373,9.05z M239.584,23.059c0-0.499,0.158-0.867,0.477-1.105c0.317-0.238,0.674-0.351,1.071-0.34
			c0.396,0.012,0.753,0.142,1.07,0.391c0.317,0.25,0.477,0.624,0.477,1.122v10.2c0,0.498-0.159,0.872-0.477,1.122
			c-0.317,0.249-0.675,0.374-1.07,0.374c-0.397,0-0.754-0.125-1.071-0.374c-0.318-0.25-0.477-0.624-0.477-1.122V23.059z
			 M240.451,9.85c-0.17,0.079-0.289,0.198-0.356,0.356c-0.068,0.159-0.08,0.323-0.034,0.493c0.045,0.17,0.17,0.301,0.374,0.391
			c0.204,0.114,0.493,0.301,0.867,0.562s0.833,0.618,1.377,1.071c0.407,0.317,0.81,0.425,1.207,0.322
			c0.396-0.102,0.708-0.3,0.935-0.595c0.227-0.294,0.306-0.623,0.238-0.986c-0.068-0.362-0.352-0.634-0.851-0.815
			c-0.386-0.136-0.799-0.261-1.24-0.374c-0.442-0.113-1.061-0.261-1.854-0.442C240.842,9.765,240.621,9.771,240.451,9.85z
			 M240.485,19.302c-0.192-0.216-0.289-0.459-0.289-0.731s0.097-0.516,0.289-0.731c0.192-0.215,0.493-0.322,0.901-0.322h16.115
			v-1.225c0-0.226-0.045-0.407-0.136-0.544c-0.091-0.136-0.295-0.204-0.612-0.204h-15.367c-0.408,0-0.709-0.107-0.901-0.322
			c-0.192-0.216-0.289-0.459-0.289-0.731c0-0.271,0.097-0.516,0.289-0.73c0.192-0.216,0.493-0.323,0.901-0.323h5.508
			c-0.114-0.204-0.232-0.419-0.357-0.646c-0.125-0.226-0.277-0.498-0.459-0.815c-0.113-0.182-0.152-0.357-0.119-0.527
			c0.034-0.17,0.119-0.312,0.256-0.425c0.136-0.113,0.3-0.182,0.492-0.204s0.38,0.012,0.562,0.102
			c0.634,0.318,1.139,0.602,1.513,0.851s0.708,0.51,1.003,0.782c0.272,0.249,0.408,0.544,0.408,0.884h7.65
			c1.178,0,1.972,0.221,2.38,0.663c0.407,0.441,0.611,1.049,0.611,1.818v1.53c0,0.726-0.187,1.27-0.561,1.632
			c-0.374,0.363-0.969,0.544-1.785,0.544h-17.102C240.978,19.624,240.677,19.517,240.485,19.302z M258.504,34.703
			c-0.373-0.057-0.55-0.277-0.526-0.663c0.022-0.386-0.103-0.635-0.374-0.748c-0.272-0.113-0.658-0.192-1.156-0.237
			c-0.25-0.023-0.431-0.103-0.544-0.238s-0.17-0.289-0.17-0.459s0.063-0.317,0.187-0.442c0.125-0.125,0.289-0.187,0.493-0.187
			c0.726,0,1.19-0.034,1.395-0.103c0.204-0.067,0.306-0.328,0.306-0.781v-6.257c0-0.181-0.057-0.362-0.17-0.544
			c-0.113-0.181-0.34-0.271-0.68-0.271h-12.58c-0.363,0-0.635-0.107-0.816-0.323c-0.182-0.215-0.271-0.459-0.271-0.73
			c0-0.272,0.09-0.516,0.271-0.731c0.182-0.215,0.453-0.323,0.816-0.323h13.804c1.156,0,1.909,0.267,2.261,0.799
			c0.352,0.533,0.527,1.265,0.527,2.193v6.563c0,0.725-0.147,1.348-0.442,1.869s-0.669,0.94-1.122,1.259
			C259.281,34.641,258.879,34.76,258.504,34.703z M243.868,28.72c-0.158-0.216-0.238-0.447-0.238-0.697
			c0-0.249,0.08-0.481,0.238-0.697c0.158-0.215,0.408-0.323,0.748-0.323h1.326v-1.088c0-0.498,0.153-0.872,0.459-1.122
			c0.306-0.249,0.641-0.368,1.003-0.356s0.697,0.147,1.003,0.408s0.459,0.641,0.459,1.139v1.02h3.162v-1.088
			c0-0.498,0.153-0.872,0.459-1.122c0.306-0.249,0.641-0.368,1.003-0.356s0.697,0.147,1.003,0.408
			c0.307,0.261,0.459,0.641,0.459,1.139v1.02h1.19c0.34,0,0.589,0.108,0.748,0.323c0.158,0.216,0.237,0.448,0.237,0.697
			c0,0.25-0.079,0.481-0.237,0.697c-0.159,0.215-0.408,0.322-0.748,0.322h-1.19v3.435c0,0.498-0.152,0.872-0.459,1.122
			c-0.306,0.249-0.641,0.374-1.003,0.374s-0.697-0.125-1.003-0.374c-0.306-0.25-0.459-0.624-0.459-1.122v-3.435h-3.162v3.435
			c0,0.498-0.153,0.872-0.459,1.122c-0.306,0.249-0.641,0.374-1.003,0.374s-0.697-0.125-1.003-0.374
			c-0.306-0.25-0.459-0.624-0.459-1.122v-3.435h-1.326C244.276,29.042,244.026,28.935,243.868,28.72z M248.628,10.903
			c0.068,0.216,0.198,0.374,0.392,0.476c0.192,0.103,0.413,0.143,0.663,0.119c0.249-0.022,0.476-0.136,0.68-0.34
			c0.702-0.657,1.365-1.349,1.989-2.074c0.623-0.725,1.184-1.586,1.683-2.584c0.295-0.566,0.328-1.059,0.103-1.479
			c-0.228-0.419-0.55-0.714-0.97-0.884c-0.419-0.17-0.866-0.176-1.343-0.018c-0.476,0.159-0.815,0.544-1.02,1.156
			c-0.228,0.657-0.432,1.219-0.612,1.683c-0.182,0.465-0.346,0.885-0.493,1.259c-0.147,0.373-0.301,0.714-0.459,1.02
			c-0.159,0.306-0.317,0.618-0.476,0.935C248.605,10.444,248.56,10.689,248.628,10.903z M254.119,9.901
			c-0.17,0.091-0.283,0.216-0.34,0.374c-0.057,0.159-0.057,0.323,0,0.493s0.188,0.312,0.391,0.425
			c0.317,0.182,0.657,0.402,1.021,0.663c0.362,0.261,0.793,0.584,1.292,0.969c0.408,0.317,0.811,0.425,1.207,0.323
			c0.396-0.103,0.702-0.301,0.918-0.595c0.215-0.295,0.289-0.624,0.221-0.986c-0.067-0.362-0.362-0.635-0.884-0.816
			c-0.386-0.136-0.811-0.271-1.275-0.407c-0.465-0.137-1.094-0.295-1.887-0.477C254.51,9.798,254.289,9.81,254.119,9.901z
			 M262.891,9.05c0.192-0.226,0.289-0.476,0.289-0.747c0-0.272-0.097-0.521-0.289-0.748c-0.193-0.227-0.482-0.341-0.867-0.341h-6.97
			c-0.408,0-0.709,0.114-0.901,0.341s-0.289,0.476-0.289,0.748c0,0.271,0.097,0.521,0.289,0.747
			c0.192,0.228,0.493,0.341,0.901,0.341h6.97C262.409,9.391,262.698,9.277,262.891,9.05z"/>
		<path class="st0" d="M281.676,23.126c0.249-0.113,0.481-0.113,0.697,0c0.215,0.114,0.373,0.272,0.476,0.477
			c0.102,0.204,0.119,0.431,0.051,0.68c-0.067,0.25-0.25,0.454-0.544,0.612c-1.949,1.088-3.599,2.165-4.947,3.229
			c-1.349,1.066-2.374,2.086-3.076,3.061c-0.228,0.316-0.511,0.526-0.851,0.629c-0.34,0.102-0.663,0.102-0.969,0
			c-0.306-0.103-0.573-0.318-0.799-0.646c-0.228-0.328-0.34-0.753-0.34-1.274V7.826c0-0.544,0.175-0.952,0.526-1.224
			c0.352-0.272,0.736-0.408,1.156-0.408c0.419,0,0.805,0.142,1.156,0.425c0.351,0.284,0.526,0.709,0.526,1.275v17.85
			c0,0.114,0.022,0.21,0.068,0.289c0.045,0.08,0.147,0.085,0.306,0.017L281.676,23.126z M289.7,6.603
			c0.022-0.612,0.222-1.055,0.596-1.326c0.374-0.272,0.781-0.385,1.224-0.34c0.442,0.046,0.838,0.221,1.19,0.526
			c0.351,0.307,0.515,0.731,0.492,1.275c-0.091,2.018-0.209,3.927-0.356,5.729c-0.147,1.802-0.397,3.519-0.748,5.15
			c-0.352,1.632-0.839,3.185-1.462,4.658c-0.624,1.474-1.439,2.901-2.448,4.284s-2.25,2.72-3.723,4.012
			c-1.474,1.292-3.242,2.562-5.305,3.808c-0.34,0.204-0.651,0.267-0.935,0.188c-0.284-0.08-0.505-0.227-0.663-0.442
			c-0.159-0.216-0.227-0.459-0.204-0.73c0.022-0.272,0.17-0.499,0.442-0.681c1.677-1.179,3.116-2.316,4.317-3.417
			c1.201-1.099,2.228-2.227,3.077-3.383c0.851-1.156,1.547-2.38,2.091-3.672s0.975-2.708,1.292-4.25
			c0.317-1.541,0.556-3.241,0.715-5.1C289.451,11.034,289.587,8.938,289.7,6.603z M280.656,5.889
			c1.156,1.201,2.058,2.176,2.703,2.924c0.646,0.748,1.185,1.439,1.615,2.074c0.249,0.386,0.368,0.759,0.357,1.121
			c-0.012,0.363-0.114,0.692-0.307,0.986c-0.192,0.295-0.441,0.533-0.748,0.714c-0.306,0.182-0.629,0.272-0.969,0.272
			s-0.669-0.107-0.986-0.323c-0.317-0.215-0.578-0.572-0.781-1.071c-0.499-1.246-0.941-2.283-1.326-3.11
			c-0.386-0.827-0.805-1.626-1.258-2.397c-0.183-0.294-0.238-0.566-0.171-0.815c0.068-0.25,0.204-0.442,0.408-0.578
			c0.204-0.137,0.442-0.192,0.714-0.17C280.18,5.537,280.429,5.662,280.656,5.889z M292.964,24.078
			c1.292,1.292,2.425,2.477,3.399,3.553c0.975,1.077,1.791,2.023,2.448,2.84c0.476,0.589,0.635,1.155,0.476,1.699
			c-0.158,0.544-0.453,0.964-0.884,1.259c-0.431,0.294-0.93,0.401-1.496,0.322s-1.02-0.471-1.359-1.173
			c-0.59-1.134-1.241-2.317-1.955-3.553s-1.479-2.499-2.295-3.791c-0.182-0.294-0.244-0.566-0.188-0.816
			c0.057-0.249,0.182-0.441,0.374-0.578c0.192-0.136,0.425-0.191,0.697-0.17C292.454,23.694,292.714,23.829,292.964,24.078z"/>
		<path class="st0" d="M333.832,32.612H305c-0.386,0-0.68-0.131-0.884-0.391c-0.204-0.262-0.306-0.556-0.306-0.885
			c0-0.328,0.102-0.623,0.306-0.884c0.204-0.26,0.498-0.391,0.884-0.391h11.866V5.855c0-0.59,0.188-1.025,0.562-1.31
			c0.373-0.283,0.787-0.425,1.24-0.425s0.867,0.147,1.241,0.442s0.562,0.726,0.562,1.292v24.208h13.361
			c0.362,0,0.646,0.131,0.851,0.391c0.204,0.261,0.306,0.556,0.306,0.884c0,0.329-0.097,0.623-0.289,0.885
			C334.506,32.482,334.217,32.612,333.832,32.612z M330.839,17.006h-7.582c-0.362,0-0.635-0.124-0.815-0.374
			c-0.182-0.249-0.272-0.526-0.272-0.833c0-0.306,0.091-0.589,0.272-0.85c0.181-0.26,0.453-0.391,0.815-0.391h7.582
			c0.362,0,0.635,0.131,0.816,0.391c0.182,0.261,0.272,0.544,0.272,0.85c0,0.307-0.091,0.584-0.272,0.833
			C331.474,16.882,331.202,17.006,330.839,17.006z"/>
		<path class="st0" d="M341.618,11.227c0-0.566,0.17-0.986,0.511-1.258c0.34-0.272,0.714-0.408,1.121-0.408
			c0.408,0,0.782,0.136,1.122,0.408c0.341,0.271,0.511,0.691,0.511,1.258v20.978c0,0.589-0.17,1.025-0.511,1.31
			c-0.34,0.283-0.714,0.425-1.122,0.425c-0.407,0-0.781-0.142-1.121-0.425c-0.341-0.284-0.511-0.721-0.511-1.31V11.227z
			 M345.97,21.001c-0.204-0.237-0.307-0.493-0.307-0.765c0-0.272,0.103-0.527,0.307-0.765c0.204-0.238,0.498-0.357,0.884-0.357
			h3.604v-6.018c0-0.408-0.136-0.726-0.407-0.952c-0.272-0.227-0.624-0.34-1.055-0.34h-2.142c-0.363,0-0.635-0.107-0.816-0.323
			c-0.182-0.215-0.283-0.459-0.306-0.731c-0.022-0.271,0.039-0.526,0.188-0.765c0.146-0.238,0.379-0.379,0.696-0.425
			c0.091-0.635,0.164-1.298,0.222-1.989c0.056-0.691,0.096-1.207,0.118-1.547c0.022-0.635,0.232-1.088,0.63-1.36
			c0.396-0.271,0.81-0.374,1.24-0.306s0.793,0.295,1.088,0.68c0.295,0.386,0.362,0.907,0.204,1.564
			c-0.113,0.386-0.271,0.821-0.476,1.309c-0.204,0.488-0.465,1.026-0.782,1.615h1.802c1.134,0,1.921,0.289,2.363,0.867
			s0.663,1.274,0.663,2.091v16.66c0,0.793-0.21,1.428-0.629,1.903c-0.42,0.477-1.162,0.715-2.228,0.715h-3.978
			c-0.386,0-0.669-0.119-0.85-0.357c-0.182-0.238-0.272-0.498-0.272-0.782c0-0.283,0.091-0.544,0.272-0.782
			c0.181-0.237,0.464-0.356,0.85-0.356h3.604v-8.126h-3.604C346.468,21.359,346.174,21.239,345.97,21.001z M354.436,16.377
			c0.09,0.238,0.232,0.408,0.425,0.511c0.192,0.102,0.408,0.13,0.646,0.085c0.237-0.046,0.459-0.216,0.663-0.511
			c0.951-1.428,1.802-2.952,2.55-4.572c0.748-1.621,1.359-3.451,1.836-5.491c0.136-0.612,0.051-1.11-0.255-1.496
			c-0.307-0.385-0.681-0.617-1.122-0.697c-0.442-0.079-0.879,0.012-1.31,0.272s-0.691,0.72-0.781,1.377
			c-0.318,1.949-0.697,3.723-1.14,5.32c-0.441,1.599-0.935,3.077-1.479,4.438C354.356,15.885,354.345,16.14,354.436,16.377z
			 M358.363,20.236c-0.374-0.884-0.72-1.654-1.037-2.313c-0.091-0.203-0.102-0.401-0.034-0.595c0.068-0.192,0.182-0.351,0.341-0.476
			c0.158-0.125,0.345-0.188,0.561-0.188c0.215,0,0.425,0.103,0.629,0.307c1.564,1.587,2.811,3.094,3.74,4.521
			c0.34,0.521,0.413,1.021,0.221,1.496s-0.499,0.833-0.918,1.071c-0.42,0.237-0.867,0.306-1.343,0.204
			c-0.476-0.103-0.816-0.459-1.02-1.071C359.117,22.107,358.737,21.12,358.363,20.236z M363.803,34.414
			c-0.329-0.158-0.516-0.396-0.562-0.714c-0.067-0.408-0.221-0.73-0.459-0.969c-0.237-0.238-0.561-0.425-0.969-0.562
			c-0.408-0.136-0.896-0.237-1.462-0.306c-0.567-0.068-1.202-0.136-1.904-0.204c-0.249-0.022-0.437-0.131-0.561-0.323
			c-0.125-0.192-0.182-0.396-0.17-0.611c0.011-0.216,0.09-0.408,0.237-0.578s0.368-0.255,0.663-0.255
			c0.499,0.022,1.009,0.034,1.53,0.034s1.009-0.012,1.462-0.034s0.861-0.068,1.224-0.137c0.362-0.067,0.657-0.17,0.885-0.306
			c0.453-0.271,0.799-0.776,1.037-1.513c0.237-0.736,0.413-1.773,0.526-3.111c0.113-1.337,0.182-2.997,0.204-4.98
			s0.034-4.335,0.034-7.056c0-0.362-0.074-0.629-0.221-0.799c-0.148-0.17-0.426-0.255-0.833-0.255h-3.162
			c-0.363,0-0.635-0.119-0.816-0.357c-0.182-0.237-0.271-0.498-0.271-0.781s0.09-0.544,0.271-0.782s0.453-0.357,0.816-0.357h5.1
			c0.498,0,0.906,0.08,1.225,0.238c0.316,0.159,0.571,0.374,0.765,0.646c0.192,0.271,0.323,0.577,0.391,0.918
			c0.068,0.34,0.103,0.68,0.103,1.02c0,3.445-0.034,6.403-0.103,8.874c-0.067,2.471-0.237,4.567-0.51,6.29
			c-0.271,1.723-0.675,3.123-1.207,4.199c-0.533,1.076-1.253,1.932-2.159,2.566C364.5,34.505,364.131,34.572,363.803,34.414z"/>
		<path class="st0" d="M380.412,33.021c0,0.544-0.176,0.946-0.527,1.207c-0.352,0.26-0.742,0.391-1.173,0.391
			s-0.821-0.131-1.173-0.391c-0.352-0.261-0.527-0.663-0.527-1.207V7.385c0-0.545,0.176-0.946,0.527-1.207s0.742-0.392,1.173-0.392
			s0.821,0.131,1.173,0.392s0.527,0.662,0.527,1.207V33.021z M401.39,5.855c2.107,0,3.161,1.043,3.161,3.128v24.004
			c0,0.408-0.124,0.753-0.374,1.037c-0.249,0.283-0.544,0.476-0.884,0.578c-0.34,0.102-0.68,0.124-1.02,0.067
			s-0.612-0.221-0.816-0.492c-0.362-0.499-0.76-0.901-1.189-1.207c-0.432-0.307-0.976-0.459-1.633-0.459h-16.184
			c-0.386,0-0.669-0.119-0.85-0.357c-0.182-0.238-0.272-0.499-0.272-0.782s0.091-0.544,0.272-0.782
			c0.181-0.237,0.464-0.356,0.85-0.356h18.7V9.492c0-0.431-0.136-0.765-0.408-1.003s-0.624-0.357-1.054-0.357h-17.238
			c-0.386,0-0.675-0.118-0.867-0.356c-0.192-0.238-0.289-0.498-0.289-0.782c0-0.283,0.097-0.544,0.289-0.782
			c0.192-0.237,0.481-0.356,0.867-0.356H401.39z M389.047,16.258c0-0.565,0.176-0.991,0.527-1.274s0.736-0.425,1.156-0.425
			c0.419,0,0.804,0.142,1.155,0.425s0.527,0.709,0.527,1.274v1.089h4.42c0.362,0,0.641,0.113,0.833,0.34s0.289,0.481,0.289,0.765
			c0,0.284-0.097,0.539-0.289,0.765c-0.192,0.228-0.471,0.341-0.833,0.341h-4.42v5.439h6.256c0.362,0,0.641,0.119,0.833,0.357
			c0.192,0.237,0.289,0.499,0.289,0.782s-0.097,0.544-0.289,0.781c-0.192,0.238-0.471,0.357-0.833,0.357h-15.775
			c-0.386,0-0.669-0.119-0.851-0.357c-0.182-0.237-0.271-0.498-0.271-0.781s0.096-0.545,0.289-0.782
			c0.192-0.238,0.47-0.357,0.833-0.357h6.153v-5.439h-4.352c-0.363,0-0.635-0.113-0.816-0.341c-0.182-0.226-0.271-0.48-0.271-0.765
			c0-0.283,0.09-0.538,0.271-0.765s0.453-0.34,0.816-0.34h4.352V16.258z M397.65,13.437h-13.771c-0.362,0-0.635-0.119-0.815-0.357
			c-0.182-0.238-0.272-0.493-0.272-0.765c0-0.272,0.091-0.527,0.272-0.766c0.181-0.237,0.453-0.356,0.815-0.356h13.771
			c0.362,0,0.64,0.119,0.833,0.356c0.192,0.238,0.289,0.493,0.289,0.766c0,0.271-0.097,0.526-0.289,0.765
			C398.29,13.318,398.012,13.437,397.65,13.437z M394.658,20.508c0.589,0.272,1.094,0.522,1.513,0.748
			c0.419,0.228,0.754,0.432,1.003,0.612c0.408,0.272,0.606,0.606,0.596,1.003c-0.012,0.397-0.137,0.731-0.374,1.003
			c-0.238,0.272-0.544,0.431-0.918,0.477c-0.374,0.045-0.721-0.158-1.037-0.612c-0.34-0.476-0.629-0.872-0.867-1.19
			c-0.238-0.316-0.481-0.623-0.731-0.918c-0.136-0.136-0.198-0.289-0.187-0.459c0.011-0.17,0.057-0.322,0.136-0.459
			c0.079-0.136,0.198-0.226,0.357-0.271C394.306,20.396,394.476,20.418,394.658,20.508z"/>
		<path class="st0" d="M424.85,27.275c-2.426,1.745-6.619,3.423-12.58,5.032c-0.295,0.067-0.533,0.039-0.714-0.085
			c-0.182-0.125-0.307-0.284-0.374-0.477c-0.068-0.192-0.063-0.391,0.017-0.595s0.243-0.352,0.493-0.442
			c2.38-0.861,4.527-1.785,6.443-2.771c1.915-0.986,3.677-2.023,5.286-3.111c0.408-0.271,0.805-0.362,1.19-0.271
			c0.385,0.091,0.674,0.277,0.867,0.561c0.192,0.284,0.255,0.629,0.187,1.037C425.598,26.561,425.326,26.935,424.85,27.275z
			 M423.354,23.16c-0.68,0.386-1.354,0.748-2.023,1.088s-1.394,0.681-2.176,1.021s-1.66,0.68-2.635,1.02s-2.097,0.691-3.366,1.055
			c-0.271,0.091-0.499,0.079-0.68-0.034c-0.182-0.113-0.301-0.267-0.357-0.459s-0.046-0.392,0.034-0.596
			c0.079-0.204,0.243-0.351,0.493-0.441c1.088-0.431,2.051-0.845,2.89-1.241s1.615-0.793,2.329-1.19
			c0.714-0.396,1.389-0.81,2.023-1.24c0.634-0.431,1.303-0.906,2.006-1.429c0.408-0.294,0.799-0.379,1.173-0.255
			c0.374,0.125,0.657,0.346,0.85,0.663s0.255,0.675,0.188,1.071C424.034,22.588,423.785,22.911,423.354,23.16z M415.704,12.586
			c-0.182,0.748-0.51,1.236-0.985,1.462c-0.477,0.228-0.936,0.262-1.377,0.103c-0.442-0.158-0.777-0.471-1.004-0.936
			c-0.227-0.464-0.158-0.991,0.204-1.58c0.25-0.431,0.477-0.833,0.681-1.207s0.385-0.736,0.544-1.089
			c0.158-0.351,0.306-0.714,0.441-1.088c0.137-0.374,0.272-0.775,0.408-1.207c0.091-0.294,0.243-0.492,0.459-0.595
			c0.215-0.102,0.431-0.124,0.646-0.068c0.215,0.058,0.401,0.177,0.561,0.357c0.158,0.182,0.227,0.408,0.204,0.68
			c-0.068,0.93-0.159,1.78-0.271,2.551C416.1,10.739,415.93,11.612,415.704,12.586z M424.51,18.128
			c-0.998,0.681-2.392,1.429-4.183,2.244c-1.791,0.816-4.058,1.678-6.8,2.584c-0.271,0.091-0.499,0.074-0.68-0.051
			c-0.182-0.124-0.307-0.277-0.374-0.459c-0.068-0.182-0.068-0.374,0-0.578c0.067-0.204,0.215-0.351,0.441-0.441
			c1.179-0.454,2.244-0.901,3.196-1.344c0.952-0.441,1.824-0.895,2.618-1.359c0.793-0.465,1.524-0.94,2.193-1.429
			c0.668-0.486,1.319-1.003,1.954-1.547c0.408-0.34,0.816-0.476,1.225-0.408c0.408,0.068,0.73,0.25,0.969,0.545
			c0.238,0.294,0.334,0.651,0.289,1.07C425.314,17.375,425.031,17.766,424.51,18.128z M418.254,14.899
			c-0.407,0-0.714-0.119-0.918-0.357c-0.203-0.237-0.306-0.504-0.306-0.799c0-0.294,0.103-0.561,0.306-0.799
			c0.204-0.238,0.511-0.357,0.918-0.357h16.423c0.43,0,0.753,0.119,0.969,0.357c0.215,0.238,0.323,0.505,0.323,0.799
			c0,0.295-0.108,0.562-0.323,0.799c-0.216,0.238-0.539,0.357-0.969,0.357H418.254z M439.062,7.588c0.521,0,0.957,0.108,1.309,0.323
			c0.352,0.216,0.606,0.488,0.766,0.816c0.158,0.328,0.209,0.691,0.152,1.088s-0.221,0.765-0.493,1.104
			c-0.453,0.544-0.855,1.021-1.206,1.429c-0.353,0.407-0.731,0.827-1.14,1.258c-0.204,0.227-0.437,0.356-0.697,0.391
			s-0.492,0-0.696-0.102c-0.204-0.103-0.352-0.261-0.442-0.477c-0.091-0.215-0.079-0.459,0.034-0.73
			c0.204-0.453,0.362-0.851,0.476-1.19s0.227-0.725,0.341-1.155c0.045-0.113,0.033-0.216-0.034-0.307
			c-0.068-0.09-0.159-0.136-0.272-0.136h-18.666c-0.386,0-0.675-0.119-0.867-0.357c-0.192-0.237-0.289-0.504-0.289-0.799
			c0-0.294,0.097-0.561,0.289-0.799c0.192-0.238,0.481-0.357,0.867-0.357h6.97c-0.271-0.453-0.526-0.895-0.765-1.325
			s-0.516-0.885-0.833-1.36c-0.136-0.227-0.187-0.453-0.153-0.68c0.034-0.227,0.131-0.408,0.289-0.544
			c0.158-0.137,0.362-0.216,0.612-0.238c0.249-0.022,0.521,0.057,0.816,0.238c0.815,0.521,1.422,0.94,1.818,1.258
			s0.663,0.532,0.799,0.646c0.386,0.318,0.596,0.658,0.63,1.021c0.033,0.362-0.04,0.691-0.222,0.985H439.062z M426.788,18.809
			c0.521,0.657,1.015,1.349,1.479,2.073c0.464,0.727,0.867,1.463,1.207,2.211c0.34,0.747,0.6,1.49,0.782,2.227
			c0.181,0.736,0.271,1.434,0.271,2.091c0,0.816-0.074,1.536-0.221,2.159c-0.147,0.624-0.357,1.19-0.629,1.7
			c-0.272,0.51-0.618,0.969-1.037,1.377c-0.42,0.408-0.913,0.815-1.479,1.224c-0.635,0.453-1.179,0.629-1.632,0.527
			c-0.453-0.103-0.68-0.437-0.68-1.003c0-0.159-0.018-0.313-0.051-0.459c-0.034-0.147-0.148-0.278-0.341-0.392
			s-0.481-0.216-0.866-0.306c-0.386-0.091-0.93-0.17-1.633-0.238c-0.34-0.022-0.583-0.131-0.73-0.322
			c-0.147-0.193-0.216-0.403-0.204-0.63c0.011-0.226,0.096-0.425,0.255-0.595c0.158-0.17,0.374-0.255,0.646-0.255
			c1.11,0,1.943-0.011,2.499-0.034c0.555-0.022,0.957-0.09,1.207-0.204c0.589-0.226,0.991-0.696,1.207-1.411
			c0.215-0.714,0.276-1.547,0.187-2.499c-0.091-0.951-0.312-1.982-0.663-3.094c-0.352-1.11-0.788-2.176-1.309-3.195
			c-0.137-0.272-0.165-0.527-0.085-0.766c0.079-0.238,0.215-0.413,0.407-0.526s0.42-0.153,0.681-0.119
			C426.317,18.383,426.561,18.536,426.788,18.809z M430.902,22.446c-0.25,0.113-0.471,0.119-0.663,0.017
			c-0.192-0.102-0.34-0.237-0.442-0.407c-0.102-0.17-0.142-0.362-0.118-0.578c0.021-0.216,0.136-0.392,0.34-0.527
			c0.884-0.566,1.722-1.15,2.516-1.751c0.793-0.601,1.587-1.32,2.38-2.159c0.431-0.453,0.867-0.663,1.31-0.629
			c0.441,0.034,0.799,0.193,1.07,0.477c0.272,0.283,0.402,0.646,0.392,1.088c-0.012,0.441-0.244,0.845-0.697,1.207
			c-0.295,0.249-0.663,0.51-1.104,0.781c-0.442,0.272-0.936,0.55-1.479,0.833c-0.544,0.284-1.11,0.567-1.7,0.851
			S431.514,22.197,430.902,22.446z M440.932,29.111c0.476,0.34,0.719,0.754,0.73,1.241s-0.119,0.906-0.391,1.258
			c-0.272,0.351-0.652,0.572-1.139,0.663c-0.488,0.09-0.981-0.091-1.479-0.544c-0.499-0.431-1.02-0.946-1.563-1.547
			c-0.545-0.601-1.077-1.253-1.599-1.955s-1.031-1.429-1.53-2.177c-0.498-0.747-0.963-1.483-1.394-2.21
			c-0.159-0.271-0.204-0.515-0.136-0.73c0.067-0.215,0.192-0.385,0.374-0.51c0.181-0.125,0.396-0.176,0.646-0.153
			s0.477,0.147,0.681,0.374c1.224,1.36,2.391,2.539,3.502,3.536C438.745,27.354,439.844,28.273,440.932,29.111z"/>
	</g>
</g>
<rect x="1.5" y="1.5" class="st1" width="34.468" height="34.468"/>
</svg>