<!-- Generator: Adobe Illustrator 24.1.3, SVG Export Plug-In  -->
<svg version="1.1" xmlns="http://www.w3.org/2000/svg" xmlns:xlink="http://www.w3.org/1999/xlink" x="0px" y="0px"
	 width="459.637px" height="98.445px" viewBox="0 0 459.637 98.445"
	 style="overflow:visible;enable-background:new 0 0 459.637 98.445;" xml:space="preserve">
<style type="text/css">
	.st0{fill:none;}
	.st1{fill:#BF2222;}
	.st2{font-family:'HYQingFenTi-W';}
	.st3{font-size:72px;}
</style>
<defs>
</defs>
<g>
	<g>
		<rect x="92.605" y="5.335" class="st0" width="367.032" height="93.11"/>
		<path class="st1" d="M105.121,52.208c-1.151,1.105-2.231,1.584-3.24,1.44c-1.008-0.144-1.776-0.6-2.304-1.368
			c-0.529-0.768-0.709-1.667-0.54-2.7c0.167-1.032,0.875-1.883,2.124-2.556c1.775-0.959,3.371-1.944,4.788-2.952
			c1.415-1.008,2.675-1.968,3.78-2.88c0.096-0.095,0.18-0.155,0.252-0.18c0.072-0.024,0.154-0.06,0.252-0.108
			c0.096-2.88,0.154-6.06,0.18-9.54c0.023-3.48,0.036-7.332,0.036-11.556c0-1.199,0.371-2.099,1.116-2.7
			c0.743-0.6,1.548-0.9,2.412-0.9c0.863,0,1.667,0.313,2.412,0.936c0.743,0.625,1.115,1.561,1.115,2.808
			c0,3.456-0.012,6.649-0.035,9.576c-0.025,2.928-0.085,5.652-0.181,8.172c-0.097,2.52-0.229,4.86-0.396,7.02
			c-0.17,2.16-0.373,4.201-0.612,6.12c-0.337,2.496-0.817,4.776-1.44,6.84c-0.624,2.064-1.429,3.985-2.412,5.76
			c-0.984,1.776-2.172,3.467-3.563,5.076c-1.394,1.607-3.024,3.204-4.896,4.788c-0.433,0.335-0.889,0.456-1.369,0.36
			c-0.48-0.097-0.889-0.313-1.224-0.648c-0.337-0.336-0.517-0.756-0.54-1.26c-0.024-0.504,0.203-1.021,0.684-1.548
			c2.4-2.352,4.248-5.027,5.545-8.028c1.296-3,2.16-6.66,2.592-10.98l0.359-4.752C108.624,48.417,106.993,50.336,105.121,52.208z
			 M102.097,32.696c-0.385-1.296-0.768-2.592-1.151-3.888c-0.385-1.296-0.745-2.376-1.08-3.24c-0.144-0.479-0.12-0.947,0.071-1.404
			c0.191-0.456,0.48-0.803,0.865-1.044c0.383-0.24,0.827-0.324,1.332-0.252c0.504,0.072,0.995,0.396,1.475,0.972
			c0.289,0.336,0.648,0.804,1.08,1.404c0.433,0.601,0.865,1.224,1.297,1.872s0.839,1.249,1.224,1.8
			c0.384,0.553,0.647,0.949,0.792,1.188c0.768,1.152,0.973,2.221,0.612,3.204c-0.36,0.984-0.961,1.692-1.8,2.124
			c-0.841,0.432-1.729,0.468-2.664,0.108C103.213,35.18,102.529,34.233,102.097,32.696z M162.146,67.184
			c1.343,0.288,2.231,0.875,2.664,1.764c0.432,0.888,0.504,1.788,0.215,2.7c-0.287,0.912-0.863,1.656-1.728,2.232
			c-0.864,0.576-1.92,0.671-3.168,0.288c-3.312-1.008-6.708-2.208-10.188-3.6c-3.48-1.393-6.996-3.217-10.547-5.472
			c-3.072,1.393-6.469,2.844-10.188,4.356c-3.72,1.512-7.884,3.132-12.492,4.86c-0.575,0.24-1.116,0.216-1.62-0.072
			s-0.863-0.673-1.08-1.152c-0.216-0.48-0.264-0.972-0.144-1.476c0.119-0.504,0.515-0.9,1.188-1.188
			c3.888-1.537,7.487-2.977,10.799-4.32c3.312-1.343,6.336-2.711,9.072-4.104c-1.393-1.055-2.76-2.184-4.104-3.384
			c-1.344-1.199-2.689-2.52-4.032-3.96c-0.48-0.479-0.685-0.96-0.612-1.44c0.072-0.479,0.289-0.888,0.648-1.224
			c0.359-0.335,0.792-0.54,1.296-0.612c0.504-0.072,0.972,0.061,1.404,0.396c1.823,1.537,3.61,2.904,5.364,4.104
			c1.751,1.2,3.467,2.304,5.147,3.312c3.601-2.207,6.408-4.56,8.425-7.056c0.383-0.528,0.49-1.008,0.323-1.44
			c-0.169-0.432-0.66-0.648-1.476-0.648h-23.545c-0.768,0-1.356-0.252-1.764-0.756c-0.408-0.504-0.611-1.055-0.611-1.656
			c0-0.6,0.191-1.152,0.576-1.656c0.383-0.504,0.982-0.756,1.799-0.756h29.232c1.055,0,1.98,0.229,2.771,0.684
			c0.793,0.457,1.38,1.056,1.765,1.8c0.384,0.745,0.515,1.584,0.396,2.52c-0.12,0.936-0.564,1.884-1.332,2.844
			c-1.393,1.681-3,3.252-4.824,4.716c-1.824,1.465-3.936,2.869-6.336,4.212c2.736,1.249,5.461,2.293,8.173,3.132
			C156.324,65.972,159.169,66.655,162.146,67.184z M127.009,29.096c0-1.343,0.384-2.34,1.152-2.988
			c0.768-0.648,1.607-0.972,2.52-0.972s1.752,0.324,2.521,0.972c0.767,0.648,1.151,1.645,1.151,2.988
			c0,2.113-0.348,3.949-1.043,5.508c-0.697,1.561-1.621,2.941-2.772,4.14c-1.151,1.2-2.473,2.244-3.96,3.132
			c-1.488,0.889-3.023,1.692-4.607,2.412c-0.576,0.241-1.105,0.277-1.584,0.108c-0.48-0.167-0.854-0.443-1.117-0.828
			c-0.264-0.384-0.372-0.804-0.323-1.26c0.047-0.456,0.335-0.852,0.864-1.188c1.247-0.815,2.327-1.595,3.24-2.34
			c0.91-0.744,1.655-1.572,2.231-2.484c0.575-0.911,1.008-1.944,1.296-3.096S127.009,30.68,127.009,29.096z M121.466,21.32
			c-0.865,0-1.502-0.252-1.908-0.756c-0.408-0.504-0.612-1.067-0.612-1.692c0-0.623,0.204-1.188,0.612-1.692
			c0.406-0.504,1.043-0.756,1.908-0.756h13.752l-2.449-4.824c-0.287-0.479-0.372-0.936-0.252-1.368
			c0.119-0.432,0.348-0.779,0.685-1.044c0.335-0.263,0.756-0.407,1.26-0.432c0.505-0.024,1.044,0.18,1.62,0.612
			c1.584,1.152,2.76,2.077,3.527,2.772c0.768,0.696,1.271,1.165,1.513,1.404c0.479,0.48,0.792,0.961,0.937,1.44
			c0.144,0.48,0.167,0.96,0.071,1.44h19.944c0.863,0,1.523,0.252,1.98,0.756c0.455,0.504,0.684,1.069,0.684,1.692
			c0,0.625-0.229,1.188-0.684,1.692c-0.457,0.504-1.117,0.756-1.98,0.756H121.466z M138.673,29.816c-0.816,0-1.416-0.252-1.8-0.756
			c-0.385-0.504-0.576-1.044-0.576-1.62c0-0.576,0.191-1.116,0.576-1.62c0.384-0.504,0.983-0.756,1.8-0.756h10.44
			c1.536,0,2.711,0.48,3.528,1.44c0.814,0.961,1.224,2.232,1.224,3.816v3.312c0,1.104,0.204,1.825,0.612,2.16
			c0.406,0.336,1.139,0.504,2.195,0.504h3.528c0.864,0,1.522,0.288,1.979,0.864c0.456,0.576,0.685,1.213,0.685,1.908
			c0,0.696-0.229,1.332-0.685,1.908c-0.457,0.576-1.115,0.864-1.979,0.864h-6.192c-2.832,0-4.801-0.6-5.904-1.8
			c-1.104-1.199-1.655-2.927-1.655-5.184v-3.312c0-1.152-0.601-1.728-1.8-1.728H138.673z"/>
		<path class="st1" d="M178.417,24.128c0,1.872-0.012,3.528-0.036,4.968s-0.061,2.761-0.108,3.96
			c-0.048,1.2-0.144,2.365-0.287,3.492c-0.145,1.128-0.313,2.292-0.504,3.492c-0.241,1.249-0.781,2.113-1.62,2.592
			c-0.841,0.48-1.669,0.612-2.484,0.396c-0.816-0.216-1.465-0.756-1.944-1.62c-0.48-0.864-0.456-2.016,0.072-3.456
			c0.479-1.392,0.875-2.639,1.188-3.744c0.313-1.104,0.588-2.196,0.828-3.276c0.24-1.08,0.443-2.184,0.613-3.312
			c0.167-1.127,0.371-2.412,0.611-3.852c0.047-0.576,0.275-0.996,0.684-1.26c0.408-0.263,0.828-0.372,1.26-0.324
			c0.433,0.048,0.828,0.241,1.188,0.576C178.237,23.096,178.417,23.552,178.417,24.128z M186.769,70.856
			c0,1.152-0.336,2.016-1.008,2.592c-0.672,0.576-1.416,0.864-2.231,0.864c-0.817,0-1.561-0.288-2.232-0.864
			c-0.673-0.576-1.008-1.44-1.008-2.592V13.04c0-1.199,0.335-2.088,1.008-2.664c0.672-0.576,1.415-0.852,2.232-0.828
			c0.815,0.024,1.56,0.324,2.231,0.9c0.672,0.576,1.008,1.44,1.008,2.592V70.856z M190.657,21.536
			c0.911,1.393,1.656,2.617,2.232,3.672c0.576,1.057,1.104,2.137,1.584,3.24c0.432,1.008,0.419,1.872-0.037,2.592
			c-0.456,0.72-1.043,1.224-1.764,1.512c-0.72,0.288-1.439,0.288-2.16,0c-0.72-0.288-1.151-0.96-1.295-2.016
			c-0.289-1.824-0.541-3.264-0.757-4.32c-0.216-1.056-0.468-2.208-0.756-3.456c-0.097-0.432-0.036-0.816,0.181-1.152
			c0.215-0.335,0.479-0.563,0.791-0.684c0.313-0.12,0.66-0.132,1.045-0.036C190.105,20.984,190.417,21.2,190.657,21.536z
			 M232.777,20.744h-14.831v3.816h11.88c0.768,0,1.344,0.241,1.729,0.72c0.383,0.48,0.575,1.008,0.575,1.584
			c0,0.576-0.192,1.104-0.575,1.584c-0.385,0.48-0.961,0.72-1.729,0.72h-11.88v3.96h16.92c0.767,0,1.343,0.241,1.728,0.72
			c0.384,0.48,0.576,1.021,0.576,1.62c0,0.601-0.192,1.141-0.576,1.62c-0.385,0.48-0.961,0.72-1.728,0.72h-40.752
			c-0.769,0-1.345-0.24-1.728-0.72c-0.385-0.479-0.576-1.019-0.576-1.62c0-0.6,0.191-1.14,0.576-1.62
			c0.383-0.479,0.959-0.72,1.728-0.72h16.92v-3.96h-11.808c-0.77,0-1.345-0.239-1.729-0.72c-0.385-0.479-0.576-1.008-0.576-1.584
			c0-0.576,0.191-1.104,0.576-1.584c0.384-0.479,0.959-0.72,1.729-0.72h11.808v-3.816h-14.832c-0.769,0-1.345-0.24-1.728-0.72
			c-0.385-0.479-0.576-1.008-0.576-1.584c0-0.576,0.191-1.104,0.576-1.584c0.383-0.479,0.959-0.72,1.728-0.72h14.832v-3.24
			c0.048-1.248,0.433-2.184,1.151-2.808c0.721-0.623,1.513-0.936,2.377-0.936c0.863,0,1.643,0.313,2.34,0.936
			c0.695,0.625,1.044,1.561,1.044,2.808v3.24h14.831c0.768,0,1.344,0.241,1.729,0.72c0.384,0.48,0.576,1.008,0.576,1.584
			c0,0.576-0.192,1.105-0.576,1.584C234.12,20.504,233.544,20.744,232.777,20.744z M203.329,70.856c0,1.152-0.349,2.004-1.044,2.556
			c-0.696,0.551-1.476,0.828-2.34,0.828s-1.646-0.277-2.341-0.828c-0.695-0.552-1.043-1.404-1.043-2.556V44.792
			c0-1.152,0.348-2.003,1.043-2.556c0.695-0.551,1.477-0.828,2.341-0.828s1.644,0.277,2.34,0.828
			c0.695,0.552,1.044,1.404,1.044,2.556V70.856z M232.129,48.248c0-1.008-0.084-1.932-0.252-2.772
			c-0.169-0.839-0.48-1.559-0.937-2.16c-0.456-0.6-1.079-1.067-1.871-1.404c-0.793-0.335-1.813-0.504-3.061-0.504h-18.432
			c-0.816,0-1.416,0.241-1.801,0.72c-0.384,0.48-0.575,1.021-0.575,1.62c0,0.601,0.191,1.141,0.575,1.62
			c0.385,0.48,0.984,0.72,1.801,0.72h14.977c1.823,0,2.735,1.033,2.735,3.096v11.664c0,0.961-0.048,1.764-0.144,2.412
			c-0.098,0.648-0.36,1.152-0.793,1.512c-0.432,0.36-1.092,0.601-1.979,0.72c-0.889,0.12-2.101,0.133-3.636,0.036
			c-0.48-0.047-0.864,0.084-1.152,0.396c-0.288,0.313-0.457,0.671-0.504,1.08c-0.049,0.408,0.036,0.792,0.252,1.152
			c0.217,0.36,0.588,0.563,1.116,0.612c2.159,0.335,3.791,0.78,4.896,1.332c1.104,0.551,1.584,1.307,1.44,2.268
			c-0.144,0.864,0.181,1.44,0.972,1.728c0.793,0.288,1.668,0.096,2.629-0.576c0.814-0.576,1.476-1.152,1.979-1.728
			c0.504-0.576,0.888-1.188,1.151-1.836s0.433-1.368,0.504-2.16c0.072-0.792,0.108-1.692,0.108-2.7V48.248z M221.041,54.08h-13.464
			c-0.721,0-1.26-0.227-1.62-0.684c-0.36-0.456-0.54-0.972-0.54-1.548s0.18-1.091,0.54-1.548c0.36-0.456,0.899-0.684,1.62-0.684
			h13.464c0.72,0,1.271,0.229,1.656,0.684c0.384,0.457,0.575,0.972,0.575,1.548s-0.191,1.092-0.575,1.548
			C222.313,53.853,221.761,54.08,221.041,54.08z M220.97,62.072h-13.393c-0.721,0-1.26-0.228-1.62-0.684
			c-0.36-0.456-0.54-0.972-0.54-1.548c0-0.576,0.18-1.091,0.54-1.548c0.36-0.456,0.899-0.684,1.62-0.684h13.393
			c0.767,0,1.332,0.229,1.691,0.684c0.359,0.457,0.54,0.972,0.54,1.548c0,0.576-0.181,1.092-0.54,1.548
			C222.302,61.844,221.736,62.072,220.97,62.072z"/>
		<path class="st1" d="M273.241,31.976c0.768-0.623,1.62-0.936,2.556-0.936c0.937,0,1.8,0.313,2.593,0.936
			c0.791,0.625,1.188,1.537,1.188,2.736c0,2.448-0.145,4.705-0.432,6.768h25.703c0.816,0,1.428,0.277,1.836,0.828
			c0.408,0.552,0.612,1.152,0.612,1.8c0,0.648-0.204,1.237-0.612,1.764c-0.408,0.529-1.02,0.792-1.836,0.792h-26.711
			c-1.057,4.129-2.653,7.668-4.789,10.62s-4.633,5.472-7.487,7.56c-2.856,2.088-5.989,3.839-9.396,5.256
			c-3.41,1.416-6.912,2.652-10.513,3.708c-0.817,0.24-1.452,0.191-1.908-0.144c-0.456-0.336-0.769-0.768-0.937-1.296
			c-0.168-0.529-0.168-1.069,0-1.62c0.168-0.552,0.516-0.925,1.045-1.116c3.407-1.296,6.539-2.628,9.396-3.996
			c2.855-1.368,5.41-2.927,7.668-4.68c2.255-1.751,4.176-3.78,5.76-6.084c1.584-2.304,2.808-5.04,3.672-8.208h-23.256
			c-0.817,0-1.44-0.263-1.873-0.792c-0.432-0.527-0.647-1.116-0.647-1.764c0-0.648,0.216-1.248,0.647-1.8
			c0.433-0.551,1.056-0.828,1.873-0.828h24.264c0.288-2.063,0.432-4.32,0.432-6.768C272.089,33.512,272.473,32.6,273.241,31.976z
			 M249.121,28.087c-0.433-0.527-0.647-1.116-0.647-1.764s0.215-1.235,0.647-1.764c0.433-0.527,1.056-0.792,1.872-0.792h50.256
			c0.816,0,1.428,0.265,1.836,0.792c0.407,0.529,0.612,1.116,0.612,1.764s-0.205,1.236-0.612,1.764
			c-0.408,0.529-1.02,0.792-1.836,0.792h-50.256C250.177,28.88,249.554,28.616,249.121,28.087z M261.541,17.54
			c0.792,0.984,1.62,2.101,2.483,3.348c0.528,0.817,1.141,1.332,1.837,1.548c0.694,0.216,1.355,0.252,1.979,0.108
			c0.623-0.144,1.188-0.456,1.692-0.936c0.504-0.479,0.864-1.019,1.08-1.62c0.216-0.6,0.239-1.235,0.071-1.908
			c-0.168-0.671-0.611-1.296-1.332-1.872c-0.863-0.671-1.896-1.404-3.096-2.196c-1.2-0.792-2.808-1.812-4.824-3.06
			c-0.528-0.335-1.056-0.443-1.584-0.324c-0.528,0.121-0.947,0.36-1.26,0.72s-0.48,0.817-0.504,1.368
			c-0.024,0.552,0.18,1.068,0.612,1.548C259.801,15.464,260.749,16.556,261.541,17.54z M278.425,52.712
			c0.096-0.527,0.313-0.947,0.648-1.26c0.335-0.312,0.756-0.492,1.26-0.54c0.504-0.047,0.973,0.144,1.404,0.576
			c2.399,2.016,4.619,3.744,6.66,5.184c2.039,1.44,4.043,2.725,6.012,3.852c1.968,1.128,3.947,2.172,5.939,3.132
			c1.992,0.96,4.115,1.944,6.373,2.952c1.199,0.528,1.918,1.308,2.159,2.34c0.239,1.032,0.144,1.991-0.288,2.88
			c-0.432,0.888-1.152,1.536-2.16,1.944c-1.008,0.407-2.184,0.276-3.527-0.396c-4.896-2.544-9.35-5.4-13.355-8.568
			c-4.01-3.168-7.573-6.671-10.693-10.512C278.472,53.768,278.328,53.24,278.425,52.712z M291.134,18.548
			c1.127-0.792,2.026-1.523,2.699-2.196c1.055-1.008,1.512-2.027,1.368-3.06c-0.144-1.031-0.601-1.847-1.368-2.448
			c-0.768-0.6-1.668-0.9-2.699-0.9c-1.033,0-1.908,0.552-2.629,1.656c-0.912,1.393-1.752,2.617-2.52,3.672
			c-0.769,1.057-1.656,2.16-2.664,3.312c-0.432,0.529-0.637,1.057-0.612,1.584c0.024,0.529,0.204,0.961,0.54,1.296
			c0.336,0.336,0.779,0.54,1.332,0.612c0.551,0.072,1.163-0.108,1.836-0.54C288.433,20.337,290.005,19.34,291.134,18.548z"/>
		<path class="st1" d="M345.097,57.536l-4.896,1.656v11.376c0,1.248-0.324,2.184-0.972,2.808c-0.648,0.624-1.345,0.936-2.088,0.936
			c-0.745,0-1.44-0.313-2.088-0.936c-0.648-0.624-0.973-1.56-0.973-2.808v-9.432c-2.545,0.72-4.992,1.393-7.344,2.016
			c-2.353,0.624-4.729,1.224-7.129,1.8c-1.295,0.336-2.316,0.18-3.059-0.468c-0.746-0.648-1.188-1.428-1.332-2.34
			c-0.145-0.911,0.023-1.8,0.504-2.664c0.479-0.864,1.295-1.368,2.447-1.512c2.639-0.335,5.279-0.684,7.92-1.044
			c2.64-0.36,5.304-0.78,7.992-1.26V45.8h-3.889c-0.816,0-1.428-0.24-1.836-0.72c-0.408-0.479-0.611-1.019-0.611-1.62
			c0-0.6,0.203-1.14,0.611-1.62c0.408-0.479,1.02-0.72,1.836-0.72h3.889v-8.568h-3.889c-0.816,0-1.428-0.24-1.836-0.72
			c-0.408-0.479-0.611-1.019-0.611-1.62c0-0.6,0.203-1.14,0.611-1.62c0.408-0.479,1.02-0.72,1.836-0.72h3.889V19.52h-7.775v32.76
			c0,1.056-0.337,1.848-1.009,2.376c-0.673,0.529-1.403,0.792-2.196,0.792c-0.791,0-1.512-0.263-2.16-0.792
			c-0.647-0.528-0.971-1.32-0.971-2.376V19.52h-1.656c-0.769,0-1.345-0.252-1.729-0.756c-0.385-0.504-0.576-1.055-0.576-1.656
			c0-0.6,0.191-1.152,0.576-1.656c0.384-0.504,0.96-0.756,1.729-0.756h23.543c0.816,0,1.428,0.264,1.836,0.792
			c0.408,0.529,0.613,1.092,0.613,1.692c0,0.601-0.205,1.152-0.613,1.656c-0.408,0.504-1.02,0.732-1.836,0.684h-1.655v34.992
			l4.032-0.864c0.623-0.144,1.139-0.072,1.548,0.216c0.407,0.288,0.659,0.673,0.756,1.152c0.096,0.48,0.036,0.961-0.181,1.44
			C346.142,56.936,345.72,57.296,345.097,57.536z M358.129,33.776c0,1.393-0.024,2.748-0.071,4.068
			c-0.049,1.321-0.121,2.581-0.217,3.78h-12.744c-0.816,0-1.439,0.252-1.871,0.756c-0.433,0.504-0.648,1.068-0.648,1.692
			c0,0.624,0.216,1.188,0.648,1.692c0.432,0.504,1.055,0.756,1.871,0.756h12.096c-0.432,2.689-1.043,5.161-1.836,7.416
			c-0.791,2.257-1.799,4.381-3.023,6.372c-1.225,1.992-2.688,3.864-4.393,5.616c-1.703,1.751-3.66,3.492-5.867,5.22
			c-0.432,0.335-0.648,0.756-0.648,1.26c0,0.504,0.145,0.947,0.432,1.332c0.289,0.383,0.695,0.623,1.225,0.72
			c0.527,0.096,1.127-0.072,1.8-0.504c5.472-3.553,9.78-7.548,12.925-11.988c3.143-4.439,5.314-9.587,6.516-15.444h14.328
			c0.815,0,1.428-0.252,1.836-0.756c0.407-0.504,0.611-1.068,0.611-1.692c0-0.624-0.204-1.188-0.611-1.692
			c-0.408-0.504-1.021-0.756-1.836-0.756h-13.536c0.288-2.448,0.432-5.063,0.432-7.848c0-1.2-0.385-2.112-1.151-2.736
			c-0.77-0.623-1.621-0.936-2.557-0.936s-1.789,0.313-2.556,0.936C358.513,31.664,358.129,32.576,358.129,33.776z M346.753,28.736
			h30.096c0.816,0,1.428-0.252,1.836-0.756c0.408-0.504,0.612-1.067,0.612-1.692c0-0.623-0.204-1.188-0.612-1.692
			s-1.02-0.756-1.836-0.756h-30.096c-0.816,0-1.439,0.252-1.872,0.756c-0.432,0.504-0.647,1.069-0.647,1.692
			c0,0.625,0.216,1.188,0.647,1.692C345.314,28.484,345.937,28.736,346.753,28.736z M347.761,13.112
			c-0.336-0.528-0.457-1.044-0.359-1.548c0.096-0.504,0.312-0.9,0.648-1.188c0.334-0.288,0.756-0.456,1.26-0.504
			c0.504-0.047,0.995,0.121,1.476,0.504c1.728,1.489,3.096,2.689,4.104,3.6c1.008,0.913,1.871,1.728,2.592,2.448
			c0.863,0.96,1.176,1.92,0.936,2.88c-0.24,0.96-0.756,1.704-1.548,2.232c-0.792,0.529-1.692,0.732-2.7,0.612
			c-1.008-0.119-1.8-0.803-2.376-2.052c-0.673-1.248-1.308-2.4-1.907-3.456C349.284,15.585,348.577,14.408,347.761,13.112z
			 M364.249,53.576c0.721,2.016,1.439,3.852,2.16,5.508c0.72,1.656,1.487,3.216,2.304,4.68c0.815,1.465,1.656,2.88,2.521,4.248
			c0.863,1.368,1.8,2.795,2.808,4.284c0.815,1.296,1.765,1.968,2.845,2.016c1.079,0.047,2.016-0.264,2.807-0.936
			c0.793-0.672,1.284-1.548,1.477-2.628c0.191-1.08-0.192-2.1-1.152-3.06c-1.295-1.296-2.496-2.531-3.6-3.708
			c-1.104-1.175-2.16-2.376-3.168-3.6c-1.008-1.224-1.969-2.508-2.88-3.852c-0.913-1.343-1.825-2.855-2.735-4.536
			c-0.289-0.528-0.661-0.864-1.117-1.008c-0.456-0.144-0.889-0.12-1.295,0.072c-0.409,0.192-0.721,0.504-0.937,0.936
			S364.057,52.953,364.249,53.576z M368.713,21.248c-0.575,0.432-1.141,0.648-1.692,0.648s-1.008-0.155-1.367-0.468
			c-0.36-0.312-0.564-0.72-0.612-1.224s0.119-1.019,0.504-1.548c0.864-1.152,1.62-2.256,2.269-3.312
			c0.647-1.055,1.355-2.279,2.123-3.672c0.576-1.104,1.369-1.704,2.377-1.8c1.008-0.096,1.883,0.121,2.627,0.648
			c0.744,0.529,1.225,1.285,1.44,2.268c0.216,0.984-0.132,1.98-1.044,2.988c-0.624,0.672-1.429,1.429-2.412,2.268
			C371.941,18.884,370.536,19.952,368.713,21.248z"/>
		<path class="st1" d="M394.597,18.224c0.793-0.671,1.68-1.008,2.664-1.008c0.983,0,1.873,0.349,2.664,1.044
			c0.793,0.696,1.188,1.717,1.188,3.06c0,5.425-0.085,10.212-0.252,14.364c-0.169,4.152-0.421,7.837-0.757,11.052
			c-0.336,3.216-0.78,6.06-1.332,8.532c-0.552,2.473-1.212,4.741-1.979,6.804c-0.769,2.064-1.645,4.008-2.628,5.832
			c-0.984,1.823-2.076,3.695-3.275,5.616c-0.385,0.576-0.841,0.924-1.369,1.044c-0.528,0.12-1.008,0.06-1.439-0.18
			c-0.432-0.241-0.744-0.588-0.936-1.044c-0.193-0.457-0.169-0.972,0.072-1.548c1.343-2.977,2.422-5.951,3.239-8.928
			c0.815-2.976,1.44-6.36,1.872-10.152c0.432-3.791,0.721-8.208,0.863-13.248c0.145-5.04,0.217-11.135,0.217-18.288
			C393.409,19.88,393.806,18.897,394.597,18.224z M452.917,69.308c0.407,0.888,0.469,1.764,0.18,2.628
			c-0.287,0.864-0.876,1.56-1.764,2.088c-0.889,0.528-2.052,0.576-3.492,0.144c-2.496-0.768-4.801-1.512-6.912-2.232
			c-2.112-0.72-4.08-1.417-5.904-2.088c-1.824-0.673-3.539-1.332-5.147-1.98s-3.157-1.309-4.644-1.98
			c-3.889,1.631-8.053,3.168-12.492,4.608c-4.44,1.44-8.988,2.711-13.645,3.816c-0.72,0.144-1.284,0.072-1.691-0.216
			c-0.408-0.288-0.673-0.648-0.792-1.08c-0.12-0.432-0.097-0.864,0.071-1.296s0.492-0.72,0.973-0.864
			c4.271-1.249,8.195-2.532,11.771-3.852c3.576-1.319,6.877-2.675,9.9-4.068c-1.393-0.767-2.761-1.571-4.104-2.412
			c-1.345-0.839-2.762-1.739-4.248-2.7c-0.576-0.335-0.9-0.78-0.973-1.332c-0.072-0.551,0.036-1.044,0.324-1.476
			s0.721-0.731,1.296-0.9c0.576-0.167,1.247-0.06,2.017,0.324c2.111,1.105,4.115,2.113,6.012,3.024
			c1.896,0.912,3.779,1.752,5.652,2.52c3.982-2.063,7.344-4.08,10.08-6.048c0.383-0.24,0.504-0.527,0.359-0.864
			c-0.145-0.335-0.408-0.504-0.792-0.504h-28.08c-0.817,0-1.417-0.252-1.8-0.756c-0.385-0.504-0.576-1.067-0.576-1.692
			c0-0.623,0.191-1.188,0.576-1.692c0.383-0.504,0.982-0.756,1.8-0.756h32.544c1.248,0,2.279,0.3,3.096,0.9
			c0.816,0.601,1.368,1.344,1.656,2.232c0.288,0.889,0.313,1.813,0.072,2.772c-0.24,0.961-0.792,1.8-1.656,2.52
			c-1.344,1.104-2.88,2.196-4.607,3.276c-1.729,1.08-3.648,2.149-5.76,3.204c2.592,0.864,5.352,1.704,8.279,2.52
			c2.928,0.817,6.264,1.631,10.008,2.448C451.704,67.832,452.509,68.419,452.917,69.308z M421.165,43.1
			c-0.408-0.504-0.611-1.055-0.611-1.656c0-0.6,0.203-1.14,0.611-1.62c0.407-0.479,1.02-0.72,1.836-0.72h10.152v-5.328H418.97v6.84
			c0,1.104-0.361,1.944-1.08,2.52c-0.721,0.576-1.502,0.864-2.34,0.864c-0.842,0-1.621-0.275-2.341-0.828
			c-0.72-0.551-1.08-1.404-1.08-2.556v-6.84h-7.2c-0.863,0-1.5-0.252-1.908-0.756s-0.611-1.044-0.611-1.62
			c0-0.576,0.203-1.116,0.611-1.62s1.045-0.756,1.908-0.756h7.2v-1.872c0-1.152,0.36-2.004,1.08-2.556
			c0.72-0.551,1.499-0.828,2.341-0.828c0.838,0,1.619,0.277,2.34,0.828c0.719,0.552,1.08,1.404,1.08,2.556v1.872h14.184v-2.016
			c0-1.152,0.359-2.004,1.08-2.556c0.72-0.551,1.512-0.828,2.375-0.828c0.865,0,1.656,0.277,2.377,0.828
			c0.72,0.552,1.08,1.404,1.08,2.556v2.016h8.496c0.863,0,1.523,0.252,1.979,0.756s0.685,1.044,0.685,1.62
			c0,0.576-0.229,1.116-0.685,1.62s-1.116,0.756-1.979,0.756h-8.496v5.76c0,1.584-0.504,2.7-1.512,3.348
			c-1.009,0.648-2.425,0.972-4.248,0.972h-11.305C422.185,43.856,421.572,43.604,421.165,43.1z M403.741,17.972
			c-0.408,0.504-0.612,1.069-0.612,1.692c0,0.625,0.204,1.188,0.612,1.692c0.407,0.504,1.044,0.756,1.908,0.756h43.488
			c0.863,0,1.522-0.252,1.979-0.756c0.456-0.504,0.685-1.067,0.685-1.692c0-0.623-0.229-1.188-0.685-1.692
			c-0.457-0.504-1.116-0.756-1.979-0.756h-20.449c0.289-0.624,0.372-1.284,0.252-1.98c-0.119-0.695-0.539-1.379-1.26-2.052
			c-0.287-0.24-0.853-0.695-1.691-1.368c-0.84-0.671-2.124-1.559-3.852-2.664c-0.625-0.384-1.201-0.551-1.729-0.504
			c-0.529,0.048-0.961,0.216-1.296,0.504c-0.337,0.288-0.54,0.672-0.612,1.152c-0.072,0.48,0.036,0.96,0.324,1.44
			c0.623,0.961,1.199,1.861,1.729,2.7c0.527,0.84,1.055,1.764,1.584,2.772H405.65C404.785,17.216,404.149,17.468,403.741,17.972z"/>
	</g>
	<g>
		<g>
			<path class="st1" d="M40.839,0C18.32,0,0,18.32,0,40.839c0,22.519,18.32,40.839,40.839,40.839s40.839-18.32,40.839-40.839
				C81.677,18.32,63.357,0,40.839,0z M40.839,74.27c-18.434,0-33.431-14.998-33.431-33.432c0-18.434,14.997-33.431,33.431-33.431
				S74.27,22.405,74.27,40.839C74.27,59.273,59.273,74.27,40.839,74.27z"/>
			<path class="st1" d="M60.783,33.354H47.639c-0.624,0-1.176-0.402-1.369-0.995l-4.062-12.501c-0.431-1.327-2.307-1.327-2.739,0
				l-4.062,12.501c-0.193,0.593-0.745,0.995-1.369,0.995H20.894c-1.395,0-1.975,1.785-0.846,2.604l10.634,7.726
				c0.505,0.367,0.716,1.017,0.523,1.61l-4.062,12.501c-0.431,1.327,1.087,2.429,2.216,1.61l10.634-7.726
				c0.505-0.367,1.188-0.367,1.693,0l10.634,7.726c1.128,0.82,2.646-0.283,2.216-1.61l-4.062-12.501
				c-0.193-0.593,0.018-1.243,0.523-1.61l10.634-7.726C62.758,35.139,62.178,33.354,60.783,33.354z"/>
		</g>
	</g>
</g>
</svg>