<!-- Generator: Adobe Illustrator 24.1.3, SVG Export Plug-In  -->
<svg version="1.1" xmlns="http://www.w3.org/2000/svg" xmlns:xlink="http://www.w3.org/1999/xlink" x="0px" y="0px"
	 width="391.555px" height="243.948px" viewBox="0 0 391.555 243.948"
	 style="overflow:visible;enable-background:new 0 0 391.555 243.948;" xml:space="preserve">
<style type="text/css">
	.st0{fill:#FFFFFF;stroke:#1C3B94;stroke-width:2;stroke-linecap:round;stroke-linejoin:round;stroke-miterlimit:10;}
	.st1{fill:#FFFFFF;stroke:#1C3B94;stroke-width:2;stroke-miterlimit:10;}
	.st2{fill:#FFE291;stroke:#1C3B94;stroke-width:2;stroke-linecap:round;stroke-linejoin:round;stroke-miterlimit:10;}
	.st3{fill:#1C3B94;}
	.st4{fill:#BF2222;}
	.st5{fill:none;stroke:#1C3B94;stroke-width:2;stroke-linecap:round;stroke-linejoin:round;stroke-miterlimit:10;}
	.st6{fill:none;}
	.st7{font-family:'FZLANTY_ZHUNK--GBK1-0';}
	.st8{font-size:28.8559px;}
	.st9{letter-spacing:1;}
	.st10{font-size:19px;}
	.st11{font-size:17.3135px;}
	.st12{font-size:21px;}
</style>
<defs>
</defs>
<g>
	<g>
		<path class="st0" d="M266.814,65.953V49.442H134.901l0,0c0,26.754-21.689,48.443-48.442,48.443
			c-26.754,0-48.442-21.689-48.442-48.443l0,0H1v193.505h389.555V65.953H266.814z"/>
		<path class="st1" d="M86.459,97.885c26.754,0,48.442-21.689,48.442-48.443l0,0C134.901,22.689,113.213,1,86.459,1
			C59.705,1,38.017,22.689,38.016,49.442l0,0C38.016,76.196,59.705,97.885,86.459,97.885z"/>
	</g>
	<polygon class="st2" points="266.814,17.051 266.814,49.442 266.814,65.953 390.555,65.953 390.555,49.442 390.555,17.051 	"/>
	<g>
		<g>
			<path class="st3" d="M291.305,45.11c-0.151,4.509-2.556,6.837-7.214,6.989c-3.683-0.151-6.05-1.841-7.102-5.072
				c-0.151-1.127,0.112-1.765,0.789-1.917c0.75-0.226,1.276,0.113,1.578,1.015c0.901,2.254,2.479,3.42,4.734,3.494
				c3.004-0.074,4.545-1.539,4.621-4.396c0.074-2.779-1.955-4.17-6.087-4.17c-1.053,0-1.578-0.451-1.578-1.353
				c0-0.826,0.525-1.24,1.578-1.24c3.681,0,5.523-1.277,5.523-3.833c-0.076-2.404-1.429-3.644-4.058-3.72
				c-2.181,0.076-3.607,1.166-4.283,3.269c-0.226,1.053-0.716,1.465-1.466,1.24c-0.901-0.074-1.278-0.601-1.127-1.578
				c1.127-3.455,3.418-5.259,6.876-5.41c4.283,0.151,6.499,2.217,6.65,6.199c0,2.105-0.94,3.795-2.818,5.073
				C290.102,40.827,291.229,42.631,291.305,45.11z"/>
		</g>
	</g>
	<g>
		<g>
			<path class="st4" d="M149.569,33.283c-0.565,0.297-1.001,0.198-1.31-0.297c-0.258-0.544-0.154-0.939,0.309-1.188
				c3.082-1.583,5.548-3.611,7.396-6.086c0.565-0.692,1.053-1.014,1.465-0.965c0.462-0.049,0.949,0.272,1.464,0.965
				c1.644,2.227,4.083,4.132,7.319,5.715c0.463,0.297,0.59,0.718,0.386,1.262c-0.258,0.495-0.72,0.619-1.387,0.371
				c-3.032-1.633-5.548-3.661-7.552-6.086c-0.104-0.148-0.23-0.148-0.385,0C155.322,29.548,152.753,31.651,149.569,33.283z
				 M157.429,42.412c-0.617-0.05-0.951-0.396-1.002-1.039v-9.723c0.051-0.594,0.385-0.915,1.002-0.965
				c0.616,0.05,0.949,0.371,1.001,0.965v9.723C158.378,42.016,158.045,42.363,157.429,42.412z"/>
			<path class="st4" d="M167.907,33.951c-0.154-0.049-0.283-0.271-0.385-0.668c0-0.247,0.077-0.47,0.23-0.668
				c1.541-2.375,2.774-4.873,3.699-7.496c0.204-0.494,0.59-0.717,1.155-0.668c0.564,0.198,0.771,0.545,0.616,1.039
				c-0.462,1.336-0.95,2.549-1.464,3.637v12.469c-0.052,0.494-0.334,0.767-0.848,0.816c-0.514-0.05-0.797-0.322-0.848-0.816v-9.277
				c-0.308,0.445-0.616,0.891-0.924,1.336C168.832,34.051,168.42,34.15,167.907,33.951z M173.841,29.498
				c-0.515-0.049-0.797-0.321-0.848-0.816c0.051-0.445,0.333-0.692,0.848-0.742h4.546v-2.969c0.051-0.494,0.333-0.767,0.848-0.816
				c0.513,0.05,0.796,0.322,0.848,0.816v2.969h4.932c0.513,0.05,0.795,0.297,0.847,0.742c-0.052,0.495-0.334,0.768-0.847,0.816
				h-4.007c1.232,3.019,2.928,5.468,5.085,7.348c0.411,0.445,0.463,0.891,0.154,1.336c-0.412,0.445-0.848,0.471-1.31,0.074
				c-2.107-2.078-3.726-4.602-4.854-7.57v6.457h2.389c0.513,0,0.771,0.248,0.771,0.742c-0.052,0.495-0.309,0.768-0.771,0.816h-2.389
				v2.82c-0.052,0.544-0.335,0.841-0.848,0.891c-0.515-0.05-0.797-0.347-0.848-0.891v-2.82h-2.389
				c-0.462-0.049-0.72-0.321-0.771-0.816c0.051-0.494,0.309-0.742,0.771-0.742h2.389v-6.309c-1.079,2.87-2.672,5.418-4.777,7.645
				c-0.412,0.347-0.848,0.347-1.31,0c-0.412-0.445-0.386-0.891,0.077-1.336c2.312-2.227,4.031-4.774,5.162-7.645H173.841z"/>
			<path class="st4" d="M189.483,27.643c-0.566-0.049-0.874-0.346-0.925-0.891c0.051-0.544,0.358-0.841,0.925-0.891h14.64
				c0.565,0.05,0.873,0.347,0.925,0.891c-0.052,0.545-0.359,0.842-0.925,0.891h-6.241v11.504h7.32
				c0.564,0.05,0.873,0.347,0.925,0.891c-0.052,0.544-0.36,0.841-0.925,0.891h-16.798c-0.565-0.05-0.874-0.347-0.925-0.891
				c0.103-0.544,0.411-0.841,0.925-0.891h7.475V27.643H189.483z"/>
			<path class="st4" d="M207.822,27.569c-0.412-0.049-0.644-0.271-0.693-0.668c0.05-0.445,0.281-0.692,0.693-0.742h8.09
				c-0.052-0.099-0.104-0.247-0.153-0.445c-0.104-0.396-0.181-0.618-0.231-0.668c-0.104-0.445,0.103-0.767,0.616-0.965
				c0.616-0.049,1.027,0.124,1.233,0.52c0.153,0.495,0.333,1.015,0.539,1.559h7.474c0.411,0.05,0.643,0.297,0.694,0.742
				c-0.052,0.396-0.283,0.619-0.694,0.668h-5.008c0.051,0,0.103,0,0.154,0l0.153,0.074c0.411,0.248,0.514,0.619,0.309,1.113
				c-0.052,0.05-0.104,0.124-0.154,0.223c-0.359,0.445-0.643,0.792-0.848,1.039h3.313c0.719,0.1,1.129,0.52,1.232,1.262v8.164
				c0.103,1.682-0.693,2.474-2.389,2.375c-0.153,0-0.462,0-0.924,0c-0.463,0.049-0.797,0.074-1.002,0.074
				c-0.616-0.1-0.951-0.371-1.002-0.816c-0.052-0.545,0.18-0.792,0.693-0.742c0.514,0,1.053,0,1.618,0
				c0.925,0.049,1.36-0.322,1.311-1.113v-7.348c0-0.297-0.154-0.445-0.463-0.445h-11.635c-0.309,0-0.462,0.148-0.462,0.445v9.723
				c-0.053,0.494-0.36,0.767-0.925,0.816c-0.515-0.05-0.797-0.322-0.848-0.816V31.28c0.103-0.742,0.539-1.162,1.31-1.262h3.236
				c-0.258-0.396-0.591-0.865-1.002-1.41c-0.154-0.396-0.026-0.717,0.386-0.965c0.462-0.148,0.848-0.049,1.155,0.297
				c0.565,0.693,0.976,1.237,1.233,1.633c0.103,0.148,0.103,0.297,0,0.445h3.159c0.667-0.891,1.129-1.559,1.387-2.004
				c0.154-0.247,0.386-0.396,0.693-0.445H207.822z M211.828,35.213c-0.412,0.248-0.771,0.174-1.079-0.223
				c-0.258-0.346-0.181-0.668,0.231-0.965c0.153-0.099,0.41-0.271,0.771-0.52c1.078-0.692,1.849-1.212,2.312-1.559
				c0.41-0.297,0.796-0.271,1.155,0.074c0.309,0.347,0.282,0.668-0.077,0.965C214.063,33.779,212.957,34.521,211.828,35.213z
				 M213.831,39.666c-0.616,0-0.925-0.297-0.925-0.891v-3.34c0-0.594,0.309-0.891,0.925-0.891h5.548
				c0.616,0,0.925,0.297,0.925,0.891v3.34c0,0.594-0.309,0.891-0.925,0.891H213.831z M218.377,38.33
				c0.257,0,0.386-0.123,0.386-0.371v-1.781c-0.052-0.247-0.181-0.371-0.386-0.371h-3.621c-0.206,0-0.309,0.124-0.309,0.371v1.781
				c0,0.248,0.103,0.371,0.309,0.371H218.377z M221.306,35.065c-0.309-0.197-0.798-0.52-1.465-0.965
				c-0.822-0.544-1.438-0.939-1.849-1.188c-0.309-0.247-0.335-0.544-0.077-0.891c0.308-0.346,0.667-0.396,1.078-0.148
				c1.542,0.891,2.62,1.559,3.236,2.004c0.359,0.248,0.437,0.594,0.231,1.039C222.153,35.313,221.768,35.362,221.306,35.065z"/>
			<path class="st4" d="M227.47,42.041c-0.515-0.297-0.616-0.742-0.309-1.336c1.335-1.93,1.952-4.7,1.85-8.313v-4.305
				c0.051-0.692,0.462-1.088,1.232-1.188h5.856c-0.052-0.197-0.231-0.544-0.54-1.039c-0.104-0.197-0.18-0.346-0.23-0.445
				c-0.154-0.544,0.025-0.915,0.539-1.113c0.616-0.099,1.079,0.124,1.387,0.668c0.103,0.1,0.231,0.347,0.386,0.742
				c0.204,0.347,0.358,0.619,0.462,0.816c0,0.148,0,0.272,0,0.371h5.009c0.771,0.05,1.181,0.445,1.232,1.188v5.418
				c-0.052,0.742-0.462,1.139-1.232,1.188H230.86c-0.104,2.672-0.771,4.998-2.003,6.977
				C228.445,42.164,227.983,42.288,227.47,42.041z M230.937,32.467v0.52h11.019c0.309,0,0.463-0.148,0.463-0.445v-3.414
				c0-0.346-0.154-0.52-0.463-0.52h-10.479c-0.36,0-0.54,0.174-0.54,0.52V32.467z"/>
		</g>
	</g>
	<g>
		<g>
			<path class="st3" d="M298.134,39.284c-0.451,0.271-0.835,0.249-1.149-0.067c-0.316-0.406-0.294-0.766,0.067-1.082
				c1.713-1.262,3.044-2.592,3.99-3.99c0.36-0.36,0.744-0.45,1.149-0.271c0.45,0.181,0.563,0.451,0.339,0.812
				c-0.181,0.271-0.384,0.541-0.609,0.812h7.439c0.45,0.045,0.699,0.271,0.744,0.676c0,0.451-0.158,0.812-0.474,1.082
				c-1.127,0.992-2.322,1.826-3.584,2.502c1.487,0.451,3.336,0.812,5.546,1.082c0.45,0.135,0.652,0.429,0.608,0.879
				c-0.135,0.406-0.497,0.586-1.082,0.541c-2.751-0.36-5.028-0.901-6.831-1.623c-1.668,0.722-4.125,1.353-7.371,1.894
				c-0.541,0.091-0.903-0.068-1.082-0.474c-0.046-0.541,0.135-0.833,0.541-0.879c2.705-0.406,4.778-0.879,6.222-1.42
				c-0.947-0.496-1.826-1.194-2.638-2.097c-0.271,0.271-0.677,0.632-1.218,1.082C298.472,38.97,298.27,39.149,298.134,39.284z
				 M297.526,49.159c-0.406,0.225-0.768,0.157-1.082-0.203c-0.271-0.361-0.227-0.676,0.135-0.947c1.037-0.585,2.276-1.42,3.72-2.502
				c0.406-0.225,0.767-0.203,1.082,0.068c0.315,0.406,0.293,0.744-0.067,1.014C300.546,47.175,299.283,48.032,297.526,49.159z
				 M297.188,44.695c-0.406-0.044-0.632-0.271-0.677-0.676c0.045-0.45,0.271-0.699,0.677-0.744h6.289v-0.947
				c0.045-0.496,0.315-0.766,0.812-0.812c0.496,0.045,0.767,0.316,0.812,0.812v0.947h5.816c0.406,0.045,0.631,0.294,0.677,0.744
				c-0.046,0.406-0.271,0.632-0.677,0.676H305.1v2.976c0.09,1.578-0.632,2.344-2.164,2.3c-0.091,0-0.315,0-0.676,0
				c-0.451,0.044-0.768,0.067-0.947,0.067c-0.451,0-0.744-0.226-0.879-0.676c0-0.497,0.203-0.767,0.608-0.812h1.218
				c0.901,0.09,1.307-0.316,1.217-1.217v-2.638H297.188z M300.975,36.782c0.991,0.947,2.097,1.714,3.313,2.299
				c1.218-0.541,2.344-1.217,3.382-2.029c0.09-0.044,0.112-0.09,0.067-0.135c-0.045-0.09-0.113-0.135-0.203-0.135H300.975z
				 M310.646,49.024c-0.135-0.091-0.384-0.249-0.744-0.474c-1.487-0.947-2.525-1.578-3.11-1.894
				c-0.271-0.271-0.316-0.585-0.136-0.947c0.315-0.271,0.698-0.315,1.15-0.135c0.676,0.361,1.758,0.992,3.246,1.894
				c0.271,0.181,0.45,0.294,0.541,0.338c0.36,0.316,0.428,0.653,0.202,1.015C311.48,49.226,311.096,49.294,310.646,49.024z"/>
			<path class="st3" d="M313.892,38.608c-0.405-0.044-0.632-0.292-0.676-0.744c0.044-0.406,0.271-0.631,0.676-0.676h1.759v-2.638
				c0.044-0.45,0.314-0.699,0.812-0.744c0.45,0.091,0.698,0.338,0.744,0.744v2.638h1.556c0.45,0.045,0.698,0.271,0.743,0.676
				c-0.045,0.451-0.293,0.699-0.743,0.744h-1.556v1.961c0.18,0,0.338,0.045,0.474,0.135l1.623,1.556
				c0.314,0.316,0.338,0.654,0.067,1.014c-0.316,0.316-0.654,0.338-1.015,0.068l-1.149-1.217V49.7
				c-0.046,0.406-0.294,0.653-0.744,0.744c-0.497-0.045-0.768-0.293-0.812-0.744v-7.98c-0.541,1.443-1.038,2.525-1.488,3.246
				c-0.226,0.361-0.541,0.429-0.946,0.203c-0.136-0.09-0.203-0.271-0.203-0.541c-0.046-0.18,0.044-0.474,0.271-0.879
				c0.856-1.262,1.623-2.976,2.3-5.14H313.892z M321.061,49.497c-0.586-0.045-0.902-0.361-0.946-0.947V35.903
				c0.044-0.585,0.36-0.901,0.946-0.947h6.831c0.585,0.045,0.901,0.361,0.946,0.947V48.55c-0.045,0.585-0.361,0.901-0.946,0.947
				H321.061z M321.602,36.715v2.638h5.749v-2.638c0-0.225-0.136-0.338-0.406-0.338h-4.937
				C321.738,36.377,321.602,36.49,321.602,36.715z M321.602,40.705v2.976h5.749v-2.976H321.602z M326.945,48.076
				c0.271,0,0.406-0.112,0.406-0.338v-2.705h-5.749v2.705c0,0.226,0.136,0.338,0.406,0.338H326.945z"/>
			<path class="st3" d="M332.287,38.879c-0.451-0.044-0.699-0.292-0.743-0.744c0.044-0.45,0.292-0.699,0.743-0.744h3.314
				c-0.181-0.225-0.497-0.653-0.947-1.285c-0.405-0.542-0.676-0.879-0.812-1.015c-0.226-0.36-0.158-0.699,0.203-1.015
				c0.406-0.18,0.788-0.112,1.149,0.203c0.18,0.181,0.541,0.632,1.082,1.353c0.45,0.586,0.744,0.947,0.88,1.082
				c0.18,0.181,0.225,0.406,0.135,0.676h2.503c0.314-0.406,0.946-1.285,1.894-2.638c0.18-0.225,0.292-0.382,0.338-0.473
				c0.314-0.36,0.698-0.45,1.149-0.271c0.45,0.271,0.563,0.608,0.339,1.014c-0.136,0.181-0.43,0.541-0.88,1.083
				c-0.451,0.586-0.767,1.014-0.946,1.285h3.449c0.45,0.045,0.698,0.294,0.743,0.744c-0.045,0.451-0.293,0.699-0.743,0.744h-5.613
				c0,0.722-0.046,1.669-0.136,2.841h6.628c0.495,0.045,0.766,0.293,0.812,0.744c-0.046,0.451-0.316,0.7-0.812,0.744h-6.357
				c0.991,2.661,3.179,4.396,6.561,5.208c0.495,0.225,0.652,0.609,0.474,1.15c-0.227,0.45-0.654,0.585-1.285,0.406
				c-3.473-1.082-5.704-2.863-6.695-5.343c-0.813,2.299-3.021,4.125-6.628,5.478c-0.632,0.225-1.038,0.112-1.218-0.338
				c-0.227-0.451-0.091-0.835,0.406-1.149c3.787-1.262,5.86-3.066,6.222-5.411h-6.087c-0.451-0.044-0.699-0.293-0.744-0.744
				c0.045-0.45,0.293-0.698,0.744-0.744h6.29c0.09-0.991,0.135-1.938,0.135-2.841H332.287z"/>
			<path class="st3" d="M348.655,36.715c-0.406-0.044-0.632-0.271-0.677-0.676c0.045-0.45,0.271-0.699,0.677-0.744h6.763
				c0.406,0.045,0.631,0.294,0.677,0.744c-0.046,0.406-0.271,0.632-0.677,0.676h-1.961v4.125h1.556
				c0.405,0.045,0.631,0.271,0.676,0.676c-0.045,0.451-0.271,0.7-0.676,0.744h-1.556v4.193c0.18-0.044,0.45-0.09,0.812-0.135
				c0.45-0.09,0.766-0.157,0.946-0.203c0.542-0.044,0.834,0.181,0.88,0.676c0.044,0.451-0.181,0.722-0.677,0.812
				c-0.496,0.091-1.42,0.249-2.772,0.473c-1.804,0.36-3.156,0.609-4.058,0.744c-0.451,0-0.744-0.226-0.88-0.676
				c-0.045-0.541,0.18-0.856,0.677-0.947c0.135,0,0.314-0.022,0.541-0.068v-7.236c0.044-0.45,0.271-0.699,0.676-0.744
				c0.45,0.045,0.699,0.294,0.744,0.744v7.034c0.541-0.044,1.104-0.135,1.691-0.271v-9.942H348.655z M354.876,40.502
				c-0.271-0.36-0.248-0.744,0.067-1.15c1.083-1.488,1.938-3.133,2.57-4.937c0.18-0.406,0.518-0.585,1.015-0.541
				c0.495,0.226,0.653,0.564,0.474,1.014c-0.271,0.722-0.564,1.353-0.88,1.894h5.546c0.406,0.045,0.631,0.293,0.677,0.744
				c-0.046,0.451-0.271,0.7-0.677,0.744h-0.879c-0.316,3.156-1.105,5.681-2.367,7.575c0.901,1.082,2.029,1.984,3.382,2.705
				c0.405,0.271,0.518,0.676,0.338,1.217c-0.316,0.45-0.722,0.541-1.218,0.271c-1.397-0.857-2.569-1.826-3.517-2.908
				c-0.946,1.083-2.188,2.074-3.72,2.976c-0.451,0.225-0.856,0.157-1.217-0.203c-0.271-0.451-0.181-0.857,0.271-1.217
				c1.577-0.812,2.817-1.758,3.72-2.84c-1.038-1.713-1.714-3.674-2.029-5.884c-0.045,0-0.067-0.044-0.067-0.136
				c-0.136,0.227-0.294,0.474-0.474,0.744C355.574,40.84,355.237,40.818,354.876,40.502z M357.65,38.27
				c-0.046,0-0.113-0.022-0.203-0.068c0.044,0.045,0.067,0.113,0.067,0.203c0.315,2.57,0.947,4.622,1.894,6.154
				c1.082-1.713,1.713-3.81,1.894-6.29H357.65z"/>
			<path class="st3" d="M365.901,40.434c-0.362-0.044-0.564-0.271-0.609-0.676c0.045-0.36,0.247-0.563,0.609-0.609h6.627v-0.406
				c0.09-0.496,0.36-0.766,0.813-0.812c0.45,0.045,0.698,0.316,0.743,0.812v0.406h6.695c0.36,0.045,0.563,0.249,0.609,0.609
				c-0.046,0.406-0.249,0.632-0.609,0.676h-6.695v1.353h4.938c0.676,0,1.015,0.338,1.015,1.015v1.488
				c0.044,1.127-0.52,1.714-1.691,1.758c-0.361,0-0.743,0-1.149,0s-0.654-0.18-0.744-0.541c-0.045-0.36,0.09-0.563,0.406-0.608
				c0.314,0,0.608,0,0.879,0c0.45,0.045,0.698-0.158,0.744-0.609V43.41c0.044-0.179-0.067-0.292-0.338-0.338h-4.059v1.015
				c1.668,1.939,3.968,3.27,6.898,3.99c0.496,0.225,0.653,0.585,0.474,1.083c-0.181,0.45-0.564,0.585-1.149,0.406
				c-2.705-0.903-4.78-2.165-6.223-3.788v3.99c-0.091,0.45-0.338,0.699-0.743,0.744c-0.452-0.045-0.723-0.294-0.813-0.744v-3.99
				c-1.308,1.533-3.404,2.863-6.289,3.99c-0.497,0.18-0.879,0.044-1.149-0.406c-0.136-0.497,0.021-0.857,0.473-1.082
				c2.976-0.856,5.298-2.276,6.966-4.261v-0.947h-3.854c-0.271,0-0.406,0.135-0.406,0.406v1.894c-0.045,0.451-0.315,0.7-0.812,0.744
				c-0.451-0.09-0.699-0.338-0.743-0.744v-2.57c0-0.676,0.338-1.015,1.014-1.015h4.802v-1.353H365.901z M365.36,38.338
				c-0.316-0.271-0.316-0.585,0-0.947c1.172-1.037,2.073-2.141,2.705-3.314c0.225-0.406,0.563-0.541,1.015-0.406
				c0.449,0.181,0.585,0.474,0.405,0.879c-0.045,0.091-0.113,0.203-0.203,0.338c-0.091,0.181-0.158,0.316-0.202,0.406h3.922
				c0.36,0.045,0.563,0.249,0.609,0.609c-0.046,0.361-0.249,0.564-0.609,0.609h-4.869c-0.497,0.676-1.06,1.285-1.69,1.826
				C366.035,38.608,365.674,38.608,365.36,38.338z M370.905,38.676c-0.271,0.271-0.586,0.248-0.946-0.068
				c-0.046-0.09-0.181-0.247-0.406-0.473c-0.226-0.271-0.384-0.428-0.473-0.474c-0.271-0.271-0.271-0.541,0-0.812
				c0.314-0.225,0.631-0.225,0.946,0c0.496,0.497,0.788,0.812,0.879,0.947C371.22,38.067,371.22,38.361,370.905,38.676z
				 M373.542,37.865c-0.361-0.225-0.405-0.541-0.135-0.947c0.766-0.766,1.396-1.713,1.894-2.841c0.135-0.36,0.474-0.496,1.015-0.406
				c0.36,0.181,0.495,0.474,0.405,0.879l-0.338,0.744h4.464c0.405,0.045,0.631,0.249,0.676,0.609
				c-0.045,0.361-0.271,0.564-0.676,0.609h-5.275c-0.046,0.091-0.113,0.203-0.203,0.338c-0.181,0.226-0.429,0.541-0.744,0.947
				C374.263,38.113,373.903,38.135,373.542,37.865z M378.614,38.676c-0.361,0.271-0.676,0.271-0.946,0
				c-0.091-0.09-0.271-0.271-0.541-0.541c-0.271-0.315-0.451-0.496-0.541-0.541c-0.227-0.271-0.203-0.541,0.067-0.812
				c0.314-0.271,0.631-0.271,0.947,0c0.36,0.316,0.698,0.654,1.014,1.014C378.885,38.113,378.885,38.406,378.614,38.676z"/>
		</g>
	</g>
	<g>
		<g>
			<path class="st3" d="M42.324,118.787c0.82,0,1.23,0.41,1.23,1.23c0,3.72-0.11,7.465-0.328,11.238
				c0.109,2.297-0.902,3.417-3.035,3.363c-0.492,0.054-1.066,0.082-1.723,0.082c-0.547-0.055-0.875-0.356-0.984-0.902
				c-0.055-0.603,0.218-0.931,0.82-0.984c0.492,0.109,1.038,0.109,1.641,0c0.984,0.054,1.504-0.492,1.559-1.641
				c0-0.382,0.027-0.984,0.082-1.805c0.109-3.718,0.164-6.534,0.164-8.449c0-0.328-0.192-0.492-0.574-0.492h-2.297
				c-0.055,0.274-0.082,0.574-0.082,0.902c-0.055,6.181-1.121,10.637-3.199,13.371c-0.328,0.382-0.793,0.464-1.395,0.246
				c-0.438-0.438-0.492-0.958-0.164-1.559c1.914-2.351,2.871-6.398,2.871-12.141c0-0.273,0.027-0.546,0.082-0.82h-2.215
				c-0.603-0.054-0.902-0.328-0.902-0.82c0-0.546,0.3-0.82,0.902-0.82h2.215c0.054-0.656,0.082-1.641,0.082-2.953
				c0.054-0.601,0.355-0.929,0.902-0.984c0.602,0.055,0.902,0.383,0.902,0.984c0,0.931,0,1.915,0,2.953H42.324z M46.754,134.127
				c-0.82-0.055-1.259-0.465-1.313-1.23v-13.699c0.054-0.765,0.492-1.175,1.313-1.23h5.086c0.82,0,1.23,0.41,1.23,1.23v13.699
				c-0.055,0.765-0.465,1.175-1.23,1.23H46.754z M50.774,132.322c0.273,0,0.41-0.136,0.41-0.41v-11.73c0-0.273-0.137-0.41-0.41-0.41
				h-3.035c-0.274,0-0.41,0.137-0.41,0.41v11.73c0,0.274,0.136,0.41,0.41,0.41H50.774z"/>
			<path class="st3" d="M55.86,122.56c-0.603-0.054-0.931-0.382-0.984-0.984c0.054-0.546,0.382-0.847,0.984-0.902h8.039
				c0.054-1.093,0.082-2.679,0.082-4.758c0.054-0.656,0.41-1.011,1.066-1.066c0.656,0.055,1.012,0.41,1.066,1.066
				c0,0.438,0,1.23,0,2.379c-0.055,1.148-0.082,1.942-0.082,2.379h8.121c0.546,0.055,0.848,0.356,0.902,0.902
				c-0.055,0.603-0.356,0.931-0.902,0.984h-8.121c0.82,4.704,3.581,8.094,8.285,10.172c0.656,0.328,0.82,0.82,0.492,1.477
				c-0.328,0.546-0.849,0.683-1.559,0.41c-4.376-2.024-7.137-5.086-8.285-9.187c-0.875,3.937-3.609,7.108-8.203,9.516
				c-0.603,0.273-1.121,0.164-1.559-0.328c-0.328-0.711-0.192-1.23,0.41-1.559c4.867-2.406,7.574-5.906,8.121-10.5H55.86z"/>
			<path class="st3" d="M75.957,133.799c-0.328-0.603-0.274-1.122,0.164-1.559c1.75-1.641,3.089-3.363,4.02-5.168
				c-0.438-0.656-1.066-1.612-1.887-2.871c-0.767-1.148-1.313-1.94-1.641-2.379c-0.219-0.437-0.137-0.82,0.246-1.148
				c0.492-0.218,0.93-0.136,1.313,0.246c0.546,0.82,1.53,2.215,2.953,4.184c0.656-1.694,1.12-3.527,1.395-5.496
				c0-0.328-0.164-0.492-0.492-0.492h-5.086c-0.547-0.054-0.849-0.355-0.902-0.902c0.054-0.546,0.355-0.847,0.902-0.902h6.48
				c0.71,0,1.066,0.356,1.066,1.066v0.492c-0.219,2.844-0.931,5.551-2.133,8.121c0.438,0.547,1.012,1.368,1.723,2.461
				c0.602,0.875,1.038,1.505,1.313,1.887c0.273,0.492,0.191,0.958-0.246,1.395c-0.547,0.328-1.039,0.218-1.477-0.328
				c-0.164-0.218-0.383-0.546-0.656-0.984c-0.656-1.038-1.203-1.858-1.641-2.461c-1.039,1.751-2.379,3.445-4.02,5.086
				C76.805,134.427,76.339,134.344,75.957,133.799z M85.965,121.248c-0.547-0.054-0.849-0.355-0.902-0.902
				c0.054-0.546,0.355-0.847,0.902-0.902h5.824v-3.609c0.054-0.601,0.382-0.929,0.984-0.984c0.602,0.055,0.93,0.383,0.984,0.984
				v3.609h1.641c0.546,0.055,0.848,0.356,0.902,0.902c-0.055,0.547-0.356,0.849-0.902,0.902h-1.641v10.09
				c0.054,2.242-0.957,3.335-3.035,3.281c-0.438,0.054-1.313,0.082-2.625,0.082c-0.603,0-0.957-0.301-1.066-0.902
				c0-0.656,0.3-1.013,0.902-1.066c0.656,0,1.34,0,2.051,0c1.313,0.109,1.914-0.519,1.805-1.887v-9.598H85.965z M89.246,128.385
				c-0.492,0.219-0.931,0.11-1.313-0.328c-0.055-0.109-0.164-0.273-0.328-0.492c-0.875-1.585-1.505-2.652-1.887-3.199
				c-0.328-0.492-0.274-0.902,0.164-1.23c0.492-0.218,0.93-0.136,1.313,0.246c0.164,0.219,0.438,0.629,0.82,1.23
				c0.766,1.204,1.284,1.997,1.559,2.379C89.848,127.593,89.738,128.056,89.246,128.385z"/>
			<path class="st3" d="M98.598,125.185c-0.603,0.328-1.066,0.219-1.395-0.328c-0.274-0.601-0.164-1.038,0.328-1.313
				c3.281-1.75,5.906-3.991,7.875-6.727c0.602-0.765,1.12-1.12,1.559-1.066c0.492-0.054,1.012,0.301,1.559,1.066
				c1.75,2.461,4.348,4.567,7.793,6.316c0.492,0.328,0.628,0.793,0.41,1.395c-0.274,0.547-0.767,0.685-1.477,0.41
				c-3.228-1.805-5.906-4.046-8.039-6.727c-0.11-0.164-0.246-0.164-0.41,0C104.722,121.057,101.988,123.381,98.598,125.185z
				 M106.965,135.275c-0.656-0.055-1.013-0.438-1.066-1.148v-10.746c0.054-0.656,0.41-1.011,1.066-1.066
				c0.656,0.055,1.012,0.41,1.066,1.066v10.746C107.977,134.837,107.621,135.22,106.965,135.275z"/>
			<path class="st3" d="M118.121,125.924c-0.164-0.054-0.301-0.3-0.41-0.738c0-0.273,0.082-0.519,0.246-0.738
				c1.641-2.625,2.953-5.386,3.938-8.285c0.218-0.546,0.628-0.792,1.23-0.738c0.602,0.219,0.82,0.603,0.656,1.148
				c-0.492,1.477-1.013,2.817-1.559,4.02v13.781c-0.055,0.546-0.356,0.847-0.902,0.902c-0.547-0.055-0.849-0.356-0.902-0.902
				v-10.254c-0.328,0.492-0.656,0.984-0.984,1.477C119.106,126.034,118.667,126.143,118.121,125.924z M124.438,121.002
				c-0.547-0.054-0.849-0.355-0.902-0.902c0.054-0.492,0.355-0.765,0.902-0.82h4.84v-3.281c0.054-0.546,0.355-0.847,0.902-0.902
				c0.546,0.055,0.848,0.356,0.902,0.902v3.281h5.25c0.546,0.055,0.848,0.328,0.902,0.82c-0.055,0.547-0.356,0.849-0.902,0.902
				h-4.266c1.313,3.336,3.117,6.043,5.414,8.121c0.438,0.492,0.492,0.984,0.164,1.477c-0.438,0.492-0.902,0.521-1.395,0.082
				c-2.243-2.297-3.966-5.086-5.168-8.367v7.137h2.543c0.546,0,0.82,0.274,0.82,0.82c-0.055,0.547-0.328,0.849-0.82,0.902h-2.543
				v3.117c-0.055,0.601-0.356,0.929-0.902,0.984c-0.547-0.055-0.849-0.383-0.902-0.984v-3.117h-2.543
				c-0.492-0.054-0.767-0.355-0.82-0.902c0.054-0.546,0.328-0.82,0.82-0.82h2.543v-6.973c-1.148,3.172-2.844,5.988-5.086,8.449
				c-0.438,0.383-0.902,0.383-1.395,0c-0.438-0.492-0.41-0.984,0.082-1.477c2.461-2.461,4.293-5.277,5.496-8.449H124.438z"/>
			<path class="st3" d="M141.09,118.951c-0.603-0.054-0.931-0.382-0.984-0.984c0.054-0.601,0.382-0.929,0.984-0.984h15.586
				c0.602,0.055,0.93,0.383,0.984,0.984c-0.055,0.603-0.383,0.931-0.984,0.984h-6.645v12.715h7.793
				c0.602,0.055,0.93,0.383,0.984,0.984c-0.055,0.601-0.383,0.929-0.984,0.984h-17.883c-0.603-0.055-0.931-0.383-0.984-0.984
				c0.109-0.601,0.438-0.929,0.984-0.984h7.957v-12.715H141.09z"/>
			<path class="st3" d="M160.613,118.869c-0.438-0.054-0.685-0.3-0.738-0.738c0.054-0.492,0.3-0.765,0.738-0.82h8.613
				c-0.055-0.109-0.11-0.273-0.164-0.492c-0.11-0.437-0.192-0.683-0.246-0.738c-0.11-0.492,0.109-0.847,0.656-1.066
				c0.656-0.054,1.094,0.137,1.313,0.574c0.164,0.547,0.355,1.122,0.574,1.723h7.957c0.438,0.055,0.684,0.328,0.738,0.82
				c-0.055,0.438-0.301,0.685-0.738,0.738h-5.332c0.054,0,0.109,0,0.164,0l0.164,0.082c0.438,0.274,0.546,0.685,0.328,1.23
				c-0.055,0.055-0.11,0.137-0.164,0.246c-0.383,0.492-0.685,0.875-0.902,1.148h3.527c0.766,0.11,1.202,0.574,1.313,1.395v9.023
				c0.109,1.858-0.738,2.734-2.543,2.625c-0.164,0-0.492,0-0.984,0c-0.492,0.054-0.849,0.082-1.066,0.082
				c-0.656-0.11-1.013-0.41-1.066-0.902c-0.055-0.603,0.191-0.875,0.738-0.82c0.546,0,1.12,0,1.723,0
				c0.984,0.054,1.448-0.356,1.395-1.23v-8.121c0-0.328-0.164-0.492-0.492-0.492h-12.387c-0.328,0-0.492,0.164-0.492,0.492v10.746
				c-0.055,0.546-0.383,0.847-0.984,0.902c-0.547-0.055-0.849-0.356-0.902-0.902V122.97c0.109-0.82,0.574-1.284,1.395-1.395h3.445
				c-0.274-0.437-0.629-0.956-1.066-1.559c-0.164-0.437-0.028-0.792,0.41-1.066c0.492-0.164,0.902-0.054,1.23,0.328
				c0.602,0.767,1.038,1.368,1.313,1.805c0.109,0.164,0.109,0.328,0,0.492h3.363c0.71-0.984,1.202-1.723,1.477-2.215
				c0.164-0.273,0.41-0.437,0.738-0.492H160.613z M164.879,127.318c-0.438,0.274-0.82,0.192-1.148-0.246
				c-0.274-0.382-0.192-0.738,0.246-1.066c0.164-0.109,0.438-0.3,0.82-0.574c1.148-0.765,1.969-1.339,2.461-1.723
				c0.438-0.328,0.848-0.3,1.23,0.082c0.328,0.383,0.3,0.738-0.082,1.066C167.258,125.733,166.081,126.553,164.879,127.318z
				 M167.012,132.24c-0.656,0-0.984-0.328-0.984-0.984v-3.691c0-0.656,0.328-0.984,0.984-0.984h5.906
				c0.656,0,0.984,0.328,0.984,0.984v3.691c0,0.656-0.328,0.984-0.984,0.984H167.012z M171.852,130.763
				c0.273,0,0.41-0.136,0.41-0.41v-1.969c-0.055-0.273-0.192-0.41-0.41-0.41h-3.855c-0.219,0-0.328,0.137-0.328,0.41v1.969
				c0,0.274,0.109,0.41,0.328,0.41H171.852z M174.969,127.154c-0.328-0.218-0.849-0.574-1.559-1.066
				c-0.875-0.601-1.531-1.038-1.969-1.313c-0.328-0.273-0.356-0.601-0.082-0.984c0.328-0.382,0.71-0.437,1.148-0.164
				c1.641,0.984,2.789,1.723,3.445,2.215c0.382,0.274,0.464,0.656,0.246,1.148C175.871,127.428,175.461,127.482,174.969,127.154z"/>
			<path class="st3" d="M181.531,134.865c-0.547-0.328-0.656-0.82-0.328-1.477c1.422-2.133,2.078-5.195,1.969-9.187v-4.758
				c0.054-0.765,0.492-1.202,1.313-1.313h6.234c-0.055-0.218-0.246-0.601-0.574-1.148c-0.11-0.218-0.192-0.382-0.246-0.492
				c-0.164-0.601,0.027-1.011,0.574-1.23c0.656-0.109,1.148,0.137,1.477,0.738c0.109,0.11,0.246,0.383,0.41,0.82
				c0.218,0.383,0.382,0.685,0.492,0.902c0,0.164,0,0.301,0,0.41h5.332c0.82,0.055,1.258,0.492,1.313,1.313v5.988
				c-0.055,0.82-0.492,1.259-1.313,1.313h-13.043c-0.11,2.953-0.82,5.524-2.133,7.711
				C182.57,135.001,182.077,135.138,181.531,134.865z M185.223,124.283v0.574h11.73c0.328,0,0.492-0.164,0.492-0.492v-3.773
				c0-0.382-0.164-0.574-0.492-0.574h-11.156c-0.383,0-0.574,0.192-0.574,0.574V124.283z"/>
			<path class="st3" d="M202.942,120.92c-0.492-0.054-0.767-0.328-0.82-0.82c0.054-0.546,0.328-0.847,0.82-0.902h1.887v-3.117
				c0.054-0.601,0.382-0.929,0.984-0.984c0.546,0.055,0.848,0.383,0.902,0.984v3.117h1.477c0.546,0.055,0.848,0.356,0.902,0.902
				c-0.055,0.492-0.356,0.767-0.902,0.82h-1.477v3.938c0.164-0.054,0.438-0.109,0.82-0.164c0.273-0.109,0.464-0.164,0.574-0.164
				c0.546,0,0.848,0.246,0.902,0.738c0.054,0.547-0.219,0.931-0.82,1.148c-0.055,0-0.164,0.028-0.328,0.082
				c-0.492,0.055-0.875,0.137-1.148,0.246v5.578c0.054,1.585-0.629,2.379-2.051,2.379c-0.164,0.054-0.574,0.082-1.23,0.082
				s-1.039-0.356-1.148-1.066c0.054-0.492,0.328-0.767,0.82-0.82c0.273,0,0.546,0,0.82,0c0.656,0,0.956-0.274,0.902-0.82v-4.922
				c-0.656,0.164-1.23,0.328-1.723,0.492c-0.603,0.055-0.984-0.191-1.148-0.738c-0.055-0.601,0.218-1.011,0.82-1.23
				c0.382-0.054,0.93-0.164,1.641-0.328c0.164-0.054,0.3-0.082,0.41-0.082v-4.348H202.942z M210.735,120.592
				c-0.547-0.054-0.849-0.355-0.902-0.902c0.054-0.546,0.355-0.847,0.902-0.902h3.527c0-0.82,0-1.723,0-2.707
				c0.054-0.601,0.382-0.929,0.984-0.984c0.602,0.055,0.93,0.383,0.984,0.984c0,0.875-0.028,1.778-0.082,2.707h4.184
				c0.546,0.055,0.848,0.356,0.902,0.902c-0.055,0.547-0.356,0.849-0.902,0.902h-4.184c0,1.313-0.055,2.489-0.164,3.527h5.004
				c0.546,0.055,0.848,0.356,0.902,0.902c-0.055,0.547-0.356,0.849-0.902,0.902h-4.758c0.656,2.953,2.379,5.25,5.168,6.891
				c0.438,0.437,0.52,0.929,0.246,1.477c-0.438,0.437-0.931,0.519-1.477,0.246c-2.735-1.805-4.43-4.073-5.086-6.809
				c-0.603,2.68-2.379,5.004-5.332,6.973c-0.547,0.328-1.066,0.218-1.559-0.328c-0.328-0.547-0.246-1.013,0.246-1.395
				c3.063-1.858,4.867-4.21,5.414-7.055h-3.691c-0.547-0.054-0.849-0.355-0.902-0.902c0.054-0.546,0.355-0.847,0.902-0.902h3.938
				c0-0.328,0-0.82,0-1.477c0.054-0.874,0.082-1.559,0.082-2.051H210.735z"/>
			<path class="st3" d="M223.942,120.92c-0.547-0.054-0.849-0.328-0.902-0.82c0.054-0.546,0.355-0.847,0.902-0.902h1.723v-3.199
				c0.054-0.546,0.355-0.847,0.902-0.902c0.546,0.055,0.848,0.356,0.902,0.902v3.199h1.559c0.492,0.055,0.766,0.356,0.82,0.902
				c-0.055,0.492-0.328,0.767-0.82,0.82h-1.559v3.855c0.164-0.054,0.41-0.109,0.738-0.164c0.328-0.109,0.574-0.164,0.738-0.164
				c0.602-0.054,0.93,0.192,0.984,0.738c0.054,0.603-0.219,0.984-0.82,1.148c-0.492,0.11-1.039,0.246-1.641,0.41v5.742
				c0,1.477-0.656,2.242-1.969,2.297c-0.438,0-0.902,0-1.395,0c-0.656,0-0.984-0.328-0.984-0.984
				c-0.055-0.492,0.191-0.767,0.738-0.82h0.984c0.546,0.054,0.82-0.274,0.82-0.984v-4.84c-0.164,0-0.438,0.055-0.82,0.164
				c-0.328,0.055-0.603,0.11-0.82,0.164c-0.656,0.11-1.039-0.136-1.148-0.738c-0.055-0.656,0.246-1.038,0.902-1.148
				c0.218-0.054,0.546-0.136,0.984-0.246c0.382-0.054,0.684-0.109,0.902-0.164v-4.266H223.942z M230.34,127.81
				c-0.492-0.054-0.767-0.328-0.82-0.82c0.054-0.546,0.328-0.847,0.82-0.902h7.793v-1.066c0.054-0.601,0.355-0.929,0.902-0.984
				c0.602,0.055,0.93,0.383,0.984,0.984v1.066h2.133c0.492,0.055,0.766,0.356,0.82,0.902c-0.055,0.492-0.328,0.767-0.82,0.82h-2.133
				v4.348c0.054,1.694-0.849,2.57-2.707,2.625c-0.767,0-1.505,0-2.215,0c-0.656,0-1.039-0.301-1.148-0.902
				c0.054-0.656,0.355-0.958,0.902-0.902c0.546,0,1.12,0,1.723,0c1.148,0.109,1.668-0.383,1.559-1.477v-3.691H230.34z
				 M231.488,119.525c-0.492-0.054-0.767-0.328-0.82-0.82c0.054-0.546,0.328-0.82,0.82-0.82h3.855v-1.887
				c0.054-0.546,0.382-0.847,0.984-0.902c0.546,0.055,0.848,0.356,0.902,0.902v1.887h4.102c0.492,0.055,0.766,0.328,0.82,0.82
				c-0.055,0.492-0.328,0.767-0.82,0.82h-4.102v2.543h4.922c0.492,0.055,0.766,0.356,0.82,0.902c-0.055,0.492-0.328,0.767-0.82,0.82
				h-11.73c-0.492-0.054-0.767-0.328-0.82-0.82c0.054-0.546,0.328-0.847,0.82-0.902h4.922v-2.543H231.488z M234.442,131.83
				c-0.383,0.328-0.82,0.301-1.313-0.082c-0.328-0.382-0.957-1.038-1.887-1.969c-0.383-0.328-0.383-0.71,0-1.148
				c0.382-0.328,0.82-0.328,1.313,0c0.656,0.656,1.313,1.259,1.969,1.805C234.852,130.928,234.823,131.393,234.442,131.83z"/>
			<path class="st3" d="M245.926,134.783c-0.656,0.328-1.203,0.246-1.641-0.246c-0.328-0.656-0.246-1.148,0.246-1.477
				c4.319-2.406,6.534-6.206,6.645-11.402v-0.082h-5.742c-0.547-0.109-0.875-0.437-0.984-0.984c0.054-0.601,0.355-0.929,0.902-0.984
				h5.906c0-0.382,0.027-1.011,0.082-1.887c0-0.82,0.027-1.421,0.082-1.805c0.054-0.656,0.41-1.011,1.066-1.066
				c0.656,0.055,0.984,0.438,0.984,1.148c0,0.383,0,0.958,0,1.723c-0.055,0.82-0.082,1.45-0.082,1.887h7.875
				c0.766,0.055,1.176,0.465,1.23,1.23c-0.11,3.172-0.246,6.263-0.41,9.27c-0.055,2.843-1.423,4.266-4.102,4.266
				c-0.767,0.054-1.941,0.082-3.527,0.082c-0.767-0.11-1.148-0.492-1.148-1.148c0-0.603,0.328-0.929,0.984-0.984
				c0.656,0.055,1.694,0.082,3.117,0.082c1.75,0.109,2.625-0.929,2.625-3.117c0.109-1.148,0.191-3.199,0.246-6.152
				c0.054-0.492,0.082-0.874,0.082-1.148c0-0.328-0.164-0.464-0.492-0.41h-6.645C253.116,127.646,250.684,132.049,245.926,134.783z"
				/>
			<path class="st3" d="M265.449,135.029c-0.438-0.274-0.574-0.738-0.41-1.395c0.766-1.366,1.258-2.652,1.477-3.855
				c0.218-1.257,0.328-3.144,0.328-5.66v-5.824c0-0.71,0.382-1.066,1.148-1.066h7.137c-0.055-0.218-0.137-0.519-0.246-0.902
				c-0.055-0.164-0.082-0.273-0.082-0.328c-0.11-0.546,0.164-0.902,0.82-1.066c0.656-0.054,1.066,0.164,1.23,0.656
				c0.054,0.164,0.136,0.465,0.246,0.902c0.054,0.328,0.109,0.574,0.164,0.738h6.809c0.492,0.055,0.766,0.328,0.82,0.82
				c-0.055,0.438-0.328,0.685-0.82,0.738h-15.012c-0.274,0-0.41,0.164-0.41,0.492v1.723l0.164-0.082
				c0.164-0.109,0.3-0.164,0.41-0.164h2.707v-0.984c0.054-0.546,0.355-0.847,0.902-0.902c0.546,0.055,0.848,0.356,0.902,0.902v0.984
				h5.578v-0.984c0.054-0.492,0.328-0.765,0.82-0.82c0.602,0,0.902,0.274,0.902,0.82v0.984h2.953c0.492,0.055,0.766,0.328,0.82,0.82
				c-0.055,0.438-0.328,0.685-0.82,0.738h-2.953v2.051c-0.055,0.656-0.383,1.013-0.984,1.066h-7.137
				c-0.603-0.054-0.931-0.41-0.984-1.066v-2.051h-2.707c-0.164,0-0.356-0.054-0.574-0.164v2.215
				c0.109,4.594-0.521,7.985-1.887,10.172C266.488,135.083,266.051,135.247,265.449,135.029z M269.633,135.029
				c-0.656,0.164-1.095-0.028-1.313-0.574c-0.11-0.603,0.136-0.984,0.738-1.148c2.133-0.328,3.991-0.82,5.578-1.477
				c-1.477-0.929-2.653-2.051-3.527-3.363h-0.902c-0.438-0.054-0.685-0.328-0.738-0.82c0.054-0.437,0.3-0.683,0.738-0.738h11.484
				c0.492,0.055,0.766,0.328,0.82,0.82c0,0.492-0.219,0.958-0.656,1.395c-1.039,1.04-2.215,1.969-3.527,2.789
				c1.586,0.601,3.473,1.011,5.66,1.23c0.602,0.164,0.848,0.546,0.738,1.148c-0.164,0.546-0.603,0.738-1.313,0.574
				c-2.789-0.383-5.086-1.04-6.891-1.969C274.719,133.717,272.422,134.427,269.633,135.029z M273.16,128.467
				c0.874,0.984,1.969,1.833,3.281,2.543c1.313-0.656,2.433-1.395,3.363-2.215c0.164-0.218,0.136-0.328-0.082-0.328H273.16z
				 M278.903,124.119c0.273,0,0.41-0.136,0.41-0.41v-1.395h-5.578v1.313c0,0.328,0.136,0.492,0.41,0.492H278.903z"/>
			<path class="st3" d="M35.27,161.658c-0.438,0.328-0.849,0.274-1.23-0.164c-0.274-0.492-0.192-0.956,0.246-1.395
				c1.805-1.421,3.227-3.007,4.266-4.758c0.382-0.382,0.82-0.519,1.313-0.41c0.492,0.383,0.628,0.767,0.41,1.148l-0.41,0.574h13.289
				c0.492,0.055,0.766,0.301,0.82,0.738c0,0.492-0.274,0.767-0.82,0.82H38.797c-0.274,0.274-0.685,0.711-1.23,1.313
				c0.382-0.382,0.328-0.3-0.164,0.246c0.164-0.109,0.355-0.164,0.574-0.164H50.61c0.766,0,1.148,0.383,1.148,1.148v4.512
				c0,0.767-0.383,1.148-1.148,1.148h-9.762c0.109,0,0.191,0.028,0.246,0.082c0.438,0.164,0.52,0.492,0.246,0.984
				c0,0.055-0.055,0.11-0.164,0.164c-0.055,0.11-0.11,0.192-0.164,0.246h9.844c0.438,0.055,0.71,0.301,0.82,0.738
				c0.109,0.438-0.055,0.82-0.492,1.148c-1.148,0.875-2.543,1.696-4.184,2.461c1.805,0.492,3.938,0.847,6.398,1.066
				c0.492,0.164,0.684,0.519,0.574,1.066c-0.164,0.437-0.521,0.601-1.066,0.492c-3.281-0.383-6.017-0.958-8.203-1.723
				c-2.571,0.874-5.578,1.559-9.023,2.051c-0.492,0-0.849-0.192-1.066-0.574c-0.11-0.547,0.109-0.875,0.656-0.984
				c2.625-0.383,4.976-0.875,7.055-1.477c-1.313-0.656-2.489-1.395-3.527-2.215c-0.055,0.055-0.11,0.11-0.164,0.164
				c-1.259,0.931-2.297,1.614-3.117,2.051c-0.492,0.219-0.931,0.137-1.313-0.246c-0.274-0.546-0.164-0.929,0.328-1.148
				c2.133-1.202,3.855-2.515,5.168-3.938c0.164-0.218,0.355-0.355,0.574-0.41h-2.297c-0.767,0-1.148-0.382-1.148-1.148v-4.512
				c0-0.218,0.054-0.41,0.164-0.574c-0.11,0.11-0.301,0.274-0.574,0.492C35.926,161.166,35.543,161.494,35.27,161.658z
				 M38.715,161.494v0.984h11.156v-0.984c0-0.328-0.137-0.492-0.41-0.492H39.207C38.879,161.002,38.715,161.166,38.715,161.494z
				 M49.461,165.021c0.273,0,0.41-0.136,0.41-0.41v-1.066H38.715v1.066c0,0.274,0.164,0.41,0.492,0.41H49.461z M40.52,169.287
				c1.202,0.931,2.543,1.641,4.02,2.133c1.586-0.492,2.925-1.12,4.02-1.887c0.109-0.054,0.164-0.109,0.164-0.164
				c0-0.054-0.055-0.082-0.164-0.082H40.52z"/>
			<path class="st3" d="M57.09,158.951c-0.603-0.054-0.931-0.382-0.984-0.984c0.054-0.601,0.382-0.929,0.984-0.984h15.586
				c0.602,0.055,0.93,0.383,0.984,0.984c-0.055,0.603-0.383,0.931-0.984,0.984h-6.645v12.715h7.793
				c0.602,0.055,0.93,0.383,0.984,0.984c-0.055,0.601-0.383,0.929-0.984,0.984H55.942c-0.603-0.055-0.931-0.383-0.984-0.984
				c0.109-0.601,0.438-0.929,0.984-0.984h7.957v-12.715H57.09z"/>
			<path class="st3" d="M77.27,161.658c-0.438,0.328-0.849,0.274-1.23-0.164c-0.274-0.492-0.192-0.956,0.246-1.395
				c1.805-1.421,3.227-3.007,4.266-4.758c0.382-0.382,0.82-0.519,1.313-0.41c0.492,0.383,0.628,0.767,0.41,1.148l-0.41,0.574h13.289
				c0.492,0.055,0.766,0.301,0.82,0.738c0,0.492-0.274,0.767-0.82,0.82H80.797c-0.274,0.274-0.685,0.711-1.23,1.313
				c0.382-0.382,0.328-0.3-0.164,0.246c0.164-0.109,0.355-0.164,0.574-0.164H92.61c0.766,0,1.148,0.383,1.148,1.148v4.512
				c0,0.767-0.383,1.148-1.148,1.148h-9.762c0.109,0,0.191,0.028,0.246,0.082c0.438,0.164,0.52,0.492,0.246,0.984
				c0,0.055-0.055,0.11-0.164,0.164c-0.055,0.11-0.11,0.192-0.164,0.246h9.844c0.438,0.055,0.71,0.301,0.82,0.738
				c0.109,0.438-0.055,0.82-0.492,1.148c-1.148,0.875-2.543,1.696-4.184,2.461c1.805,0.492,3.938,0.847,6.398,1.066
				c0.492,0.164,0.684,0.519,0.574,1.066c-0.164,0.437-0.521,0.601-1.066,0.492c-3.281-0.383-6.017-0.958-8.203-1.723
				c-2.571,0.874-5.578,1.559-9.023,2.051c-0.492,0-0.849-0.192-1.066-0.574c-0.11-0.547,0.109-0.875,0.656-0.984
				c2.625-0.383,4.976-0.875,7.055-1.477c-1.313-0.656-2.489-1.395-3.527-2.215c-0.055,0.055-0.11,0.11-0.164,0.164
				c-1.259,0.931-2.297,1.614-3.117,2.051c-0.492,0.219-0.931,0.137-1.313-0.246c-0.274-0.546-0.164-0.929,0.328-1.148
				c2.133-1.202,3.855-2.515,5.168-3.938c0.164-0.218,0.355-0.355,0.574-0.41h-2.297c-0.767,0-1.148-0.382-1.148-1.148v-4.512
				c0-0.218,0.054-0.41,0.164-0.574c-0.11,0.11-0.301,0.274-0.574,0.492C77.926,161.166,77.543,161.494,77.27,161.658z
				 M80.715,161.494v0.984h11.156v-0.984c0-0.328-0.137-0.492-0.41-0.492H81.207C80.879,161.002,80.715,161.166,80.715,161.494z
				 M91.461,165.021c0.273,0,0.41-0.136,0.41-0.41v-1.066H80.715v1.066c0,0.274,0.164,0.41,0.492,0.41H91.461z M82.52,169.287
				c1.202,0.931,2.543,1.641,4.02,2.133c1.586-0.492,2.925-1.12,4.02-1.887c0.109-0.054,0.164-0.109,0.164-0.164
				c0-0.054-0.055-0.082-0.164-0.082H82.52z"/>
			<path class="st3" d="M97.86,173.881c-0.547-0.055-0.849-0.356-0.902-0.902c0.054-0.601,0.355-0.929,0.902-0.984h5.414v-15.75
				c0.054-0.546,0.382-0.847,0.984-0.902c0.602,0.055,0.93,0.356,0.984,0.902v15.75h3.363v-15.75
				c0.054-0.601,0.382-0.929,0.984-0.984c0.602,0.055,0.93,0.383,0.984,0.984v15.75h5.414c0.602,0.055,0.93,0.383,0.984,0.984
				c-0.055,0.546-0.383,0.847-0.984,0.902H97.86z M101.715,168.056c-0.603,0.11-1.013-0.082-1.23-0.574
				c-0.82-2.406-1.669-4.703-2.543-6.891c-0.11-0.546,0.082-0.929,0.574-1.148c0.602-0.109,1.012,0.082,1.23,0.574
				c0.328,0.931,0.874,2.407,1.641,4.43c0.438,1.095,0.738,1.887,0.902,2.379C102.399,167.428,102.207,167.839,101.715,168.056z
				 M111.969,167.974c-0.547-0.273-0.711-0.683-0.492-1.23c0.546-1.202,1.477-3.445,2.789-6.727
				c0.218-0.492,0.602-0.683,1.148-0.574c0.546,0.219,0.766,0.629,0.656,1.23c-0.164,0.438-0.438,1.122-0.82,2.051
				c-0.931,2.297-1.613,3.884-2.051,4.758C112.925,168.03,112.515,168.194,111.969,167.974z"/>
			<path class="st3" d="M118.86,162.396c-0.547-0.054-0.849-0.355-0.902-0.902c0.054-0.546,0.355-0.847,0.902-0.902h1.313v-4.594
				c0.054-0.546,0.355-0.847,0.902-0.902c0.492,0.055,0.766,0.356,0.82,0.902v4.594h1.148c0.602,0.055,0.93,0.356,0.984,0.902
				c-0.055,0.547-0.383,0.849-0.984,0.902h-1.148v7.301c0.602-0.109,1.094-0.246,1.477-0.41c0.656-0.054,1.066,0.164,1.23,0.656
				c0.054,0.547-0.192,0.902-0.738,1.066c-1.751,0.603-3.363,1.066-4.84,1.395c-0.547,0.109-0.931-0.109-1.148-0.656
				c-0.11-0.601,0.109-0.984,0.656-1.148c0.492-0.109,1.038-0.246,1.641-0.41v-7.793H118.86z M125.258,164.939
				c-0.656-0.054-1.013-0.382-1.066-0.984v-5.168c0.054-0.71,0.41-1.066,1.066-1.066h2.297c-0.164-0.218-0.438-0.601-0.82-1.148
				c-0.11-0.218-0.192-0.355-0.246-0.41c-0.219-0.382-0.082-0.71,0.41-0.984c0.438-0.218,0.848-0.109,1.23,0.328
				c0.273,0.383,0.656,0.958,1.148,1.723c0.054,0.164,0.082,0.328,0.082,0.492h2.379c0.328-0.437,0.82-1.175,1.477-2.215
				c0.328-0.437,0.766-0.546,1.313-0.328c0.492,0.274,0.602,0.656,0.328,1.148c-0.328,0.547-0.685,1.013-1.066,1.395h2.379
				c0.602,0.055,0.93,0.41,0.984,1.066v5.168c-0.055,0.603-0.383,0.931-0.984,0.984H125.258z M126.16,174.373
				c-0.656,0-1.013-0.356-1.066-1.066V167.4c0.054-0.601,0.41-0.929,1.066-0.984h9.105c0.656,0,0.984,0.328,0.984,0.984v5.906
				c0,0.71-0.328,1.066-0.984,1.066H126.16z M125.832,159.525v3.609c0.054,0.164,0.164,0.274,0.328,0.328h3.691v-4.348h-3.691
				C125.996,159.17,125.886,159.307,125.832,159.525z M128.785,162.642c-0.383,0.164-0.685,0.11-0.902-0.164
				c-0.11-0.164-0.301-0.464-0.574-0.902c-0.328-0.437-0.547-0.71-0.656-0.82c-0.164-0.328-0.11-0.601,0.164-0.82
				c0.382-0.164,0.684-0.109,0.902,0.164c0.164,0.219,0.464,0.629,0.902,1.23c0.164,0.219,0.273,0.356,0.328,0.41
				C129.167,162.123,129.113,162.425,128.785,162.642z M126.817,168.138v1.559h7.711v-1.559c0-0.273-0.137-0.41-0.41-0.41h-6.809
				C126.981,167.728,126.817,167.865,126.817,168.138z M134.117,172.978c0.273,0,0.41-0.137,0.41-0.41v-1.559h-7.711v1.559
				c0,0.273,0.164,0.41,0.492,0.41H134.117z M135.184,159.115h-3.691v4.348h3.691c0.218-0.054,0.328-0.164,0.328-0.328v-3.609
				C135.457,159.307,135.348,159.17,135.184,159.115z M132.559,162.724c-0.328-0.218-0.383-0.492-0.164-0.82
				c0.054-0.109,0.191-0.328,0.41-0.656c0.438-0.546,0.71-0.902,0.82-1.066c0.218-0.328,0.52-0.382,0.902-0.164
				c0.328,0.274,0.382,0.547,0.164,0.82c-0.438,0.656-0.875,1.23-1.313,1.723C133.105,162.888,132.832,162.944,132.559,162.724z"/>
			<path class="st3" d="M139.121,165.842c-0.219-0.164-0.328-0.41-0.328-0.738c0-0.273,0.082-0.574,0.246-0.902
				c1.641-2.625,2.871-5.386,3.691-8.285c0.164-0.546,0.574-0.765,1.23-0.656c0.546,0.219,0.738,0.629,0.574,1.23
				c-0.438,1.313-0.957,2.653-1.559,4.02v13.863c-0.055,0.492-0.356,0.765-0.902,0.82c-0.547-0.055-0.849-0.328-0.902-0.82v-10.336
				c-0.328,0.547-0.656,1.122-0.984,1.723C139.86,166.143,139.503,166.17,139.121,165.842z M145.52,158.623
				c-0.492,0-0.738-0.246-0.738-0.738s0.246-0.738,0.738-0.738h5.086v-1.148c0.054-0.546,0.355-0.847,0.902-0.902
				c0.602,0.055,0.93,0.356,0.984,0.902v1.148h5.496c0.438,0.055,0.684,0.301,0.738,0.738c-0.055,0.438-0.301,0.685-0.738,0.738
				h-5.496v1.805h3.691c0.656,0.055,1.012,0.41,1.066,1.066v11.32h1.066c0.492,0.054,0.738,0.328,0.738,0.82
				s-0.246,0.738-0.738,0.738h-13.699c-0.438-0.055-0.685-0.301-0.738-0.738c0.054-0.492,0.3-0.767,0.738-0.82h1.23v-11.32
				c0.054-0.71,0.41-1.066,1.066-1.066h3.691v-1.805H145.52z M147.653,162.396v1.23h7.793v-1.23c0-0.328-0.164-0.492-0.492-0.492
				h-6.809C147.817,161.904,147.653,162.068,147.653,162.396z M147.653,164.939v1.723h7.793v-1.723H147.653z M147.653,167.974v1.723
				h7.793v-1.723H147.653z M147.653,171.092v1.723h7.793v-1.723H147.653z"/>
			<path class="st3" d="M160.942,158.131c-0.492-0.054-0.793-0.328-0.902-0.82c-0.055-0.492,0.191-0.792,0.738-0.902
				c1.586,0,3.473-0.109,5.66-0.328c0.492,0,0.792,0.246,0.902,0.738c0.054,0.492-0.164,0.82-0.656,0.984
				c-0.383,0-0.984,0.055-1.805,0.164c0.546-0.109,0.464-0.109-0.246,0v3.199h1.805c0.492,0.055,0.766,0.356,0.82,0.902
				c-0.055,0.492-0.328,0.767-0.82,0.82h-1.805v2.297c0.328-0.109,0.574-0.082,0.738,0.082c0.054,0.055,0.136,0.137,0.246,0.246
				c0.766,0.603,1.313,1.066,1.641,1.395c0.382,0.328,0.464,0.738,0.246,1.23c-0.438,0.383-0.849,0.41-1.23,0.082
				c-0.274-0.328-0.82-0.847-1.641-1.559v7.793c-0.055,0.546-0.328,0.847-0.82,0.902c-0.547-0.055-0.849-0.356-0.902-0.902v-7.957
				c-0.274,0.82-0.767,1.915-1.477,3.281c-0.11,0.219-0.192,0.383-0.246,0.492c-0.492,0.438-0.902,0.492-1.23,0.164
				s-0.328-0.792,0-1.395c1.313-1.914,2.297-3.964,2.953-6.152h-2.215c-0.547-0.054-0.849-0.328-0.902-0.82
				c0.054-0.546,0.355-0.847,0.902-0.902h2.215v-3.117c-0.219,0-0.547,0-0.984,0C161.488,158.104,161.159,158.131,160.942,158.131z
				 M169.063,167.072c-0.767,0-1.148-0.382-1.148-1.148v-5.742c0.054-0.71,0.438-1.093,1.148-1.148h1.641
				c-0.11,0-0.164-0.082-0.164-0.246c-0.603-0.82-1.148-1.559-1.641-2.215c-0.219-0.546-0.082-0.956,0.41-1.23
				c0.492-0.218,0.902-0.109,1.23,0.328c0.656,0.767,1.202,1.532,1.641,2.297c0.164,0.438,0.054,0.793-0.328,1.066h1.887
				c0.656-1.038,1.313-2.133,1.969-3.281c0.382-0.601,0.848-0.765,1.395-0.492c0.492,0.219,0.602,0.629,0.328,1.23
				c-0.547,0.875-1.095,1.723-1.641,2.543h1.641c0.71,0.055,1.094,0.438,1.148,1.148v5.742c-0.055,0.711-0.438,1.095-1.148,1.148
				h-1.805v4.594c-0.055,0.82,0.328,1.202,1.148,1.148h0.328c0.656,0,1.012-0.328,1.066-0.984c0.054-0.164,0.109-0.574,0.164-1.23
				c0.054-0.328,0.082-0.574,0.082-0.738c0.054-0.546,0.355-0.792,0.902-0.738c0.438,0.055,0.656,0.438,0.656,1.148
				c-0.11,1.148-0.219,1.997-0.328,2.543c-0.274,1.202-1.095,1.805-2.461,1.805h-0.82c-1.751,0.054-2.598-0.82-2.543-2.625v-4.922
				h-1.887c0,0.164-0.028,0.41-0.082,0.738c0,0.328,0,0.547,0,0.656c-0.11,2.844-1.587,4.976-4.43,6.398
				c-0.547,0.328-1.039,0.273-1.477-0.164c-0.274-0.492-0.192-0.931,0.246-1.313c2.515-1.148,3.801-2.843,3.855-5.086
				c0-0.109,0-0.3,0-0.574c0.054-0.273,0.082-0.492,0.082-0.656H169.063z M176.774,165.021v-3.855c0-0.273-0.137-0.41-0.41-0.41
				h-6.234c-0.274,0-0.41,0.137-0.41,0.41v3.855c0,0.164,0.136,0.274,0.41,0.328h6.234
				C176.637,165.296,176.774,165.185,176.774,165.021z"/>
			<path class="st3" d="M182.024,158.623c-0.492-0.054-0.767-0.328-0.82-0.82c0.054-0.546,0.328-0.847,0.82-0.902h8.203
				c0.492,0.055,0.766,0.356,0.82,0.902c-0.055,0.492-0.328,0.767-0.82,0.82h-2.379v5.004h1.887c0.492,0.055,0.766,0.328,0.82,0.82
				c-0.055,0.547-0.328,0.849-0.82,0.902h-1.887v5.086c0.218-0.054,0.546-0.109,0.984-0.164c0.546-0.109,0.93-0.191,1.148-0.246
				c0.656-0.054,1.012,0.219,1.066,0.82c0.054,0.547-0.219,0.875-0.82,0.984c-0.603,0.11-1.723,0.301-3.363,0.574
				c-2.188,0.437-3.828,0.738-4.922,0.902c-0.547,0-0.902-0.274-1.066-0.82c-0.055-0.656,0.218-1.038,0.82-1.148
				c0.164,0,0.382-0.027,0.656-0.082v-8.777c0.054-0.546,0.328-0.847,0.82-0.902c0.546,0.055,0.848,0.356,0.902,0.902v8.531
				c0.656-0.054,1.34-0.164,2.051-0.328v-12.059H182.024z M189.571,163.217c-0.328-0.437-0.301-0.902,0.082-1.395
				c1.313-1.805,2.351-3.8,3.117-5.988c0.218-0.492,0.628-0.71,1.23-0.656c0.602,0.274,0.792,0.685,0.574,1.23
				c-0.328,0.875-0.685,1.641-1.066,2.297h6.727c0.492,0.055,0.766,0.356,0.82,0.902c-0.055,0.547-0.328,0.849-0.82,0.902h-1.066
				c-0.383,3.829-1.341,6.891-2.871,9.188c1.094,1.313,2.461,2.407,4.102,3.281c0.492,0.328,0.628,0.82,0.41,1.477
				c-0.383,0.546-0.875,0.656-1.477,0.328c-1.695-1.04-3.117-2.215-4.266-3.527c-1.148,1.313-2.653,2.515-4.512,3.609
				c-0.547,0.273-1.039,0.191-1.477-0.246c-0.328-0.547-0.219-1.04,0.328-1.477c1.914-0.984,3.417-2.133,4.512-3.445
				c-1.259-2.078-2.079-4.457-2.461-7.137c-0.055,0-0.082-0.054-0.082-0.164c-0.164,0.274-0.356,0.574-0.574,0.902
				C190.418,163.627,190.008,163.6,189.571,163.217z M192.934,160.51c-0.055,0-0.137-0.027-0.246-0.082
				c0.054,0.055,0.082,0.137,0.082,0.246c0.382,3.117,1.148,5.606,2.297,7.465c1.313-2.078,2.078-4.621,2.297-7.629H192.934z"/>
			<path class="st3" d="M202.942,163.135c-0.438-0.054-0.685-0.328-0.738-0.82c0.054-0.437,0.3-0.683,0.738-0.738h8.039v-0.492
				c0.109-0.601,0.438-0.929,0.984-0.984c0.546,0.055,0.848,0.383,0.902,0.984v0.492h8.121c0.438,0.055,0.684,0.301,0.738,0.738
				c-0.055,0.492-0.301,0.767-0.738,0.82h-8.121v1.641h5.988c0.82,0,1.23,0.41,1.23,1.23v1.805c0.054,1.368-0.629,2.079-2.051,2.133
				c-0.438,0-0.902,0-1.395,0s-0.793-0.218-0.902-0.656c-0.055-0.437,0.109-0.683,0.492-0.738c0.382,0,0.738,0,1.066,0
				c0.546,0.055,0.848-0.191,0.902-0.738v-1.066c0.054-0.218-0.082-0.355-0.41-0.41h-4.922v1.23c2.022,2.352,4.812,3.966,8.367,4.84
				c0.602,0.273,0.792,0.71,0.574,1.313c-0.219,0.546-0.685,0.71-1.395,0.492c-3.281-1.095-5.797-2.625-7.547-4.594v4.84
				c-0.11,0.546-0.41,0.847-0.902,0.902c-0.547-0.055-0.875-0.356-0.984-0.902v-4.84c-1.587,1.86-4.13,3.472-7.629,4.84
				c-0.603,0.218-1.066,0.054-1.395-0.492c-0.164-0.603,0.027-1.04,0.574-1.313c3.609-1.038,6.426-2.761,8.449-5.168v-1.148h-4.676
				c-0.328,0-0.492,0.164-0.492,0.492v2.297c-0.055,0.547-0.383,0.849-0.984,0.902c-0.547-0.109-0.849-0.41-0.902-0.902v-3.117
				c0-0.82,0.41-1.23,1.23-1.23h5.824v-1.641H202.942z M202.285,160.592c-0.383-0.328-0.383-0.71,0-1.148
				c1.422-1.257,2.515-2.597,3.281-4.02c0.273-0.492,0.684-0.656,1.23-0.492c0.546,0.219,0.71,0.574,0.492,1.066
				c-0.055,0.11-0.137,0.246-0.246,0.41c-0.11,0.219-0.192,0.383-0.246,0.492h4.758c0.438,0.055,0.684,0.301,0.738,0.738
				c-0.055,0.438-0.301,0.685-0.738,0.738h-5.906c-0.603,0.82-1.285,1.559-2.051,2.215
				C203.106,160.92,202.667,160.92,202.285,160.592z M209.012,161.002c-0.328,0.328-0.711,0.301-1.148-0.082
				c-0.055-0.109-0.219-0.3-0.492-0.574c-0.274-0.328-0.465-0.519-0.574-0.574c-0.328-0.328-0.328-0.656,0-0.984
				c0.382-0.273,0.766-0.273,1.148,0c0.602,0.603,0.956,0.984,1.066,1.148C209.394,160.263,209.394,160.62,209.012,161.002z
				 M212.211,160.017c-0.438-0.273-0.492-0.656-0.164-1.148c0.93-0.929,1.694-2.078,2.297-3.445c0.164-0.437,0.574-0.601,1.23-0.492
				c0.438,0.219,0.602,0.574,0.492,1.066l-0.41,0.902h5.414c0.492,0.055,0.766,0.301,0.82,0.738
				c-0.055,0.438-0.328,0.685-0.82,0.738h-6.398c-0.055,0.11-0.137,0.246-0.246,0.41c-0.219,0.274-0.521,0.656-0.902,1.148
				C213.085,160.319,212.649,160.345,212.211,160.017z M218.363,161.002c-0.438,0.328-0.82,0.328-1.148,0
				c-0.11-0.109-0.328-0.328-0.656-0.656c-0.328-0.382-0.547-0.601-0.656-0.656c-0.274-0.328-0.246-0.656,0.082-0.984
				c0.382-0.328,0.766-0.328,1.148,0c0.438,0.383,0.848,0.793,1.23,1.23C218.692,160.319,218.692,160.674,218.363,161.002z"/>
			<path class="st3" d="M34.942,198.131c-0.492-0.054-0.793-0.328-0.902-0.82c-0.055-0.492,0.191-0.792,0.738-0.902
				c1.586,0,3.473-0.109,5.66-0.328c0.492,0,0.792,0.246,0.902,0.738c0.054,0.492-0.164,0.82-0.656,0.984
				c-0.383,0-0.984,0.055-1.805,0.164c0.546-0.109,0.464-0.109-0.246,0v3.199h1.805c0.492,0.055,0.766,0.356,0.82,0.902
				c-0.055,0.492-0.328,0.767-0.82,0.82h-1.805v2.297c0.328-0.109,0.574-0.082,0.738,0.082c0.054,0.055,0.136,0.137,0.246,0.246
				c0.766,0.603,1.313,1.066,1.641,1.395c0.382,0.328,0.464,0.738,0.246,1.23c-0.438,0.383-0.849,0.41-1.23,0.082
				c-0.274-0.328-0.82-0.847-1.641-1.559v7.793c-0.055,0.546-0.328,0.847-0.82,0.902c-0.547-0.055-0.849-0.356-0.902-0.902v-7.957
				c-0.274,0.82-0.767,1.915-1.477,3.281c-0.11,0.219-0.192,0.383-0.246,0.492c-0.492,0.438-0.902,0.492-1.23,0.164
				s-0.328-0.792,0-1.395c1.313-1.914,2.297-3.964,2.953-6.152h-2.215c-0.547-0.054-0.849-0.328-0.902-0.82
				c0.054-0.546,0.355-0.847,0.902-0.902h2.215v-3.117c-0.219,0-0.547,0-0.984,0C35.488,198.104,35.159,198.131,34.942,198.131z
				 M43.063,207.072c-0.767,0-1.148-0.382-1.148-1.148v-5.742c0.054-0.71,0.438-1.093,1.148-1.148h1.641
				c-0.11,0-0.164-0.082-0.164-0.246c-0.603-0.82-1.148-1.559-1.641-2.215c-0.219-0.546-0.082-0.956,0.41-1.23
				c0.492-0.218,0.902-0.109,1.23,0.328c0.656,0.767,1.202,1.532,1.641,2.297c0.164,0.438,0.054,0.793-0.328,1.066h1.887
				c0.656-1.038,1.313-2.133,1.969-3.281c0.382-0.601,0.848-0.765,1.395-0.492c0.492,0.219,0.602,0.629,0.328,1.23
				c-0.547,0.875-1.095,1.723-1.641,2.543h1.641c0.71,0.055,1.094,0.438,1.148,1.148v5.742c-0.055,0.711-0.438,1.095-1.148,1.148
				h-1.805v4.594c-0.055,0.82,0.328,1.202,1.148,1.148h0.328c0.656,0,1.012-0.328,1.066-0.984c0.054-0.164,0.109-0.574,0.164-1.23
				c0.054-0.328,0.082-0.574,0.082-0.738c0.054-0.546,0.355-0.792,0.902-0.738c0.438,0.055,0.656,0.438,0.656,1.148
				c-0.11,1.148-0.219,1.997-0.328,2.543c-0.274,1.202-1.095,1.805-2.461,1.805h-0.82c-1.751,0.054-2.598-0.82-2.543-2.625v-4.922
				h-1.887c0,0.164-0.028,0.41-0.082,0.738c0,0.328,0,0.547,0,0.656c-0.11,2.844-1.587,4.976-4.43,6.398
				c-0.547,0.328-1.039,0.273-1.477-0.164c-0.274-0.492-0.192-0.931,0.246-1.313c2.515-1.148,3.801-2.843,3.855-5.086
				c0-0.109,0-0.3,0-0.574c0.054-0.273,0.082-0.492,0.082-0.656H43.063z M50.774,205.021v-3.855c0-0.273-0.137-0.41-0.41-0.41
				h-6.234c-0.274,0-0.41,0.137-0.41,0.41v3.855c0,0.164,0.136,0.274,0.41,0.328h6.234
				C50.637,205.296,50.774,205.185,50.774,205.021z"/>
			<path class="st3" d="M57.418,210.517c-0.875,0.383-1.367,0.055-1.477-0.984v-11.156c0.054-0.546,0.355-0.847,0.902-0.902
				c0.546,0.055,0.848,0.356,0.902,0.902v9.516c0,0.219,0.136,0.301,0.41,0.246c0.109-0.054,0.328-0.164,0.656-0.328
				c0.602-0.382,1.038-0.656,1.313-0.82v-10.992c0.054-0.546,0.355-0.847,0.902-0.902c0.546,0.055,0.848,0.356,0.902,0.902v18.375
				c-0.055,0.601-0.356,0.929-0.902,0.984c-0.603,0-0.902-0.328-0.902-0.984v-5.414C58.866,209.779,57.964,210.3,57.418,210.517z
				 M62.422,204.693c-0.383-0.492-0.383-0.984,0-1.477c1.641-2.242,2.898-4.729,3.773-7.465c0.218-0.546,0.628-0.765,1.23-0.656
				c0.546,0.164,0.766,0.547,0.656,1.148c-0.055,0.219-0.192,0.521-0.41,0.902c-0.274,0.767-0.492,1.341-0.656,1.723h7.055
				c0.546,0.055,0.848,0.356,0.902,0.902c-0.055,0.547-0.356,0.849-0.902,0.902h-1.395c-0.492,4.048-1.477,7.083-2.953,9.105
				c1.148,1.259,2.652,2.297,4.512,3.117c0.546,0.382,0.71,0.874,0.492,1.477c-0.383,0.546-0.902,0.683-1.559,0.41
				c-2.079-1.148-3.638-2.297-4.676-3.445c-1.148,1.202-2.625,2.406-4.43,3.609c-0.547,0.328-1.039,0.218-1.477-0.328
				c-0.219-0.492-0.11-0.958,0.328-1.395c1.858-1.093,3.309-2.242,4.348-3.445c-1.203-1.805-2.051-4.02-2.543-6.645
				c-0.328,0.492-0.656,0.984-0.984,1.477C63.352,204.994,62.914,205.021,62.422,204.693z M68.492,208.22
				c1.202-1.858,1.996-4.375,2.379-7.547h-4.758l-0.082,0.164C66.413,204.01,67.234,206.471,68.492,208.22z"/>
			<path class="st3" d="M77.598,208.22c-0.492,0.328-0.931,0.274-1.313-0.164c-0.328-0.437-0.274-0.902,0.164-1.395
				c1.366-1.148,2.816-2.871,4.348-5.168c0.382-0.492,0.82-0.601,1.313-0.328c0.492,0.383,0.574,0.82,0.246,1.313
				c-0.164,0.219-0.41,0.603-0.738,1.148c-0.383,0.492-0.656,0.875-0.82,1.148v9.516c-0.055,0.546-0.356,0.874-0.902,0.984
				c-0.603-0.055-0.931-0.383-0.984-0.984v-7.383c-0.164,0.219-0.465,0.521-0.902,0.902
				C77.844,207.974,77.707,208.112,77.598,208.22z M78.008,201.412c-0.547,0.328-1.013,0.246-1.395-0.246
				c-0.328-0.546-0.246-1.011,0.246-1.395c1.202-0.82,2.488-2.078,3.855-3.773c0.382-0.382,0.848-0.41,1.395-0.082
				c0.438,0.438,0.492,0.875,0.164,1.313C80.961,198.815,79.538,200.21,78.008,201.412z M84.16,198.541
				c-0.547-0.054-0.849-0.355-0.902-0.902c0.054-0.546,0.355-0.847,0.902-0.902h10.746c0.546,0.055,0.848,0.356,0.902,0.902
				c-0.055,0.547-0.356,0.849-0.902,0.902h-3.691v5.66h3.363c0.492,0.055,0.766,0.356,0.82,0.902
				c-0.055,0.547-0.328,0.849-0.82,0.902h-3.363v6.316h3.938c0.546,0.055,0.848,0.355,0.902,0.902
				c-0.055,0.546-0.356,0.847-0.902,0.902H82.93c-0.547-0.055-0.849-0.356-0.902-0.902c0.054-0.547,0.355-0.847,0.902-0.902h1.23
				v-9.598c0.054-0.546,0.355-0.847,0.902-0.902c0.602,0.055,0.93,0.356,0.984,0.902v9.598h3.281v-13.781H84.16z"/>
			<path class="st3" d="M99.418,210.517c-0.875,0.383-1.367,0.055-1.477-0.984v-11.156c0.054-0.546,0.355-0.847,0.902-0.902
				c0.546,0.055,0.848,0.356,0.902,0.902v9.516c0,0.219,0.136,0.301,0.41,0.246c0.109-0.054,0.328-0.164,0.656-0.328
				c0.602-0.382,1.038-0.656,1.313-0.82v-10.992c0.054-0.546,0.355-0.847,0.902-0.902c0.546,0.055,0.848,0.356,0.902,0.902v18.375
				c-0.055,0.601-0.356,0.929-0.902,0.984c-0.603,0-0.902-0.328-0.902-0.984v-5.414C100.866,209.779,99.964,210.3,99.418,210.517z
				 M104.422,204.693c-0.383-0.492-0.383-0.984,0-1.477c1.641-2.242,2.898-4.729,3.773-7.465c0.218-0.546,0.628-0.765,1.23-0.656
				c0.546,0.164,0.766,0.547,0.656,1.148c-0.055,0.219-0.192,0.521-0.41,0.902c-0.274,0.767-0.492,1.341-0.656,1.723h7.055
				c0.546,0.055,0.848,0.356,0.902,0.902c-0.055,0.547-0.356,0.849-0.902,0.902h-1.395c-0.492,4.048-1.477,7.083-2.953,9.105
				c1.148,1.259,2.652,2.297,4.512,3.117c0.546,0.382,0.71,0.874,0.492,1.477c-0.383,0.546-0.902,0.683-1.559,0.41
				c-2.079-1.148-3.638-2.297-4.676-3.445c-1.148,1.202-2.625,2.406-4.43,3.609c-0.547,0.328-1.039,0.218-1.477-0.328
				c-0.219-0.492-0.11-0.958,0.328-1.395c1.858-1.093,3.309-2.242,4.348-3.445c-1.203-1.805-2.051-4.02-2.543-6.645
				c-0.328,0.492-0.656,0.984-0.984,1.477C105.352,204.994,104.914,205.021,104.422,204.693z M110.492,208.22
				c1.202-1.858,1.996-4.375,2.379-7.547h-4.758l-0.082,0.164C108.413,204.01,109.234,206.471,110.492,208.22z"/>
			<path class="st3" d="M119.516,200.51c-0.438,0.274-0.875,0.274-1.313,0c-0.328-0.382-0.301-0.82,0.082-1.313
				c1.202-0.984,2.215-2.215,3.035-3.691c0.273-0.492,0.656-0.683,1.148-0.574c0.492,0.219,0.684,0.574,0.574,1.066
				c-0.055,0.055-0.137,0.192-0.246,0.41c-0.11,0.164-0.192,0.301-0.246,0.41h5.168c0.438,0.055,0.684,0.301,0.738,0.738
				c-0.055,0.438-0.301,0.685-0.738,0.738h-3.609c0.328,0.328,0.656,0.711,0.984,1.148c0.218,0.383,0.136,0.711-0.246,0.984
				c-0.492,0.164-0.875,0.055-1.148-0.328c-0.274-0.382-0.656-0.847-1.148-1.395c-0.11-0.164-0.164-0.3-0.164-0.41h-0.82
				C121.128,198.842,120.446,199.58,119.516,200.51z M119.598,204.693c-0.492-0.054-0.767-0.328-0.82-0.82v-1.723
				c0.054-0.765,0.41-1.175,1.066-1.23h7.383c0-0.054-0.055-0.164-0.164-0.328c-0.055-0.109-0.11-0.191-0.164-0.246
				c-0.11-0.546,0.136-0.902,0.738-1.066c0.438,0,0.738,0.164,0.902,0.492c0.054,0.11,0.136,0.301,0.246,0.574
				c0.109,0.274,0.191,0.465,0.246,0.574h6.973c0.766,0,1.148,0.41,1.148,1.23v1.641c-0.055,0.547-0.356,0.849-0.902,0.902
				c-0.603-0.054-0.931-0.355-0.984-0.902v-0.984c0.054-0.328-0.082-0.464-0.41-0.41h-13.781c-0.328-0.054-0.492,0.082-0.492,0.41
				v1.066C120.528,204.365,120.199,204.639,119.598,204.693z M121.977,214.291c-0.767,0-1.148-0.383-1.148-1.148v-8.121
				c0-0.765,0.382-1.148,1.148-1.148h11.73c0.766,0,1.148,0.383,1.148,1.148v2.051c0,0.767-0.383,1.148-1.148,1.148h-10.91v1.477
				h11.484c0.766,0,1.148,0.356,1.148,1.066v2.379c0,0.765-0.383,1.148-1.148,1.148H121.977z M122.797,205.595v1.313h9.844
				c0.218,0,0.328-0.136,0.328-0.41v-0.902c0-0.273-0.11-0.41-0.328-0.41h-9.516C122.906,205.185,122.797,205.323,122.797,205.595z
				 M133.215,211.01h-10.418v1.559c0,0.218,0.109,0.328,0.328,0.328h10.09c0.218,0,0.328-0.11,0.328-0.328v-1.23
				C133.543,211.12,133.433,211.01,133.215,211.01z M128.703,199.771c-0.328-0.273-0.383-0.656-0.164-1.148
				c0.874-0.984,1.53-2.022,1.969-3.117c0.218-0.437,0.602-0.574,1.148-0.41c0.438,0.164,0.602,0.492,0.492,0.984
				c-0.055,0.055-0.11,0.164-0.164,0.328c-0.11,0.164-0.192,0.301-0.246,0.41h5.742c0.438,0.055,0.684,0.301,0.738,0.738
				c-0.055,0.438-0.301,0.685-0.738,0.738h-4.02c0.109,0.11,0.3,0.301,0.574,0.574c0.273,0.328,0.464,0.547,0.574,0.656
				c0.164,0.383,0.054,0.711-0.328,0.984c-0.438,0.164-0.82,0.055-1.148-0.328c-0.274-0.382-0.656-0.847-1.148-1.395
				c-0.11-0.164-0.164-0.328-0.164-0.492h-0.902c-0.11,0.11-0.246,0.301-0.41,0.574c-0.219,0.219-0.383,0.41-0.492,0.574
				C129.688,199.882,129.249,199.99,128.703,199.771z"/>
			<path class="st3" d="M139.613,198.459c-0.492-0.054-0.767-0.355-0.82-0.902c0.054-0.492,0.328-0.765,0.82-0.82h5.578
				c0.492,0.055,0.766,0.328,0.82,0.82c-0.055,0.547-0.328,0.849-0.82,0.902h-1.887v5.168h1.805c0.492,0.055,0.766,0.328,0.82,0.82
				c-0.055,0.492-0.328,0.767-0.82,0.82h-1.805v5.332c0.164-0.054,0.41-0.109,0.738-0.164c0.438-0.109,0.766-0.191,0.984-0.246
				c0.546,0,0.874,0.246,0.984,0.738c0,0.603-0.274,0.958-0.82,1.066c-0.492,0.11-1.367,0.301-2.625,0.574
				c-1.203,0.273-2.079,0.464-2.625,0.574c-0.603,0.054-0.984-0.192-1.148-0.738c-0.055-0.601,0.218-0.984,0.82-1.148
				c0.054,0,0.136,0,0.246,0c0.438-0.054,1.012-0.164,1.723-0.328v-5.66h-1.723c-0.547-0.054-0.849-0.328-0.902-0.82
				c0.054-0.492,0.355-0.765,0.902-0.82h1.723v-5.168H139.613z M147.653,206.252c-0.603-0.054-0.931-0.41-0.984-1.066v-7.957
				c0.054-0.656,0.382-1.011,0.984-1.066h9.023c0.656,0.055,1.038,0.41,1.148,1.066v7.957c-0.11,0.656-0.492,1.013-1.148,1.066
				h-3.609v2.215h4.594c0.546,0,0.82,0.274,0.82,0.82c-0.055,0.438-0.328,0.685-0.82,0.738h-4.594v2.625h5.414
				c0.546,0.054,0.82,0.328,0.82,0.82c-0.055,0.492-0.328,0.765-0.82,0.82h-12.797c-0.492-0.055-0.767-0.328-0.82-0.82
				c0.054-0.492,0.328-0.767,0.82-0.82h5.578v-2.625h-4.512c-0.438-0.054-0.685-0.3-0.738-0.738c0.054-0.492,0.3-0.765,0.738-0.82
				h4.512v-2.215H147.653z M148.391,198.213v2.215h2.871v-2.625h-2.461C148.527,197.858,148.391,197.995,148.391,198.213z
				 M148.391,204.201c0,0.219,0.136,0.356,0.41,0.41h2.461v-2.707h-2.871V204.201z M155.61,197.803h-2.543v2.625h2.953v-2.297
				C156.02,197.913,155.883,197.803,155.61,197.803z M155.61,204.611c0.273,0,0.41-0.109,0.41-0.328v-2.379h-2.953v2.707H155.61z"/>
			<path class="st3" d="M160.778,198.213c-0.438-0.054-0.685-0.273-0.738-0.656c0-0.437,0.246-0.656,0.738-0.656h8.203v-0.902
				c0.054-0.546,0.355-0.847,0.902-0.902c0.602,0.055,0.93,0.356,0.984,0.902v0.902h8.367c0.382,0.055,0.602,0.274,0.656,0.656
				c-0.055,0.383-0.274,0.603-0.656,0.656h-8.367v1.23h5.66c0.656,0,0.984,0.301,0.984,0.902v2.051c0,0.603-0.328,0.902-0.984,0.902
				h-5.66v1.23h5.988c0.71,0,1.066,0.356,1.066,1.066v1.723h1.395c0.438,0,0.656,0.219,0.656,0.656
				c-0.055,0.383-0.274,0.603-0.656,0.656h-1.395v1.723c0,0.656-0.356,0.984-1.066,0.984h-5.988v0.574
				c0.109,1.858-0.793,2.816-2.707,2.871c-0.164,0-0.521,0-1.066,0c-0.603,0.054-1.039,0.082-1.313,0.082
				c-0.547-0.055-0.875-0.356-0.984-0.902c0.054-0.438,0.3-0.685,0.738-0.738c0.766,0,1.422,0,1.969,0
				c1.094,0.109,1.586-0.383,1.477-1.477v-0.41h-7.301c-0.383-0.054-0.603-0.273-0.656-0.656c0.054-0.328,0.273-0.519,0.656-0.574
				h7.301v-1.477h-8.367c-0.383-0.054-0.603-0.273-0.656-0.656c0-0.437,0.218-0.656,0.656-0.656h8.367v-1.559h-7.055
				c-0.328-0.054-0.521-0.246-0.574-0.574c0.054-0.382,0.246-0.601,0.574-0.656h7.055v-1.23h-5.578
				c-0.656,0-0.984-0.328-0.984-0.984v-1.887c0-0.656,0.328-0.984,0.984-0.984h5.578v-1.23H160.778z M164.223,200.92v0.902
				c0,0.164,0.109,0.274,0.328,0.328h4.43v-1.559h-4.43C164.332,200.592,164.223,200.702,164.223,200.92z M175.379,200.592h-4.512
				v1.559h4.512c0.218-0.054,0.328-0.164,0.328-0.328v-0.902C175.707,200.702,175.597,200.592,175.379,200.592z M175.625,205.76
				h-4.758v1.559h5.25v-1.066C176.117,205.924,175.953,205.76,175.625,205.76z M175.625,210.107c0.328,0,0.492-0.164,0.492-0.492
				v-0.984h-5.25v1.477H175.625z"/>
			<path class="st3" d="M181.86,198.787c-0.492-0.054-0.767-0.355-0.82-0.902c0.054-0.492,0.328-0.765,0.82-0.82h5.168
				c0.492,0.055,0.766,0.356,0.82,0.902c-0.055,0.492-0.328,0.767-0.82,0.82h-1.559v10.172c0.164-0.054,0.382-0.109,0.656-0.164
				c0.218-0.054,0.546-0.136,0.984-0.246c0.602-0.109,0.984,0.137,1.148,0.738c0.054,0.603-0.192,0.958-0.738,1.066
				c-0.656,0.219-2.051,0.603-4.184,1.148c-0.603,0.164-1.039,0.274-1.313,0.328c-0.603,0.164-0.984-0.082-1.148-0.738
				c-0.11-0.601,0.109-1.011,0.656-1.23c0.602-0.109,1.313-0.273,2.133-0.492v-10.582H181.86z M188.504,214.947
				c-0.656,0.273-1.095,0.109-1.313-0.492c-0.219-0.603-0.028-1.04,0.574-1.313c2.297-0.82,3.801-1.723,4.512-2.707
				c0.766-0.929,1.148-2.488,1.148-4.676l0.082-1.723c0.054-0.546,0.355-0.847,0.902-0.902c0.546,0.055,0.848,0.356,0.902,0.902
				l-0.082,1.641c0,1.259-0.11,2.325-0.328,3.199c1.586,1.148,3.417,2.543,5.496,4.184c0.492,0.437,0.546,0.902,0.164,1.395
				c-0.383,0.382-0.849,0.41-1.395,0.082c-0.219-0.164-0.521-0.41-0.902-0.738c-1.751-1.53-3.063-2.625-3.938-3.281
				C193.617,212.322,191.675,213.799,188.504,214.947z M189.16,197.885c-0.492-0.054-0.767-0.355-0.82-0.902
				c0.054-0.492,0.328-0.765,0.82-0.82h10.746c0.492,0.055,0.766,0.356,0.82,0.902c-0.055,0.492-0.328,0.767-0.82,0.82h-4.758
				l-0.492,2.461h4.102c0.656,0.055,1.012,0.438,1.066,1.148v8.203c-0.055,0.547-0.356,0.849-0.902,0.902
				c-0.547-0.054-0.849-0.355-0.902-0.902v-7.219c0-0.328-0.137-0.492-0.41-0.492h-6.398c-0.328,0-0.492,0.164-0.492,0.492v7.301
				c0,0.492-0.301,0.767-0.902,0.82c-0.547-0.054-0.849-0.328-0.902-0.82v-8.285c0.054-0.71,0.438-1.093,1.148-1.148h2.625
				l0.574-2.461H189.16z"/>
		</g>
	</g>
	<path class="st2" d="M120.369,76.377v7.638c-5.764,5.667-12.95,9.898-20.959,12.094l1.582-7.912l-6.459-6.459l9.688-4.844
		l1.615-11.303l0.097-0.388l1.518,0.388h0.016l5.571,1.388C117.349,68.06,120.369,71.936,120.369,76.377L120.369,76.377z
		 M120.369,76.377"/>
	<path class="st2" d="M120.369,57.516l-0.695,1.146c-2.567,4.295-7.202,6.927-12.208,6.927h-0.016l-1.518-0.388l-11.4-2.842v-6.459
		l-0.242-0.419c4.505-2.503,7.702-7.105,8.235-12.499h0.08c3.569,0,6.459-2.89,6.459-6.459v3.843
		C109.065,47.828,113.506,54.578,120.369,57.516L120.369,57.516z M120.369,57.516"/>
	<path class="st2" d="M102.606,30.066v3.229c-4.101-1.017-7.541-3.795-9.43-7.573l-0.259-0.501
		c-3.165,2.099-6.588,3.714-10.189,4.812c-3.601,1.082-7.347,1.647-11.142,1.647h-1.276v-1.615c-3.569,0-6.459,2.89-6.459,6.459
		V23.607c0-12.095,9.495-21.977,21.443-22.574C85.684,1,86.071,1,86.459,1c0.388,0,0.775,0,1.163,0.032
		c5.764,0.291,10.98,2.761,14.823,6.588c4.086,4.101,6.621,9.753,6.621,15.986v12.918C109.065,32.956,106.175,30.066,102.606,30.066
		L102.606,30.066z M102.606,30.066"/>
	<path class="st5" d="M102.606,30.066c3.569,0,6.459,2.89,6.459,6.459s-2.89,6.459-6.459,6.459h-0.08
		c0.048-0.533,0.08-1.066,0.08-1.615V30.066z M102.606,30.066"/>
	<path class="st5" d="M94.016,73.664l0.436-9.608l0.08-1.695l11.4,2.842l-0.097,0.388l-1.615,11.303l-9.688,4.844l-0.872-0.032
		l0.065-1.55L94.016,73.664z M94.016,73.664"/>
	<path class="st5" d="M102.606,33.295v8.074c0,0.549-0.032,1.082-0.08,1.615c-0.533,5.393-3.73,9.995-8.235,12.499
		c-2.325,1.307-4.99,2.034-7.832,2.034s-5.506-0.727-7.832-2.034c-1.324-0.727-2.519-1.631-3.584-2.697
		c-2.568-2.567-4.28-5.991-4.651-9.801c-0.048-0.533-0.08-1.066-0.08-1.615V31.68h1.276c3.795,0,7.541-0.565,11.142-1.647
		c3.601-1.098,7.024-2.713,10.189-4.812l0.259,0.501C95.066,29.5,98.505,32.278,102.606,33.295L102.606,33.295z M102.606,33.295"/>
	<path class="st5" d="M100.992,88.196l-1.582,7.912c-2.099,0.613-4.263,1.049-6.476,1.325l0.211-4.377l0.29-6.459l0.226-4.892
		l0.872,0.032L100.992,88.196z M100.992,88.196"/>
	<path class="st5" d="M94.533,55.902v6.459l-0.08,1.695c-0.517,0.468-3.585,3.149-7.993,3.149s-7.476-2.681-7.993-3.149l-0.08-1.695
		v-6.459l0.242-0.419c2.325,1.307,4.99,2.034,7.832,2.034s5.507-0.727,7.832-2.034L94.533,55.902z M94.533,55.902"/>
	<path class="st5" d="M94.452,64.056l-0.436,9.608H78.902l-0.436-9.608c0.517,0.468,3.585,3.149,7.993,3.149
		S93.935,64.524,94.452,64.056L94.452,64.056z M94.452,64.056"/>
	<path class="st2" d="M94.016,73.664l-0.291,6.491l-0.807-0.032H80l-0.807,0.032l-0.291-6.491H94.016z M94.016,73.664"/>
	<path class="st5" d="M93.725,80.155l-0.065,1.55l-0.226,4.892l-0.517-0.016H80l-0.517,0.016l-0.226-4.892l-0.065-1.55L80,80.123
		h12.918L93.725,80.155z M93.725,80.155"/>
	<path class="st2" d="M93.434,86.597l-0.29,6.459l-0.226-0.016H80l-0.226,0.016l-0.29-6.459L80,86.582h12.918L93.434,86.597z
		 M93.434,86.597"/>
	<path class="st5" d="M93.144,93.056l-0.211,4.377c-2.115,0.307-4.279,0.452-6.475,0.452c-2.196,0-4.36-0.145-6.475-0.452
		l-0.211-4.377L80,93.041h12.918L93.144,93.056z M93.144,93.056"/>
	<path class="st5" d="M79.774,93.056l0.211,4.377c-2.212-0.275-4.377-0.711-6.476-1.325l-1.582-7.912l6.459-6.459l0.872-0.032
		l0.226,4.892L79.774,93.056z M79.774,93.056"/>
	<path class="st5" d="M78.902,73.664l0.291,6.491l0.065,1.55l-0.872,0.032l-9.688-4.844L67.082,65.59l-0.097-0.388l11.4-2.842
		l0.08,1.695L78.902,73.664z M78.902,73.664"/>
	<path class="st2" d="M78.627,55.482l-0.242,0.419v6.459l-11.4,2.842l-1.518,0.388h-0.016c-5.006,0-9.64-2.632-12.208-6.927
		l-0.695-1.146c3.423-1.47,6.265-3.892,8.219-6.878c1.97-2.987,3.084-6.54,3.084-10.27v-3.843c0,3.569,2.89,6.459,6.459,6.459h0.08
		c0.371,3.811,2.083,7.234,4.651,9.801C76.108,53.851,77.304,54.755,78.627,55.482L78.627,55.482z M78.627,55.482"/>
	<path class="st2" d="M78.385,81.737l-6.459,6.459l1.582,7.912c-8.009-2.196-15.195-6.427-20.959-12.094v-7.638
		c0-4.441,3.02-8.317,7.331-9.398l5.571-1.388h0.016l1.518-0.388l0.097,0.388l1.615,11.303L78.385,81.737z M78.385,81.737"/>
	<path class="st5" d="M70.392,42.984h-0.08c-3.569,0-6.459-2.89-6.459-6.459s2.89-6.459,6.459-6.459v11.303
		C70.311,41.918,70.344,42.45,70.392,42.984L70.392,42.984z M70.392,42.984"/>
	<path class="st5" d="M80,36.525c0,0.892-0.723,1.615-1.615,1.615s-1.615-0.723-1.615-1.615s0.723-1.615,1.615-1.615
		S80,35.633,80,36.525L80,36.525z M80,36.525"/>
	<path class="st5" d="M96.147,36.525c0,0.892-0.723,1.615-1.615,1.615c-0.892,0-1.615-0.723-1.615-1.615s0.723-1.615,1.615-1.615
		C95.424,34.91,96.147,35.633,96.147,36.525L96.147,36.525z M96.147,36.525"/>
	<path class="st5" d="M91.751,45.765c0,2.923-2.369,5.292-5.292,5.292s-5.292-2.369-5.292-5.292"/>
</g>
</svg>