<!-- Generator: Adobe Illustrator 24.1.3, SVG Export Plug-In  -->
<svg version="1.1" xmlns="http://www.w3.org/2000/svg" xmlns:xlink="http://www.w3.org/1999/xlink" x="0px" y="0px"
	 width="257.356px" height="237.345px" viewBox="0 0 257.356 237.345"
	 style="overflow:visible;enable-background:new 0 0 257.356 237.345;" xml:space="preserve">
<style type="text/css">
	.st0{fill:#FFFFFF;stroke:#1C3B94;stroke-width:8;stroke-linecap:round;stroke-linejoin:round;stroke-miterlimit:10;}
	.st1{fill:#BF2222;}
	.st2{fill:none;stroke:#1C3B94;stroke-width:8;stroke-linecap:round;stroke-linejoin:round;stroke-miterlimit:10;}
	.st3{fill:none;}
	.st4{font-family:'HYQingFenTi-W';}
	.st5{font-size:36px;}
</style>
<defs>
</defs>
<g>
	<g>
		<rect x="4" y="4" class="st0" width="249.356" height="229.345"/>
		<g>
			<g>
				<path class="st1" d="M65.3,194.262c0.24-0.144,0.462-0.174,0.666-0.091c0.204,0.085,0.354,0.223,0.45,0.414
					c0.096,0.193,0.138,0.402,0.126,0.631c-0.012,0.229-0.114,0.402-0.306,0.521c-0.624,0.432-1.212,0.877-1.764,1.332
					c-0.553,0.457-1.039,0.889-1.458,1.297c-0.42,0.408-0.774,0.785-1.062,1.133c-0.288,0.348-0.48,0.618-0.576,0.811
					c-0.216,0.408-0.517,0.702-0.9,0.882c-0.384,0.181-0.762,0.216-1.134,0.108c-0.372-0.108-0.702-0.379-0.99-0.811
					s-0.432-1.067-0.432-1.908v-13.104c0-0.48-0.24-0.72-0.72-0.72h-1.944c-0.456,0-0.792-0.132-1.008-0.396
					c-0.216-0.265-0.324-0.559-0.324-0.883s0.114-0.623,0.342-0.9c0.228-0.275,0.57-0.414,1.026-0.414h4.032
					c0.6,0,1.104,0.223,1.512,0.666c0.408,0.445,0.612,0.967,0.612,1.566v11.34c0,0.336,0.204,0.42,0.612,0.252
					c0.264-0.119,0.678-0.329,1.242-0.63C63.866,195.06,64.532,194.694,65.3,194.262z M59.684,178.493
					c-0.313-0.527-0.6-0.995-0.864-1.404c-0.264-0.407-0.522-0.803-0.774-1.188c-0.252-0.383-0.51-0.762-0.774-1.134
					c-0.264-0.372-0.564-0.774-0.9-1.206c-0.168-0.216-0.247-0.455-0.234-0.72c0.012-0.265,0.078-0.486,0.198-0.666
					c0.12-0.181,0.293-0.294,0.522-0.343c0.228-0.047,0.474,0.014,0.738,0.181c1.127,0.792,2.106,1.512,2.934,2.159
					c0.828,0.648,1.53,1.225,2.106,1.729c0.552,0.504,0.786,1.045,0.702,1.62c-0.084,0.576-0.33,1.05-0.738,1.422
					c-0.409,0.372-0.895,0.558-1.458,0.558C60.577,179.501,60.092,179.165,59.684,178.493z M73.184,178.493
					c0-0.576,0.192-1.008,0.576-1.295c0.384-0.289,0.798-0.433,1.242-0.433c0.444,0,0.858,0.144,1.242,0.433
					c0.383,0.287,0.576,0.719,0.576,1.295v9.685h8.784c0.408,0,0.714,0.132,0.918,0.396c0.204,0.265,0.306,0.553,0.306,0.864
					c0,0.313-0.103,0.601-0.306,0.864c-0.204,0.264-0.51,0.396-0.918,0.396H76.82v10.799c0,0.625-0.192,1.099-0.576,1.422
					c-0.384,0.324-0.798,0.486-1.242,0.486c-0.444,0-0.858-0.156-1.242-0.468s-0.576-0.792-0.576-1.44v-10.799H64.4
					c-0.408,0-0.72-0.133-0.936-0.396c-0.216-0.264-0.324-0.552-0.324-0.864c0-0.312,0.108-0.6,0.324-0.864
					c0.216-0.264,0.528-0.396,0.936-0.396h8.784V178.493z M84.344,175.938H65.66c-0.409,0-0.72-0.132-0.936-0.396
					c-0.216-0.264-0.324-0.546-0.324-0.846c0-0.301,0.108-0.582,0.324-0.847c0.216-0.264,0.527-0.396,0.936-0.396h18.684
					c0.408,0,0.714,0.132,0.918,0.396c0.204,0.265,0.306,0.546,0.306,0.847c0,0.3-0.102,0.582-0.306,0.846
					C85.057,175.806,84.752,175.938,84.344,175.938z M67.136,178.673c0.744,0.937,1.344,1.723,1.8,2.359
					c0.456,0.636,0.864,1.277,1.224,1.926c0.239,0.408,0.342,0.798,0.306,1.17c-0.036,0.372-0.15,0.689-0.342,0.953
					c-0.192,0.266-0.444,0.475-0.756,0.631c-0.313,0.156-0.625,0.222-0.936,0.197c-0.313-0.023-0.6-0.149-0.864-0.377
					c-0.264-0.229-0.456-0.595-0.576-1.099c-0.192-0.815-0.384-1.571-0.576-2.269c-0.192-0.695-0.432-1.512-0.72-2.447
					c-0.096-0.288-0.102-0.54-0.018-0.756c0.084-0.217,0.204-0.379,0.36-0.486c0.156-0.107,0.336-0.156,0.54-0.145
					C66.782,178.344,66.968,178.458,67.136,178.673z M81.212,185.298c-0.216,0.264-0.444,0.414-0.684,0.449
					c-0.24,0.037-0.45-0.005-0.63-0.125s-0.306-0.301-0.378-0.541c-0.072-0.239-0.048-0.516,0.072-0.828
					c0.264-0.647,0.492-1.301,0.684-1.961c0.192-0.66,0.42-1.482,0.684-2.467c0.167-0.672,0.492-1.08,0.972-1.224
					c0.479-0.144,0.941-0.114,1.386,0.09c0.444,0.204,0.762,0.558,0.954,1.062c0.192,0.505,0.084,1.068-0.324,1.693
					c-0.576,0.912-1.068,1.65-1.476,2.213C82.063,184.224,81.644,184.771,81.212,185.298z"/>
				<path class="st1" d="M96.512,172.518c0.216-0.647,0.576-1.062,1.08-1.242c0.504-0.18,0.984-0.18,1.44,0
					c0.456,0.181,0.81,0.517,1.062,1.009c0.252,0.492,0.234,1.086-0.054,1.781c-0.913,2.16-2.07,4.369-3.474,6.624
					c-1.404,2.257-3.102,4.548-5.094,6.876c-0.265,0.288-0.528,0.438-0.792,0.45c-0.265,0.013-0.486-0.06-0.666-0.216
					c-0.18-0.156-0.301-0.372-0.36-0.648c-0.06-0.275,0.006-0.545,0.198-0.81c0.671-0.983,1.302-1.968,1.89-2.952
					c0.587-0.984,1.152-2.021,1.692-3.114c0.54-1.092,1.062-2.268,1.566-3.528C95.504,175.488,96.008,174.078,96.512,172.518z
					 M97.664,201.534c0,0.623-0.186,1.092-0.558,1.403c-0.373,0.312-0.774,0.468-1.206,0.468s-0.834-0.156-1.206-0.468
					s-0.558-0.78-0.558-1.403v-15.156c0-0.648,0.18-1.128,0.54-1.44c0.36-0.312,0.762-0.468,1.206-0.468
					c0.444,0,0.852,0.156,1.224,0.468c0.372,0.313,0.558,0.792,0.558,1.44V201.534z M100.328,185.622
					c-0.336,0.264-0.643,0.377-0.918,0.342c-0.276-0.036-0.492-0.145-0.648-0.324c-0.157-0.18-0.234-0.402-0.234-0.666
					s0.12-0.516,0.36-0.756c1.8-1.775,3.402-3.666,4.806-5.67c1.404-2.004,2.646-4.23,3.726-6.678
					c0.24-0.504,0.612-0.822,1.116-0.955c0.504-0.131,0.972-0.102,1.404,0.09c0.432,0.193,0.75,0.522,0.954,0.99
					c0.204,0.469,0.126,1.051-0.234,1.746c-1.152,2.232-2.634,4.369-4.446,6.408C104.401,182.191,102.439,184.015,100.328,185.622z
					 M101.048,203.046c-0.24,0.216-0.486,0.306-0.738,0.27c-0.252-0.035-0.468-0.139-0.648-0.306
					c-0.18-0.169-0.288-0.378-0.324-0.63s0.042-0.486,0.234-0.702c0.84-0.937,1.542-1.872,2.106-2.808
					c0.564-0.937,1.02-2.004,1.368-3.205c0.348-1.199,0.594-2.586,0.738-4.157c0.144-1.571,0.216-3.438,0.216-5.599
					c0-0.6,0.186-1.049,0.558-1.35c0.372-0.3,0.779-0.443,1.224-0.432c0.444,0.012,0.852,0.168,1.224,0.468s0.558,0.737,0.558,1.313
					c0,2.448-0.156,4.555-0.468,6.318c-0.313,1.764-0.75,3.301-1.314,4.607c-0.564,1.309-1.248,2.449-2.052,3.42
					C102.926,201.228,102.032,202.158,101.048,203.046z M119.732,185.406c-0.648-0.623-1.338-1.379-2.07-2.268
					c-0.732-0.888-1.453-1.836-2.16-2.844c-0.708-1.008-1.374-2.053-1.998-3.133c-0.625-1.08-1.152-2.135-1.584-3.168
					c-0.12-0.239-0.132-0.479-0.036-0.72c0.096-0.239,0.24-0.414,0.432-0.522c0.192-0.107,0.408-0.137,0.648-0.09
					c0.24,0.049,0.456,0.229,0.648,0.541c1.296,1.968,2.664,3.726,4.104,5.273s2.988,3.042,4.644,4.482
					c0.408,0.359,0.582,0.773,0.522,1.242c-0.06,0.467-0.246,0.863-0.558,1.188c-0.313,0.324-0.708,0.516-1.188,0.576
					S120.187,185.837,119.732,185.406z M113.648,185.73c0-0.527,0.18-0.93,0.54-1.206c0.36-0.275,0.75-0.414,1.17-0.414
					s0.81,0.139,1.17,0.414c0.36,0.276,0.54,0.679,0.54,1.206v15.984c0,0.576-0.18,1.008-0.54,1.296
					c-0.36,0.288-0.75,0.432-1.17,0.432s-0.81-0.144-1.17-0.432s-0.54-0.72-0.54-1.296V185.73z"/>
				<path class="st1" d="M137.264,188.034c-0.769,1.32-1.65,2.64-2.646,3.959c-0.997,1.32-2.094,2.617-3.294,3.889
					c-1.201,1.271-2.46,2.46-3.78,3.564c-0.264,0.215-0.534,0.293-0.81,0.233s-0.492-0.198-0.648-0.414
					c-0.156-0.216-0.24-0.468-0.252-0.756c-0.012-0.288,0.102-0.552,0.342-0.792c1.008-0.984,1.986-2.076,2.934-3.276
					c0.948-1.2,1.824-2.441,2.628-3.726c0.804-1.283,1.524-2.586,2.16-3.906c0.636-1.32,1.158-2.592,1.566-3.816
					c0.192-0.6,0.534-0.995,1.026-1.188c0.492-0.191,0.966-0.217,1.422-0.072c0.456,0.145,0.822,0.432,1.098,0.864
					s0.294,0.972,0.054,1.62C138.632,185.442,138.032,186.714,137.264,188.034z M144.104,196.745h4.752
					c0.408,0,0.714-0.131,0.918-0.396c0.204-0.264,0.306-0.558,0.306-0.882s-0.108-0.624-0.324-0.9
					c-0.216-0.275-0.516-0.414-0.9-0.414h-4.752v-13.752h12.384c0.408,0,0.714-0.131,0.918-0.396
					c0.204-0.264,0.306-0.557,0.306-0.881s-0.108-0.624-0.324-0.9c-0.216-0.275-0.517-0.414-0.9-0.414h-12.384v-5.076
					c0-0.6-0.192-1.049-0.576-1.35c-0.384-0.3-0.804-0.45-1.26-0.45c-0.456,0-0.876,0.15-1.26,0.45
					c-0.384,0.301-0.576,0.75-0.576,1.35v5.076h-12.348c-0.408,0-0.714,0.139-0.918,0.414c-0.204,0.276-0.306,0.576-0.306,0.9
					s0.102,0.617,0.306,0.881c0.204,0.266,0.51,0.396,0.918,0.396h12.348v13.752h-4.896c-0.409,0-0.714,0.139-0.918,0.414
					c-0.205,0.276-0.306,0.576-0.306,0.9s0.102,0.618,0.306,0.882c0.204,0.265,0.509,0.396,0.918,0.396h4.896v4.789
					c0,0.647,0.192,1.127,0.576,1.439c0.384,0.312,0.804,0.468,1.26,0.468c0.456,0,0.875-0.156,1.26-0.468
					c0.384-0.313,0.576-0.792,0.576-1.439V196.745z M152.168,189.348c1.8,2.196,3.792,4.229,5.976,6.103
					c0.527,0.455,0.78,0.971,0.756,1.547s-0.21,1.068-0.558,1.477c-0.348,0.408-0.81,0.654-1.386,0.738
					c-0.576,0.084-1.165-0.15-1.764-0.702c-1.944-1.872-3.732-4.068-5.364-6.589c-1.632-2.52-3.108-5.303-4.428-8.352
					c-0.144-0.359-0.156-0.678-0.036-0.953c0.12-0.276,0.312-0.48,0.576-0.613c0.264-0.131,0.546-0.155,0.846-0.071
					c0.3,0.085,0.558,0.306,0.774,0.666C148.832,184.902,150.368,187.152,152.168,189.348z"/>
				<path class="st1" d="M163.13,203.208c-0.276,0.059-0.528,0.035-0.756-0.072c-0.229-0.108-0.391-0.276-0.486-0.504
					c-0.096-0.229-0.061-0.51,0.108-0.846c0.6-1.152,1.128-2.311,1.584-3.475c0.456-1.164,0.828-2.472,1.116-3.924
					c0.288-1.452,0.504-3.114,0.648-4.986c0.144-1.871,0.216-4.068,0.216-6.588c0-0.623,0.186-1.092,0.558-1.404
					c0.372-0.311,0.779-0.468,1.224-0.468c0.444,0,0.852,0.157,1.224,0.468c0.372,0.313,0.558,0.781,0.558,1.404
					c0,2.376-0.103,4.477-0.306,6.301c-0.204,1.824-0.522,3.498-0.954,5.021c-0.432,1.524-0.984,2.97-1.656,4.338
					c-0.672,1.368-1.476,2.783-2.412,4.248C163.628,202.986,163.406,203.148,163.13,203.208z M162.266,180.312
					c0.036,0.204,0.138,0.359,0.306,0.469c0.168,0.107,0.366,0.161,0.594,0.161c0.228,0,0.45-0.095,0.666-0.288
					c0.696-0.6,1.326-1.164,1.89-1.691c0.563-0.527,1.085-1.074,1.566-1.639c0.479-0.563,0.923-1.157,1.332-1.781
					c0.408-0.624,0.804-1.32,1.188-2.088c0.264-0.528,0.27-1.008,0.018-1.44s-0.606-0.738-1.062-0.918
					c-0.457-0.181-0.936-0.186-1.44-0.019c-0.504,0.168-0.876,0.576-1.116,1.225c-0.312,0.889-0.606,1.668-0.882,2.34
					c-0.276,0.672-0.564,1.291-0.864,1.854c-0.3,0.564-0.612,1.099-0.936,1.603c-0.324,0.504-0.69,1.032-1.098,1.584
					C162.284,179.898,162.23,180.109,162.266,180.312z M178.754,176.333c0.204-0.239,0.306-0.504,0.306-0.791
					c0-0.289-0.103-0.553-0.306-0.793c-0.204-0.239-0.522-0.359-0.954-0.359h-7.164c-0.408,0-0.708,0.12-0.9,0.359
					c-0.192,0.24-0.288,0.504-0.288,0.793c0,0.287,0.096,0.552,0.288,0.791c0.192,0.24,0.492,0.36,0.9,0.36h7.164
					C178.232,176.694,178.55,176.574,178.754,176.333z M169.448,191.165c0-0.527,0.168-0.918,0.504-1.17
					c0.335-0.252,0.714-0.371,1.134-0.359c0.419,0.012,0.798,0.15,1.134,0.414c0.335,0.264,0.504,0.66,0.504,1.188v10.801
					c0,0.527-0.168,0.924-0.504,1.188c-0.336,0.264-0.715,0.396-1.134,0.396c-0.42,0-0.798-0.133-1.134-0.396
					c-0.336-0.264-0.504-0.66-0.504-1.188V191.165z M170.366,177.18c-0.18,0.085-0.306,0.21-0.378,0.378
					c-0.072,0.168-0.084,0.342-0.036,0.521c0.048,0.181,0.18,0.318,0.396,0.414c0.216,0.121,0.522,0.318,0.918,0.594
					c0.396,0.277,0.882,0.654,1.458,1.135c0.432,0.336,0.858,0.449,1.278,0.342c0.419-0.107,0.75-0.318,0.99-0.63
					c0.239-0.312,0.324-0.659,0.252-1.044c-0.072-0.384-0.373-0.672-0.9-0.864c-0.408-0.144-0.846-0.275-1.314-0.396
					c-0.468-0.12-1.122-0.275-1.962-0.469C170.78,177.089,170.546,177.096,170.366,177.18z M170.402,187.188
					c-0.204-0.228-0.306-0.485-0.306-0.774c0-0.287,0.102-0.545,0.306-0.773c0.204-0.229,0.522-0.342,0.954-0.342h17.064v-1.297
					c0-0.239-0.048-0.432-0.144-0.575c-0.096-0.144-0.312-0.216-0.648-0.216h-16.272c-0.432,0-0.75-0.113-0.954-0.342
					c-0.204-0.229-0.306-0.486-0.306-0.774s0.102-0.546,0.306-0.774c0.204-0.228,0.522-0.342,0.954-0.342h5.832
					c-0.121-0.216-0.247-0.443-0.378-0.684c-0.132-0.24-0.294-0.527-0.486-0.864c-0.121-0.192-0.162-0.378-0.126-0.558
					c0.036-0.181,0.126-0.33,0.27-0.451c0.144-0.119,0.318-0.191,0.522-0.215c0.204-0.023,0.402,0.012,0.594,0.107
					c0.671,0.336,1.206,0.637,1.602,0.9s0.75,0.539,1.062,0.828c0.288,0.264,0.432,0.576,0.432,0.936h8.1
					c1.248,0,2.088,0.234,2.52,0.702c0.432,0.468,0.648,1.11,0.648,1.926v1.62c0,0.769-0.198,1.344-0.594,1.729
					c-0.396,0.384-1.026,0.576-1.89,0.576h-18.108C170.924,187.531,170.605,187.416,170.402,187.188z M189.482,203.495
					c-0.396-0.06-0.582-0.294-0.558-0.701c0.024-0.408-0.108-0.672-0.396-0.793c-0.288-0.119-0.696-0.203-1.224-0.252
					c-0.265-0.023-0.457-0.107-0.576-0.252c-0.121-0.144-0.18-0.306-0.18-0.485c0-0.181,0.066-0.337,0.198-0.468
					c0.131-0.133,0.306-0.198,0.522-0.198c0.768,0,1.26-0.036,1.476-0.108c0.216-0.072,0.324-0.348,0.324-0.828v-6.623
					c0-0.192-0.06-0.385-0.18-0.576c-0.121-0.192-0.36-0.289-0.72-0.289h-13.32c-0.384,0-0.672-0.113-0.864-0.342
					c-0.192-0.228-0.288-0.485-0.288-0.773s0.096-0.546,0.288-0.773c0.192-0.229,0.48-0.343,0.864-0.343h14.616
					c1.224,0,2.022,0.282,2.394,0.847c0.372,0.563,0.558,1.338,0.558,2.321v6.948c0,0.768-0.156,1.428-0.468,1.98
					c-0.312,0.551-0.708,0.995-1.188,1.332C190.304,203.429,189.878,203.556,189.482,203.495z M173.984,197.159
					c-0.168-0.228-0.252-0.473-0.252-0.738c0-0.264,0.084-0.509,0.252-0.737c0.167-0.228,0.432-0.342,0.792-0.342h1.404v-1.152
					c0-0.527,0.162-0.923,0.486-1.188c0.324-0.264,0.678-0.389,1.062-0.377c0.384,0.012,0.738,0.156,1.062,0.432
					c0.324,0.275,0.486,0.678,0.486,1.206v1.08h3.348v-1.152c0-0.527,0.162-0.923,0.486-1.188c0.324-0.264,0.678-0.389,1.062-0.377
					c0.384,0.012,0.738,0.156,1.062,0.432c0.324,0.275,0.486,0.678,0.486,1.206v1.08h1.26c0.36,0,0.624,0.114,0.792,0.342
					c0.167,0.229,0.252,0.474,0.252,0.737c0,0.266-0.084,0.511-0.252,0.738c-0.168,0.229-0.432,0.342-0.792,0.342h-1.26v3.637
					c0,0.527-0.162,0.924-0.486,1.188c-0.324,0.264-0.678,0.396-1.062,0.396c-0.384,0-0.738-0.133-1.062-0.396
					c-0.324-0.264-0.486-0.66-0.486-1.188v-3.637h-3.348v3.637c0,0.527-0.162,0.924-0.486,1.188
					c-0.324,0.264-0.678,0.396-1.062,0.396c-0.384,0-0.738-0.133-1.062-0.396c-0.324-0.264-0.486-0.66-0.486-1.188v-3.637h-1.404
					C174.416,197.501,174.151,197.388,173.984,197.159z M179.024,178.296c0.072,0.229,0.21,0.396,0.414,0.504
					c0.204,0.107,0.438,0.15,0.702,0.126c0.264-0.024,0.504-0.144,0.72-0.36c0.744-0.695,1.446-1.428,2.106-2.195
					c0.66-0.769,1.254-1.68,1.782-2.736c0.312-0.6,0.348-1.122,0.108-1.566c-0.24-0.443-0.582-0.756-1.026-0.936
					c-0.444-0.18-0.918-0.186-1.422-0.018c-0.504,0.168-0.864,0.575-1.08,1.223c-0.24,0.697-0.457,1.291-0.648,1.783
					c-0.192,0.492-0.366,0.936-0.522,1.332c-0.157,0.396-0.318,0.756-0.486,1.08c-0.168,0.323-0.336,0.653-0.504,0.989
					C179,177.81,178.952,178.068,179.024,178.296z M184.838,177.234c-0.18,0.096-0.3,0.229-0.36,0.396
					c-0.06,0.168-0.06,0.342,0,0.521c0.06,0.18,0.198,0.33,0.414,0.45c0.336,0.192,0.696,0.427,1.08,0.702
					c0.383,0.275,0.84,0.618,1.368,1.025c0.432,0.337,0.858,0.451,1.278,0.342c0.419-0.107,0.744-0.316,0.972-0.629
					s0.306-0.66,0.234-1.045c-0.072-0.383-0.384-0.671-0.936-0.863c-0.409-0.145-0.858-0.288-1.35-0.432
					c-0.492-0.145-1.158-0.313-1.998-0.504C185.252,177.126,185.018,177.138,184.838,177.234z M194.126,176.333
					c0.204-0.239,0.306-0.504,0.306-0.791c0-0.289-0.103-0.553-0.306-0.793c-0.204-0.239-0.51-0.359-0.918-0.359h-7.38
					c-0.432,0-0.75,0.12-0.954,0.359c-0.204,0.24-0.306,0.504-0.306,0.793c0,0.287,0.102,0.552,0.306,0.791
					c0.204,0.24,0.522,0.36,0.954,0.36h7.38C193.616,176.694,193.922,176.574,194.126,176.333z"/>
			</g>
		</g>
	</g>
	<g>
		<circle class="st0" cx="127.071" cy="94.986" r="46.236"/>
		<path class="st0" d="M145.212,102.664c0,10.019-8.122,18.141-18.141,18.141s-18.141-8.122-18.141-18.141"/>
		<line class="st2" x1="108.93" y1="81.229" x2="108.93" y2="83.237"/>
		<line class="st2" x1="145.212" y1="81.229" x2="145.212" y2="83.237"/>
	</g>
</g>
</svg>