<!-- Generator: Adobe Illustrator 24.1.3, SVG Export Plug-In  -->
<svg version="1.1" xmlns="http://www.w3.org/2000/svg" xmlns:xlink="http://www.w3.org/1999/xlink" x="0px" y="0px"
	 width="391.555px" height="216.908px" viewBox="0 0 391.555 216.908"
	 style="overflow:visible;enable-background:new 0 0 391.555 216.908;" xml:space="preserve">
<style type="text/css">
	.st0{fill:#FFFFFF;stroke:#1C3B94;stroke-width:2;stroke-linecap:round;stroke-linejoin:round;stroke-miterlimit:10;}
	.st1{fill:#FFFFFF;stroke:#1C3B94;stroke-width:2;stroke-miterlimit:10;}
	.st2{fill:#FFE291;stroke:#1C3B94;stroke-width:2;stroke-linecap:round;stroke-linejoin:round;stroke-miterlimit:10;}
	.st3{fill:#1C3B94;}
	.st4{fill:#BF2222;}
	.st5{fill:none;stroke:#1C3B94;stroke-width:2;stroke-linecap:round;stroke-linejoin:round;stroke-miterlimit:10;}
	.st6{fill:none;}
	.st7{font-family:'FZLANTY_ZHUNK--GBK1-0';}
	.st8{font-size:28.8559px;}
	.st9{letter-spacing:1;}
	.st10{font-size:19px;}
	.st11{font-size:17.3135px;}
	.st12{font-size:21px;}
</style>
<defs>
</defs>
<g>
	<path class="st0" d="M269.007,70.804v-16.51H134.901l0,0c0,26.754-21.689,48.442-48.442,48.442
		c-26.754,0-48.442-21.688-48.442-48.442l0,0H1v161.615h389.555V70.804H269.007z"/>
	<path class="st1" d="M86.459,102.736c26.754,0,48.442-21.688,48.442-48.442l0,0c0-26.754-21.689-48.442-48.442-48.442
		c-26.754,0-48.442,21.689-48.442,48.442l0,0C38.017,81.047,59.705,102.736,86.459,102.736z"/>
	<polygon class="st2" points="269.007,21.901 269.007,54.293 269.007,70.804 390.555,70.804 390.555,54.293 390.555,21.901 	"/>
	<g>
		<g>
			<path class="st3" d="M280.484,53.907h8.905c1.051-0.074,1.539,0.338,1.465,1.24c0,0.826-0.489,1.24-1.465,1.24h-10.258
				c-1.278,0-1.916-0.602-1.916-1.803c0-0.826,0.187-1.578,0.563-2.254c1.127-2.328,3.343-4.959,6.65-7.89
				c2.479-1.953,3.644-3.794,3.494-5.523c-0.151-2.029-1.353-3.08-3.607-3.156c-2.33,0-3.758,1.09-4.283,3.269
				c-0.225,1.353-0.752,1.916-1.578,1.691c-0.827-0.15-1.165-0.789-1.014-1.917c0.75-3.531,3.043-5.372,6.875-5.523
				c4.059,0.151,6.124,2.029,6.2,5.636c0.149,2.556-1.353,5.072-4.509,7.552c-2.931,2.631-4.886,4.922-5.861,6.876
				C280.07,53.72,280.184,53.907,280.484,53.907z"/>
		</g>
	</g>
	<g>
		<g>
			<path class="st4" d="M145.725,10.242c-0.546-0.049-0.844-0.371-0.893-0.965c0.049-0.594,0.347-0.915,0.893-0.965h16.52
				c0.596,0.05,0.917,0.371,0.968,0.965c-0.051,0.594-0.372,0.916-0.968,0.965H145.725z"/>
			<path class="st4" d="M164.923,17.219c-0.547,0.049-0.894-0.198-1.042-0.742c0.049-0.494,0.298-0.791,0.744-0.891
				c0.495-0.049,1.289-0.173,2.381-0.371c1.19-0.197,2.01-0.321,2.456-0.371c0.644-0.099,1.016,0.1,1.116,0.594
				c0,0.545-0.273,0.866-0.818,0.965C168.816,16.551,167.204,16.823,164.923,17.219z M165.295,8.09
				c-0.695,0-1.116-0.223-1.266-0.668c-0.148-0.346,0.024-0.865,0.521-1.559c0.744-0.939,1.637-2.474,2.679-4.602
				c0.247-0.544,0.644-0.717,1.19-0.52c0.446,0.198,0.569,0.545,0.372,1.039c-1.092,1.979-1.984,3.488-2.679,4.527
				c-0.101,0.148-0.074,0.248,0.074,0.297c0.197,0,0.521-0.024,0.968-0.074c0.495,0,0.818,0,0.967,0
				c0.298-0.445,0.546-0.865,0.744-1.262c0.298-0.494,0.694-0.643,1.19-0.445c0.447,0.248,0.546,0.619,0.298,1.113
				c-0.993,1.683-2.158,3.439-3.497,5.27c-0.101,0.148-0.05,0.248,0.148,0.297c0.198,0,0.546-0.024,1.042-0.074
				c0.694-0.049,1.19-0.099,1.488-0.148c0.596-0.049,0.893,0.148,0.893,0.594c0,0.396-0.248,0.668-0.744,0.816
				c-0.297,0.05-0.744,0.1-1.339,0.148c-1.092,0.1-1.836,0.174-2.232,0.223c-0.993,0.1-1.538-0.099-1.637-0.594
				c-0.149-0.297,0.074-0.791,0.669-1.484c0.049-0.049,0.1-0.099,0.149-0.148c0.693-0.891,1.339-1.83,1.935-2.82
				C166.783,8.066,166.138,8.09,165.295,8.09z M171.396,6.68c-0.446,0.05-0.744-0.148-0.893-0.594
				c0.049-0.494,0.271-0.791,0.669-0.891l2.307-0.297c-0.05-0.396-0.074-0.965-0.074-1.707c-0.05-0.791-0.074-1.385-0.074-1.781
				c0.049-0.494,0.347-0.767,0.893-0.816c0.447,0.05,0.744,0.322,0.894,0.816c0,1.188,0.024,2.301,0.074,3.34l5.581-0.668
				c0.495-0.049,0.769,0.174,0.818,0.668c0.049,0.445-0.175,0.718-0.67,0.816l-5.655,0.668c0,0.198,0.024,0.495,0.074,0.891
				c0,0.347,0.024,0.619,0.074,0.816c0.049,0.248,0.075,0.495,0.075,0.742l5.804-0.816c0.495-0.049,0.793,0.174,0.893,0.668
				c-0.05,0.445-0.297,0.718-0.744,0.816l-5.729,0.816c0.198,1.089,0.471,2.078,0.818,2.969c1.042-0.841,2.059-1.731,3.052-2.672
				c0.346-0.297,0.718-0.321,1.115-0.074c0.396,0.347,0.396,0.693,0,1.039c-1.19,1.237-2.381,2.301-3.571,3.191
				c0.545,1.386,1.239,2.078,2.084,2.078c0.495,0,0.793-0.322,0.893-0.965c0.049-0.148,0.148-0.47,0.298-0.965
				c0.049-0.346,0.099-0.594,0.148-0.742c0.099-0.494,0.396-0.692,0.893-0.594c0.447,0.1,0.645,0.445,0.596,1.039
				c-0.05,0.297-0.175,0.816-0.372,1.559c-0.05,0.297-0.1,0.494-0.148,0.594c-0.348,1.236-1.092,1.855-2.232,1.855
				c-1.488,0.049-2.705-0.891-3.646-2.82c-1.24,0.742-2.654,1.459-4.241,2.152c-0.596,0.197-1.042,0.074-1.34-0.371
				c-0.148-0.495,0.024-0.891,0.521-1.188c1.735-0.692,3.224-1.41,4.465-2.152c-0.348-1.088-0.67-2.325-0.968-3.711l-2.828,0.445
				c-0.496-0.049-0.77-0.271-0.818-0.668c-0.05-0.445,0.149-0.742,0.596-0.891l2.827-0.371c0-0.049,0-0.148,0-0.297
				c-0.05-0.197-0.074-0.346-0.074-0.445c-0.1-0.544-0.148-1.113-0.148-1.707L171.396,6.68z M178.466,3.711
				c-0.149-0.148-0.447-0.396-0.894-0.742c-0.446-0.346-0.744-0.568-0.893-0.668c-0.348-0.346-0.372-0.668-0.074-0.965
				c0.297-0.346,0.669-0.371,1.116-0.074c0.247,0.148,0.669,0.445,1.265,0.891c0.248,0.148,0.421,0.272,0.521,0.371
				c0.347,0.297,0.372,0.644,0.075,1.039C179.234,3.959,178.862,4.008,178.466,3.711z"/>
			<path class="st4" d="M183.822,6.68c-0.496-0.049-0.77-0.321-0.818-0.816c0.049-0.445,0.322-0.692,0.818-0.742h1.19V1.336
				c0.049-0.494,0.298-0.767,0.744-0.816c0.496,0.05,0.769,0.322,0.819,0.816v3.785h1.041c0.496,0.05,0.769,0.297,0.819,0.742
				c-0.051,0.495-0.323,0.768-0.819,0.816h-1.041v6.383c0.297-0.049,0.595-0.148,0.893-0.297c0.495-0.049,0.818,0.124,0.968,0.52
				c0.099,0.495-0.101,0.842-0.596,1.039c-1.737,0.594-3.026,1.015-3.869,1.262c-0.596,0.1-0.968-0.099-1.116-0.594
				c-0.101-0.494,0.099-0.816,0.595-0.965c0.447-0.148,0.968-0.297,1.563-0.445V6.68H183.822z M187.469,18.555
				c-0.446-0.248-0.547-0.619-0.298-1.113c1.29-1.633,1.885-4.403,1.786-8.313V5.121c0.049-0.643,0.372-0.965,0.967-0.965h5.061
				c-0.05-0.891-0.074-1.83-0.074-2.82c0.049-0.494,0.321-0.767,0.818-0.816c0.495,0.05,0.769,0.322,0.818,0.816
				c0,0.99,0,1.93,0,2.82h3.869c0.495,0,0.744,0.248,0.744,0.742c0,0.445-0.249,0.693-0.744,0.742h-3.795
				c0.149,2.87,0.347,4.948,0.596,6.234c0.744-1.236,1.363-2.598,1.86-4.082c0.197-0.445,0.521-0.618,0.967-0.52
				c0.396,0.297,0.546,0.644,0.446,1.039c-0.794,2.178-1.736,4.033-2.827,5.566l0.074,0.223c0.347,1.633,0.793,2.474,1.34,2.523
				c0.247,0,0.396-0.223,0.446-0.668c0.099-0.346,0.197-1.014,0.298-2.004c0.099-0.445,0.372-0.643,0.818-0.594
				c0.396,0.1,0.569,0.396,0.521,0.891c-0.1,1.039-0.223,1.881-0.372,2.523c-0.249,1.088-0.794,1.633-1.637,1.633
				c-1.19,0.049-2.109-0.891-2.753-2.82c-0.943,1.088-1.836,1.979-2.679,2.672c-0.298,0.346-0.695,0.346-1.191,0
				c-0.297-0.347-0.272-0.718,0.075-1.113c1.289-1.088,2.405-2.227,3.348-3.414c-0.446-2.127-0.744-4.824-0.893-8.09h-4.093
				c-0.249,0.05-0.397,0.198-0.446,0.445V8.09h2.604c0.545,0.05,0.843,0.347,0.893,0.891c0,1.584-0.05,3.093-0.148,4.527
				c0,1.436-0.67,2.178-2.009,2.227c-0.149,0.05-0.447,0.074-0.894,0.074c-0.546-0.099-0.868-0.346-0.967-0.742
				c-0.298,1.089-0.77,2.152-1.414,3.191C188.336,18.654,187.964,18.752,187.469,18.555z M192.231,9.574h-1.712
				c0,1.781-0.124,3.414-0.372,4.898c0.148-0.197,0.347-0.297,0.596-0.297h0.669c0.744,0,1.091-0.346,1.042-1.039
				c0.049-0.544,0.074-1.633,0.074-3.266C192.528,9.674,192.429,9.574,192.231,9.574z M199.003,3.563
				c-0.447-0.445-0.919-0.865-1.414-1.262c-0.298-0.297-0.298-0.594,0-0.891c0.347-0.297,0.67-0.297,0.967,0
				c0.298,0.248,0.818,0.668,1.563,1.262c0.248,0.396,0.224,0.742-0.074,1.039C199.646,3.959,199.3,3.909,199.003,3.563z"/>
			<path class="st4" d="M203.913,18.629c-0.744,0.148-1.166-0.074-1.265-0.668c-0.101-0.594,0.197-0.965,0.893-1.113
				c5.754-0.891,9.549-2.523,11.385-4.898c-3.969,0.248-7.068,0.471-9.301,0.668c-0.646,0.05-1.067-0.148-1.266-0.594
				c-0.148-0.544,0.024-0.965,0.521-1.262c2.331-1.336,4.34-2.572,6.027-3.711c-0.497,0-0.67,0-0.521,0
				c-2.431,0.1-4.167,0.198-5.209,0.297c-0.595,0-0.967-0.223-1.116-0.668c-0.05-0.445,0.124-0.816,0.521-1.113
				c1.935-1.188,3.918-2.721,5.953-4.602c0.545-0.396,1.041-0.42,1.488-0.074c0.346,0.396,0.297,0.816-0.149,1.262
				c-1.737,1.386-3.249,2.499-4.539,3.34c-0.05,0.05-0.074,0.1-0.074,0.148c0,0.05,0.049,0.074,0.148,0.074
				c0.248,0,0.694-0.024,1.34-0.074c1.983-0.049,3.423-0.123,4.315-0.223c0.495-0.346,1.215-0.891,2.158-1.633
				c0.347-0.297,0.62-0.52,0.818-0.668c0.596-0.445,1.091-0.494,1.488-0.148c0.396,0.445,0.347,0.891-0.148,1.336
				c-2.432,2.029-5.458,4.132-9.078,6.309c-0.101,0.1-0.101,0.174,0,0.223c0.744-0.049,1.909-0.123,3.497-0.223
				c1.935-0.099,3.323-0.173,4.167-0.223v-0.074c0.347-0.594,0.645-1.336,0.893-2.227c0.298-0.494,0.694-0.692,1.191-0.594
				c0.545,0.198,0.743,0.594,0.595,1.187c-0.249,0.742-0.521,1.46-0.818,2.152C216.29,14.844,211.652,17.442,203.913,18.629z"/>
			<path class="st4" d="M146.172,36.543c-0.497,0.248-0.869,0.148-1.116-0.297c-0.249-0.544-0.149-0.965,0.297-1.262
				c1.786-1.385,3.126-2.919,4.019-4.602c0.099-0.197,0.024-0.321-0.224-0.371h-3.273c-0.397-0.049-0.621-0.297-0.67-0.742
				c0.049-0.445,0.272-0.692,0.67-0.742h4.762c0.447,0.05,0.694,0.322,0.744,0.816c0,0.495-0.124,0.965-0.372,1.41
				c-0.446,0.891-0.967,1.732-1.563,2.523v8.758c-0.05,0.445-0.323,0.692-0.818,0.742c-0.496-0.05-0.77-0.297-0.818-0.742v-6.977
				C147.311,35.604,146.767,36.098,146.172,36.543z M149.371,28.082c-0.496,0.148-0.868,0.025-1.116-0.371
				c-0.05-0.099-0.124-0.247-0.224-0.445c-0.248-0.643-0.422-1.063-0.521-1.262c-0.199-0.445-0.074-0.791,0.372-1.039
				c0.446-0.148,0.818-0.024,1.116,0.371c0.099,0.148,0.224,0.421,0.372,0.816c0.197,0.396,0.322,0.668,0.372,0.816
				C149.94,27.464,149.817,27.835,149.371,28.082z M152.57,36.543c-0.446,0.297-0.818,0.272-1.115-0.074
				c-0.398-0.396-0.845-0.891-1.34-1.484c-0.298-0.346-0.298-0.692,0-1.039c0.347-0.247,0.719-0.247,1.116,0
				c0.099,0.1,0.248,0.272,0.446,0.52c0.495,0.445,0.818,0.742,0.968,0.891C152.942,35.801,152.917,36.198,152.57,36.543z
				 M152.868,31.793c-0.496-0.099-0.77-0.371-0.818-0.816c0.049-0.445,0.322-0.717,0.818-0.816h3.349v-4.602
				c0.049-0.544,0.347-0.841,0.893-0.891c0.546,0.05,0.844,0.347,0.894,0.891v4.602h3.646c0.447,0.05,0.694,0.322,0.744,0.816
				c-0.05,0.495-0.297,0.768-0.744,0.816h-3.646v8.461h4.167c0.495,0.05,0.769,0.321,0.818,0.816
				c-0.05,0.494-0.323,0.767-0.818,0.816h-10.12c-0.496-0.05-0.77-0.322-0.818-0.816c0.049-0.495,0.322-0.767,0.818-0.816h4.167
				v-8.461H152.868z"/>
			<path class="st4" d="M166.485,41.664c-0.695,0-1.042-0.371-1.042-1.113V26.969c0-0.742,0.347-1.113,1.042-1.113h14.287
				c0.495,0.05,0.769,0.347,0.818,0.891c-0.05,0.495-0.323,0.768-0.818,0.816h-13.097c-0.298,0-0.472,0.174-0.521,0.52v11.355
				c0,0.297,0.197,0.471,0.595,0.52h13.319c0.496,0.05,0.769,0.347,0.819,0.891c-0.051,0.494-0.323,0.767-0.819,0.816H166.485z
				 M169.312,38.918c-0.546,0.248-0.992,0.148-1.339-0.297c-0.249-0.494-0.149-0.891,0.298-1.188c1.438-0.891,3.1-2.127,4.985-3.711
				c-1.589-1.435-3.002-2.646-4.241-3.637c-0.398-0.346-0.447-0.742-0.149-1.188c0.396-0.346,0.818-0.371,1.266-0.074
				c1.438,1.188,2.95,2.425,4.539,3.711c1.536-1.385,2.777-2.622,3.72-3.711c0.496-0.346,0.942-0.371,1.34-0.074
				c0.298,0.396,0.298,0.792,0,1.188c-0.794,0.94-2.06,2.178-3.795,3.711c1.983,1.683,3.373,2.895,4.167,3.637
				c0.396,0.396,0.446,0.866,0.148,1.41c-0.348,0.396-0.794,0.445-1.339,0.148c-0.199-0.148-0.497-0.42-0.894-0.816
				c-1.439-1.385-2.58-2.449-3.423-3.191C172.412,36.667,170.652,38.028,169.312,38.918z"/>
			<path class="st4" d="M184.938,28.082c-0.546-0.049-0.844-0.346-0.893-0.891c0.049-0.544,0.347-0.841,0.893-0.891h14.139
				c0.545,0.05,0.843,0.347,0.893,0.891c-0.05,0.545-0.348,0.842-0.893,0.891h-6.027v11.504h7.068
				c0.546,0.05,0.844,0.347,0.894,0.891c-0.05,0.544-0.348,0.841-0.894,0.891h-16.221c-0.547-0.05-0.845-0.347-0.894-0.891
				c0.099-0.544,0.396-0.841,0.894-0.891h7.218V28.082H184.938z"/>
			<path class="st4" d="M202.276,34.614c-0.199-0.148-0.298-0.371-0.298-0.668c0-0.247,0.049-0.47,0.148-0.668
				c1.537-2.375,2.778-5.021,3.721-7.941c0.198-0.494,0.57-0.692,1.116-0.594c0.495,0.148,0.694,0.495,0.596,1.039
				c-0.348,1.188-0.794,2.326-1.34,3.414v12.84c-0.05,0.494-0.323,0.767-0.818,0.816c-0.496-0.05-0.77-0.322-0.818-0.816v-9.5
				c-0.101,0.148-0.224,0.347-0.372,0.594c-0.348,0.545-0.596,0.94-0.744,1.188C203.169,34.762,202.771,34.862,202.276,34.614z
				 M207.634,32.907c-0.446-0.346-0.496-0.767-0.148-1.262c1.239-1.731,2.307-3.81,3.199-6.234c0.197-0.494,0.569-0.717,1.116-0.668
				c0.495,0.148,0.694,0.495,0.596,1.039c-0.051,0.198-0.175,0.495-0.372,0.891c-0.149,0.396-0.273,0.693-0.372,0.891h7.887
				c0.496,0.05,0.769,0.297,0.819,0.742c-0.051,0.545-0.323,0.842-0.819,0.891h-5.729v2.969h4.763
				c0.446,0.05,0.694,0.322,0.744,0.816c-0.05,0.445-0.298,0.693-0.744,0.742h-4.763v3.043h5.283
				c0.446,0.05,0.694,0.322,0.744,0.816c-0.05,0.495-0.298,0.768-0.744,0.816h-5.283v3.563c-0.05,0.544-0.348,0.841-0.893,0.891
				c-0.496-0.05-0.77-0.347-0.818-0.891V29.196h-1.19c-0.596,1.237-1.241,2.375-1.936,3.414
				C208.526,33.155,208.08,33.253,207.634,32.907z"/>
			<path class="st4" d="M223.558,28.231c-0.447-0.049-0.695-0.297-0.744-0.742c0.049-0.396,0.297-0.618,0.744-0.668h4.39v-1.484
				c0.049-0.494,0.322-0.767,0.818-0.816c0.546,0.05,0.844,0.322,0.894,0.816v1.484h3.795c0.396,0.05,0.619,0.272,0.67,0.668
				c-0.051,0.445-0.273,0.693-0.67,0.742h-3.795v2.152h2.232c1.637-1.188,3.149-2.548,4.539-4.082
				c0.298-0.396,0.719-0.445,1.265-0.148c0.347,0.347,0.372,0.718,0.074,1.113c-1.092,1.089-2.208,2.128-3.349,3.117h4.093
				c0.495,0,0.744,0.248,0.744,0.742c-0.05,0.445-0.298,0.693-0.744,0.742h-6.027c-1.041,0.693-2.108,1.336-3.199,1.93h6.176
				c0.694,0.05,1.066,0.421,1.116,1.113v5.789c-0.1,0.594-0.472,0.939-1.116,1.039h-9.896c-0.646-0.1-1.018-0.445-1.116-1.039
				v-4.527c-0.744,0.297-1.514,0.594-2.307,0.891c-0.496,0.198-0.868,0.05-1.116-0.445c-0.1-0.544,0.074-0.915,0.521-1.113
				c3.025-1.039,5.73-2.251,8.111-3.637h-7.813c-0.446-0.049-0.695-0.297-0.744-0.742c0.049-0.445,0.298-0.692,0.744-0.742h6.102
				v-2.152H223.558z M226.608,35.207c-0.05,0-0.074,0.025-0.074,0.074c-0.051,0.05-0.149,0.074-0.298,0.074v0.074
				c-0.05,0.1-0.074,0.174-0.074,0.223v1.41h8.706v-1.41c-0.051-0.247-0.199-0.396-0.447-0.445H226.608z M234.421,40.403
				c0.248-0.05,0.396-0.223,0.447-0.52v-1.484h-8.706v1.484c0.049,0.297,0.197,0.47,0.446,0.52H234.421z"/>
		</g>
	</g>
	<g>
		<g>
			<path class="st3" d="M298.135,44.136c-0.451,0.271-0.835,0.249-1.149-0.067c-0.316-0.406-0.294-0.766,0.067-1.082
				c1.713-1.262,3.044-2.592,3.99-3.99c0.36-0.36,0.744-0.45,1.149-0.271c0.45,0.181,0.563,0.451,0.339,0.812
				c-0.181,0.271-0.384,0.541-0.609,0.812h7.439c0.45,0.045,0.699,0.271,0.744,0.676c0,0.451-0.158,0.812-0.474,1.082
				c-1.127,0.992-2.322,1.826-3.584,2.502c1.487,0.451,3.336,0.812,5.546,1.082c0.45,0.135,0.652,0.429,0.608,0.879
				c-0.135,0.406-0.497,0.586-1.082,0.541c-2.751-0.36-5.028-0.901-6.831-1.623c-1.668,0.722-4.125,1.353-7.371,1.894
				c-0.541,0.091-0.903-0.068-1.082-0.474c-0.046-0.541,0.135-0.833,0.541-0.879c2.705-0.406,4.778-0.879,6.222-1.42
				c-0.947-0.496-1.826-1.194-2.638-2.097c-0.271,0.271-0.677,0.632-1.218,1.082C298.473,43.821,298.27,44.001,298.135,44.136z
				 M297.526,54.011c-0.406,0.225-0.768,0.157-1.082-0.203c-0.271-0.361-0.227-0.676,0.135-0.947c1.037-0.585,2.276-1.42,3.72-2.502
				c0.406-0.225,0.767-0.203,1.082,0.068c0.315,0.406,0.293,0.744-0.067,1.014C300.547,52.027,299.284,52.884,297.526,54.011z
				 M297.188,49.547c-0.406-0.044-0.632-0.271-0.677-0.676c0.045-0.45,0.271-0.699,0.677-0.744h6.289v-0.947
				c0.045-0.496,0.315-0.766,0.812-0.812c0.496,0.045,0.767,0.316,0.812,0.812v0.947h5.816c0.406,0.045,0.631,0.294,0.677,0.744
				c-0.046,0.406-0.271,0.632-0.677,0.676h-5.816v2.976c0.09,1.578-0.632,2.344-2.164,2.3c-0.091,0-0.315,0-0.676,0
				c-0.451,0.044-0.768,0.067-0.947,0.067c-0.451,0-0.744-0.226-0.879-0.676c0-0.497,0.203-0.767,0.608-0.812h1.218
				c0.901,0.09,1.307-0.316,1.217-1.217v-2.638H297.188z M300.976,41.634c0.991,0.947,2.097,1.714,3.313,2.299
				c1.218-0.541,2.344-1.217,3.382-2.029c0.09-0.044,0.112-0.09,0.067-0.135c-0.045-0.09-0.113-0.135-0.203-0.135H300.976z
				 M310.646,53.875c-0.135-0.091-0.384-0.249-0.744-0.474c-1.487-0.947-2.525-1.578-3.11-1.894
				c-0.271-0.271-0.316-0.585-0.136-0.947c0.315-0.271,0.698-0.315,1.15-0.135c0.676,0.361,1.758,0.992,3.246,1.894
				c0.271,0.181,0.45,0.294,0.541,0.338c0.36,0.316,0.428,0.653,0.202,1.015C311.48,54.078,311.097,54.146,310.646,53.875z"/>
			<path class="st3" d="M313.893,43.46c-0.405-0.044-0.632-0.292-0.676-0.744c0.044-0.406,0.271-0.631,0.676-0.676h1.759v-2.638
				c0.044-0.45,0.314-0.699,0.812-0.744c0.45,0.091,0.698,0.338,0.744,0.744v2.638h1.556c0.45,0.045,0.698,0.271,0.743,0.676
				c-0.045,0.451-0.293,0.699-0.743,0.744h-1.556v1.961c0.18,0,0.338,0.045,0.474,0.135l1.623,1.556
				c0.314,0.316,0.338,0.654,0.067,1.014c-0.316,0.316-0.654,0.338-1.015,0.068l-1.149-1.217v7.575
				c-0.046,0.406-0.294,0.653-0.744,0.744c-0.497-0.045-0.768-0.293-0.812-0.744v-7.98c-0.541,1.443-1.038,2.525-1.488,3.246
				c-0.226,0.361-0.541,0.429-0.946,0.203c-0.136-0.09-0.203-0.271-0.203-0.541c-0.046-0.18,0.044-0.474,0.271-0.879
				c0.856-1.262,1.623-2.976,2.3-5.14H313.893z M321.061,54.348c-0.586-0.045-0.902-0.361-0.946-0.947V40.755
				c0.044-0.585,0.36-0.901,0.946-0.947h6.831c0.585,0.045,0.901,0.361,0.946,0.947v12.647c-0.045,0.585-0.361,0.901-0.946,0.947
				H321.061z M321.603,41.566v2.638h5.749v-2.638c0-0.225-0.136-0.338-0.406-0.338h-4.937
				C321.738,41.228,321.603,41.341,321.603,41.566z M321.603,45.556v2.976h5.749v-2.976H321.603z M326.945,52.928
				c0.271,0,0.406-0.112,0.406-0.338v-2.705h-5.749v2.705c0,0.226,0.136,0.338,0.406,0.338H326.945z"/>
			<path class="st3" d="M332.288,43.73c-0.451-0.044-0.699-0.292-0.743-0.744c0.044-0.45,0.292-0.699,0.743-0.744h3.314
				c-0.181-0.225-0.497-0.653-0.947-1.285c-0.405-0.542-0.676-0.879-0.812-1.015c-0.226-0.36-0.158-0.699,0.203-1.015
				c0.406-0.18,0.788-0.112,1.149,0.203c0.18,0.181,0.541,0.632,1.082,1.353c0.45,0.586,0.744,0.947,0.88,1.082
				c0.18,0.181,0.225,0.406,0.135,0.676h2.503c0.314-0.406,0.946-1.285,1.894-2.638c0.18-0.225,0.292-0.382,0.338-0.473
				c0.314-0.36,0.698-0.45,1.149-0.271c0.45,0.271,0.563,0.608,0.339,1.014c-0.136,0.181-0.43,0.541-0.88,1.083
				c-0.451,0.586-0.767,1.014-0.946,1.285h3.449c0.45,0.045,0.698,0.294,0.743,0.744c-0.045,0.451-0.293,0.699-0.743,0.744h-5.613
				c0,0.722-0.046,1.669-0.136,2.841h6.628c0.495,0.045,0.766,0.293,0.812,0.744c-0.046,0.451-0.316,0.7-0.812,0.744h-6.357
				c0.991,2.661,3.179,4.396,6.561,5.208c0.495,0.225,0.652,0.609,0.474,1.15c-0.227,0.45-0.654,0.585-1.285,0.406
				c-3.473-1.082-5.704-2.863-6.695-5.343c-0.813,2.299-3.021,4.125-6.628,5.478c-0.632,0.225-1.038,0.112-1.218-0.338
				c-0.227-0.451-0.091-0.835,0.406-1.149c3.787-1.262,5.86-3.066,6.222-5.411h-6.087c-0.451-0.044-0.699-0.293-0.744-0.744
				c0.045-0.45,0.293-0.698,0.744-0.744h6.29c0.09-0.991,0.135-1.938,0.135-2.841H332.288z"/>
			<path class="st3" d="M348.655,41.566c-0.406-0.044-0.632-0.271-0.677-0.676c0.045-0.45,0.271-0.699,0.677-0.744h6.763
				c0.406,0.045,0.631,0.294,0.677,0.744c-0.046,0.406-0.271,0.632-0.677,0.676h-1.961v4.125h1.556
				c0.405,0.045,0.631,0.271,0.676,0.676c-0.045,0.451-0.271,0.7-0.676,0.744h-1.556v4.193c0.18-0.044,0.45-0.09,0.812-0.135
				c0.45-0.09,0.766-0.157,0.946-0.203c0.542-0.044,0.834,0.181,0.88,0.676c0.044,0.451-0.181,0.722-0.677,0.812
				c-0.496,0.091-1.42,0.249-2.772,0.473c-1.804,0.36-3.156,0.609-4.058,0.744c-0.451,0-0.744-0.226-0.88-0.676
				c-0.045-0.541,0.18-0.856,0.677-0.947c0.135,0,0.314-0.022,0.541-0.068v-7.236c0.044-0.45,0.271-0.699,0.676-0.744
				c0.45,0.045,0.699,0.294,0.744,0.744v7.034c0.541-0.044,1.104-0.135,1.691-0.271v-9.942H348.655z M354.877,45.354
				c-0.271-0.36-0.248-0.744,0.067-1.15c1.083-1.488,1.938-3.133,2.57-4.937c0.18-0.406,0.518-0.585,1.015-0.541
				c0.495,0.226,0.653,0.564,0.474,1.014c-0.271,0.722-0.564,1.353-0.88,1.894h5.546c0.406,0.045,0.631,0.293,0.677,0.744
				c-0.046,0.451-0.271,0.7-0.677,0.744h-0.879c-0.316,3.156-1.105,5.681-2.367,7.575c0.901,1.082,2.029,1.984,3.382,2.705
				c0.405,0.271,0.518,0.676,0.338,1.217c-0.316,0.45-0.722,0.541-1.218,0.271c-1.397-0.857-2.569-1.826-3.517-2.908
				c-0.946,1.083-2.188,2.074-3.72,2.976c-0.451,0.225-0.856,0.157-1.217-0.203c-0.271-0.451-0.181-0.857,0.271-1.217
				c1.577-0.812,2.817-1.758,3.72-2.84c-1.038-1.713-1.714-3.674-2.029-5.884c-0.045,0-0.067-0.044-0.067-0.136
				c-0.136,0.227-0.294,0.474-0.474,0.744C355.575,45.692,355.237,45.67,354.877,45.354z M357.65,43.122
				c-0.046,0-0.113-0.022-0.203-0.068c0.044,0.045,0.067,0.113,0.067,0.203c0.315,2.57,0.947,4.622,1.894,6.154
				c1.082-1.713,1.713-3.81,1.894-6.29H357.65z"/>
			<path class="st3" d="M365.901,45.286c-0.362-0.044-0.564-0.271-0.609-0.676c0.045-0.36,0.247-0.563,0.609-0.609h6.627v-0.406
				c0.09-0.496,0.36-0.766,0.813-0.812c0.45,0.045,0.698,0.316,0.743,0.812v0.406h6.695c0.36,0.045,0.563,0.249,0.609,0.609
				c-0.046,0.406-0.249,0.632-0.609,0.676h-6.695v1.353h4.938c0.676,0,1.015,0.338,1.015,1.015v1.488
				c0.044,1.127-0.52,1.714-1.691,1.758c-0.361,0-0.743,0-1.149,0s-0.654-0.18-0.744-0.541c-0.045-0.36,0.09-0.563,0.406-0.608
				c0.314,0,0.608,0,0.879,0c0.45,0.045,0.698-0.158,0.744-0.609v-0.879c0.044-0.179-0.067-0.292-0.338-0.338h-4.059v1.015
				c1.668,1.939,3.968,3.27,6.898,3.99c0.496,0.225,0.653,0.585,0.474,1.083c-0.181,0.45-0.564,0.585-1.149,0.406
				c-2.705-0.903-4.78-2.165-6.223-3.788v3.99c-0.091,0.45-0.338,0.699-0.743,0.744c-0.452-0.045-0.723-0.294-0.813-0.744v-3.99
				c-1.308,1.533-3.404,2.863-6.289,3.99c-0.497,0.18-0.879,0.044-1.149-0.406c-0.136-0.497,0.021-0.857,0.473-1.082
				c2.976-0.856,5.298-2.276,6.966-4.261v-0.947h-3.854c-0.271,0-0.406,0.135-0.406,0.406v1.894c-0.045,0.451-0.315,0.7-0.812,0.744
				c-0.451-0.09-0.699-0.338-0.743-0.744v-2.57c0-0.676,0.338-1.015,1.014-1.015h4.802v-1.353H365.901z M365.36,43.189
				c-0.316-0.271-0.316-0.585,0-0.947c1.172-1.037,2.073-2.141,2.705-3.314c0.225-0.406,0.563-0.541,1.015-0.406
				c0.449,0.181,0.585,0.474,0.405,0.879c-0.045,0.091-0.113,0.203-0.203,0.338c-0.091,0.181-0.158,0.316-0.202,0.406h3.922
				c0.36,0.045,0.563,0.249,0.609,0.609c-0.046,0.361-0.249,0.564-0.609,0.609h-4.869c-0.497,0.676-1.06,1.285-1.69,1.826
				C366.036,43.46,365.675,43.46,365.36,43.189z M370.905,43.528c-0.271,0.271-0.586,0.248-0.946-0.068
				c-0.046-0.09-0.181-0.247-0.406-0.473c-0.226-0.271-0.384-0.428-0.473-0.474c-0.271-0.271-0.271-0.541,0-0.812
				c0.314-0.225,0.631-0.225,0.946,0c0.496,0.497,0.788,0.812,0.879,0.947C371.221,42.919,371.221,43.213,370.905,43.528z
				 M373.543,42.716c-0.361-0.225-0.405-0.541-0.135-0.947c0.766-0.766,1.396-1.713,1.894-2.841c0.135-0.36,0.474-0.496,1.015-0.406
				c0.36,0.181,0.495,0.474,0.405,0.879l-0.338,0.744h4.464c0.405,0.045,0.631,0.249,0.676,0.609
				c-0.045,0.361-0.271,0.564-0.676,0.609h-5.275c-0.046,0.091-0.113,0.203-0.203,0.338c-0.181,0.226-0.429,0.541-0.744,0.947
				C374.264,42.964,373.903,42.987,373.543,42.716z M378.615,43.528c-0.361,0.271-0.676,0.271-0.946,0
				c-0.091-0.09-0.271-0.271-0.541-0.541c-0.271-0.315-0.451-0.496-0.541-0.541c-0.227-0.271-0.203-0.541,0.067-0.812
				c0.314-0.271,0.631-0.271,0.947,0c0.36,0.316,0.698,0.654,1.014,1.014C378.886,42.964,378.886,43.257,378.615,43.528z"/>
		</g>
	</g>
	<g>
		<g>
			<path class="st3" d="M35.598,128.724c-0.656,0.274-1.148,0.137-1.477-0.41c-0.274-0.546-0.137-0.984,0.41-1.312
				c3.391-1.694,6.042-3.691,7.957-5.988c0.546-0.601,1.038-0.874,1.477-0.82c0.492,0,0.984,0.274,1.477,0.82
				c1.805,2.461,4.43,4.376,7.875,5.742c0.546,0.328,0.71,0.793,0.492,1.395c-0.383,0.603-0.902,0.738-1.559,0.41
				c-3.392-1.53-6.07-3.527-8.039-5.988c-0.164-0.164-0.328-0.164-0.492,0C41.695,124.979,38.988,127.03,35.598,128.724z
				 M38.551,129.216c-0.547-0.054-0.849-0.355-0.902-0.902c0.054-0.546,0.355-0.847,0.902-0.902h10.828
				c0.546,0.055,0.848,0.356,0.902,0.902c-0.055,0.547-0.356,0.849-0.902,0.902h-4.43v2.871h5.66
				c0.546,0.055,0.848,0.356,0.902,0.902c-0.055,0.547-0.356,0.849-0.902,0.902h-5.66v3.199h7.465
				c0.546,0.055,0.848,0.355,0.902,0.902c-0.055,0.546-0.356,0.847-0.902,0.902h-16.98c-0.547-0.055-0.849-0.356-0.902-0.902
				c0.054-0.547,0.355-0.847,0.902-0.902h7.465v-3.199H37.32c-0.547-0.054-0.849-0.355-0.902-0.902
				c0.054-0.546,0.355-0.847,0.902-0.902h5.578v-2.871H38.551z"/>
			<path class="st3" d="M55.859,122.818c-0.492-0.054-0.767-0.328-0.82-0.82c0.054-0.492,0.328-0.765,0.82-0.82h18.047
				c0.546,0.055,0.848,0.328,0.902,0.82c-0.055,0.492-0.356,0.767-0.902,0.82h-8.285l-0.902,2.543h7.629
				c0.766,0.055,1.176,0.465,1.23,1.23v11.238c-0.055,0.765-0.465,1.175-1.23,1.23h-14.93c-0.767-0.055-1.177-0.492-1.23-1.313
				v-11.156c0.054-0.765,0.464-1.175,1.23-1.23h5.25l0.738-2.543H55.859z M58.074,127.575v9.27c0,0.383,0.191,0.574,0.574,0.574
				h2.379v-10.418h-2.379C58.266,127.001,58.074,127.194,58.074,127.575z M62.75,127.001v2.543h4.266v-2.543H62.75z M62.75,130.939
				v2.543h4.266v-2.543H62.75z M62.75,134.876v2.543h4.266v-2.543H62.75z M71.773,136.845v-9.27c0-0.382-0.192-0.574-0.574-0.574
				h-2.461v10.418h2.461C71.581,137.419,71.773,137.228,71.773,136.845z"/>
			<path class="st3" d="M76.695,123.474c-0.492-0.054-0.767-0.328-0.82-0.82c0.054-0.437,0.328-0.683,0.82-0.738h4.758v-1.148
				c0.054-0.546,0.355-0.847,0.902-0.902c0.546,0.055,0.848,0.356,0.902,0.902v1.148h5.332v-1.148c0-0.601,0.328-0.902,0.984-0.902
				c0.546,0.055,0.848,0.356,0.902,0.902v1.148h4.758c0.492,0.055,0.766,0.301,0.82,0.738c-0.055,0.492-0.328,0.767-0.82,0.82
				h-4.758v0.82c-0.055,0.492-0.356,0.767-0.902,0.82c-0.603-0.054-0.931-0.328-0.984-0.82v-0.82h-5.332v0.738
				c-0.055,0.547-0.356,0.849-0.902,0.902c-0.547-0.054-0.849-0.355-0.902-0.902v-0.738H76.695z M78.5,131.595
				c-0.164-0.164-0.521-0.41-1.066-0.738c-0.492-0.382-0.849-0.628-1.066-0.738c-0.328-0.328-0.383-0.71-0.164-1.148
				c0.438-0.382,0.874-0.437,1.313-0.164c0.273,0.11,0.684,0.383,1.23,0.82c0.438,0.274,0.738,0.465,0.902,0.574
				c0.438,0.383,0.492,0.82,0.164,1.313C79.43,131.896,78.992,131.923,78.5,131.595z M77.023,139.716
				c-0.492-0.328-0.629-0.767-0.41-1.313c0.874-2.078,1.477-3.636,1.805-4.676c0.382-0.656,0.792-0.874,1.23-0.656
				c0.546,0.164,0.738,0.547,0.574,1.148c-0.875,2.243-1.477,3.855-1.805,4.84C78.09,139.606,77.625,139.825,77.023,139.716z
				 M79.895,127.822c-1.095-0.82-1.833-1.339-2.215-1.559c-0.328-0.328-0.383-0.71-0.164-1.148c0.328-0.382,0.738-0.437,1.23-0.164
				c0.054,0.055,0.136,0.11,0.246,0.164c1.038,0.656,1.723,1.095,2.051,1.313c0.438,0.383,0.492,0.793,0.164,1.23
				C80.879,128.041,80.44,128.096,79.895,127.822z M81.453,129.954c-0.328-0.437-0.301-0.847,0.082-1.23
				c1.422-1.038,2.625-2.379,3.609-4.02c0.328-0.492,0.738-0.683,1.23-0.574c0.492,0.274,0.628,0.603,0.41,0.984
				c0,0.055-0.055,0.137-0.164,0.246c-0.055,0.164-0.11,0.274-0.164,0.328h6.398c0.546,0.055,0.848,0.328,0.902,0.82
				c0,0.492-0.192,0.958-0.574,1.395c-0.875,0.984-1.887,1.805-3.035,2.461c1.313,0.492,2.953,0.849,4.922,1.066
				c0.546,0.11,0.792,0.438,0.738,0.984c-0.164,0.492-0.521,0.711-1.066,0.656c-2.571-0.492-4.676-1.066-6.316-1.723
				c-1.695,0.711-3.828,1.368-6.398,1.969c-0.547,0.11-0.902-0.054-1.066-0.492c-0.11-0.546,0.082-0.902,0.574-1.066
				c2.022-0.382,3.719-0.847,5.086-1.395c-0.82-0.601-1.587-1.257-2.297-1.969c-0.492,0.603-1.039,1.148-1.641,1.641
				C82.191,130.311,81.781,130.283,81.453,129.954z M83.832,139.224c-0.656,0-1.013-0.356-1.066-1.066v-3.609
				c0.054-0.71,0.41-1.066,1.066-1.066h8.777c0.71,0,1.066,0.356,1.066,1.066v3.609c0,0.71-0.356,1.066-1.066,1.066H83.832z
				 M91.871,137.255v-1.887c0-0.328-0.137-0.464-0.41-0.41h-6.398c-0.274,0-0.41,0.137-0.41,0.41v1.887
				c0,0.328,0.136,0.492,0.41,0.492h6.398C91.734,137.747,91.871,137.583,91.871,137.255z M85.391,127.165
				c0.984,1.095,1.969,1.915,2.953,2.461c1.148-0.601,2.133-1.313,2.953-2.133c0.109-0.054,0.164-0.136,0.164-0.246
				c-0.055-0.054-0.137-0.082-0.246-0.082H85.391z"/>
			<path class="st3" d="M97.777,134.056c-0.492-0.054-0.767-0.355-0.82-0.902c0.054-0.546,0.328-0.847,0.82-0.902h9.434
				c0.054-0.109,0.082-0.218,0.082-0.328c0.492-1.805,0.738-3.882,0.738-6.234c0.054-0.546,0.382-0.847,0.984-0.902
				c0.656,0.055,1.012,0.356,1.066,0.902c-0.11,2.571-0.328,4.676-0.656,6.316c-0.055,0.055-0.082,0.137-0.082,0.246h6.891
				c0.546,0.055,0.848,0.356,0.902,0.902c-0.055,0.547-0.356,0.849-0.902,0.902h-7.465l-0.082,0.164c0,0.055-0.082,0.192-0.246,0.41
				c0.328,0.164,0.874,0.41,1.641,0.738c2.734,1.148,4.703,1.969,5.906,2.461c0.492,0.328,0.628,0.765,0.41,1.313
				c-0.328,0.492-0.767,0.628-1.313,0.41c-3.063-1.423-5.606-2.57-7.629-3.445c-1.313,1.641-4.212,2.898-8.695,3.773
				c-0.767,0.218-1.285,0.027-1.559-0.574c-0.164-0.711,0.027-1.148,0.574-1.313c4.976-0.82,7.875-2.133,8.695-3.938H97.777z
				 M115.25,127.165c-0.603,0-0.931-0.3-0.984-0.902v-1.641c0-0.273-0.164-0.41-0.492-0.41h-13.699c-0.328,0-0.492,0.137-0.492,0.41
				v1.641c-0.055,0.547-0.383,0.849-0.984,0.902c-0.603,0-0.902-0.328-0.902-0.984v-2.543c0.054-0.656,0.438-1.011,1.148-1.066
				h7.547c-0.11-0.218-0.274-0.519-0.492-0.902c-0.164-0.382-0.274-0.628-0.328-0.738c-0.219-0.656,0.054-1.038,0.82-1.148
				c0.438-0.109,0.792,0.055,1.066,0.492c0.109,0.164,0.273,0.492,0.492,0.984c0.218,0.438,0.355,0.767,0.41,0.984
				c0.054,0.055,0.082,0.164,0.082,0.328h6.563c0.71,0.055,1.094,0.41,1.148,1.066v2.461
				C116.206,126.755,115.906,127.112,115.25,127.165z M103.355,131.677c-1.203-0.656-2.407-1.284-3.609-1.887
				c-0.383-0.273-0.465-0.628-0.246-1.066c0.328-0.437,0.738-0.546,1.23-0.328c0.218,0.11,0.574,0.301,1.066,0.574
				c1.258,0.603,2.104,1.013,2.543,1.23c0.492,0.274,0.602,0.685,0.328,1.23C104.394,131.814,103.957,131.896,103.355,131.677z
				 M105.324,128.642c-0.603-0.273-1.669-0.847-3.199-1.723c-0.164-0.054-0.274-0.109-0.328-0.164
				c-0.438-0.273-0.547-0.628-0.328-1.066c0.328-0.437,0.71-0.546,1.148-0.328c0.438,0.164,1.284,0.574,2.543,1.23
				c0.492,0.274,0.848,0.465,1.066,0.574c0.438,0.328,0.546,0.711,0.328,1.148C106.227,128.752,105.816,128.861,105.324,128.642z"/>
			<path class="st3" d="M118.941,133.072c-0.547,0.219-0.902,0.055-1.066-0.492c-0.219-0.546-0.082-0.956,0.41-1.23
				c1.313-0.656,2.269-1.12,2.871-1.395v-0.246v-6.562c0.054-0.656,0.438-1.011,1.148-1.066h6.563
				c-0.055-0.109-0.11-0.273-0.164-0.492c-0.11-0.218-0.192-0.382-0.246-0.492c-0.164-0.601,0.082-0.984,0.738-1.148
				s1.094,0,1.313,0.492c0.054,0.274,0.191,0.711,0.41,1.313c0.054,0.164,0.082,0.274,0.082,0.328h6.152
				c0.438,0.055,0.684,0.328,0.738,0.82c-0.055,0.492-0.301,0.767-0.738,0.82h-13.781c-0.274,0-0.41,0.137-0.41,0.41v5.742
				c0.109,3.938-0.793,7.165-2.707,9.68c-0.383,0.437-0.849,0.492-1.395,0.164c-0.383-0.328-0.438-0.767-0.164-1.313
				c1.53-1.858,2.324-4.046,2.379-6.563C120.199,132.388,119.487,132.799,118.941,133.072z M120.172,129.134
				c-0.438,0.055-0.738-0.109-0.902-0.492c-0.055-0.164-0.137-0.437-0.246-0.82c-0.383-1.313-0.685-2.242-0.902-2.789
				c-0.055-0.437,0.109-0.71,0.492-0.82c0.438-0.109,0.766,0.055,0.984,0.492c0.109,0.328,0.273,0.875,0.492,1.641
				c0.273,0.82,0.464,1.423,0.574,1.805C120.773,128.642,120.609,128.97,120.172,129.134z M123.535,139.88
				c-0.603,0.164-1.039-0.028-1.313-0.574c-0.11-0.603,0.082-0.958,0.574-1.066c2.133-0.438,4.02-1.011,5.66-1.723
				c-1.095-0.984-2.133-2.104-3.117-3.363c-0.11-0.218-0.164-0.41-0.164-0.574h-0.328c-0.438-0.054-0.685-0.3-0.738-0.738
				c0.054-0.492,0.3-0.765,0.738-0.82h10.172c0.492,0.055,0.766,0.328,0.82,0.82c0,0.547-0.164,1.013-0.492,1.395
				c-1.148,1.477-2.297,2.571-3.445,3.281c1.477,0.656,3.253,1.148,5.332,1.477c0.438,0.164,0.602,0.574,0.492,1.23
				c-0.274,0.492-0.711,0.656-1.313,0.492c-2.625-0.547-4.704-1.259-6.234-2.133C128.32,138.568,126.105,139.333,123.535,139.88z
				 M125.34,130.447c-0.492,0.219-0.902,0.137-1.23-0.246c-0.328-0.492-0.274-0.847,0.164-1.066
				c1.313-0.546,1.914-1.395,1.805-2.543v-0.492c0-0.601,0.3-0.902,0.902-0.902h6.563c0.602,0,0.902,0.301,0.902,0.902v1.23
				c-0.055,0.82,0.328,1.204,1.148,1.148h1.313c0.438,0.055,0.628,0.301,0.574,0.738c0,0.492-0.246,0.738-0.738,0.738h-1.887
				c-1.531,0.055-2.27-0.656-2.215-2.133v-0.738c0-0.218-0.11-0.328-0.328-0.328h-4.184c-0.219,0-0.328,0.11-0.328,0.328v0.082
				C127.91,128.588,127.09,129.681,125.34,130.447z M127.062,132.579c0.984,1.204,2.022,2.188,3.117,2.953
				c1.038-0.546,2.104-1.421,3.199-2.625c0.054-0.218,0-0.328-0.164-0.328H127.062z"/>
			<path class="st3" d="M139.531,130.283c-0.328-0.109-0.521-0.355-0.574-0.738c0.273-1.421,0.52-2.953,0.738-4.594
				c0-0.437,0.246-0.656,0.738-0.656c0.438,0.164,0.628,0.438,0.574,0.82c-0.219,1.696-0.438,3.254-0.656,4.676
				C140.241,130.174,139.969,130.338,139.531,130.283z M142.566,140.126c-0.547-0.055-0.849-0.356-0.902-0.902v-18.457
				c0.054-0.492,0.355-0.765,0.902-0.82c0.546,0.055,0.848,0.328,0.902,0.82v3.035c0.109,0,0.246,0.055,0.41,0.164
				c0.656,0.492,1.12,0.849,1.395,1.066c0.382,0.383,0.41,0.82,0.082,1.313c-0.328,0.438-0.711,0.492-1.148,0.164
				c-0.055-0.054-0.11-0.109-0.164-0.164c-0.274-0.218-0.465-0.41-0.574-0.574v13.453
				C143.414,139.77,143.112,140.071,142.566,140.126z M146.094,123.064c-0.438-0.054-0.685-0.3-0.738-0.738
				c0.054-0.328,0.3-0.519,0.738-0.574h4.922v-0.984c0.054-0.546,0.355-0.847,0.902-0.902c0.546,0.055,0.848,0.356,0.902,0.902
				v0.984h5.25c0.382,0.055,0.602,0.246,0.656,0.574c-0.055,0.438-0.274,0.685-0.656,0.738h-5.25v1.313h4.758
				c0.382,0,0.574,0.219,0.574,0.656c0,0.328-0.192,0.521-0.574,0.574h-4.758v1.395h5.578c0.382,0.055,0.602,0.274,0.656,0.656
				c0,0.438-0.219,0.656-0.656,0.656h-12.715c-0.438,0-0.656-0.218-0.656-0.656c0.054-0.382,0.273-0.601,0.656-0.656h5.332v-1.395
				h-4.43c-0.328-0.054-0.521-0.246-0.574-0.574c0.054-0.437,0.246-0.656,0.574-0.656h4.43v-1.313H146.094z M147.242,140.126
				c-0.547-0.055-0.849-0.383-0.902-0.984v-8.449c0-0.71,0.355-1.066,1.066-1.066h9.105c0.71,0,1.066,0.356,1.066,1.066v6.563
				c0.109,1.585-0.685,2.379-2.379,2.379c-0.11,0-0.438,0-0.984,0c-0.82,0.054-1.341,0.082-1.559,0.082
				c-0.603,0-0.902-0.274-0.902-0.82c-0.055-0.547,0.164-0.793,0.656-0.738c0.656,0,1.366,0,2.133,0
				c0.874,0.054,1.284-0.328,1.23-1.148v-0.738h-7.629v2.871C148.09,139.743,147.788,140.071,147.242,140.126z M148.145,131.349
				v1.066h7.629v-1.066c0-0.273-0.137-0.41-0.41-0.41h-6.891C148.254,130.939,148.145,131.076,148.145,131.349z M148.145,133.646
				v1.395h7.629v-1.395H148.145z"/>
			<path class="st3" d="M161.762,140.126c-0.547-0.055-0.849-0.356-0.902-0.902v-16.98c0-0.82,0.382-1.23,1.148-1.23h4.266
				c0.602,0.055,0.93,0.356,0.984,0.902c0,0.656-0.082,1.259-0.246,1.805l-1.313,4.102c-0.11,0.219-0.055,0.492,0.164,0.82
				c1.094,1.477,1.641,2.953,1.641,4.43c0,1.969-0.738,3.035-2.215,3.199c-0.219,0.055-0.629,0.082-1.23,0.082
				c-0.711,0-1.095-0.328-1.148-0.984c-0.055-0.601,0.164-0.874,0.656-0.82c0.328,0,0.628,0,0.902,0
				c0.82-0.054,1.23-0.628,1.23-1.723c0-1.148-0.492-2.379-1.477-3.691c-0.383-0.437-0.465-0.956-0.246-1.559l1.313-4.43
				c0.109-0.273,0.027-0.41-0.246-0.41h-1.969c-0.274,0-0.41,0.11-0.41,0.328v16.16C162.609,139.77,162.308,140.071,161.762,140.126
				z M168.242,125.197c-0.547-0.054-0.849-0.355-0.902-0.902c0.054-0.546,0.355-0.847,0.902-0.902H173l-0.082-0.164
				c-0.055-0.164-0.164-0.519-0.328-1.066c-0.219-0.492-0.356-0.82-0.41-0.984c-0.11-0.546,0.109-0.929,0.656-1.148
				c0.71-0.054,1.176,0.246,1.395,0.902c0.054,0.11,0.164,0.41,0.328,0.902s0.273,0.82,0.328,0.984c0.109,0.219,0.109,0.41,0,0.574
				h4.266c0.546,0.055,0.848,0.356,0.902,0.902c-0.055,0.547-0.356,0.849-0.902,0.902h-7.301l-0.082,3.035h5.742
				c0.71,0.055,1.094,0.438,1.148,1.148c-0.055,1.587-0.137,3.665-0.246,6.234c-0.055,2.57-1.148,3.827-3.281,3.773
				c-0.711,0-1.367,0-1.969,0c-0.711,0-1.121-0.356-1.23-1.066c-0.055-0.603,0.246-0.875,0.902-0.82c0.656,0,1.23,0,1.723,0
				c1.258,0.109,1.914-0.628,1.969-2.215c0.109-1.75,0.164-3.363,0.164-4.84c0-0.328-0.164-0.492-0.492-0.492h-4.512
				c-0.11,4.048-1.367,7.247-3.773,9.598c-0.492,0.492-1.013,0.546-1.559,0.164c-0.383-0.383-0.41-0.875-0.082-1.477
				c2.461-2.133,3.637-5.168,3.527-9.105l0.164-3.937H168.242z"/>
			<path class="st3" d="M181.859,125.607c-0.492-0.054-0.767-0.355-0.82-0.902c0.054-0.492,0.328-0.765,0.82-0.82h1.723v-3.117
				c0.054-0.546,0.355-0.847,0.902-0.902c0.546,0.055,0.848,0.356,0.902,0.902v3.117h1.313c0.546,0.055,0.848,0.328,0.902,0.82
				c-0.055,0.547-0.356,0.849-0.902,0.902h-1.313v4.02c0.164-0.054,0.41-0.109,0.738-0.164c0.273-0.109,0.464-0.164,0.574-0.164
				c0.492-0.109,0.82,0.11,0.984,0.656c0.054,0.603-0.164,0.984-0.656,1.148s-1.039,0.301-1.641,0.41v5.578
				c0.109,1.75-0.603,2.597-2.133,2.543c-0.219,0.054-0.629,0.082-1.23,0.082c-0.603,0-0.957-0.274-1.066-0.82
				c-0.055-0.603,0.164-0.958,0.656-1.066c0.109,0,0.273,0.027,0.492,0.082c0.273,0,0.438,0,0.492,0c0.71,0,1.038-0.383,0.984-1.148
				v-4.758c-0.603,0.164-1.148,0.301-1.641,0.41c-0.547,0.11-0.902-0.109-1.066-0.656c-0.055-0.71,0.191-1.12,0.738-1.23
				c0.602-0.164,1.258-0.3,1.969-0.41v-4.512H181.859z M189.16,132.908c-0.492-0.054-0.767-0.355-0.82-0.902
				c0.054-0.492,0.328-0.765,0.82-0.82h10.09c0.492,0.055,0.766,0.328,0.82,0.82c-0.055,0.547-0.328,0.849-0.82,0.902h-4.184v4.512
				h5.086c0.546,0.054,0.848,0.328,0.902,0.82c-0.055,0.546-0.356,0.847-0.902,0.902h-12.387c-0.492-0.055-0.767-0.356-0.82-0.902
				c0.054-0.492,0.328-0.767,0.82-0.82h5.414v-4.512H189.16z M189.57,130.283c-0.492,0.328-0.957,0.274-1.395-0.164
				c-0.219-0.492-0.137-0.902,0.246-1.23c0.874-0.601,1.996-1.448,3.363-2.543c0.492-0.328,0.93-0.328,1.313,0
				c0.328,0.438,0.3,0.849-0.082,1.23C192.249,128.232,191.101,129.134,189.57,130.283z M188.914,126.919
				c-0.492-0.054-0.767-0.328-0.82-0.82v-2.215c0.054-0.765,0.41-1.148,1.066-1.148h4.43c-0.328-0.601-0.629-1.202-0.902-1.805
				c-0.164-0.492,0-0.847,0.492-1.066c0.656-0.164,1.066,0,1.23,0.492c0.492,0.82,0.82,1.45,0.984,1.887
				c0.054,0.164,0.082,0.328,0.082,0.492h3.773c0.71,0,1.066,0.383,1.066,1.148v2.051c0,0.603-0.301,0.902-0.902,0.902
				c-0.547,0-0.849-0.246-0.902-0.738v-1.23c0-0.273-0.137-0.41-0.41-0.41h-7.875c-0.274,0-0.41,0.137-0.41,0.41v1.313
				C189.762,126.673,189.46,126.919,188.914,126.919z M198.922,130.365c-0.383-0.328-1.121-0.929-2.215-1.805
				c-0.603-0.492-1.039-0.847-1.313-1.066c-0.383-0.382-0.41-0.738-0.082-1.066c0.328-0.382,0.766-0.437,1.313-0.164
				c0.438,0.383,1.284,1.013,2.543,1.887c0.492,0.383,0.848,0.656,1.066,0.82c0.382,0.383,0.41,0.82,0.082,1.313
				C199.878,130.666,199.414,130.693,198.922,130.365z"/>
			<path class="st3" d="M202.859,130.611c-0.603-0.054-0.931-0.41-0.984-1.066c0.054-0.656,0.382-1.011,0.984-1.066h18.211
				c0.656,0.055,1.012,0.41,1.066,1.066c-0.055,0.656-0.41,1.013-1.066,1.066H202.859z"/>
			<path class="st3" d="M224.023,138.322c-0.603,0.054-0.984-0.219-1.148-0.82c0.054-0.546,0.328-0.874,0.82-0.984
				c0.546-0.054,1.422-0.191,2.625-0.41c1.313-0.218,2.215-0.355,2.707-0.41c0.71-0.109,1.12,0.11,1.23,0.656
				c0,0.603-0.301,0.958-0.902,1.066C228.316,137.583,226.538,137.883,224.023,138.322z M224.434,128.232
				c-0.767,0-1.23-0.246-1.395-0.738c-0.164-0.382,0.027-0.956,0.574-1.723c0.82-1.038,1.805-2.734,2.953-5.086
				c0.273-0.601,0.71-0.792,1.313-0.574c0.492,0.219,0.628,0.603,0.41,1.148c-1.203,2.188-2.188,3.855-2.953,5.004
				c-0.11,0.164-0.082,0.274,0.082,0.328c0.218,0,0.574-0.027,1.066-0.082c0.546,0,0.902,0,1.066,0
				c0.328-0.492,0.602-0.956,0.82-1.395c0.328-0.546,0.766-0.71,1.313-0.492c0.492,0.274,0.602,0.685,0.328,1.23
				c-1.095,1.86-2.379,3.802-3.855,5.824c-0.11,0.164-0.055,0.274,0.164,0.328c0.218,0,0.602-0.027,1.148-0.082
				c0.766-0.054,1.313-0.109,1.641-0.164c0.656-0.054,0.984,0.164,0.984,0.656c0,0.438-0.274,0.738-0.82,0.902
				c-0.328,0.055-0.82,0.11-1.477,0.164c-1.203,0.11-2.023,0.192-2.461,0.246c-1.095,0.11-1.695-0.109-1.805-0.656
				c-0.164-0.328,0.082-0.874,0.738-1.641c0.054-0.054,0.109-0.109,0.164-0.164c0.766-0.984,1.477-2.022,2.133-3.117
				C226.074,128.205,225.363,128.232,224.434,128.232z M231.16,126.673c-0.492,0.055-0.82-0.164-0.984-0.656
				c0.054-0.546,0.3-0.874,0.738-0.984l2.543-0.328c-0.055-0.437-0.082-1.066-0.082-1.887c-0.055-0.874-0.082-1.53-0.082-1.969
				c0.054-0.546,0.382-0.847,0.984-0.902c0.492,0.055,0.82,0.356,0.984,0.902c0,1.313,0.027,2.543,0.082,3.691l6.152-0.738
				c0.546-0.054,0.848,0.192,0.902,0.738c0.054,0.492-0.192,0.793-0.738,0.902l-6.234,0.738c0,0.219,0.027,0.547,0.082,0.984
				c0,0.383,0.027,0.685,0.082,0.902c0.054,0.274,0.082,0.547,0.082,0.82l6.398-0.902c0.546-0.054,0.874,0.192,0.984,0.738
				c-0.055,0.492-0.328,0.793-0.82,0.902l-6.316,0.902c0.218,1.204,0.52,2.297,0.902,3.281c1.148-0.929,2.269-1.914,3.363-2.953
				c0.382-0.328,0.792-0.355,1.23-0.082c0.438,0.383,0.438,0.767,0,1.148c-1.313,1.368-2.625,2.543-3.938,3.527
				c0.602,1.532,1.366,2.297,2.297,2.297c0.546,0,0.874-0.356,0.984-1.066c0.054-0.164,0.164-0.519,0.328-1.066
				c0.054-0.382,0.109-0.656,0.164-0.82c0.109-0.546,0.438-0.765,0.984-0.656c0.492,0.11,0.71,0.492,0.656,1.148
				c-0.055,0.328-0.192,0.902-0.41,1.723c-0.055,0.328-0.11,0.546-0.164,0.656c-0.383,1.366-1.203,2.051-2.461,2.051
				c-1.641,0.054-2.981-0.984-4.02-3.117c-1.367,0.82-2.926,1.612-4.676,2.379c-0.656,0.218-1.148,0.082-1.477-0.41
				c-0.164-0.547,0.027-0.984,0.574-1.313c1.914-0.765,3.555-1.559,4.922-2.379c-0.383-1.202-0.738-2.57-1.066-4.102l-3.117,0.492
				c-0.547-0.054-0.849-0.3-0.902-0.738c-0.055-0.492,0.164-0.82,0.656-0.984l3.117-0.41c0-0.054,0-0.164,0-0.328
				c-0.055-0.218-0.082-0.382-0.082-0.492c-0.11-0.601-0.164-1.23-0.164-1.887L231.16,126.673z M238.953,123.392
				c-0.164-0.164-0.492-0.437-0.984-0.82c-0.492-0.382-0.82-0.628-0.984-0.738c-0.383-0.382-0.41-0.738-0.082-1.066
				c0.328-0.382,0.738-0.41,1.23-0.082c0.273,0.164,0.738,0.492,1.395,0.984c0.273,0.164,0.464,0.301,0.574,0.41
				c0.382,0.328,0.41,0.711,0.082,1.148C239.801,123.666,239.391,123.72,238.953,123.392z"/>
			<path class="st3" d="M244.859,126.673c-0.547-0.054-0.849-0.355-0.902-0.902c0.054-0.492,0.355-0.765,0.902-0.82h1.313v-4.184
				c0.054-0.546,0.328-0.847,0.82-0.902c0.546,0.055,0.848,0.356,0.902,0.902v4.184h1.148c0.546,0.055,0.848,0.328,0.902,0.82
				c-0.055,0.547-0.356,0.849-0.902,0.902h-1.148v7.055c0.328-0.054,0.656-0.164,0.984-0.328c0.546-0.054,0.902,0.137,1.066,0.574
				c0.109,0.547-0.11,0.931-0.656,1.148c-1.915,0.656-3.336,1.122-4.266,1.395c-0.656,0.11-1.066-0.109-1.23-0.656
				c-0.11-0.546,0.109-0.902,0.656-1.066c0.492-0.164,1.066-0.328,1.723-0.492v-7.629H244.859z M248.879,139.798
				c-0.492-0.274-0.603-0.685-0.328-1.23c1.422-1.805,2.078-4.867,1.969-9.188v-4.43c0.054-0.71,0.41-1.066,1.066-1.066h5.578
				c-0.055-0.984-0.082-2.022-0.082-3.117c0.054-0.546,0.355-0.847,0.902-0.902c0.546,0.055,0.848,0.356,0.902,0.902
				c0,1.095,0,2.133,0,3.117h4.266c0.546,0,0.82,0.274,0.82,0.82c0,0.492-0.274,0.767-0.82,0.82h-4.184
				c0.164,3.172,0.382,5.469,0.656,6.891c0.82-1.366,1.504-2.871,2.051-4.512c0.218-0.492,0.574-0.683,1.066-0.574
				c0.438,0.328,0.602,0.711,0.492,1.148c-0.875,2.407-1.915,4.458-3.117,6.152l0.082,0.246c0.382,1.805,0.874,2.734,1.477,2.789
				c0.273,0,0.438-0.246,0.492-0.738c0.109-0.382,0.218-1.12,0.328-2.215c0.109-0.492,0.41-0.71,0.902-0.656
				c0.438,0.11,0.628,0.438,0.574,0.984c-0.11,1.148-0.246,2.079-0.41,2.789c-0.274,1.202-0.875,1.805-1.805,1.805
				c-1.313,0.054-2.325-0.984-3.035-3.117c-1.039,1.202-2.023,2.187-2.953,2.953c-0.328,0.382-0.767,0.382-1.313,0
				c-0.328-0.383-0.301-0.793,0.082-1.23c1.422-1.202,2.652-2.461,3.691-3.773c-0.492-2.351-0.82-5.332-0.984-8.941h-4.512
				c-0.274,0.055-0.438,0.219-0.492,0.492v2.215h2.871c0.602,0.055,0.93,0.383,0.984,0.984c0,1.751-0.055,3.418-0.164,5.004
				c0,1.587-0.738,2.407-2.215,2.461c-0.164,0.055-0.492,0.082-0.984,0.082c-0.603-0.109-0.957-0.382-1.066-0.82
				c-0.328,1.204-0.849,2.379-1.559,3.527C249.835,139.907,249.425,140.016,248.879,139.798z M254.129,129.872h-1.887
				c0,1.969-0.137,3.773-0.41,5.414c0.164-0.218,0.382-0.328,0.656-0.328h0.738c0.82,0,1.202-0.382,1.148-1.148
				c0.054-0.601,0.082-1.805,0.082-3.609C254.457,129.983,254.347,129.872,254.129,129.872z M261.594,123.228
				c-0.492-0.492-1.013-0.956-1.559-1.395c-0.328-0.328-0.328-0.656,0-0.984c0.382-0.328,0.738-0.328,1.066,0
				c0.328,0.274,0.902,0.738,1.723,1.395c0.273,0.438,0.246,0.82-0.082,1.148C262.304,123.666,261.922,123.611,261.594,123.228z"/>
			<path class="st3" d="M267.008,139.88c-0.82,0.164-1.285-0.082-1.395-0.738c-0.11-0.656,0.218-1.066,0.984-1.23
				c6.344-0.984,10.527-2.789,12.551-5.414c-4.376,0.274-7.793,0.521-10.254,0.738c-0.711,0.055-1.177-0.164-1.395-0.656
				c-0.164-0.601,0.027-1.066,0.574-1.395c2.57-1.477,4.785-2.843,6.645-4.102c-0.547,0-0.738,0-0.574,0
				c-2.68,0.11-4.594,0.219-5.742,0.328c-0.656,0-1.066-0.246-1.23-0.738c-0.055-0.492,0.136-0.902,0.574-1.23
				c2.133-1.313,4.319-3.007,6.563-5.086c0.602-0.437,1.148-0.464,1.641-0.082c0.382,0.438,0.328,0.902-0.164,1.395
				c-1.915,1.532-3.582,2.762-5.004,3.691c-0.055,0.055-0.082,0.11-0.082,0.164c0,0.055,0.054,0.082,0.164,0.082
				c0.273,0,0.766-0.027,1.477-0.082c2.187-0.054,3.773-0.136,4.758-0.246c0.546-0.382,1.34-0.984,2.379-1.805
				c0.382-0.328,0.684-0.574,0.902-0.738c0.656-0.492,1.202-0.546,1.641-0.164c0.438,0.492,0.382,0.984-0.164,1.477
				c-2.68,2.243-6.017,4.567-10.008,6.973c-0.11,0.11-0.11,0.192,0,0.246c0.82-0.054,2.104-0.136,3.855-0.246
				c2.133-0.109,3.663-0.191,4.594-0.246v-0.082c0.382-0.656,0.71-1.477,0.984-2.461c0.328-0.546,0.766-0.765,1.313-0.656
				c0.602,0.219,0.82,0.656,0.656,1.312c-0.274,0.82-0.574,1.614-0.902,2.379C280.652,135.697,275.539,138.568,267.008,139.88z"/>
			<path class="st3" d="M287.352,133.154c-0.547,0.274-0.957,0.164-1.23-0.328c-0.274-0.601-0.164-1.066,0.328-1.395
				c1.969-1.53,3.445-3.226,4.43-5.086c0.109-0.218,0.027-0.355-0.246-0.41h-3.609c-0.438-0.054-0.685-0.328-0.738-0.82
				c0.054-0.492,0.3-0.765,0.738-0.82h5.25c0.492,0.055,0.766,0.356,0.82,0.902c0,0.547-0.137,1.066-0.41,1.559
				c-0.492,0.984-1.066,1.915-1.723,2.789v9.68c-0.055,0.492-0.356,0.765-0.902,0.82c-0.547-0.055-0.849-0.328-0.902-0.82v-7.711
				C288.609,132.116,288.008,132.661,287.352,133.154z M290.879,123.802c-0.547,0.164-0.957,0.028-1.23-0.41
				c-0.055-0.109-0.137-0.273-0.246-0.492c-0.274-0.71-0.465-1.175-0.574-1.395c-0.219-0.492-0.082-0.874,0.41-1.148
				c0.492-0.164,0.902-0.027,1.23,0.41c0.109,0.164,0.246,0.465,0.41,0.902c0.218,0.438,0.355,0.738,0.41,0.902
				C291.507,123.119,291.371,123.529,290.879,123.802z M294.406,133.154c-0.492,0.328-0.902,0.301-1.23-0.082
				c-0.438-0.437-0.931-0.984-1.477-1.641c-0.328-0.382-0.328-0.765,0-1.148c0.382-0.273,0.792-0.273,1.23,0
				c0.109,0.11,0.273,0.301,0.492,0.574c0.546,0.492,0.902,0.82,1.066,0.984C294.816,132.333,294.788,132.772,294.406,133.154z
				 M294.734,127.904c-0.547-0.109-0.849-0.41-0.902-0.902c0.054-0.492,0.355-0.792,0.902-0.902h3.691v-5.086
				c0.054-0.601,0.382-0.929,0.984-0.984c0.602,0.055,0.93,0.383,0.984,0.984v5.086h4.02c0.492,0.055,0.766,0.356,0.82,0.902
				c-0.055,0.547-0.328,0.849-0.82,0.902h-4.02v9.352h4.594c0.546,0.055,0.848,0.355,0.902,0.902
				c-0.055,0.546-0.356,0.847-0.902,0.902h-11.156c-0.547-0.055-0.849-0.356-0.902-0.902c0.054-0.547,0.355-0.847,0.902-0.902h4.594
				v-9.352H294.734z"/>
			<path class="st3" d="M309.746,138.814c-0.767,0-1.148-0.41-1.148-1.23v-15.012c0-0.82,0.382-1.23,1.148-1.23h15.75
				c0.546,0.055,0.848,0.383,0.902,0.984c-0.055,0.547-0.356,0.849-0.902,0.902h-14.438c-0.328,0-0.521,0.192-0.574,0.574v12.551
				c0,0.328,0.218,0.521,0.656,0.574h14.684c0.546,0.055,0.848,0.383,0.902,0.984c-0.055,0.546-0.356,0.847-0.902,0.902H309.746z
				 M312.863,135.779c-0.603,0.274-1.095,0.164-1.477-0.328c-0.274-0.546-0.164-0.984,0.328-1.313
				c1.586-0.984,3.417-2.351,5.496-4.102c-1.751-1.585-3.31-2.925-4.676-4.02c-0.438-0.382-0.492-0.82-0.164-1.313
				c0.438-0.382,0.902-0.41,1.395-0.082c1.586,1.313,3.253,2.68,5.004,4.102c1.694-1.53,3.063-2.898,4.102-4.102
				c0.546-0.382,1.038-0.41,1.477-0.082c0.328,0.438,0.328,0.875,0,1.313c-0.875,1.04-2.27,2.407-4.184,4.102
				c2.187,1.86,3.719,3.199,4.594,4.02c0.438,0.438,0.492,0.958,0.164,1.559c-0.383,0.438-0.875,0.492-1.477,0.164
				c-0.219-0.164-0.547-0.464-0.984-0.902c-1.587-1.53-2.844-2.707-3.773-3.527C316.28,133.291,314.34,134.794,312.863,135.779z"/>
			<path class="st3" d="M330.09,123.802c-0.603-0.054-0.931-0.382-0.984-0.984c0.054-0.601,0.382-0.929,0.984-0.984h15.586
				c0.602,0.055,0.93,0.383,0.984,0.984c-0.055,0.603-0.383,0.931-0.984,0.984h-6.645v12.715h7.793
				c0.602,0.055,0.93,0.383,0.984,0.984c-0.055,0.601-0.383,0.929-0.984,0.984h-17.883c-0.603-0.055-0.931-0.383-0.984-0.984
				c0.109-0.601,0.438-0.929,0.984-0.984h7.957v-12.715H330.09z"/>
			<path class="st3" d="M34.203,171.021c-0.219-0.164-0.328-0.41-0.328-0.738c0-0.273,0.054-0.519,0.164-0.738
				c1.694-2.625,3.063-5.55,4.102-8.777c0.218-0.546,0.628-0.765,1.23-0.656c0.546,0.164,0.766,0.547,0.656,1.148
				c-0.383,1.313-0.875,2.571-1.477,3.773v14.191c-0.055,0.546-0.356,0.847-0.902,0.902c-0.547-0.055-0.849-0.356-0.902-0.902v-10.5
				c-0.11,0.164-0.246,0.383-0.41,0.656c-0.383,0.603-0.656,1.04-0.82,1.313C35.187,171.185,34.749,171.295,34.203,171.021z
				 M40.109,169.134c-0.492-0.382-0.547-0.847-0.164-1.395c1.366-1.914,2.543-4.21,3.527-6.891c0.218-0.546,0.628-0.792,1.23-0.738
				c0.546,0.164,0.766,0.547,0.656,1.148c-0.055,0.219-0.192,0.547-0.41,0.984c-0.164,0.438-0.301,0.767-0.41,0.984h8.695
				c0.546,0.055,0.848,0.328,0.902,0.82c-0.055,0.603-0.356,0.931-0.902,0.984h-6.316v3.281h5.25
				c0.492,0.055,0.766,0.356,0.82,0.902c-0.055,0.492-0.328,0.767-0.82,0.82h-5.25v3.363h5.824c0.492,0.055,0.766,0.356,0.82,0.902
				c-0.055,0.547-0.328,0.849-0.82,0.902h-5.824v3.938c-0.055,0.601-0.383,0.929-0.984,0.984c-0.547-0.055-0.849-0.383-0.902-0.984
				v-14.109h-1.313c-0.656,1.368-1.367,2.625-2.133,3.773C41.094,169.408,40.602,169.517,40.109,169.134z"/>
			<path class="st3" d="M57.664,163.966c-0.492-0.054-0.767-0.328-0.82-0.82c0.054-0.437,0.328-0.683,0.82-0.738h4.84v-1.641
				c0.054-0.546,0.355-0.847,0.902-0.902c0.602,0.055,0.93,0.356,0.984,0.902v1.641h4.184c0.438,0.055,0.684,0.301,0.738,0.738
				c-0.055,0.492-0.301,0.767-0.738,0.82h-4.184v2.379h2.461c1.805-1.313,3.473-2.816,5.004-4.512
				c0.328-0.437,0.792-0.492,1.395-0.164c0.382,0.383,0.41,0.793,0.082,1.23c-1.203,1.204-2.434,2.352-3.691,3.445h4.512
				c0.546,0,0.82,0.274,0.82,0.82c-0.055,0.492-0.328,0.767-0.82,0.82h-6.645c-1.148,0.767-2.325,1.477-3.527,2.133h6.809
				c0.766,0.055,1.176,0.465,1.23,1.23v6.398c-0.11,0.656-0.521,1.038-1.23,1.148h-10.91c-0.711-0.11-1.121-0.492-1.23-1.148v-5.004
				c-0.82,0.328-1.669,0.656-2.543,0.984c-0.547,0.219-0.957,0.055-1.23-0.492c-0.11-0.601,0.082-1.011,0.574-1.23
				c3.335-1.148,6.316-2.488,8.941-4.02h-8.613c-0.492-0.054-0.767-0.328-0.82-0.82c0.054-0.492,0.328-0.765,0.82-0.82h6.727v-2.379
				H57.664z M61.027,171.677c-0.055,0-0.082,0.028-0.082,0.082c-0.055,0.055-0.164,0.082-0.328,0.082v0.082
				c-0.055,0.11-0.082,0.192-0.082,0.246v1.559h9.598v-1.559c-0.055-0.273-0.219-0.437-0.492-0.492H61.027z M69.641,177.419
				c0.273-0.055,0.438-0.246,0.492-0.574v-1.641h-9.598v1.641c0.054,0.328,0.218,0.519,0.492,0.574H69.641z"/>
			<path class="st3" d="M78.172,166.099c-0.547-0.054-0.849-0.355-0.902-0.902c0.054-0.546,0.355-0.847,0.902-0.902h4.02
				c-0.219-0.273-0.603-0.792-1.148-1.559c-0.492-0.656-0.82-1.066-0.984-1.23c-0.274-0.437-0.192-0.847,0.246-1.23
				c0.492-0.218,0.956-0.136,1.395,0.246c0.218,0.219,0.656,0.767,1.313,1.641c0.546,0.711,0.902,1.148,1.066,1.313
				c0.218,0.219,0.273,0.492,0.164,0.82h3.035c0.382-0.492,1.148-1.559,2.297-3.199c0.218-0.273,0.355-0.464,0.41-0.574
				c0.382-0.437,0.848-0.546,1.395-0.328c0.546,0.328,0.684,0.738,0.41,1.23c-0.164,0.219-0.521,0.656-1.066,1.313
				c-0.547,0.711-0.931,1.23-1.148,1.559h4.184c0.546,0.055,0.848,0.356,0.902,0.902c-0.055,0.547-0.356,0.849-0.902,0.902h-6.809
				c0,0.875-0.055,2.024-0.164,3.445h8.039c0.602,0.055,0.93,0.356,0.984,0.902c-0.055,0.547-0.383,0.849-0.984,0.902h-7.711
				c1.202,3.228,3.855,5.332,7.957,6.316c0.602,0.273,0.792,0.738,0.574,1.395c-0.274,0.546-0.793,0.71-1.559,0.492
				c-4.212-1.313-6.919-3.472-8.121-6.48c-0.984,2.789-3.664,5.004-8.039,6.645c-0.767,0.273-1.259,0.136-1.477-0.41
				c-0.274-0.547-0.11-1.013,0.492-1.395c4.594-1.53,7.108-3.718,7.547-6.563h-7.383c-0.547-0.054-0.849-0.355-0.902-0.902
				c0.054-0.546,0.355-0.847,0.902-0.902h7.629c0.109-1.202,0.164-2.351,0.164-3.445H78.172z"/>
			<path class="st3" d="M97.777,174.794c-0.547-0.218-0.767-0.656-0.656-1.313c0.71-2.133,1.313-4.266,1.805-6.398
				c0.218-0.601,0.628-0.847,1.23-0.738c0.546,0.219,0.792,0.629,0.738,1.23c-0.438,1.751-1.039,3.938-1.805,6.563
				C98.815,174.741,98.379,174.958,97.777,174.794z M105.488,179.224c-2.188,0.054-3.254-1.066-3.199-3.363v-10.746
				c0.054-0.656,0.382-1.011,0.984-1.066c0.656,0.055,1.012,0.41,1.066,1.066v10.336c-0.11,1.313,0.492,1.914,1.805,1.805h2.953
				c1.202,0,1.887-0.546,2.051-1.641c0-0.109,0.027-0.3,0.082-0.574c0.109-0.601,0.191-1.038,0.246-1.313
				c0.164-0.656,0.546-0.929,1.148-0.82c0.71,0.274,0.984,0.711,0.82,1.313c-0.11,0.82-0.246,1.669-0.41,2.543
				c-0.274,1.641-1.477,2.461-3.609,2.461H105.488z M109.754,165.935c-0.438,0.383-0.931,0.383-1.477,0
				c-0.603-0.874-1.669-2.242-3.199-4.102c-0.383-0.492-0.383-0.929,0-1.313c0.438-0.382,0.93-0.41,1.477-0.082
				c0.218,0.219,0.546,0.603,0.984,1.148c1.038,1.313,1.776,2.27,2.215,2.871C110.191,164.897,110.191,165.389,109.754,165.935z
				 M116.316,173.4c-0.711,0.219-1.203,0.055-1.477-0.492c-0.11-0.273-0.328-0.683-0.656-1.23c-0.931-1.969-1.641-3.39-2.133-4.266
				c-0.219-0.601-0.055-1.038,0.492-1.313c0.546-0.273,0.984-0.136,1.313,0.41c0.82,1.368,1.776,3.172,2.871,5.414
				C116.944,172.579,116.809,173.072,116.316,173.4z"/>
			<path class="st3" d="M120.172,166.099c-0.547-0.054-0.849-0.355-0.902-0.902c0.054-0.546,0.355-0.847,0.902-0.902h4.02
				c-0.219-0.273-0.603-0.792-1.148-1.559c-0.492-0.656-0.82-1.066-0.984-1.23c-0.274-0.437-0.192-0.847,0.246-1.23
				c0.492-0.218,0.956-0.136,1.395,0.246c0.218,0.219,0.656,0.767,1.313,1.641c0.546,0.711,0.902,1.148,1.066,1.313
				c0.218,0.219,0.273,0.492,0.164,0.82h3.035c0.382-0.492,1.148-1.559,2.297-3.199c0.218-0.273,0.355-0.464,0.41-0.574
				c0.382-0.437,0.848-0.546,1.395-0.328c0.546,0.328,0.684,0.738,0.41,1.23c-0.164,0.219-0.521,0.656-1.066,1.313
				c-0.547,0.711-0.931,1.23-1.148,1.559h4.184c0.546,0.055,0.848,0.356,0.902,0.902c-0.055,0.547-0.356,0.849-0.902,0.902h-6.809
				c0,0.875-0.055,2.024-0.164,3.445h8.039c0.602,0.055,0.93,0.356,0.984,0.902c-0.055,0.547-0.383,0.849-0.984,0.902h-7.711
				c1.202,3.228,3.855,5.332,7.957,6.316c0.602,0.273,0.792,0.738,0.574,1.395c-0.274,0.546-0.793,0.71-1.559,0.492
				c-4.212-1.313-6.919-3.472-8.121-6.48c-0.984,2.789-3.664,5.004-8.039,6.645c-0.767,0.273-1.259,0.136-1.477-0.41
				c-0.274-0.547-0.11-1.013,0.492-1.395c4.594-1.53,7.108-3.718,7.547-6.563h-7.383c-0.547-0.054-0.849-0.355-0.902-0.902
				c0.054-0.546,0.355-0.847,0.902-0.902h7.629c0.109-1.202,0.164-2.351,0.164-3.445H120.172z"/>
			<path class="st3" d="M139.941,170.447c-0.438-0.054-0.685-0.328-0.738-0.82c0.054-0.437,0.3-0.683,0.738-0.738h5.086
				c0.054-0.109,0.109-0.273,0.164-0.492c0.109-0.164,0.164-0.273,0.164-0.328c0.164-0.601,0.546-0.874,1.148-0.82
				c0.602,0.219,0.848,0.574,0.738,1.066c-0.11,0.164-0.164,0.356-0.164,0.574h10.91c0.492,0.055,0.766,0.301,0.82,0.738
				c-0.055,0.492-0.328,0.767-0.82,0.82h-11.566c-0.055,0.164-0.164,0.41-0.328,0.738c-0.164,0.383-0.301,0.656-0.41,0.82h9.926
				c0.546,0.055,0.848,0.328,0.902,0.82c0.054,0.492-0.164,0.931-0.656,1.313c-1.039,0.984-2.27,1.887-3.691,2.707
				c1.641,0.492,3.609,0.847,5.906,1.066c0.546,0.109,0.766,0.464,0.656,1.066c-0.11,0.437-0.521,0.656-1.23,0.656
				c-2.953-0.383-5.442-0.984-7.465-1.805c-2.023,0.82-4.458,1.503-7.301,2.051c-0.656,0.054-1.066-0.137-1.23-0.574
				c-0.11-0.547,0.109-0.902,0.656-1.066c2.297-0.383,4.237-0.849,5.824-1.395c-1.313-0.82-2.516-1.75-3.609-2.789
				c-0.984,1.423-2.243,2.789-3.773,4.102c-0.547,0.328-0.984,0.246-1.313-0.246c-0.274-0.438-0.192-0.874,0.246-1.313
				c2.187-1.75,3.827-3.8,4.922-6.152H139.941z M140.762,168.396c-0.547-0.054-0.849-0.3-0.902-0.738v-1.23
				c0.054-0.656,0.438-1.011,1.148-1.066h2.297v-0.082c-0.055-0.109-0.137-0.246-0.246-0.41c-0.274-0.382-0.438-0.656-0.492-0.82
				c-0.219-0.382-0.055-0.71,0.492-0.984c0.546-0.109,0.93,0.028,1.148,0.41c0.328,0.492,0.574,0.902,0.738,1.23
				c0.109,0.164,0.109,0.383,0,0.656h3.855c0-0.109-0.028-0.191-0.082-0.246c-0.274-0.601-0.492-1.038-0.656-1.313
				c-0.11-0.382,0.082-0.71,0.574-0.984c0.602-0.054,0.984,0.11,1.148,0.492c0.273,0.438,0.492,0.875,0.656,1.313
				c0.164,0.219,0.136,0.465-0.082,0.738h2.543c0.382-0.656,0.82-1.366,1.313-2.133c0.273-0.382,0.684-0.546,1.23-0.492
				c0.492,0.274,0.684,0.603,0.574,0.984c-0.11,0.164-0.328,0.465-0.656,0.902c-0.219,0.328-0.383,0.574-0.492,0.738h2.133
				c0.71,0.055,1.094,0.41,1.148,1.066v1.23c-0.055,0.438-0.383,0.685-0.984,0.738c-0.603,0-0.902-0.246-0.902-0.738v-0.574
				c0-0.218-0.11-0.328-0.328-0.328h-13.863c-0.164,0-0.274,0.11-0.328,0.328v0.574
				C141.691,168.096,141.363,168.342,140.762,168.396z M141.008,162.736c-0.492,0-0.793-0.246-0.902-0.738
				c0-0.437,0.246-0.71,0.738-0.82c5.468-0.109,10.882-0.273,16.242-0.492c0.492-0.054,0.792,0.164,0.902,0.656
				c-0.055,0.547-0.301,0.849-0.738,0.902c-1.095,0.055-2.735,0.11-4.922,0.164C147.352,162.572,143.578,162.682,141.008,162.736z
				 M146.176,173.482c1.148,0.984,2.433,1.833,3.855,2.543c1.313-0.656,2.488-1.395,3.527-2.215
				c0.164-0.218,0.136-0.328-0.082-0.328H146.176z"/>
			<path class="st3" d="M160.941,165.771c-0.492-0.054-0.767-0.328-0.82-0.82c0.054-0.546,0.328-0.847,0.82-0.902h1.477v-3.281
				c0.054-0.546,0.355-0.847,0.902-0.902c0.546,0.055,0.848,0.356,0.902,0.902v3.281h1.395c0.492,0.055,0.766,0.356,0.82,0.902
				c0,0.492-0.274,0.767-0.82,0.82h-1.395v3.773c0.438-0.164,0.848-0.3,1.23-0.41c0.492-0.109,0.82,0.11,0.984,0.656
				c0.054,0.547-0.164,0.902-0.656,1.066c-0.055,0-0.137,0.028-0.246,0.082c-0.274,0.11-0.711,0.274-1.313,0.492v5.824
				c0.109,1.641-0.603,2.433-2.133,2.379c-0.328,0-0.656,0-0.984,0c-0.656,0.054-1.013-0.219-1.066-0.82
				c-0.055-0.603,0.164-0.931,0.656-0.984c0.273,0,0.52,0,0.738,0c0.71,0.054,1.038-0.246,0.984-0.902v-4.922
				c-0.164,0.055-0.383,0.11-0.656,0.164c-0.328,0.11-0.574,0.192-0.738,0.246c-0.603,0.055-0.984-0.218-1.148-0.82
				c0.054-0.656,0.355-1.038,0.902-1.148c0.164-0.054,0.464-0.136,0.902-0.246c0.328-0.054,0.574-0.109,0.738-0.164v-4.266H160.941z
				 M167.422,164.212c-0.438-0.054-0.685-0.328-0.738-0.82c0.054-0.437,0.3-0.683,0.738-0.738h1.805v-1.887
				c0.054-0.546,0.355-0.847,0.902-0.902c0.546,0.055,0.848,0.356,0.902,0.902v1.887h3.773v-1.805
				c0.054-0.601,0.382-0.929,0.984-0.984c0.546,0.055,0.848,0.383,0.902,0.984v1.805h1.969c0.492,0.055,0.766,0.301,0.82,0.738
				c0,0.492-0.274,0.767-0.82,0.82h-1.969v2.543h2.461c0.546,0,0.82,0.274,0.82,0.82c-0.055,0.438-0.328,0.685-0.82,0.738h-12.141
				c-0.492-0.054-0.767-0.3-0.82-0.738c0.054-0.492,0.328-0.765,0.82-0.82h2.215v-2.543H167.422z M168.652,179.224
				c-0.82,0-1.23-0.383-1.23-1.148v-6.727c0.054-0.71,0.464-1.093,1.23-1.148h8.695c0.71,0.055,1.094,0.438,1.148,1.148v6.727
				c-0.055,0.71-0.438,1.093-1.148,1.148H168.652z M169.309,172.251v1.723h7.301v-1.723c0-0.328-0.164-0.492-0.492-0.492h-6.316
				C169.473,171.759,169.309,171.923,169.309,172.251z M176.117,177.665c0.328,0,0.492-0.164,0.492-0.492v-1.805h-7.301v1.805
				c0,0.328,0.164,0.492,0.492,0.492H176.117z M171.031,164.212v2.543h3.773v-2.543H171.031z"/>
			<path class="st3" d="M181.941,164.95c-0.492-0.054-0.767-0.328-0.82-0.82c0.054-0.437,0.328-0.683,0.82-0.738h2.789
				c-0.055-0.109-0.082-0.191-0.082-0.246c-0.055-0.218-0.137-0.574-0.246-1.066c-0.164-0.546-0.274-0.902-0.328-1.066
				c-0.11-0.492,0.109-0.82,0.656-0.984c0.546-0.054,0.93,0.164,1.148,0.656c0.054,0.274,0.191,0.793,0.41,1.559
				c0.054,0.328,0.109,0.574,0.164,0.738c0,0.11-0.028,0.246-0.082,0.41h1.723c0.492,0.055,0.766,0.301,0.82,0.738
				c0,0.492-0.274,0.767-0.82,0.82h-3.527c0,0.383-0.028,0.902-0.082,1.559c0,0.656,0,1.148,0,1.477h2.625
				c0.656,0.055,1.012,0.41,1.066,1.066c0,2.352-0.055,4.813-0.164,7.383c-0.055,1.914-0.875,2.871-2.461,2.871
				c-0.164,0.054-0.547,0.082-1.148,0.082c-0.492-0.055-0.767-0.328-0.82-0.82c0.054-0.603,0.3-0.902,0.738-0.902h0.738
				c0.874,0.109,1.313-0.41,1.313-1.559c0.109-2.242,0.164-4.292,0.164-6.152c0-0.273-0.11-0.41-0.328-0.41h-1.723
				c0,0.055,0,0.164,0,0.328c-0.055,0.11-0.082,0.219-0.082,0.328c-0.055,4.157-0.711,7.19-1.969,9.105
				c-0.328,0.382-0.738,0.464-1.23,0.246c-0.383-0.328-0.438-0.767-0.164-1.313c1.094-1.969,1.668-4.621,1.723-7.957
				c0-1.148,0.054-2.925,0.164-5.332H181.941z M188.586,166.673c-0.438-0.437-0.492-0.847-0.164-1.23
				c1.258-1.421,2.269-3.035,3.035-4.84c0.218-0.492,0.602-0.71,1.148-0.656c0.602,0.274,0.792,0.656,0.574,1.148
				c-0.164,0.492-0.383,0.984-0.656,1.477h7.629c0.492,0.055,0.766,0.301,0.82,0.738c0,0.492-0.274,0.767-0.82,0.82h-8.531
				c-0.547,0.875-1.148,1.723-1.805,2.543C189.434,167.001,189.023,167.001,188.586,166.673z M196.625,174.548
				c-0.603,0-0.902-0.273-0.902-0.82c0-0.437,0.218-0.683,0.656-0.738c0.273,0,0.52,0,0.738,0c0.656,0.055,1.012-0.328,1.066-1.148
				c0-0.218,0-0.574,0-1.066c0.054-0.656,0.082-1.12,0.082-1.395c-0.055-0.218-0.192-0.3-0.41-0.246l-2.215,0.41v5.906
				c-0.055,0.492-0.328,0.767-0.82,0.82c-0.492-0.054-0.767-0.328-0.82-0.82v-5.578l-2.379,0.492v5.66
				c-0.055,1.259,0.52,1.832,1.723,1.723h3.691c1.258,0.109,1.94-0.301,2.051-1.23c0.054-0.109,0.109-0.355,0.164-0.738
				c0.054-0.273,0.082-0.464,0.082-0.574c0.054-0.437,0.355-0.628,0.902-0.574c0.492,0.11,0.71,0.465,0.656,1.066
				c0,0.164-0.055,0.438-0.164,0.82c-0.055,0.438-0.11,0.738-0.164,0.902c-0.274,1.366-1.285,1.996-3.035,1.887h-4.676
				c-1.969,0.054-2.926-0.849-2.871-2.707v-5.906l-0.328,0.082c-0.547,0.055-0.875-0.164-0.984-0.656
				c-0.055-0.492,0.164-0.792,0.656-0.902l0.656-0.082v-1.887c0.054-0.492,0.328-0.765,0.82-0.82c0.492,0.055,0.766,0.328,0.82,0.82
				v1.559l2.379-0.574v-2.707c0.054-0.546,0.328-0.82,0.82-0.82c0.492,0.055,0.766,0.328,0.82,0.82v2.379l3.117-0.656
				c0.766-0.054,1.12,0.219,1.066,0.82c0,0.767-0.055,1.915-0.164,3.445c0,0.219,0,0.41,0,0.574
				c0.054,1.641-0.629,2.434-2.051,2.379C197.445,174.521,197.117,174.548,196.625,174.548z"/>
		</g>
	</g>
	<path class="st2" d="M120.369,88.866c-8.719,8.59-20.701,13.87-33.91,13.87V88.203l8.719-3.278c1.292-0.485,2.358-1.34,3.084-2.422
		c0.71-1.034,1.114-2.309,1.114-3.617v-10.06l0.032-0.194l12.838,2.1c4.683,0.759,8.122,4.812,8.122,9.559V88.866z M120.369,88.866"
		/>
	<path class="st5" d="M94.533,67.825l4.877,0.807l-0.032,0.194v10.06c0,1.308-0.404,2.584-1.114,3.617l-11.804-9.075l8.074-6.217
		V67.825z M94.533,67.825"/>
	<path class="st5" d="M95.178,84.926l-8.719,3.278l-8.719-3.278c-1.292-0.485-2.358-1.34-3.084-2.422l11.804-9.075l11.804,9.075
		C97.536,83.585,96.471,84.441,95.178,84.926L95.178,84.926z M95.178,84.926"/>
	<path class="st5" d="M86.459,73.429l-11.804,9.075c-0.71-1.034-1.114-2.309-1.114-3.617l-0.032-10.254l4.877-0.807v-0.613
		L86.459,73.429z M86.459,73.429"/>
	<path class="st5" d="M109.065,46.22c0,3.569-2.89,6.459-6.459,6.459l-0.613-0.162c0.404-1.388,0.613-2.874,0.613-4.392v-8.365
		C106.175,39.761,109.065,42.651,109.065,46.22L109.065,46.22z M109.065,46.22"/>
	<path class="st5" d="M87.202,38.146h-16.89v9.979c0,1.518,0.21,3.003,0.613,4.392c0.759,2.697,2.197,5.103,4.118,7.024
		c1.065,1.066,2.261,1.97,3.584,2.696l-0.242,0.42v4.553l8.074,6.217l8.074-6.217v-4.553l-0.242-0.42
		c3.714-2.051,6.524-5.538,7.702-9.721c0.404-1.388,0.613-2.874,0.613-4.392v-9.979H87.202z M87.202,38.146"/>
	<path class="st5" d="M70.312,48.125c0,1.518,0.21,3.003,0.613,4.392l-0.613,0.162c-3.569,0-6.459-2.89-6.459-6.459
		c0-3.569,2.89-6.459,6.459-6.459V48.125z M70.312,48.125"/>
	<path class="st5" d="M80,43.273c0,0.892-0.723,1.615-1.615,1.615c-0.892,0-1.615-0.723-1.615-1.615
		c0-0.892,0.723-1.615,1.615-1.615C79.277,41.658,80,42.381,80,43.273L80,43.273z M80,43.273"/>
	<path class="st5" d="M96.147,43.273c0,0.892-0.723,1.615-1.615,1.615s-1.615-0.723-1.615-1.615c0-0.892,0.723-1.615,1.615-1.615
		S96.147,42.381,96.147,43.273L96.147,43.273z M96.147,43.273"/>
	<path class="st2" d="M52.549,88.866c8.719,8.59,20.701,13.87,33.91,13.87V88.203l-8.719-3.278c-1.292-0.485-2.358-1.34-3.084-2.422
		c-0.71-1.034-1.114-2.309-1.114-3.617v-10.06l-0.032-0.194l-12.838,2.1c-4.683,0.759-8.122,4.812-8.122,9.559V88.866z
		 M52.549,88.866"/>
	<path class="st5" d="M91.751,52.679c0,2.923-2.369,5.292-5.292,5.292s-5.292-2.369-5.292-5.292"/>
	<path class="st2" d="M63.853,31.687l-4.295-5.539c-0.355-0.597-0.549-1.292-0.549-2.002c0-1.34,0.695-2.584,1.824-3.294
		L83.471,6.707c0.904-0.565,1.938-0.855,2.987-0.855c1.049,0,2.083,0.291,2.987,0.855l22.639,14.146
		c1.13,0.71,1.824,1.954,1.824,3.294c0,0.71-0.194,1.405-0.549,2.002l-4.295,5.83 M102.606,31.978"/>
	<path class="st2" d="M80,32.43c0,3.165,2.551,5.716,5.716,5.716H70.312v-6.459H80l0.048,0.016C80.016,31.946,80,32.188,80,32.43
		L80,32.43z M80,32.43"/>
	<path class="st2" d="M102.606,31.978v6.168H87.202c1.582,0,3.003-0.646,4.037-1.679c1.034-1.034,1.679-2.454,1.679-4.037
		c0-0.145,0-0.307-0.032-0.452H102.606z M102.606,31.978"/>
	<path class="st2" d="M109.065,31.978V46.22c0-3.569-2.89-6.459-6.459-6.459v-7.783H109.065z M109.065,31.978"/>
	<path class="st2" d="M70.312,38.146v1.615c-3.569,0-6.459,2.89-6.459,6.459V31.687h6.459V38.146z M70.312,38.146"/>
	<circle class="st0" cx="86.459" cy="32.43" r="6.37"/>
</g>
</svg>