<!-- Generator: Adobe Illustrator 24.1.3, SVG Export Plug-In  -->
<svg version="1.1" xmlns="http://www.w3.org/2000/svg" xmlns:xlink="http://www.w3.org/1999/xlink" x="0px" y="0px"
	 width="447.125px" height="86.491px" viewBox="0 0 447.125 86.491"
	 style="overflow:visible;enable-background:new 0 0 447.125 86.491;" xml:space="preserve">
<style type="text/css">
	.st0{fill:#BF2222;}
	.st1{fill:none;}
	.st2{font-family:'HYQingFenTi-W';}
	.st3{font-size:72px;}
</style>
<defs>
</defs>
<g>
	<g>
		<g>
			<path class="st0" d="M36.116,23.814L29.23,2.231c-0.538-1.686-2.341-2.617-4.027-2.079L2.295,7.462
				C0.609,8-0.322,9.803,0.216,11.489l6.886,21.583c-6.625,7.665-8.821,18.186-5.714,27.924
				c4.887,15.318,21.325,23.803,36.643,18.916c15.317-4.887,23.803-21.325,18.916-36.643C53.84,33.531,45.956,26.226,36.116,23.814z
				 M36.083,73.805c-11.951,3.813-24.776-2.807-28.589-14.758c-2.581-8.088-0.47-16.871,5.507-22.921
				c0.838-0.848,1.136-2.091,0.774-3.227L7.296,12.594l16.802-5.361l6.479,20.306c0.362,1.136,1.325,1.976,2.499,2.182
				c8.377,1.47,15.184,7.407,17.765,15.495C54.654,57.167,48.034,69.992,36.083,73.805z"/>
			<path class="st0" d="M33.568,50.227c-7.725,0.358-8.952-2.256-17.183-1.429c-1.443,0.145-3.1,0.396-4.861,0.766
				c-0.357,2.559-0.161,5.235,0.677,7.861c2.99,9.372,13.012,14.545,22.383,11.555c9.259-2.954,14.414-12.771,11.654-22.044
				C42.719,48.673,38.585,49.994,33.568,50.227z"/>
		</g>
	</g>
	<g>
		<g>
			<path class="st0" d="M113.639,13.266c-0.288,2.305-0.637,4.513-1.044,6.624c-0.408,2.113-0.9,4.201-1.476,6.265h29.664
				c0.768,0,1.332,0.264,1.692,0.792c0.36,0.528,0.54,1.092,0.54,1.691c0,0.602-0.192,1.165-0.576,1.692
				c-0.385,0.528-0.936,0.792-1.656,0.792h-31.176c-2.448,7.248-5.845,14.076-10.188,20.484c-4.345,6.407-9.565,12.756-15.66,19.044
				c-0.529,0.527-1.069,0.792-1.62,0.792c-0.552,0-1.02-0.145-1.404-0.433c-0.385-0.288-0.625-0.673-0.72-1.151
				c-0.097-0.48,0.072-0.937,0.504-1.368c5.04-5.663,9.371-11.567,12.996-17.712c3.624-6.144,6.54-12.696,8.748-19.656h-13.68
				c-0.72,0-1.321-0.144-1.8-0.432c-0.48-0.288-0.853-0.648-1.116-1.08c-0.265-0.433-0.432-0.888-0.504-1.368
				c-0.072-0.479-0.061-0.937,0.036-1.368l3.888-10.944c0.288-1.151,0.888-1.932,1.8-2.34c0.911-0.407,1.8-0.515,2.664-0.324
				c0.864,0.192,1.548,0.661,2.052,1.404c0.504,0.745,0.515,1.645,0.036,2.7l-3.456,8.208c-0.048,0.097-0.036,0.216,0.036,0.36
				c0.072,0.144,0.204,0.216,0.396,0.216h11.016c1.152-4.32,2.016-8.808,2.592-13.464c0.144-1.344,0.636-2.279,1.476-2.809
				c0.839-0.527,1.716-0.731,2.628-0.611c0.912,0.12,1.728,0.528,2.448,1.224C113.495,11.191,113.783,12.115,113.639,13.266z
				 M106.007,49.842c-0.529-0.479-0.781-1.008-0.756-1.584c0.023-0.576,0.216-1.067,0.576-1.476c0.36-0.407,0.828-0.636,1.404-0.685
				c0.576-0.047,1.152,0.169,1.728,0.648c1.584,1.393,3.143,2.664,4.68,3.816c1.536,1.151,3.048,2.208,4.536,3.168
				c1.487-1.152,2.952-2.376,4.392-3.673c1.44-1.296,2.855-2.639,4.248-4.031c0.576-0.576,0.815-1.08,0.72-1.513
				c-0.097-0.432-0.552-0.647-1.368-0.647h-16.992c-0.769,0-1.344-0.252-1.728-0.756c-0.385-0.504-0.576-1.068-0.576-1.692
				c0-0.623,0.191-1.188,0.576-1.691c0.384-0.505,0.959-0.757,1.728-0.757h21.888c1.44,0,2.592,0.313,3.456,0.937
				c0.864,0.624,1.463,1.404,1.8,2.34c0.335,0.936,0.36,1.944,0.072,3.024c-0.288,1.079-0.864,2.076-1.728,2.987
				c-2.833,2.833-6.408,5.832-10.728,9c3.215,1.825,6.456,3.433,9.72,4.824c3.264,1.393,6.743,2.784,10.44,4.176
				c1.152,0.433,1.847,1.176,2.088,2.232c0.24,1.055,0.155,2.075-0.252,3.06c-0.408,0.983-1.104,1.752-2.088,2.305
				c-0.984,0.551-2.149,0.491-3.492-0.181c-4.032-1.969-7.8-3.984-11.304-6.048c-3.504-2.063-6.937-4.344-10.296-6.84
				c-3.744,2.448-7.801,4.801-12.168,7.056c-4.369,2.256-9,4.344-13.896,6.265c-0.769,0.288-1.429,0.288-1.98,0
				c-0.553-0.288-0.949-0.685-1.188-1.188c-0.241-0.504-0.288-1.044-0.144-1.62s0.527-1.008,1.152-1.296
				c4.511-2.112,8.664-4.199,12.456-6.264c3.791-2.063,7.416-4.32,10.872-6.769c-1.296-1.104-2.592-2.243-3.888-3.42
				C108.671,52.375,107.35,51.138,106.007,49.842z M123.647,11.899c2.448,1.248,4.464,2.34,6.048,3.275
				c1.584,0.937,2.927,1.813,4.032,2.628c1.008,0.721,1.487,1.561,1.44,2.521c-0.048,0.961-0.385,1.764-1.008,2.412
				c-0.624,0.647-1.429,1.008-2.412,1.08c-0.984,0.071-1.933-0.396-2.844-1.404c-0.913-1.104-1.957-2.304-3.132-3.6
				c-1.177-1.297-2.533-2.64-4.068-4.032c-0.336-0.288-0.493-0.648-0.468-1.08c0.023-0.433,0.155-0.804,0.396-1.116
				c0.24-0.312,0.54-0.551,0.9-0.72C122.891,11.695,123.262,11.708,123.647,11.899z"/>
			<path class="st0" d="M165.263,44.587c-1.393,1.681-2.856,3.384-4.392,5.112c-1.537,1.728-3.168,3.504-4.896,5.328
				c-0.528,0.528-1.068,0.769-1.62,0.72c-0.553-0.047-1.021-0.252-1.404-0.612c-0.385-0.359-0.624-0.803-0.72-1.332
				c-0.097-0.527,0.047-1.008,0.432-1.439c4.128-4.608,7.68-9.24,10.656-13.896c2.976-4.655,5.64-9.671,7.992-15.048h-14.832
				c-0.817,0-1.417-0.252-1.8-0.756c-0.385-0.504-0.576-1.067-0.576-1.692c0-0.623,0.191-1.188,0.576-1.691
				c0.384-0.504,0.983-0.756,1.8-0.756h16.92c0.383-1.056,0.792-2.124,1.224-3.204c0.432-1.08,0.839-2.196,1.224-3.349
				c0.432-1.151,1.152-1.907,2.16-2.268s1.98-0.407,2.916-0.145c0.936,0.265,1.667,0.817,2.196,1.656
				c0.528,0.841,0.551,1.908,0.072,3.204l-1.728,4.104h33.552c0.768,0,1.343,0.252,1.728,0.756c0.384,0.504,0.576,1.068,0.576,1.691
				c0,0.625-0.192,1.188-0.576,1.692c-0.385,0.504-0.96,0.756-1.728,0.756h-35.856c-1.2,2.4-2.473,4.752-3.816,7.056
				c-1.344,2.305-2.856,4.608-4.536,6.912c0.479,0.241,0.864,0.612,1.152,1.116c0.288,0.504,0.432,1.093,0.432,1.764v24.265
				c0,1.104-0.372,1.943-1.116,2.52c-0.745,0.576-1.561,0.876-2.448,0.9c-0.889,0.023-1.704-0.241-2.448-0.792
				c-0.745-0.553-1.116-1.379-1.116-2.484V44.587z M209.543,65.611c-0.432,0.48-0.961,0.911-1.584,1.296
				c-0.625,0.384-1.224,0.647-1.8,0.792c-0.576,0.144-1.056,0.107-1.44-0.108c-0.385-0.216-0.552-0.709-0.504-1.476
				c0.047-1.008-0.36-1.692-1.224-2.052c-0.864-0.36-1.776-0.54-2.736-0.54c-0.576,0-0.997-0.168-1.26-0.504
				c-0.264-0.336-0.396-0.721-0.396-1.152c0-0.433,0.132-0.815,0.396-1.152c0.264-0.335,0.636-0.504,1.116-0.504
				c0.191,0,0.456-0.011,0.792-0.036c0.335-0.023,0.839-0.083,1.512-0.18c0.671-0.096,1.235-0.371,1.692-0.828
				c0.456-0.455,0.684-1.355,0.684-2.7v-12.6c0-0.672-0.144-1.152-0.432-1.44s-0.792-0.432-1.512-0.432h-10.224v28.8
				c0,1.152-0.385,2.004-1.152,2.556c-0.768,0.552-1.596,0.828-2.484,0.828c-0.889,0-1.717-0.276-2.484-0.828
				c-0.769-0.552-1.152-1.403-1.152-2.556v-28.8h-8.712c-0.816,0-1.429-0.252-1.836-0.756c-0.408-0.504-0.612-1.067-0.612-1.692
				c0-0.623,0.204-1.188,0.612-1.691c0.407-0.505,1.02-0.757,1.836-0.757h8.712v-7.271c0-1.152,0.384-2.016,1.152-2.592
				c0.767-0.576,1.595-0.864,2.484-0.864c0.888,0,1.716,0.288,2.484,0.864c0.768,0.576,1.152,1.439,1.152,2.592v7.271h14.328
				c1.584,0,2.819,0.444,3.708,1.332c0.888,0.889,1.332,2.124,1.332,3.708v15.841c0,1.776-0.205,3.275-0.612,4.5
				C210.97,63.703,210.359,64.747,209.543,65.611z"/>
			<path class="st0" d="M228.695,24.571c0-1.199,0.36-2.088,1.08-2.664c0.72-0.576,1.512-0.864,2.376-0.864
				c0.864,0,1.656,0.288,2.376,0.864c0.72,0.576,1.08,1.465,1.08,2.664v44.424c0,1.248-0.36,2.171-1.08,2.771
				c-0.72,0.6-1.512,0.9-2.376,0.9c-0.864,0-1.656-0.301-2.376-0.9c-0.72-0.601-1.08-1.523-1.08-2.771V24.571z M237.911,45.271
				c-0.432-0.505-0.648-1.044-0.648-1.62s0.216-1.116,0.648-1.62c0.432-0.504,1.055-0.756,1.872-0.756h7.632V28.531
				c0-0.864-0.288-1.536-0.864-2.017c-0.576-0.479-1.321-0.72-2.232-0.72h-4.536c-0.768,0-1.344-0.228-1.728-0.684
				c-0.385-0.456-0.601-0.973-0.648-1.548c-0.048-0.576,0.083-1.116,0.396-1.62c0.312-0.504,0.803-0.804,1.476-0.9
				c0.191-1.343,0.348-2.747,0.468-4.212c0.12-1.464,0.204-2.556,0.252-3.276c0.047-1.343,0.491-2.304,1.332-2.88
				c0.839-0.576,1.716-0.792,2.628-0.647c0.911,0.144,1.68,0.624,2.304,1.439c0.624,0.817,0.768,1.921,0.432,3.313
				c-0.241,0.816-0.576,1.74-1.008,2.771c-0.432,1.033-0.984,2.173-1.656,3.42h3.816c2.4,0,4.068,0.612,5.004,1.836
				c0.936,1.225,1.404,2.7,1.404,4.429v35.279c0,1.682-0.444,3.024-1.332,4.032c-0.889,1.008-2.46,1.512-4.716,1.512h-8.424
				c-0.817,0-1.417-0.252-1.8-0.756c-0.385-0.504-0.576-1.055-0.576-1.655c0-0.6,0.191-1.152,0.576-1.656
				c0.383-0.504,0.983-0.756,1.8-0.756h7.632V46.027h-7.632C238.966,46.027,238.343,45.775,237.911,45.271z M255.839,35.479
				c0.191,0.504,0.492,0.863,0.9,1.079c0.407,0.217,0.864,0.277,1.368,0.181c0.504-0.096,0.972-0.456,1.404-1.08
				c2.016-3.024,3.816-6.252,5.4-9.685c1.584-3.431,2.88-7.308,3.888-11.628c0.288-1.296,0.108-2.351-0.54-3.168
				c-0.648-0.815-1.44-1.307-2.376-1.476c-0.936-0.168-1.861,0.024-2.772,0.576c-0.913,0.552-1.465,1.524-1.656,2.916
				c-0.672,4.129-1.476,7.884-2.412,11.268s-1.98,6.517-3.132,9.396C255.67,34.434,255.647,34.974,255.839,35.479z M264.155,43.651
				c-0.792-1.872-1.524-3.504-2.196-4.896c-0.192-0.432-0.216-0.852-0.072-1.26c0.144-0.407,0.384-0.744,0.72-1.008
				c0.335-0.264,0.731-0.396,1.188-0.396c0.456,0,0.9,0.216,1.332,0.648c3.312,3.36,5.951,6.552,7.92,9.576
				c0.72,1.104,0.875,2.159,0.468,3.168c-0.408,1.008-1.056,1.764-1.944,2.268c-0.889,0.504-1.836,0.648-2.844,0.432
				c-1.008-0.216-1.728-0.972-2.16-2.268C265.75,47.611,264.947,45.523,264.155,43.651z M275.675,73.674
				c-0.696-0.336-1.092-0.84-1.188-1.512c-0.144-0.864-0.468-1.548-0.972-2.052c-0.504-0.504-1.188-0.9-2.052-1.188
				c-0.864-0.288-1.897-0.504-3.096-0.647c-1.2-0.145-2.544-0.288-4.032-0.433c-0.529-0.048-0.925-0.276-1.188-0.684
				c-0.265-0.408-0.385-0.84-0.36-1.296c0.024-0.456,0.191-0.864,0.504-1.225c0.312-0.359,0.779-0.54,1.404-0.54
				c1.055,0.049,2.135,0.072,3.24,0.072c1.104,0,2.135-0.023,3.096-0.072c0.959-0.047,1.824-0.144,2.592-0.287
				c0.767-0.145,1.392-0.36,1.872-0.648c0.96-0.576,1.692-1.644,2.196-3.204c0.504-1.56,0.875-3.755,1.116-6.588
				c0.24-2.832,0.384-6.348,0.432-10.548c0.047-4.2,0.072-9.181,0.072-14.94c0-0.767-0.157-1.332-0.468-1.691
				c-0.313-0.36-0.9-0.54-1.764-0.54h-6.696c-0.769,0-1.344-0.252-1.728-0.756c-0.385-0.505-0.576-1.056-0.576-1.656
				c0-0.6,0.191-1.152,0.576-1.656c0.384-0.504,0.959-0.756,1.728-0.756h10.8c1.056,0,1.919,0.169,2.592,0.504
				c0.671,0.336,1.211,0.792,1.62,1.368c0.407,0.576,0.684,1.224,0.828,1.943c0.144,0.721,0.216,1.44,0.216,2.16
				c0,7.297-0.072,13.562-0.216,18.792c-0.144,5.232-0.504,9.673-1.08,13.32c-0.576,3.648-1.429,6.612-2.556,8.892
				c-1.128,2.279-2.653,4.092-4.572,5.437C277.151,73.866,276.37,74.01,275.675,73.674z"/>
			<path class="st0" d="M300.119,19.963c0-1.151,0.372-2.016,1.116-2.592c0.744-0.576,1.572-0.864,2.484-0.864
				c0.911,0,1.739,0.288,2.484,0.864c0.744,0.576,1.116,1.44,1.116,2.592v46.8c0,1.199-0.373,2.1-1.116,2.7
				c-0.745,0.6-1.573,0.9-2.484,0.9c-0.912,0-1.74-0.301-2.484-0.9c-0.745-0.601-1.116-1.501-1.116-2.7V19.963z M323.231,60.642
				c0,1.009-0.349,1.861-1.044,2.557c-0.697,0.696-1.524,1.044-2.484,1.044h-8.568c-0.817,0-1.429-0.264-1.836-0.792
				c-0.408-0.527-0.612-1.104-0.612-1.729c0-0.623,0.204-1.199,0.612-1.728c0.407-0.527,1.019-0.792,1.836-0.792h5.04V41.707h-5.04
				c-0.817,0-1.429-0.252-1.836-0.756c-0.408-0.504-0.612-1.044-0.612-1.62s0.204-1.116,0.612-1.62
				c0.407-0.504,1.019-0.756,1.836-0.756h5.04V22.411c0-0.384-0.144-0.708-0.432-0.972s-0.624-0.396-1.008-0.396h-3.6
				c-0.817,0-1.429-0.252-1.836-0.756c-0.408-0.504-0.612-1.056-0.612-1.656c0-0.6,0.204-1.151,0.612-1.656
				c0.407-0.504,1.019-0.756,1.836-0.756h7.632c1.631,0,2.784,0.517,3.456,1.548c0.672,1.033,1.008,2.196,1.008,3.492V60.642z
				 M353.975,24.787h5.76c0.864,0,1.5,0.252,1.908,0.756c0.408,0.504,0.612,1.068,0.612,1.692s-0.205,1.188-0.612,1.691
				c-0.408,0.504-1.044,0.756-1.908,0.756h-5.76v35.496c0,1.92-0.349,3.588-1.044,5.004c-0.696,1.416-2.028,2.629-3.996,3.637
				c-0.624,0.335-1.285,0.335-1.98,0c-0.696-0.337-1.02-0.889-0.972-1.656c0.047-1.44-0.625-2.412-2.016-2.916
				c-1.393-0.504-3.265-0.925-5.616-1.26c-0.624-0.097-1.068-0.337-1.332-0.721c-0.265-0.385-0.373-0.792-0.324-1.224
				c0.047-0.432,0.227-0.815,0.54-1.152c0.312-0.335,0.756-0.504,1.332-0.504c1.824,0.049,3.276,0.025,4.356-0.071
				c1.08-0.096,1.908-0.324,2.484-0.685c0.576-0.359,0.947-0.899,1.116-1.62c0.167-0.72,0.252-1.68,0.252-2.88V29.682h-18.864
				c-0.864,0-1.5-0.252-1.908-0.756c-0.409-0.504-0.612-1.067-0.612-1.691s0.204-1.188,0.612-1.692
				c0.407-0.504,1.044-0.756,1.908-0.756h18.864v-11.16c0-1.199,0.371-2.088,1.116-2.664c0.744-0.576,1.572-0.864,2.484-0.864
				c0.911,0,1.739,0.288,2.484,0.864c0.744,0.576,1.116,1.465,1.116,2.664V24.787z M331.583,36.306
				c1.967,2.305,3.516,4.188,4.644,5.652c1.127,1.465,2.099,2.772,2.916,3.924c0.576,0.864,0.852,1.681,0.828,2.448
				c-0.024,0.769-0.216,1.44-0.576,2.016c-0.36,0.576-0.853,1.044-1.476,1.404c-0.625,0.36-1.26,0.54-1.908,0.54
				s-1.272-0.216-1.872-0.648c-0.601-0.432-1.044-1.127-1.332-2.088c-0.241-0.72-0.493-1.476-0.756-2.268
				c-0.264-0.792-0.565-1.631-0.9-2.521c-0.336-0.887-0.709-1.859-1.116-2.916c-0.408-1.055-0.9-2.231-1.476-3.527
				c-0.241-0.479-0.276-0.947-0.108-1.404c0.168-0.455,0.432-0.792,0.792-1.008c0.36-0.216,0.756-0.312,1.188-0.288
				C330.863,35.647,331.247,35.875,331.583,36.306z"/>
			<path class="st0" d="M372.623,24.715c0-1.199,0.383-2.088,1.152-2.664c0.767-0.576,1.607-0.852,2.52-0.828
				c0.911,0.025,1.751,0.337,2.52,0.937c0.767,0.601,1.152,1.501,1.152,2.7v45.647c0,1.199-0.385,2.1-1.152,2.7
				c-0.769,0.6-1.609,0.9-2.52,0.9c-0.913,0-1.753-0.301-2.52-0.9c-0.769-0.601-1.152-1.501-1.152-2.7V24.715z M383.999,20.682
				c-1.201-1.871-2.257-3.467-3.168-4.787c-0.912-1.32-1.872-2.629-2.88-3.925c-0.336-0.432-0.48-0.875-0.432-1.332
				c0.047-0.455,0.216-0.839,0.504-1.151c0.288-0.312,0.659-0.492,1.116-0.54c0.456-0.048,0.972,0.097,1.548,0.432
				c2.255,1.44,4.091,2.677,5.508,3.708c1.415,1.033,2.7,2.077,3.852,3.132c0.959,0.864,1.343,1.836,1.152,2.916
				c-0.192,1.08-0.684,1.957-1.476,2.628c-0.792,0.673-1.728,0.997-2.808,0.973C385.835,22.712,384.863,22.027,383.999,20.682z
				 M386.951,31.411c0-1.199,0.372-2.088,1.116-2.664c0.744-0.576,1.572-0.864,2.484-0.864c0.911,0,1.739,0.288,2.484,0.864
				c0.744,0.576,1.116,1.465,1.116,2.664v23.76c0,1.249-0.373,2.196-1.116,2.844c-0.745,0.648-1.573,0.973-2.484,0.973
				c-0.912,0-1.74-0.324-2.484-0.973c-0.745-0.647-1.116-1.595-1.116-2.844V31.411z M397.247,19.027
				c-0.816,0-1.429-0.264-1.836-0.792c-0.408-0.528-0.612-1.092-0.612-1.692c0-0.6,0.204-1.163,0.612-1.692
				c0.407-0.527,1.02-0.792,1.836-0.792h25.992c4.464,0,6.696,2.209,6.696,6.624v44.496c0,3.936-1.944,6.912-5.832,8.929
				c-0.625,0.335-1.201,0.419-1.728,0.252c-0.529-0.169-0.84-0.637-0.936-1.404c-0.241-1.537-0.984-2.664-2.232-3.384
				c-1.249-0.721-3.049-1.249-5.4-1.584c-0.624-0.097-1.068-0.337-1.332-0.721c-0.264-0.385-0.372-0.792-0.324-1.224
				c0.047-0.432,0.227-0.815,0.54-1.152c0.312-0.335,0.756-0.504,1.332-0.504c1.823,0.049,3.299,0.025,4.428-0.071
				c1.127-0.096,1.991-0.324,2.592-0.685c0.6-0.359,1.008-0.899,1.224-1.62c0.216-0.72,0.324-1.68,0.324-2.88V21.907
				c0-1.919-0.961-2.88-2.88-2.88H397.247z M398.111,58.699c-0.817,0-1.417-0.252-1.8-0.756c-0.385-0.504-0.576-1.056-0.576-1.656
				c0-0.6,0.191-1.152,0.576-1.656c0.383-0.504,0.983-0.756,1.8-0.756h10.152V34.867c0-1.536-0.768-2.304-2.304-2.304h-7.848
				c-0.817,0-1.429-0.252-1.836-0.757c-0.409-0.504-0.612-1.044-0.612-1.619c0-0.576,0.204-1.116,0.612-1.62
				c0.407-0.504,1.019-0.756,1.836-0.756h11.304c2.063,0,3.587,0.611,4.572,1.836c0.983,1.224,1.476,2.676,1.476,4.355v19.368
				c0,1.393-0.421,2.628-1.26,3.708c-0.84,1.08-2.148,1.62-3.924,1.62H398.111z M398.399,45.163c-0.817,0-1.429-0.239-1.836-0.72
				c-0.409-0.479-0.612-1.02-0.612-1.62c0-0.6,0.204-1.14,0.612-1.62c0.407-0.479,1.019-0.72,1.836-0.72h5.688
				c0.864,0,1.5,0.24,1.908,0.72c0.407,0.48,0.612,1.021,0.612,1.62c0,0.601-0.205,1.141-0.612,1.62
				c-0.408,0.48-1.044,0.72-1.908,0.72H398.399z"/>
		</g>
	</g>
</g>
</svg>