<!-- Generator: Adobe Illustrator 24.1.3, SVG Export Plug-In  -->
<svg version="1.1" xmlns="http://www.w3.org/2000/svg" xmlns:xlink="http://www.w3.org/1999/xlink" x="0px" y="0px"
	 width="447.125px" height="86.491px" viewBox="0 0 447.125 86.491"
	 style="overflow:visible;enable-background:new 0 0 447.125 86.491;" xml:space="preserve">
<style type="text/css">
	.st0{fill:#BF2222;}
	.st1{fill:none;}
	.st2{font-family:'HYQingFenTi-W';}
	.st3{font-size:72px;}
</style>
<defs>
</defs>
<g>
	<g>
		<g>
			<path class="st0" d="M36.116,23.814L29.23,2.231c-0.538-1.686-2.341-2.617-4.027-2.079L2.295,7.462
				C0.609,8-0.322,9.803,0.216,11.489l6.886,21.583c-6.625,7.665-8.821,18.186-5.714,27.924
				c4.887,15.318,21.325,23.803,36.643,18.916c15.317-4.887,23.803-21.325,18.916-36.643C53.84,33.531,45.956,26.226,36.116,23.814z
				 M36.083,73.805c-11.951,3.813-24.776-2.807-28.589-14.758c-2.581-8.088-0.47-16.871,5.507-22.921
				c0.838-0.848,1.136-2.091,0.774-3.227L7.296,12.594l16.802-5.361l6.479,20.306c0.362,1.136,1.325,1.976,2.499,2.182
				c8.377,1.47,15.184,7.407,17.765,15.495C54.654,57.167,48.034,69.992,36.083,73.805z"/>
			<path class="st0" d="M33.568,50.227c-7.725,0.358-8.952-2.256-17.183-1.429c-1.443,0.145-3.1,0.396-4.861,0.766
				c-0.357,2.559-0.161,5.235,0.677,7.861c2.99,9.372,13.012,14.545,22.383,11.555c9.259-2.954,14.414-12.771,11.654-22.044
				C42.719,48.673,38.585,49.994,33.568,50.227z"/>
		</g>
	</g>
	<g>
		<g>
			<path class="st0" d="M113.639,13.266c-0.288,2.305-0.637,4.512-1.044,6.623c-0.408,2.113-0.9,4.201-1.477,6.266h29.664
				c0.768,0,1.332,0.264,1.692,0.791c0.36,0.529,0.54,1.092,0.54,1.691c0,0.602-0.192,1.166-0.576,1.693
				c-0.385,0.527-0.936,0.791-1.656,0.791h-31.176c-2.448,7.248-5.845,14.076-10.188,20.484c-4.345,6.408-9.565,12.756-15.66,19.045
				c-0.529,0.527-1.069,0.791-1.62,0.791c-0.553,0-1.021-0.145-1.404-0.432c-0.385-0.289-0.624-0.674-0.72-1.152
				c-0.097-0.48,0.072-0.936,0.504-1.367c5.04-5.664,9.371-11.568,12.996-17.713c3.624-6.143,6.539-12.695,8.748-19.656h-13.68
				c-0.721,0-1.321-0.143-1.801-0.432c-0.48-0.287-0.853-0.648-1.115-1.08c-0.265-0.432-0.433-0.887-0.505-1.367
				c-0.071-0.48-0.061-0.938,0.036-1.369l3.889-10.943c0.288-1.152,0.888-1.932,1.8-2.34c0.911-0.408,1.8-0.516,2.664-0.324
				s1.548,0.66,2.052,1.404s0.516,1.645,0.036,2.699l-3.456,8.209c-0.049,0.096-0.036,0.215,0.036,0.359s0.203,0.217,0.396,0.217
				h11.017c1.151-4.32,2.016-8.809,2.592-13.465c0.144-1.344,0.636-2.279,1.476-2.809c0.84-0.527,1.716-0.73,2.628-0.611
				c0.912,0.121,1.729,0.529,2.448,1.225S113.783,12.114,113.639,13.266z M106.007,49.842c-0.529-0.479-0.781-1.008-0.756-1.584
				c0.023-0.576,0.216-1.068,0.575-1.477c0.36-0.406,0.828-0.635,1.404-0.684c0.576-0.047,1.152,0.168,1.729,0.648
				c1.584,1.393,3.143,2.664,4.68,3.816c1.535,1.15,3.048,2.207,4.536,3.168c1.487-1.152,2.952-2.377,4.392-3.674
				c1.44-1.295,2.855-2.639,4.248-4.031c0.576-0.576,0.815-1.08,0.72-1.512c-0.097-0.432-0.552-0.648-1.367-0.648h-16.992
				c-0.769,0-1.345-0.252-1.729-0.756c-0.385-0.504-0.576-1.068-0.576-1.691s0.191-1.188,0.576-1.691
				c0.384-0.506,0.96-0.758,1.729-0.758h21.888c1.44,0,2.592,0.314,3.456,0.938s1.464,1.404,1.8,2.34s0.36,1.943,0.072,3.023
				s-0.864,2.076-1.729,2.988c-2.832,2.832-6.407,5.832-10.728,9c3.215,1.824,6.455,3.432,9.72,4.824
				c3.264,1.393,6.743,2.783,10.44,4.176c1.151,0.432,1.847,1.176,2.088,2.232c0.239,1.055,0.155,2.074-0.252,3.059
				c-0.408,0.984-1.104,1.752-2.088,2.305c-0.984,0.551-2.149,0.492-3.492-0.18c-4.032-1.969-7.801-3.984-11.304-6.049
				c-3.505-2.063-6.937-4.344-10.296-6.84c-3.744,2.449-7.801,4.801-12.168,7.057c-4.369,2.256-9,4.344-13.896,6.264
				c-0.769,0.289-1.429,0.289-1.979,0c-0.553-0.287-0.949-0.684-1.188-1.188c-0.241-0.504-0.288-1.045-0.144-1.621
				c0.144-0.576,0.527-1.008,1.151-1.295c4.512-2.113,8.664-4.199,12.456-6.264c3.791-2.064,7.416-4.32,10.872-6.77
				c-1.296-1.104-2.592-2.242-3.888-3.42C108.671,52.374,107.35,51.137,106.007,49.842z M123.647,11.899
				c2.448,1.248,4.464,2.34,6.048,3.275s2.928,1.813,4.032,2.627c1.008,0.721,1.487,1.561,1.44,2.521
				c-0.049,0.961-0.385,1.764-1.009,2.412c-0.624,0.646-1.429,1.008-2.412,1.08c-0.984,0.07-1.933-0.396-2.844-1.404
				c-0.912-1.104-1.956-2.305-3.132-3.6c-1.177-1.297-2.532-2.641-4.068-4.033c-0.336-0.287-0.492-0.648-0.468-1.08
				c0.023-0.432,0.155-0.803,0.396-1.115c0.239-0.313,0.54-0.551,0.899-0.721C122.891,11.694,123.262,11.708,123.647,11.899z"/>
			<path class="st0" d="M153.023,64.567c-0.385-0.264-0.673-0.613-0.864-1.045c-0.192-0.432-0.24-0.875-0.144-1.332
				c0.096-0.455,0.384-0.803,0.864-1.043c2.351-1.152,4.716-2.377,7.092-3.674c2.376-1.295,4.668-2.639,6.876-4.031
				c2.207-1.391,4.284-2.809,6.228-4.248c1.944-1.439,3.66-2.879,5.148-4.32c0.911-0.863,1.823-1.26,2.736-1.188
				c0.911,0.072,1.644,0.42,2.195,1.045c0.552,0.623,0.828,1.416,0.828,2.375c0,0.961-0.457,1.848-1.368,2.664
				c-1.2,1.105-2.771,2.256-4.716,3.457c-1.944,1.199-4.152,2.436-6.624,3.707c-2.473,1.271-5.137,2.557-7.992,3.852
				c-2.856,1.297-5.82,2.568-8.892,3.816C153.862,64.842,153.407,64.831,153.023,64.567z M209.435,31.518
				c0.407-0.504,0.612-1.045,0.612-1.619c0-0.576-0.205-1.117-0.612-1.621c-0.408-0.504-0.997-0.756-1.764-0.756h-18.937v-5.76
				h22.681c0.767,0,1.355-0.252,1.764-0.756c0.407-0.504,0.612-1.055,0.612-1.656c0-0.6-0.205-1.152-0.612-1.656
				c-0.408-0.504-0.997-0.756-1.764-0.756h-22.681v-3.959c0-1.199-0.372-2.1-1.116-2.701c-0.744-0.6-1.548-0.9-2.411-0.9
				c-0.864,0-1.669,0.301-2.412,0.9c-0.745,0.602-1.116,1.502-1.116,2.701v3.959h-22.68c-0.769,0-1.345,0.252-1.729,0.756
				c-0.385,0.504-0.576,1.057-0.576,1.656c0,0.602,0.191,1.152,0.576,1.656c0.384,0.504,0.96,0.756,1.729,0.756h22.68v5.76h-18.937
				c-0.768,0-1.344,0.252-1.728,0.756c-0.385,0.504-0.576,1.045-0.576,1.621c0,0.574,0.191,1.115,0.576,1.619
				c0.384,0.504,0.96,0.756,1.728,0.756h18.937v5.977h-25.272c-0.768,0-1.356,0.252-1.764,0.756
				c-0.408,0.504-0.612,1.057-0.612,1.656s0.191,1.152,0.576,1.656c0.384,0.504,0.983,0.756,1.8,0.756h57.528
				c0.768,0,1.355-0.252,1.764-0.756c0.407-0.504,0.612-1.057,0.612-1.656s-0.205-1.152-0.612-1.656
				c-0.408-0.504-0.996-0.756-1.764-0.756h-25.2v-5.977h18.937C208.438,32.274,209.027,32.022,209.435,31.518z M189.311,62.298
				c0.432,0.289,0.72,0.66,0.864,1.117c0.144,0.457,0.107,0.924-0.108,1.404s-0.637,0.84-1.26,1.08
				c-1.729,0.623-3.276,1.211-4.645,1.764c-1.367,0.551-2.592,1.104-3.672,1.656c-1.08,0.551-2.028,1.115-2.844,1.691
				c-0.816,0.576-1.561,1.225-2.231,1.943c-0.673,0.672-1.357,1.068-2.053,1.188c-0.696,0.121-1.332,0.037-1.908-0.252
				c-0.575-0.287-1.056-0.768-1.439-1.439c-0.385-0.672-0.576-1.439-0.576-2.303v-8.93c0-1.15,0.371-2.016,1.116-2.592
				c0.743-0.576,1.56-0.863,2.448-0.863c0.888,0,1.703,0.301,2.447,0.9s1.116,1.5,1.116,2.699v2.664
				c0,0.529,0.264,0.744,0.792,0.648c1.824-0.385,3.528-0.779,5.112-1.187s3.359-0.877,5.328-1.404
				C188.375,61.938,188.879,62.01,189.311,62.298z M206.339,67.231c-2.473-1.514-4.896-3.18-7.272-5.004
				c-2.376-1.824-4.656-3.805-6.84-5.941c-2.185-2.135-4.165-4.355-5.94-6.66c-0.385-0.527-0.54-1.043-0.468-1.547
				s0.288-0.9,0.648-1.189c0.359-0.287,0.803-0.432,1.332-0.432c0.527,0,1.008,0.217,1.439,0.648
				c2.063,2.16,4.151,4.094,6.265,5.797c2.111,1.703,4.271,3.238,6.479,4.607c2.207,1.367,4.464,2.617,6.769,3.744
				c2.304,1.129,4.703,2.195,7.199,3.203c1.199,0.48,1.944,1.178,2.232,2.088c0.288,0.912,0.252,1.775-0.108,2.592
				c-0.359,0.816-0.948,1.465-1.764,1.945c-0.816,0.479-1.681,0.504-2.592,0.072C211.271,70.049,208.811,68.743,206.339,67.231z
				 M201.659,55.35c-0.408-0.168-0.732-0.42-0.972-0.756c-0.24-0.336-0.36-0.721-0.36-1.152s0.191-0.816,0.576-1.152
				c1.104-0.959,2.1-1.848,2.988-2.664c0.888-0.814,1.812-1.775,2.771-2.879c0.816-1.008,1.68-1.441,2.593-1.297
				c0.911,0.145,1.655,0.553,2.231,1.225s0.852,1.477,0.828,2.412c-0.024,0.936-0.54,1.691-1.548,2.268
				c-1.249,0.721-2.425,1.367-3.528,1.943c-1.104,0.576-2.496,1.225-4.176,1.945C202.535,55.483,202.066,55.518,201.659,55.35z"/>
			<path class="st0" d="M228.695,24.571c0-1.199,0.36-2.088,1.08-2.664s1.512-0.865,2.376-0.865s1.656,0.289,2.376,0.865
				s1.08,1.465,1.08,2.664v44.424c0,1.248-0.36,2.17-1.08,2.771c-0.72,0.6-1.512,0.9-2.376,0.9s-1.656-0.301-2.376-0.9
				c-0.72-0.602-1.08-1.523-1.08-2.771V24.571z M237.911,45.27c-0.432-0.504-0.647-1.043-0.647-1.619s0.216-1.117,0.647-1.621
				c0.433-0.504,1.056-0.756,1.872-0.756h7.633V28.53c0-0.863-0.288-1.535-0.864-2.016c-0.576-0.479-1.321-0.721-2.232-0.721h-4.536
				c-0.768,0-1.344-0.227-1.728-0.684c-0.385-0.455-0.601-0.973-0.648-1.547c-0.048-0.576,0.084-1.117,0.396-1.621
				c0.312-0.504,0.803-0.803,1.476-0.9c0.191-1.342,0.348-2.746,0.468-4.211s0.204-2.557,0.253-3.277
				c0.047-1.342,0.491-2.303,1.331-2.879s1.716-0.793,2.629-0.648c0.911,0.145,1.68,0.625,2.304,1.439
				c0.623,0.818,0.768,1.922,0.432,3.313c-0.24,0.816-0.576,1.74-1.008,2.771c-0.432,1.033-0.984,2.174-1.656,3.42h3.816
				c2.399,0,4.068,0.613,5.004,1.836c0.936,1.225,1.404,2.701,1.404,4.43v35.279c0,1.682-0.444,3.023-1.332,4.031
				c-0.889,1.008-2.461,1.512-4.716,1.512h-8.425c-0.816,0-1.416-0.252-1.8-0.756c-0.385-0.504-0.576-1.055-0.576-1.654
				s0.191-1.152,0.576-1.656c0.384-0.504,0.983-0.756,1.8-0.756h7.633V46.026h-7.633C238.966,46.026,238.343,45.774,237.911,45.27z
				 M255.839,35.479c0.191,0.504,0.491,0.863,0.899,1.078c0.407,0.217,0.864,0.277,1.368,0.182s0.972-0.457,1.404-1.08
				c2.016-3.025,3.815-6.252,5.399-9.686c1.584-3.43,2.881-7.307,3.889-11.627c0.288-1.297,0.107-2.352-0.54-3.168
				c-0.648-0.816-1.44-1.307-2.376-1.477c-0.937-0.168-1.861,0.025-2.772,0.576c-0.912,0.553-1.465,1.525-1.656,2.916
				c-0.672,4.129-1.476,7.885-2.411,11.268c-0.937,3.385-1.98,6.518-3.133,9.396C255.67,34.434,255.647,34.973,255.839,35.479z
				 M264.155,43.651c-0.792-1.873-1.524-3.504-2.195-4.896c-0.192-0.432-0.217-0.852-0.072-1.26c0.144-0.408,0.384-0.744,0.72-1.008
				c0.335-0.264,0.731-0.396,1.188-0.396c0.455,0,0.899,0.215,1.332,0.648c3.312,3.359,5.951,6.551,7.92,9.576
				c0.72,1.104,0.875,2.158,0.468,3.168c-0.408,1.008-1.057,1.764-1.944,2.268c-0.889,0.504-1.836,0.648-2.844,0.432
				s-1.728-0.973-2.16-2.268C265.75,47.61,264.947,45.522,264.155,43.651z M275.675,73.674c-0.696-0.336-1.093-0.84-1.188-1.512
				c-0.144-0.865-0.468-1.549-0.972-2.053s-1.188-0.9-2.052-1.188c-0.864-0.289-1.897-0.504-3.097-0.648
				c-1.2-0.145-2.544-0.287-4.031-0.432c-0.529-0.049-0.925-0.277-1.188-0.684c-0.265-0.408-0.385-0.84-0.36-1.297
				c0.024-0.455,0.191-0.863,0.505-1.225c0.312-0.359,0.779-0.539,1.403-0.539c1.056,0.049,2.136,0.072,3.24,0.072
				c1.104,0,2.135-0.023,3.096-0.072c0.96-0.047,1.824-0.145,2.593-0.287c0.767-0.145,1.392-0.361,1.871-0.648
				c0.96-0.576,1.692-1.645,2.196-3.205c0.504-1.559,0.875-3.754,1.116-6.588c0.239-2.832,0.384-6.348,0.432-10.547
				c0.048-4.201,0.072-9.182,0.072-14.941c0-0.766-0.156-1.332-0.468-1.691c-0.313-0.359-0.9-0.539-1.765-0.539h-6.695
				c-0.769,0-1.345-0.252-1.729-0.756c-0.385-0.506-0.576-1.057-0.576-1.656s0.191-1.152,0.576-1.656
				c0.384-0.504,0.96-0.756,1.729-0.756h10.8c1.056,0,1.919,0.168,2.592,0.504c0.672,0.336,1.212,0.791,1.62,1.367
				c0.407,0.576,0.684,1.225,0.828,1.943c0.144,0.721,0.216,1.441,0.216,2.16c0,7.297-0.072,13.563-0.216,18.793
				c-0.145,5.232-0.504,9.672-1.08,13.32s-1.429,6.611-2.556,8.891c-1.129,2.279-2.653,4.092-4.572,5.438
				C277.151,73.866,276.371,74.01,275.675,73.674z"/>
			<path class="st0" d="M325.463,24.93c0-1.152,0.396-2.016,1.188-2.592s1.656-0.865,2.592-0.865c0.937,0,1.801,0.289,2.593,0.865
				s1.188,1.439,1.188,2.592v18.576h26.424c0.864,0,1.513,0.277,1.944,0.828c0.432,0.553,0.647,1.152,0.647,1.799
				c0,0.648-0.216,1.236-0.647,1.766c-0.432,0.527-1.08,0.791-1.944,0.791h-26.424v21.744c0,1.199-0.396,2.1-1.188,2.699
				s-1.656,0.9-2.593,0.9c-0.936,0-1.8-0.301-2.592-0.9s-1.188-1.5-1.188-2.699V48.69h-26.425c-0.816,0-1.429-0.264-1.836-0.791
				c-0.408-0.529-0.611-1.117-0.611-1.766c0-0.646,0.203-1.246,0.611-1.799c0.407-0.551,1.02-0.828,1.836-0.828h26.425V24.93z
				 M302.927,19.385c-0.769,0-1.345-0.262-1.729-0.791c-0.385-0.527-0.575-1.115-0.575-1.764s0.19-1.236,0.575-1.764
				c0.384-0.529,0.96-0.793,1.729-0.793h52.632c0.815,0,1.428,0.264,1.836,0.793c0.407,0.527,0.612,1.115,0.612,1.764
				s-0.205,1.236-0.612,1.764c-0.408,0.529-1.021,0.791-1.836,0.791H302.927z M308.255,23.995c2.016,1.775,3.646,3.287,4.896,4.535
				c1.248,1.25,2.399,2.496,3.456,3.744c1.008,1.201,1.368,2.4,1.08,3.6c-0.288,1.201-0.876,2.148-1.764,2.844
				c-0.889,0.697-1.908,0.973-3.061,0.828c-1.151-0.143-2.088-0.982-2.808-2.52c-0.769-1.68-1.548-3.299-2.34-4.859
				c-0.792-1.561-1.717-3.301-2.772-5.221c-0.288-0.576-0.372-1.127-0.252-1.656c0.119-0.527,0.371-0.947,0.756-1.26
				c0.384-0.311,0.84-0.492,1.368-0.539C307.342,23.442,307.823,23.61,308.255,23.995z M343.535,38.538
				c-0.575,0.432-1.151,0.648-1.728,0.648s-1.068-0.168-1.477-0.504s-0.66-0.768-0.756-1.297c-0.097-0.527,0.072-1.104,0.504-1.727
				c1.009-1.441,1.884-2.855,2.629-4.248c0.743-1.393,1.595-3.096,2.556-5.113c0.432-0.91,0.983-1.547,1.656-1.908
				c0.671-0.359,1.367-0.514,2.088-0.467c0.72,0.049,1.392,0.287,2.016,0.719c0.623,0.434,1.092,0.984,1.404,1.656
				c0.312,0.674,0.419,1.404,0.324,2.197c-0.097,0.791-0.529,1.619-1.297,2.484c-1.393,1.535-2.699,2.904-3.924,4.104
				C346.307,36.282,344.975,37.434,343.535,38.538z"/>
			<path class="st0" d="M373.559,30.69c2.063-1.535,3.972-3.047,5.724-4.535s3.42-2.988,5.004-4.5
				c1.584-1.514,3.097-3.061,4.536-4.645c1.44-1.584,2.904-3.264,4.393-5.041c0.911-1.104,1.919-1.643,3.023-1.619
				c1.104,0.025,2.027,0.35,2.772,0.973c0.743,0.623,1.224,1.451,1.439,2.482c0.217,1.033-0.084,2.006-0.899,2.916
				c-0.912,1.01-2.088,2.16-3.528,3.457c-1.439,1.295-3.023,2.604-4.752,3.924c-1.728,1.32-3.517,2.617-5.364,3.889
				s-3.636,2.389-5.363,3.348c2.88,0,5.927-0.037,9.144-0.107c3.215-0.072,6.396-0.145,9.54-0.217c3.144-0.072,6.144-0.156,9-0.252
				c2.855-0.096,5.339-0.217,7.452-0.359c0.864-0.049,1.499,0.133,1.908,0.539c0.407,0.408,0.636,0.877,0.684,1.404
				c0.047,0.529-0.084,1.033-0.396,1.512c-0.313,0.48-0.781,0.768-1.404,0.863c-1.969,0.289-4.345,0.59-7.128,0.9
				c-2.784,0.313-5.881,0.625-9.288,0.936c-3.409,0.314-7.104,0.625-11.088,0.938c-3.985,0.313-8.161,0.611-12.528,0.9
				c-1.104,0.096-2.041-0.133-2.808-0.686c-0.769-0.551-1.296-1.246-1.584-2.088c-0.288-0.838-0.313-1.727-0.072-2.664
				C372.214,32.022,372.743,31.266,373.559,30.69z M383.567,70.147c0,1.15-0.385,2.002-1.151,2.555
				c-0.769,0.551-1.597,0.828-2.484,0.828c-0.889,0-1.717-0.277-2.484-0.828c-0.769-0.553-1.151-1.404-1.151-2.555V47.538
				c0-1.152,0.383-2.004,1.151-2.555c0.768-0.553,1.596-0.828,2.484-0.828c0.888,0,1.716,0.275,2.484,0.828
				c0.767,0.551,1.151,1.402,1.151,2.555V70.147z M419.207,44.155c4.654,0,6.983,2.328,6.983,6.982V69.93
				c0,0.863-0.265,1.596-0.792,2.195c-0.528,0.6-1.152,1.008-1.872,1.225s-1.452,0.264-2.196,0.145
				c-0.744-0.121-1.308-0.469-1.691-1.045c-0.576-0.816-1.116-1.439-1.62-1.871s-0.997-0.756-1.476-0.973
				c-0.48-0.217-0.961-0.348-1.44-0.396c-0.48-0.047-0.961-0.072-1.44-0.072h-25.848c-0.816,0-1.416-0.264-1.8-0.791
				c-0.385-0.529-0.576-1.105-0.576-1.729s0.191-1.199,0.576-1.729c0.384-0.527,0.983-0.791,1.8-0.791h31.032V52.075
				c0-1.92-0.961-2.881-2.88-2.881h-28.152c-0.816,0-1.429-0.264-1.836-0.791c-0.408-0.529-0.612-1.104-0.612-1.729
				c0-0.623,0.204-1.199,0.612-1.729c0.407-0.527,1.02-0.791,1.836-0.791H419.207z M425.255,38.465
				c-1.009-1.584-1.993-3.059-2.952-4.428c-0.961-1.367-1.921-2.711-2.88-4.031c-0.961-1.32-1.98-2.639-3.061-3.961
				c-1.08-1.318-2.221-2.746-3.42-4.283c-0.48-0.576-0.684-1.127-0.612-1.656c0.072-0.527,0.288-0.973,0.648-1.332
				s0.815-0.551,1.368-0.576c0.551-0.023,1.091,0.18,1.62,0.613c1.487,1.344,3.023,2.76,4.607,4.246
				c1.584,1.49,3.084,2.916,4.5,4.285c1.416,1.367,2.688,2.617,3.816,3.744c1.127,1.129,1.979,2.004,2.556,2.627
				c0.576,0.625,0.888,1.297,0.937,2.018c0.047,0.719-0.072,1.393-0.36,2.016s-0.696,1.164-1.224,1.619
				c-0.529,0.457-1.116,0.756-1.765,0.9c-0.647,0.145-1.308,0.084-1.979-0.18C426.382,39.823,425.783,39.284,425.255,38.465z"/>
		</g>
	</g>
</g>
</svg>