<!-- Generator: Adobe Illustrator 24.0.1, SVG Export Plug-In  -->
<svg version="1.1" xmlns="http://www.w3.org/2000/svg" xmlns:xlink="http://www.w3.org/1999/xlink" x="0px" y="0px"
	 width="500.753px" height="981.048px" viewBox="0 0 500.753 981.048" style="enable-background:new 0 0 500.753 981.048;"
	 xml:space="preserve">
<style type="text/css">
	.st0{fill:#FFFFFF;stroke:#1C3B94;stroke-width:19.4763;stroke-linecap:round;stroke-linejoin:round;stroke-miterlimit:10;}
	.st1{fill:none;}
	.st2{fill:#1C3B94;}
	.st3{fill:#BF2222;}
	.st4{font-family:'HYQiuShi-W';}
	.st5{font-size:146px;}
	.st6{letter-spacing:7;}
</style>
<defs>
</defs>
<rect x="9.738" y="9.738" class="st0" width="481.277" height="961.572"/>
<g>
	<rect x="25.407" y="106.281" class="st1" width="449.94" height="773.902"/>
	<path class="st2" d="M134.307,139.716c0-2.14-0.171-4.088-0.511-5.84c-0.342-1.752-0.901-3.308-1.679-4.672
		c1.654-0.68,3.333-1.19,5.037-1.533c1.702-0.34,3.625-0.511,5.767-0.511c1.362,0,2.578,0.292,3.65,0.876
		c1.07,0.584,1.946,1.314,2.628,2.19h24.674c-0.098-0.292-0.146-0.778-0.146-1.46c0-1.946-0.146-3.99-0.438-6.132
		c-0.292-2.14-0.828-4.136-1.606-5.986c7.688,0,13.09,1.047,16.206,3.139c3.114,2.094,4.672,5.087,4.672,8.979
		c0,0.39-0.098,0.876-0.292,1.46h14.892c3.114,0,5.84-0.219,8.176-0.657s3.746-0.899,4.234-1.387c1.556,0,3.088,0.171,4.599,0.511
		c1.508,0.342,2.847,0.803,4.015,1.387c1.168,0.584,2.117,1.266,2.847,2.044c0.73,0.78,1.095,1.558,1.095,2.336
		c0,1.072-0.292,1.85-0.876,2.336c-0.584,0.488-1.656,0.73-3.212,0.73c-0.78,0-1.631-0.048-2.555-0.146
		c-0.926-0.096-2.142-0.219-3.65-0.365c-1.51-0.146-3.431-0.267-5.767-0.365c-2.336-0.096-5.306-0.146-8.906-0.146h-57.232
		c-0.196,1.168-0.365,2.507-0.511,4.015c-0.146,1.51-0.219,3.285-0.219,5.329v33.434c0,10.417-0.755,19.418-2.263,27.01
		c-1.51,7.592-3.602,13.847-6.278,18.761c-2.678,4.916-5.865,8.564-9.563,10.95c-3.7,2.384-7.789,3.577-12.264,3.577
		c2.724-3.603,5.037-7.227,6.935-10.877c1.898-3.65,3.431-7.494,4.599-11.534c1.168-4.038,2.044-8.345,2.628-12.921
		c0.584-4.574,0.972-9.538,1.168-14.892c-1.072,2.336-2.19,4.599-3.358,6.789s-2.409,4.113-3.723,5.767
		c-1.314,1.656-2.605,2.993-3.869,4.015c-1.266,1.022-2.482,1.533-3.65,1.533c-2.142,0-3.894-1.07-5.256-3.212
		c-1.364-2.14-2.044-5.936-2.044-11.388c0.876,0,2.092-0.388,3.65-1.168c1.556-0.778,3.333-1.873,5.329-3.285
		c1.994-1.41,4.111-3.089,6.351-5.037c2.238-1.946,4.476-4.088,6.716-6.424V139.716z M124.232,170.96
		c-2.24,0-4.113-0.851-5.621-2.555c-1.51-1.702-2.263-3.819-2.263-6.351c0-1.46-0.05-3.114-0.146-4.964
		c-0.098-1.848-0.292-3.746-0.584-5.694c-0.292-1.946-0.708-3.844-1.241-5.694c-0.536-1.848-1.241-3.504-2.117-4.964
		c2.92,0.196,5.571,1.022,7.957,2.482c2.384,1.46,4.403,3.212,6.059,5.256c1.654,2.044,2.943,4.284,3.869,6.716
		c0.924,2.434,1.387,4.722,1.387,6.862c0,2.532-0.682,4.649-2.044,6.351C128.124,170.109,126.373,170.96,124.232,170.96z
		 M219.863,238.557c-3.992-0.098-8.347-0.999-13.067-2.701c-4.722-1.704-9.661-4.357-14.819-7.957
		c-3.116,1.752-6.351,3.358-9.709,4.818s-6.887,2.724-10.585,3.796c-4.576,1.264-9.004,2.092-13.286,2.482
		c-4.284,0.388-8.906,0.584-13.87,0.584c5.84-2.143,12.02-4.941,18.542-8.395c6.52-3.454,12.75-7.373,18.688-11.753
		c-3.116-3.016-6.205-6.351-9.271-10.001c-3.066-3.65-6.157-7.761-9.271-12.337c0.972-0.584,2.044-1.095,3.212-1.533
		s2.53-0.657,4.088-0.657c1.654,0,3.041,0.342,4.161,1.022c1.118,0.682,1.971,1.412,2.555,2.19c2.53,2.628,4.987,5.014,7.373,7.154
		c2.384,2.142,4.793,4.088,7.227,5.84c3.406-3.114,6.399-6.278,8.979-9.49c2.578-3.212,4.599-6.52,6.059-9.928H163.36
		c-1.558,0-2.653-0.559-3.285-1.679c-0.634-1.118-0.949-2.993-0.949-5.621c1.07,0.292,2.895,0.536,5.475,0.73
		c2.578,0.196,4.939,0.292,7.081,0.292h25.842c2.432,0,4.818-0.242,7.154-0.73c2.336-0.486,4.136-1.264,5.402-2.336
		c1.848,0,3.6,0.196,5.256,0.584c1.654,0.39,3.089,0.974,4.307,1.752c1.216,0.78,2.165,1.752,2.847,2.92
		c0.68,1.168,0.924,2.532,0.73,4.088c-0.488,3.796-2.336,8.103-5.548,12.921c-3.212,4.818-7.544,9.563-12.994,14.235
		c5.06,2.336,9.951,3.967,14.673,4.891c4.72,0.926,9.319,1.387,13.797,1.387c-0.098,3.894-1.168,7.129-3.212,9.709
		C227.893,237.412,224.535,238.654,219.863,238.557z M189.787,147.015c1.362,0,2.749-0.146,4.161-0.438
		c1.41-0.292,2.749-0.68,4.015-1.168c1.46-0.388,2.92-0.924,4.38-1.606c1.848,0,3.625,0.146,5.329,0.438
		c1.702,0.292,3.235,0.78,4.599,1.46c1.362,0.682,2.457,1.533,3.285,2.555c0.826,1.022,1.241,2.313,1.241,3.869
		c0,1.072-0.171,2.386-0.511,3.942c-0.342,1.558-0.511,3.894-0.511,7.008v1.46c0,1.558,0.169,2.653,0.511,3.285
		c0.34,0.634,1.045,0.949,2.117,0.949h3.358c1.556,0,3.041-0.242,4.453-0.73c1.41-0.486,2.359-0.972,2.847-1.46
		c0.876,1.072,1.606,2.336,2.19,3.796s0.876,3.018,0.876,4.672c0,1.558-0.561,2.799-1.679,3.723
		c-1.12,0.926-2.993,1.387-5.621,1.387h-10.95c-4.672,0-8.103-1.07-10.293-3.212c-2.19-2.14-3.285-5.596-3.285-10.366v-13.432
		h-20.294v4.234c0,5.452-0.974,9.855-2.92,13.213c-1.948,3.358-4.307,5.938-7.081,7.738c-2.774,1.802-5.744,2.993-8.906,3.577
		c-3.164,0.584-5.913,0.876-8.249,0.876c3.308-2.53,6.132-6.059,8.468-10.585c2.336-4.526,3.504-9.465,3.504-14.819v-1.022
		c0-1.46-0.098-2.822-0.292-4.088c-0.196-1.07-0.438-2.213-0.73-3.431c-0.292-1.216-0.682-2.213-1.168-2.993
		c1.07-0.486,2.336-0.949,3.796-1.387s3.504-0.657,6.132-0.657c1.752,0,3.187,0.292,4.307,0.876c1.118,0.584,1.92,1.364,2.409,2.336
		H189.787z"/>
	<path class="st2" d="M269.21,187.458c-1.948-0.486-3.335-1.994-4.161-4.526c-0.828-2.53-0.803-5.352,0.073-8.468
		c0.388-1.46,0.898-3.381,1.533-5.767c0.632-2.384,1.241-4.964,1.825-7.738s0.997-5.644,1.241-8.614
		c0.242-2.968,0.219-5.815-0.073-8.541c1.946,1.46,3.6,3.504,4.964,6.132c1.362,2.628,2.457,5.525,3.285,8.687
		c0.826,3.164,1.337,6.449,1.533,9.855c0.194,3.408,0.096,6.668-0.292,9.782c-0.488,3.796-1.777,6.401-3.869,7.811
		C273.175,187.483,271.156,187.946,269.21,187.458z M297.096,231.258c0,2.628-0.488,4.672-1.46,6.132
		c-0.974,1.46-2.58,2.19-4.818,2.19c-3.116,0-5.452-1.022-7.008-3.066c-1.558-2.044-2.532-4.088-2.92-6.132
		c0.486-0.486,0.899-1.483,1.241-2.993c0.34-1.508,0.511-3.285,0.511-5.329v-90.812c0-2.044-0.124-3.942-0.365-5.694
		c-0.244-1.752-0.707-3.308-1.387-4.672c2.92-1.362,6.228-2.044,9.928-2.044c1.848,0,3.527,0.511,5.037,1.533
		c1.508,1.022,2.263,2.605,2.263,4.745c0,1.072-0.171,2.482-0.511,4.234c-0.342,1.752-0.511,4.479-0.511,8.176v3.65
		c1.848,0.292,3.673,0.755,5.475,1.387c1.8,0.634,3.381,1.46,4.745,2.482c1.362,1.022,2.505,2.336,3.431,3.942
		c0.924,1.606,1.482,3.529,1.679,5.767c0.194,2.24-0.244,4.234-1.314,5.986c-1.072,1.752-2.482,2.726-4.234,2.92
		c-2.142,0.196-3.773-0.559-4.891-2.263c-1.12-1.702-1.777-3.527-1.971-5.475c-0.196-2.238-0.463-4.209-0.803-5.913
		c-0.342-1.702-1.047-3.431-2.117-5.183V231.258z M367.176,131.54c2.14,0,3.942-0.242,5.402-0.73c1.46-0.486,2.432-0.972,2.92-1.46
		c1.07,0,2.212,0.124,3.431,0.365c1.216,0.244,2.359,0.609,3.431,1.095c1.07,0.488,1.946,1.047,2.628,1.679
		c0.68,0.634,1.022,1.339,1.022,2.117c0,2.044-1.412,3.066-4.234,3.066h-25.258v0.584v9.928h9.052c2.14,0,3.942-0.219,5.402-0.657
		s2.432-0.899,2.92-1.387c1.07,0,2.212,0.124,3.431,0.365c1.216,0.244,2.359,0.584,3.431,1.022c1.07,0.438,1.946,0.974,2.628,1.606
		c0.68,0.634,1.022,1.339,1.022,2.117c0,1.072-0.292,1.875-0.876,2.409c-0.584,0.536-1.704,0.803-3.358,0.803h-23.652v10.366h13.286
		c2.044,0,3.819-0.219,5.329-0.657c1.508-0.438,2.505-0.899,2.993-1.387c1.07,0,2.213,0.124,3.431,0.365
		c1.216,0.244,2.336,0.584,3.358,1.022s1.873,0.999,2.555,1.679c0.68,0.682,1.022,1.412,1.022,2.19c0,1.072-0.292,1.85-0.876,2.336
		c-0.584,0.488-1.656,0.73-3.212,0.73h-70.372c-1.558,0-2.628-0.559-3.212-1.679c-0.584-1.118-0.876-2.993-0.876-5.621
		c1.07,0.292,2.895,0.536,5.475,0.73c2.578,0.196,4.939,0.292,7.081,0.292h17.812v-10.366h-21.17c-1.558,0-2.628-0.584-3.212-1.752
		s-0.876-3.016-0.876-5.548c0.584,0.196,1.362,0.342,2.336,0.438c0.972,0.098,2.044,0.196,3.212,0.292
		c1.168,0.098,2.358,0.171,3.577,0.219c1.216,0.05,2.359,0.073,3.431,0.073h12.702l0.146-10.512h-24.09
		c-1.558,0-2.628-0.559-3.212-1.679c-0.584-1.118-0.876-2.993-0.876-5.621c0.486,0.196,1.216,0.365,2.19,0.511
		c0.972,0.146,2.044,0.269,3.212,0.365c1.168,0.098,2.359,0.171,3.577,0.219c1.216,0.05,2.359,0.073,3.431,0.073h15.768
		c-0.196-3.99-0.876-7.202-2.044-9.636c3.308-1.362,7.056-2.044,11.242-2.044c2.14,0,3.99,0.511,5.548,1.533
		c1.556,1.022,2.336,2.605,2.336,4.745c0,0.682-0.073,1.412-0.219,2.19c-0.146,0.78-0.317,1.85-0.511,3.212H367.176z
		 M367.614,239.58c-1.656-0.488-3.212-1.292-4.672-2.409c-1.46-1.12-2.847-2.409-4.161-3.869s-2.507-2.993-3.577-4.599
		c-1.072-1.606-2.044-3.139-2.92-4.599c1.556,0.196,3.235,0.415,5.037,0.657c1.8,0.244,3.527,0.365,5.183,0.365
		c1.556,0,2.628-0.365,3.212-1.095s0.876-2.067,0.876-4.015v-3.212h-35.04v14.454c0,2.53-0.536,4.549-1.606,6.059
		c-1.072,1.508-2.726,2.263-4.964,2.263c-3.116,0-5.5-1.022-7.154-3.066c-1.656-2.044-2.726-4.088-3.212-6.132
		c0.486-0.486,0.924-1.483,1.314-2.993c0.388-1.508,0.584-3.285,0.584-5.329v-34.018c0-4.282-0.634-7.738-1.898-10.366
		c1.362-0.68,2.87-1.191,4.526-1.533c1.654-0.34,3.6-0.511,5.84-0.511c3.504,0,5.79,1.12,6.862,3.358h21.462
		c2.238,0,4.257-0.146,6.059-0.438c1.8-0.292,3.333-0.632,4.599-1.022c1.46-0.388,2.774-0.924,3.942-1.606
		c1.556,0,3.212,0.146,4.964,0.438c1.752,0.292,3.358,0.803,4.818,1.533s2.676,1.679,3.65,2.847c0.972,1.168,1.46,2.678,1.46,4.526
		c0,1.072-0.196,2.605-0.584,4.599c-0.39,1.996-0.584,4.259-0.584,6.789v28.47c0,1.752-0.342,3.504-1.022,5.256
		c-0.682,1.752-1.631,3.308-2.847,4.672c-1.218,1.362-2.701,2.457-4.453,3.285C371.556,239.164,369.658,239.58,367.614,239.58z
		 M331.552,194.904h35.04v-9.636H331.99c-0.098,1.072-0.196,2.288-0.292,3.65c-0.098,1.364-0.146,3.066-0.146,5.11V194.904z
		 M331.552,210.526h35.04v-9.344h-35.04V210.526z"/>
	<path class="st2" d="M113.721,328.765c0.68,0.292,1.8,0.511,3.358,0.657c1.556,0.146,3.162,0.269,4.818,0.365
		c-0.196-3.308-0.828-6.082-1.898-8.322c2.822-1.362,6.228-2.044,10.22-2.044c2.14,0,3.869,0.511,5.183,1.533
		c1.314,1.022,1.971,2.605,1.971,4.745c0,0.488-0.05,1.072-0.146,1.752c-0.098,0.682-0.244,1.46-0.438,2.336h17.374
		c-0.196-3.308-0.828-6.082-1.898-8.322c1.654-0.778,3.26-1.314,4.818-1.606c1.556-0.292,3.358-0.438,5.402-0.438
		c2.14,0,3.819,0.511,5.037,1.533c1.216,1.022,1.825,2.605,1.825,4.745c0,0.292,0,0.609,0,0.949c0,0.342-0.05,0.707-0.146,1.095
		c1.07,0,2.19,0.146,3.358,0.438s2.263,0.657,3.285,1.095s1.848,0.974,2.482,1.606c0.632,0.634,0.949,1.339,0.949,2.117
		c0,2.044-1.412,3.066-4.234,3.066h-6.862v2.19v63.072c0.68-0.194,1.314-0.584,1.898-1.168c1.07,0,2.213,0.124,3.431,0.365
		c1.216,0.244,2.359,0.584,3.431,1.022c1.07,0.438,1.946,0.999,2.628,1.679c0.68,0.682,1.022,1.412,1.022,2.19
		c0,1.072-0.292,1.85-0.876,2.336c-0.584,0.488-1.704,0.73-3.358,0.73h-60.59c-1.558,0-2.628-0.559-3.212-1.679
		c-0.584-1.118-0.876-2.993-0.876-5.621c0.876,0.292,2.336,0.536,4.38,0.73c2.044,0.196,4.038,0.292,5.986,0.292v-66.138h-4.234
		c-1.558,0-2.628-0.559-3.212-1.679C114.013,333.269,113.721,331.394,113.721,328.765z M141.314,416.949
		c0,1.364-0.634,3.262-1.898,5.694c-1.266,2.434-3.139,4.818-5.621,7.154s-5.525,4.38-9.125,6.132
		c-3.602,1.752-7.738,2.628-12.41,2.628c1.848-1.558,3.6-3.627,5.256-6.205c1.654-2.578,3.114-5.231,4.38-7.957
		c1.264-2.724,2.286-5.231,3.066-7.519c0.778-2.286,1.168-3.965,1.168-5.037c4.38,0,8.005,0.342,10.877,1.022
		C139.877,413.544,141.314,414.906,141.314,416.949z M136.351,354.608h17.958v-18.542h-17.958v2.19V354.608z M136.351,378.26h17.958
		v-17.374h-17.958V378.26z M136.351,402.203h17.958v-17.666h-17.958V402.203z M170.807,435.783
		c-1.948,1.362-4.015,1.654-6.205,0.876c-2.19-0.78-4.015-2.044-5.475-3.796c-0.876-0.974-1.656-2.24-2.336-3.796
		c-0.682-1.556-1.46-3.285-2.336-5.183s-1.875-3.844-2.993-5.84c-1.12-1.994-2.555-3.869-4.307-5.621
		c6.52,0.292,11.629,1.51,15.33,3.65c3.698,2.142,6.52,4.43,8.468,6.862c0.778,1.072,1.362,2.24,1.752,3.504
		c0.388,1.266,0.559,2.507,0.511,3.723c-0.05,1.216-0.292,2.336-0.73,3.358S171.486,435.295,170.807,435.783z M216.796,439.58
		c-1.168-0.584-2.58-1.51-4.234-2.774c-1.656-1.266-3.285-2.678-4.891-4.234c-1.606-1.558-3.139-3.187-4.599-4.891
		c-1.46-1.702-2.532-3.235-3.212-4.599c1.946,0.39,4.088,0.657,6.424,0.803s4.088,0.219,5.256,0.219
		c0.972,0,1.727-0.365,2.263-1.095c0.534-0.73,0.803-2.117,0.803-4.161v-24.82h-17.958c-0.196,5.84-0.803,11.511-1.825,17.009
		c-1.022,5.5-2.532,10.366-4.526,14.6c-1.996,4.234-4.453,7.615-7.373,10.147c-2.92,2.53-6.329,3.796-10.22,3.796
		c1.752-3.212,3.26-6.57,4.526-10.074c1.264-3.504,2.311-7.25,3.139-11.242c0.826-3.99,1.46-8.345,1.898-13.067
		c0.438-4.72,0.657-9.903,0.657-15.549v-55.48c0-4.38-0.682-7.884-2.044-10.512c1.654-0.68,3.187-1.191,4.599-1.533
		c1.41-0.34,3.139-0.511,5.183-0.511c3.212,0,5.402,1.072,6.57,3.212h3.65c3.114,0,6.132-0.267,9.052-0.803
		c2.92-0.534,5.206-1.337,6.862-2.409c1.556,0,3.114,0.146,4.672,0.438c1.556,0.292,2.968,0.803,4.234,1.533
		c1.264,0.73,2.286,1.704,3.066,2.92c0.778,1.218,1.168,2.701,1.168,4.453c0,1.072-0.171,2.628-0.511,4.672
		c-0.342,2.044-0.511,4.332-0.511,6.862v83.658c0,3.992-0.999,7.227-2.993,9.709C223.925,438.339,220.885,439.58,216.796,439.58z
		 M196.794,355.922h17.812v-24.966H197.67c-0.196,1.168-0.39,2.507-0.584,4.015c-0.196,1.51-0.292,3.335-0.292,5.475V355.922z
		 M196.794,387.75h17.812v-25.55h-17.812V387.75z"/>
	<path class="st2" d="M271.692,335.482c1.46-0.778,3.016-1.314,4.672-1.606c1.654-0.292,3.358-0.438,5.11-0.438
		c1.848,0,3.358,0.511,4.526,1.533s1.752,2.605,1.752,4.745v91.542c0,2.628-0.488,4.672-1.46,6.132
		c-0.974,1.46-2.58,2.19-4.818,2.19c-3.116,0-5.427-1.022-6.935-3.066c-1.51-2.044-2.459-4.088-2.847-6.132
		c0.486-0.486,0.899-1.483,1.241-2.993c0.34-1.508,0.511-3.285,0.511-5.329v-76.212c0-2.044-0.123-3.942-0.365-5.694
		C272.835,338.402,272.372,336.846,271.692,335.482z M287.314,318.838c2.822,0,5.425,0.05,7.811,0.146
		c2.384,0.098,4.549,0.415,6.497,0.949c1.946,0.536,3.625,1.364,5.037,2.482c1.41,1.12,2.555,2.653,3.431,4.599
		c0.972,2.24,1.07,4.503,0.292,6.789c-0.78,2.288-2.24,3.967-4.38,5.037c-2.044,1.072-4.138,1.193-6.278,0.365
		c-2.143-0.826-3.7-2.359-4.672-4.599c-1.072-2.238-2.24-4.793-3.504-7.665C290.282,324.071,288.87,321.37,287.314,318.838z
		 M310.236,421.037c-1.558,0-2.897-0.292-4.015-0.876c-1.12-0.584-2.094-1.336-2.92-2.263c-0.828-0.924-1.46-1.946-1.898-3.066
		c-0.438-1.118-0.803-2.213-1.095-3.285c0.486-0.486,0.949-1.46,1.387-2.92s0.657-3.26,0.657-5.402v-43.8
		c0-4.282-0.682-7.738-2.044-10.366c1.752-0.778,3.431-1.314,5.037-1.606s3.479-0.438,5.621-0.438c1.264,0,2.432,0.244,3.504,0.73
		c1.07,0.488,1.898,1.266,2.482,2.336h7.884c3.114,0,5.936-0.242,8.468-0.73c2.53-0.486,4.574-1.264,6.132-2.336
		c1.46,0,2.968,0.171,4.526,0.511c1.556,0.342,2.993,0.876,4.307,1.606s2.384,1.679,3.212,2.847c0.826,1.168,1.241,2.628,1.241,4.38
		c0,1.072-0.171,2.605-0.511,4.599c-0.342,1.996-0.511,4.259-0.511,6.789v42.778c0,2.142-0.561,4.065-1.679,5.767
		c-1.12,1.704-2.799,2.555-5.037,2.555c-1.656,0-3.043-0.267-4.161-0.803c-1.12-0.534-2.069-1.289-2.847-2.263h-21.754
		C315.442,419.285,313.448,421.037,310.236,421.037z M315.784,323.948c0.486,0.196,1.191,0.365,2.117,0.511
		c0.924,0.146,1.946,0.269,3.066,0.365c1.118,0.098,2.263,0.171,3.431,0.219c1.168,0.05,2.238,0.073,3.212,0.073h29.346
		c1.46,0,2.92-0.146,4.38-0.438s2.724-0.68,3.796-1.168c1.264-0.388,2.482-0.924,3.65-1.606c1.46,0,2.993,0.146,4.599,0.438
		s3.089,0.803,4.453,1.533c1.362,0.73,2.482,1.704,3.358,2.92c0.876,1.218,1.314,2.701,1.314,4.453c0,1.072-0.171,2.628-0.511,4.672
		c-0.342,2.044-0.511,4.332-0.511,6.862v84.534c0,4.088-1.314,7.323-3.942,9.709c-2.628,2.384-5.89,3.577-9.782,3.577
		c-3.116-1.46-5.938-3.675-8.468-6.643c-2.532-2.97-4.576-5.913-6.132-8.833c1.848,0.39,3.65,0.657,5.402,0.803
		s3.212,0.219,4.38,0.219c0.972,0,1.873-0.34,2.701-1.022c0.826-0.68,1.241-2.044,1.241-4.088v-89.79h-47.158
		c-1.46,0-2.482-0.559-3.066-1.679C316.076,328.451,315.784,326.575,315.784,323.948z M337.393,356.36h-20.148
		c-0.196,1.072-0.342,2.336-0.438,3.796c-0.098,1.46-0.146,3.31-0.146,5.548v13.578h20.732V356.36z M337.393,399.575V385.56H316.66
		v23.944h18.834c0.486-1.07,0.924-2.505,1.314-4.307C337.196,403.397,337.393,401.524,337.393,399.575z"/>
	<path class="st2" d="M261.619,559.28c-2.24,2.824-4.625,5.183-7.154,7.081c-2.532,1.898-5.548,2.993-9.052,3.285v57.378
		c0,2.434-0.657,4.403-1.971,5.913c-1.314,1.508-3.091,2.263-5.329,2.263c-2.142,0-3.894-0.634-5.256-1.898
		c-1.364-1.266-2.434-2.726-3.212-4.38h-17.666v1.168c0,2.53-0.584,4.574-1.752,6.132c-1.168,1.556-2.872,2.336-5.11,2.336
		c-1.46,0-2.727-0.292-3.796-0.876c-1.072-0.584-1.996-1.339-2.774-2.263c-0.78-0.926-1.412-1.923-1.898-2.993
		c-0.488-1.072-0.876-2.092-1.168-3.066c0.486-0.486,0.924-1.483,1.314-2.993c0.388-1.508,0.584-3.285,0.584-5.329v-67.89
		c0-2.044-0.123-3.942-0.365-5.694c-0.244-1.752-0.755-3.308-1.533-4.672c1.556-0.584,3.066-1.07,4.526-1.46
		c1.46-0.388,3.162-0.584,5.11-0.584c2.14,0,3.99,0.536,5.548,1.606c0.388-1.654,0.753-3.552,1.095-5.694
		c0.34-2.14,0.607-4.307,0.803-6.497c0.194-2.19,0.34-4.282,0.438-6.278c0.096-1.994,0.146-3.673,0.146-5.037
		c3.504,0,6.374,0.123,8.614,0.365c2.238,0.244,4.038,0.584,5.402,1.022c1.362,0.438,2.311,0.974,2.847,1.606
		c0.534,0.634,0.803,1.339,0.803,2.117c0,1.168-0.219,2.532-0.657,4.088c-0.438,1.558-1.022,3.164-1.752,4.818
		c-0.73,1.656-1.606,3.335-2.628,5.037c-1.022,1.704-2.069,3.237-3.139,4.599c4.38-0.486,7.738-1.508,10.074-3.066
		c1.556,0,3.162,0.146,4.818,0.438c1.654,0.292,3.139,0.803,4.453,1.533s2.409,1.704,3.285,2.92
		c0.876,1.218,1.314,2.751,1.314,4.599c0,1.072-0.196,2.605-0.584,4.599c-0.39,1.996-0.584,4.259-0.584,6.789v6.132
		c1.946-3.308,3.869-7.3,5.767-11.972c1.898-4.672,3.625-9.294,5.183-13.87c1.556-4.574,2.797-8.76,3.723-12.556
		c0.924-3.796,1.387-6.57,1.387-8.322h7.446c2.92,0,5.037,0.511,6.351,1.533c1.314,1.022,1.971,2.555,1.971,4.599
		c0,1.752-0.488,4.015-1.46,6.789c-0.974,2.774-2.142,5.671-3.504,8.687h5.256c3.114,0,5.913-0.242,8.395-0.73
		c2.482-0.486,4.549-1.264,6.205-2.336c1.556,0,3.139,0.146,4.745,0.438s3.066,0.803,4.38,1.533s2.384,1.679,3.212,2.847
		c0.826,1.168,1.241,2.678,1.241,4.526c0,1.072-0.171,2.605-0.511,4.599c-0.342,1.996-0.511,4.259-0.511,6.789l-1.022,64.094
		c0,2.044-0.317,3.992-0.949,5.84c-0.634,1.848-1.606,3.504-2.92,4.964s-2.945,2.603-4.891,3.431
		c-1.948,0.826-4.284,1.241-7.008,1.241c-1.752-0.682-3.627-1.583-5.621-2.701c-1.996-1.12-3.992-2.361-5.986-3.723
		c-1.996-1.364-3.821-2.822-5.475-4.38c-1.656-1.556-2.97-3.114-3.942-4.672c2.92,0.682,5.79,1.193,8.614,1.533
		c2.822,0.342,5.206,0.511,7.154,0.511c2.044,0,3.6-0.486,4.672-1.46c1.07-0.972,1.606-2.238,1.606-3.796l1.022-72.27h-20.878
		c-1.266,2.24-2.532,4.38-3.796,6.424C264.002,556.068,262.787,557.82,261.619,559.28z M211.979,581.179h18.688v-32.266h-17.812
		c-0.196,1.072-0.39,2.434-0.584,4.088c-0.196,1.656-0.292,3.796-0.292,6.424V581.179z M229.791,622.644
		c0.194-1.07,0.388-2.19,0.584-3.358c0.194-1.168,0.292-2.384,0.292-3.65v-28.324h-18.688v35.332H229.791z M262.495,591.4
		c-0.488-2.822-1.022-5.548-1.606-8.176c-0.488-2.238-1.12-4.646-1.898-7.227c-0.78-2.578-1.704-4.939-2.774-7.081
		c2.336,0.292,4.72,1.022,7.154,2.19c2.432,1.168,4.672,2.653,6.716,4.453c2.044,1.802,3.771,3.895,5.183,6.278
		c1.41,2.386,2.359,4.891,2.847,7.519c0.68,3.408,0.606,6.255-0.219,8.541c-0.828,2.288-2.361,3.675-4.599,4.161
		c-2.532,0.488-4.818-0.314-6.862-2.409C264.393,597.557,263.079,594.808,262.495,591.4z"/>
	<path class="st3" d="M115.765,759.207c2.044,0.146,3.99,0.219,5.84,0.219c1.946,0,3.698-0.365,5.256-1.095
		c1.556-0.73,2.578-1.387,3.066-1.971c3.698,0,6.739,0.634,9.125,1.898c2.384,1.266,3.577,3.748,3.577,7.446
		c0,1.072-0.171,2.605-0.511,4.599c-0.342,1.996-0.511,4.307-0.511,6.935v38.398c2.238-1.362,4.403-2.774,6.497-4.234
		c2.092-1.46,4.111-2.92,6.059-4.38c0,2.142-0.292,4.186-0.876,6.132c-0.584,1.948-1.364,3.748-2.336,5.402
		c-0.876,1.46-1.996,3.164-3.358,5.11c-1.364,1.948-2.872,3.748-4.526,5.402c-1.656,1.654-3.358,3.066-5.11,4.234
		s-3.408,1.752-4.964,1.752c-1.072,0-2.142-0.196-3.212-0.584c-1.072-0.39-2.069-0.974-2.993-1.752
		c-0.926-0.78-1.679-1.825-2.263-3.139c-0.584-1.314-0.876-2.895-0.876-4.745c0.876-0.486,1.629-1.118,2.263-1.898
		c0.632-0.778,0.949-1.898,0.949-3.358v-53.728c-2.336,0.098-4.332,0.27-5.986,0.511c-1.656,0.244-3.164,0.365-4.526,0.365
		c-2.044,0-3.431-0.73-4.161-2.19s-1.095-3.504-1.095-6.132C112.163,758.794,113.721,759.061,115.765,759.207z M127.006,733.584
		c-0.78-2.044-1.679-4.209-2.701-6.497c-1.022-2.286-2.167-4.355-3.431-6.205c6.228,0,11.557,1.291,15.987,3.869
		c4.428,2.58,7.323,6.497,8.687,11.753c0.68,2.532,0.461,4.891-0.657,7.081c-1.12,2.19-2.799,3.577-5.037,4.161
		c-2.24,0.584-4.357,0.219-6.351-1.095c-1.996-1.314-3.383-3.235-4.161-5.767C128.661,738.452,127.882,736.018,127.006,733.584z
		 M214.534,764.025c-1.51,0.438-3.285,0.657-5.329,0.657h-34.456c-0.39-1.168-1.218-2.092-2.482-2.774
		c-1.266-0.68-3.164-1.022-5.694-1.022h-7.008c0,1.072-0.244,2.482-0.73,4.234c-0.488,1.752-1.193,3.723-2.117,5.913
		c-0.926,2.19-2.021,4.478-3.285,6.862c-1.266,2.386-2.678,4.649-4.234,6.789c3.698,0,6.739-0.438,9.125-1.314
		c2.384-0.876,4.647-1.994,6.789-3.358c1.654-1.168,3.187-2.555,4.599-4.161c1.41-1.606,2.555-3.235,3.431-4.891h11.534v16.936
		h-23.068c-1.072,0-2.215-0.023-3.431-0.073c-1.218-0.048-2.409-0.121-3.577-0.219c-1.168-0.096-2.24-0.194-3.212-0.292
		c-0.974-0.096-1.752-0.242-2.336-0.438c0,4.868,1.41,7.3,4.234,7.3h31.39v33.872h-14.016v-11.534c0-3.698,0.169-6.447,0.511-8.249
		c0.34-1.8,0.511-3.235,0.511-4.307c0-2.044-0.828-3.6-2.482-4.672c-1.656-1.07-3.504-1.606-5.548-1.606
		c-2.142,0-3.869,0.219-5.183,0.657s-2.751,0.949-4.307,1.533c0.778,1.364,1.337,2.897,1.679,4.599
		c0.34,1.704,0.511,3.627,0.511,5.767v8.322c0,2.142-0.244,3.992-0.73,5.548c-0.488,1.558-0.974,2.872-1.46,3.942
		c0.292,1.558,0.899,2.895,1.825,4.015c0.924,1.118,2.066,2.066,3.431,2.847c1.362,0.778,2.895,1.362,4.599,1.752
		c1.702,0.388,3.431,0.584,5.183,0.584c1.654-1.072,3.552-1.85,5.694-2.336c2.14-0.488,4.768-0.73,7.884-0.73h31.244
		c0.778,1.07,1.8,1.971,3.066,2.701c1.264,0.73,2.822,1.095,4.672,1.095c2.336,0,3.99-0.73,4.964-2.19
		c0.972-1.46,1.46-3.456,1.46-5.986v-13.14c0-3.698,0.194-6.447,0.584-8.249c0.388-1.8,0.584-3.235,0.584-4.307
		c0-2.044-0.584-3.6-1.752-4.672c-1.168-1.07-3.066-1.606-5.694-1.606c-1.948,0-3.723,0.219-5.329,0.657s-3.189,0.949-4.745,1.533
		c1.362,2.628,2.044,6.084,2.044,10.366v10.95c0,2.92-0.39,5.16-1.168,6.716H199.13v-33.872h33.142c1.556,0,2.628-0.267,3.212-0.803
		c0.584-0.534,0.876-1.336,0.876-2.409c0-0.778-0.342-1.483-1.022-2.117c-0.682-0.632-1.533-1.168-2.555-1.606
		s-2.142-0.778-3.358-1.022c-1.218-0.242-2.361-0.365-3.431-0.365c-0.488,0.488-1.485,0.949-2.993,1.387
		c-1.51,0.438-3.285,0.657-5.329,0.657H199.13V770.96h24.674c1.556,0,2.628-0.242,3.212-0.73c0.584-0.486,0.876-1.264,0.876-2.336
		c0-0.778-0.342-1.508-1.022-2.19c-0.682-0.68-1.533-1.241-2.555-1.679s-2.142-0.778-3.358-1.022
		c-1.218-0.242-2.361-0.365-3.431-0.365C217.039,763.126,216.041,763.587,214.534,764.025z M178.836,734.24
		c4.964-0.146,9.805-0.34,14.527-0.584c4.72-0.242,9.173-0.607,13.359-1.095c4.184-0.486,7.833-1.07,10.95-1.752
		c3.114-0.68,5.596-1.483,7.446-2.409c1.848-0.924,2.774-2.019,2.774-3.285c0-2.14-1.485-3.552-4.453-4.234
		c-2.97-0.68-7.373-1.022-13.213-1.022c-2.142,1.072-5.5,2.117-10.074,3.139c-4.576,1.022-9.686,1.971-15.33,2.847
		c-5.646,0.876-11.486,1.679-17.52,2.409c-6.036,0.73-11.534,1.387-16.498,1.971c0.584,0.876,1.41,1.583,2.482,2.117
		c1.07,0.536,2.238,0.974,3.504,1.314c1.264,0.342,2.555,0.562,3.869,0.657c1.314,0.098,2.555,0.146,3.723,0.146
		C169.055,734.46,173.873,734.386,178.836,734.24z M156.499,747.015c-0.682-1.556-1.437-3.212-2.263-4.964
		c-0.828-1.752-1.631-3.308-2.409-4.672c2.628,0,5.133,0.171,7.519,0.511c2.384,0.342,4.574,0.949,6.57,1.825
		c1.994,0.876,3.698,2.021,5.11,3.431c1.41,1.412,2.409,3.139,2.993,5.183c0.584,2.24,0.438,4.357-0.438,6.351
		c-0.876,1.996-2.434,3.285-4.672,3.869c-2.24,0.584-4.332,0.292-6.278-0.876c-1.948-1.168-3.212-2.87-3.796-5.11
		C158.054,750.618,157.276,748.768,156.499,747.015z M186.355,758.842c-1.606-1.46-2.507-3.308-2.701-5.548
		c-0.196-2.53-0.416-5.279-0.657-8.249c-0.244-2.968-0.901-5.913-1.971-8.833c5.158,0.488,9.392,2.117,12.702,4.891
		c3.308,2.774,5.206,6.351,5.694,10.731c0.194,2.24-0.39,4.234-1.752,5.986c-1.364,1.752-3.212,2.726-5.548,2.92
		C189.882,760.936,187.961,760.302,186.355,758.842z M212.708,739.424c-0.488,2.044-1.145,4.284-1.971,6.716
		c-0.828,2.434-1.825,4.964-2.993,7.592s-2.482,5.16-3.942,7.592c2.628,0,5.402-0.632,8.322-1.898
		c2.92-1.264,5.621-2.895,8.103-4.891c2.482-1.994,4.549-4.136,6.205-6.424c1.654-2.286,2.482-4.453,2.482-6.497
		c0-2.724-1.485-4.622-4.453-5.694c-2.97-1.07-6.643-1.606-11.023-1.606C213.438,735.678,213.194,737.38,212.708,739.424z"/>
	<path class="st3" d="M268.626,735.482c1.07,0.292,2.895,0.536,5.475,0.73c2.578,0.196,4.938,0.292,7.081,0.292h39.858
		c-1.558-1.752-2.336-3.844-2.336-6.278c-0.098-1.946-0.244-3.796-0.438-5.548c-0.196-1.46-0.416-2.943-0.657-4.453
		c-0.244-1.508-0.561-2.749-0.949-3.723c3.796,0,7.031,0.342,9.709,1.022c2.676,0.682,4.818,1.656,6.424,2.92
		c1.606,1.266,2.774,2.726,3.504,4.38c0.73,1.656,1.095,3.408,1.095,5.256c0,0.682-0.098,1.412-0.292,2.19
		c-0.196,0.682-0.416,1.387-0.657,2.117c-0.244,0.73-0.609,1.438-1.095,2.117h25.112c3.114,0,5.84-0.219,8.176-0.657
		s3.746-0.898,4.234-1.387c1.556,0,3.088,0.171,4.599,0.511c1.508,0.342,2.847,0.803,4.015,1.387s2.117,1.266,2.847,2.044
		c0.73,0.78,1.095,1.558,1.095,2.336c0,1.072-0.292,1.85-0.876,2.336c-0.584,0.488-1.704,0.73-3.358,0.73
		c-0.78,0-1.606-0.048-2.482-0.146c-0.876-0.096-2.069-0.219-3.577-0.365c-1.51-0.146-3.431-0.267-5.767-0.365
		c-2.336-0.096-5.306-0.146-8.906-0.146h-66.868c-3.116,0-5.744,0.05-7.884,0.146c-2.142,0.098-3.967,0.219-5.475,0.365
		c-1.51,0.146-2.751,0.269-3.723,0.365c-0.974,0.098-1.85,0.146-2.628,0.146c-2.142,0-3.554-0.73-4.234-2.19
		C268.966,740.154,268.626,738.11,268.626,735.482z M363.526,771.544c1.07,0,2.213,0.123,3.431,0.365
		c1.216,0.244,2.336,0.609,3.358,1.095c1.022,0.488,1.873,1.047,2.555,1.679c0.68,0.634,1.022,1.339,1.022,2.117
		c0,1.072-0.292,1.875-0.876,2.409c-0.584,0.536-1.656,0.803-3.212,0.803h-86.578c-2.824,0-4.234-2.432-4.234-7.3
		c0.584,0.196,1.362,0.342,2.336,0.438c0.972,0.098,2.044,0.196,3.212,0.292c1.168,0.098,2.359,0.171,3.577,0.219
		c1.216,0.05,2.359,0.073,3.431,0.073h63.656c2.044,0,3.818-0.219,5.329-0.657C362.041,772.638,363.038,772.128,363.526,771.544z
		 M363.526,753.148c1.07,0,2.213,0.123,3.431,0.365c1.216,0.244,2.336,0.609,3.358,1.095c1.022,0.488,1.873,1.047,2.555,1.679
		c0.68,0.634,1.022,1.339,1.022,2.117c0,1.072-0.292,1.875-0.876,2.409c-0.584,0.536-1.656,0.803-3.212,0.803h-85.556
		c-1.558,0-2.628-0.584-3.212-1.752c-0.584-1.168-0.876-3.016-0.876-5.548c0.486,0.196,1.216,0.342,2.19,0.438
		c0.972,0.098,2.044,0.196,3.212,0.292c1.168,0.098,2.359,0.171,3.577,0.219c1.216,0.05,2.359,0.073,3.431,0.073h62.634
		c2.044,0,3.818-0.219,5.329-0.657C362.041,754.242,363.038,753.732,363.526,753.148z M292.278,839.58
		c-3.31,0-5.865-1.022-7.665-3.066c-1.802-2.044-2.945-4.088-3.431-6.132c0.486-0.486,0.899-1.483,1.241-2.993
		c0.34-1.508,0.511-3.285,0.511-5.329v-19.856c0-2.044-0.124-3.942-0.365-5.694c-0.244-1.752-0.707-3.308-1.387-4.672
		c1.362-0.778,2.92-1.337,4.672-1.679c1.752-0.34,3.552-0.511,5.402-0.511c1.264,0,2.603,0.269,4.015,0.803
		c1.41,0.536,2.505,1.339,3.285,2.409h43.508c3.114,0,5.913-0.267,8.395-0.803c2.482-0.534,4.549-1.336,6.205-2.409
		c1.556,0,3.235,0.146,5.037,0.438c1.8,0.292,3.454,0.803,4.964,1.533c1.508,0.73,2.749,1.704,3.723,2.92
		c0.972,1.218,1.46,2.751,1.46,4.599c0,1.072-0.171,2.605-0.511,4.599c-0.342,1.996-0.511,4.259-0.511,6.789v20.732
		c0,2.14-0.609,4.063-1.825,5.767c-1.218,1.702-3.043,2.555-5.475,2.555c-2.628,0-4.745-0.634-6.351-1.898
		c-1.606-1.266-2.847-2.726-3.723-4.38h-54.896C298.068,837.486,295.976,839.58,292.278,839.58z M354.621,799.137h-55.334
		c-0.196,1.072-0.342,2.336-0.438,3.796c-0.098,1.46-0.146,3.311-0.146,5.548v18.834h54.896c0.292-1.07,0.534-2.213,0.73-3.431
		c0.194-1.216,0.292-2.505,0.292-3.869V799.137z"/>
</g>
</svg>