<!-- Generator: Adobe Illustrator 24.1.3, SVG Export Plug-In  -->
<svg version="1.1" xmlns="http://www.w3.org/2000/svg" xmlns:xlink="http://www.w3.org/1999/xlink" x="0px" y="0px"
	 width="459.637px" height="98.445px" viewBox="0 0 459.637 98.445"
	 style="overflow:visible;enable-background:new 0 0 459.637 98.445;" xml:space="preserve">
<style type="text/css">
	.st0{fill:none;}
	.st1{fill:#BF2222;}
	.st2{font-family:'HYQingFenTi-W';}
	.st3{font-size:72px;}
</style>
<defs>
</defs>
<g>
	<g>
		<rect x="92.605" y="5.335" class="st0" width="367.032" height="93.11"/>
		<path class="st1" d="M132.481,13.472c-0.288,2.304-0.637,4.512-1.044,6.624c-0.408,2.113-0.899,4.201-1.476,6.264h29.664
			c0.768,0,1.332,0.264,1.691,0.792c0.36,0.528,0.54,1.092,0.54,1.692c0,0.601-0.192,1.164-0.575,1.692
			c-0.385,0.529-0.937,0.792-1.656,0.792H128.45c-2.449,7.249-5.846,14.076-10.188,20.484c-4.345,6.408-9.565,12.756-15.66,19.044
			c-0.528,0.528-1.069,0.792-1.62,0.792c-0.553,0-1.02-0.144-1.404-0.432c-0.385-0.288-0.624-0.673-0.72-1.152
			c-0.097-0.48,0.072-0.936,0.505-1.368c5.039-5.664,9.371-11.567,12.995-17.712c3.624-6.144,6.54-12.696,8.748-19.656h-13.68
			c-0.72,0-1.321-0.144-1.8-0.432c-0.48-0.288-0.854-0.648-1.116-1.08c-0.265-0.432-0.433-0.887-0.505-1.368
			c-0.071-0.479-0.061-0.936,0.037-1.368l3.888-10.944c0.288-1.152,0.888-1.932,1.8-2.34c0.911-0.407,1.801-0.515,2.664-0.324
			c0.864,0.192,1.548,0.66,2.053,1.404c0.504,0.745,0.515,1.645,0.035,2.7l-3.456,8.208c-0.048,0.097-0.036,0.216,0.036,0.36
			s0.203,0.216,0.396,0.216h11.016c1.152-4.32,2.016-8.808,2.592-13.464c0.145-1.343,0.636-2.279,1.477-2.808
			c0.839-0.527,1.715-0.731,2.627-0.612c0.912,0.121,1.729,0.529,2.449,1.224C132.336,11.396,132.625,12.32,132.481,13.472z
			 M124.849,50.048c-0.528-0.479-0.78-1.008-0.756-1.584c0.023-0.576,0.216-1.068,0.575-1.476c0.361-0.407,0.828-0.636,1.404-0.684
			c0.576-0.047,1.152,0.168,1.729,0.648c1.584,1.393,3.143,2.664,4.68,3.816c1.535,1.152,3.048,2.208,4.536,3.168
			c1.487-1.152,2.952-2.376,4.392-3.672c1.44-1.296,2.855-2.639,4.248-4.032c0.576-0.576,0.816-1.08,0.721-1.512
			c-0.098-0.432-0.553-0.648-1.368-0.648h-16.992c-0.769,0-1.345-0.252-1.728-0.756c-0.385-0.504-0.576-1.067-0.576-1.692
			c0-0.623,0.191-1.188,0.576-1.692c0.383-0.504,0.959-0.756,1.728-0.756h21.888c1.44,0,2.592,0.313,3.457,0.936
			c0.863,0.624,1.463,1.404,1.799,2.34s0.36,1.944,0.072,3.024c-0.287,1.08-0.863,2.077-1.729,2.988
			c-2.832,2.833-6.407,5.832-10.728,9c3.216,1.825,6.456,3.432,9.72,4.824c3.264,1.393,6.744,2.784,10.44,4.176
			c1.151,0.432,1.847,1.175,2.088,2.232c0.239,1.055,0.155,2.076-0.252,3.06c-0.408,0.983-1.104,1.751-2.088,2.304
			c-0.984,0.551-2.149,0.492-3.492-0.18c-4.032-1.969-7.8-3.985-11.304-6.048c-3.504-2.063-6.938-4.344-10.296-6.84
			c-3.744,2.448-7.801,4.8-12.168,7.056c-4.368,2.255-9,4.343-13.896,6.264c-0.77,0.288-1.43,0.288-1.98,0
			c-0.553-0.288-0.949-0.684-1.188-1.188c-0.242-0.504-0.289-1.044-0.145-1.62c0.145-0.576,0.527-1.008,1.152-1.296
			c4.511-2.113,8.663-4.2,12.455-6.264c3.791-2.063,7.416-4.32,10.873-6.768c-1.297-1.104-2.593-2.243-3.889-3.42
			C127.513,52.58,126.192,51.344,124.849,50.048z M142.489,12.104c2.448,1.249,4.465,2.34,6.049,3.276
			c1.584,0.936,2.927,1.812,4.031,2.628c1.008,0.72,1.487,1.56,1.44,2.52c-0.048,0.96-0.385,1.764-1.009,2.412
			c-0.623,0.648-1.428,1.008-2.412,1.08c-0.984,0.072-1.932-0.396-2.844-1.404c-0.912-1.104-1.956-2.304-3.131-3.6
			c-1.178-1.296-2.533-2.639-4.068-4.032c-0.337-0.288-0.493-0.648-0.469-1.08c0.023-0.432,0.156-0.803,0.396-1.116
			c0.24-0.312,0.54-0.551,0.9-0.72C141.733,11.9,142.104,11.913,142.489,12.104z"/>
		<path class="st1" d="M184.105,44.792c-1.393,1.681-2.856,3.384-4.392,5.112c-1.537,1.728-3.168,3.504-4.896,5.328
			c-0.528,0.529-1.068,0.769-1.619,0.72c-0.553-0.047-1.021-0.252-1.404-0.612c-0.385-0.36-0.625-0.803-0.721-1.332
			c-0.096-0.528,0.047-1.008,0.432-1.44c4.129-4.608,7.68-9.24,10.656-13.896c2.977-4.655,5.641-9.672,7.992-15.048h-14.832
			c-0.816,0-1.416-0.252-1.8-0.756c-0.385-0.504-0.575-1.068-0.575-1.692c0-0.624,0.19-1.188,0.575-1.692
			c0.384-0.504,0.983-0.756,1.8-0.756h16.92c0.384-1.055,0.793-2.124,1.225-3.204c0.432-1.08,0.839-2.196,1.224-3.348
			c0.433-1.152,1.152-1.908,2.16-2.268s1.979-0.407,2.916-0.144c0.937,0.264,1.667,0.817,2.196,1.656
			c0.527,0.841,0.551,1.908,0.072,3.204l-1.729,4.104h33.552c0.768,0,1.343,0.252,1.728,0.756c0.385,0.504,0.576,1.068,0.576,1.692
			c0,0.624-0.191,1.188-0.576,1.692s-0.96,0.756-1.728,0.756H198c-1.199,2.401-2.473,4.752-3.815,7.056
			c-1.345,2.304-2.856,4.608-4.536,6.912c0.479,0.241,0.864,0.612,1.152,1.116c0.287,0.504,0.432,1.092,0.432,1.764v24.264
			c0,1.104-0.372,1.944-1.115,2.52c-0.745,0.576-1.561,0.875-2.449,0.9c-0.889,0.023-1.703-0.241-2.447-0.792
			c-0.744-0.553-1.116-1.379-1.116-2.484V44.792z M228.385,65.816c-0.432,0.48-0.961,0.912-1.584,1.296
			c-0.625,0.383-1.225,0.648-1.801,0.792c-0.575,0.144-1.056,0.108-1.439-0.108c-0.385-0.216-0.553-0.708-0.504-1.476
			c0.047-1.008-0.359-1.692-1.225-2.052c-0.863-0.36-1.775-0.54-2.735-0.54c-0.576,0-0.997-0.167-1.261-0.504
			c-0.264-0.335-0.396-0.72-0.396-1.152c0-0.432,0.132-0.816,0.396-1.152c0.264-0.335,0.637-0.504,1.117-0.504
			c0.191,0,0.455-0.011,0.791-0.036c0.336-0.024,0.84-0.083,1.513-0.18c0.671-0.096,1.235-0.371,1.692-0.828
			c0.455-0.456,0.684-1.355,0.684-2.7v-12.6c0-0.672-0.145-1.152-0.432-1.44c-0.289-0.288-0.793-0.432-1.513-0.432h-10.224V71
			c0,1.152-0.385,2.004-1.152,2.556c-0.768,0.551-1.596,0.828-2.484,0.828s-1.717-0.277-2.483-0.828
			c-0.769-0.552-1.152-1.404-1.152-2.556V42.2h-8.712c-0.816,0-1.429-0.252-1.836-0.756c-0.408-0.504-0.611-1.068-0.611-1.692
			c0-0.623,0.203-1.188,0.611-1.692c0.407-0.504,1.02-0.756,1.836-0.756h8.712v-7.272c0-1.152,0.384-2.016,1.152-2.592
			c0.767-0.576,1.595-0.864,2.483-0.864s1.717,0.288,2.484,0.864c0.768,0.576,1.152,1.44,1.152,2.592v7.272h14.328
			c1.584,0,2.818,0.444,3.707,1.332c0.889,0.889,1.332,2.124,1.332,3.708v15.84c0,1.776-0.204,3.276-0.611,4.5
			C229.813,63.908,229.201,64.952,228.385,65.816z"/>
		<path class="st1" d="M247.538,24.776c0-1.2,0.359-2.088,1.08-2.664c0.719-0.576,1.512-0.864,2.375-0.864
			c0.864,0,1.656,0.288,2.377,0.864c0.719,0.576,1.08,1.464,1.08,2.664V69.2c0,1.248-0.361,2.171-1.08,2.772
			c-0.721,0.6-1.513,0.9-2.377,0.9c-0.863,0-1.656-0.3-2.375-0.9c-0.721-0.601-1.08-1.524-1.08-2.772V24.776z M256.752,45.476
			c-0.432-0.504-0.647-1.044-0.647-1.62c0-0.576,0.216-1.116,0.647-1.62c0.433-0.504,1.056-0.756,1.873-0.756h7.632V28.736
			c0-0.864-0.288-1.536-0.864-2.016c-0.576-0.479-1.32-0.72-2.232-0.72h-4.535c-0.769,0-1.345-0.227-1.729-0.684
			c-0.385-0.456-0.601-0.972-0.648-1.548s0.084-1.116,0.396-1.62c0.312-0.504,0.803-0.803,1.477-0.9
			c0.191-1.343,0.348-2.747,0.467-4.212c0.12-1.464,0.204-2.556,0.253-3.276c0.047-1.343,0.491-2.304,1.331-2.88
			c0.84-0.576,1.717-0.792,2.629-0.648c0.911,0.144,1.68,0.625,2.304,1.44c0.624,0.816,0.768,1.92,0.433,3.312
			c-0.241,0.816-0.576,1.74-1.008,2.772c-0.433,1.033-0.984,2.172-1.656,3.42h3.815c2.399,0,4.068,0.612,5.004,1.836
			c0.937,1.224,1.404,2.7,1.404,4.428v35.28c0,1.681-0.444,3.024-1.332,4.032c-0.889,1.008-2.46,1.512-4.716,1.512h-8.424
			c-0.817,0-1.417-0.252-1.801-0.756c-0.385-0.504-0.576-1.055-0.576-1.656c0-0.6,0.191-1.152,0.576-1.656
			c0.384-0.504,0.983-0.756,1.801-0.756h7.632V46.232h-7.632C257.808,46.232,257.185,45.98,256.752,45.476z M274.681,35.684
			c0.191,0.504,0.491,0.864,0.899,1.08s0.865,0.277,1.369,0.18c0.504-0.096,0.971-0.456,1.403-1.08
			c2.017-3.024,3.815-6.252,5.399-9.684c1.584-3.431,2.881-7.308,3.889-11.628c0.288-1.296,0.107-2.352-0.54-3.168
			c-0.647-0.816-1.44-1.308-2.376-1.476c-0.936-0.167-1.861,0.025-2.771,0.576c-0.913,0.552-1.465,1.524-1.656,2.916
			c-0.673,4.129-1.477,7.884-2.412,11.268c-0.936,3.384-1.98,6.516-3.133,9.396C274.512,34.64,274.489,35.18,274.681,35.684z
			 M282.997,43.856c-0.791-1.872-1.523-3.503-2.195-4.896c-0.192-0.432-0.217-0.852-0.072-1.26c0.145-0.407,0.384-0.744,0.721-1.008
			c0.334-0.263,0.73-0.396,1.188-0.396c0.455,0,0.9,0.216,1.332,0.648c3.313,3.36,5.951,6.552,7.92,9.576
			c0.72,1.105,0.875,2.16,0.468,3.168c-0.408,1.008-1.056,1.764-1.944,2.268s-1.836,0.648-2.844,0.432s-1.728-0.972-2.16-2.268
			C284.592,47.816,283.79,45.728,282.997,43.856z M294.517,73.88c-0.696-0.336-1.093-0.841-1.188-1.512
			c-0.144-0.864-0.467-1.548-0.972-2.052c-0.504-0.504-1.188-0.9-2.052-1.188c-0.864-0.288-1.896-0.504-3.096-0.648
			c-1.201-0.144-2.545-0.288-4.032-0.432c-0.528-0.048-0.925-0.277-1.188-0.684c-0.264-0.409-0.385-0.839-0.359-1.296
			c0.023-0.456,0.191-0.864,0.504-1.224c0.312-0.36,0.779-0.54,1.404-0.54c1.055,0.048,2.135,0.072,3.239,0.072
			s2.136-0.023,3.097-0.072c0.959-0.047,1.823-0.144,2.592-0.288c0.768-0.144,1.392-0.36,1.871-0.648
			c0.961-0.576,1.693-1.644,2.197-3.204c0.504-1.559,0.875-3.755,1.115-6.588c0.24-2.832,0.384-6.347,0.432-10.548
			c0.048-4.2,0.072-9.18,0.072-14.94c0-0.767-0.156-1.332-0.468-1.692c-0.313-0.36-0.899-0.54-1.765-0.54h-6.695
			c-0.769,0-1.344-0.252-1.729-0.756s-0.576-1.055-0.576-1.656c0-0.6,0.191-1.152,0.576-1.656s0.96-0.756,1.729-0.756h10.8
			c1.056,0,1.919,0.168,2.593,0.504c0.671,0.336,1.211,0.792,1.619,1.368c0.408,0.576,0.684,1.224,0.828,1.944
			s0.217,1.44,0.217,2.16c0,7.296-0.072,13.561-0.217,18.792c-0.145,5.232-0.504,9.672-1.08,13.32
			c-0.576,3.648-1.429,6.613-2.556,8.892c-1.128,2.279-2.653,4.091-4.572,5.436C295.993,74.071,295.212,74.215,294.517,73.88z"/>
		<path class="st1" d="M318.961,20.168c0-1.152,0.371-2.016,1.115-2.592s1.572-0.864,2.484-0.864c0.911,0,1.739,0.288,2.484,0.864
			c0.743,0.576,1.115,1.44,1.115,2.592v46.8c0,1.199-0.372,2.099-1.115,2.7c-0.745,0.6-1.573,0.9-2.484,0.9
			c-0.912,0-1.74-0.301-2.484-0.9c-0.744-0.601-1.115-1.5-1.115-2.7V20.168z M342.073,60.848c0,1.008-0.349,1.861-1.043,2.556
			c-0.697,0.696-1.525,1.044-2.484,1.044h-8.568c-0.816,0-1.429-0.263-1.836-0.792c-0.408-0.528-0.611-1.104-0.611-1.728
			c0-0.624,0.203-1.199,0.611-1.728c0.407-0.528,1.02-0.792,1.836-0.792h5.04V41.912h-5.04c-0.816,0-1.429-0.252-1.836-0.756
			c-0.408-0.504-0.611-1.044-0.611-1.62s0.203-1.116,0.611-1.62c0.407-0.504,1.02-0.756,1.836-0.756h5.04V22.616
			c0-0.384-0.144-0.708-0.433-0.972c-0.287-0.263-0.623-0.396-1.008-0.396h-3.6c-0.816,0-1.429-0.252-1.836-0.756
			c-0.408-0.504-0.611-1.055-0.611-1.656c0-0.6,0.203-1.152,0.611-1.656c0.407-0.504,1.02-0.756,1.836-0.756h7.632
			c1.632,0,2.784,0.516,3.456,1.548c0.672,1.033,1.008,2.196,1.008,3.492V60.848z M372.817,24.992h5.76
			c0.864,0,1.5,0.252,1.908,0.756s0.612,1.069,0.612,1.692c0,0.625-0.204,1.188-0.612,1.692c-0.408,0.504-1.044,0.756-1.908,0.756
			h-5.76v35.496c0,1.919-0.349,3.587-1.044,5.004c-0.696,1.415-2.028,2.628-3.996,3.636c-0.624,0.335-1.284,0.335-1.979,0
			c-0.697-0.336-1.021-0.889-0.973-1.656c0.048-1.44-0.624-2.412-2.016-2.916c-1.393-0.504-3.265-0.925-5.616-1.26
			c-0.624-0.097-1.068-0.336-1.331-0.72c-0.266-0.385-0.373-0.792-0.324-1.224c0.047-0.432,0.227-0.815,0.539-1.152
			c0.313-0.335,0.756-0.504,1.332-0.504c1.824,0.048,3.276,0.024,4.356-0.072c1.08-0.096,1.907-0.324,2.483-0.684
			c0.576-0.36,0.947-0.9,1.117-1.62c0.167-0.72,0.252-1.68,0.252-2.88V29.888h-18.865c-0.863,0-1.5-0.252-1.907-0.756
			c-0.409-0.504-0.612-1.068-0.612-1.692c0-0.623,0.203-1.188,0.612-1.692c0.407-0.504,1.044-0.756,1.907-0.756h18.865v-11.16
			c0-1.199,0.371-2.088,1.115-2.664c0.744-0.576,1.572-0.864,2.484-0.864c0.911,0,1.739,0.288,2.484,0.864
			c0.743,0.576,1.115,1.465,1.115,2.664V24.992z M350.425,36.512c1.968,2.304,3.516,4.188,4.644,5.652
			c1.127,1.465,2.1,2.772,2.916,3.924c0.576,0.864,0.852,1.681,0.828,2.448c-0.024,0.769-0.216,1.44-0.576,2.016
			c-0.359,0.576-0.853,1.044-1.476,1.404c-0.624,0.36-1.261,0.54-1.908,0.54s-1.272-0.216-1.872-0.648
			c-0.601-0.432-1.044-1.127-1.332-2.088c-0.24-0.72-0.492-1.476-0.756-2.268s-0.564-1.631-0.9-2.52
			c-0.336-0.888-0.709-1.86-1.115-2.916c-0.408-1.055-0.9-2.232-1.477-3.528c-0.24-0.479-0.276-0.947-0.107-1.404
			c0.168-0.456,0.432-0.792,0.791-1.008c0.361-0.216,0.757-0.312,1.188-0.288C349.706,35.853,350.088,36.08,350.425,36.512z"/>
		<path class="st1" d="M391.465,24.92c0-1.199,0.383-2.088,1.152-2.664c0.767-0.576,1.607-0.852,2.52-0.828
			c0.911,0.025,1.752,0.336,2.52,0.936c0.768,0.601,1.152,1.5,1.152,2.7v45.648c0,1.2-0.385,2.1-1.152,2.7
			c-0.768,0.6-1.608,0.9-2.52,0.9c-0.912,0-1.753-0.3-2.52-0.9c-0.77-0.601-1.152-1.5-1.152-2.7V24.92z M402.841,20.888
			c-1.2-1.872-2.257-3.467-3.169-4.788c-0.912-1.32-1.871-2.628-2.879-3.924c-0.337-0.432-0.48-0.875-0.432-1.332
			c0.047-0.456,0.215-0.839,0.504-1.152c0.287-0.312,0.658-0.491,1.115-0.54c0.455-0.047,0.973,0.097,1.549,0.432
			c2.255,1.44,4.091,2.677,5.508,3.708c1.414,1.033,2.699,2.077,3.852,3.132c0.959,0.864,1.344,1.836,1.152,2.916
			c-0.193,1.08-0.685,1.956-1.477,2.628c-0.792,0.673-1.729,0.997-2.808,0.972C404.677,22.916,403.706,22.232,402.841,20.888z
			 M405.793,31.616c0-1.199,0.371-2.088,1.115-2.664s1.572-0.864,2.484-0.864c0.911,0,1.739,0.288,2.484,0.864
			c0.743,0.576,1.115,1.465,1.115,2.664v23.76c0,1.249-0.372,2.196-1.115,2.844c-0.745,0.648-1.573,0.972-2.484,0.972
			c-0.912,0-1.74-0.324-2.484-0.972s-1.115-1.595-1.115-2.844V31.616z M416.088,19.232c-0.816,0-1.428-0.263-1.836-0.792
			c-0.408-0.527-0.611-1.091-0.611-1.692c0-0.6,0.203-1.163,0.611-1.692c0.408-0.528,1.02-0.792,1.836-0.792h25.992
			c4.465,0,6.696,2.208,6.696,6.624v44.496c0,3.935-1.944,6.912-5.831,8.928c-0.625,0.335-1.201,0.42-1.729,0.252
			c-0.529-0.168-0.84-0.637-0.936-1.404c-0.241-1.537-0.984-2.664-2.232-3.384c-1.249-0.72-3.049-1.249-5.4-1.584
			c-0.624-0.097-1.068-0.336-1.332-0.72c-0.264-0.385-0.372-0.792-0.324-1.224s0.228-0.815,0.541-1.152
			c0.311-0.335,0.756-0.504,1.332-0.504c1.822,0.048,3.299,0.024,4.428-0.072c1.127-0.096,1.99-0.324,2.592-0.684
			c0.6-0.36,1.008-0.9,1.224-1.62c0.216-0.72,0.324-1.68,0.324-2.88V22.112c0-1.919-0.961-2.88-2.88-2.88H416.088z M416.954,58.904
			c-0.817,0-1.417-0.252-1.801-0.756c-0.385-0.504-0.576-1.055-0.576-1.656c0-0.6,0.191-1.152,0.576-1.656
			c0.384-0.504,0.983-0.756,1.801-0.756h10.151V35.072c0-1.536-0.769-2.304-2.304-2.304h-7.848c-0.817,0-1.43-0.252-1.836-0.756
			c-0.409-0.504-0.613-1.044-0.613-1.62s0.204-1.116,0.613-1.62c0.406-0.504,1.019-0.756,1.836-0.756h11.304
			c2.063,0,3.587,0.612,4.571,1.836s1.477,2.676,1.477,4.356v19.368c0,1.393-0.421,2.628-1.26,3.708
			c-0.841,1.08-2.148,1.62-3.924,1.62H416.954z M417.241,45.368c-0.816,0-1.428-0.24-1.836-0.72
			c-0.408-0.479-0.611-1.019-0.611-1.62c0-0.6,0.203-1.14,0.611-1.62c0.408-0.479,1.02-0.72,1.836-0.72h5.688
			c0.864,0,1.499,0.241,1.907,0.72c0.408,0.48,0.613,1.021,0.613,1.62c0,0.601-0.205,1.141-0.613,1.62
			c-0.408,0.48-1.043,0.72-1.907,0.72H417.241z"/>
	</g>
	<g>
		<g>
			<path class="st1" d="M40.839,0C18.32,0,0,18.32,0,40.839c0,22.519,18.32,40.839,40.839,40.839s40.839-18.32,40.839-40.839
				C81.677,18.32,63.357,0,40.839,0z M40.839,74.27c-18.434,0-33.431-14.998-33.431-33.432c0-18.434,14.997-33.431,33.431-33.431
				S74.27,22.405,74.27,40.839C74.27,59.273,59.273,74.27,40.839,74.27z"/>
			<path class="st1" d="M60.783,33.354H47.639c-0.624,0-1.176-0.402-1.369-0.995l-4.062-12.501c-0.431-1.327-2.307-1.327-2.739,0
				l-4.062,12.501c-0.193,0.593-0.745,0.995-1.369,0.995H20.894c-1.395,0-1.975,1.785-0.846,2.604l10.634,7.726
				c0.505,0.367,0.716,1.017,0.523,1.61l-4.062,12.501c-0.431,1.327,1.087,2.429,2.216,1.61l10.634-7.726
				c0.505-0.367,1.188-0.367,1.693,0l10.634,7.726c1.128,0.82,2.646-0.283,2.216-1.61l-4.062-12.501
				c-0.193-0.593,0.018-1.243,0.523-1.61l10.634-7.726C62.758,35.139,62.178,33.354,60.783,33.354z"/>
		</g>
	</g>
</g>
</svg>