<!-- Generator: Adobe Illustrator 24.1.3, SVG Export Plug-In  -->
<svg version="1.1" xmlns="http://www.w3.org/2000/svg" xmlns:xlink="http://www.w3.org/1999/xlink" x="0px" y="0px"
	 width="477.675px" height="93.196px" viewBox="0 0 477.675 93.196"
	 style="overflow:visible;enable-background:new 0 0 477.675 93.196;" xml:space="preserve">
<style type="text/css">
	.st0{fill:#BF2222;}
	.st1{fill:none;}
	.st2{font-family:'HYQingFenTi-W';}
	.st3{font-size:72px;}
</style>
<defs>
</defs>
<g>
	<g>
		<g>
			<path class="st0" d="M111.079,62.726c-0.576,1.008-1.249,1.68-2.016,2.016c-0.768,0.336-1.512,0.396-2.232,0.181
				c-0.72-0.216-1.321-0.673-1.8-1.368c-0.48-0.696-0.72-1.62-0.72-2.771V33.998c0-0.959-0.504-1.439-1.512-1.439h-4.104
				c-0.817,0-1.429-0.264-1.836-0.792c-0.409-0.528-0.612-1.104-0.612-1.728c0-0.623,0.216-1.199,0.648-1.729
				c0.432-0.527,1.055-0.792,1.872-0.792h8.208c1.199,0,2.16,0.421,2.88,1.261c0.72,0.84,1.08,1.859,1.08,3.059v22.104
				c0,0.288,0.096,0.528,0.288,0.72c0.191,0.193,0.432,0.17,0.72-0.071l4.248-3.24c0.479-0.239,0.947-0.288,1.404-0.144
				c0.456,0.144,0.792,0.42,1.008,0.828c0.216,0.408,0.276,0.863,0.18,1.367c-0.097,0.504-0.457,0.997-1.08,1.477
				c-1.104,0.816-2.257,1.943-3.456,3.384C113.047,59.703,111.991,61.191,111.079,62.726z M100.999,9.23
				c-0.336-0.479-0.457-0.959-0.36-1.439c0.096-0.479,0.299-0.864,0.612-1.152c0.312-0.288,0.72-0.455,1.224-0.504
				c0.504-0.047,0.996,0.145,1.476,0.576c2.304,1.969,4.127,3.625,5.472,4.968c1.343,1.345,2.472,2.544,3.384,3.601
				c0.624,0.719,0.959,1.451,1.008,2.195c0.047,0.744-0.097,1.429-0.432,2.053c-0.336,0.623-0.817,1.127-1.44,1.512
				c-0.625,0.385-1.296,0.6-2.016,0.647c-0.72,0.048-1.417-0.119-2.088-0.504c-0.673-0.384-1.224-1.056-1.656-2.017
				c-0.576-1.343-1.092-2.494-1.548-3.455c-0.457-0.96-0.889-1.812-1.296-2.557c-0.409-0.743-0.792-1.415-1.152-2.016
				C101.827,10.539,101.431,9.903,100.999,9.23z M159.895,47.606h-17.712v11.593h9.144V53.51c0-1.104,0.335-1.932,1.008-2.483
				c0.672-0.552,1.428-0.828,2.268-0.828c0.839,0,1.595,0.276,2.268,0.828c0.672,0.552,1.008,1.38,1.008,2.483v11.592
				c0,0.72-0.241,1.319-0.72,1.8c-0.48,0.479-1.044,0.816-1.692,1.008s-1.309,0.191-1.98,0c-0.673-0.191-1.201-0.624-1.584-1.295
				c-0.72-1.152-1.453-1.908-2.196-2.269c-0.745-0.36-1.596-0.54-2.556-0.54H129.8c-0.673,0-1.188-0.24-1.548-0.721
				c-0.36-0.479-0.54-1.008-0.54-1.584c0-0.575,0.18-1.104,0.54-1.584c0.36-0.479,0.875-0.719,1.548-0.719h5.976V47.606h-17.928
				c-0.72,0-1.249-0.239-1.584-0.72c-0.336-0.479-0.504-1.02-0.504-1.62c0-0.6,0.167-1.14,0.504-1.62
				c0.335-0.479,0.864-0.72,1.584-0.72h17.928v-2.88c0-1.104,0.335-1.944,1.008-2.52c0.671-0.576,1.404-0.865,2.196-0.865
				s1.523,0.277,2.196,0.828c0.671,0.553,1.008,1.404,1.008,2.557v2.88h17.712c0.768,0,1.332,0.241,1.692,0.72
				c0.36,0.48,0.54,1.021,0.54,1.62c0,0.601-0.18,1.141-0.54,1.62C161.227,47.367,160.663,47.606,159.895,47.606z M153.703,6.134
				c1.152-0.336,2.088-0.228,2.808,0.324c0.72,0.553,1.152,1.236,1.296,2.052c0.144,0.816-0.072,1.62-0.648,2.412
				s-1.584,1.284-3.024,1.476c-2.16,0.288-4.464,0.553-6.912,0.792c-2.448,0.241-5.125,0.468-8.028,0.685
				c-2.905,0.216-6.061,0.408-9.468,0.576c-3.409,0.168-7.153,0.323-11.232,0.467c-0.432,0-0.781-0.167-1.044-0.504
				c-0.264-0.334-0.421-0.707-0.468-1.115c-0.049-0.407,0.023-0.792,0.216-1.152c0.191-0.359,0.504-0.563,0.936-0.611
				c3.983-0.289,7.776-0.648,11.376-1.08c3.6-0.433,6.936-0.9,10.008-1.404c3.071-0.504,5.808-1.008,8.208-1.512
				C150.127,7.035,152.119,6.566,153.703,6.134z M126.703,32.054c-0.529,1.2-1.224,2.424-2.088,3.672
				c-0.864,1.249-2.041,2.833-3.528,4.752c-0.385,0.529-0.841,0.816-1.368,0.864c-0.529,0.048-0.997-0.06-1.404-0.324
				c-0.409-0.263-0.697-0.659-0.864-1.188c-0.169-0.527-0.061-1.127,0.324-1.799c0.72-1.248,1.296-2.473,1.728-3.673
				c0.432-1.199,0.911-2.567,1.44-4.104c0.383-1.151,0.983-1.895,1.8-2.231c0.815-0.335,1.584-0.371,2.304-0.108
				c0.72,0.266,1.284,0.77,1.692,1.513C127.147,30.171,127.136,31.046,126.703,32.054z M126.127,64.958
				c0,1.008-0.336,1.775-1.008,2.304c-0.673,0.527-1.417,0.792-2.232,0.792c-0.817,0-1.561-0.265-2.232-0.792
				c-0.673-0.528-1.008-1.296-1.008-2.304V53.51c0-1.104,0.335-1.932,1.008-2.483c0.671-0.552,1.415-0.828,2.232-0.828
				c0.815,0,1.559,0.276,2.232,0.828c0.672,0.552,1.008,1.38,1.008,2.483V64.958z M123.176,16.501
				c1.343,1.394,2.412,2.521,3.204,3.385c0.792,0.863,1.451,1.633,1.98,2.304c0.72,0.961,0.923,1.872,0.612,2.736
				c-0.313,0.864-0.828,1.501-1.548,1.907c-0.72,0.409-1.501,0.504-2.34,0.289c-0.84-0.217-1.452-0.947-1.836-2.196
				c-0.529-1.584-0.984-2.868-1.368-3.853c-0.385-0.982-0.769-1.883-1.152-2.699c-0.192-0.384-0.228-0.756-0.108-1.116
				c0.119-0.36,0.312-0.647,0.576-0.864c0.263-0.216,0.587-0.324,0.972-0.324C122.551,16.07,122.887,16.214,123.176,16.501z
				 M155.431,35.654h-25.416c-0.72,0-1.249-0.239-1.584-0.72c-0.336-0.479-0.504-0.995-0.504-1.548c0-0.551,0.167-1.068,0.504-1.549
				c0.335-0.479,0.864-0.719,1.584-0.719h25.416c0.672,0,1.176,0.24,1.512,0.719c0.335,0.48,0.504,0.998,0.504,1.549
				c0,0.553-0.169,1.068-0.504,1.548C156.607,35.415,156.103,35.654,155.431,35.654z M137.143,15.422
				c0.911,1.249,1.728,2.4,2.448,3.456c0.72,1.057,1.415,2.185,2.088,3.384c0.623,1.056,0.731,2.005,0.324,2.844
				c-0.409,0.841-0.984,1.44-1.728,1.8c-0.745,0.36-1.537,0.408-2.376,0.145c-0.841-0.264-1.38-0.996-1.62-2.196
				c-0.288-1.44-0.565-2.724-0.828-3.853c-0.264-1.127-0.612-2.436-1.044-3.924c-0.144-0.479-0.121-0.899,0.072-1.26
				c0.191-0.359,0.443-0.623,0.756-0.791c0.312-0.168,0.648-0.229,1.008-0.181S136.903,15.087,137.143,15.422z M147.656,25.43
				c0.432-1.151,0.828-2.376,1.188-3.672s0.78-2.927,1.26-4.896c0.288-1.152,0.839-1.884,1.656-2.197
				c0.815-0.311,1.607-0.323,2.376-0.035c0.767,0.287,1.368,0.853,1.8,1.691c0.432,0.841,0.36,1.836-0.216,2.988
				c-0.72,1.537-1.476,2.893-2.268,4.068s-1.74,2.412-2.844,3.707c-0.288,0.385-0.648,0.613-1.08,0.685
				c-0.432,0.072-0.817,0.024-1.152-0.144c-0.336-0.168-0.588-0.432-0.756-0.793C147.45,26.474,147.463,26.006,147.656,25.43z"/>
			<path class="st0" d="M230.167,19.166h-57.312c-0.864,0-1.512-0.263-1.944-0.791c-0.432-0.527-0.648-1.092-0.648-1.692
				c0-0.6,0.216-1.163,0.648-1.692c0.432-0.527,1.08-0.791,1.944-0.791h57.312c0.816,0,1.44,0.264,1.872,0.791
				c0.432,0.529,0.648,1.093,0.648,1.692c0,0.601-0.205,1.165-0.612,1.692C231.667,18.903,231.032,19.166,230.167,19.166z
				 M223.327,29.749h-43.56c-0.912,0-1.596-0.252-2.052-0.756c-0.457-0.504-0.684-1.067-0.684-1.691
				c0-0.623,0.227-1.188,0.684-1.691c0.456-0.505,1.14-0.757,2.052-0.757h43.56c0.864,0,1.523,0.252,1.98,0.757
				c0.456,0.504,0.684,1.068,0.684,1.691c0,0.624-0.216,1.188-0.648,1.691S224.239,29.749,223.327,29.749z M223.183,40.046h-43.272
				c-0.912,0-1.596-0.252-2.052-0.756c-0.457-0.504-0.684-1.068-0.684-1.692c0-0.623,0.227-1.188,0.684-1.692
				c0.456-0.504,1.14-0.756,2.052-0.756h43.272c0.864,0,1.523,0.252,1.98,0.756c0.456,0.504,0.684,1.069,0.684,1.692
				c0,0.624-0.216,1.188-0.648,1.692S224.095,40.046,223.183,40.046z M177.895,65.39c0,1.152,0.384,2.004,1.152,2.557
				c0.767,0.551,1.595,0.827,2.484,0.827c0.888,0,1.715-0.276,2.484-0.827c0.767-0.553,1.152-1.404,1.152-2.557V48.758
				c0-1.152-0.385-2.004-1.152-2.556c-0.769-0.552-1.596-0.828-2.484-0.828c-0.889,0-1.717,0.276-2.484,0.828
				c-0.769,0.552-1.152,1.403-1.152,2.556V65.39z M218.647,67.695c0.432,0.575,0.996,0.923,1.692,1.043
				c0.695,0.119,1.368,0.072,2.016-0.144c0.648-0.216,1.199-0.624,1.656-1.224c0.456-0.602,0.684-1.332,0.684-2.196V51.494
				c0-3.935-1.969-5.903-5.904-5.903h-29.664c-0.768,0-1.344,0.252-1.728,0.756c-0.385,0.504-0.576,1.069-0.576,1.692
				c0,0.624,0.191,1.188,0.576,1.691c0.383,0.504,0.959,0.756,1.728,0.756h26.208c0.768,0,1.308,0.145,1.62,0.432
				c0.312,0.289,0.468,0.793,0.468,1.513v7.416h-28.296c-0.768,0-1.344,0.252-1.728,0.756c-0.385,0.504-0.576,1.056-0.576,1.656
				c0,0.6,0.191,1.151,0.576,1.655c0.383,0.504,0.959,0.756,1.728,0.756h24.192c1.055,0,1.991,0.229,2.808,0.685
				C216.943,65.81,217.783,66.589,218.647,67.695z M199.136,3.542c1.968,1.248,3.719,2.473,5.256,3.672
				c1.055,0.912,1.5,1.848,1.332,2.808c-0.169,0.961-0.648,1.728-1.44,2.304s-1.717,0.841-2.772,0.793
				c-1.057-0.048-1.897-0.623-2.52-1.729c-1.057-1.872-2.113-3.623-3.168-5.256c-0.336-0.479-0.468-0.96-0.396-1.439
				c0.072-0.48,0.288-0.865,0.648-1.152c0.36-0.289,0.803-0.456,1.332-0.504C197.935,2.991,198.511,3.159,199.136,3.542z"/>
			<path class="st0" d="M244.783,19.527c0-1.2,0.36-2.089,1.08-2.664c0.72-0.576,1.512-0.865,2.376-0.865
				c0.864,0,1.656,0.289,2.376,0.865c0.72,0.575,1.08,1.464,1.08,2.664v44.424c0,1.247-0.36,2.171-1.08,2.771
				c-0.72,0.6-1.512,0.9-2.376,0.9c-0.864,0-1.656-0.301-2.376-0.9c-0.72-0.601-1.08-1.524-1.08-2.771V19.527z M253.999,40.226
				c-0.432-0.504-0.648-1.044-0.648-1.62c0-0.575,0.216-1.116,0.648-1.62c0.432-0.504,1.055-0.756,1.872-0.756h7.632V23.486
				c0-0.863-0.288-1.535-0.864-2.016c-0.576-0.479-1.321-0.721-2.232-0.721h-4.536c-0.768,0-1.344-0.227-1.728-0.684
				c-0.385-0.455-0.601-0.972-0.648-1.548c-0.048-0.576,0.083-1.116,0.396-1.62c0.312-0.504,0.803-0.803,1.476-0.9
				c0.191-1.343,0.348-2.746,0.468-4.211c0.12-1.465,0.204-2.557,0.252-3.276c0.047-1.343,0.491-2.304,1.332-2.88
				c0.839-0.576,1.716-0.793,2.628-0.648c0.911,0.145,1.68,0.625,2.304,1.44c0.624,0.816,0.768,1.92,0.432,3.312
				c-0.241,0.816-0.576,1.74-1.008,2.772c-0.432,1.032-0.984,2.173-1.656,3.42h3.816c2.4,0,4.068,0.612,5.004,1.836
				c0.936,1.224,1.404,2.7,1.404,4.428v35.28c0,1.681-0.444,3.023-1.332,4.031c-0.889,1.009-2.46,1.513-4.716,1.513h-8.424
				c-0.817,0-1.417-0.252-1.8-0.756c-0.385-0.505-0.576-1.056-0.576-1.656c0-0.6,0.191-1.151,0.576-1.655
				c0.383-0.505,0.983-0.757,1.8-0.757h7.632V40.982h-7.632C255.054,40.982,254.431,40.73,253.999,40.226z M271.928,30.434
				c0.191,0.504,0.492,0.864,0.9,1.08c0.407,0.216,0.864,0.276,1.368,0.181s0.972-0.457,1.404-1.08
				c2.016-3.024,3.816-6.252,5.4-9.685c1.584-3.431,2.88-7.308,3.888-11.628c0.288-1.296,0.108-2.352-0.54-3.168
				s-1.44-1.308-2.376-1.477c-0.936-0.167-1.861,0.025-2.772,0.576c-0.913,0.553-1.465,1.524-1.656,2.916
				c-0.672,4.129-1.476,7.885-2.412,11.268c-0.936,3.385-1.98,6.517-3.132,9.396C271.759,29.39,271.735,29.93,271.928,30.434z
				 M280.243,38.606c-0.792-1.872-1.524-3.503-2.196-4.896c-0.192-0.432-0.216-0.852-0.072-1.26s0.384-0.744,0.72-1.009
				c0.335-0.263,0.731-0.396,1.188-0.396c0.456,0,0.9,0.216,1.332,0.648c3.312,3.359,5.951,6.551,7.92,9.575
				c0.72,1.104,0.875,2.16,0.468,3.168c-0.408,1.009-1.056,1.765-1.944,2.269c-0.889,0.504-1.836,0.647-2.844,0.432
				c-1.008-0.216-1.728-0.973-2.16-2.268C281.839,42.566,281.035,40.478,280.243,38.606z M291.763,68.63
				c-0.696-0.336-1.092-0.841-1.188-1.512c-0.144-0.865-0.468-1.549-0.972-2.053c-0.504-0.504-1.188-0.9-2.052-1.188
				c-0.864-0.288-1.897-0.504-3.096-0.648c-1.2-0.145-2.544-0.288-4.032-0.432c-0.529-0.049-0.925-0.277-1.188-0.684
				c-0.265-0.409-0.385-0.84-0.36-1.297c0.024-0.455,0.191-0.863,0.504-1.224c0.312-0.36,0.779-0.54,1.404-0.54
				c1.055,0.049,2.135,0.072,3.24,0.072c1.104,0,2.135-0.023,3.096-0.072c0.959-0.047,1.824-0.145,2.592-0.288
				c0.767-0.144,1.392-0.36,1.872-0.647c0.96-0.576,1.692-1.645,2.196-3.205c0.504-1.559,0.875-3.755,1.116-6.588
				c0.24-2.831,0.384-6.347,0.432-10.547c0.047-4.2,0.072-9.181,0.072-14.941c0-0.767-0.157-1.331-0.468-1.691
				c-0.313-0.359-0.9-0.54-1.764-0.54h-6.696c-0.769,0-1.344-0.252-1.728-0.756c-0.385-0.504-0.576-1.056-0.576-1.655
				s0.191-1.152,0.576-1.656c0.384-0.504,0.959-0.756,1.728-0.756h10.8c1.056,0,1.919,0.168,2.592,0.504
				c0.671,0.336,1.211,0.791,1.62,1.367c0.407,0.576,0.684,1.225,0.828,1.944s0.216,1.44,0.216,2.16
				c0,7.296-0.072,13.561-0.216,18.792c-0.144,5.232-0.504,9.672-1.08,13.32c-0.576,3.648-1.429,6.612-2.556,8.892
				c-1.128,2.279-2.653,4.091-4.572,5.437C293.24,68.822,292.459,68.965,291.763,68.63z"/>
			<path class="st0" d="M333.703,8.367c0.576-1.297,1.379-2.1,2.412-2.412c1.032-0.313,1.991-0.264,2.88,0.144
				c0.888,0.408,1.559,1.093,2.016,2.052c0.456,0.961,0.396,2.064-0.18,3.313c-1.825,4.08-4.86,8.256-9.108,12.527
				c-4.248,4.273-9.732,8.377-16.452,12.312c-0.624,0.385-1.177,0.492-1.656,0.324c-0.48-0.168-0.853-0.456-1.116-0.864
				c-0.264-0.407-0.349-0.876-0.252-1.404c0.096-0.527,0.407-0.983,0.936-1.368c4.799-3.359,8.916-7.151,12.348-11.375
				C328.963,17.391,331.687,12.974,333.703,8.367z M340.327,44.582c-0.912,5.089-3.456,9.661-7.632,13.717
				c-4.176,4.055-9.889,7.596-17.136,10.619c-0.625,0.24-1.141,0.24-1.548,0c-0.408-0.24-0.696-0.588-0.864-1.043
				c-0.168-0.457-0.192-0.926-0.072-1.404c0.119-0.48,0.396-0.816,0.828-1.008c5.807-2.592,10.271-5.771,13.392-9.54
				c3.12-3.769,5.087-7.812,5.904-12.132c0.24-1.297,0.792-2.196,1.656-2.7c0.864-0.505,1.728-0.685,2.592-0.54
				c0.864,0.145,1.607,0.564,2.232,1.26C340.303,42.506,340.519,43.43,340.327,44.582z M360.847,33.638
				c1.055,0,1.919,0.168,2.592,0.504c0.672,0.336,1.212,0.792,1.62,1.368c0.407,0.575,0.684,1.224,0.828,1.944
				c0.144,0.72,0.216,1.439,0.216,2.16c0,7.392-0.624,13.428-1.872,18.107c-1.249,4.68-3.576,8.172-6.984,10.477
				c-0.864,0.575-1.656,0.684-2.376,0.323c-0.72-0.36-1.08-0.827-1.08-1.403c0-0.77-0.133-1.404-0.396-1.908
				c-0.264-0.504-0.708-0.912-1.332-1.225c-0.624-0.313-1.464-0.564-2.52-0.756c-1.056-0.192-2.4-0.359-4.032-0.504
				c-0.529-0.049-0.925-0.264-1.188-0.648c-0.265-0.385-0.396-0.803-0.396-1.26c0-0.455,0.155-0.852,0.468-1.188
				c0.312-0.336,0.78-0.504,1.404-0.504c1.536,0.048,2.927,0.048,4.176,0c1.248-0.047,2.352-0.096,3.312-0.145
				c1.055-0.047,1.932-0.396,2.628-1.044c0.695-0.647,1.248-1.68,1.656-3.096c0.407-1.415,0.695-3.24,0.864-5.472
				c0.168-2.232,0.252-5.004,0.252-8.316c0-0.768-0.156-1.332-0.468-1.691c-0.313-0.361-0.9-0.541-1.764-0.541h-33.408
				c-0.817,0-1.44-0.263-1.872-0.791s-0.648-1.117-0.648-1.765s0.216-1.247,0.648-1.8c0.432-0.551,1.055-0.828,1.872-0.828H360.847z
				 M376.543,30.758c1.152,0.624,1.836,1.452,2.052,2.483c0.216,1.033,0.096,1.98-0.36,2.844c-0.457,0.865-1.165,1.489-2.124,1.873
				c-0.961,0.385-1.993,0.24-3.096-0.432c-5.376-3.216-10.141-7.416-14.292-12.601c-4.152-5.185-7.5-10.991-10.044-17.425
				c-0.241-0.575-0.241-1.115,0-1.619c0.24-0.504,0.6-0.864,1.08-1.08c0.479-0.217,0.983-0.24,1.512-0.072
				c0.528,0.169,0.983,0.588,1.368,1.26c2.736,5.185,6.167,9.937,10.296,14.256C367.063,24.566,371.599,28.07,376.543,30.758z"/>
			<path class="st0" d="M388.712,48.253c-0.864,0-1.501-0.252-1.908-0.756c-0.408-0.504-0.612-1.055-0.612-1.655
				c0-0.6,0.204-1.152,0.612-1.656c0.407-0.504,1.044-0.756,1.908-0.756h24.336c0.095-0.433,0.167-0.876,0.216-1.332
				c0.047-0.456,0.096-0.947,0.144-1.476c0.096-1.297,0.54-2.232,1.332-2.809s1.631-0.839,2.52-0.792
				c0.888,0.048,1.703,0.396,2.448,1.044c0.744,0.648,1.116,1.501,1.116,2.557c0,0.528-0.012,1.02-0.036,1.476
				c-0.025,0.456-0.061,0.899-0.108,1.332h25.344c0.816,0,1.428,0.252,1.836,0.756c0.407,0.504,0.623,1.057,0.648,1.656
				c0.023,0.601-0.169,1.151-0.576,1.655c-0.408,0.504-1.044,0.756-1.908,0.756h-26.352c-0.817,2.305-2.052,4.441-3.708,6.408
				c-1.656,1.969-3.829,3.805-6.516,5.508c-2.689,1.704-5.917,3.301-9.684,4.789c-3.769,1.486-8.125,2.903-13.068,4.248
				c-0.576,0.144-1.08,0.083-1.512-0.18c-0.432-0.266-0.745-0.613-0.936-1.045c-0.192-0.432-0.216-0.863-0.072-1.296
				s0.504-0.745,1.08-0.937c3.839-1.199,7.236-2.412,10.188-3.635c2.952-1.225,5.508-2.531,7.668-3.925
				c2.16-1.392,3.947-2.892,5.364-4.5c1.416-1.607,2.531-3.42,3.348-5.437H388.712z M387.055,40.046
				c-0.48,0.144-0.9,0.084-1.26-0.18c-0.36-0.264-0.625-0.588-0.792-0.973c-0.169-0.383-0.192-0.779-0.072-1.188
				c0.119-0.408,0.396-0.685,0.828-0.828c2.063-0.721,3.948-1.464,5.652-2.232c1.703-0.768,3.312-1.584,4.824-2.447
				c1.512-0.865,2.999-1.801,4.464-2.809c1.463-1.008,2.963-2.135,4.5-3.384c0.911-0.72,1.811-0.972,2.7-0.757
				c0.887,0.217,1.571,0.674,2.052,1.369c0.479,0.695,0.672,1.512,0.576,2.447c-0.097,0.936-0.696,1.764-1.8,2.484
				c-1.776,1.152-4.464,2.509-8.064,4.068C397.063,37.179,392.528,38.654,387.055,40.046z M388.999,24.062
				c-0.816,0-1.429-0.252-1.836-0.756c-0.408-0.504-0.612-1.055-0.612-1.656c0-0.6,0.204-1.152,0.612-1.656
				c0.407-0.504,1.02-0.756,1.836-0.756h24.768V7.934c0-1.199,0.372-2.075,1.116-2.628c0.744-0.551,1.571-0.815,2.484-0.792
				c0.911,0.024,1.739,0.337,2.484,0.937c0.744,0.6,1.116,1.476,1.116,2.627v11.16h24.84c0.816,0,1.428,0.252,1.836,0.756
				c0.407,0.504,0.612,1.057,0.612,1.656c0,0.602-0.205,1.152-0.612,1.656c-0.408,0.504-1.02,0.756-1.836,0.756h-24.84v7.992
				c0,1.152-0.373,2.016-1.116,2.592c-0.745,0.576-1.573,0.864-2.484,0.864c-0.913,0-1.74-0.288-2.484-0.864
				c-0.745-0.576-1.116-1.439-1.116-2.592v-7.992H388.999z M400.807,16.358c-1.008-1.247-1.884-2.268-2.628-3.06
				c-0.745-0.792-1.524-1.596-2.34-2.412c-0.48-0.432-0.745-0.9-0.792-1.404c-0.048-0.504,0.047-0.924,0.288-1.26
				c0.24-0.336,0.587-0.576,1.044-0.721c0.456-0.144,0.972-0.071,1.548,0.217c1.68,0.816,3.071,1.512,4.176,2.088
				c1.104,0.576,2.184,1.2,3.24,1.872c1.008,0.673,1.512,1.488,1.512,2.448c0,0.961-0.3,1.789-0.9,2.484
				c-0.601,0.695-1.38,1.104-2.34,1.223C402.655,17.955,401.719,17.462,400.807,16.358z M444.727,68.846
				c-2.88-0.913-5.497-1.872-7.848-2.88c-2.353-1.008-4.5-2.101-6.444-3.276c-1.944-1.177-3.708-2.436-5.292-3.78
				c-1.584-1.343-3.072-2.808-4.464-4.392c-0.48-0.576-0.709-1.116-0.684-1.62c0.024-0.504,0.18-0.911,0.468-1.224
				c0.288-0.312,0.671-0.505,1.152-0.576c0.479-0.071,0.936,0.061,1.368,0.396c1.487,1.152,2.976,2.173,4.464,3.061
				c1.487,0.889,3.143,1.704,4.968,2.447c1.824,0.746,3.936,1.465,6.336,2.16c2.4,0.697,5.256,1.43,8.568,2.196
				c1.44,0.384,2.363,1.067,2.772,2.052c0.407,0.984,0.432,1.944,0.072,2.881c-0.36,0.936-1.021,1.703-1.98,2.304
				C447.223,69.194,446.071,69.279,444.727,68.846z M441.991,39.326c-1.393-0.814-2.749-1.595-4.068-2.34
				c-1.321-0.743-2.689-1.486-4.104-2.232c-1.417-0.742-2.905-1.512-4.464-2.303c-1.56-0.793-3.276-1.621-5.148-2.484
				c-0.432-0.191-0.72-0.504-0.864-0.936c-0.144-0.433-0.144-0.852,0-1.261c0.144-0.407,0.419-0.72,0.828-0.937
				c0.407-0.215,0.972-0.227,1.692-0.035c2.304,0.72,4.379,1.367,6.228,1.943c1.847,0.576,3.539,1.116,5.076,1.621
				c1.536,0.504,2.94,0.984,4.212,1.439c1.271,0.457,2.507,0.9,3.708,1.332c1.199,0.432,1.908,1.115,2.124,2.052
				c0.216,0.937,0.108,1.813-0.324,2.628c-0.432,0.816-1.092,1.429-1.98,1.836C444.019,40.058,443.047,39.951,441.991,39.326z
				 M431.911,8.006c0.864-1.248,1.812-1.884,2.844-1.908c1.031-0.023,1.896,0.3,2.592,0.972c0.695,0.673,1.055,1.537,1.08,2.592
				c0.023,1.057-0.565,2.017-1.764,2.881c-1.008,0.768-2.005,1.465-2.988,2.088c-0.984,0.624-2.172,1.296-3.564,2.016
				c-0.529,0.288-1.021,0.373-1.476,0.252c-0.457-0.119-0.828-0.359-1.116-0.72s-0.432-0.78-0.432-1.261
				c0-0.479,0.191-0.936,0.576-1.367c0.72-0.816,1.404-1.631,2.052-2.448C430.364,10.287,431.095,9.255,431.911,8.006z"/>
		</g>
	</g>
	<g>
		<g>
			<path class="st0" d="M74.12,60.786l-5.958-14.853c2.658-4.459,4.053-9.429,4.053-14.489C72.215,14.106,56.018,0,36.108,0
				S0,14.106,0,31.444c0,17.339,16.198,31.444,36.108,31.444c5.667,0,11.268-1.166,16.303-3.384l16.929,6.207
				c0.422,0.155,0.859,0.23,1.292,0.23c0.998,0,1.976-0.398,2.697-1.141C74.362,63.736,74.672,62.163,74.12,60.786z M60.468,46.933
				l3.538,8.821l-10.474-3.841c-0.418-0.154-0.856-0.23-1.293-0.23c-0.571,0-1.14,0.13-1.663,0.388
				c-4.38,2.162-9.383,3.304-14.469,3.304c-15.767,0-28.595-10.735-28.595-23.931c0-13.195,12.828-23.931,28.595-23.931
				c15.767,0,28.594,10.735,28.594,23.931c0,4.194-1.327,8.327-3.837,11.952C60.148,44.434,59.998,45.762,60.468,46.933z"/>
			<path class="st0" d="M22.014,27.026c-2.462,0-4.459,1.996-4.459,4.458c0,2.462,1.996,4.458,4.459,4.458
				c2.462,0,4.457-1.996,4.457-4.458C26.472,29.022,24.476,27.026,22.014,27.026z"/>
			<path class="st0" d="M36.108,27.026c-2.462,0-4.458,1.996-4.458,4.458c0,2.462,1.996,4.458,4.458,4.458
				c2.462,0,4.457-1.996,4.457-4.458C40.565,29.022,38.569,27.026,36.108,27.026z"/>
			<circle class="st0" cx="50.984" cy="31.484" r="4.458"/>
		</g>
	</g>
</g>
</svg>