<!-- Generator: Adobe Illustrator 24.1.3, SVG Export Plug-In  -->
<svg version="1.1" xmlns="http://www.w3.org/2000/svg" xmlns:xlink="http://www.w3.org/1999/xlink" x="0px" y="0px"
	 width="500.753px" height="977.071px" viewBox="0 0 500.753 977.071"
	 style="overflow:visible;enable-background:new 0 0 500.753 977.071;" xml:space="preserve">
<style type="text/css">
	.st0{fill:#FFFFFF;stroke:#1C3B94;stroke-width:19.4763;stroke-linecap:round;stroke-linejoin:round;stroke-miterlimit:10;}
	.st1{fill:none;}
	.st2{fill:#1C3B94;}
	.st3{fill:#BF2222;}
	.st4{font-family:'HYQingFenTi-W';}
	.st5{font-size:146px;}
	.st6{letter-spacing:7;}
</style>
<defs>
</defs>
<g>
	<rect x="9.738" y="9.738" class="st0" width="481.277" height="957.595"/>
	<g>
		<rect x="98.241" y="112.99" class="st1" width="309.854" height="773.902"/>
		<path class="st2" d="M116.491,208.037c-2.336,2.24-4.526,3.212-6.57,2.92s-3.602-1.216-4.672-2.774
			c-1.072-1.556-1.437-3.38-1.095-5.475c0.34-2.092,1.775-3.819,4.307-5.183c3.6-1.946,6.837-3.942,9.709-5.986
			c2.87-2.044,5.425-3.99,7.665-5.84c0.194-0.194,0.365-0.315,0.511-0.365c0.146-0.048,0.315-0.121,0.511-0.219
			c0.194-5.84,0.314-12.287,0.365-19.345c0.048-7.056,0.073-14.867,0.073-23.433c0-2.432,0.752-4.257,2.263-5.475
			c1.508-1.216,3.139-1.825,4.891-1.825s3.381,0.634,4.891,1.898c1.508,1.266,2.263,3.164,2.263,5.694
			c0,7.008-0.025,13.482-0.073,19.418c-0.05,5.938-0.171,11.461-0.365,16.571c-0.196,5.11-0.463,9.855-0.803,14.235
			c-0.342,4.38-0.755,8.518-1.241,12.41c-0.682,5.062-1.656,9.687-2.92,13.87c-1.266,4.186-2.897,8.08-4.891,11.68
			c-1.996,3.602-4.405,7.031-7.227,10.293c-2.824,3.26-6.132,6.497-9.928,9.709c-0.876,0.68-1.802,0.924-2.774,0.73
			c-0.974-0.196-1.802-0.634-2.482-1.314c-0.682-0.682-1.047-1.533-1.095-2.555c-0.05-1.022,0.413-2.069,1.387-3.139
			c4.866-4.77,8.614-10.195,11.242-16.279c2.628-6.082,4.38-13.505,5.256-22.265l0.73-9.636
			C123.595,200.349,120.287,204.241,116.491,208.037z M110.359,168.471c-0.78-2.628-1.558-5.256-2.336-7.884
			c-0.78-2.628-1.51-4.818-2.19-6.57c-0.292-0.972-0.244-1.92,0.146-2.847c0.388-0.924,0.972-1.629,1.752-2.117
			c0.778-0.486,1.679-0.657,2.701-0.511s2.019,0.803,2.993,1.971c0.584,0.682,1.314,1.631,2.19,2.847
			c0.876,1.218,1.752,2.482,2.628,3.796s1.702,2.532,2.482,3.65c0.778,1.12,1.314,1.923,1.606,2.409
			c1.556,2.336,1.971,4.503,1.241,6.497c-0.73,1.996-1.948,3.431-3.65,4.307c-1.704,0.876-3.504,0.949-5.402,0.219
			S111.235,171.587,110.359,168.471z M232.123,238.405c2.724,0.584,4.526,1.775,5.402,3.577c0.876,1.8,1.022,3.625,0.438,5.475
			c-0.584,1.848-1.752,3.358-3.504,4.526c-1.752,1.168-3.894,1.362-6.424,0.584c-6.716-2.044-13.603-4.478-20.659-7.3
			c-7.058-2.824-14.187-6.522-21.389-11.096c-6.23,2.824-13.117,5.767-20.659,8.833c-7.544,3.066-15.987,6.351-25.331,9.855
			c-1.168,0.486-2.263,0.438-3.285-0.146s-1.752-1.364-2.19-2.336c-0.438-0.974-0.536-1.971-0.292-2.993
			c0.242-1.022,1.045-1.825,2.409-2.409c7.884-3.116,15.184-6.036,21.9-8.76c6.716-2.724,12.848-5.498,18.396-8.322
			c-2.824-2.14-5.598-4.428-8.322-6.862c-2.726-2.432-5.452-5.11-8.176-8.03c-0.974-0.972-1.387-1.946-1.241-2.92
			c0.146-0.972,0.584-1.8,1.314-2.482c0.73-0.68,1.606-1.095,2.628-1.241s1.971,0.123,2.847,0.803
			c3.698,3.116,7.323,5.89,10.877,8.322c3.552,2.434,7.031,4.672,10.439,6.716c7.3-4.476,12.994-9.246,17.082-14.308
			c0.778-1.07,0.997-2.044,0.657-2.92c-0.342-0.876-1.339-1.314-2.993-1.314h-47.742c-1.558,0-2.751-0.511-3.577-1.533
			c-0.828-1.022-1.241-2.14-1.241-3.358c0-1.216,0.388-2.336,1.168-3.358c0.778-1.022,1.994-1.533,3.65-1.533h59.276
			c2.14,0,4.015,0.463,5.621,1.387c1.606,0.926,2.797,2.142,3.577,3.65c0.778,1.51,1.045,3.212,0.803,5.11
			c-0.244,1.898-1.145,3.821-2.701,5.767c-2.824,3.408-6.084,6.595-9.782,9.563c-3.7,2.97-7.982,5.817-12.848,8.541
			c5.548,2.532,11.071,4.649,16.571,6.351C220.319,235.948,226.086,237.333,232.123,238.405z M160.874,161.171
			c0-2.724,0.778-4.745,2.336-6.059c1.556-1.314,3.26-1.971,5.11-1.971c1.848,0,3.552,0.657,5.11,1.971
			c1.556,1.314,2.336,3.335,2.336,6.059c0,4.284-0.707,8.007-2.117,11.169c-1.412,3.164-3.285,5.963-5.621,8.395
			c-2.336,2.434-5.014,4.551-8.03,6.351c-3.018,1.802-6.132,3.431-9.344,4.891c-1.168,0.488-2.24,0.561-3.212,0.219
			c-0.974-0.34-1.729-0.899-2.263-1.679c-0.536-0.778-0.755-1.628-0.657-2.555c0.096-0.924,0.68-1.727,1.752-2.409
			c2.53-1.654,4.72-3.235,6.57-4.745c1.848-1.508,3.358-3.187,4.526-5.037c1.168-1.848,2.044-3.942,2.628-6.278
			S160.874,164.383,160.874,161.171z M149.633,145.403c-1.752,0-3.043-0.511-3.869-1.533c-0.828-1.022-1.241-2.165-1.241-3.431
			c0-1.264,0.413-2.409,1.241-3.431c0.826-1.022,2.117-1.533,3.869-1.533h27.886l-4.964-9.782c-0.584-0.972-0.755-1.898-0.511-2.774
			c0.242-0.876,0.705-1.581,1.387-2.117c0.68-0.534,1.533-0.826,2.555-0.876c1.022-0.048,2.117,0.365,3.285,1.241
			c3.212,2.336,5.596,4.211,7.154,5.621c1.556,1.412,2.578,2.361,3.066,2.847c0.972,0.974,1.606,1.948,1.898,2.92
			c0.292,0.974,0.34,1.948,0.146,2.92h40.442c1.752,0,3.089,0.511,4.015,1.533c0.924,1.022,1.387,2.167,1.387,3.431
			c0,1.266-0.463,2.409-1.387,3.431c-0.926,1.022-2.263,1.533-4.015,1.533H149.633z M184.527,162.631
			c-1.656,0-2.872-0.511-3.65-1.533c-0.78-1.022-1.168-2.117-1.168-3.285s0.388-2.263,1.168-3.285
			c0.778-1.022,1.994-1.533,3.65-1.533h21.17c3.114,0,5.498,0.974,7.154,2.92c1.654,1.948,2.482,4.526,2.482,7.738v6.716
			c0,2.24,0.413,3.7,1.241,4.38c0.826,0.682,2.311,1.022,4.453,1.022h7.154c1.752,0,3.089,0.584,4.015,1.752
			c0.924,1.168,1.387,2.459,1.387,3.869c0,1.412-0.463,2.701-1.387,3.869c-0.926,1.168-2.263,1.752-4.015,1.752h-12.556
			c-5.744,0-9.734-1.216-11.972-3.65c-2.24-2.432-3.358-5.936-3.358-10.512v-6.716c0-2.336-1.218-3.504-3.65-3.504H184.527z"/>
		<path class="st2" d="M272.418,151.097c0,3.796-0.025,7.154-0.073,10.074c-0.05,2.92-0.124,5.598-0.219,8.03
			c-0.098,2.434-0.292,4.795-0.584,7.081c-0.292,2.288-0.634,4.649-1.022,7.081c-0.488,2.532-1.583,4.284-3.285,5.256
			c-1.704,0.974-3.383,1.241-5.037,0.803c-1.656-0.438-2.97-1.533-3.942-3.285c-0.974-1.752-0.926-4.088,0.146-7.008
			c0.972-2.822,1.775-5.352,2.409-7.592c0.632-2.238,1.191-4.453,1.679-6.643c0.486-2.19,0.898-4.428,1.241-6.716
			c0.34-2.286,0.753-4.891,1.241-7.811c0.096-1.168,0.559-2.019,1.387-2.555c0.826-0.534,1.679-0.753,2.555-0.657
			c0.876,0.098,1.679,0.488,2.409,1.168C272.054,149.005,272.418,149.929,272.418,151.097z M289.354,245.851
			c0,2.336-0.682,4.088-2.044,5.256c-1.364,1.168-2.872,1.752-4.526,1.752c-1.656,0-3.164-0.584-4.526-1.752
			c-1.364-1.168-2.044-2.92-2.044-5.256V128.613c0-2.432,0.68-4.234,2.044-5.402c1.362-1.168,2.87-1.727,4.526-1.679
			c1.654,0.05,3.162,0.657,4.526,1.825c1.362,1.168,2.044,2.92,2.044,5.256V245.851z M297.239,145.841
			c1.848,2.824,3.358,5.306,4.526,7.446c1.168,2.142,2.238,4.333,3.212,6.57c0.876,2.044,0.851,3.796-0.073,5.256
			c-0.926,1.46-2.117,2.482-3.577,3.066s-2.92,0.584-4.38,0c-1.46-0.584-2.336-1.946-2.628-4.088
			c-0.584-3.698-1.095-6.618-1.533-8.76c-0.438-2.14-0.949-4.476-1.533-7.008c-0.196-0.876-0.073-1.654,0.365-2.336
			c0.438-0.68,0.972-1.143,1.606-1.387c0.632-0.242,1.337-0.267,2.117-0.073C296.119,144.723,296.75,145.161,297.239,145.841z
			 M382.648,144.235h-30.076v7.738h24.09c1.556,0,2.724,0.488,3.504,1.46c0.778,0.974,1.168,2.044,1.168,3.212
			s-0.39,2.24-1.168,3.212c-0.78,0.974-1.948,1.46-3.504,1.46h-24.09v8.03h34.31c1.556,0,2.724,0.488,3.504,1.46
			c0.778,0.974,1.168,2.069,1.168,3.285c0,1.218-0.39,2.313-1.168,3.285c-0.78,0.974-1.948,1.46-3.504,1.46h-82.636
			c-1.558,0-2.726-0.486-3.504-1.46c-0.78-0.972-1.168-2.067-1.168-3.285c0-1.216,0.388-2.311,1.168-3.285
			c0.778-0.972,1.946-1.46,3.504-1.46h34.31v-8.03h-23.944c-1.558,0-2.726-0.486-3.504-1.46c-0.78-0.972-1.168-2.044-1.168-3.212
			s0.388-2.238,1.168-3.212c0.778-0.972,1.946-1.46,3.504-1.46h23.944v-7.738H308.48c-1.558,0-2.726-0.486-3.504-1.46
			c-0.78-0.972-1.168-2.044-1.168-3.212s0.388-2.238,1.168-3.212c0.778-0.972,1.946-1.46,3.504-1.46h30.076v-6.57
			c0.096-2.53,0.876-4.428,2.336-5.694c1.46-1.264,3.066-1.898,4.818-1.898s3.333,0.634,4.745,1.898
			c1.41,1.266,2.117,3.164,2.117,5.694v6.57h30.076c1.556,0,2.724,0.488,3.504,1.46c0.778,0.974,1.168,2.044,1.168,3.212
			s-0.39,2.24-1.168,3.212C385.373,143.749,384.204,144.235,382.648,144.235z M322.935,245.851c0,2.336-0.707,4.063-2.117,5.183
			c-1.412,1.118-2.993,1.679-4.745,1.679c-1.752,0-3.335-0.561-4.745-1.679c-1.412-1.12-2.117-2.847-2.117-5.183v-52.852
			c0-2.336,0.705-4.063,2.117-5.183c1.41-1.118,2.993-1.679,4.745-1.679c1.752,0,3.333,0.562,4.745,1.679
			c1.41,1.12,2.117,2.847,2.117,5.183V245.851z M381.334,200.007c0-2.044-0.171-3.917-0.511-5.621
			c-0.342-1.702-0.974-3.162-1.898-4.38c-0.926-1.216-2.19-2.165-3.796-2.847c-1.606-0.68-3.675-1.022-6.205-1.022h-37.376
			c-1.656,0-2.872,0.488-3.65,1.46c-0.78,0.974-1.168,2.069-1.168,3.285c0,1.218,0.388,2.313,1.168,3.285
			c0.778,0.974,1.994,1.46,3.65,1.46h30.368c3.698,0,5.548,2.094,5.548,6.278v23.652c0,1.948-0.098,3.577-0.292,4.891
			c-0.196,1.314-0.73,2.336-1.606,3.066s-2.215,1.218-4.015,1.46c-1.802,0.244-4.259,0.27-7.373,0.073
			c-0.974-0.096-1.752,0.171-2.336,0.803c-0.584,0.634-0.926,1.362-1.022,2.19c-0.098,0.826,0.073,1.606,0.511,2.336
			s1.191,1.143,2.263,1.241c4.38,0.68,7.688,1.581,9.928,2.701c2.238,1.118,3.212,2.651,2.92,4.599
			c-0.292,1.752,0.365,2.92,1.971,3.504s3.381,0.194,5.329-1.168c1.654-1.168,2.993-2.336,4.015-3.504s1.8-2.409,2.336-3.723
			c0.534-1.314,0.876-2.774,1.022-4.38s0.219-3.431,0.219-5.475V200.007z M358.851,211.833h-27.302c-1.46,0-2.555-0.461-3.285-1.387
			c-0.73-0.924-1.095-1.971-1.095-3.139s0.365-2.212,1.095-3.139c0.73-0.924,1.825-1.387,3.285-1.387h27.302
			c1.46,0,2.578,0.463,3.358,1.387c0.778,0.926,1.168,1.971,1.168,3.139s-0.39,2.215-1.168,3.139
			C361.428,211.372,360.311,211.833,358.851,211.833z M358.705,228.039h-27.156c-1.46,0-2.555-0.461-3.285-1.387
			c-0.73-0.924-1.095-1.971-1.095-3.139s0.365-2.213,1.095-3.139c0.73-0.924,1.825-1.387,3.285-1.387h27.156
			c1.556,0,2.701,0.463,3.431,1.387c0.73,0.926,1.095,1.971,1.095,3.139s-0.365,2.215-1.095,3.139
			C361.406,227.578,360.26,228.039,358.705,228.039z"/>
		<path class="st2" d="M110.359,452.129c-0.974,0.68-1.948,0.949-2.92,0.803c-0.974-0.146-1.777-0.536-2.409-1.168
			c-0.634-0.634-0.999-1.437-1.095-2.409c-0.098-0.974,0.292-1.898,1.168-2.774c1.654-1.85,3.187-3.577,4.599-5.183
			c1.41-1.606,2.749-3.262,4.015-4.964c1.264-1.702,2.505-3.526,3.723-5.475c1.216-1.946,2.504-4.088,3.869-6.424
			c1.168-2.14,2.676-3.285,4.526-3.431c1.848-0.146,3.504,0.292,4.964,1.314s2.432,2.482,2.92,4.38
			c0.486,1.898-0.05,3.773-1.606,5.621c-3.212,3.796-6.643,7.323-10.293,10.585C118.17,446.264,114.349,449.305,110.359,452.129z
			 M109.921,350.513c-1.558,0-2.726-0.511-3.504-1.533c-0.78-1.022-1.168-2.14-1.168-3.358c0-1.216,0.388-2.336,1.168-3.358
			c0.778-1.022,1.946-1.533,3.504-1.533h5.694v-11.534c0-2.336,0.705-4.088,2.117-5.256c1.41-1.168,2.993-1.752,4.745-1.752
			s3.333,0.584,4.745,1.752c1.41,1.168,2.117,2.92,2.117,5.256v11.534h22.046v-11.534c0-2.336,0.68-4.088,2.044-5.256
			c1.362-1.168,2.895-1.752,4.599-1.752c1.702,0,3.235,0.584,4.599,1.752c1.362,1.168,2.044,2.92,2.044,5.256v11.534h5.548
			c1.556,0,2.724,0.511,3.504,1.533c0.778,1.022,1.168,2.142,1.168,3.358c0,1.218-0.39,2.336-1.168,3.358
			c-0.78,1.022-1.948,1.533-3.504,1.533h-5.548v58.108h6.132c1.654,0,2.895,0.511,3.723,1.533c0.826,1.022,1.241,2.142,1.241,3.358
			c0,1.218-0.415,2.336-1.241,3.358c-0.828,1.022-2.069,1.533-3.723,1.533h-61.758c-1.656,0-2.897-0.511-3.723-1.533
			c-0.828-1.022-1.241-2.14-1.241-3.358c0-1.216,0.413-2.336,1.241-3.358c0.826-1.022,2.067-1.533,3.723-1.533h6.57v-58.108H109.921
			z M136.931,394.459c-1.46,0-2.58-0.486-3.358-1.46c-0.78-0.972-1.168-2.019-1.168-3.139c0-1.118,0.388-2.165,1.168-3.139
			c0.778-0.972,1.898-1.46,3.358-1.46h14.454v-13.432h-14.454c-1.46,0-2.58-0.486-3.358-1.46c-0.78-0.972-1.168-2.019-1.168-3.139
			c0-1.118,0.388-2.165,1.168-3.139c0.778-0.972,1.898-1.46,3.358-1.46h14.454v-12.118h-22.046v58.108h22.046v-14.162H136.931z
			 M154.451,443.077c-1.364-3.018-2.58-5.548-3.65-7.592c-1.072-2.044-2.336-4.38-3.796-7.008c-0.584-0.876-0.78-1.8-0.584-2.774
			c0.194-0.972,0.632-1.752,1.314-2.336c0.68-0.584,1.533-0.899,2.555-0.949c1.022-0.048,2.117,0.415,3.285,1.387
			c1.556,1.364,2.92,2.532,4.088,3.504c1.168,0.974,2.19,1.875,3.066,2.701c0.876,0.828,1.702,1.656,2.482,2.482
			c0.778,0.828,1.606,1.777,2.482,2.847c1.556,1.848,2.044,3.698,1.46,5.548c-0.584,1.848-1.656,3.308-3.212,4.38
			c-1.558,1.07-3.285,1.533-5.183,1.387S155.422,445.315,154.451,443.077z M173.577,451.399c-0.682,0.876-1.558,1.362-2.628,1.46
			c-1.072,0.096-2.044-0.073-2.92-0.511s-1.46-1.12-1.752-2.044c-0.292-0.926-0.05-2.021,0.73-3.285
			c2.14-3.311,3.99-6.716,5.548-10.22c1.556-3.504,2.847-7.446,3.869-11.826c1.022-4.38,1.825-9.293,2.409-14.746
			c0.584-5.45,1.022-11.728,1.314-18.834c0.292-7.104,0.486-15.184,0.584-24.236c0.096-9.052,0.146-19.368,0.146-30.952
			c0-2.336,0.73-4.088,2.19-5.256s3.066-1.752,4.818-1.752s3.358,0.584,4.818,1.752s2.19,2.92,2.19,5.256
			c0,10.708-0.05,20.367-0.146,28.981c-0.098,8.614-0.342,16.475-0.73,23.579c-0.39,7.106-1.022,13.53-1.898,19.272
			c-0.876,5.745-2.117,11.096-3.723,16.06c-1.606,4.964-3.602,9.661-5.986,14.089C180.023,442.614,177.081,447.019,173.577,451.399z
			 M220.881,449.793c-1.948,1.362-3.748,1.8-5.402,1.314c-1.656-0.488-2.336-1.606-2.044-3.358c0.096-0.974-0.073-2.021-0.511-3.139
			c-0.438-1.12-1.146-2.19-2.117-3.212c-0.974-1.022-2.215-1.923-3.723-2.701c-1.51-0.78-3.237-1.314-5.183-1.606
			c-1.072-0.096-1.802-0.511-2.19-1.241c-0.39-0.73-0.511-1.482-0.365-2.263c0.146-0.778,0.511-1.483,1.095-2.117
			c0.584-0.632,1.362-0.899,2.336-0.803c3.114,0.292,5.571,0.415,7.373,0.365c1.8-0.048,3.139-0.34,4.015-0.876
			c0.876-0.534,1.435-1.337,1.679-2.409c0.242-1.07,0.365-2.53,0.365-4.38v-18.834h-13.87c-1.558,0-2.726-0.511-3.504-1.533
			c-0.78-1.022-1.168-2.117-1.168-3.285s0.388-2.263,1.168-3.285c0.778-1.022,1.946-1.533,3.504-1.533h13.87v-23.068h-13.87
			c-1.558,0-2.726-0.511-3.504-1.533c-0.78-1.022-1.168-2.117-1.168-3.285s0.388-2.263,1.168-3.285
			c0.778-1.022,1.946-1.533,3.504-1.533h13.87v-16.206c0-4.184-1.85-6.278-5.548-6.278h-7.884c-1.656,0-2.872-0.511-3.65-1.533
			c-0.78-1.022-1.168-2.165-1.168-3.431c0-1.264,0.388-2.409,1.168-3.431c0.778-1.022,1.994-1.533,3.65-1.533h14.892
			c2.53,0,4.599,0.342,6.205,1.022c1.606,0.682,2.87,1.631,3.796,2.847c0.924,1.218,1.556,2.678,1.898,4.38
			c0.34,1.704,0.511,3.577,0.511,5.621v88.038c0,4.088-0.682,7.519-2.044,10.293C226.67,444.756,224.287,447.359,220.881,449.793z"
			/>
		<path class="st2" d="M266.433,352.703c0-2.432,0.778-4.234,2.336-5.402c1.556-1.168,3.26-1.727,5.11-1.679
			c1.848,0.05,3.552,0.682,5.11,1.898c1.556,1.218,2.336,3.043,2.336,5.475v92.564c0,2.432-0.78,4.257-2.336,5.475
			c-1.558,1.216-3.262,1.825-5.11,1.825c-1.85,0-3.554-0.609-5.11-1.825c-1.558-1.218-2.336-3.043-2.336-5.475V352.703z
			 M289.5,344.527c-2.434-3.796-4.576-7.031-6.424-9.709c-1.85-2.676-3.796-5.329-5.84-7.957c-0.682-0.876-0.974-1.775-0.876-2.701
			c0.096-0.924,0.438-1.702,1.022-2.336c0.584-0.632,1.337-0.997,2.263-1.095c0.924-0.096,1.971,0.196,3.139,0.876
			c4.574,2.92,8.297,5.427,11.169,7.519c2.87,2.094,5.475,4.211,7.811,6.351c1.946,1.752,2.724,3.723,2.336,5.913
			c-0.39,2.19-1.387,3.967-2.993,5.329c-1.606,1.364-3.504,2.021-5.694,1.971C293.224,348.64,291.252,347.253,289.5,344.527z
			 M295.486,366.281c0-2.432,0.753-4.234,2.263-5.402c1.508-1.168,3.187-1.752,5.037-1.752c1.848,0,3.527,0.584,5.037,1.752
			c1.508,1.168,2.263,2.97,2.263,5.402v48.18c0,2.532-0.755,4.453-2.263,5.767c-1.51,1.314-3.189,1.971-5.037,1.971
			c-1.85,0-3.529-0.657-5.037-1.971c-1.51-1.314-2.263-3.235-2.263-5.767V366.281z M316.365,341.169
			c-1.656,0-2.897-0.534-3.723-1.606c-0.828-1.07-1.241-2.213-1.241-3.431c0-1.216,0.413-2.359,1.241-3.431
			c0.826-1.07,2.067-1.606,3.723-1.606h52.706c9.052,0,13.578,4.478,13.578,13.432v90.228c0,7.98-3.942,14.016-11.826,18.104
			c-1.266,0.68-2.434,0.851-3.504,0.511c-1.072-0.342-1.704-1.291-1.898-2.847c-0.488-3.116-1.996-5.402-4.526-6.862
			c-2.532-1.46-6.182-2.532-10.95-3.212c-1.266-0.196-2.167-0.682-2.701-1.46c-0.536-0.78-0.755-1.606-0.657-2.482
			c0.096-0.876,0.461-1.654,1.095-2.336c0.632-0.68,1.533-1.022,2.701-1.022c3.698,0.098,6.691,0.05,8.979-0.146
			c2.286-0.194,4.038-0.657,5.256-1.387c1.216-0.73,2.044-1.825,2.482-3.285c0.438-1.46,0.657-3.406,0.657-5.84v-75.482
			c0-3.892-1.948-5.84-5.84-5.84H316.365z M318.117,421.615c-1.656,0-2.872-0.511-3.65-1.533c-0.78-1.022-1.168-2.14-1.168-3.358
			c0-1.216,0.388-2.336,1.168-3.358c0.778-1.022,1.994-1.533,3.65-1.533h20.586v-38.544c0-3.114-1.558-4.672-4.672-4.672h-15.914
			c-1.656,0-2.897-0.511-3.723-1.533c-0.828-1.022-1.241-2.117-1.241-3.285s0.413-2.263,1.241-3.285
			c0.826-1.022,2.067-1.533,3.723-1.533h22.922c4.184,0,7.275,1.241,9.271,3.723c1.994,2.482,2.993,5.427,2.993,8.833v39.274
			c0,2.824-0.854,5.329-2.555,7.519c-1.704,2.19-4.357,3.285-7.957,3.285H318.117z M318.701,394.167
			c-1.656,0-2.897-0.486-3.723-1.46c-0.828-0.972-1.241-2.067-1.241-3.285c0-1.216,0.413-2.311,1.241-3.285
			c0.826-0.972,2.067-1.46,3.723-1.46h11.534c1.752,0,3.041,0.488,3.869,1.46c0.826,0.974,1.241,2.069,1.241,3.285
			c0,1.218-0.416,2.313-1.241,3.285c-0.828,0.974-2.117,1.46-3.869,1.46H318.701z"/>
		<path class="st2" d="M113.279,552.411c0-2.432,0.73-4.234,2.19-5.402s3.066-1.752,4.818-1.752s3.358,0.584,4.818,1.752
			c1.46,1.168,2.19,2.97,2.19,5.402v90.082c0,2.53-0.73,4.403-2.19,5.621c-1.46,1.216-3.066,1.825-4.818,1.825
			s-3.358-0.609-4.818-1.825c-1.46-1.218-2.19-3.091-2.19-5.621V552.411z M131.967,594.386c-0.876-1.022-1.314-2.117-1.314-3.285
			c0-1.168,0.438-2.263,1.314-3.285s2.14-1.533,3.796-1.533h15.476v-25.842c0-1.752-0.584-3.114-1.752-4.088
			c-1.168-0.972-2.678-1.46-4.526-1.46h-9.198c-1.558,0-2.726-0.46-3.504-1.387c-0.78-0.924-1.218-1.971-1.314-3.139
			c-0.098-1.168,0.169-2.263,0.803-3.285c0.632-1.022,1.629-1.629,2.993-1.825c0.388-2.724,0.705-5.571,0.949-8.541
			c0.242-2.968,0.413-5.183,0.511-6.643c0.096-2.724,0.997-4.672,2.701-5.84c1.702-1.168,3.479-1.606,5.329-1.314
			c1.848,0.292,3.406,1.266,4.672,2.92c1.264,1.656,1.556,3.894,0.876,6.716c-0.488,1.656-1.168,3.529-2.044,5.621
			c-0.876,2.094-1.996,4.405-3.358,6.935h7.738c4.866,0,8.249,1.241,10.147,3.723s2.847,5.475,2.847,8.979v71.54
			c0,3.408-0.901,6.132-2.701,8.176c-1.802,2.044-4.989,3.066-9.563,3.066h-17.082c-1.656,0-2.872-0.511-3.65-1.533
			c-0.78-1.022-1.168-2.14-1.168-3.358c0-1.216,0.388-2.336,1.168-3.358c0.778-1.022,1.994-1.533,3.65-1.533h15.476v-34.894h-15.476
			C134.106,595.919,132.843,595.408,131.967,594.386z M168.321,574.53c0.388,1.022,0.997,1.752,1.825,2.19
			c0.826,0.438,1.752,0.562,2.774,0.365c1.022-0.194,1.971-0.924,2.847-2.19c4.088-6.132,7.738-12.677,10.95-19.637
			c3.212-6.958,5.84-14.819,7.884-23.579c0.584-2.628,0.219-4.768-1.095-6.424c-1.314-1.654-2.92-2.651-4.818-2.993
			c-1.898-0.34-3.773,0.05-5.621,1.168c-1.85,1.12-2.97,3.091-3.358,5.913c-1.364,8.372-2.993,15.987-4.891,22.849
			c-1.898,6.862-4.015,13.213-6.351,19.053C167.979,572.413,167.931,573.508,168.321,574.53z M185.184,591.101
			c-1.606-3.796-3.091-7.104-4.453-9.928c-0.39-0.876-0.438-1.727-0.146-2.555c0.292-0.826,0.778-1.508,1.46-2.044
			c0.68-0.534,1.482-0.803,2.409-0.803c0.924,0,1.825,0.438,2.701,1.314c6.716,6.814,12.068,13.286,16.06,19.418
			c1.46,2.24,1.775,4.38,0.949,6.424c-0.828,2.044-2.142,3.577-3.942,4.599c-1.802,1.022-3.723,1.314-5.767,0.876
			s-3.504-1.971-4.38-4.599C188.418,599.131,186.79,594.897,185.184,591.101z M208.544,651.983
			c-1.412-0.682-2.215-1.704-2.409-3.066c-0.292-1.752-0.949-3.139-1.971-4.161s-2.409-1.825-4.161-2.409
			c-1.752-0.584-3.846-1.022-6.278-1.314c-2.434-0.292-5.16-0.584-8.176-0.876c-1.072-0.098-1.875-0.561-2.409-1.387
			c-0.536-0.828-0.78-1.702-0.73-2.628c0.048-0.924,0.388-1.752,1.022-2.482c0.632-0.73,1.581-1.095,2.847-1.095
			c2.14,0.098,4.33,0.146,6.57,0.146c2.238,0,4.33-0.048,6.278-0.146c1.946-0.096,3.698-0.292,5.256-0.584
			c1.556-0.292,2.822-0.73,3.796-1.314c1.946-1.168,3.431-3.333,4.453-6.497c1.022-3.162,1.775-7.615,2.263-13.359
			c0.486-5.742,0.778-12.871,0.876-21.389c0.096-8.516,0.146-18.615,0.146-30.295c0-1.556-0.317-2.701-0.949-3.431
			c-0.634-0.73-1.825-1.095-3.577-1.095h-13.578c-1.558,0-2.726-0.511-3.504-1.533c-0.78-1.022-1.168-2.14-1.168-3.358
			c0-1.216,0.388-2.336,1.168-3.358c0.778-1.022,1.946-1.533,3.504-1.533h21.9c2.14,0,3.892,0.342,5.256,1.022
			c1.362,0.682,2.457,1.606,3.285,2.774c0.826,1.168,1.387,2.482,1.679,3.942s0.438,2.92,0.438,4.38
			c0,14.796-0.146,27.498-0.438,38.106c-0.292,10.61-1.022,19.614-2.19,27.01c-1.168,7.398-2.897,13.409-5.183,18.031
			c-2.288,4.622-5.379,8.297-9.271,11.023C211.537,652.371,209.954,652.663,208.544,651.983z"/>
		<path class="st3" d="M110.359,785.553c0.096-2.238,0.803-3.869,2.117-4.891s2.724-1.482,4.234-1.387
			c1.508,0.098,2.847,0.755,4.015,1.971c1.168,1.218,1.702,2.897,1.606,5.037c-0.584,9.833-1.729,18.932-3.431,27.302
			c-1.704,8.372-4.161,16.498-7.373,24.382c-0.584,1.362-1.364,2.238-2.336,2.628c-0.974,0.388-1.898,0.438-2.774,0.146
			s-1.583-0.853-2.117-1.679c-0.536-0.828-0.609-1.825-0.219-2.993c0.972-3.504,1.825-7.056,2.555-10.658
			c0.73-3.6,1.337-7.446,1.825-11.534c0.486-4.088,0.876-8.443,1.168-13.067C109.921,796.188,110.163,791.101,110.359,785.553z
			 M154.597,772.851h-14.162v72.27c0,2.53-0.707,4.453-2.117,5.767c-1.412,1.314-2.97,1.971-4.672,1.971
			c-1.704,0-3.262-0.634-4.672-1.898c-1.412-1.266-2.117-3.212-2.117-5.84v-72.27h-16.06c-1.656,0-2.897-0.511-3.723-1.533
			c-0.828-1.022-1.241-2.14-1.241-3.358c0-1.216,0.413-2.336,1.241-3.358c0.826-1.022,2.067-1.533,3.723-1.533h16.06v-8.468
			c0-2.336,0.705-4.088,2.117-5.256c1.41-1.168,2.968-1.752,4.672-1.752c1.702,0,3.26,0.584,4.672,1.752
			c1.41,1.168,2.117,2.92,2.117,5.256v8.468h14.162c1.654,0,2.895,0.511,3.723,1.533c0.826,1.022,1.241,2.142,1.241,3.358
			c0,1.218-0.415,2.336-1.241,3.358C157.492,772.34,156.25,772.851,154.597,772.851z M110.359,745.695
			c-1.266,0.098-2.215-0.169-2.847-0.803c-0.634-0.632-1.022-1.387-1.168-2.263s-0.05-1.727,0.292-2.555
			c0.34-0.826,0.899-1.337,1.679-1.533c9.246-2.14,17.104-4.184,23.579-6.132c6.472-1.946,11.607-3.746,15.403-5.402
			c2.53-1.07,4.695-1.095,6.497-0.073c1.8,1.022,2.993,2.409,3.577,4.161s0.438,3.577-0.438,5.475s-2.726,3.189-5.548,3.869
			c-3.602,0.78-8.81,1.631-15.622,2.555C128.949,743.92,120.48,744.819,110.359,745.695z M149.779,781.173
			c2.14,2.824,4.038,5.379,5.694,7.665c1.654,2.288,3.066,4.503,4.234,6.643c1.168,2.044,1.314,3.894,0.438,5.548
			c-0.876,1.656-2.094,2.847-3.65,3.577c-1.558,0.73-3.189,0.853-4.891,0.365c-1.704-0.486-2.751-1.848-3.139-4.088
			c-0.39-1.752-0.73-3.26-1.022-4.526c-0.292-1.264-0.609-2.53-0.949-3.796c-0.342-1.264-0.73-2.555-1.168-3.869
			s-0.949-2.847-1.533-4.599c-0.292-0.876-0.269-1.654,0.073-2.336c0.34-0.68,0.826-1.216,1.46-1.606
			c0.632-0.388,1.362-0.534,2.19-0.438C148.341,779.811,149.097,780.297,149.779,781.173z M159.853,818.257
			c-1.752,0.196-3.139-0.242-4.161-1.314c-1.022-1.07-1.631-2.286-1.825-3.65c-0.196-1.362,0.096-2.676,0.876-3.942
			c0.778-1.264,2.044-1.994,3.796-2.19l42.34-5.256v-73.584c0-2.238,0.778-3.917,2.336-5.037c1.556-1.118,3.285-1.679,5.183-1.679
			c1.898,0,3.625,0.561,5.183,1.679c1.556,1.12,2.336,2.799,2.336,5.037v71.686l17.52-2.336c1.752-0.194,3.089,0.244,4.015,1.314
			c0.924,1.072,1.435,2.288,1.533,3.65c0.096,1.364-0.292,2.653-1.168,3.869c-0.876,1.218-2.19,1.923-3.942,2.117l-17.958,2.336
			v34.602c0,2.53-0.78,4.453-2.336,5.767c-1.558,1.314-3.285,1.971-5.183,1.971c-1.898,0-3.627-0.657-5.183-1.971
			c-1.558-1.314-2.336-3.237-2.336-5.767v-32.558L159.853,818.257z M163.211,771.683c-0.876-1.07-1.266-2.165-1.168-3.285
			c0.096-1.118,0.511-2.044,1.241-2.774s1.654-1.168,2.774-1.314c1.118-0.146,2.263,0.219,3.431,1.095
			c2.238,1.656,4.209,3.139,5.913,4.453c1.702,1.314,3.26,2.555,4.672,3.723c1.41,1.168,2.724,2.288,3.942,3.358
			c1.216,1.072,2.409,2.19,3.577,3.358c1.848,1.752,2.53,3.675,2.044,5.767c-0.488,2.094-1.533,3.773-3.139,5.037
			c-1.606,1.266-3.481,1.85-5.621,1.752c-2.142-0.096-3.992-1.46-5.548-4.088c-1.85-3.016-3.65-5.79-5.402-8.322
			C168.175,777.913,165.935,774.993,163.211,771.683z M167.883,741.315c-0.974-0.972-1.46-1.994-1.46-3.066
			c0-1.07,0.292-1.971,0.876-2.701s1.41-1.191,2.482-1.387c1.07-0.194,2.19,0.05,3.358,0.73c5.06,3.116,9.052,5.671,11.972,7.665
			c2.92,1.996,5.498,3.919,7.738,5.767c1.848,1.656,2.651,3.481,2.409,5.475c-0.244,1.996-1.095,3.65-2.555,4.964
			s-3.237,1.948-5.329,1.898c-2.094-0.048-4.065-1.289-5.913-3.723c-1.85-2.432-3.796-4.841-5.84-7.227
			C173.577,747.326,170.997,744.527,167.883,741.315z"/>
		<path class="st3" d="M258.548,796.503c4.088-6.716,7.446-13.699,10.074-20.951c2.628-7.25,4.72-14.381,6.278-21.389
			c0.584-2.432,1.8-4.088,3.65-4.964c1.848-0.876,3.673-1.07,5.475-0.584c1.8,0.488,3.26,1.583,4.38,3.285
			c1.118,1.704,1.241,3.919,0.365,6.643c-0.682,2.24-1.606,4.77-2.774,7.592c-1.168,2.824-2.58,5.84-4.234,9.052
			c0.972,1.168,1.46,2.628,1.46,4.38v56.502c0,2.336-0.708,4.111-2.117,5.329c-1.412,1.216-2.945,1.825-4.599,1.825
			c-1.656,0-3.189-0.609-4.599-1.825c-1.412-1.218-2.117-2.993-2.117-5.329v-41.464c-0.974,1.266-1.948,2.532-2.92,3.796
			c-0.974,1.266-1.996,2.482-3.066,3.65c-0.876,0.78-1.777,1.145-2.701,1.095c-0.926-0.048-1.704-0.388-2.336-1.022
			c-0.634-0.632-1.022-1.46-1.168-2.482C257.454,798.62,257.769,797.576,258.548,796.503z M265.557,735.329h41.172
			c1.752,0,3.089,0.562,4.015,1.679c0.924,1.12,1.387,2.336,1.387,3.65s-0.463,2.507-1.387,3.577
			c-0.926,1.072-2.263,1.606-4.015,1.606h-41.172c-1.752,0-3.043-0.534-3.869-1.606c-0.828-1.07-1.241-2.263-1.241-3.577
			s0.413-2.53,1.241-3.65C262.513,735.89,263.805,735.329,265.557,735.329z M309.648,782.341v44.53c0,2.044-0.73,3.773-2.19,5.183
			c-1.46,1.412-3.164,2.117-5.11,2.117h-11.826c-1.656,0-2.897-0.511-3.723-1.533c-0.828-1.022-1.241-2.165-1.241-3.431
			c0-1.264,0.413-2.409,1.241-3.431c0.826-1.022,2.067-1.533,3.723-1.533h5.84v-39.712c0-0.778-0.292-1.435-0.876-1.971
			c-0.584-0.534-1.266-0.803-2.044-0.803h-2.92c-1.656,0-2.897-0.511-3.723-1.533c-0.828-1.022-1.241-2.14-1.241-3.358
			c0-1.216,0.413-2.336,1.241-3.358c0.826-1.022,2.067-1.533,3.723-1.533h10.512c2.628,0,4.72,0.803,6.278,2.409
			C308.868,775.99,309.648,778.643,309.648,782.341z M359.143,794.313h-18.688c-0.78,6.23-1.875,12.045-3.285,17.447
			c-1.412,5.402-3.262,10.464-5.548,15.184c-2.288,4.722-5.087,9.15-8.395,13.286c-3.31,4.136-7.252,8.103-11.826,11.899
			c-1.168,0.972-2.313,1.362-3.431,1.168c-1.12-0.196-1.996-0.657-2.628-1.387c-0.634-0.73-0.999-1.631-1.095-2.701
			c-0.098-1.072,0.242-1.996,1.022-2.774c3.504-3.408,6.472-6.839,8.906-10.293c2.432-3.454,4.501-7.202,6.205-11.242
			c1.702-4.038,3.041-8.541,4.015-13.505c0.972-4.964,1.702-10.658,2.19-17.082h-8.76c-1.752,0-3.043-0.534-3.869-1.606
			c-0.828-1.07-1.241-2.263-1.241-3.577s0.413-2.53,1.241-3.65c0.826-1.118,2.117-1.679,3.869-1.679h9.344
			c0.292-7.98,0.438-17.178,0.438-27.594c0-2.53,0.753-4.428,2.263-5.694c1.508-1.264,3.187-1.898,5.037-1.898
			c1.848,0,3.526,0.634,5.037,1.898c1.508,1.266,2.263,3.164,2.263,5.694c0,10.124-0.292,19.322-0.876,27.594h17.812v-27.448
			c0-2.53,0.753-4.428,2.263-5.694c1.508-1.264,3.187-1.898,5.037-1.898c1.848,0,3.527,0.634,5.037,1.898
			c1.508,1.266,2.263,3.164,2.263,5.694v27.448h12.41c1.752,0,3.089,0.561,4.015,1.679c0.924,1.12,1.387,2.336,1.387,3.65
			s-0.463,2.507-1.387,3.577c-0.926,1.072-2.263,1.606-4.015,1.606h-12.41v51.684c0,2.432-0.755,4.257-2.263,5.475
			c-1.51,1.216-3.189,1.8-5.037,1.752c-1.85-0.05-3.529-0.682-5.037-1.898c-1.51-1.218-2.263-2.993-2.263-5.329V794.313z
			 M319.577,744.819c-1.752,0-3.043-0.534-3.869-1.606c-0.828-1.07-1.241-2.263-1.241-3.577s0.413-2.53,1.241-3.65
			c0.826-1.118,2.117-1.679,3.869-1.679h63.948c1.752,0,3.089,0.562,4.015,1.679c0.924,1.12,1.387,2.336,1.387,3.65
			s-0.463,2.507-1.387,3.577c-0.926,1.072-2.263,1.606-4.015,1.606H319.577z"/>
	</g>
	<g>
		<path class="st2" d="M348.453,556.331l-12.766-40.011c-0.997-3.126-4.34-4.851-7.466-3.854l-42.468,13.55
			c-3.126,0.997-4.851,4.34-3.854,7.466l12.766,40.011c-12.282,14.21-16.353,33.714-10.594,51.766
			c9.06,28.397,39.534,44.128,67.931,35.067c28.396-9.06,44.127-39.534,35.067-67.93
			C381.31,574.344,366.694,560.802,348.453,556.331z M348.391,649.007c-22.155,7.069-45.931-5.204-53-27.359
			c-4.784-14.994-0.872-31.276,10.21-42.491c1.554-1.572,2.106-3.876,1.434-5.981l-12.011-37.645l31.149-9.939l12.011,37.645
			c0.672,2.105,2.456,3.664,4.633,4.046c15.53,2.725,28.149,13.731,32.933,28.726C382.819,618.162,370.546,641.938,348.391,649.007z
			"/>
		<path class="st2" d="M343.729,605.296c-14.321,0.663-16.595-4.182-31.855-2.648c-2.675,0.269-5.747,0.734-9.012,1.419
			c-0.662,4.744-0.298,9.706,1.256,14.574c5.544,17.374,24.122,26.964,41.496,21.421c17.164-5.477,26.722-23.675,21.604-40.866
			C360.693,602.417,353.03,604.865,343.729,605.296z"/>
	</g>
</g>
</svg>