<!-- Generator: Adobe Illustrator 24.1.3, SVG Export Plug-In  -->
<svg version="1.1" xmlns="http://www.w3.org/2000/svg" xmlns:xlink="http://www.w3.org/1999/xlink" x="0px" y="0px"
	 width="391.555px" height="243.948px" viewBox="0 0 391.555 243.948"
	 style="overflow:visible;enable-background:new 0 0 391.555 243.948;" xml:space="preserve">
<style type="text/css">
	.st0{fill:#FFFFFF;stroke:#1C3B94;stroke-width:2;stroke-linecap:round;stroke-linejoin:round;stroke-miterlimit:10;}
	.st1{fill:#FFFFFF;stroke:#1C3B94;stroke-width:2;stroke-miterlimit:10;}
	.st2{fill:#FFE291;stroke:#1C3B94;stroke-width:2;stroke-linecap:round;stroke-linejoin:round;stroke-miterlimit:10;}
	.st3{fill:#1C3B94;}
	.st4{fill:#BF2222;}
	.st5{fill:none;stroke:#1C3B94;stroke-width:2;stroke-linecap:round;stroke-linejoin:round;stroke-miterlimit:10;}
	.st6{fill:none;}
	.st7{font-family:'FZLANTY_ZHUNK--GBK1-0';}
	.st8{font-size:28.8559px;}
	.st9{letter-spacing:1;}
	.st10{font-size:19px;}
	.st11{font-size:17.3135px;}
	.st12{font-size:21px;}
</style>
<defs>
</defs>
<g>
	<g>
		<path class="st0" d="M267.984,65.953v-16.51H134.901l0,0c0,26.754-21.689,48.442-48.442,48.442S38.016,76.196,38.016,49.442l0,0H1
			v193.505h389.555V65.953H267.984z"/>
		
			<ellipse transform="matrix(0.9871 -0.1602 0.1602 0.9871 -6.8034 14.4876)" class="st1" cx="86.459" cy="49.442" rx="48.443" ry="48.442"/>
	</g>
	<polygon class="st2" points="267.984,17.05 267.984,49.442 267.984,65.953 390.555,65.953 390.555,49.442 390.555,17.05 	"/>
	<g>
		<g>
			<path class="st3" d="M280.484,49.055h8.905c1.051-0.074,1.539,0.338,1.465,1.24c0,0.826-0.489,1.24-1.465,1.24h-10.258
				c-1.278,0-1.916-0.602-1.916-1.803c0-0.826,0.187-1.578,0.563-2.254c1.127-2.328,3.343-4.959,6.65-7.89
				c2.479-1.953,3.644-3.794,3.494-5.523c-0.151-2.029-1.353-3.08-3.607-3.156c-2.33,0-3.758,1.09-4.283,3.269
				c-0.225,1.353-0.752,1.916-1.578,1.691c-0.827-0.15-1.165-0.789-1.014-1.917c0.75-3.531,3.043-5.372,6.875-5.523
				c4.059,0.151,6.124,2.029,6.2,5.636c0.149,2.556-1.353,5.072-4.509,7.552c-2.931,2.631-4.886,4.922-5.861,6.876
				C280.07,48.868,280.183,49.055,280.484,49.055z"/>
		</g>
	</g>
	<g>
		<g>
			<path class="st4" d="M150.616,28.088c-0.496-0.049-0.77-0.321-0.818-0.816c0.049-0.445,0.322-0.692,0.818-0.742h4.019v-1.559
				c0.049-0.494,0.346-0.767,0.893-0.816c0.545,0.05,0.843,0.322,0.893,0.816v1.559h3.721c0.495,0.05,0.769,0.297,0.818,0.742
				c-0.05,0.495-0.323,0.768-0.818,0.816h-3.721v2.523h2.456c1.587-1.236,3.001-2.622,4.241-4.156
				c0.396-0.445,0.818-0.52,1.265-0.223c0.447,0.347,0.496,0.742,0.149,1.188c-0.943,1.188-1.984,2.252-3.125,3.191h3.869
				c0.495,0,0.744,0.248,0.744,0.742c-0.05,0.495-0.298,0.768-0.744,0.816h-5.729c-1.538,1.089-3.324,2.128-5.357,3.117v1.336
				c2.578-0.594,5.232-1.385,7.962-2.375c0.495-0.148,0.843,0.025,1.041,0.52c0.198,0.495,0.049,0.842-0.446,1.039
				c-2.431,0.742-5.283,1.51-8.557,2.301v0.668c0,0.891,0.495,1.311,1.487,1.262h5.061c0.991,0.049,1.587-0.371,1.786-1.262
				c0-0.148,0.049-0.494,0.148-1.039c0.049-0.247,0.074-0.42,0.074-0.52c0.149-0.494,0.495-0.692,1.042-0.594
				c0.545,0.198,0.793,0.545,0.744,1.039c-0.05,0.495-0.199,1.163-0.446,2.004c-0.298,1.336-1.241,1.979-2.828,1.93h-6.176
				c-1.786,0-2.679-0.842-2.679-2.523v-2.969c-0.446,0.198-1.166,0.495-2.158,0.891c-0.397,0.148-0.72,0.272-0.967,0.371
				c-0.547,0.198-0.943,0.05-1.191-0.445c-0.198-0.544-0.05-0.915,0.447-1.113c3.174-1.088,5.878-2.301,8.11-3.637h-7.738
				c-0.447-0.049-0.695-0.321-0.744-0.816c0.049-0.445,0.297-0.692,0.744-0.742h5.729v-2.523H150.616z"/>
			<path class="st4" d="M167.582,31.28c-0.348-0.396-0.323-0.791,0.074-1.188c1.488-1.583,2.679-3.438,3.571-5.566
				c0.298-0.445,0.67-0.568,1.116-0.371c0.396,0.198,0.521,0.545,0.372,1.039c-0.05,0.1-0.148,0.272-0.298,0.52
				c-0.1,0.248-0.198,0.445-0.297,0.594h11.757c0.495,0.05,0.769,0.297,0.818,0.742c-0.05,0.495-0.323,0.768-0.818,0.816h-5.655
				v3.117h5.283c0.495,0.05,0.769,0.297,0.818,0.742c-0.05,0.495-0.323,0.768-0.818,0.816h-5.283v3.637h6.399
				c0.446,0.05,0.693,0.322,0.744,0.816c-0.051,0.495-0.298,0.768-0.744,0.816h-6.399v3.785c-0.05,0.594-0.348,0.915-0.894,0.965
				c-0.546-0.1-0.844-0.421-0.893-0.965v-3.785h-8.706c-0.496-0.049-0.77-0.321-0.818-0.816c0.049-0.494,0.322-0.767,0.818-0.816
				h2.307v-4.156c0.049-0.643,0.396-0.989,1.042-1.039h5.357v-3.117h-4.911c-0.1,0-0.175,0-0.224,0
				c-0.744,1.188-1.588,2.326-2.529,3.414C168.375,31.576,167.979,31.576,167.582,31.28z M171.749,32.912v3.266h4.688v-3.637h-4.315
				C171.872,32.541,171.749,32.665,171.749,32.912z"/>
			<path class="st4" d="M187.896,41.819c-0.496,0.346-0.968,0.271-1.414-0.223c-0.298-0.545-0.223-0.99,0.224-1.336
				c4.364-2.622,6.796-6.383,7.292-11.281c0.049-0.544,0.099-1.385,0.148-2.523c0.049-0.494,0.075-0.891,0.075-1.188
				c0.049-0.643,0.372-0.939,0.967-0.891c0.546,0.05,0.843,0.371,0.894,0.965c0,0.198,0,0.545,0,1.039
				c-0.051,0.495-0.075,0.866-0.075,1.113c0.596,6.086,3.126,10.268,7.59,12.543c0.496,0.346,0.596,0.816,0.298,1.41
				c-0.496,0.494-1.018,0.568-1.563,0.223c-3.919-2.325-6.276-5.689-7.069-10.094C194.418,35.881,191.963,39.295,187.896,41.819z"/>
		</g>
	</g>
	<g>
		<g>
			<path class="st3" d="M298.134,39.284c-0.451,0.271-0.835,0.249-1.149-0.067c-0.316-0.406-0.294-0.766,0.067-1.082
				c1.713-1.262,3.044-2.592,3.99-3.99c0.36-0.36,0.744-0.45,1.149-0.271c0.45,0.181,0.563,0.451,0.339,0.812
				c-0.181,0.271-0.384,0.541-0.609,0.812h7.439c0.45,0.045,0.699,0.271,0.744,0.676c0,0.451-0.158,0.812-0.474,1.082
				c-1.127,0.992-2.322,1.826-3.584,2.502c1.487,0.451,3.336,0.812,5.546,1.082c0.45,0.135,0.652,0.429,0.608,0.879
				c-0.135,0.406-0.497,0.586-1.082,0.541c-2.751-0.36-5.028-0.901-6.831-1.623c-1.668,0.722-4.125,1.353-7.371,1.894
				c-0.541,0.091-0.903-0.068-1.082-0.474c-0.046-0.541,0.135-0.833,0.541-0.879c2.705-0.406,4.778-0.879,6.222-1.42
				c-0.947-0.496-1.826-1.194-2.638-2.097c-0.271,0.271-0.677,0.632-1.218,1.082C298.472,38.97,298.27,39.149,298.134,39.284z
				 M297.526,49.159c-0.406,0.225-0.768,0.157-1.082-0.203c-0.271-0.361-0.227-0.676,0.135-0.947c1.037-0.585,2.276-1.42,3.72-2.502
				c0.406-0.225,0.767-0.203,1.082,0.068c0.315,0.406,0.293,0.744-0.067,1.014C300.546,47.175,299.283,48.032,297.526,49.159z
				 M297.188,44.695c-0.406-0.044-0.632-0.271-0.677-0.676c0.045-0.45,0.271-0.699,0.677-0.744h6.289v-0.947
				c0.045-0.496,0.315-0.766,0.812-0.812c0.496,0.045,0.767,0.316,0.812,0.812v0.947h5.816c0.406,0.045,0.631,0.294,0.677,0.744
				c-0.046,0.406-0.271,0.632-0.677,0.676H305.1v2.976c0.09,1.578-0.632,2.344-2.164,2.3c-0.091,0-0.315,0-0.676,0
				c-0.451,0.044-0.768,0.067-0.947,0.067c-0.451,0-0.744-0.226-0.879-0.676c0-0.497,0.203-0.767,0.608-0.812h1.218
				c0.901,0.09,1.307-0.316,1.217-1.217v-2.638H297.188z M300.975,36.782c0.991,0.947,2.097,1.714,3.313,2.299
				c1.218-0.541,2.344-1.217,3.382-2.029c0.09-0.044,0.112-0.09,0.067-0.135c-0.045-0.09-0.113-0.135-0.203-0.135H300.975z
				 M310.646,49.024c-0.135-0.091-0.384-0.249-0.744-0.474c-1.487-0.947-2.525-1.578-3.11-1.894
				c-0.271-0.271-0.316-0.585-0.136-0.947c0.315-0.271,0.698-0.315,1.15-0.135c0.676,0.361,1.758,0.992,3.246,1.894
				c0.271,0.181,0.45,0.294,0.541,0.338c0.36,0.316,0.428,0.653,0.202,1.015C311.48,49.226,311.096,49.294,310.646,49.024z"/>
			<path class="st3" d="M313.892,38.608c-0.405-0.044-0.632-0.292-0.676-0.744c0.044-0.406,0.271-0.631,0.676-0.676h1.759v-2.638
				c0.044-0.45,0.314-0.699,0.812-0.744c0.45,0.091,0.698,0.338,0.744,0.744v2.638h1.556c0.45,0.045,0.698,0.271,0.743,0.676
				c-0.045,0.451-0.293,0.699-0.743,0.744h-1.556v1.961c0.18,0,0.338,0.045,0.474,0.135l1.623,1.556
				c0.314,0.316,0.338,0.654,0.067,1.014c-0.316,0.316-0.654,0.338-1.015,0.068l-1.149-1.217V49.7
				c-0.046,0.406-0.294,0.653-0.744,0.744c-0.497-0.045-0.768-0.293-0.812-0.744v-7.98c-0.541,1.443-1.038,2.525-1.488,3.246
				c-0.226,0.361-0.541,0.429-0.946,0.203c-0.136-0.09-0.203-0.271-0.203-0.541c-0.046-0.18,0.044-0.474,0.271-0.879
				c0.856-1.262,1.623-2.976,2.3-5.14H313.892z M321.061,49.497c-0.586-0.045-0.902-0.361-0.946-0.947V35.903
				c0.044-0.585,0.36-0.901,0.946-0.947h6.831c0.585,0.045,0.901,0.361,0.946,0.947V48.55c-0.045,0.585-0.361,0.901-0.946,0.947
				H321.061z M321.602,36.715v2.638h5.749v-2.638c0-0.225-0.136-0.338-0.406-0.338h-4.937
				C321.738,36.377,321.602,36.49,321.602,36.715z M321.602,40.705v2.976h5.749v-2.976H321.602z M326.945,48.076
				c0.271,0,0.406-0.112,0.406-0.338v-2.705h-5.749v2.705c0,0.226,0.136,0.338,0.406,0.338H326.945z"/>
			<path class="st3" d="M332.287,38.879c-0.451-0.044-0.699-0.292-0.743-0.744c0.044-0.45,0.292-0.699,0.743-0.744h3.314
				c-0.181-0.225-0.497-0.653-0.947-1.285c-0.405-0.542-0.676-0.879-0.812-1.015c-0.226-0.36-0.158-0.699,0.203-1.015
				c0.406-0.18,0.788-0.112,1.149,0.203c0.18,0.181,0.541,0.632,1.082,1.353c0.45,0.586,0.744,0.947,0.88,1.082
				c0.18,0.181,0.225,0.406,0.135,0.676h2.503c0.314-0.406,0.946-1.285,1.894-2.638c0.18-0.225,0.292-0.382,0.338-0.473
				c0.314-0.36,0.698-0.45,1.149-0.271c0.45,0.271,0.563,0.608,0.339,1.014c-0.136,0.181-0.43,0.541-0.88,1.083
				c-0.451,0.586-0.767,1.014-0.946,1.285h3.449c0.45,0.045,0.698,0.294,0.743,0.744c-0.045,0.451-0.293,0.699-0.743,0.744h-5.613
				c0,0.722-0.046,1.669-0.136,2.841h6.628c0.495,0.045,0.766,0.293,0.812,0.744c-0.046,0.451-0.316,0.7-0.812,0.744h-6.357
				c0.991,2.661,3.179,4.396,6.561,5.208c0.495,0.225,0.652,0.609,0.474,1.15c-0.227,0.45-0.654,0.585-1.285,0.406
				c-3.473-1.082-5.704-2.863-6.695-5.343c-0.813,2.299-3.021,4.125-6.628,5.478c-0.632,0.225-1.038,0.112-1.218-0.338
				c-0.227-0.451-0.091-0.835,0.406-1.149c3.787-1.262,5.86-3.066,6.222-5.411h-6.087c-0.451-0.044-0.699-0.293-0.744-0.744
				c0.045-0.45,0.293-0.698,0.744-0.744h6.29c0.09-0.991,0.135-1.938,0.135-2.841H332.287z"/>
			<path class="st3" d="M348.655,36.715c-0.406-0.044-0.632-0.271-0.677-0.676c0.045-0.45,0.271-0.699,0.677-0.744h6.763
				c0.406,0.045,0.631,0.294,0.677,0.744c-0.046,0.406-0.271,0.632-0.677,0.676h-1.961v4.125h1.556
				c0.405,0.045,0.631,0.271,0.676,0.676c-0.045,0.451-0.271,0.7-0.676,0.744h-1.556v4.193c0.18-0.044,0.45-0.09,0.812-0.135
				c0.45-0.09,0.766-0.157,0.946-0.203c0.542-0.044,0.834,0.181,0.88,0.676c0.044,0.451-0.181,0.722-0.677,0.812
				c-0.496,0.091-1.42,0.249-2.772,0.473c-1.804,0.36-3.156,0.609-4.058,0.744c-0.451,0-0.744-0.226-0.88-0.676
				c-0.045-0.541,0.18-0.856,0.677-0.947c0.135,0,0.314-0.022,0.541-0.068v-7.236c0.044-0.45,0.271-0.699,0.676-0.744
				c0.45,0.045,0.699,0.294,0.744,0.744v7.034c0.541-0.044,1.104-0.135,1.691-0.271v-9.942H348.655z M354.876,40.502
				c-0.271-0.36-0.248-0.744,0.067-1.15c1.083-1.488,1.938-3.133,2.57-4.937c0.18-0.406,0.518-0.585,1.015-0.541
				c0.495,0.226,0.653,0.564,0.474,1.014c-0.271,0.722-0.564,1.353-0.88,1.894h5.546c0.406,0.045,0.631,0.293,0.677,0.744
				c-0.046,0.451-0.271,0.7-0.677,0.744h-0.879c-0.316,3.156-1.105,5.681-2.367,7.575c0.901,1.082,2.029,1.984,3.382,2.705
				c0.405,0.271,0.518,0.676,0.338,1.217c-0.316,0.45-0.722,0.541-1.218,0.271c-1.397-0.857-2.569-1.826-3.517-2.908
				c-0.946,1.083-2.188,2.074-3.72,2.976c-0.451,0.225-0.856,0.157-1.217-0.203c-0.271-0.451-0.181-0.857,0.271-1.217
				c1.577-0.812,2.817-1.758,3.72-2.84c-1.038-1.713-1.714-3.674-2.029-5.884c-0.045,0-0.067-0.044-0.067-0.136
				c-0.136,0.227-0.294,0.474-0.474,0.744C355.574,40.84,355.237,40.818,354.876,40.502z M357.65,38.27
				c-0.046,0-0.113-0.022-0.203-0.068c0.044,0.045,0.067,0.113,0.067,0.203c0.315,2.57,0.947,4.622,1.894,6.154
				c1.082-1.713,1.713-3.81,1.894-6.29H357.65z"/>
			<path class="st3" d="M365.901,40.434c-0.362-0.044-0.564-0.271-0.609-0.676c0.045-0.36,0.247-0.563,0.609-0.609h6.627v-0.406
				c0.09-0.496,0.36-0.766,0.813-0.812c0.45,0.045,0.698,0.316,0.743,0.812v0.406h6.695c0.36,0.045,0.563,0.249,0.609,0.609
				c-0.046,0.406-0.249,0.632-0.609,0.676h-6.695v1.353h4.938c0.676,0,1.015,0.338,1.015,1.015v1.488
				c0.044,1.127-0.52,1.714-1.691,1.758c-0.361,0-0.743,0-1.149,0s-0.654-0.18-0.744-0.541c-0.045-0.36,0.09-0.563,0.406-0.608
				c0.314,0,0.608,0,0.879,0c0.45,0.045,0.698-0.158,0.744-0.609V43.41c0.044-0.179-0.067-0.292-0.338-0.338h-4.059v1.015
				c1.668,1.939,3.968,3.27,6.898,3.99c0.496,0.225,0.653,0.585,0.474,1.083c-0.181,0.45-0.564,0.585-1.149,0.406
				c-2.705-0.903-4.78-2.165-6.223-3.788v3.99c-0.091,0.45-0.338,0.699-0.743,0.744c-0.452-0.045-0.723-0.294-0.813-0.744v-3.99
				c-1.308,1.533-3.404,2.863-6.289,3.99c-0.497,0.18-0.879,0.044-1.149-0.406c-0.136-0.497,0.021-0.857,0.473-1.082
				c2.976-0.856,5.298-2.276,6.966-4.261v-0.947h-3.854c-0.271,0-0.406,0.135-0.406,0.406v1.894c-0.045,0.451-0.315,0.7-0.812,0.744
				c-0.451-0.09-0.699-0.338-0.743-0.744v-2.57c0-0.676,0.338-1.015,1.014-1.015h4.802v-1.353H365.901z M365.36,38.338
				c-0.316-0.271-0.316-0.585,0-0.947c1.172-1.037,2.073-2.141,2.705-3.314c0.225-0.406,0.563-0.541,1.015-0.406
				c0.449,0.181,0.585,0.474,0.405,0.879c-0.045,0.091-0.113,0.203-0.203,0.338c-0.091,0.181-0.158,0.316-0.202,0.406h3.922
				c0.36,0.045,0.563,0.249,0.609,0.609c-0.046,0.361-0.249,0.564-0.609,0.609h-4.869c-0.497,0.676-1.06,1.285-1.69,1.826
				C366.035,38.608,365.674,38.608,365.36,38.338z M370.905,38.676c-0.271,0.271-0.586,0.248-0.946-0.068
				c-0.046-0.09-0.181-0.247-0.406-0.473c-0.226-0.271-0.384-0.428-0.473-0.474c-0.271-0.271-0.271-0.541,0-0.812
				c0.314-0.225,0.631-0.225,0.946,0c0.496,0.497,0.788,0.812,0.879,0.947C371.22,38.067,371.22,38.361,370.905,38.676z
				 M373.542,37.865c-0.361-0.225-0.405-0.541-0.135-0.947c0.766-0.766,1.396-1.713,1.894-2.841c0.135-0.36,0.474-0.496,1.015-0.406
				c0.36,0.181,0.495,0.474,0.405,0.879l-0.338,0.744h4.464c0.405,0.045,0.631,0.249,0.676,0.609
				c-0.045,0.361-0.271,0.564-0.676,0.609h-5.275c-0.046,0.091-0.113,0.203-0.203,0.338c-0.181,0.226-0.429,0.541-0.744,0.947
				C374.263,38.113,373.903,38.135,373.542,37.865z M378.614,38.676c-0.361,0.271-0.676,0.271-0.946,0
				c-0.091-0.09-0.271-0.271-0.541-0.541c-0.271-0.315-0.451-0.496-0.541-0.541c-0.227-0.271-0.203-0.541,0.067-0.812
				c0.314-0.271,0.631-0.271,0.947,0c0.36,0.316,0.698,0.654,1.014,1.014C378.885,38.113,378.885,38.406,378.614,38.676z"/>
		</g>
	</g>
	<g>
		<g>
			<path class="st3" d="M42.323,118.787c0.82,0,1.23,0.41,1.23,1.23c0,3.72-0.11,7.465-0.328,11.238
				c0.109,2.297-0.902,3.417-3.035,3.363c-0.492,0.054-1.066,0.082-1.723,0.082c-0.547-0.055-0.875-0.356-0.984-0.902
				c-0.055-0.603,0.218-0.931,0.82-0.984c0.492,0.109,1.038,0.109,1.641,0c0.984,0.054,1.504-0.492,1.559-1.641
				c0-0.382,0.027-0.984,0.082-1.805c0.109-3.718,0.164-6.534,0.164-8.449c0-0.328-0.192-0.492-0.574-0.492h-2.297
				c-0.055,0.274-0.082,0.574-0.082,0.902c-0.055,6.181-1.121,10.637-3.199,13.371c-0.328,0.382-0.793,0.464-1.395,0.246
				c-0.438-0.438-0.492-0.958-0.164-1.559c1.914-2.351,2.871-6.398,2.871-12.141c0-0.273,0.027-0.546,0.082-0.82h-2.215
				c-0.603-0.054-0.902-0.328-0.902-0.82c0-0.546,0.3-0.82,0.902-0.82h2.215c0.054-0.656,0.082-1.641,0.082-2.953
				c0.054-0.601,0.355-0.929,0.902-0.984c0.602,0.055,0.902,0.383,0.902,0.984c0,0.931,0,1.915,0,2.953H42.323z M46.753,134.127
				c-0.82-0.055-1.259-0.465-1.313-1.23v-13.699c0.054-0.765,0.492-1.175,1.313-1.23h5.086c0.82,0,1.23,0.41,1.23,1.23v13.699
				c-0.055,0.765-0.465,1.175-1.23,1.23H46.753z M50.773,132.322c0.273,0,0.41-0.136,0.41-0.41v-11.73c0-0.273-0.137-0.41-0.41-0.41
				h-3.035c-0.274,0-0.41,0.137-0.41,0.41v11.73c0,0.274,0.136,0.41,0.41,0.41H50.773z"/>
			<path class="st3" d="M56.105,134.783c-0.603,0-0.902-0.301-0.902-0.902c0.054-0.603,0.328-0.902,0.82-0.902s1.012,0,1.559,0
				c0.984,0.054,1.53-0.438,1.641-1.477c0.109-1.313,0.164-2.461,0.164-3.445c0-0.328-0.137-0.464-0.41-0.41h-2.461
				c-0.711-0.054-1.039-0.41-0.984-1.066l0.41-4.43c0.054-0.656,0.41-0.984,1.066-0.984h2.133c0.328,0,0.464-0.136,0.41-0.41v-2.461
				c0-0.328-0.137-0.464-0.41-0.41h-3.199c-0.492-0.054-0.767-0.328-0.82-0.82c0.054-0.492,0.328-0.765,0.82-0.82h4.266
				c0.71,0,1.066,0.356,1.066,1.066v4.43c0,0.711-0.356,1.066-1.066,1.066h-2.297c-0.219,0-0.356,0.11-0.41,0.328l-0.246,2.543
				c0.054,0.164,0.164,0.274,0.328,0.328h2.625c0.656,0,0.984,0.328,0.984,0.984c0,0.383-0.028,1.013-0.082,1.887
				c-0.055,1.477-0.11,2.461-0.164,2.953c-0.055,2.022-1.013,3.007-2.871,2.953C57.363,134.783,56.706,134.783,56.105,134.783z
				 M64.308,121.658c-0.656-0.054-1.013-0.41-1.066-1.066v-3.281c0.054-0.765,0.41-1.148,1.066-1.148h7.875
				c0.71,0,1.066,0.383,1.066,1.148v3.281c0,0.656-0.356,1.013-1.066,1.066h-3.035v2.133h3.773c0.71,0,1.066,0.356,1.066,1.066
				v3.773c0,0.656-0.356,1.013-1.066,1.066h-3.773v2.625c0.328,0,0.792-0.027,1.395-0.082c0.602,0,1.038,0,1.313,0
				c-0.055-0.164-0.164-0.382-0.328-0.656c-0.11-0.164-0.192-0.3-0.246-0.41c-0.219-0.382-0.082-0.71,0.41-0.984
				c0.492-0.164,0.874-0.027,1.148,0.41c0.218,0.274,0.546,0.82,0.984,1.641c0.492,0.82,0.82,1.366,0.984,1.641
				c0.218,0.546,0.082,0.929-0.41,1.148c-0.547,0.164-0.931,0.027-1.148-0.41c-0.055-0.055-0.11-0.137-0.164-0.246
				c-0.11-0.219-0.192-0.356-0.246-0.41h-0.082c-4.048,0.109-7.52,0.273-10.418,0.492c-0.547-0.055-0.902-0.356-1.066-0.902
				c0.054-0.492,0.355-0.82,0.902-0.984c1.148,0,2.871-0.055,5.168-0.164v-2.707H63.57c-0.656-0.054-1.013-0.41-1.066-1.066v-3.691
				c0.054-0.765,0.41-1.148,1.066-1.148h3.773v-2.133H64.308z M64.226,125.76v2.051c0.054,0.274,0.191,0.41,0.41,0.41h2.707v-2.953
				h-2.707C64.362,125.267,64.226,125.431,64.226,125.76z M65.456,117.72c-0.274,0-0.41,0.137-0.41,0.41v1.641
				c0,0.274,0.136,0.41,0.41,0.41h5.578c0.328,0,0.464-0.136,0.41-0.41v-1.641c0.054-0.273-0.082-0.41-0.41-0.41H65.456z
				 M72.265,127.81v-2.051c0-0.328-0.137-0.492-0.41-0.492h-2.707v2.953h2.707C72.072,128.22,72.21,128.085,72.265,127.81z"/>
			<path class="st3" d="M76.448,124.283c-0.383-0.164-0.547-0.464-0.492-0.902c0.492-1.75,0.848-3.636,1.066-5.66
				c0.054-0.492,0.3-0.71,0.738-0.656c0.328,0.055,0.52,0.301,0.574,0.738c-0.055,0.711-0.164,1.395-0.328,2.051h1.559v-3.773
				c0.054-0.546,0.355-0.847,0.902-0.902c0.546,0.055,0.848,0.356,0.902,0.902v3.773h1.313c0.438,0,0.684,0.274,0.738,0.82
				c0,0.603-0.246,0.902-0.738,0.902H81.37v4.02c0.109,0,0.246-0.054,0.41-0.164c0.273-0.054,0.492-0.109,0.656-0.164
				c0.602,0,0.93,0.246,0.984,0.738c0.054,0.547-0.164,0.902-0.656,1.066c-0.274,0.055-0.629,0.164-1.066,0.328
				c-0.164,0.055-0.274,0.082-0.328,0.082v6.809c-0.055,0.492-0.356,0.765-0.902,0.82c-0.547-0.055-0.849-0.328-0.902-0.82v-6.234
				c-0.82,0.219-1.641,0.465-2.461,0.738c-0.547,0.11-0.931-0.136-1.148-0.738c-0.055-0.656,0.191-1.038,0.738-1.148
				c0.218-0.054,0.602-0.164,1.148-0.328c0.766-0.218,1.34-0.382,1.723-0.492v-4.512h-1.723c-0.055,0.164-0.11,0.41-0.164,0.738
				c-0.164,0.711-0.274,1.204-0.328,1.477C77.187,124.229,76.886,124.393,76.448,124.283z M85.144,119.443
				c-0.492-0.054-0.767-0.328-0.82-0.82c0.054-0.492,0.328-0.765,0.82-0.82h3.609v-1.723c0.054-0.546,0.355-0.847,0.902-0.902
				c0.602,0.055,0.93,0.356,0.984,0.902v1.723h3.609c0.492,0.055,0.766,0.328,0.82,0.82c0,0.492-0.274,0.767-0.82,0.82H90.64v2.707
				h4.512c0.492,0.055,0.766,0.328,0.82,0.82c-0.055,0.492-0.328,0.767-0.82,0.82H84.323c-0.492-0.054-0.767-0.328-0.82-0.82
				c0.054-0.492,0.328-0.765,0.82-0.82h4.43v-2.707H85.144z M84.488,127.892c-0.492-0.054-0.767-0.328-0.82-0.82
				c0.054-0.492,0.328-0.765,0.82-0.82h6.891v-1.066c0.054-0.546,0.355-0.847,0.902-0.902c0.546,0.055,0.848,0.356,0.902,0.902
				v1.066h1.805c0.492,0.055,0.766,0.328,0.82,0.82c0,0.492-0.274,0.767-0.82,0.82h-1.805v4.348
				c0.054,1.694-0.793,2.543-2.543,2.543c-0.383,0.054-1.013,0.082-1.887,0.082c-0.656,0-1.039-0.301-1.148-0.902
				c0.054-0.656,0.355-0.958,0.902-0.902c0.492,0,0.956,0,1.395,0c1.038,0.054,1.53-0.383,1.477-1.313v-3.855H84.488z
				 M87.687,131.748c-0.438,0.274-0.849,0.219-1.23-0.164c-0.11-0.164-0.356-0.437-0.738-0.82c-0.328-0.382-0.574-0.656-0.738-0.82
				c-0.274-0.328-0.274-0.683,0-1.066c0.328-0.273,0.738-0.273,1.23,0l1.641,1.641C88.179,130.901,88.124,131.311,87.687,131.748z"
				/>
			<path class="st3" d="M98.843,134.619c-0.438,0.328-0.875,0.328-1.313,0c-0.328-0.438-0.328-0.875,0-1.313
				c1.858-1.805,3.145-3.636,3.855-5.496c-0.274,0.11-0.547,0.082-0.82-0.082c-0.164-0.164-0.521-0.464-1.066-0.902
				c-0.164-0.109-0.274-0.191-0.328-0.246c-0.055,0-0.137-0.082-0.246-0.246c-0.164,0.328-0.328,0.656-0.492,0.984
				c-0.383,0.492-0.793,0.574-1.23,0.246c-0.383-0.382-0.383-0.874,0-1.477c1.202-2.133,2.022-4.729,2.461-7.793h-1.723
				c-0.438-0.054-0.685-0.328-0.738-0.82c0.054-0.437,0.3-0.683,0.738-0.738h6.234c0.492,0.055,0.766,0.301,0.82,0.738
				c-0.055,0.492-0.328,0.767-0.82,0.82h-2.789c-0.055,0.492-0.192,1.177-0.41,2.051c-0.055,0.383-0.11,0.656-0.164,0.82h2.297
				c0.656,0,1.012,0.356,1.066,1.066l-0.082,0.656C103.655,127.757,101.905,131.666,98.843,134.619z M101.468,126.334
				c0.054,0.055,0.136,0.137,0.246,0.246l0.082,0.082c0.273-0.984,0.492-2.133,0.656-3.445c0.054-0.328-0.082-0.492-0.41-0.492
				h-1.641c-0.274,0.875-0.574,1.696-0.902,2.461c0.218-0.054,0.41,0,0.574,0.164C100.511,125.624,100.976,125.952,101.468,126.334z
				 M105.323,123.135c-0.438-0.164-0.629-0.492-0.574-0.984c0.656-1.53,1.176-3.199,1.559-5.004c0.054-0.492,0.328-0.71,0.82-0.656
				c0.492,0.164,0.71,0.438,0.656,0.82c-0.11,0.656-0.246,1.313-0.41,1.969h2.133v-3.363c0.054-0.546,0.355-0.847,0.902-0.902
				c0.546,0.055,0.848,0.356,0.902,0.902v3.363h3.855c0.492,0.055,0.766,0.328,0.82,0.82c-0.055,0.492-0.328,0.767-0.82,0.82h-3.855
				v3.281h4.512c0.492,0.055,0.766,0.328,0.82,0.82c-0.055,0.547-0.328,0.849-0.82,0.902h-4.102c1.148,2.133,2.761,3.884,4.84,5.25
				c0.382,0.383,0.464,0.849,0.246,1.395c-0.383,0.492-0.82,0.574-1.313,0.246c-1.695-1.366-3.09-3.007-4.184-4.922v6.48
				c-0.055,0.546-0.356,0.847-0.902,0.902c-0.547-0.055-0.849-0.356-0.902-0.902v-6.48c-1.039,1.915-2.598,3.665-4.676,5.25
				c-0.492,0.273-0.957,0.191-1.395-0.246c-0.328-0.492-0.274-0.929,0.164-1.313c2.406-1.53,4.266-3.417,5.578-5.66h-3.855
				c-0.547-0.054-0.849-0.355-0.902-0.902c0.054-0.492,0.355-0.765,0.902-0.82h4.184v-3.281h-2.625
				c-0.055,0.11-0.11,0.301-0.164,0.574c-0.164,0.547-0.274,0.931-0.328,1.148C106.171,123.081,105.816,123.245,105.323,123.135z"/>
			<path class="st3" d="M120.253,134.373c-0.767,0-1.148-0.41-1.148-1.23v-15.75c0-0.82,0.382-1.23,1.148-1.23h15.422
				c0.766,0,1.148,0.41,1.148,1.23v15.75c-0.055,0.765-0.438,1.175-1.148,1.23H120.253z M134.363,132.65
				c0.273-0.055,0.438-0.246,0.492-0.574v-13.617c0-0.382-0.164-0.574-0.492-0.574h-12.797c-0.328,0-0.521,0.192-0.574,0.574v13.617
				c0.054,0.383,0.246,0.574,0.574,0.574H134.363z M122.878,122.888c-0.492-0.054-0.767-0.328-0.82-0.82
				c0.054-0.546,0.328-0.82,0.82-0.82h4.102v-1.887c0.054-0.601,0.382-0.929,0.984-0.984c0.546,0.055,0.848,0.383,0.902,0.984v1.887
				h4.184c0.546,0.055,0.848,0.328,0.902,0.82c-0.055,0.492-0.356,0.767-0.902,0.82h-4.184v1.723c0.438-0.273,0.82-0.273,1.148,0
				c0.054,0.055,0.136,0.11,0.246,0.164c1.586,1.368,2.734,2.379,3.445,3.035c0.382,0.438,0.382,0.875,0,1.312
				c-0.383,0.328-0.82,0.328-1.313,0c-0.931-0.929-2.105-2.051-3.527-3.363v5.25c-0.055,0.547-0.356,0.849-0.902,0.902
				c-0.603-0.054-0.931-0.355-0.984-0.902v-5.742c-0.875,1.641-2.133,3.063-3.773,4.266c-0.438,0.328-0.875,0.246-1.313-0.246
				c-0.328-0.546-0.246-0.984,0.246-1.312c2.022-1.477,3.555-3.171,4.594-5.086H122.878z"/>
			<path class="st3" d="M138.956,134.209c-0.383-0.328-0.356-0.793,0.082-1.395c1.477-1.969,2.515-3.827,3.117-5.578
				c-0.547-1.038-1.367-2.515-2.461-4.43c-0.164-0.382-0.301-0.656-0.41-0.82c-0.219-0.492-0.137-0.874,0.246-1.148
				c0.492-0.218,0.874-0.136,1.148,0.246c0.109,0.164,0.246,0.41,0.41,0.738c0.82,1.368,1.422,2.434,1.805,3.199
				c0.382-1.53,0.738-3.363,1.066-5.496c0.054-0.328-0.082-0.464-0.41-0.41h-3.773c-0.492-0.054-0.767-0.328-0.82-0.82
				c0.054-0.546,0.328-0.82,0.82-0.82h4.758c0.766,0,1.12,0.356,1.066,1.066c-0.328,3.5-0.849,6.316-1.559,8.449
				c1.202,2.188,2.022,3.665,2.461,4.43c0.218,0.492,0.109,0.931-0.328,1.313c-0.492,0.218-0.902,0.109-1.23-0.328
				c-0.164-0.328-0.438-0.82-0.82-1.477c-0.383-0.82-0.685-1.421-0.902-1.805c-0.492,1.148-1.449,2.762-2.871,4.84
				C139.912,134.509,139.448,134.591,138.956,134.209z M145.355,124.447c-0.383-0.328-0.328-0.929,0.164-1.805
				c1.477-1.969,2.625-4.237,3.445-6.809c0.218-0.546,0.628-0.792,1.23-0.738c0.546,0.219,0.766,0.603,0.656,1.148
				c-0.11,0.274-0.274,0.656-0.492,1.148c-0.274,0.656-0.492,1.148-0.656,1.477h4.02c-0.11-0.109-0.219-0.273-0.328-0.492
				c-0.274-0.765-0.603-1.448-0.984-2.051c-0.055-0.546,0.136-0.902,0.574-1.066c0.602-0.054,1.012,0.164,1.23,0.656
				c0.109,0.164,0.273,0.492,0.492,0.984c0.273,0.547,0.438,0.902,0.492,1.066c0.109,0.328,0.027,0.629-0.246,0.902h3.117
				c0.492,0.055,0.766,0.301,0.82,0.738c-0.055,0.492-0.328,0.767-0.82,0.82h-3.363v2.789h3.117c0.492,0.055,0.766,0.328,0.82,0.82
				c-0.055,0.438-0.328,0.685-0.82,0.738h-3.117v2.871h3.117c0.546,0,0.82,0.274,0.82,0.82c-0.055,0.438-0.328,0.685-0.82,0.738
				h-3.117v2.953h3.527c0.492,0.055,0.766,0.301,0.82,0.738c-0.055,0.492-0.328,0.765-0.82,0.82h-9.023v0.656
				c-0.055,0.546-0.356,0.847-0.902,0.902c-0.547-0.055-0.849-0.356-0.902-0.902v-11.238c-0.11,0.11-0.246,0.301-0.41,0.574
				c-0.055,0.11-0.11,0.192-0.164,0.246C146.284,124.611,145.792,124.775,145.355,124.447z M149.21,120.428v2.789h3.691v-2.789
				H149.21z M149.21,124.775v2.871h3.691v-2.871H149.21z M149.21,129.205v2.953h3.691v-2.953H149.21z"/>
			<path class="st3" d="M162.827,119.443c-0.547-0.054-0.849-0.355-0.902-0.902c0.054-0.492,0.355-0.765,0.902-0.82h4.43v-1.723
				c0.054-0.546,0.382-0.847,0.984-0.902c0.602,0.055,0.93,0.356,0.984,0.902v1.723h4.102c0.546,0.055,0.848,0.328,0.902,0.82
				c-0.055,0.547-0.356,0.849-0.902,0.902h-4.102v2.789h2.707c1.75-1.366,3.309-2.898,4.676-4.594
				c0.438-0.492,0.902-0.574,1.395-0.246c0.492,0.383,0.546,0.82,0.164,1.313c-1.039,1.313-2.188,2.489-3.445,3.527h4.266
				c0.546,0,0.82,0.274,0.82,0.82c-0.055,0.547-0.328,0.849-0.82,0.902h-6.316c-1.695,1.204-3.664,2.352-5.906,3.445v1.477
				c2.843-0.656,5.77-1.53,8.777-2.625c0.546-0.164,0.93,0.028,1.148,0.574c0.218,0.547,0.054,0.931-0.492,1.148
				c-2.68,0.82-5.824,1.669-9.434,2.543v0.738c0,0.984,0.546,1.448,1.641,1.395h5.578c1.094,0.054,1.75-0.41,1.969-1.395
				c0-0.164,0.054-0.546,0.164-1.148c0.054-0.273,0.082-0.464,0.082-0.574c0.164-0.546,0.546-0.765,1.148-0.656
				c0.602,0.219,0.874,0.603,0.82,1.148c-0.055,0.547-0.219,1.286-0.492,2.215c-0.328,1.477-1.367,2.187-3.117,2.133h-6.809
				c-1.969,0-2.953-0.931-2.953-2.789v-3.281c-0.492,0.219-1.285,0.547-2.379,0.984c-0.438,0.164-0.793,0.301-1.066,0.41
				c-0.603,0.219-1.039,0.055-1.313-0.492c-0.219-0.601-0.055-1.011,0.492-1.23c3.499-1.202,6.48-2.543,8.941-4.02h-8.531
				c-0.492-0.054-0.767-0.355-0.82-0.902c0.054-0.492,0.328-0.765,0.82-0.82h6.316v-2.789H162.827z"/>
			<path class="st3" d="M181.53,122.97c-0.383-0.437-0.356-0.874,0.082-1.313c1.641-1.75,2.953-3.8,3.938-6.152
				c0.328-0.492,0.738-0.628,1.23-0.41c0.438,0.219,0.574,0.603,0.41,1.148c-0.055,0.11-0.164,0.301-0.328,0.574
				c-0.11,0.274-0.219,0.492-0.328,0.656h12.961c0.546,0.055,0.848,0.328,0.902,0.82c-0.055,0.547-0.356,0.849-0.902,0.902h-6.234
				v3.445h5.824c0.546,0.055,0.848,0.328,0.902,0.82c-0.055,0.547-0.356,0.849-0.902,0.902h-5.824v4.02h7.055
				c0.492,0.055,0.766,0.356,0.82,0.902c-0.055,0.547-0.328,0.849-0.82,0.902h-7.055v4.184c-0.055,0.656-0.383,1.011-0.984,1.066
				c-0.603-0.11-0.931-0.465-0.984-1.066v-4.184h-9.598c-0.547-0.054-0.849-0.355-0.902-0.902c0.054-0.546,0.355-0.847,0.902-0.902
				h2.543v-4.594c0.054-0.71,0.438-1.093,1.148-1.148h5.906v-3.445h-5.414c-0.11,0-0.192,0-0.246,0
				c-0.82,1.313-1.751,2.571-2.789,3.773C182.405,123.299,181.968,123.299,181.53,122.97z M186.124,124.775v3.609h5.168v-4.02
				h-4.758C186.26,124.365,186.124,124.502,186.124,124.775z"/>
			<path class="st3" d="M203.925,134.619c-0.547,0.382-1.066,0.3-1.559-0.246c-0.328-0.603-0.246-1.095,0.246-1.477
				c4.812-2.898,7.492-7.055,8.039-12.469c0.054-0.601,0.109-1.53,0.164-2.789c0.054-0.546,0.082-0.984,0.082-1.313
				c0.054-0.71,0.41-1.038,1.066-0.984c0.602,0.055,0.93,0.41,0.984,1.066c0,0.219,0,0.603,0,1.148
				c-0.055,0.547-0.082,0.958-0.082,1.23c0.656,6.727,3.445,11.349,8.367,13.863c0.546,0.382,0.656,0.902,0.328,1.559
				c-0.547,0.546-1.121,0.628-1.723,0.246c-4.32-2.57-6.919-6.288-7.793-11.156C211.115,128.056,208.408,131.83,203.925,134.619z"/>
			<path class="st3" d="M225.171,121.248c-0.547-0.054-0.849-0.355-0.902-0.902c0.054-0.546,0.355-0.847,0.902-0.902h4.02
				c-0.219-0.273-0.603-0.792-1.148-1.559c-0.492-0.656-0.82-1.066-0.984-1.23c-0.274-0.437-0.192-0.847,0.246-1.23
				c0.492-0.218,0.956-0.136,1.395,0.246c0.218,0.219,0.656,0.767,1.313,1.641c0.546,0.711,0.902,1.148,1.066,1.313
				c0.218,0.219,0.273,0.492,0.164,0.82h3.035c0.382-0.492,1.148-1.559,2.297-3.199c0.218-0.273,0.355-0.464,0.41-0.574
				c0.382-0.437,0.848-0.546,1.395-0.328c0.546,0.328,0.684,0.738,0.41,1.23c-0.164,0.219-0.521,0.656-1.066,1.313
				c-0.547,0.711-0.931,1.23-1.148,1.559h4.184c0.546,0.055,0.848,0.356,0.902,0.902c-0.055,0.547-0.356,0.849-0.902,0.902h-6.809
				c0,0.875-0.055,2.024-0.164,3.445h8.039c0.602,0.055,0.93,0.356,0.984,0.902c-0.055,0.547-0.383,0.849-0.984,0.902h-7.711
				c1.202,3.228,3.855,5.332,7.957,6.316c0.602,0.273,0.792,0.738,0.574,1.395c-0.274,0.546-0.793,0.71-1.559,0.492
				c-4.212-1.313-6.919-3.472-8.121-6.48c-0.984,2.789-3.664,5.004-8.039,6.645c-0.767,0.273-1.259,0.136-1.477-0.41
				c-0.274-0.547-0.11-1.013,0.492-1.395c4.594-1.53,7.108-3.718,7.547-6.562h-7.383c-0.547-0.054-0.849-0.355-0.902-0.902
				c0.054-0.546,0.355-0.847,0.902-0.902h7.629c0.109-1.202,0.164-2.351,0.164-3.445H225.171z"/>
			<path class="st3" d="M244.941,125.595c-0.438-0.054-0.685-0.328-0.738-0.82c0.054-0.437,0.3-0.683,0.738-0.738h5.086
				c0.054-0.109,0.109-0.273,0.164-0.492c0.109-0.164,0.164-0.273,0.164-0.328c0.164-0.601,0.546-0.874,1.148-0.82
				c0.602,0.219,0.848,0.574,0.738,1.066c-0.11,0.164-0.164,0.356-0.164,0.574h10.91c0.492,0.055,0.766,0.301,0.82,0.738
				c-0.055,0.492-0.328,0.767-0.82,0.82h-11.566c-0.055,0.164-0.164,0.41-0.328,0.738c-0.164,0.383-0.301,0.656-0.41,0.82h9.926
				c0.546,0.055,0.848,0.328,0.902,0.82c0.054,0.492-0.164,0.931-0.656,1.312c-1.039,0.984-2.27,1.887-3.691,2.707
				c1.641,0.492,3.609,0.847,5.906,1.066c0.546,0.109,0.766,0.464,0.656,1.066c-0.11,0.437-0.521,0.656-1.23,0.656
				c-2.953-0.383-5.442-0.984-7.465-1.805c-2.023,0.82-4.458,1.503-7.301,2.051c-0.656,0.054-1.066-0.137-1.23-0.574
				c-0.11-0.547,0.109-0.902,0.656-1.066c2.297-0.383,4.237-0.849,5.824-1.395c-1.313-0.82-2.516-1.75-3.609-2.789
				c-0.984,1.423-2.243,2.789-3.773,4.102c-0.547,0.328-0.984,0.246-1.313-0.246c-0.274-0.438-0.192-0.874,0.246-1.313
				c2.187-1.75,3.827-3.8,4.922-6.152H244.941z M245.761,123.545c-0.547-0.054-0.849-0.3-0.902-0.738v-1.23
				c0.054-0.656,0.438-1.011,1.148-1.066h2.297v-0.082c-0.055-0.109-0.137-0.246-0.246-0.41c-0.274-0.382-0.438-0.656-0.492-0.82
				c-0.219-0.382-0.055-0.71,0.492-0.984c0.546-0.109,0.93,0.028,1.148,0.41c0.328,0.492,0.574,0.902,0.738,1.23
				c0.109,0.164,0.109,0.383,0,0.656h3.855c0-0.109-0.028-0.191-0.082-0.246c-0.274-0.601-0.492-1.038-0.656-1.313
				c-0.11-0.382,0.082-0.71,0.574-0.984c0.602-0.054,0.984,0.11,1.148,0.492c0.273,0.438,0.492,0.875,0.656,1.313
				c0.164,0.219,0.136,0.465-0.082,0.738h2.543c0.382-0.656,0.82-1.366,1.313-2.133c0.273-0.382,0.684-0.546,1.23-0.492
				c0.492,0.274,0.684,0.603,0.574,0.984c-0.11,0.164-0.328,0.465-0.656,0.902c-0.219,0.328-0.383,0.574-0.492,0.738h2.133
				c0.71,0.055,1.094,0.41,1.148,1.066v1.23c-0.055,0.438-0.383,0.685-0.984,0.738c-0.603,0-0.902-0.246-0.902-0.738v-0.574
				c0-0.218-0.11-0.328-0.328-0.328h-13.863c-0.164,0-0.274,0.11-0.328,0.328v0.574
				C246.691,123.245,246.363,123.491,245.761,123.545z M246.007,117.885c-0.492,0-0.793-0.246-0.902-0.738
				c0-0.437,0.246-0.71,0.738-0.82c5.468-0.109,10.882-0.273,16.242-0.492c0.492-0.054,0.792,0.164,0.902,0.656
				c-0.055,0.547-0.301,0.849-0.738,0.902c-1.095,0.055-2.735,0.11-4.922,0.164C252.351,117.72,248.577,117.831,246.007,117.885z
				 M251.175,128.631c1.148,0.984,2.433,1.833,3.855,2.543c1.313-0.656,2.488-1.395,3.527-2.215
				c0.164-0.218,0.136-0.328-0.082-0.328H251.175z"/>
			<path class="st3" d="M265.366,134.865c-0.438-0.383-0.521-0.849-0.246-1.395c0.874-1.477,1.284-4.02,1.23-7.629v-8.531
				c0.054-0.71,0.41-1.066,1.066-1.066h3.773c0.71,0,1.066,0.356,1.066,1.066v15.176c0.054,1.421-0.574,2.16-1.887,2.215
				c-0.11,0-0.301,0-0.574,0c-0.274,0.054-0.492,0.082-0.656,0.082c-0.656,0-0.984-0.301-0.984-0.902
				c0-0.438,0.191-0.711,0.574-0.82c0.328,0,0.628,0,0.902,0c0.656,0,0.984-0.328,0.984-0.984v-3.938h-2.625
				c-0.11,2.844-0.603,5.004-1.477,6.48C266.24,135.001,265.859,135.083,265.366,134.865z M267.991,118.213v3.199h2.625v-3.199
				c0-0.273-0.137-0.41-0.41-0.41h-1.805C268.127,117.803,267.991,117.94,267.991,118.213z M267.991,126.498v0.082h2.625v-3.609
				h-2.625V126.498z M274.8,135.275c-0.492-0.055-0.767-0.356-0.82-0.902v-16.898c0-0.765,0.382-1.148,1.148-1.148h7.383
				c0.71,0,1.066,0.383,1.066,1.148c0,0.656-0.028,1.313-0.082,1.969c-0.055,1.805-1.013,2.653-2.871,2.543
				c-0.383,0.055-1.121,0.082-2.215,0.082c-0.383,0-0.685-0.246-0.902-0.738c0.054-0.492,0.273-0.765,0.656-0.82h1.805
				c1.202,0.11,1.776-0.273,1.723-1.148c0.054-0.382,0.082-0.738,0.082-1.066c0-0.218-0.11-0.328-0.328-0.328h-5.332
				c-0.274,0-0.41,0.137-0.41,0.41v5.168h7.301c0.492,0.055,0.766,0.328,0.82,0.82c0,0.711-0.082,1.259-0.246,1.641
				c-0.603,1.86-1.395,3.445-2.379,4.758c0.874,0.82,1.969,1.532,3.281,2.133c0.438,0.328,0.546,0.765,0.328,1.313
				c-0.274,0.492-0.711,0.601-1.313,0.328c-1.367-0.711-2.516-1.532-3.445-2.461c-0.82,0.82-1.777,1.641-2.871,2.461
				c-0.547,0.218-1.013,0.136-1.395-0.246v-0.082c-0.055-0.055-0.082-0.11-0.082-0.164v0.328
				C275.648,134.919,275.346,135.22,274.8,135.275z M276.605,126.006c-0.11-0.382-0.082-0.656,0.082-0.82h-0.984v8.285
				c0.054-0.219,0.191-0.383,0.41-0.492c1.094-0.765,1.996-1.503,2.707-2.215C277.945,129.615,277.206,128.03,276.605,126.006z
				 M278.081,125.349c0.492,1.641,1.12,3.008,1.887,4.102c0.766-0.929,1.448-2.242,2.051-3.937c0.054-0.164,0.054-0.246,0-0.246
				c0-0.054-0.11-0.082-0.328-0.082h-3.773C278.027,125.185,278.081,125.241,278.081,125.349z"/>
			<path class="st3" d="M287.925,121.904c-0.492,0.328-0.931,0.246-1.313-0.246c-0.328-0.437-0.274-0.847,0.164-1.23
				c2.022-1.53,3.773-3.199,5.25-5.004c0.492-0.492,0.956-0.601,1.395-0.328c0.438,0.328,0.492,0.738,0.164,1.23
				c-0.164,0.164-0.328,0.383-0.492,0.656h9.516c0.546,0.055,0.848,0.328,0.902,0.82c0,0.603-0.219,1.066-0.656,1.395
				c-1.367,1.313-2.871,2.407-4.512,3.281c1.805,0.547,4.155,0.984,7.055,1.313c0.492,0.055,0.71,0.41,0.656,1.066
				c-0.164,0.492-0.547,0.738-1.148,0.738c-3.609-0.437-6.509-1.12-8.695-2.051c-2.461,0.984-5.496,1.751-9.105,2.297
				c-0.711,0.055-1.121-0.164-1.23-0.656c-0.11-0.546,0.136-0.902,0.738-1.066c2.734-0.382,5.222-0.929,7.465-1.641
				c-1.203-0.82-2.352-1.805-3.445-2.953C289.757,120.345,288.855,121.139,287.925,121.904z M287.761,135.029
				c-0.656,0.218-1.148,0.027-1.477-0.574c-0.219-0.547-0.055-0.958,0.492-1.23c3.663-1.038,5.714-2.597,6.152-4.676h-5.168
				c-0.492-0.054-0.767-0.328-0.82-0.82c0.054-0.546,0.328-0.847,0.82-0.902h5.496c0.109-0.437,0.164-0.929,0.164-1.477
				c0.109-0.546,0.464-0.847,1.066-0.902c0.602,0.11,0.902,0.465,0.902,1.066c0,0.492-0.055,0.931-0.164,1.313h7.137
				c0.71,0.055,1.094,0.438,1.148,1.148c0,0.219-0.028,0.547-0.082,0.984c-0.055,0.875-0.11,1.532-0.164,1.969
				c0.054,2.57-1.23,3.8-3.855,3.691c-0.492,0.054-1.531,0.082-3.117,0.082c-0.656-0.055-1.013-0.383-1.066-0.984
				c0.054-0.547,0.382-0.849,0.984-0.902c0.82,0,1.805,0,2.953,0c1.422,0.164,2.16-0.492,2.215-1.969
				c0-0.164,0.027-0.464,0.082-0.902c0-0.437,0-0.738,0-0.902c0.054-0.273-0.082-0.437-0.41-0.492h-6.07
				C294.488,131.448,292.08,133.606,287.761,135.029z M292.109,118.541c1.202,1.259,2.57,2.297,4.102,3.117
				c1.53-0.82,2.98-1.75,4.348-2.789c0.109-0.054,0.136-0.109,0.082-0.164c-0.055-0.109-0.137-0.164-0.246-0.164H292.109z"/>
			<path class="st3" d="M36.417,174.701c-0.603,0.382-1.148,0.328-1.641-0.164c-0.383-0.547-0.328-1.04,0.164-1.477
				c4.102-2.734,6.426-6.37,6.973-10.91h-6.48c-0.547-0.054-0.849-0.355-0.902-0.902c0.054-0.546,0.355-0.847,0.902-0.902h6.645
				c0.164-1.313,0.273-2.734,0.328-4.266c0.054-0.656,0.41-0.984,1.066-0.984c0.602,0.055,0.93,0.383,0.984,0.984
				c0,0.328-0.028,0.793-0.082,1.395c-0.055,1.313-0.11,2.27-0.164,2.871h7.465c0.71,0.11,1.066,0.492,1.066,1.148
				c-0.11,3.117-0.246,6.099-0.41,8.941c-0.055,2.789-1.341,4.155-3.855,4.102c-0.82,0.054-1.833,0.082-3.035,0.082
				c-0.711-0.11-1.121-0.492-1.23-1.148c0-0.656,0.3-0.984,0.902-0.984c0.273,0,0.738,0.027,1.395,0.082c0.602,0,1.012,0,1.23,0
				c1.75,0.164,2.625-0.71,2.625-2.625c0.109-1.093,0.218-3.281,0.328-6.563c0-0.328,0-0.574,0-0.738
				c0-0.328-0.137-0.492-0.41-0.492h-6.234C43.499,167.346,40.956,171.53,36.417,174.701z M40.027,159.033
				c-0.383,0.383-0.875,0.383-1.477,0c-0.383-0.492-1.013-1.093-1.887-1.805c-0.383-0.382-0.41-0.792-0.082-1.23
				c0.438-0.382,0.902-0.41,1.395-0.082c0.109,0.11,0.273,0.246,0.492,0.41c0.71,0.603,1.202,1.04,1.477,1.313
				C40.326,158.022,40.355,158.487,40.027,159.033z M48.394,168.795c-0.492,0.383-0.984,0.356-1.477-0.082
				c-0.603-0.71-1.313-1.421-2.133-2.133c-0.328-0.492-0.301-0.929,0.082-1.313c0.492-0.328,0.956-0.3,1.395,0.082
				c0.438,0.383,1.148,1.066,2.133,2.051C48.831,167.948,48.831,168.413,48.394,168.795z"/>
			<path class="st3" d="M57.827,159.443c-0.547-0.054-0.849-0.355-0.902-0.902c0.054-0.492,0.355-0.765,0.902-0.82h4.43v-1.723
				c0.054-0.546,0.382-0.847,0.984-0.902c0.602,0.055,0.93,0.356,0.984,0.902v1.723h4.102c0.546,0.055,0.848,0.328,0.902,0.82
				c-0.055,0.547-0.356,0.849-0.902,0.902h-4.102v2.789h2.707c1.75-1.366,3.309-2.898,4.676-4.594
				c0.438-0.492,0.902-0.574,1.395-0.246c0.492,0.383,0.546,0.82,0.164,1.313c-1.039,1.313-2.188,2.489-3.445,3.527h4.266
				c0.546,0,0.82,0.274,0.82,0.82c-0.055,0.547-0.328,0.849-0.82,0.902h-6.316c-1.695,1.204-3.664,2.352-5.906,3.445v1.477
				c2.843-0.656,5.77-1.53,8.777-2.625c0.546-0.164,0.93,0.028,1.148,0.574c0.218,0.547,0.054,0.931-0.492,1.148
				c-2.68,0.82-5.824,1.669-9.434,2.543v0.738c0,0.984,0.546,1.448,1.641,1.395h5.578c1.094,0.054,1.75-0.41,1.969-1.395
				c0-0.164,0.054-0.546,0.164-1.148c0.054-0.273,0.082-0.464,0.082-0.574c0.164-0.546,0.546-0.765,1.148-0.656
				c0.602,0.219,0.874,0.603,0.82,1.148c-0.055,0.547-0.219,1.286-0.492,2.215c-0.328,1.477-1.367,2.187-3.117,2.133h-6.809
				c-1.969,0-2.953-0.931-2.953-2.789v-3.281c-0.492,0.219-1.285,0.547-2.379,0.984c-0.438,0.164-0.793,0.301-1.066,0.41
				c-0.603,0.219-1.039,0.055-1.313-0.492c-0.219-0.601-0.055-1.011,0.492-1.23c3.499-1.202,6.48-2.543,8.941-4.02h-8.531
				c-0.492-0.054-0.767-0.355-0.82-0.902c0.054-0.492,0.328-0.765,0.82-0.82h6.316v-2.789H57.827z"/>
			<path class="st3" d="M76.53,162.97c-0.383-0.437-0.356-0.874,0.082-1.313c1.641-1.75,2.953-3.8,3.938-6.152
				c0.328-0.492,0.738-0.628,1.23-0.41c0.438,0.219,0.574,0.603,0.41,1.148c-0.055,0.11-0.164,0.301-0.328,0.574
				c-0.11,0.274-0.219,0.492-0.328,0.656h12.961c0.546,0.055,0.848,0.328,0.902,0.82c-0.055,0.547-0.356,0.849-0.902,0.902h-6.234
				v3.445h5.824c0.546,0.055,0.848,0.328,0.902,0.82c-0.055,0.547-0.356,0.849-0.902,0.902h-5.824v4.02h7.055
				c0.492,0.055,0.766,0.356,0.82,0.902c-0.055,0.547-0.328,0.849-0.82,0.902h-7.055v4.184c-0.055,0.656-0.383,1.011-0.984,1.066
				c-0.603-0.11-0.931-0.465-0.984-1.066v-4.184h-9.598c-0.547-0.054-0.849-0.355-0.902-0.902c0.054-0.546,0.355-0.847,0.902-0.902
				h2.543v-4.594c0.054-0.71,0.438-1.093,1.148-1.148h5.906v-3.445h-5.414c-0.11,0-0.192,0-0.246,0
				c-0.82,1.313-1.751,2.571-2.789,3.773C77.405,163.299,76.968,163.299,76.53,162.97z M81.124,164.775v3.609h5.168v-4.02h-4.758
				C81.26,164.365,81.124,164.502,81.124,164.775z"/>
			<path class="st3" d="M98.925,174.619c-0.547,0.382-1.066,0.3-1.559-0.246c-0.328-0.603-0.246-1.095,0.246-1.477
				c4.812-2.898,7.492-7.055,8.039-12.469c0.054-0.601,0.109-1.53,0.164-2.789c0.054-0.546,0.082-0.984,0.082-1.313
				c0.054-0.71,0.41-1.038,1.066-0.984c0.602,0.055,0.93,0.41,0.984,1.066c0,0.219,0,0.603,0,1.148
				c-0.055,0.547-0.082,0.958-0.082,1.23c0.656,6.727,3.445,11.349,8.367,13.863c0.546,0.382,0.656,0.902,0.328,1.559
				c-0.547,0.546-1.121,0.628-1.723,0.246c-4.32-2.57-6.919-6.288-7.793-11.156C106.115,168.056,103.408,171.83,98.925,174.619z"/>
			<path class="st3" d="M124.273,165.349c-0.383,0-0.547-0.246-0.492-0.738c0.164-0.874,0.438-2.461,0.82-4.758
				c0.054-0.382,0.273-0.546,0.656-0.492c0.438,0.11,0.628,0.356,0.574,0.738c-0.055,0.438-0.192,1.23-0.41,2.379
				c-0.164,1.095-0.301,1.887-0.41,2.379C124.901,165.24,124.655,165.405,124.273,165.349z M127.226,175.111
				c-0.492,0-0.767-0.274-0.82-0.82v-18.375c0.054-0.546,0.328-0.82,0.82-0.82c0.546,0.055,0.848,0.328,0.902,0.82v2.871
				c0.109-0.054,0.355-0.027,0.738,0.082c0.546,0.547,1.038,1.04,1.477,1.477c0.438,0.274,0.52,0.685,0.246,1.23
				c-0.328,0.328-0.738,0.383-1.23,0.164c-0.11-0.164-0.301-0.41-0.574-0.738c-0.328-0.328-0.547-0.546-0.656-0.656v13.945
				C128.073,174.783,127.772,175.056,127.226,175.111z M130.261,175.111c-0.603,0.054-0.957-0.137-1.066-0.574
				c-0.11-0.492,0.082-0.82,0.574-0.984c1.586-0.274,3.227-0.656,4.922-1.148c-0.984-0.601-1.997-1.53-3.035-2.789h-0.738
				c-0.438-0.054-0.656-0.246-0.656-0.574c0.054-0.382,0.273-0.601,0.656-0.656h10.418c0.492,0,0.738,0.219,0.738,0.656
				c0,0.438-0.192,0.82-0.574,1.148c-0.767,0.82-1.805,1.559-3.117,2.215c1.202,0.382,2.734,0.683,4.594,0.902
				c0.546,0.164,0.792,0.492,0.738,0.984c-0.11,0.437-0.465,0.656-1.066,0.656c-2.407-0.383-4.458-0.931-6.152-1.641
				C134.855,174.016,132.776,174.619,130.261,175.111z M131.081,167.236c-0.603-0.054-0.931-0.41-0.984-1.066v-2.051
				c0.054-0.656,0.382-1.011,0.984-1.066h10.992c0.602,0.055,0.93,0.41,0.984,1.066v2.051c-0.055,0.656-0.383,1.013-0.984,1.066
				H131.081z M132.066,161.904c-0.656-0.054-1.013-0.41-1.066-1.066v-3.773c0.054-0.656,0.41-1.011,1.066-1.066h9.023
				c0.602,0.055,0.93,0.41,0.984,1.066v3.773c-0.055,0.656-0.383,1.013-0.984,1.066H132.066z M131.655,164.529v1.23
				c0,0.164,0.109,0.274,0.328,0.328h1.969v-1.887h-1.969C131.765,164.201,131.655,164.311,131.655,164.529z M132.804,157.638v0.82
				h7.547v-0.82c0-0.273-0.137-0.41-0.41-0.41h-6.727C132.94,157.228,132.804,157.365,132.804,157.638z M139.941,160.674
				c0.273,0,0.41-0.109,0.41-0.328v-0.82h-7.547v0.82c0,0.219,0.136,0.328,0.41,0.328H139.941z M133.706,169.615
				c0.874,0.875,1.832,1.559,2.871,2.051c1.038-0.492,1.996-1.066,2.871-1.723c0.109-0.054,0.164-0.136,0.164-0.246
				c0-0.054-0.055-0.082-0.164-0.082H133.706z M135.347,164.201v1.887h2.379v-1.887H135.347z M141.171,164.201h-2.051v1.887h2.051
				c0.218-0.054,0.328-0.164,0.328-0.328v-1.23C141.499,164.311,141.389,164.201,141.171,164.201z"/>
			<path class="st3" d="M145.437,165.267c-0.328-0.109-0.521-0.355-0.574-0.738c0.218-1.313,0.438-2.789,0.656-4.43
				c0.164-0.437,0.438-0.628,0.82-0.574c0.382,0.11,0.574,0.383,0.574,0.82c-0.219,1.696-0.438,3.146-0.656,4.348
				C146.202,165.132,145.929,165.323,145.437,165.267z M148.554,175.193c-0.547-0.055-0.849-0.356-0.902-0.902v-18.293
				c0.054-0.546,0.355-0.847,0.902-0.902c0.546,0.055,0.848,0.356,0.902,0.902v2.707c0.273-0.054,0.492-0.027,0.656,0.082
				c0.382,0.328,0.848,0.82,1.395,1.477c0.382,0.383,0.464,0.793,0.246,1.23c-0.383,0.438-0.767,0.521-1.148,0.246
				c-0.11-0.109-0.246-0.273-0.41-0.492c-0.328-0.382-0.574-0.628-0.738-0.738v13.781
				C149.402,174.837,149.1,175.138,148.554,175.193z M152.081,164.447c-0.438-0.218-0.603-0.601-0.492-1.148
				c0.766-1.477,1.448-3.417,2.051-5.824c0.164-0.546,0.492-0.82,0.984-0.82c0.602,0.164,0.848,0.521,0.738,1.066
				c-0.055,0.219-0.137,0.521-0.246,0.902c-0.11,0.438-0.192,0.767-0.246,0.984h2.543v-3.527c0.054-0.601,0.382-0.929,0.984-0.984
				c0.602,0.055,0.93,0.383,0.984,0.984v3.527h4.102c0.546,0.055,0.848,0.356,0.902,0.902c-0.055,0.547-0.356,0.849-0.902,0.902
				h-4.102v4.43h3.855c0.492,0.055,0.766,0.356,0.82,0.902c-0.055,0.492-0.328,0.767-0.82,0.82h-3.855v4.758h4.676
				c0.546,0.055,0.848,0.355,0.902,0.902c-0.055,0.546-0.356,0.847-0.902,0.902h-12.141c-0.547-0.055-0.849-0.356-0.902-0.902
				c0.054-0.547,0.355-0.847,0.902-0.902h5.496v-4.758h-4.266c-0.547-0.054-0.849-0.328-0.902-0.82
				c0.054-0.546,0.355-0.847,0.902-0.902h4.266v-4.43h-3.117c-0.328,0.931-0.656,1.778-0.984,2.543
				C153.037,164.502,152.627,164.666,152.081,164.447z"/>
			<path class="st3" d="M166.765,168.22c-0.492,0.219-0.875,0.082-1.148-0.41c-0.164-0.546-0.028-0.984,0.41-1.313
				c0.984-0.437,1.969-0.929,2.953-1.477v-0.164v-6.316c0-0.765,0.382-1.148,1.148-1.148h6.48c-0.164-0.546-0.328-0.984-0.492-1.313
				c-0.11-0.546,0.164-0.902,0.82-1.066c0.656-0.054,1.066,0.164,1.23,0.656c0.054,0.11,0.109,0.274,0.164,0.492
				c0.218,0.547,0.355,0.958,0.41,1.23h6.234c0.438,0.055,0.684,0.328,0.738,0.82c-0.055,0.492-0.301,0.767-0.738,0.82h-13.781
				c-0.274,0-0.41,0.137-0.41,0.41v5.578c0.109,4.048-0.793,7.274-2.707,9.68c-0.383,0.437-0.849,0.492-1.395,0.164
				c-0.383-0.438-0.438-0.902-0.164-1.395c1.53-1.75,2.324-3.938,2.379-6.563c-0.328,0.219-0.793,0.492-1.395,0.82
				C167.175,167.948,166.929,168.112,166.765,168.22z M167.995,164.201c-0.492,0.055-0.793-0.136-0.902-0.574
				c-0.055-0.218-0.164-0.546-0.328-0.984c-0.328-1.148-0.574-1.969-0.738-2.461c-0.055-0.437,0.109-0.738,0.492-0.902
				c0.382-0.054,0.684,0.137,0.902,0.574c0.273,0.82,0.628,1.942,1.066,3.363C168.541,163.709,168.377,164.037,167.995,164.201z
				 M172.015,162.478c-0.492-0.054-0.767-0.328-0.82-0.82c0.054-0.492,0.328-0.765,0.82-0.82h12.715
				c0.438,0.055,0.684,0.328,0.738,0.82c-0.055,0.492-0.301,0.767-0.738,0.82h-5.332c0,0.219-0.028,0.603-0.082,1.148
				c0,0.492,0,0.82,0,0.984h4.512c0.656,0,0.984,0.328,0.984,0.984v6.316c0.054,1.858-0.793,2.761-2.543,2.707
				c-0.383,0.054-1.259,0.082-2.625,0.082c-0.547,0-0.875-0.274-0.984-0.82c-0.055-0.547,0.164-0.849,0.656-0.902
				c0.82,0,1.586,0,2.297,0c0.984,0,1.448-0.438,1.395-1.313v-5.086c0.054-0.328-0.082-0.464-0.41-0.41h-3.445
				c0,0.055-0.028,0.164-0.082,0.328c0,0.164-0.028,0.301-0.082,0.41c0.382,0.328,0.93,0.849,1.641,1.559
				c0.766,0.656,1.313,1.177,1.641,1.559c0.328,0.383,0.328,0.82,0,1.313c-0.438,0.328-0.875,0.301-1.313-0.082
				c-0.274-0.382-0.767-0.929-1.477-1.641c-0.492-0.492-0.849-0.847-1.066-1.066c-0.492,1.148-1.449,2.243-2.871,3.281
				c-0.438,0.328-0.849,0.301-1.23-0.082c-0.383-0.382-0.383-0.792,0-1.23c1.805-1.313,2.816-2.761,3.035-4.348h-3.363
				c-0.274-0.054-0.41,0.082-0.41,0.41v7.629c-0.055,0.546-0.328,0.847-0.82,0.902c-0.547-0.055-0.849-0.356-0.902-0.902v-8.613
				c0-0.656,0.328-0.984,0.984-0.984h4.676c0.054-0.382,0.082-1.093,0.082-2.133H172.015z"/>
			<path class="st3" d="M187.601,173.799c-0.492-0.219-0.629-0.603-0.41-1.148c0.492-1.038,0.93-2.051,1.313-3.035
				c0.328-0.437,0.71-0.601,1.148-0.492c0.546,0.219,0.738,0.603,0.574,1.148c-0.274,0.767-0.738,1.805-1.395,3.117
				C188.557,173.881,188.147,174.016,187.601,173.799z M189.98,161.412c-0.656-0.054-1.013-0.382-1.066-0.984v-2.543
				c0.109-0.601,0.464-0.929,1.066-0.984h5.906v-0.984c0-0.492,0.3-0.738,0.902-0.738c0.602,0,0.902,0.246,0.902,0.738v0.984h5.906
				c0.656,0.055,1.012,0.41,1.066,1.066v2.379c-0.055,0.656-0.438,1.013-1.148,1.066h-5.824v1.477h6.398
				c0.656,0.055,1.012,0.41,1.066,1.066v2.461c-0.055,0.656-0.41,1.013-1.066,1.066h-6.398v0.328c0,0.547-0.301,0.82-0.902,0.82
				c-0.055,0-0.137,0-0.246,0l0.082,0.082c0.438,0.274,1.094,0.711,1.969,1.313c0.328,0.328,0.3,0.711-0.082,1.148
				c-0.438,0.328-0.875,0.301-1.313-0.082c-0.219-0.164-0.656-0.464-1.313-0.902c-0.328-0.218-0.547-0.382-0.656-0.492
				c-0.274-0.328-0.246-0.683,0.082-1.066c0.273-0.164,0.546-0.218,0.82-0.164c-0.164-0.164-0.246-0.382-0.246-0.656v-0.328h-6.398
				c-0.656-0.054-1.013-0.41-1.066-1.066v-2.461c0.054-0.656,0.41-1.011,1.066-1.066h6.398v-1.477H189.98z M190.226,164.693v1.066
				c0.054,0.219,0.164,0.328,0.328,0.328h5.332v-1.805h-5.332C190.39,164.283,190.28,164.42,190.226,164.693z M190.636,158.705
				v0.984c0,0.164,0.136,0.274,0.41,0.328h4.84v-1.805h-4.84C190.772,158.213,190.636,158.377,190.636,158.705z M194.409,174.537
				c-1.859,0.054-2.762-0.82-2.707-2.625v-2.297c0-0.546,0.3-0.82,0.902-0.82c0.546,0.055,0.848,0.328,0.902,0.82v1.887
				c-0.055,1.038,0.492,1.53,1.641,1.477h3.199c1.038,0.054,1.641-0.274,1.805-0.984c0-0.164,0.054-0.519,0.164-1.066
				c0.054-0.164,0.082-0.273,0.082-0.328c0.164-0.492,0.52-0.683,1.066-0.574c0.546,0.219,0.792,0.574,0.738,1.066
				c-0.055,0.274-0.137,0.656-0.246,1.148c-0.11,0.273-0.164,0.464-0.164,0.574c-0.328,1.202-1.341,1.776-3.035,1.723H194.409z
				 M202.859,159.689v-1.066c0-0.273-0.11-0.41-0.328-0.41h-4.84v1.805h4.84C202.748,160.017,202.859,159.908,202.859,159.689z
				 M203.023,164.283h-5.332v1.805h5.332c0.218,0,0.328-0.109,0.328-0.328v-1.066C203.351,164.365,203.24,164.229,203.023,164.283z
				 M206.14,173.224c-0.603,0.273-1.039,0.164-1.313-0.328c-0.164-0.219-0.438-0.683-0.82-1.395
				c-0.438-0.656-0.738-1.093-0.902-1.313c-0.274-0.437-0.192-0.792,0.246-1.066c0.438-0.218,0.848-0.136,1.23,0.246
				c0.164,0.219,0.464,0.656,0.902,1.313c0.438,0.603,0.738,1.04,0.902,1.313C206.659,172.432,206.577,172.841,206.14,173.224z"/>
			<path class="st3" d="M210.488,159.115c-0.492-0.054-0.767-0.328-0.82-0.82c0.054-0.437,0.328-0.683,0.82-0.738h4.84v-1.641
				c0.054-0.546,0.355-0.847,0.902-0.902c0.602,0.055,0.93,0.356,0.984,0.902v1.641h4.184c0.438,0.055,0.684,0.301,0.738,0.738
				c-0.055,0.492-0.301,0.767-0.738,0.82h-4.184v2.379h2.461c1.805-1.313,3.473-2.816,5.004-4.512
				c0.328-0.437,0.792-0.492,1.395-0.164c0.382,0.383,0.41,0.793,0.082,1.23c-1.203,1.204-2.434,2.352-3.691,3.445h4.512
				c0.546,0,0.82,0.274,0.82,0.82c-0.055,0.492-0.328,0.767-0.82,0.82h-6.645c-1.148,0.767-2.325,1.477-3.527,2.133h6.809
				c0.766,0.055,1.176,0.465,1.23,1.23v6.398c-0.11,0.656-0.521,1.038-1.23,1.148h-10.91c-0.711-0.11-1.121-0.492-1.23-1.148v-5.004
				c-0.82,0.328-1.669,0.656-2.543,0.984c-0.547,0.219-0.957,0.055-1.23-0.492c-0.11-0.601,0.082-1.011,0.574-1.23
				c3.335-1.148,6.316-2.488,8.941-4.02h-8.613c-0.492-0.054-0.767-0.328-0.82-0.82c0.054-0.492,0.328-0.765,0.82-0.82h6.727v-2.379
				H210.488z M213.851,166.826c-0.055,0-0.082,0.028-0.082,0.082c-0.055,0.055-0.164,0.082-0.328,0.082v0.082
				c-0.055,0.11-0.082,0.192-0.082,0.246v1.559h9.598v-1.559c-0.055-0.273-0.219-0.437-0.492-0.492H213.851z M222.464,172.568
				c0.273-0.055,0.438-0.246,0.492-0.574v-1.641h-9.598v1.641c0.054,0.328,0.218,0.519,0.492,0.574H222.464z"/>
			<path class="st3" d="M229.683,161.084c-0.547-0.054-0.849-0.355-0.902-0.902c0.054-0.492,0.355-0.765,0.902-0.82h1.641v-3.363
				c0.054-0.546,0.355-0.847,0.902-0.902c0.546,0.055,0.848,0.356,0.902,0.902v3.363h1.395c0.546,0.055,0.848,0.328,0.902,0.82
				c-0.055,0.547-0.356,0.849-0.902,0.902h-1.395v3.363c0.438-0.164,0.82-0.3,1.148-0.41c0.602-0.109,0.93,0.11,0.984,0.656
				c0.054,0.328,0,0.574-0.164,0.738c0.164-0.109,0.328-0.164,0.492-0.164h12.469c0.492,0.055,0.766,0.301,0.82,0.738
				c0,0.492-0.274,0.767-0.82,0.82h-5.25v2.051h4.512c0.438,0,0.656,0.246,0.656,0.738s-0.219,0.738-0.656,0.738h-4.512v2.461
				c0.874,0.054,2.679,0.082,5.414,0.082c0.492,0.054,0.71,0.328,0.656,0.82c-0.11,0.492-0.41,0.738-0.902,0.738
				c-2.68,0-4.594-0.028-5.742-0.082c-2.297,0-3.938-0.875-4.922-2.625c-0.492,1.148-1.148,2.16-1.969,3.035
				c-0.492,0.437-0.931,0.492-1.313,0.164c-0.438-0.328-0.492-0.711-0.164-1.148c1.477-1.421,2.324-3.335,2.543-5.742
				c0.109-0.437,0.438-0.683,0.984-0.738c0.546,0.11,0.792,0.438,0.738,0.984c-0.055,0.492-0.137,0.984-0.246,1.477
				c0.766,1.641,1.805,2.598,3.117,2.871v-5.824h-5.414c-0.492-0.054-0.767-0.328-0.82-0.82c0-0.164,0.082-0.3,0.246-0.41
				c-0.055,0-0.164,0.028-0.328,0.082c0.109-0.054,0.082-0.027-0.082,0.082c-0.055,0.055-0.219,0.11-0.492,0.164
				c-0.438,0.164-0.767,0.328-0.984,0.492v5.824c0.054,1.694-0.629,2.543-2.051,2.543c-0.11,0-0.328,0.027-0.656,0.082
				c-0.328,0-0.521,0-0.574,0c-0.603,0-0.957-0.301-1.066-0.902c-0.055-0.603,0.191-0.931,0.738-0.984c0.273,0,0.574,0,0.902,0
				c0.656,0.054,0.956-0.301,0.902-1.066v-4.84c-0.055,0.055-0.164,0.11-0.328,0.164c-0.328,0.164-0.738,0.301-1.23,0.41
				c-0.492,0.11-0.849-0.109-1.066-0.656c-0.055-0.656,0.191-1.038,0.738-1.148c0.82-0.273,1.448-0.492,1.887-0.656v-4.102H229.683z
				 M237.558,163.791c-0.711,0-1.066-0.382-1.066-1.148v-5.414c0-0.71,0.355-1.066,1.066-1.066h8.367
				c0.71,0,1.066,0.356,1.066,1.066v5.414c0,0.767-0.356,1.148-1.066,1.148H237.558z M238.214,158.049v1.23h7.055v-1.23
				c0-0.328-0.137-0.492-0.41-0.492h-6.234C238.35,157.556,238.214,157.72,238.214,158.049z M244.859,162.314
				c0.273,0,0.41-0.136,0.41-0.41v-1.313h-7.055v1.313c0,0.274,0.136,0.41,0.41,0.41H244.859z"/>
			<path class="st3" d="M249.945,165.678c-0.164-0.164-0.274-0.41-0.328-0.738c0-0.273,0.054-0.519,0.164-0.738
				c1.75-2.57,3.089-5.332,4.02-8.285c0.218-0.546,0.628-0.738,1.23-0.574c0.546,0.164,0.766,0.547,0.656,1.148
				c-0.492,1.259-0.984,2.461-1.477,3.609v14.273c-0.055,0.601-0.383,0.929-0.984,0.984c-0.547-0.055-0.849-0.383-0.902-0.984
				v-10.664c-0.164,0.274-0.438,0.685-0.82,1.23c-0.11,0.219-0.192,0.356-0.246,0.41
				C250.929,165.788,250.49,165.897,249.945,165.678z M256.671,161.248c-0.547-0.054-0.849-0.355-0.902-0.902
				c0-0.546,0.3-0.82,0.902-0.82h1.805v-3.527c0-0.656,0.3-0.984,0.902-0.984c0.546,0.055,0.848,0.383,0.902,0.984v3.527h4.184
				v-3.527c0.054-0.601,0.355-0.929,0.902-0.984c0.602,0.055,0.93,0.383,0.984,0.984v3.527h1.969
				c0.546,0.055,0.848,0.328,0.902,0.82c-0.055,0.547-0.356,0.849-0.902,0.902h-1.969v5.414h2.625
				c0.546,0.055,0.848,0.356,0.902,0.902c-0.055,0.547-0.356,0.849-0.902,0.902h-13.289c-0.492-0.054-0.767-0.355-0.82-0.902
				c0.054-0.546,0.328-0.847,0.82-0.902h2.789v-5.414H256.671z M256.999,174.701c-0.492,0.328-0.984,0.328-1.477,0
				c-0.383-0.383-0.383-0.849,0-1.395c1.694-1.421,2.925-2.597,3.691-3.527c0.438-0.328,0.902-0.382,1.395-0.164
				c0.438,0.383,0.492,0.849,0.164,1.395C259.952,171.94,258.694,173.169,256.999,174.701z M260.28,161.248v5.414h4.184v-5.414
				H260.28z M269.058,174.701c-0.438,0.382-0.902,0.355-1.395-0.082c-0.328-0.328-0.957-0.958-1.887-1.887
				c-0.875-0.929-1.449-1.53-1.723-1.805c-0.383-0.437-0.383-0.874,0-1.313c0.546-0.328,1.012-0.3,1.395,0.082
				c0.71,0.656,1.94,1.86,3.691,3.609C269.577,173.852,269.55,174.318,269.058,174.701z"/>
			<path class="st3" d="M273.405,174.291c-0.767,0-1.148-0.41-1.148-1.23v-15.75c0-0.765,0.382-1.148,1.148-1.148h16.242
				c0.602,0.055,0.93,0.328,0.984,0.82c-0.055,0.547-0.383,0.849-0.984,0.902H274.8c-0.438,0-0.656,0.192-0.656,0.574v13.453
				c0,0.328,0.218,0.521,0.656,0.574h14.93c0.546,0.054,0.848,0.355,0.902,0.902c-0.055,0.546-0.356,0.847-0.902,0.902H273.405z
				 M276.113,164.037c-0.383-0.328-0.438-0.765-0.164-1.313c0.82-1.038,1.612-2.324,2.379-3.855c0.273-0.546,0.684-0.738,1.23-0.574
				c0.492,0.274,0.656,0.685,0.492,1.23c-0.055,0.055-0.137,0.192-0.246,0.41c-0.11,0.164-0.192,0.301-0.246,0.41h8.941
				c0.438,0.055,0.684,0.328,0.738,0.82c-0.055,0.438-0.301,0.685-0.738,0.738h-4.676c0,0.383-0.028,0.931-0.082,1.641
				c0,0.547,0,0.958,0,1.23h5.66c0.492,0.055,0.766,0.301,0.82,0.738c-0.055,0.492-0.328,0.767-0.82,0.82h-5.988
				c-0.055,0.219-0.137,0.41-0.246,0.574c2.351,1.259,4.211,2.27,5.578,3.035c0.438,0.438,0.52,0.875,0.246,1.313
				c-0.328,0.492-0.767,0.603-1.313,0.328c-1.423-0.984-3.172-2.078-5.25-3.281c-0.767,1.368-2.516,2.571-5.25,3.609
				c-0.711,0.164-1.177,0.028-1.395-0.41c-0.274-0.546-0.137-0.956,0.41-1.23c3.007-0.984,4.758-2.297,5.25-3.938h-5.578
				c-0.492-0.054-0.767-0.328-0.82-0.82c0.054-0.437,0.328-0.683,0.82-0.738h5.906c0.054-0.273,0.082-0.738,0.082-1.395
				c0.054-0.656,0.082-1.148,0.082-1.477h-3.281c-0.328,0.711-0.767,1.368-1.313,1.969
				C277.069,164.256,276.658,164.311,276.113,164.037z"/>
			<path class="st3" d="M292.847,168.22c-0.547,0.219-0.931,0.082-1.148-0.41c-0.11-0.601,0.054-1.066,0.492-1.395
				c0.164-0.109,0.438-0.246,0.82-0.41c0.984-0.546,1.694-0.956,2.133-1.23v-0.574v-5.578c0.054-0.765,0.464-1.175,1.23-1.23h6.398
				c-0.055-0.164-0.11-0.382-0.164-0.656c-0.11-0.273-0.192-0.464-0.246-0.574c-0.055-0.601,0.246-0.956,0.902-1.066
				c0.602-0.109,1.012,0.082,1.23,0.574c0.164,0.547,0.328,1.122,0.492,1.723h5.988c0.492,0.055,0.766,0.356,0.82,0.902
				c-0.055,0.492-0.328,0.767-0.82,0.82h-13.617c-0.164,0-0.274,0.137-0.328,0.41v4.758c0.109,4.54-0.82,8.012-2.789,10.418
				c-0.383,0.492-0.875,0.546-1.477,0.164c-0.383-0.328-0.438-0.82-0.164-1.477c1.477-1.641,2.297-3.8,2.461-6.48
				c-0.219,0.11-0.574,0.328-1.066,0.656C293.448,167.839,293.065,168.056,292.847,168.22z M293.995,164.037
				c-0.438,0.11-0.767-0.054-0.984-0.492c-0.438-1.585-0.793-2.734-1.066-3.445c-0.055-0.492,0.109-0.792,0.492-0.902
				c0.438-0.054,0.738,0.11,0.902,0.492c0.218,0.603,0.602,1.723,1.148,3.363C294.541,163.6,294.377,163.928,293.995,164.037z
				 M300.804,174.701c-0.492-0.055-0.82-0.356-0.984-0.902c0.054-0.603,0.3-0.931,0.738-0.984c0.328,0.054,1.038,0.082,2.133,0.082
				c0.984-0.055,1.448-0.519,1.395-1.395v-4.758c0-0.601,0.191-1.011,0.574-1.23l2.871-1.887c0.164-0.218,0.136-0.328-0.082-0.328
				h-8.531c-0.492-0.054-0.767-0.355-0.82-0.902c0.054-0.492,0.328-0.765,0.82-0.82h11.074c0.546,0,0.82,0.301,0.82,0.902
				c0,0.547-0.219,0.984-0.656,1.313l-3.773,2.625c-0.274,0.164-0.383,0.41-0.328,0.738v4.676c0.054,1.858-0.793,2.789-2.543,2.789
				c-0.219,0-0.656,0-1.313,0C301.542,174.673,301.077,174.701,300.804,174.701z"/>
			<path class="st3" d="M313.683,173.881c-0.547-0.055-0.849-0.356-0.902-0.902c0.054-0.601,0.355-0.929,0.902-0.984h5.906v-13.617
				h-5.086c-0.547-0.054-0.849-0.355-0.902-0.902c0.054-0.601,0.355-0.929,0.902-0.984h15.34c0.766,0,1.148,0.41,1.148,1.23
				c0,2.188-0.055,4.266-0.164,6.234c0,2.68-1.313,3.993-3.938,3.938c-0.82,0-1.587,0-2.297,0c-0.711-0.054-1.148-0.41-1.313-1.066
				c0-0.656,0.328-0.984,0.984-0.984s1.366,0,2.133,0c1.586,0.164,2.379-0.601,2.379-2.297c0-0.273,0-0.792,0-1.559
				c0.054-1.257,0.082-2.242,0.082-2.953c0-0.382-0.192-0.601-0.574-0.656h-6.645v13.617h10.254c0.602,0.055,0.93,0.383,0.984,0.984
				c0,0.601-0.328,0.902-0.984,0.902H313.683z"/>
			<path class="st3" d="M334.683,164.529c-0.438-0.437-0.521-0.902-0.246-1.395c1.422-1.858,2.543-3.938,3.363-6.234
				c0.164-0.546,0.574-0.792,1.23-0.738c0.656,0.219,0.874,0.603,0.656,1.148c-0.219,0.711-0.492,1.423-0.82,2.133h4.43v-3.445
				c0.054-0.601,0.382-0.929,0.984-0.984c0.602,0.055,0.93,0.383,0.984,0.984v3.445h6.727c0.546,0.055,0.848,0.356,0.902,0.902
				c-0.055,0.547-0.356,0.849-0.902,0.902h-6.727v4.348h6.07c0.546,0.055,0.848,0.356,0.902,0.902
				c-0.055,0.547-0.356,0.849-0.902,0.902h-6.07v4.758h7.711c0.546,0.055,0.848,0.382,0.902,0.984
				c-0.055,0.546-0.356,0.847-0.902,0.902h-18.129c-0.547-0.055-0.849-0.356-0.902-0.902c0.054-0.603,0.355-0.929,0.902-0.984h8.449
				V167.4h-6.48c-0.547-0.054-0.849-0.355-0.902-0.902c0.054-0.546,0.355-0.847,0.902-0.902h6.48v-4.348h-5.332
				c-0.767,1.423-1.367,2.407-1.805,2.953C335.721,164.748,335.229,164.857,334.683,164.529z"/>
			<path class="st3" d="M34.366,214.865c-0.438-0.383-0.521-0.849-0.246-1.395c0.874-1.477,1.284-4.02,1.23-7.629v-8.531
				c0.054-0.71,0.41-1.066,1.066-1.066h3.773c0.71,0,1.066,0.356,1.066,1.066v15.176c0.054,1.421-0.574,2.16-1.887,2.215
				c-0.11,0-0.301,0-0.574,0c-0.274,0.054-0.492,0.082-0.656,0.082c-0.656,0-0.984-0.301-0.984-0.902
				c0-0.438,0.191-0.711,0.574-0.82c0.328,0,0.628,0,0.902,0c0.656,0,0.984-0.328,0.984-0.984v-3.938h-2.625
				c-0.11,2.844-0.603,5.004-1.477,6.48C35.24,215.001,34.859,215.083,34.366,214.865z M36.991,198.213v3.199h2.625v-3.199
				c0-0.273-0.137-0.41-0.41-0.41h-1.805C37.127,197.803,36.991,197.94,36.991,198.213z M36.991,206.498v0.082h2.625v-3.609h-2.625
				V206.498z M43.8,215.275c-0.492-0.055-0.767-0.356-0.82-0.902v-16.898c0-0.765,0.382-1.148,1.148-1.148h7.383
				c0.71,0,1.066,0.383,1.066,1.148c0,0.656-0.028,1.313-0.082,1.969c-0.055,1.805-1.013,2.653-2.871,2.543
				c-0.383,0.055-1.121,0.082-2.215,0.082c-0.383,0-0.685-0.246-0.902-0.738c0.054-0.492,0.273-0.765,0.656-0.82h1.805
				c1.202,0.11,1.776-0.273,1.723-1.148c0.054-0.382,0.082-0.738,0.082-1.066c0-0.218-0.11-0.328-0.328-0.328h-5.332
				c-0.274,0-0.41,0.137-0.41,0.41v5.168h7.301c0.492,0.055,0.766,0.328,0.82,0.82c0,0.711-0.082,1.259-0.246,1.641
				c-0.603,1.86-1.395,3.445-2.379,4.758c0.874,0.82,1.969,1.532,3.281,2.133c0.438,0.328,0.546,0.765,0.328,1.313
				c-0.274,0.492-0.711,0.601-1.313,0.328c-1.367-0.711-2.516-1.532-3.445-2.461c-0.82,0.82-1.777,1.641-2.871,2.461
				c-0.547,0.218-1.013,0.136-1.395-0.246v-0.082c-0.055-0.055-0.082-0.11-0.082-0.164v0.328
				C44.648,214.919,44.346,215.22,43.8,215.275z M45.605,206.006c-0.11-0.382-0.082-0.656,0.082-0.82h-0.984v8.285
				c0.054-0.219,0.191-0.383,0.41-0.492c1.094-0.765,1.996-1.503,2.707-2.215C46.945,209.615,46.206,208.03,45.605,206.006z
				 M47.081,205.349c0.492,1.641,1.12,3.008,1.887,4.102c0.766-0.929,1.448-2.242,2.051-3.938c0.054-0.164,0.054-0.246,0-0.246
				c0-0.054-0.11-0.082-0.328-0.082h-3.773C47.027,205.185,47.081,205.24,47.081,205.349z"/>
			<path class="st3" d="M56.925,201.904c-0.492,0.328-0.931,0.246-1.313-0.246c-0.328-0.437-0.274-0.847,0.164-1.23
				c2.022-1.53,3.773-3.199,5.25-5.004c0.492-0.492,0.956-0.601,1.395-0.328c0.438,0.328,0.492,0.738,0.164,1.23
				c-0.164,0.164-0.328,0.383-0.492,0.656h9.516c0.546,0.055,0.848,0.328,0.902,0.82c0,0.603-0.219,1.066-0.656,1.395
				c-1.367,1.313-2.871,2.407-4.512,3.281c1.805,0.547,4.155,0.984,7.055,1.313c0.492,0.055,0.71,0.41,0.656,1.066
				c-0.164,0.492-0.547,0.738-1.148,0.738c-3.609-0.437-6.509-1.12-8.695-2.051c-2.461,0.984-5.496,1.751-9.105,2.297
				c-0.711,0.055-1.121-0.164-1.23-0.656c-0.11-0.546,0.136-0.902,0.738-1.066c2.734-0.382,5.222-0.929,7.465-1.641
				c-1.203-0.82-2.352-1.805-3.445-2.953C58.757,200.345,57.855,201.139,56.925,201.904z M56.761,215.029
				c-0.656,0.218-1.148,0.027-1.477-0.574c-0.219-0.547-0.055-0.958,0.492-1.23c3.663-1.038,5.714-2.597,6.152-4.676h-5.168
				c-0.492-0.054-0.767-0.328-0.82-0.82c0.054-0.546,0.328-0.847,0.82-0.902h5.496c0.109-0.437,0.164-0.929,0.164-1.477
				c0.109-0.546,0.464-0.847,1.066-0.902c0.602,0.11,0.902,0.465,0.902,1.066c0,0.492-0.055,0.931-0.164,1.313h7.137
				c0.71,0.055,1.094,0.438,1.148,1.148c0,0.219-0.028,0.547-0.082,0.984c-0.055,0.875-0.11,1.532-0.164,1.969
				c0.054,2.57-1.23,3.8-3.855,3.691c-0.492,0.054-1.531,0.082-3.117,0.082c-0.656-0.055-1.013-0.383-1.066-0.984
				c0.054-0.547,0.382-0.849,0.984-0.902c0.82,0,1.805,0,2.953,0c1.422,0.164,2.16-0.492,2.215-1.969
				c0-0.164,0.027-0.464,0.082-0.902c0-0.437,0-0.738,0-0.902c0.054-0.273-0.082-0.437-0.41-0.492h-6.07
				C63.488,211.448,61.08,213.606,56.761,215.029z M61.109,198.541c1.202,1.259,2.57,2.297,4.102,3.117
				c1.53-0.82,2.98-1.75,4.348-2.789c0.109-0.054,0.136-0.109,0.082-0.164c-0.055-0.109-0.137-0.164-0.246-0.164H61.109z"/>
			<path class="st3" d="M76.777,200.756c-0.492-0.054-0.767-0.355-0.82-0.902c0.054-0.546,0.328-0.82,0.82-0.82h1.887v-3.035
				c0.054-0.546,0.328-0.847,0.82-0.902c0.602,0.055,0.93,0.356,0.984,0.902v3.035h1.559c0.546,0,0.82,0.274,0.82,0.82
				c-0.055,0.547-0.328,0.849-0.82,0.902h-1.559v4.02c0.546-0.109,1.066-0.246,1.559-0.41c0.492-0.054,0.82,0.192,0.984,0.738
				c0,0.603-0.274,0.958-0.82,1.066c-0.11,0.055-0.274,0.11-0.492,0.164c-0.547,0.219-0.957,0.356-1.23,0.41v5.496
				c0.109,1.75-0.629,2.597-2.215,2.543c-0.164,0.054-0.574,0.082-1.23,0.082c-0.656-0.055-0.984-0.328-0.984-0.82
				c-0.055-0.603,0.164-0.931,0.656-0.984h0.902c0.766,0,1.12-0.383,1.066-1.148v-4.758c-0.11,0.055-0.274,0.11-0.492,0.164
				c-0.328,0.055-0.738,0.137-1.23,0.246c-0.547,0.11-0.902-0.136-1.066-0.738c-0.055-0.601,0.218-1.011,0.82-1.23
				c0.273-0.054,0.766-0.164,1.477-0.328c0.218-0.054,0.382-0.082,0.492-0.082v-4.43H76.777z M86.374,203.053
				c-1.859,0.055-2.762-0.792-2.707-2.543v-4.594c0.054-0.492,0.355-0.765,0.902-0.82c0.602,0.055,0.93,0.328,0.984,0.82v2.297
				c2.679-0.492,5.523-1.12,8.531-1.887c0.602-0.054,0.984,0.11,1.148,0.492c0.109,0.547-0.082,0.902-0.574,1.066
				c-1.477,0.383-3.966,0.902-7.465,1.559c-0.767,0.164-1.313,0.274-1.641,0.328v0.164c-0.11,1.148,0.438,1.669,1.641,1.559h4.676
				c1.038,0.055,1.668-0.328,1.887-1.148c0-0.109,0.054-0.328,0.164-0.656c0.054-0.218,0.082-0.382,0.082-0.492
				c0.164-0.437,0.52-0.628,1.066-0.574c0.492,0.164,0.71,0.547,0.656,1.148c0,0.11-0.028,0.301-0.082,0.574
				c-0.11,0.438-0.192,0.767-0.246,0.984c-0.328,1.204-1.313,1.778-2.953,1.723H86.374z M84.898,214.373
				c-0.711,0-1.066-0.356-1.066-1.066v-7.383c0-0.71,0.355-1.066,1.066-1.066h8.613c0.71,0,1.066,0.356,1.066,1.066v7.383
				c0,0.71-0.356,1.066-1.066,1.066H84.898z M85.636,206.826v2.051h7.137v-2.051c0-0.273-0.137-0.41-0.41-0.41h-6.234
				C85.8,206.416,85.636,206.553,85.636,206.826z M92.363,212.814c0.273,0,0.41-0.164,0.41-0.492v-1.969h-7.137v1.969
				c0,0.328,0.164,0.492,0.492,0.492H92.363z"/>
			<path class="st3" d="M97.695,199.033c-0.492-0.054-0.767-0.328-0.82-0.82c0.054-0.492,0.328-0.765,0.82-0.82h8.203v-1.313
				c0.054-0.601,0.41-0.929,1.066-0.984c0.602,0.055,0.93,0.383,0.984,0.984v1.313h8.203c0.492,0.055,0.766,0.328,0.82,0.82
				c0,0.492-0.274,0.767-0.82,0.82h-8.203v1.969h6.563c0.766,0.055,1.176,0.438,1.23,1.148v10.09c0,1.694-0.82,2.57-2.461,2.625
				c-0.711,0-1.587,0-2.625,0c-0.603-0.055-0.957-0.356-1.066-0.902c0.054-0.547,0.328-0.849,0.82-0.902c0.602,0,1.258,0,1.969,0
				c1.038,0.054,1.53-0.383,1.477-1.313v-8.613c0-0.328-0.164-0.492-0.492-0.492h-12.715c-0.328,0-0.492,0.164-0.492,0.492v11.238
				c-0.055,0.546-0.356,0.847-0.902,0.902c-0.603-0.055-0.931-0.356-0.984-0.902V202.15c0.054-0.71,0.438-1.093,1.148-1.148h6.48
				v-1.969H97.695z M102.124,207.236c-0.438-0.054-0.685-0.273-0.738-0.656c0.054-0.492,0.3-0.765,0.738-0.82h2.133
				c-0.11-0.218-0.301-0.519-0.574-0.902c-0.219-0.273-0.356-0.464-0.41-0.574c-0.219-0.437-0.137-0.82,0.246-1.148
				c0.546-0.164,0.956-0.054,1.23,0.328c0.054,0.055,0.109,0.11,0.164,0.164c0.438,0.603,0.738,1.04,0.902,1.313
				c0.164,0.274,0.191,0.547,0.082,0.82h1.641c0.438-0.546,0.956-1.313,1.559-2.297c0.382-0.492,0.82-0.628,1.313-0.41
				c0.492,0.219,0.628,0.574,0.41,1.066c-0.383,0.438-0.793,0.984-1.23,1.641h2.215c0.438,0.055,0.684,0.328,0.738,0.82
				c-0.055,0.383-0.301,0.603-0.738,0.656h-3.855v1.969h4.348c0.438,0.055,0.684,0.328,0.738,0.82
				c-0.055,0.383-0.301,0.603-0.738,0.656h-4.348v3.035c-0.055,0.546-0.383,0.847-0.984,0.902c-0.547-0.055-0.849-0.356-0.902-0.902
				v-3.035h-4.43c-0.438-0.054-0.685-0.273-0.738-0.656c0.054-0.492,0.3-0.765,0.738-0.82h4.43v-1.969H102.124z"/>
		</g>
	</g>
	<path class="st2" d="M63.885,78.508h-9.721v-4.974c0-4.618,3.262-8.59,7.783-9.495l16.438-3.294c0,6.2,2.47,12.159,6.847,16.535
		l1.227,1.227l1.227-1.227c4.377-4.377,6.847-10.335,6.847-16.535l16.438,3.294c4.521,0.904,7.783,4.877,7.783,9.495v4.974h-9.721
		c0.017,0.242,0.032,0.484,0.032,0.727c0,2.632-1.049,5.167-2.906,7.023l-0.323,0.323v7.251c-5.942,2.615-12.482,4.053-19.377,4.053
		s-13.435-1.437-19.377-4.053v-7.251l-0.323-0.323c-1.857-1.857-2.906-4.392-2.906-7.023C63.852,78.992,63.868,78.75,63.885,78.508
		L63.885,78.508z M63.885,78.508"/>
	<path class="st5" d="M118.754,84.967l0.291,0.307c-3.876,3.536-8.332,6.443-13.209,8.559v-7.251l0.323-0.323
		c1.857-1.857,2.906-4.392,2.906-7.023c0-0.243-0.016-0.485-0.032-0.727h9.721V84.967z M118.754,84.967"/>
	<path class="st5" d="M63.852,79.235c0,2.632,1.049,5.167,2.906,7.023l0.323,0.323v7.251c-4.877-2.116-9.333-5.022-13.209-8.559
		l0.291-0.307v-6.459h9.721C63.868,78.75,63.852,78.992,63.852,79.235L63.852,79.235z M63.852,79.235"/>
	<path class="st5" d="M94.533,54.287v6.459c0,6.2-2.47,12.159-6.847,16.535l-1.227,1.227l-1.227-1.227
		c-4.377-4.377-6.847-10.335-6.847-16.535v-6.459l0.242-0.419c2.325,1.307,4.99,2.034,7.832,2.034s5.507-0.727,7.832-2.034
		L94.533,54.287z M94.533,54.287"/>
	<path class="st5" d="M70.311,23.606v16.147c0,3.633,1.211,6.992,3.229,9.688c0.468,0.613,0.969,1.195,1.502,1.728
		c1.065,1.066,2.261,1.97,3.584,2.697c2.325,1.307,4.99,2.034,7.832,2.034s5.507-0.727,7.832-2.034
		c1.986-1.098,3.714-2.616,5.086-4.425c2.018-2.696,3.229-6.055,3.229-9.688V23.606 M70.311,23.606"/>
	<path class="st2" d="M113.91,28.451c0-2.018-0.952-3.795-2.39-4.989c0.888-1.647,1.066-3.65,0.307-5.522
		c-0.775-1.858-2.342-3.149-4.134-3.682c0.194-1.857-0.404-3.795-1.824-5.216c-1.421-1.421-3.359-2.018-5.216-1.824
		c-0.533-1.792-1.824-3.359-3.682-4.134c-1.873-0.759-3.875-0.581-5.522,0.307C90.254,1.953,88.477,1,86.459,1
		c-2.018,0-3.795,0.952-4.989,2.39c-1.647-0.888-3.65-1.066-5.522-0.307c-1.858,0.775-3.149,2.342-3.682,4.134
		c-1.857-0.194-3.795,0.404-5.216,1.824c-1.421,1.421-2.018,3.359-1.824,5.216c-1.792,0.533-3.359,1.824-4.134,3.682
		c-0.759,1.873-0.581,3.875,0.307,5.522c-1.437,1.195-2.39,2.971-2.39,4.989c0,2.018,0.952,3.795,2.39,4.989
		c-0.888,1.647-1.066,3.65-0.307,5.522c0.775,1.858,2.342,3.149,4.134,3.682c-0.194,1.857,0.404,3.795,1.824,5.216
		c1.421,1.421,3.02,1.776,4.877,1.582h1.615c-2.018-2.696-3.229-6.055-3.229-9.688v-9.688h1.416c2.666,0,5.078-1.254,6.658-3.244
		v3.244h1.416c1.87,0,3.617-0.621,5.043-1.671v1.671h1.416c2.666,0,5.078-1.254,6.658-3.244v3.244h1.416
		c3.912,0,7.323-2.663,8.272-6.459v16.147c0,3.633-1.211,6.992-3.229,9.688h1.615c1.857,0.194,3.456-0.162,4.877-1.582
		c1.421-1.421,2.018-3.359,1.824-5.216c1.792-0.533,3.359-1.824,4.134-3.682c0.759-1.873,0.581-3.875-0.307-5.522
		C112.957,32.246,113.91,30.469,113.91,28.451L113.91,28.451z M113.91,28.451"/>
	<path class="st5" d="M80,34.91c0,0.892-0.723,1.615-1.615,1.615s-1.615-0.723-1.615-1.615c0-0.892,0.723-1.615,1.615-1.615
		S80,34.018,80,34.91L80,34.91z M80,34.91"/>
	<path class="st5" d="M96.147,34.91c0,0.892-0.723,1.615-1.615,1.615s-1.615-0.723-1.615-1.615c0-0.892,0.723-1.615,1.615-1.615
		S96.147,34.018,96.147,34.91L96.147,34.91z M96.147,34.91"/>
	<path class="st5" d="M91.751,44.199c0,2.923-2.369,5.292-5.292,5.292s-5.292-2.37-5.292-5.292"/>
</g>
</svg>