<!-- Generator: Adobe Illustrator 24.1.3, SVG Export Plug-In  -->
<svg version="1.1" xmlns="http://www.w3.org/2000/svg" xmlns:xlink="http://www.w3.org/1999/xlink" x="0px" y="0px"
	 width="369.69px" height="100.363px" viewBox="0 0 369.69 100.363"
	 style="overflow:visible;enable-background:new 0 0 369.69 100.363;" xml:space="preserve">
<style type="text/css">
	.st0{fill:#BF2222;}
	.st1{fill:none;}
	.st2{font-family:'HYQingFenTi-W';}
	.st3{font-size:72px;}
</style>
<defs>
</defs>
<g>
	<g>
		<g>
			<path class="st0" d="M87.669,54.126c-1.152,1.104-2.232,1.584-3.24,1.439c-1.008-0.145-1.776-0.6-2.304-1.367
				c-0.529-0.768-0.709-1.668-0.54-2.701c0.167-1.031,0.875-1.883,2.124-2.556c1.775-0.96,3.372-1.944,4.788-2.952
				c1.415-1.008,2.675-1.967,3.78-2.88c0.096-0.095,0.18-0.155,0.252-0.18c0.072-0.024,0.155-0.06,0.252-0.108
				c0.096-2.88,0.155-6.012,0.18-9.396c0.023-3.384,0.036-7.188,0.036-11.412c0-1.199,0.371-2.099,1.116-2.7
				c0.744-0.6,1.548-0.9,2.412-0.9c0.864,0,1.667,0.313,2.412,0.937c0.744,0.624,1.116,1.561,1.116,2.808
				c0,3.457-0.024,6.637-0.072,9.541c-0.048,2.904-0.133,5.592-0.252,8.063c-0.121,2.473-0.265,4.776-0.432,6.912
				c-0.168,2.136-0.372,4.165-0.612,6.084c-0.336,2.496-0.781,4.765-1.332,6.804c-0.552,2.041-1.309,3.949-2.268,5.725
				c-0.961,1.775-2.136,3.467-3.528,5.076c-1.393,1.607-3.073,3.227-5.04,4.859c-0.432,0.335-0.889,0.468-1.368,0.396
				c-0.48-0.072-0.876-0.289-1.188-0.648c-0.313-0.36-0.493-0.792-0.54-1.296c-0.048-0.505,0.167-1.021,0.648-1.548
				c1.055-1.105,2.027-2.221,2.916-3.348c0.888-1.128,1.667-2.412,2.34-3.853c0.672-1.44,1.248-3.107,1.728-5.005
				c0.479-1.895,0.864-4.163,1.152-6.803l0.36-4.752C91.172,50.335,89.541,52.253,87.669,54.126z M84.645,34.615
				c-0.385-1.297-0.769-2.593-1.152-3.889c-0.385-1.296-0.745-2.376-1.08-3.24c-0.144-0.479-0.121-0.947,0.072-1.404
				c0.191-0.455,0.479-0.803,0.864-1.043c0.383-0.24,0.828-0.324,1.332-0.252c0.504,0.071,0.996,0.396,1.476,0.972
				c0.288,0.336,0.648,0.804,1.08,1.403c0.432,0.602,0.864,1.225,1.296,1.873c0.432,0.647,0.839,1.248,1.224,1.799
				c0.384,0.553,0.648,0.949,0.792,1.188c0.768,1.152,0.972,2.221,0.612,3.204c-0.36,0.984-0.961,1.691-1.8,2.124
				c-0.84,0.433-1.728,0.468-2.664,0.108C85.761,37.098,85.077,36.151,84.645,34.615z M104.013,23.526
				c-0.864,0-1.501-0.252-1.908-0.756c-0.408-0.504-0.612-1.067-0.612-1.692c0-0.623,0.204-1.188,0.612-1.691
				c0.407-0.504,1.044-0.756,1.908-0.756h14.904l-2.592-5.112c-0.288-0.479-0.372-0.937-0.252-1.368
				c0.12-0.432,0.348-0.779,0.684-1.044c0.335-0.263,0.756-0.407,1.26-0.432s1.044,0.18,1.62,0.612
				c1.584,1.151,2.76,2.076,3.528,2.771c0.767,0.696,1.271,1.164,1.512,1.404c0.528,0.528,0.852,1.068,0.972,1.619
				c0.119,0.553,0.108,1.069-0.036,1.549h19.008c0.864,0,1.523,0.252,1.98,0.756c0.456,0.504,0.684,1.068,0.684,1.691
				c0,0.625-0.229,1.188-0.684,1.692c-0.457,0.504-1.116,0.756-1.98,0.756H104.013z M104.157,34.11c-0.816,0-1.416-0.252-1.8-0.756
				c-0.385-0.504-0.576-1.056-0.576-1.655c0-0.6,0.191-1.152,0.576-1.656c0.384-0.504,0.983-0.756,1.8-0.756h40.392
				c0.768,0,1.356,0.252,1.764,0.756c0.407,0.504,0.612,1.057,0.612,1.656c0,0.6-0.205,1.151-0.612,1.655
				c-0.408,0.504-0.997,0.756-1.764,0.756H104.157z M102.861,45.558c0-1.152,0.348-2.004,1.044-2.557
				c0.695-0.551,1.464-0.814,2.304-0.791c0.839,0.024,1.607,0.324,2.304,0.899c0.695,0.576,1.044,1.44,1.044,2.593v26.279
				c0,1.152-0.349,2.004-1.044,2.557c-0.697,0.551-1.465,0.828-2.304,0.828c-0.84,0-1.609-0.277-2.304-0.828
				c-0.696-0.553-1.044-1.404-1.044-2.557V45.558z M114.597,66.222c-0.48,0.48-0.972,0.709-1.476,0.684
				c-0.504-0.023-0.936-0.191-1.296-0.504c-0.36-0.312-0.576-0.72-0.648-1.224c-0.072-0.504,0.083-0.972,0.468-1.404
				c1.104-1.343,2.099-2.628,2.988-3.853c0.888-1.223,1.68-2.471,2.376-3.743c0.695-1.271,1.271-2.628,1.728-4.068
				c0.456-1.44,0.828-3.071,1.116-4.896h-6.264c-0.768,0-1.356-0.252-1.764-0.756c-0.408-0.504-0.612-1.068-0.612-1.692
				c0-0.623,0.191-1.188,0.576-1.692c0.383-0.504,0.983-0.756,1.8-0.756h6.696c0-0.527,0.011-1.091,0.036-1.691
				c0.024-0.6,0.036-1.236,0.036-1.908c0-1.055,0.348-1.859,1.044-2.412c0.695-0.551,1.451-0.84,2.268-0.864
				c0.815-0.023,1.572,0.241,2.268,0.792c0.695,0.553,1.044,1.381,1.044,2.484c0,0.672-0.012,1.296-0.036,1.872
				c-0.024,0.575-0.061,1.151-0.108,1.728h12.672c2.304,0,3.816,0.564,4.536,1.692s1.08,2.628,1.08,4.5v16.272
				c0,1.344-0.061,2.496-0.18,3.455c-0.12,0.96-0.324,1.801-0.612,2.521s-0.637,1.368-1.044,1.944
				c-0.409,0.576-0.9,1.151-1.476,1.728c-0.385,0.384-0.828,0.647-1.332,0.792s-0.972,0.168-1.404,0.072
				c-0.432-0.098-0.792-0.301-1.08-0.612c-0.288-0.313-0.385-0.756-0.288-1.332c0.096-0.961-0.265-1.655-1.08-2.088
				c-0.817-0.433-2.376-0.769-4.68-1.009c-0.528-0.048-0.9-0.252-1.116-0.611s-0.313-0.732-0.288-1.116
				c0.023-0.384,0.167-0.731,0.432-1.044c0.263-0.312,0.636-0.443,1.116-0.396c1.343,0.145,2.436,0.181,3.276,0.109
				c0.839-0.072,1.476-0.289,1.908-0.648c0.432-0.36,0.72-0.864,0.864-1.512c0.144-0.648,0.216-1.5,0.216-2.557V50.455
				c0-1.104-0.205-1.92-0.612-2.449c-0.409-0.527-1.188-0.791-2.34-0.791h-9.288c-0.432,1.969-1.008,3.805-1.728,5.508
				c-0.72,1.704-1.573,3.324-2.556,4.859c-0.984,1.537-2.088,3.014-3.312,4.429C117.297,63.426,115.989,64.83,114.597,66.222z
				 M128.997,51.822c1.536,1.537,2.891,2.929,4.068,4.176c1.176,1.25,2.099,2.281,2.772,3.097c0.432,0.528,0.648,1.08,0.648,1.655
				c0,0.576-0.133,1.117-0.396,1.621c-0.264,0.504-0.637,0.912-1.116,1.224c-0.48,0.313-0.997,0.493-1.548,0.54
				c-0.552,0.049-1.092-0.084-1.62-0.396c-0.529-0.312-0.984-0.875-1.368-1.691c-0.673-1.487-1.368-2.916-2.088-4.284
				c-0.72-1.368-1.44-2.651-2.16-3.853c-0.288-0.432-0.373-0.863-0.252-1.295c0.119-0.433,0.335-0.78,0.648-1.045
				c0.312-0.264,0.684-0.396,1.116-0.396C128.133,51.174,128.565,51.39,128.997,51.822z"/>
			<path class="st0" d="M209.853,49.374c0,0.768-0.025,1.512-0.072,2.231h7.776c0.72,0,1.26,0.229,1.62,0.685
				c0.36,0.457,0.551,0.947,0.576,1.476c0.023,0.528-0.144,1.021-0.504,1.476c-0.36,0.457-0.925,0.685-1.692,0.685h-7.848
				c-0.097,1.249-0.169,2.376-0.216,3.384c-0.049,1.008-0.121,1.969-0.216,2.88h5.832c0.672,0,1.176,0.229,1.512,0.685
				c0.335,0.457,0.504,0.947,0.504,1.476c0,0.528-0.169,1.021-0.504,1.476c-0.336,0.457-0.84,0.685-1.512,0.685h-6.624
				c-0.529,1.968-1.213,3.587-2.052,4.86c-0.84,1.271-1.908,2.483-3.204,3.635c-0.864,0.768-1.632,1.271-2.304,1.513
				c-0.673,0.239-1.249,0.3-1.728,0.181c-0.48-0.121-0.828-0.385-1.044-0.793c-0.216-0.408-0.3-0.9-0.252-1.476
				c0.047-0.72-0.66-1.284-2.124-1.692c-1.465-0.408-3.276-0.684-5.436-0.828c-0.529-0.048-0.9-0.252-1.116-0.611
				c-0.216-0.36-0.3-0.745-0.252-1.152c0.047-0.408,0.204-0.781,0.468-1.115c0.263-0.337,0.636-0.48,1.116-0.433
				c1.584,0.096,2.891,0.155,3.924,0.181c1.032,0.023,2.003,0.011,2.916-0.037c0.864-0.048,1.62-0.191,2.268-0.432
				s1.211-0.84,1.692-1.8h-34.92c-1.537,0-2.736-0.516-3.6-1.548c-0.864-1.031-1.224-2.363-1.08-3.996l0.792-5.04h-6.696
				c-0.72,0-1.272-0.228-1.656-0.685c-0.385-0.455-0.588-0.947-0.612-1.476c-0.025-0.528,0.155-1.019,0.54-1.476
				c0.384-0.456,0.959-0.685,1.728-0.685h7.416l1.224-7.416c0.095-1.199,0.515-2.063,1.26-2.592
				c0.744-0.528,1.536-0.756,2.376-0.685c0.839,0.072,1.584,0.422,2.232,1.045c0.648,0.624,0.924,1.465,0.828,2.52l-1.296,7.128
				h16.704c-0.625-0.096-1.177-0.504-1.656-1.224c-0.432-0.672-0.817-1.248-1.152-1.729c-0.336-0.479-0.696-0.936-1.08-1.367
				c-0.241-0.289-0.36-0.6-0.36-0.937c0-0.335,0.119-0.623,0.36-0.864h-7.848c-0.72,0-1.26-0.216-1.62-0.648
				c-0.36-0.432-0.54-0.923-0.54-1.475s0.18-1.045,0.54-1.477c0.36-0.432,0.9-0.648,1.62-0.648h29.592
				c1.536,0,2.819,0.541,3.852,1.62c1.031,1.08,1.548,2.46,1.548,4.14C209.853,47.815,209.853,48.607,209.853,49.374z
				 M213.669,20.394c0.384-0.455,0.576-0.959,0.576-1.512c0-0.551-0.205-1.056-0.612-1.512c-0.408-0.456-0.997-0.685-1.764-0.685
				h-21.744v-1.8c0-1.199-0.36-2.1-1.08-2.7c-0.72-0.6-1.5-0.899-2.34-0.899c-0.84,0-1.62,0.3-2.34,0.899
				c-0.72,0.601-1.08,1.501-1.08,2.7v1.8h-21.816c-0.816,0-1.429,0.229-1.836,0.685c-0.408,0.456-0.612,0.961-0.612,1.512
				c0,0.553,0.204,1.057,0.612,1.512c0.407,0.457,1.02,0.684,1.836,0.684h21.816v3.744h-17.352c-0.72,0-1.26,0.217-1.62,0.648
				s-0.54,0.925-0.54,1.477s0.191,1.043,0.576,1.475c0.383,0.433,0.936,0.648,1.656,0.648h17.28v3.816h-25.344
				c-0.817,0-1.429,0.229-1.836,0.684c-0.408,0.457-0.612,0.973-0.612,1.549s0.204,1.092,0.612,1.547
				c0.407,0.457,1.019,0.685,1.836,0.685h57.456c0.815,0,1.415-0.228,1.8-0.685c0.384-0.455,0.576-0.971,0.576-1.547
				s-0.205-1.092-0.612-1.549c-0.409-0.455-0.997-0.684-1.764-0.684h-25.272V29.07h17.28c0.72,0,1.26-0.216,1.62-0.648
				c0.36-0.432,0.54-0.923,0.54-1.475s-0.192-1.045-0.576-1.477c-0.385-0.432-0.936-0.648-1.656-0.648h-17.208v-3.744h21.744
				C212.685,21.078,213.284,20.851,213.669,20.394z M183.969,59.094c-0.264-0.479-0.588-0.96-0.972-1.44
				c-0.241-0.287-0.349-0.587-0.324-0.9c0.024-0.311,0.155-0.586,0.396-0.827h-13.896l-0.72,3.96
				c-0.097,0.816,0.011,1.404,0.324,1.764c0.312,0.36,0.947,0.54,1.908,0.54h15.624c-0.576-0.144-1.033-0.575-1.368-1.296
				C184.556,60.174,184.232,59.575,183.969,59.094z M185.373,45.486c0.671,0.336,1.224,0.625,1.656,0.864
				c0.432,0.241,0.888,0.528,1.368,0.864c0.528,0.385,0.852,0.816,0.972,1.296c0.119,0.479,0.095,0.937-0.072,1.368
				c-0.168,0.432-0.444,0.816-0.828,1.152c-0.385,0.336-0.816,0.528-1.296,0.575h15.984v-3.312c0-0.96-0.156-1.668-0.468-2.125
				c-0.313-0.455-0.925-0.684-1.836-0.684H185.373z M202.761,59.417c0.072-1.031,0.155-2.195,0.252-3.491h-17.496
				c1.296,0.816,2.328,1.512,3.096,2.088c0.432,0.385,0.708,0.792,0.828,1.224c0.119,0.432,0.108,0.854-0.036,1.26
				c-0.144,0.408-0.372,0.756-0.684,1.045c-0.313,0.287-0.66,0.504-1.044,0.647h14.832
				C202.604,61.374,202.689,60.451,202.761,59.417z"/>
			<path class="st0" d="M232.893,39.367c-1.393-1.92-2.568-3.48-3.528-4.681c-0.96-1.199-2.016-2.376-3.168-3.528
				c-0.336-0.335-0.504-0.72-0.504-1.152c0-0.432,0.108-0.814,0.324-1.151c0.216-0.335,0.527-0.575,0.936-0.72
				c0.407-0.145,0.875-0.072,1.404,0.216c2.207,1.151,4.02,2.185,5.436,3.097c1.415,0.912,2.724,1.92,3.924,3.023
				c0.912,0.816,1.32,1.74,1.224,2.771c-0.097,1.033-0.457,1.885-1.08,2.557c-0.625,0.672-1.417,1.044-2.376,1.115
				C234.524,40.986,233.66,40.47,232.893,39.367z M234.621,69.966c-0.48,1.823-1.224,2.976-2.232,3.455
				c-1.008,0.48-1.957,0.528-2.844,0.145c-0.889-0.385-1.561-1.104-2.016-2.16c-0.457-1.057-0.396-2.208,0.18-3.455
				c0.911-2.064,1.728-3.948,2.448-5.652c0.72-1.703,1.368-3.287,1.944-4.752c0.576-1.464,1.08-2.855,1.512-4.176
				c0.432-1.32,0.816-2.629,1.152-3.924c0.144-0.576,0.432-0.996,0.864-1.261c0.432-0.263,0.864-0.36,1.296-0.288
				c0.432,0.072,0.803,0.301,1.116,0.684c0.312,0.385,0.443,0.913,0.396,1.584c-0.144,1.825-0.324,3.541-0.54,5.148
				c-0.216,1.609-0.493,3.204-0.828,4.788c-0.336,1.584-0.708,3.181-1.116,4.788C235.544,66.499,235.1,68.191,234.621,69.966z
				 M234.261,23.455c-0.672-0.864-1.236-1.607-1.692-2.232c-0.457-0.623-0.9-1.199-1.332-1.729
				c-0.432-0.527-0.864-1.031-1.296-1.512c-0.432-0.479-0.936-1.008-1.512-1.584c-0.384-0.383-0.588-0.803-0.612-1.26
				c-0.025-0.455,0.072-0.864,0.288-1.225c0.216-0.359,0.54-0.611,0.972-0.756c0.432-0.144,0.911-0.072,1.44,0.217
				c1.055,0.576,1.98,1.08,2.772,1.512s1.512,0.828,2.16,1.188c0.648,0.36,1.248,0.732,1.8,1.116
				c0.551,0.385,1.116,0.792,1.692,1.224c1.055,0.77,1.572,1.682,1.548,2.736c-0.024,1.057-0.36,1.944-1.008,2.664
				c-0.648,0.721-1.465,1.129-2.448,1.225C236.048,25.134,235.125,24.606,234.261,23.455z M260.685,23.022
				c-0.144,0.144-0.36,0.313-0.648,0.504h6.048c0.815,0,1.428,0.253,1.836,0.757c0.407,0.504,0.612,1.056,0.612,1.655
				c0,0.601-0.205,1.152-0.612,1.656c-0.408,0.504-1.021,0.756-1.836,0.756h-23.688c-0.817,0-1.429-0.252-1.836-0.756
				c-0.409-0.504-0.612-1.056-0.612-1.656c0-0.6,0.204-1.151,0.612-1.655c0.407-0.504,1.019-0.757,1.836-0.757h15.408
				c-0.288-0.239-0.48-0.552-0.576-0.936c-0.097-0.384-0.025-0.815,0.216-1.296c0.624-1.152,1.176-2.34,1.656-3.564
				c0.479-1.225,1.008-2.676,1.584-4.355c0.335-1.008,0.923-1.621,1.764-1.836c0.839-0.217,1.608-0.133,2.304,0.252
				c0.695,0.385,1.199,0.996,1.512,1.836c0.312,0.84,0.155,1.813-0.468,2.916c-0.768,1.248-1.537,2.364-2.304,3.348
				C262.725,20.874,261.789,21.918,260.685,23.022z M243.549,75.798c-0.576,0.383-1.116,0.527-1.62,0.432
				c-0.504-0.097-0.876-0.324-1.116-0.684c-0.241-0.36-0.336-0.793-0.288-1.297c0.047-0.504,0.288-0.947,0.72-1.332
				c1.392-1.151,2.615-2.34,3.672-3.563c1.055-1.224,1.968-2.531,2.736-3.924c0.768-1.392,1.404-2.903,1.908-4.536
				c0.504-1.631,0.9-3.456,1.188-5.473c-0.625-0.047-1.092-0.323-1.404-0.827c-0.313-0.504-0.468-1.056-0.468-1.656
				c0-0.6,0.167-1.14,0.504-1.62c0.335-0.479,0.839-0.72,1.512-0.72h0.432c0.24-2.399,0.384-5.052,0.432-7.956
				c0.047-2.904,0.072-6.156,0.072-9.756c0-1.008,0.288-1.764,0.864-2.268c0.576-0.504,1.224-0.756,1.944-0.756
				c0.72,0,1.368,0.252,1.944,0.756c0.576,0.504,0.864,1.26,0.864,2.268c0,3.553-0.024,6.78-0.072,9.684
				c-0.048,2.904-0.169,5.58-0.36,8.028h3.888V36.199c0-1.009,0.299-1.765,0.9-2.269c0.6-0.504,1.271-0.756,2.016-0.756
				c0.744,0,1.416,0.252,2.016,0.756c0.6,0.504,0.9,1.26,0.9,2.269v15.623c0,0.961-0.288,1.801-0.864,2.521
				c-0.576,0.72-1.296,1.079-2.16,1.079h-7.2c-0.336,2.401-0.816,4.572-1.44,6.517c-0.625,1.944-1.452,3.721-2.484,5.328
				c-1.033,1.607-2.28,3.107-3.744,4.5C247.376,73.158,245.612,74.501,243.549,75.798z M242.253,36.199
				c0-1.009,0.299-1.765,0.9-2.269c0.6-0.504,1.26-0.756,1.98-0.756c0.72,0,1.392,0.252,2.016,0.756
				c0.623,0.504,0.936,1.26,0.936,2.269v16.055c0,1.152-0.3,2.006-0.9,2.557c-0.601,0.553-1.272,0.828-2.016,0.828
				c-0.745,0-1.417-0.275-2.016-0.828c-0.601-0.551-0.9-1.404-0.9-2.557V36.199z M246.213,20.501
				c-0.241-0.623-0.444-1.175-0.612-1.655c-0.169-0.479-0.336-0.937-0.504-1.368c-0.169-0.432-0.373-0.888-0.612-1.368
				c-0.241-0.479-0.529-1.056-0.864-1.728c-0.241-0.479-0.288-0.9-0.144-1.26c0.144-0.36,0.371-0.648,0.684-0.864
				c0.312-0.216,0.684-0.324,1.116-0.324s0.816,0.144,1.152,0.433c0.576,0.528,1.08,0.984,1.512,1.367
				c0.432,0.385,0.828,0.769,1.188,1.152c0.36,0.385,0.708,0.792,1.044,1.224c0.335,0.433,0.72,0.937,1.152,1.513
				c0.72,1.008,0.936,1.932,0.648,2.771c-0.288,0.84-0.792,1.465-1.512,1.872c-0.72,0.408-1.512,0.504-2.376,0.288
				C247.221,22.337,246.597,21.654,246.213,20.501z M266.013,75.51c-0.288,0.384-0.661,0.6-1.116,0.647
				c-0.457,0.048-0.853-0.035-1.188-0.252c-0.336-0.216-0.565-0.539-0.684-0.972c-0.12-0.433-0.012-0.937,0.324-1.513
				c1.487-2.544,2.711-5.399,3.672-8.567c0.959-3.168,1.631-7.175,2.016-12.024c0.383-4.127,0.648-8.879,0.792-14.256
				c0.144-5.375,0.216-11.639,0.216-18.791c0-1.056,0.324-1.848,0.972-2.377c0.648-0.527,1.368-0.791,2.16-0.791
				s1.512,0.264,2.16,0.791c0.648,0.529,0.972,1.321,0.972,2.377c0,7.439-0.133,13.98-0.396,19.619
				c-0.265,5.641-0.709,10.62-1.332,14.94c-0.336,2.448-0.781,4.68-1.332,6.696c-0.552,2.016-1.188,3.877-1.908,5.58
				c-0.72,1.703-1.524,3.275-2.412,4.715C268.04,72.774,267.068,74.165,266.013,75.51z M279.837,52.253
				c-0.817,0-1.44-0.252-1.872-0.756s-0.648-1.043-0.648-1.619s0.216-1.116,0.648-1.62c0.432-0.505,1.055-0.757,1.872-0.757h2.952
				V35.91h-2.664c-0.817,0-1.44-0.252-1.872-0.756s-0.648-1.044-0.648-1.619c0-0.576,0.216-1.117,0.648-1.621
				c0.432-0.504,1.055-0.756,1.872-0.756h2.664v-6.912c0-0.814-0.144-1.463-0.432-1.943c-0.288-0.479-0.961-0.721-2.016-0.721
				c-0.816,0-1.44-0.252-1.872-0.756c-0.432-0.504-0.648-1.067-0.648-1.691c0-0.623,0.216-1.188,0.648-1.692
				c0.432-0.504,1.056-0.756,1.872-0.756h3.528c2.16,0,3.564,0.624,4.212,1.872s0.972,2.904,0.972,4.968V65.79
				c0,2.016-0.385,3.707-1.152,5.076c-0.768,1.367-1.848,2.65-3.24,3.852c-0.769,0.672-1.501,0.888-2.196,0.648
				c-0.696-0.241-0.997-0.793-0.9-1.656c0.096-0.961-0.277-1.934-1.116-2.916c-0.84-0.984-2.077-1.597-3.708-1.836
				c-0.528-0.098-0.9-0.324-1.116-0.685s-0.3-0.731-0.252-1.116c0.047-0.383,0.227-0.72,0.54-1.008
				c0.312-0.287,0.708-0.407,1.188-0.359c1.296,0.144,2.315,0.204,3.06,0.18c0.744-0.023,1.319-0.168,1.728-0.432
				c0.407-0.264,0.659-0.66,0.756-1.188c0.096-0.528,0.144-1.247,0.144-2.16v-9.937H279.837z"/>
			<path class="st0" d="M298.053,32.455c-0.336-0.336-0.504-0.744-0.504-1.225c0-0.479,0.132-0.888,0.396-1.225
				c0.263-0.334,0.624-0.575,1.08-0.719c0.456-0.145,0.947-0.072,1.476,0.215c2.448,1.346,4.572,2.582,6.372,3.709
				c1.8,1.128,3.348,2.293,4.644,3.492c0.671,0.576,1.067,1.213,1.188,1.907c0.119,0.696,0.072,1.356-0.144,1.98
				c-0.216,0.624-0.576,1.177-1.08,1.655c-0.504,0.48-1.08,0.805-1.728,0.973s-1.309,0.145-1.98-0.072
				c-0.673-0.216-1.296-0.73-1.872-1.548c-1.44-2.112-2.797-3.853-4.068-5.22C300.561,35.01,299.301,33.703,298.053,32.455z
				 M307.125,70.615c-0.72,1.728-1.668,2.783-2.844,3.168c-1.177,0.383-2.244,0.323-3.204-0.181
				c-0.961-0.504-1.656-1.308-2.088-2.412c-0.432-1.104-0.264-2.257,0.504-3.456c2.448-3.936,4.416-7.38,5.904-10.332
				c1.487-2.951,2.711-5.652,3.672-8.1c0.191-0.576,0.528-0.973,1.008-1.188c0.479-0.217,0.959-0.264,1.44-0.145
				c0.479,0.12,0.864,0.396,1.152,0.828s0.36,0.984,0.216,1.656c-0.672,3.553-1.44,6.936-2.304,10.151
				C309.717,63.822,308.565,67.158,307.125,70.615z M308.061,25.47c-0.673-0.911-1.296-1.739-1.872-2.484
				c-0.576-0.743-1.141-1.451-1.692-2.123c-0.553-0.672-1.141-1.344-1.764-2.017c-0.625-0.672-1.321-1.392-2.088-2.16
				c-0.432-0.384-0.648-0.815-0.648-1.296c0-0.479,0.144-0.9,0.432-1.26c0.288-0.36,0.684-0.6,1.188-0.721
				c0.504-0.119,1.044-0.035,1.62,0.252c1.248,0.674,2.352,1.297,3.312,1.873c0.96,0.575,1.847,1.115,2.664,1.619
				c0.816,0.504,1.572,1.021,2.268,1.549c0.695,0.528,1.428,1.104,2.196,1.728c0.768,0.624,1.235,1.296,1.404,2.017
				c0.167,0.719,0.144,1.403-0.072,2.051c-0.216,0.648-0.588,1.225-1.116,1.729c-0.529,0.504-1.116,0.84-1.764,1.008
				c-0.648,0.169-1.344,0.133-2.088-0.107C309.296,26.886,308.637,26.333,308.061,25.47z M318.069,20.07
				c0-1.296,0.372-2.268,1.116-2.916c0.744-0.648,1.571-0.972,2.484-0.972c0.911,0,1.739,0.337,2.484,1.008
				c0.744,0.673,1.116,1.681,1.116,3.024c0,7.344-0.156,13.668-0.468,18.972c-0.313,5.304-0.828,10.021-1.548,14.147
				c-0.72,4.129-1.692,7.873-2.916,11.232c-1.224,3.36-2.772,6.72-4.644,10.08c-0.385,0.672-0.864,1.068-1.44,1.188
				s-1.104,0.061-1.584-0.18c-0.48-0.24-0.828-0.648-1.044-1.224c-0.216-0.576-0.156-1.249,0.18-2.017
				c1.343-2.928,2.423-5.999,3.24-9.215c0.815-3.216,1.451-6.877,1.908-10.98c0.456-4.104,0.756-8.76,0.9-13.969
				C317.997,33.042,318.069,26.982,318.069,20.07z M324.549,72.342c-0.48,0.432-0.925,0.623-1.332,0.575
				c-0.408-0.048-0.745-0.215-1.008-0.504c-0.265-0.287-0.432-0.647-0.504-1.08c-0.072-0.432-0.013-0.791,0.18-1.08
				c1.487-2.111,2.783-4.091,3.888-5.939c1.104-1.848,2.135-3.947,3.096-6.3c0.479-1.104,1.175-1.765,2.088-1.979
				c0.911-0.217,1.739-0.119,2.484,0.287c0.744,0.408,1.271,1.08,1.584,2.016c0.312,0.937,0.083,2.006-0.684,3.205
				c-0.624,0.961-1.26,1.884-1.908,2.771c-0.648,0.889-1.357,1.764-2.124,2.628c-0.769,0.864-1.62,1.739-2.556,2.628
				C326.817,70.457,325.748,71.381,324.549,72.342z M359.829,21.15h-30.744c-0.817,0-1.417-0.252-1.8-0.756
				c-0.385-0.504-0.576-1.067-0.576-1.691s0.191-1.188,0.576-1.692c0.383-0.505,0.983-0.757,1.8-0.757h30.744
				c0.767,0,1.343,0.252,1.728,0.757c0.383,0.504,0.576,1.068,0.576,1.692s-0.192,1.188-0.576,1.691
				C361.172,20.898,360.596,21.15,359.829,21.15z M328.365,31.734c0-1.104,0.348-1.932,1.044-2.484
				c0.695-0.551,1.476-0.828,2.34-0.828c0.864,0,1.644,0.277,2.34,0.828c0.695,0.553,1.044,1.381,1.044,2.484v17.28
				c0,1.151-0.349,2.028-1.044,2.628c-0.696,0.601-1.476,0.9-2.34,0.9c-0.864,0-1.645-0.3-2.34-0.9
				c-0.697-0.6-1.044-1.477-1.044-2.628V31.734z M340.245,74.287c0.239-1.105-0.252-2.064-1.476-2.881s-2.7-1.416-4.428-1.8
				c-0.529-0.097-0.876-0.323-1.044-0.685c-0.168-0.359-0.216-0.719-0.144-1.079c0.072-0.36,0.252-0.685,0.54-0.972
				c0.288-0.289,0.648-0.408,1.08-0.36c1.487,0.144,2.652,0.192,3.492,0.144c0.839-0.047,1.463-0.252,1.872-0.611
				c0.408-0.36,0.66-0.9,0.756-1.621c0.096-0.719,0.144-1.703,0.144-2.951v-4.536c0-1.199,0.36-2.088,1.08-2.664
				c0.72-0.575,1.523-0.864,2.412-0.864c0.888,0,1.692,0.289,2.412,0.864c0.72,0.576,1.08,1.465,1.08,2.664v10.513
				c0,2.255-0.408,3.971-1.224,5.147c-0.817,1.175-1.704,2.124-2.664,2.844c-0.529,0.384-1.044,0.636-1.548,0.757
				c-0.504,0.119-0.948,0.107-1.332-0.037c-0.385-0.144-0.673-0.372-0.864-0.684C340.197,75.162,340.148,74.765,340.245,74.287z
				 M338.949,52.253c-0.768,0-1.344-0.238-1.728-0.719c-0.384-0.48-0.576-1.02-0.576-1.621c0-0.6,0.191-1.139,0.576-1.619
				c0.384-0.479,0.96-0.721,1.728-0.721h14.4V35.262c0-1.487-0.72-2.231-2.16-2.231h-12.24c-0.816,0-1.416-0.24-1.8-0.721
				c-0.385-0.479-0.576-1.02-0.576-1.62c0-0.6,0.191-1.14,0.576-1.62c0.384-0.479,0.983-0.72,1.8-0.72h0.936
				c0.191-0.479,0.372-1.008,0.54-1.584c0.168-0.576,0.372-1.199,0.612-1.872c0.335-1.296,0.959-2.1,1.872-2.412
				c0.911-0.312,1.764-0.312,2.556,0c0.792,0.313,1.392,0.9,1.8,1.764c0.407,0.864,0.275,1.825-0.396,2.881
				c-0.097,0.191-0.216,0.385-0.36,0.576s-0.336,0.408-0.576,0.647h8.424c2.063,0,3.539,0.504,4.428,1.513
				c0.887,1.008,1.332,2.52,1.332,4.535v12.744c0,1.296-0.409,2.473-1.224,3.527c-0.817,1.057-2.064,1.584-3.744,1.584H338.949z
				 M339.093,42.39c-0.768,0-1.344-0.24-1.728-0.721c-0.385-0.479-0.576-1.008-0.576-1.584c0-0.575,0.191-1.104,0.576-1.584
				c0.384-0.479,0.96-0.719,1.728-0.719h10.224c0.767,0,1.355,0.24,1.764,0.719c0.407,0.48,0.612,1.009,0.612,1.584
				c0,0.576-0.205,1.105-0.612,1.584c-0.409,0.48-0.997,0.721-1.764,0.721H339.093z M357.453,69.39
				c-0.576-1.248-1.105-2.352-1.584-3.313c-0.48-0.959-0.936-1.847-1.368-2.664c-0.432-0.814-0.853-1.571-1.26-2.268
				c-0.408-0.695-0.853-1.404-1.332-2.124c-0.241-0.384-0.313-0.779-0.216-1.188c0.096-0.406,0.312-0.743,0.648-1.008
				c0.335-0.263,0.72-0.406,1.152-0.432c0.432-0.023,0.839,0.156,1.224,0.54c1.968,1.825,3.552,3.36,4.752,4.608
				c1.199,1.248,2.279,2.473,3.24,3.672c0.911,1.104,1.248,2.172,1.008,3.203c-0.241,1.032-0.732,1.813-1.476,2.341
				c-0.745,0.527-1.596,0.731-2.556,0.612C358.724,71.249,357.98,70.589,357.453,69.39z"/>
		</g>
	</g>
	<g>
		<g>
			<path class="st0" d="M36.116,23.814L29.23,2.231c-0.538-1.686-2.341-2.617-4.027-2.079L2.295,7.462
				C0.609,8-0.322,9.803,0.216,11.489l6.886,21.583c-6.625,7.665-8.821,18.186-5.714,27.924
				c4.887,15.318,21.325,23.803,36.643,18.916c15.317-4.887,23.803-21.325,18.916-36.643C53.84,33.531,45.956,26.226,36.116,23.814z
				 M36.083,73.805c-11.951,3.813-24.776-2.807-28.589-14.758c-2.581-8.088-0.47-16.871,5.507-22.921
				c0.838-0.848,1.136-2.091,0.774-3.227L7.296,12.594l16.802-5.361l6.479,20.306c0.362,1.136,1.325,1.976,2.499,2.182
				c8.377,1.47,15.184,7.407,17.765,15.495C54.654,57.167,48.034,69.992,36.083,73.805z"/>
			<path class="st0" d="M33.568,50.227c-7.725,0.358-8.952-2.256-17.183-1.429c-1.443,0.145-3.1,0.396-4.861,0.766
				c-0.357,2.559-0.161,5.235,0.677,7.861c2.99,9.372,13.012,14.545,22.383,11.555c9.259-2.954,14.414-12.771,11.654-22.044
				C42.719,48.673,38.585,49.994,33.568,50.227z"/>
		</g>
	</g>
</g>
</svg>