<!-- Generator: Adobe Illustrator 24.1.3, SVG Export Plug-In  -->
<svg version="1.1" xmlns="http://www.w3.org/2000/svg" xmlns:xlink="http://www.w3.org/1999/xlink" x="0px" y="0px"
	 width="477.675px" height="93.196px" viewBox="0 0 477.675 93.196"
	 style="overflow:visible;enable-background:new 0 0 477.675 93.196;" xml:space="preserve">
<style type="text/css">
	.st0{fill:#BF2222;}
	.st1{fill:none;}
	.st2{font-family:'HYQingFenTi-W';}
	.st3{font-size:72px;}
</style>
<defs>
</defs>
<g>
	<g>
		<g>
			<path class="st0" d="M159.679,37.382H99.055c-0.817,0-1.417-0.264-1.8-0.793c-0.385-0.527-0.576-1.091-0.576-1.691
				c0-0.6,0.191-1.164,0.576-1.692c0.383-0.527,0.983-0.792,1.8-0.792h60.624c0.767,0,1.343,0.265,1.728,0.792
				c0.384,0.528,0.576,1.093,0.576,1.692c0,0.601-0.192,1.164-0.576,1.691C161.023,37.119,160.447,37.382,159.679,37.382z
				 M103.88,17.294c-0.769,0-1.345-0.252-1.728-0.756c-0.385-0.504-0.576-1.056-0.576-1.655s0.191-1.152,0.576-1.656
				c0.383-0.504,0.959-0.756,1.728-0.756h22.032c0.24-0.672,0.456-1.38,0.648-2.125c0.191-0.743,0.36-1.523,0.504-2.34
				c0.24-1.248,0.803-2.111,1.692-2.592c0.887-0.479,1.788-0.623,2.7-0.432c0.911,0.191,1.692,0.696,2.34,1.512
				c0.648,0.816,0.875,1.872,0.684,3.168c-0.144,1.008-0.36,1.943-0.648,2.809h21.024c0.864,0,1.523,0.252,1.98,0.756
				c0.456,0.504,0.684,1.057,0.684,1.656s-0.228,1.151-0.684,1.655c-0.457,0.504-1.116,0.756-1.98,0.756h-22.896
				c-0.96,1.632-2.196,3.121-3.708,4.464c-1.512,1.345-3.396,2.568-5.652,3.672c-2.257,1.105-4.932,2.113-8.028,3.024
				c-3.096,0.913-6.685,1.753-10.764,2.521c-0.673,0.144-1.224,0.048-1.656-0.289c-0.432-0.334-0.709-0.756-0.828-1.26
				c-0.121-0.504-0.097-0.995,0.072-1.476c0.168-0.479,0.516-0.767,1.044-0.864c2.688-0.576,5.112-1.163,7.272-1.764
				c2.16-0.6,4.104-1.271,5.832-2.016c1.728-0.744,3.24-1.607,4.536-2.592s2.423-2.125,3.384-3.421H103.88z M111.727,58.982
				c0,1.152-0.36,2.004-1.08,2.556c-0.72,0.552-1.524,0.828-2.412,0.828c-0.889,0-1.692-0.276-2.412-0.828
				c-0.72-0.552-1.08-1.403-1.08-2.556V46.238c0-1.055,0.36-1.859,1.08-2.412c0.72-0.551,1.523-0.828,2.412-0.828
				c0.888,0,1.692,0.277,2.412,0.828c0.72,0.553,1.08,1.357,1.08,2.412V58.982z M128.575,43.07c1.728,0,2.999,0.444,3.816,1.332
				c0.816,0.889,1.224,2.124,1.224,3.708v6.407c0,3.457-1.609,5.185-4.824,5.185h-12.744c-0.769,0-1.345-0.252-1.728-0.756
				c-0.385-0.505-0.576-1.056-0.576-1.656c0-0.6,0.191-1.151,0.576-1.655c0.383-0.504,0.959-0.757,1.728-0.757h10.656v-4.823
				c0-0.816-0.084-1.38-0.252-1.692c-0.169-0.312-0.66-0.468-1.476-0.468h-8.928c-0.769,0-1.345-0.252-1.728-0.756
				c-0.385-0.504-0.576-1.056-0.576-1.656c0-0.6,0.191-1.152,0.576-1.656c0.383-0.504,0.959-0.756,1.728-0.756H128.575z
				 M154.351,23.99c1.343,0.385,2.196,1.033,2.556,1.943c0.36,0.913,0.36,1.801,0,2.664c-0.36,0.864-1.021,1.525-1.98,1.98
				c-0.961,0.457-2.064,0.421-3.312-0.107c-1.681-0.721-3.276-1.393-4.788-2.017c-1.512-0.623-3.036-1.212-4.572-1.765
				c-1.537-0.551-3.132-1.09-4.788-1.619c-1.656-0.527-3.492-1.08-5.508-1.656c-0.672-0.191-1.116-0.504-1.332-0.936
				c-0.216-0.433-0.276-0.864-0.18-1.297c0.096-0.432,0.335-0.803,0.72-1.115c0.384-0.313,0.864-0.42,1.44-0.324
				c3.983,0.529,7.884,1.177,11.7,1.943C148.123,22.455,151.471,23.222,154.351,23.99z M151.76,58.694
				c0,2.592-0.288,4.583-0.864,5.976c-0.576,1.392-1.368,2.52-2.376,3.385c-1.152,0.959-2.172,1.295-3.06,1.008
				c-0.889-0.289-1.356-0.961-1.404-2.017c-0.048-0.96-0.648-1.668-1.8-2.124c-1.152-0.457-3.024-0.876-5.616-1.26
				c-0.576-0.097-0.997-0.324-1.26-0.684c-0.265-0.36-0.385-0.745-0.36-1.152c0.024-0.408,0.191-0.768,0.504-1.08
				c0.312-0.312,0.731-0.443,1.26-0.396c1.584,0.145,2.891,0.17,3.924,0.072c1.032-0.096,1.836-0.312,2.412-0.648
				c0.576-0.334,0.972-0.814,1.188-1.439c0.216-0.623,0.324-1.439,0.324-2.447V42.853c0-1.199,0.371-2.088,1.116-2.664
				c0.744-0.575,1.56-0.863,2.448-0.863c0.888,0,1.703,0.288,2.448,0.863c0.744,0.576,1.116,1.465,1.116,2.664V58.694z"/>
			<path class="st0" d="M175.736,19.886c-0.048,2.783-0.169,5.58-0.36,8.387c-0.192,2.809-0.48,5.413-0.864,7.813
				c-0.192,1.249-0.673,2.113-1.44,2.592c-0.769,0.48-1.548,0.648-2.34,0.504c-0.792-0.144-1.452-0.563-1.98-1.26
				c-0.528-0.695-0.624-1.596-0.288-2.699c0.671-2.256,1.296-4.704,1.872-7.345c0.576-2.64,1.056-5.327,1.44-8.063
				c0.095-0.623,0.36-1.08,0.792-1.368c0.432-0.288,0.887-0.42,1.368-0.396c0.479,0.023,0.9,0.191,1.26,0.504
				C175.555,18.867,175.736,19.31,175.736,19.886z M184.304,65.605c0,1.152-0.349,2.017-1.044,2.593
				c-0.696,0.575-1.453,0.864-2.268,0.864c-0.817,0-1.573-0.289-2.268-0.864c-0.696-0.576-1.044-1.44-1.044-2.593V7.429
				c0-1.199,0.348-2.075,1.044-2.627c0.695-0.552,1.451-0.816,2.268-0.793c0.815,0.025,1.572,0.337,2.268,0.937
				c0.695,0.601,1.044,1.476,1.044,2.628V65.605z M188.911,16.502c0.528,0.912,0.972,1.692,1.332,2.34
				c0.36,0.648,0.695,1.26,1.008,1.836c0.312,0.576,0.624,1.178,0.936,1.801c0.312,0.624,0.66,1.367,1.044,2.231
				c0.576,1.2,0.648,2.245,0.216,3.132c-0.432,0.889-1.057,1.512-1.872,1.873c-0.817,0.359-1.645,0.371-2.484,0.035
				c-0.84-0.335-1.357-1.127-1.548-2.376c-0.241-1.632-0.48-3.144-0.72-4.536c-0.241-1.392-0.576-2.928-1.008-4.607
				c-0.144-0.672-0.108-1.212,0.108-1.62c0.216-0.407,0.504-0.685,0.864-0.828s0.744-0.155,1.152-0.036
				C188.347,15.867,188.671,16.119,188.911,16.502z M231.535,33.638c-5.328-1.969-10.128-3.961-14.4-5.977
				c4.223-2.928,7.776-6.12,10.656-9.576c0.864-1.055,1.379-2.124,1.548-3.203c0.167-1.08,0.047-2.053-0.36-2.916
				c-0.408-0.865-1.056-1.572-1.944-2.125c-0.889-0.551-1.908-0.828-3.06-0.828h-28.512c-0.817,0-1.44,0.252-1.872,0.756
				c-0.432,0.504-0.648,1.057-0.648,1.656c0,0.602,0.216,1.152,0.648,1.656c0.432,0.504,1.055,0.756,1.872,0.756h24.192
				c0.671,0,1.127,0.229,1.368,0.684c0.24,0.457,0.144,0.926-0.288,1.404c-1.296,1.393-2.749,2.809-4.356,4.248
				c-1.609,1.44-3.373,2.905-5.292,4.393c-1.872-1.104-3.697-2.256-5.472-3.456c-1.776-1.2-3.553-2.521-5.328-3.96
				c-0.48-0.432-0.972-0.623-1.476-0.576c-0.504,0.049-0.912,0.216-1.224,0.504c-0.313,0.288-0.48,0.673-0.504,1.152
				c-0.024,0.48,0.18,0.961,0.612,1.439c1.392,1.537,2.832,2.977,4.32,4.32c1.487,1.344,3,2.617,4.536,3.816
				c-2.641,1.824-5.448,3.611-8.424,5.363c-2.977,1.753-6.12,3.42-9.432,5.004c-0.48,0.241-0.769,0.602-0.864,1.08
				c-0.097,0.48-0.036,0.936,0.18,1.368s0.563,0.756,1.044,0.972c0.479,0.217,1.055,0.18,1.728-0.107
				c3.935-1.729,7.62-3.42,11.052-5.076c3.432-1.656,6.635-3.348,9.612-5.076c2.448,1.584,5.063,3.108,7.848,4.572
				c2.783,1.465,5.832,2.965,9.144,4.5c1.104,0.529,2.124,0.564,3.06,0.107c0.936-0.455,1.608-1.115,2.016-1.979
				c0.407-0.864,0.492-1.775,0.252-2.735C233.527,34.838,232.783,34.119,231.535,33.638z M232.039,65.677h-41.328
				c-0.817,0-1.44-0.252-1.872-0.756c-0.432-0.504-0.648-1.057-0.648-1.656s0.216-1.151,0.648-1.655
				c0.432-0.505,1.055-0.757,1.872-0.757h17.064V49.982h-12.816c-0.816,0-1.416-0.252-1.8-0.756
				c-0.385-0.504-0.576-1.056-0.576-1.656c0-0.6,0.191-1.152,0.576-1.656c0.384-0.504,0.983-0.756,1.8-0.756h12.816v-5.616
				c0-1.199,0.371-2.088,1.116-2.664c0.744-0.575,1.572-0.864,2.484-0.864c0.912,0,1.739,0.301,2.484,0.9
				c0.744,0.601,1.116,1.477,1.116,2.628v5.616h12.888c0.767,0,1.355,0.252,1.764,0.756c0.408,0.504,0.612,1.057,0.612,1.656
				c0,0.601-0.192,1.152-0.576,1.656c-0.385,0.504-0.984,0.756-1.8,0.756h-12.888v10.871h17.064c0.768,0,1.368,0.252,1.8,0.757
				c0.432,0.504,0.648,1.056,0.648,1.655s-0.205,1.152-0.612,1.656C233.467,65.425,232.855,65.677,232.039,65.677z"/>
			<path class="st0" d="M244.783,19.526c0-1.2,0.36-2.089,1.08-2.664c0.72-0.576,1.512-0.864,2.376-0.864
				c0.864,0,1.656,0.288,2.376,0.864c0.72,0.575,1.08,1.464,1.08,2.664V63.95c0,1.247-0.36,2.171-1.08,2.772
				c-0.72,0.6-1.512,0.899-2.376,0.899c-0.864,0-1.656-0.3-2.376-0.899c-0.72-0.602-1.08-1.525-1.08-2.772V19.526z M253.999,40.226
				c-0.432-0.504-0.648-1.045-0.648-1.621c0-0.575,0.216-1.115,0.648-1.619c0.432-0.504,1.055-0.756,1.872-0.756h7.632V23.486
				c0-0.864-0.288-1.535-0.864-2.016s-1.321-0.721-2.232-0.721h-4.536c-0.768,0-1.344-0.227-1.728-0.684
				c-0.385-0.456-0.601-0.973-0.648-1.549c-0.048-0.576,0.083-1.115,0.396-1.619c0.312-0.504,0.803-0.804,1.476-0.9
				c0.191-1.344,0.348-2.747,0.468-4.212c0.12-1.464,0.204-2.556,0.252-3.276c0.047-1.343,0.491-2.304,1.332-2.879
				c0.839-0.576,1.716-0.793,2.628-0.648c0.911,0.144,1.68,0.624,2.304,1.439c0.624,0.816,0.768,1.92,0.432,3.313
				c-0.241,0.816-0.576,1.74-1.008,2.771c-0.432,1.033-0.984,2.173-1.656,3.42h3.816c2.4,0,4.068,0.612,5.004,1.836
				c0.936,1.225,1.404,2.7,1.404,4.428V57.47c0,1.68-0.444,3.023-1.332,4.031c-0.889,1.008-2.46,1.512-4.716,1.512h-8.424
				c-0.817,0-1.417-0.252-1.8-0.756c-0.385-0.504-0.576-1.055-0.576-1.656c0-0.6,0.191-1.151,0.576-1.655
				c0.383-0.505,0.983-0.757,1.8-0.757h7.632V40.982h-7.632C255.054,40.982,254.431,40.73,253.999,40.226z M271.928,30.433
				c0.191,0.504,0.492,0.865,0.9,1.08c0.407,0.217,0.864,0.277,1.368,0.181c0.504-0.096,0.972-0.456,1.404-1.08
				c2.016-3.024,3.816-6.252,5.4-9.685c1.584-3.431,2.88-7.308,3.888-11.627c0.288-1.297,0.108-2.352-0.54-3.168
				s-1.44-1.309-2.376-1.477s-1.861,0.025-2.772,0.576c-0.913,0.553-1.465,1.523-1.656,2.916c-0.672,4.129-1.476,7.884-2.412,11.268
				c-0.936,3.385-1.98,6.516-3.132,9.396C271.759,29.39,271.735,29.929,271.928,30.433z M280.243,38.605
				c-0.792-1.871-1.524-3.502-2.196-4.896c-0.192-0.432-0.216-0.852-0.072-1.26c0.144-0.407,0.384-0.743,0.72-1.009
				c0.335-0.263,0.731-0.396,1.188-0.396c0.456,0,0.9,0.216,1.332,0.648c3.312,3.36,5.951,6.552,7.92,9.575
				c0.72,1.105,0.875,2.16,0.468,3.168c-0.408,1.009-1.056,1.765-1.944,2.269c-0.889,0.504-1.836,0.647-2.844,0.433
				c-1.008-0.217-1.728-0.973-2.16-2.269C281.839,42.566,281.035,40.478,280.243,38.605z M291.763,68.63
				c-0.696-0.337-1.092-0.842-1.188-1.513c-0.144-0.864-0.468-1.548-0.972-2.052c-0.504-0.504-1.188-0.9-2.052-1.188
				c-0.864-0.288-1.897-0.504-3.096-0.647c-1.2-0.145-2.544-0.289-4.032-0.432c-0.529-0.049-0.925-0.277-1.188-0.685
				c-0.265-0.409-0.385-0.839-0.36-1.296c0.024-0.456,0.191-0.864,0.504-1.225c0.312-0.359,0.779-0.539,1.404-0.539
				c1.055,0.048,2.135,0.071,3.24,0.071c1.104,0,2.135-0.023,3.096-0.071c0.959-0.048,1.824-0.145,2.592-0.289
				c0.767-0.144,1.392-0.359,1.872-0.647c0.96-0.576,1.692-1.644,2.196-3.204c0.504-1.559,0.875-3.756,1.116-6.588
				c0.24-2.832,0.384-6.348,0.432-10.548c0.047-4.2,0.072-9.181,0.072-14.94c0-0.768-0.157-1.332-0.468-1.691
				c-0.313-0.36-0.9-0.541-1.764-0.541h-6.696c-0.769,0-1.344-0.252-1.728-0.756c-0.385-0.504-0.576-1.055-0.576-1.655
				c0-0.6,0.191-1.152,0.576-1.656c0.384-0.504,0.959-0.756,1.728-0.756h10.8c1.056,0,1.919,0.169,2.592,0.504
				c0.671,0.337,1.211,0.792,1.62,1.368c0.407,0.576,0.684,1.224,0.828,1.943c0.144,0.721,0.216,1.44,0.216,2.16
				c0,7.297-0.072,13.561-0.216,18.793s-0.504,9.672-1.08,13.319c-0.576,3.648-1.429,6.612-2.556,8.892
				c-1.128,2.279-2.653,4.092-4.572,5.437C293.24,68.821,292.459,68.964,291.763,68.63z"/>
			<path class="st0" d="M327.079,62.726c-0.576,1.008-1.249,1.68-2.016,2.016c-0.768,0.335-1.512,0.396-2.232,0.18
				c-0.72-0.216-1.321-0.672-1.8-1.367c-0.48-0.697-0.72-1.621-0.72-2.772V33.998c0-0.959-0.504-1.439-1.512-1.439h-4.104
				c-0.817,0-1.429-0.264-1.836-0.793c-0.409-0.527-0.612-1.104-0.612-1.728c0-0.623,0.216-1.199,0.648-1.728
				c0.432-0.527,1.055-0.793,1.872-0.793h8.208c1.199,0,2.16,0.422,2.88,1.261c0.72,0.841,1.08,1.86,1.08,3.06v22.104
				c0,0.289,0.096,0.529,0.288,0.721c0.191,0.192,0.432,0.169,0.72-0.072l4.248-3.24c0.479-0.239,0.947-0.287,1.404-0.144
				c0.456,0.144,0.792,0.421,1.008,0.828c0.216,0.408,0.276,0.864,0.18,1.368c-0.097,0.504-0.457,0.996-1.08,1.476
				c-1.104,0.817-2.257,1.944-3.456,3.384C329.047,59.702,327.991,61.19,327.079,62.726z M316.999,9.23
				c-0.336-0.479-0.457-0.96-0.36-1.44c0.096-0.479,0.299-0.864,0.612-1.151c0.312-0.289,0.72-0.456,1.224-0.504
				s0.996,0.144,1.476,0.575c2.304,1.969,4.127,3.625,5.472,4.968c1.343,1.345,2.472,2.545,3.384,3.601
				c0.624,0.72,0.959,1.452,1.008,2.196c0.047,0.744-0.097,1.428-0.432,2.052c-0.336,0.624-0.817,1.128-1.44,1.512
				c-0.625,0.385-1.296,0.601-2.016,0.647c-0.72,0.049-1.417-0.119-2.088-0.504c-0.673-0.383-1.224-1.055-1.656-2.016
				c-0.576-1.344-1.092-2.495-1.548-3.456c-0.457-0.96-0.889-1.812-1.296-2.556c-0.409-0.744-0.792-1.416-1.152-2.016
				C317.827,10.539,317.431,9.902,316.999,9.23z M375.895,47.605h-17.712v11.593h9.144v-5.688c0-1.104,0.335-1.932,1.008-2.483
				c0.672-0.552,1.428-0.828,2.268-0.828c0.839,0,1.595,0.276,2.268,0.828c0.672,0.552,1.008,1.38,1.008,2.483v11.592
				c0,0.721-0.241,1.32-0.72,1.801c-0.48,0.479-1.044,0.815-1.692,1.008c-0.648,0.191-1.309,0.191-1.98,0
				c-0.673-0.192-1.201-0.625-1.584-1.296c-0.72-1.152-1.453-1.908-2.196-2.269c-0.745-0.359-1.596-0.539-2.556-0.539H345.8
				c-0.673,0-1.188-0.241-1.548-0.721c-0.36-0.48-0.54-1.008-0.54-1.584s0.18-1.104,0.54-1.584c0.36-0.479,0.875-0.72,1.548-0.72
				h5.976V47.605h-17.928c-0.72,0-1.249-0.238-1.584-0.719c-0.336-0.48-0.504-1.02-0.504-1.621c0-0.6,0.167-1.139,0.504-1.619
				c0.335-0.479,0.864-0.721,1.584-0.721h17.928v-2.88c0-1.104,0.335-1.944,1.008-2.52c0.671-0.576,1.404-0.864,2.196-0.864
				s1.523,0.277,2.196,0.828c0.671,0.553,1.008,1.404,1.008,2.556v2.88h17.712c0.768,0,1.332,0.241,1.692,0.721
				c0.36,0.48,0.54,1.02,0.54,1.619c0,0.602-0.18,1.141-0.54,1.621C377.227,47.367,376.663,47.605,375.895,47.605z M369.703,6.134
				c1.152-0.336,2.088-0.229,2.808,0.323c0.72,0.553,1.152,1.236,1.296,2.052c0.144,0.816-0.072,1.621-0.648,2.412
				c-0.576,0.793-1.584,1.285-3.024,1.477c-2.16,0.287-4.464,0.553-6.912,0.791c-2.448,0.241-5.125,0.469-8.028,0.685
				c-2.905,0.216-6.061,0.409-9.468,0.576c-3.409,0.169-7.153,0.323-11.232,0.468c-0.432,0-0.781-0.168-1.044-0.504
				c-0.264-0.335-0.421-0.707-0.468-1.115c-0.049-0.408,0.023-0.793,0.216-1.152c0.191-0.36,0.504-0.564,0.936-0.612
				c3.983-0.288,7.776-0.647,11.376-1.08s6.936-0.899,10.008-1.403c3.071-0.505,5.808-1.009,8.208-1.513
				C366.127,7.034,368.119,6.566,369.703,6.134z M342.703,32.054c-0.529,1.199-1.224,2.424-2.088,3.672
				c-0.864,1.248-2.041,2.832-3.528,4.752c-0.385,0.528-0.841,0.816-1.368,0.863c-0.529,0.049-0.997-0.059-1.404-0.324
				c-0.409-0.263-0.697-0.658-0.864-1.188c-0.169-0.527-0.061-1.127,0.324-1.8c0.72-1.247,1.296-2.472,1.728-3.673
				c0.432-1.199,0.911-2.566,1.44-4.104c0.383-1.152,0.983-1.896,1.8-2.232c0.815-0.334,1.584-0.371,2.304-0.107
				c0.72,0.265,1.284,0.769,1.692,1.512C343.147,30.171,343.136,31.046,342.703,32.054z M342.127,64.958
				c0,1.009-0.336,1.775-1.008,2.304c-0.673,0.527-1.417,0.793-2.232,0.793c-0.817,0-1.561-0.266-2.232-0.793
				c-0.673-0.528-1.008-1.295-1.008-2.304V53.509c0-1.104,0.335-1.932,1.008-2.483c0.671-0.552,1.415-0.828,2.232-0.828
				c0.815,0,1.559,0.276,2.232,0.828c0.672,0.552,1.008,1.38,1.008,2.483V64.958z M339.176,16.502
				c1.343,1.393,2.412,2.52,3.204,3.385c0.792,0.863,1.451,1.632,1.98,2.303c0.72,0.961,0.923,1.873,0.612,2.736
				c-0.313,0.864-0.828,1.501-1.548,1.908c-0.72,0.408-1.501,0.504-2.34,0.288c-0.84-0.216-1.452-0.947-1.836-2.196
				c-0.529-1.584-0.984-2.867-1.368-3.852c-0.385-0.983-0.769-1.883-1.152-2.7c-0.192-0.384-0.228-0.756-0.108-1.116
				c0.119-0.359,0.312-0.647,0.576-0.863c0.263-0.217,0.587-0.324,0.972-0.324C338.551,16.07,338.887,16.214,339.176,16.502z
				 M371.431,35.654h-25.416c-0.72,0-1.249-0.24-1.584-0.721c-0.336-0.479-0.504-0.995-0.504-1.547s0.167-1.068,0.504-1.549
				c0.335-0.479,0.864-0.72,1.584-0.72h25.416c0.672,0,1.176,0.241,1.512,0.72c0.335,0.48,0.504,0.997,0.504,1.549
				s-0.169,1.068-0.504,1.547C372.607,35.414,372.103,35.654,371.431,35.654z M353.143,15.421c0.911,1.249,1.728,2.4,2.448,3.456
				c0.72,1.057,1.415,2.185,2.088,3.384c0.623,1.057,0.731,2.006,0.324,2.844c-0.409,0.841-0.984,1.44-1.728,1.801
				c-0.745,0.359-1.537,0.408-2.376,0.145c-0.841-0.264-1.38-0.996-1.62-2.197c-0.288-1.439-0.565-2.723-0.828-3.852
				c-0.264-1.127-0.612-2.436-1.044-3.924c-0.144-0.479-0.121-0.9,0.072-1.26c0.191-0.36,0.443-0.623,0.756-0.792
				c0.312-0.168,0.648-0.228,1.008-0.181C352.603,14.894,352.903,15.087,353.143,15.421z M363.656,25.429
				c0.432-1.151,0.828-2.375,1.188-3.672c0.36-1.296,0.78-2.927,1.26-4.896c0.288-1.152,0.839-1.884,1.656-2.196
				c0.815-0.312,1.607-0.324,2.376-0.035c0.767,0.287,1.368,0.852,1.8,1.691c0.432,0.84,0.36,1.836-0.216,2.988
				c-0.72,1.536-1.476,2.893-2.268,4.067c-0.792,1.177-1.74,2.412-2.844,3.708c-0.288,0.385-0.648,0.612-1.08,0.684
				c-0.432,0.072-0.817,0.025-1.152-0.144c-0.336-0.167-0.588-0.432-0.756-0.792C363.45,26.474,363.463,26.005,363.656,25.429z"/>
			<path class="st0" d="M446.167,19.166h-57.312c-0.864,0-1.512-0.264-1.944-0.792c-0.432-0.527-0.648-1.091-0.648-1.692
				c0-0.6,0.216-1.162,0.648-1.691c0.432-0.527,1.08-0.792,1.944-0.792h57.312c0.816,0,1.44,0.265,1.872,0.792
				c0.432,0.529,0.648,1.092,0.648,1.691c0,0.602-0.205,1.165-0.612,1.692C447.667,18.902,447.032,19.166,446.167,19.166z
				 M439.327,29.75h-43.56c-0.912,0-1.596-0.252-2.052-0.756c-0.457-0.504-0.684-1.068-0.684-1.691c0-0.624,0.227-1.188,0.684-1.692
				c0.456-0.505,1.14-0.757,2.052-0.757h43.56c0.864,0,1.523,0.252,1.98,0.757c0.456,0.504,0.684,1.068,0.684,1.692
				c0,0.623-0.216,1.188-0.648,1.691S440.239,29.75,439.327,29.75z M439.183,40.046h-43.272c-0.912,0-1.596-0.252-2.052-0.756
				c-0.457-0.504-0.684-1.067-0.684-1.692c0-0.623,0.227-1.188,0.684-1.691c0.456-0.504,1.14-0.756,2.052-0.756h43.272
				c0.864,0,1.523,0.252,1.98,0.756c0.456,0.504,0.684,1.068,0.684,1.691c0,0.625-0.216,1.188-0.648,1.692
				S440.095,40.046,439.183,40.046z M393.895,65.39c0,1.151,0.384,2.003,1.152,2.556c0.767,0.552,1.595,0.827,2.484,0.827
				c0.888,0,1.715-0.275,2.484-0.827c0.767-0.553,1.152-1.404,1.152-2.556V48.757c0-1.152-0.385-2.004-1.152-2.556
				c-0.769-0.552-1.596-0.828-2.484-0.828c-0.889,0-1.717,0.276-2.484,0.828c-0.769,0.552-1.152,1.403-1.152,2.556V65.39z
				 M434.647,67.694c0.432,0.575,0.996,0.923,1.692,1.044c0.695,0.119,1.368,0.072,2.016-0.145c0.648-0.216,1.199-0.624,1.656-1.224
				c0.456-0.601,0.684-1.332,0.684-2.196v-13.68c0-3.936-1.969-5.904-5.904-5.904h-29.664c-0.768,0-1.344,0.252-1.728,0.756
				c-0.385,0.504-0.576,1.069-0.576,1.692c0,0.624,0.191,1.188,0.576,1.692c0.383,0.504,0.959,0.756,1.728,0.756h26.208
				c0.768,0,1.308,0.145,1.62,0.432c0.312,0.288,0.468,0.792,0.468,1.512v7.416h-28.296c-0.768,0-1.344,0.252-1.728,0.756
				c-0.385,0.504-0.576,1.056-0.576,1.656c0,0.6,0.191,1.152,0.576,1.656c0.383,0.504,0.959,0.756,1.728,0.756h24.192
				c1.055,0,1.991,0.228,2.808,0.684C432.943,65.809,433.783,66.589,434.647,67.694z M415.136,3.542
				c1.968,1.249,3.719,2.473,5.256,3.673c1.055,0.912,1.5,1.848,1.332,2.807c-0.169,0.961-0.648,1.729-1.44,2.305
				s-1.717,0.84-2.772,0.792c-1.057-0.048-1.897-0.623-2.52-1.728c-1.057-1.873-2.113-3.624-3.168-5.256
				c-0.336-0.48-0.468-0.961-0.396-1.44c0.072-0.479,0.288-0.864,0.648-1.152s0.803-0.456,1.332-0.504
				C413.935,2.99,414.511,3.158,415.136,3.542z"/>
		</g>
	</g>
	<g>
		<g>
			<path class="st0" d="M74.12,60.786l-5.958-14.853c2.658-4.459,4.053-9.429,4.053-14.489C72.215,14.106,56.018,0,36.108,0
				S0,14.106,0,31.444c0,17.339,16.198,31.444,36.108,31.444c5.667,0,11.268-1.166,16.303-3.384l16.929,6.207
				c0.422,0.155,0.859,0.23,1.292,0.23c0.998,0,1.976-0.398,2.697-1.141C74.362,63.736,74.672,62.163,74.12,60.786z M60.468,46.933
				l3.538,8.821l-10.474-3.841c-0.418-0.154-0.856-0.23-1.293-0.23c-0.571,0-1.14,0.13-1.663,0.388
				c-4.38,2.162-9.383,3.304-14.469,3.304c-15.767,0-28.595-10.735-28.595-23.931c0-13.195,12.828-23.931,28.595-23.931
				c15.767,0,28.594,10.735,28.594,23.931c0,4.194-1.327,8.327-3.837,11.952C60.148,44.434,59.998,45.762,60.468,46.933z"/>
			<path class="st0" d="M22.014,27.026c-2.462,0-4.459,1.996-4.459,4.458c0,2.462,1.996,4.458,4.459,4.458
				c2.462,0,4.457-1.996,4.457-4.458C26.472,29.022,24.476,27.026,22.014,27.026z"/>
			<path class="st0" d="M36.108,27.026c-2.462,0-4.458,1.996-4.458,4.458c0,2.462,1.996,4.458,4.458,4.458
				c2.462,0,4.457-1.996,4.457-4.458C40.565,29.022,38.569,27.026,36.108,27.026z"/>
			<circle class="st0" cx="50.984" cy="31.484" r="4.458"/>
		</g>
	</g>
</g>
</svg>