<!-- Generator: Adobe Illustrator 24.1.3, SVG Export Plug-In  -->
<svg version="1.1" xmlns="http://www.w3.org/2000/svg" xmlns:xlink="http://www.w3.org/1999/xlink" x="0px" y="0px"
	 width="459.637px" height="98.445px" viewBox="0 0 459.637 98.445"
	 style="overflow:visible;enable-background:new 0 0 459.637 98.445;" xml:space="preserve">
<style type="text/css">
	.st0{fill:none;}
	.st1{fill:#BF2222;}
	.st2{font-family:'HYQingFenTi-W';}
	.st3{font-size:72px;}
</style>
<defs>
</defs>
<g>
	<g>
		<rect x="92.605" y="5.335" class="st0" width="367.032" height="93.11"/>
		<path class="st1" d="M101.738,19.519c-0.769,0-1.345-0.252-1.728-0.756c-0.385-0.504-0.576-1.055-0.576-1.656
			c0-0.6,0.191-1.152,0.576-1.656c0.383-0.504,0.959-0.756,1.728-0.756h60.696c0.767,0,1.343,0.252,1.728,0.756
			c0.384,0.504,0.576,1.056,0.576,1.656c0,0.601-0.192,1.152-0.576,1.656c-0.385,0.504-0.961,0.756-1.728,0.756H101.738z
			 M103.969,30.176c0-1.055,0.36-1.86,1.08-2.412c0.721-0.551,1.5-0.828,2.34-0.828s1.621,0.277,2.34,0.828
			c0.721,0.552,1.08,1.357,1.08,2.412v40.968c0,1.104-0.359,1.932-1.08,2.484c-0.719,0.551-1.5,0.828-2.34,0.828
			s-1.619-0.277-2.34-0.828c-0.72-0.552-1.08-1.38-1.08-2.484V30.176z M128.233,23.12c0.289-1.248,0.865-2.027,1.729-2.34
			c0.864-0.312,1.692-0.312,2.484,0c0.792,0.313,1.415,0.853,1.871,1.62c0.457,0.769,0.443,1.609-0.035,2.52
			c-0.24,0.385-0.457,0.732-0.648,1.044c-0.191,0.313-0.408,0.66-0.648,1.044h21.744c2.256,0,3.756,0.576,4.5,1.728
			c0.744,1.152,1.117,2.544,1.117,4.176v38.232c0,0.816-0.241,1.487-0.721,2.016c-0.48,0.528-1.044,0.9-1.691,1.116
			c-0.648,0.216-1.309,0.263-1.98,0.144c-0.673-0.12-1.177-0.444-1.512-0.972c-0.769-1.105-1.537-1.92-2.305-2.448
			c-0.768-0.529-1.704-0.792-2.808-0.792h-35.28c-0.672,0-1.164-0.252-1.476-0.756c-0.313-0.504-0.468-1.056-0.468-1.656
			c0-0.601,0.154-1.152,0.468-1.656c0.312-0.504,0.804-0.756,1.476-0.756h5.473V36.08c0-0.959,0.335-1.68,1.008-2.16
			c0.672-0.479,1.415-0.72,2.232-0.72c0.814,0,1.559,0.241,2.231,0.72c0.671,0.48,1.008,1.201,1.008,2.16v29.304h12.24V36.08
			c0-0.959,0.335-1.68,1.008-2.16c0.672-0.479,1.415-0.72,2.231-0.72s1.561,0.241,2.232,0.72c0.672,0.48,1.008,1.201,1.008,2.16
			v29.304h8.784V34.351c0-1.68-0.864-2.52-2.592-2.52h-36.72c-0.673,0-1.188-0.252-1.549-0.756
			c-0.359-0.504-0.539-1.055-0.539-1.656c0-0.6,0.168-1.152,0.504-1.656c0.335-0.504,0.863-0.756,1.584-0.756h13.031
			c0.191-0.624,0.36-1.248,0.504-1.872C127.873,24.512,128.041,23.84,128.233,23.12z M129.889,57.176
			c-0.768,0-1.344-0.24-1.728-0.72c-0.385-0.479-0.576-1.019-0.576-1.62c0-0.6,0.191-1.14,0.576-1.62
			c0.384-0.479,0.96-0.72,1.728-0.72h4.537c0.719,0,1.247,0.241,1.584,0.72c0.334,0.48,0.504,1.02,0.504,1.62
			c0,0.601-0.17,1.141-0.504,1.62c-0.337,0.48-0.865,0.72-1.584,0.72H129.889z M129.889,44.432c-0.72,0-1.248-0.24-1.584-0.72
			c-0.336-0.479-0.504-1.019-0.504-1.62c0-0.6,0.168-1.14,0.504-1.62c0.336-0.479,0.864-0.72,1.584-0.72h4.537
			c0.671,0,1.175,0.241,1.512,0.72c0.335,0.48,0.504,1.021,0.504,1.62c0,0.601-0.169,1.141-0.504,1.62
			c-0.337,0.48-0.841,0.72-1.512,0.72H129.889z"/>
		<path class="st1" d="M182.738,70.64c0,1.152-0.372,2.003-1.116,2.556c-0.744,0.551-1.572,0.828-2.484,0.828
			s-1.74-0.276-2.483-0.828c-0.745-0.553-1.116-1.404-1.116-2.556V21.464c0-1.152,0.371-2.004,1.116-2.556
			c0.743-0.551,1.571-0.816,2.483-0.792c0.912,0.025,1.74,0.324,2.484,0.9s1.116,1.44,1.116,2.592V70.64z M187.633,23.191
			c-0.768,0-1.356-0.252-1.764-0.756c-0.408-0.504-0.611-1.067-0.611-1.692c0-0.623,0.19-1.188,0.575-1.692
			c0.384-0.504,0.983-0.756,1.8-0.756h6.12c0.335-0.72,0.624-1.368,0.864-1.944c0.24-0.576,0.455-1.116,0.648-1.62
			c0.191-0.504,0.371-1.008,0.539-1.512s0.348-1.044,0.541-1.62c0.334-1.248,0.995-2.04,1.979-2.376
			c0.983-0.335,1.919-0.335,2.808,0c0.888,0.336,1.549,0.936,1.98,1.8c0.432,0.864,0.312,1.897-0.36,3.096
			c-0.528,0.961-1.021,1.764-1.476,2.412c-0.457,0.648-0.9,1.236-1.332,1.764h26.783c2.064,0,3.576,0.565,4.537,1.692
			c0.959,1.128,1.439,2.653,1.439,4.572v40.824c0,3.888-1.969,6.863-5.904,8.928c-0.624,0.335-1.2,0.42-1.728,0.252
			c-0.528-0.168-0.841-0.637-0.937-1.404c-0.096-0.769-0.264-1.429-0.504-1.98c-0.24-0.552-0.637-1.021-1.188-1.404
			c-0.553-0.385-1.297-0.709-2.232-0.972c-0.936-0.265-2.172-0.468-3.708-0.612c-0.624-0.048-1.068-0.276-1.332-0.684
			c-0.265-0.409-0.372-0.828-0.323-1.26c0.047-0.432,0.227-0.815,0.539-1.152c0.313-0.335,0.756-0.504,1.332-0.504
			c1.824,0.048,3.313,0.024,4.465-0.072c1.151-0.096,2.052-0.324,2.699-0.684c0.648-0.36,1.08-0.9,1.297-1.62
			c0.215-0.72,0.323-1.68,0.323-2.88V26.647c0-2.304-1.2-3.456-3.6-3.456H187.633z M190.801,36.656c0-1.055,0.371-1.86,1.116-2.412
			c0.743-0.551,1.56-0.828,2.448-0.828c0.888,0,1.703,0.277,2.447,0.828c0.744,0.552,1.117,1.357,1.117,2.412v19.8
			c0,1.152-0.373,2.028-1.117,2.628c-0.744,0.601-1.56,0.9-2.447,0.9c-0.889,0-1.705-0.299-2.448-0.9
			c-0.745-0.6-1.116-1.476-1.116-2.628V36.656z M210.745,33.632c2.351,0,4.007,0.54,4.968,1.62c0.96,1.08,1.44,2.581,1.44,4.5
			v14.112c0,1.537-0.517,2.628-1.548,3.276c-1.033,0.648-2.484,0.972-4.356,0.972h-9.216c-0.816,0-1.439-0.252-1.872-0.756
			c-0.433-0.504-0.647-1.067-0.647-1.692c0-0.623,0.215-1.188,0.647-1.692s1.056-0.756,1.872-0.756h7.992V40.76
			c0-0.768-0.156-1.343-0.469-1.728c-0.313-0.384-0.876-0.576-1.691-0.576h-5.832c-0.816,0-1.439-0.252-1.872-0.756
			s-0.647-1.055-0.647-1.656c0-0.6,0.215-1.152,0.647-1.656s1.056-0.756,1.872-0.756H210.745z"/>
		<path class="st1" d="M247.537,24.776c0-1.2,0.359-2.088,1.08-2.664c0.72-0.576,1.512-0.864,2.376-0.864s1.655,0.288,2.376,0.864
			c0.72,0.576,1.08,1.464,1.08,2.664V69.2c0,1.248-0.36,2.171-1.08,2.772c-0.721,0.6-1.512,0.9-2.376,0.9s-1.656-0.3-2.376-0.9
			c-0.721-0.601-1.08-1.524-1.08-2.772V24.776z M256.753,45.475c-0.432-0.504-0.647-1.044-0.647-1.62
			c0-0.576,0.216-1.116,0.647-1.62c0.433-0.504,1.056-0.756,1.872-0.756h7.633V28.736c0-0.864-0.289-1.536-0.865-2.016
			c-0.576-0.479-1.32-0.72-2.231-0.72h-4.536c-0.768,0-1.344-0.227-1.729-0.684c-0.385-0.456-0.6-0.972-0.647-1.548
			s0.083-1.116,0.396-1.62c0.313-0.504,0.804-0.803,1.477-0.9c0.191-1.343,0.348-2.747,0.468-4.212
			c0.12-1.464,0.204-2.556,0.253-3.276c0.047-1.343,0.49-2.304,1.331-2.88c0.839-0.576,1.716-0.792,2.628-0.648
			s1.68,0.625,2.305,1.44c0.623,0.816,0.768,1.92,0.432,3.312c-0.24,0.816-0.576,1.74-1.008,2.772
			c-0.432,1.033-0.984,2.172-1.656,3.42h3.816c2.399,0,4.068,0.612,5.004,1.836s1.404,2.7,1.404,4.428v35.28
			c0,1.681-0.445,3.024-1.332,4.032c-0.889,1.008-2.461,1.512-4.717,1.512h-8.424c-0.816,0-1.416-0.252-1.8-0.756
			c-0.385-0.504-0.576-1.055-0.576-1.656c0-0.6,0.191-1.152,0.576-1.656c0.384-0.504,0.983-0.756,1.8-0.756h7.633V46.231h-7.633
			C257.809,46.231,257.186,45.979,256.753,45.475z M274.682,35.684c0.191,0.504,0.491,0.864,0.899,1.08
			c0.407,0.216,0.864,0.277,1.368,0.18c0.504-0.096,0.972-0.456,1.404-1.08c2.016-3.024,3.815-6.252,5.399-9.684
			c1.584-3.431,2.88-7.308,3.888-11.628c0.289-1.296,0.108-2.352-0.539-3.168c-0.648-0.816-1.44-1.308-2.377-1.476
			c-0.936-0.167-1.86,0.025-2.771,0.576c-0.912,0.552-1.465,1.524-1.656,2.916c-0.672,4.129-1.476,7.884-2.412,11.268
			c-0.936,3.384-1.979,6.516-3.132,9.396C274.512,34.64,274.489,35.18,274.682,35.684z M282.997,43.855
			c-0.792-1.872-1.524-3.503-2.196-4.896c-0.191-0.432-0.216-0.852-0.072-1.26c0.145-0.407,0.385-0.744,0.721-1.008
			c0.335-0.263,0.73-0.396,1.188-0.396c0.456,0,0.9,0.216,1.332,0.648c3.313,3.36,5.951,6.552,7.92,9.576
			c0.721,1.105,0.875,2.16,0.469,3.168c-0.408,1.008-1.057,1.764-1.944,2.268c-0.889,0.504-1.836,0.648-2.844,0.432
			c-1.009-0.216-1.728-0.972-2.16-2.268C284.592,47.815,283.789,45.727,282.997,43.855z M294.518,73.88
			c-0.697-0.336-1.093-0.841-1.188-1.512c-0.144-0.864-0.468-1.548-0.972-2.052c-0.504-0.504-1.188-0.9-2.053-1.188
			c-0.863-0.288-1.896-0.504-3.096-0.648c-1.2-0.144-2.545-0.288-4.031-0.432c-0.529-0.048-0.926-0.277-1.188-0.684
			c-0.265-0.409-0.385-0.839-0.36-1.296c0.023-0.456,0.191-0.864,0.504-1.224s0.779-0.54,1.404-0.54
			c1.055,0.048,2.135,0.072,3.24,0.072c1.104,0,2.135-0.023,3.096-0.072c0.959-0.047,1.824-0.144,2.592-0.288
			c0.768-0.144,1.393-0.36,1.872-0.648c0.96-0.576,1.692-1.644,2.196-3.204c0.504-1.559,0.875-3.755,1.115-6.588
			c0.24-2.832,0.385-6.347,0.433-10.548c0.048-4.2,0.072-9.18,0.072-14.94c0-0.767-0.157-1.332-0.468-1.692
			c-0.313-0.36-0.9-0.54-1.765-0.54h-6.696c-0.768,0-1.344-0.252-1.728-0.756c-0.385-0.504-0.576-1.055-0.576-1.656
			c0-0.6,0.191-1.152,0.576-1.656c0.384-0.504,0.96-0.756,1.728-0.756h10.801c1.055,0,1.919,0.168,2.592,0.504
			c0.672,0.336,1.211,0.792,1.62,1.368c0.407,0.576,0.684,1.224,0.827,1.944c0.145,0.72,0.217,1.44,0.217,2.16
			c0,7.296-0.072,13.561-0.217,18.792c-0.144,5.232-0.504,9.672-1.08,13.32c-0.575,3.648-1.428,6.613-2.555,8.892
			c-1.129,2.279-2.653,4.091-4.572,5.436C295.993,74.071,295.213,74.215,294.518,73.88z"/>
		<path class="st1" d="M344.161,15.271c0-1.296,0.384-2.268,1.151-2.916s1.596-0.972,2.484-0.972c0.888,0,1.716,0.324,2.484,0.972
			c0.768,0.648,1.152,1.62,1.152,2.916c0,4.944-0.229,9.457-0.685,13.536c-0.456,4.081-1.2,7.837-2.231,11.268
			c-1.033,3.432-2.377,6.6-4.033,9.504c-1.655,2.905-3.647,5.665-5.975,8.28c-2.33,2.617-5.041,5.148-8.137,7.596
			c-3.096,2.448-6.613,4.896-10.548,7.344c-0.769,0.479-1.465,0.635-2.088,0.468c-0.624-0.168-1.104-0.504-1.44-1.008
			s-0.48-1.057-0.432-1.656c0.047-0.601,0.359-1.092,0.936-1.476c5.231-3.407,9.612-6.899,13.141-10.476
			c3.527-3.576,6.336-7.476,8.424-11.7c2.088-4.223,3.575-8.916,4.464-14.076C343.717,27.716,344.161,21.849,344.161,15.271z
			 M378.938,65.744c1.151,0.72,1.751,1.656,1.8,2.808c0.047,1.152-0.253,2.184-0.9,3.096c-0.647,0.912-1.56,1.523-2.735,1.836
			c-1.178,0.312-2.389-0.036-3.637-1.044c-2.304-1.776-4.549-3.769-6.732-5.976c-2.184-2.208-4.271-4.511-6.264-6.912
			c-1.992-2.4-3.888-4.884-5.688-7.452c-1.801-2.567-3.492-5.123-5.076-7.668c-0.336-0.576-0.421-1.116-0.252-1.62
			c0.168-0.504,0.455-0.9,0.863-1.188s0.876-0.407,1.404-0.36c0.527,0.048,1.008,0.336,1.44,0.864
			c2.112,2.736,4.128,5.184,6.048,7.344s3.889,4.165,5.904,6.012c2.016,1.848,4.14,3.6,6.371,5.256
			C373.717,62.395,376.201,64.064,378.938,65.744z"/>
		<path class="st1" d="M397.549,21.284c0.695-0.504,1.451-0.744,2.268-0.72c0.816,0.025,1.572,0.288,2.269,0.792
			c0.695,0.504,1.044,1.188,1.044,2.052c0,0.529-0.012,1.021-0.035,1.476c-0.025,0.457-0.037,0.925-0.037,1.404h7.92V20.24
			c0-0.384-0.133-0.695-0.396-0.936c-0.265-0.24-0.589-0.36-0.972-0.36h-17.496c-0.816,0-1.429-0.24-1.836-0.72
			c-0.408-0.479-0.602-1.008-0.576-1.584c0.023-0.576,0.24-1.104,0.648-1.584c0.406-0.479,0.995-0.72,1.764-0.72h21.023
			c1.632,0,2.796,0.504,3.492,1.512c0.695,1.008,1.044,2.136,1.044,3.384v7.056h2.304c0.768,0,1.355,0.241,1.765,0.72
			c0.407,0.48,0.612,1.02,0.612,1.62c0,0.601-0.205,1.141-0.612,1.62c-0.409,0.48-0.997,0.72-1.765,0.72h-2.304v8.496
			c0,1.008-0.36,1.848-1.079,2.52c-0.721,0.672-1.561,1.008-2.521,1.008h-12.96c-0.673,2.496-1.633,4.824-2.881,6.984
			c0.576,0.241,1.068,0.637,1.477,1.188c0.407,0.552,0.612,1.236,0.612,2.052v17.136c0,1.152-0.36,2.027-1.08,2.628
			c-0.72,0.6-1.501,0.9-2.341,0.9s-1.619-0.301-2.34-0.9c-0.719-0.601-1.08-1.476-1.08-2.628v-13.68l-2.879,3.168
			c-0.576,0.624-1.129,0.936-1.656,0.936c-0.529,0-0.973-0.155-1.332-0.468c-0.36-0.312-0.576-0.731-0.648-1.26
			c-0.072-0.528,0.061-1.008,0.396-1.44c1.967-2.399,3.564-4.727,4.787-6.984c1.225-2.255,2.172-4.799,2.845-7.632h-2.88
			c-0.816,0-1.429-0.24-1.836-0.72c-0.408-0.479-0.612-1.019-0.612-1.62c0-0.6,0.204-1.14,0.612-1.62
			c0.407-0.479,1.02-0.72,1.836-0.72h3.672c0.145-1.104,0.264-2.255,0.359-3.456c0.096-1.199,0.168-2.495,0.217-3.888h-6.912
			c-0.769,0-1.345-0.24-1.729-0.72c-0.385-0.479-0.576-1.019-0.576-1.62c0-0.6,0.191-1.14,0.576-1.62
			c0.384-0.479,0.96-0.72,1.729-0.72h7.056v-2.664C396.505,22.568,396.853,21.788,397.549,21.284z M407.45,70.063h-3.385
			c-0.719,0-1.271-0.252-1.655-0.756c-0.385-0.504-0.576-1.044-0.576-1.62c0-0.576,0.191-1.116,0.576-1.62
			c0.384-0.504,0.937-0.756,1.655-0.756h7.561v-9.72c0-0.624-0.18-1.02-0.54-1.188c-0.36-0.168-0.899-0.252-1.62-0.252h-5.4
			c-0.719,0-1.271-0.252-1.655-0.756c-0.385-0.504-0.576-1.044-0.576-1.62c0-0.576,0.191-1.116,0.576-1.62
			c0.384-0.504,0.937-0.756,1.655-0.756h8.641c1.968,0,3.408,0.468,4.32,1.404c0.911,0.936,1.367,2.244,1.367,3.924v16.128
			c0,0.768-0.229,1.404-0.684,1.908c-0.457,0.504-1.008,0.864-1.656,1.08c-0.647,0.216-1.32,0.263-2.016,0.144
			c-0.696-0.121-1.26-0.421-1.691-0.9C410.617,71.072,408.985,70.063,407.45,70.063z M410.977,38.311v-7.344h-8.063
			c-0.097,1.393-0.204,2.688-0.324,3.888c-0.12,1.201-0.276,2.353-0.468,3.456H410.977z M438.805,73.556
			c-0.744,0.648-1.547,0.972-2.412,0.972c-0.863,0-1.668-0.324-2.412-0.972s-1.115-1.62-1.115-2.916V57.607h-10.801
			c-0.816,0-1.416-0.252-1.799-0.756c-0.385-0.504-0.576-1.067-0.576-1.692c0-0.623,0.191-1.188,0.576-1.692
			c0.383-0.504,0.982-0.756,1.799-0.756h10.801v-11.16h-7.561c-0.816,0-1.416-0.252-1.8-0.756c-0.385-0.504-0.575-1.044-0.575-1.62
			c0-0.576,0.19-1.116,0.575-1.62c0.384-0.504,0.983-0.756,1.8-0.756h7.561v-3.888c0-1.199,0.371-2.099,1.115-2.7
			c0.744-0.6,1.549-0.9,2.412-0.9c0.865,0,1.668,0.3,2.412,0.9c0.744,0.601,1.116,1.501,1.116,2.7V36.8h7.56
			c0.768,0,1.356,0.252,1.765,0.756c0.407,0.504,0.612,1.044,0.612,1.62c0,0.576-0.205,1.116-0.612,1.62
			c-0.408,0.504-0.997,0.756-1.765,0.756h-7.56v11.16h10.8c0.768,0,1.355,0.252,1.764,0.756s0.613,1.069,0.613,1.692
			c0,0.625-0.205,1.188-0.613,1.692s-0.996,0.756-1.764,0.756h-10.8V70.64C439.921,71.935,439.549,72.908,438.805,73.556z
			 M424.01,27.008c-0.817,0-1.417-0.252-1.801-0.756c-0.385-0.504-0.576-1.055-0.576-1.656c0-0.6,0.191-1.152,0.576-1.656
			c0.384-0.504,0.983-0.756,1.801-0.756h24.768c0.768,0,1.355,0.252,1.764,0.756c0.407,0.504,0.612,1.057,0.612,1.656
			c0,0.601-0.205,1.152-0.612,1.656c-0.408,0.504-0.996,0.756-1.764,0.756H424.01z M424.262,9.548
			c-0.409,0.072-0.757,0.241-1.045,0.504c-0.287,0.264-0.468,0.601-0.539,1.008c-0.072,0.409,0.035,0.828,0.323,1.26
			c0.528,0.816,1.067,1.692,1.62,2.628c0.551,0.936,1.235,2.172,2.052,3.708c0.72,1.344,1.596,2.077,2.628,2.196
			c1.031,0.121,1.932-0.119,2.7-0.72c0.768-0.6,1.235-1.404,1.404-2.412c0.167-1.008-0.252-1.991-1.261-2.952
			c-0.432-0.384-0.852-0.756-1.26-1.116c-0.408-0.36-0.863-0.72-1.367-1.08c-0.504-0.36-1.08-0.768-1.729-1.224
			c-0.648-0.456-1.429-0.972-2.34-1.548C425.065,9.56,424.668,9.475,424.262,9.548z M438.661,19.627
			c0.071,0.409,0.252,0.745,0.54,1.008c0.288,0.264,0.659,0.42,1.115,0.468c0.457,0.048,0.947-0.096,1.477-0.432
			c1.535-1.056,2.748-1.932,3.637-2.628c0.887-0.695,1.691-1.379,2.412-2.052c0.863-0.816,1.367-1.62,1.512-2.412
			c0.144-0.792,0.072-1.487-0.217-2.088c-0.287-0.6-0.756-1.091-1.404-1.476c-0.647-0.384-1.32-0.587-2.016-0.612
			c-0.696-0.024-1.367,0.144-2.016,0.504s-1.141,0.997-1.477,1.908c-0.385,1.008-0.899,2.124-1.547,3.348
			c-0.648,1.224-1.236,2.293-1.765,3.204C438.672,18.8,438.589,19.22,438.661,19.627z"/>
	</g>
	<g>
		<g>
			<path class="st1" d="M40.839,0C18.32,0,0,18.32,0,40.839c0,22.519,18.32,40.839,40.839,40.839s40.839-18.32,40.839-40.839
				C81.677,18.32,63.357,0,40.839,0z M40.839,74.27c-18.434,0-33.431-14.998-33.431-33.432c0-18.434,14.997-33.431,33.431-33.431
				S74.27,22.405,74.27,40.839C74.27,59.273,59.273,74.27,40.839,74.27z"/>
			<path class="st1" d="M60.783,33.354H47.639c-0.624,0-1.176-0.402-1.369-0.995l-4.062-12.501c-0.431-1.327-2.307-1.327-2.739,0
				l-4.062,12.501c-0.193,0.593-0.745,0.995-1.369,0.995H20.894c-1.395,0-1.975,1.785-0.846,2.604l10.634,7.726
				c0.505,0.367,0.716,1.017,0.523,1.61l-4.062,12.501c-0.431,1.327,1.087,2.429,2.216,1.61l10.634-7.726
				c0.505-0.367,1.188-0.367,1.693,0l10.634,7.726c1.128,0.82,2.646-0.283,2.216-1.61l-4.062-12.501
				c-0.193-0.593,0.018-1.243,0.523-1.61l10.634-7.726C62.758,35.139,62.178,33.354,60.783,33.354z"/>
		</g>
	</g>
</g>
</svg>