<!-- Generator: Adobe Illustrator 24.1.3, SVG Export Plug-In  -->
<svg version="1.1" xmlns="http://www.w3.org/2000/svg" xmlns:xlink="http://www.w3.org/1999/xlink" x="0px" y="0px"
	 width="391.555px" height="243.845px" viewBox="0 0 391.555 243.845"
	 style="overflow:visible;enable-background:new 0 0 391.555 243.845;" xml:space="preserve">
<style type="text/css">
	.st0{fill:#FFE291;stroke:#1C3B94;stroke-width:2;stroke-linecap:round;stroke-linejoin:round;stroke-miterlimit:10;}
	.st1{fill:#1C3B94;}
	.st2{fill:#BF2222;}
	.st3{fill:#FFFFFF;stroke:#1C3B94;stroke-width:2;stroke-linecap:round;stroke-linejoin:round;stroke-miterlimit:10;}
	.st4{fill:#FFFFFF;stroke:#1C3B94;stroke-width:2;stroke-miterlimit:10;}
	.st5{fill:none;stroke:#1C3B94;stroke-width:2;stroke-linecap:round;stroke-linejoin:round;stroke-miterlimit:10;}
	.st6{fill:none;}
	.st7{font-family:'FZLANTY_ZHUNK--GBK1-0';}
	.st8{font-size:28.8559px;}
	.st9{letter-spacing:1;}
	.st10{font-size:19px;}
	.st11{font-size:17.3135px;}
	.st12{font-size:21px;}
</style>
<defs>
</defs>
<g>
	<polygon class="st0" points="268.568,16.947 268.568,49.339 268.568,65.85 390.555,65.85 390.555,49.339 390.555,16.947 	"/>
	<g>
		<g>
			<path class="st1" d="M280.821,31.369v5.974c1.277-0.601,2.48-0.902,3.607-0.902c4.433,0.225,6.725,2.592,6.876,7.101
				c-0.151,5.486-2.669,8.303-7.553,8.454c-3.308-0.076-5.522-1.691-6.65-4.847c-0.225-0.976,0.074-1.578,0.902-1.803
				c0.676-0.299,1.201,0,1.578,0.902c0.75,2.104,2.142,3.195,4.17,3.269c3.156-0.15,4.809-2.142,4.96-5.974
				c-0.151-2.855-1.617-4.396-4.396-4.622c-0.901,0-1.879,0.264-2.931,0.789c-0.602,0.226-1.09,0.377-1.465,0.451
				c-1.054,0-1.578-0.676-1.578-2.029V30.58c-0.076-1.127,0.524-1.691,1.804-1.691h8.792c1.052-0.074,1.539,0.377,1.465,1.353
				c0.074,0.752-0.377,1.127-1.353,1.127H280.821z"/>
		</g>
	</g>
	<g>
		<g>
			<path class="st2" d="M151.423,31.325c-0.497-0.049-0.77-0.297-0.818-0.742v-2.969c0.049-0.594,0.372-0.915,0.967-0.965h5.879
				c0.099-0.346,0.173-0.841,0.223-1.484c0.049-0.197,0.074-0.321,0.074-0.371c0.149-0.544,0.472-0.816,0.968-0.816
				c0.645,0.05,0.917,0.371,0.818,0.965c0,0.05,0,0.124,0,0.223c-0.05,0.396-0.148,0.891-0.298,1.484h6.251
				c0.595,0.05,0.917,0.371,0.967,0.965v2.375c-0.05,0.495-0.323,0.768-0.818,0.816c-0.546-0.049-0.844-0.321-0.893-0.816v-1.336
				c-0.05-0.247-0.175-0.396-0.372-0.445h-5.507c-0.05,0.297-0.124,0.545-0.223,0.742c0.495,1.881,1.19,3.488,2.083,4.824
				c0.843-0.544,1.983-1.311,3.423-2.301c0.447-0.297,0.868-0.271,1.266,0.074c0.297,0.495,0.247,0.916-0.149,1.262
				c-1.24,0.792-2.431,1.559-3.571,2.301c1.289,1.484,3.075,2.746,5.357,3.785c0.446,0.297,0.569,0.742,0.372,1.336
				c-0.397,0.445-0.868,0.52-1.414,0.223c-4.267-2.127-7.044-5.22-8.334-9.277c-0.646,1.188-1.24,2.054-1.785,2.598v5.566
				c0.049,0.248,0.223,0.322,0.521,0.223c0.991-0.346,1.983-0.742,2.977-1.188c0.495-0.148,0.867,0.025,1.116,0.52
				c0.148,0.545-0.074,0.939-0.67,1.188c-0.298,0.099-0.794,0.297-1.488,0.594c-0.993,0.396-1.712,0.668-2.158,0.816
				c-0.844,0.346-1.413,0.346-1.711,0c-0.199-0.297-0.298-0.891-0.298-1.781v-4.156c-1.092,1.039-2.282,1.955-3.571,2.746
				c-0.447,0.297-0.869,0.198-1.266-0.297c-0.198-0.494-0.1-0.915,0.298-1.262c3.869-2.325,6.325-5.17,7.366-8.535h-4.241
				c-0.249,0.05-0.397,0.198-0.446,0.445v1.93C152.266,31.028,151.968,31.276,151.423,31.325z"/>
			<path class="st2" d="M171.736,41.938c-0.547,0.148-0.968,0.123-1.265-0.074c-0.249-0.198-0.372-0.594-0.372-1.188V25.981
				c0-0.692,0.346-1.039,1.041-1.039h12.874c0.644,0,0.967,0.322,0.967,0.965v4.008c-0.05,0.644-0.372,0.99-0.967,1.039h-4.539
				c0.049,0.198,0.074,0.471,0.074,0.816c0.148,0.99,0.271,1.683,0.372,2.078h5.952c0.496,0.05,0.769,0.322,0.819,0.816
				c-0.051,0.495-0.323,0.768-0.819,0.816h-5.58c0.446,1.534,1.016,2.771,1.711,3.711c0.546,0.643,1.017,0.939,1.414,0.891
				c0.495,0.049,0.793-0.248,0.893-0.891c0.049-0.197,0.149-0.568,0.298-1.113c0.049-0.445,0.099-0.742,0.148-0.891
				c0.149-0.445,0.472-0.618,0.968-0.52c0.545,0.148,0.744,0.495,0.596,1.039c-0.249,1.237-0.447,2.078-0.596,2.523
				c-0.348,1.138-1.042,1.731-2.083,1.781c-1.241,0.049-2.232-0.495-2.977-1.633c-1.042-1.286-1.786-2.919-2.232-4.898h-6.549v4.23
				c0,0.247,0.1,0.321,0.298,0.223c0.149-0.05,0.495-0.173,1.042-0.371c1.438-0.494,2.381-0.816,2.827-0.965
				c0.596-0.148,0.942,0.05,1.042,0.594c0.099,0.495-0.1,0.865-0.595,1.113c-0.497,0.197-1.439,0.52-2.828,0.965
				C172.728,41.616,172.083,41.839,171.736,41.938z M171.885,26.872v2.523h11.014c0.247,0,0.372-0.123,0.372-0.371v-2.152
				c0-0.247-0.125-0.371-0.372-0.371h-10.642C172.009,26.501,171.885,26.625,171.885,26.872z M178.061,33.848
				c-0.199-1.138-0.323-2.103-0.372-2.895h-5.805v2.895H178.061z"/>
			<path class="st2" d="M189.371,27.54c-0.546-0.049-0.844-0.346-0.893-0.891c0.049-0.544,0.347-0.841,0.893-0.891h14.139
				c0.545,0.05,0.843,0.347,0.893,0.891c-0.05,0.545-0.348,0.842-0.893,0.891h-6.027v11.504h7.068
				c0.546,0.05,0.844,0.347,0.894,0.891c-0.05,0.544-0.348,0.841-0.894,0.891H188.33c-0.547-0.05-0.845-0.347-0.894-0.891
				c0.099-0.544,0.396-0.841,0.894-0.891h7.218V27.54H189.371z"/>
		</g>
	</g>
	<g>
		<g>
			<path class="st1" d="M298.135,39.181c-0.451,0.271-0.835,0.249-1.149-0.067c-0.316-0.406-0.294-0.766,0.067-1.082
				c1.713-1.262,3.044-2.592,3.99-3.99c0.36-0.36,0.744-0.45,1.149-0.271c0.45,0.181,0.563,0.451,0.339,0.812
				c-0.181,0.271-0.384,0.541-0.609,0.812h7.439c0.45,0.045,0.699,0.271,0.744,0.676c0,0.451-0.158,0.812-0.474,1.082
				c-1.127,0.992-2.322,1.826-3.584,2.502c1.487,0.451,3.336,0.812,5.546,1.082c0.45,0.135,0.652,0.429,0.608,0.879
				c-0.135,0.406-0.497,0.586-1.082,0.541c-2.751-0.36-5.028-0.901-6.831-1.623c-1.668,0.722-4.125,1.353-7.371,1.894
				c-0.541,0.091-0.903-0.068-1.082-0.474c-0.046-0.541,0.135-0.833,0.541-0.879c2.705-0.406,4.778-0.879,6.222-1.42
				c-0.947-0.496-1.826-1.194-2.638-2.097c-0.271,0.271-0.677,0.632-1.218,1.082C298.473,38.866,298.27,39.046,298.135,39.181z
				 M297.526,49.056c-0.406,0.225-0.768,0.157-1.082-0.203c-0.271-0.361-0.227-0.676,0.135-0.947c1.037-0.585,2.276-1.42,3.72-2.502
				c0.406-0.225,0.767-0.203,1.082,0.068c0.315,0.406,0.293,0.744-0.067,1.014C300.547,47.072,299.284,47.929,297.526,49.056z
				 M297.188,44.592c-0.406-0.044-0.632-0.271-0.677-0.676c0.045-0.45,0.271-0.699,0.677-0.744h6.289v-0.947
				c0.045-0.496,0.315-0.766,0.812-0.812c0.496,0.045,0.767,0.316,0.812,0.812v0.947h5.816c0.406,0.045,0.631,0.294,0.677,0.744
				c-0.046,0.406-0.271,0.632-0.677,0.676h-5.816v2.976c0.09,1.578-0.632,2.344-2.164,2.3c-0.091,0-0.315,0-0.676,0
				c-0.451,0.044-0.768,0.067-0.947,0.067c-0.451,0-0.744-0.226-0.879-0.676c0-0.497,0.203-0.767,0.608-0.812h1.218
				c0.901,0.09,1.307-0.316,1.217-1.217v-2.638H297.188z M300.976,36.679c0.991,0.947,2.097,1.714,3.313,2.299
				c1.218-0.541,2.344-1.217,3.382-2.029c0.09-0.044,0.112-0.09,0.067-0.135c-0.045-0.09-0.113-0.135-0.203-0.135H300.976z
				 M310.646,48.921c-0.135-0.091-0.384-0.249-0.744-0.474c-1.487-0.947-2.525-1.578-3.11-1.894
				c-0.271-0.271-0.316-0.585-0.136-0.947c0.315-0.271,0.698-0.315,1.15-0.135c0.676,0.361,1.758,0.992,3.246,1.894
				c0.271,0.181,0.45,0.294,0.541,0.338c0.36,0.316,0.428,0.653,0.202,1.015C311.48,49.123,311.097,49.191,310.646,48.921z"/>
			<path class="st1" d="M313.893,38.505c-0.405-0.044-0.632-0.292-0.676-0.744c0.044-0.406,0.271-0.631,0.676-0.676h1.759v-2.638
				c0.044-0.45,0.314-0.699,0.812-0.744c0.45,0.091,0.698,0.338,0.744,0.744v2.638h1.556c0.45,0.045,0.698,0.271,0.743,0.676
				c-0.045,0.451-0.293,0.699-0.743,0.744h-1.556v1.961c0.18,0,0.338,0.045,0.474,0.135l1.623,1.556
				c0.314,0.316,0.338,0.654,0.067,1.014c-0.316,0.316-0.654,0.338-1.015,0.068l-1.149-1.217v7.575
				c-0.046,0.406-0.294,0.653-0.744,0.744c-0.497-0.045-0.768-0.293-0.812-0.744v-7.98c-0.541,1.443-1.038,2.525-1.488,3.246
				c-0.226,0.361-0.541,0.429-0.946,0.203c-0.136-0.09-0.203-0.271-0.203-0.541c-0.046-0.18,0.044-0.474,0.271-0.879
				c0.856-1.262,1.623-2.976,2.3-5.14H313.893z M321.061,49.394c-0.586-0.045-0.902-0.361-0.946-0.947V35.8
				c0.044-0.585,0.36-0.901,0.946-0.947h6.831c0.585,0.045,0.901,0.361,0.946,0.947v12.647c-0.045,0.585-0.361,0.901-0.946,0.947
				H321.061z M321.603,36.612v2.638h5.749v-2.638c0-0.225-0.136-0.338-0.406-0.338h-4.937
				C321.738,36.274,321.603,36.386,321.603,36.612z M321.603,40.602v2.976h5.749v-2.976H321.603z M326.945,47.973
				c0.271,0,0.406-0.112,0.406-0.338V44.93h-5.749v2.705c0,0.226,0.136,0.338,0.406,0.338H326.945z"/>
			<path class="st1" d="M332.288,38.776c-0.451-0.044-0.699-0.292-0.743-0.744c0.044-0.45,0.292-0.699,0.743-0.744h3.314
				c-0.181-0.225-0.497-0.653-0.947-1.285c-0.405-0.542-0.676-0.879-0.812-1.015c-0.226-0.36-0.158-0.699,0.203-1.015
				c0.406-0.18,0.788-0.112,1.149,0.203c0.18,0.181,0.541,0.632,1.082,1.353c0.45,0.586,0.744,0.947,0.88,1.082
				c0.18,0.181,0.225,0.406,0.135,0.676h2.503c0.314-0.406,0.946-1.285,1.894-2.638c0.18-0.225,0.292-0.382,0.338-0.473
				c0.314-0.36,0.698-0.45,1.149-0.271c0.45,0.271,0.563,0.608,0.339,1.014c-0.136,0.181-0.43,0.541-0.88,1.083
				c-0.451,0.586-0.767,1.014-0.946,1.285h3.449c0.45,0.045,0.698,0.294,0.743,0.744c-0.045,0.451-0.293,0.699-0.743,0.744h-5.613
				c0,0.722-0.046,1.669-0.136,2.841h6.628c0.495,0.045,0.766,0.293,0.812,0.744c-0.046,0.451-0.316,0.7-0.812,0.744h-6.357
				c0.991,2.661,3.179,4.396,6.561,5.208c0.495,0.225,0.652,0.609,0.474,1.15c-0.227,0.45-0.654,0.585-1.285,0.406
				c-3.473-1.082-5.704-2.863-6.695-5.343c-0.813,2.299-3.021,4.125-6.628,5.478c-0.632,0.225-1.038,0.112-1.218-0.338
				c-0.227-0.451-0.091-0.835,0.406-1.149c3.787-1.262,5.86-3.066,6.222-5.411h-6.087c-0.451-0.044-0.699-0.293-0.744-0.744
				c0.045-0.45,0.293-0.698,0.744-0.744h6.29c0.09-0.991,0.135-1.938,0.135-2.841H332.288z"/>
			<path class="st1" d="M348.655,36.612c-0.406-0.044-0.632-0.271-0.677-0.676c0.045-0.45,0.271-0.699,0.677-0.744h6.763
				c0.406,0.045,0.631,0.294,0.677,0.744c-0.046,0.406-0.271,0.632-0.677,0.676h-1.961v4.125h1.556
				c0.405,0.045,0.631,0.271,0.676,0.676c-0.045,0.451-0.271,0.7-0.676,0.744h-1.556v4.193c0.18-0.044,0.45-0.09,0.812-0.135
				c0.45-0.09,0.766-0.157,0.946-0.203c0.542-0.044,0.834,0.181,0.88,0.676c0.044,0.451-0.181,0.722-0.677,0.812
				c-0.496,0.091-1.42,0.249-2.772,0.473c-1.804,0.36-3.156,0.609-4.058,0.744c-0.451,0-0.744-0.226-0.88-0.676
				c-0.045-0.541,0.18-0.856,0.677-0.947c0.135,0,0.314-0.022,0.541-0.068V39.79c0.044-0.45,0.271-0.699,0.676-0.744
				c0.45,0.045,0.699,0.294,0.744,0.744v7.034c0.541-0.044,1.104-0.135,1.691-0.271v-9.942H348.655z M354.877,40.399
				c-0.271-0.36-0.248-0.744,0.067-1.15c1.083-1.488,1.938-3.133,2.57-4.937c0.18-0.406,0.518-0.585,1.015-0.541
				c0.495,0.226,0.653,0.564,0.474,1.014c-0.271,0.722-0.564,1.353-0.88,1.894h5.546c0.406,0.045,0.631,0.293,0.677,0.744
				c-0.046,0.451-0.271,0.7-0.677,0.744h-0.879c-0.316,3.156-1.105,5.681-2.367,7.575c0.901,1.082,2.029,1.984,3.382,2.705
				c0.405,0.271,0.518,0.676,0.338,1.217c-0.316,0.45-0.722,0.541-1.218,0.271c-1.397-0.857-2.569-1.826-3.517-2.908
				c-0.946,1.083-2.188,2.074-3.72,2.976c-0.451,0.225-0.856,0.157-1.217-0.203c-0.271-0.451-0.181-0.857,0.271-1.217
				c1.577-0.812,2.817-1.758,3.72-2.84c-1.038-1.713-1.714-3.674-2.029-5.884c-0.045,0-0.067-0.044-0.067-0.136
				c-0.136,0.227-0.294,0.474-0.474,0.744C355.575,40.737,355.237,40.715,354.877,40.399z M357.65,38.167
				c-0.046,0-0.113-0.022-0.203-0.068c0.044,0.045,0.067,0.113,0.067,0.203c0.315,2.57,0.947,4.622,1.894,6.154
				c1.082-1.713,1.713-3.81,1.894-6.29H357.65z"/>
			<path class="st1" d="M365.901,40.331c-0.362-0.044-0.564-0.271-0.609-0.676c0.045-0.36,0.247-0.563,0.609-0.609h6.627V38.64
				c0.09-0.496,0.36-0.766,0.813-0.812c0.45,0.045,0.698,0.316,0.743,0.812v0.406h6.695c0.36,0.045,0.563,0.249,0.609,0.609
				c-0.046,0.406-0.249,0.632-0.609,0.676h-6.695v1.353h4.938c0.676,0,1.015,0.338,1.015,1.015v1.488
				c0.044,1.127-0.52,1.714-1.691,1.758c-0.361,0-0.743,0-1.149,0s-0.654-0.18-0.744-0.541c-0.045-0.36,0.09-0.563,0.406-0.608
				c0.314,0,0.608,0,0.879,0c0.45,0.045,0.698-0.158,0.744-0.609v-0.879c0.044-0.179-0.067-0.292-0.338-0.338h-4.059v1.015
				c1.668,1.939,3.968,3.27,6.898,3.99c0.496,0.225,0.653,0.585,0.474,1.083c-0.181,0.45-0.564,0.585-1.149,0.406
				c-2.705-0.903-4.78-2.165-6.223-3.788v3.99c-0.091,0.45-0.338,0.699-0.743,0.744c-0.452-0.045-0.723-0.294-0.813-0.744v-3.99
				c-1.308,1.533-3.404,2.863-6.289,3.99c-0.497,0.18-0.879,0.044-1.149-0.406c-0.136-0.497,0.021-0.857,0.473-1.082
				c2.976-0.856,5.298-2.276,6.966-4.261v-0.947h-3.854c-0.271,0-0.406,0.135-0.406,0.406v1.894c-0.045,0.451-0.315,0.7-0.812,0.744
				c-0.451-0.09-0.699-0.338-0.743-0.744v-2.57c0-0.676,0.338-1.015,1.014-1.015h4.802v-1.353H365.901z M365.36,38.235
				c-0.316-0.271-0.316-0.585,0-0.947c1.172-1.037,2.073-2.141,2.705-3.314c0.225-0.406,0.563-0.541,1.015-0.406
				c0.449,0.181,0.585,0.474,0.405,0.879c-0.045,0.091-0.113,0.203-0.203,0.338c-0.091,0.181-0.158,0.316-0.202,0.406h3.922
				c0.36,0.045,0.563,0.249,0.609,0.609c-0.046,0.361-0.249,0.564-0.609,0.609h-4.869c-0.497,0.676-1.06,1.285-1.69,1.826
				C366.036,38.505,365.675,38.505,365.36,38.235z M370.905,38.573c-0.271,0.271-0.586,0.248-0.946-0.068
				c-0.046-0.09-0.181-0.247-0.406-0.473c-0.226-0.271-0.384-0.428-0.473-0.474c-0.271-0.271-0.271-0.541,0-0.812
				c0.314-0.225,0.631-0.225,0.946,0c0.496,0.497,0.788,0.812,0.879,0.947C371.221,37.964,371.221,38.258,370.905,38.573z
				 M373.543,37.761c-0.361-0.225-0.405-0.541-0.135-0.947c0.766-0.766,1.396-1.713,1.894-2.841c0.135-0.36,0.474-0.496,1.015-0.406
				c0.36,0.181,0.495,0.474,0.405,0.879l-0.338,0.744h4.464c0.405,0.045,0.631,0.249,0.676,0.609
				c-0.045,0.361-0.271,0.564-0.676,0.609h-5.275c-0.046,0.091-0.113,0.203-0.203,0.338c-0.181,0.226-0.429,0.541-0.744,0.947
				C374.264,38.01,373.903,38.032,373.543,37.761z M378.615,38.573c-0.361,0.271-0.676,0.271-0.946,0
				c-0.091-0.09-0.271-0.271-0.541-0.541c-0.271-0.315-0.451-0.496-0.541-0.541c-0.227-0.271-0.203-0.541,0.067-0.812
				c0.314-0.271,0.631-0.271,0.947,0c0.36,0.316,0.698,0.654,1.014,1.014C378.886,38.01,378.886,38.303,378.615,38.573z"/>
		</g>
	</g>
	<g>
		<path class="st3" d="M268.568,65.85v-16.51H134.273c-0.276,26.177-21.572,47.314-47.814,47.314
			c-26.242,0-47.538-21.138-47.814-47.314H1v193.505h389.555V65.85H268.568z"/>
		<path class="st4" d="M86.459,96.654c26.242,0,47.538-21.138,47.814-47.314c0.002-0.171,0.013-0.341,0.013-0.512
			C134.286,22.413,112.873,1,86.459,1S38.632,22.413,38.632,48.827c0,0.172,0.011,0.341,0.013,0.512
			C38.921,75.516,60.217,96.654,86.459,96.654z"/>
	</g>
	<path class="st5" d="M103.995,80.712V83.9H89.647v-6.377h14.348V80.712z M103.995,80.712"/>
	<rect x="68.922" y="77.523" class="st5" width="14.348" height="6.377"/>
	<path class="st0" d="M83.27,83.9v12.642c-5.038-0.319-9.853-1.435-14.348-3.22V83.9H83.27z M83.27,83.9"/>
	<path class="st0" d="M103.995,83.9v9.422c-4.496,1.785-9.31,2.901-14.348,3.22V83.9H103.995z M103.995,83.9"/>
	<path class="st0" d="M116.749,73.06v6.058l-12.754,1.594v-4.001c0-2.551,1.004-4.974,2.805-6.775l5.15-5.15
		C114.836,66.443,116.749,69.552,116.749,73.06L116.749,73.06z M116.749,73.06"/>
	<path class="st0" d="M111.951,64.785l-5.15,5.15c-1.801,1.801-2.805,4.225-2.805,6.775v0.813H89.647v-7.971
		c0,0,4.783-6.377,4.783-7.971l14.109,2.008C109.767,63.781,110.914,64.179,111.951,64.785L111.951,64.785z M111.951,64.785"/>
	<path class="st0" d="M68.922,80.712l-12.754-1.594V73.06c0-3.508,1.913-6.617,4.798-8.275l5.15,5.15
		c1.801,1.801,2.805,4.225,2.805,6.775V80.712z M68.922,80.712"/>
	<path class="st0" d="M83.27,69.552v7.971H68.922v-0.813c0-2.551-1.004-4.974-2.805-6.775l-5.15-5.15
		c1.037-0.606,2.184-1.004,3.412-1.196l14.109-2.008L83.27,69.552z M83.27,69.552"/>
	<path class="st5" d="M116.749,85.494l0.175,0.192c-3.842,3.188-8.21,5.787-12.929,7.636V80.712l12.754-1.594V85.494z
		 M116.749,85.494"/>
	<path class="st5" d="M68.922,80.712v12.611c-4.719-1.85-9.088-4.448-12.929-7.636l0.175-0.192v-6.377L68.922,80.712z
		 M68.922,80.712"/>
	<path class="st5" d="M94.43,58.392v3.188c0,1.594-4.783,7.971-4.783,7.971v26.991c-1.052,0.08-2.121,0.111-3.188,0.111
		c-1.068,0-2.136-0.032-3.188-0.111V69.552l-4.783-7.971v-3.188l7.971,3.188L94.43,58.392z M94.43,58.392"/>
	<path class="st5" d="M94.43,53.61v4.783l-7.971,3.188l-7.971-3.188V53.61l0.239-0.414c2.296,1.291,4.927,2.008,7.732,2.008
		c2.805,0,5.437-0.718,7.732-2.008L94.43,53.61z M94.43,53.61"/>
	<path class="st0" d="M108.778,15.348v1.594H64.14v-1.594c0-4.608,2.168-8.705,5.548-11.319C72.111,2.132,75.172,1,78.488,1H94.43
		c3.316,0,6.377,1.132,8.8,3.029C106.61,6.644,108.778,10.741,108.778,15.348L108.778,15.348z M108.778,15.348"/>
	<path class="st0" d="M108.778,16.942v4.783c0,0-1.626,1.626-6.441,2.981c-3.444,0.972-8.545,1.801-15.879,1.801
		c-7.334,0-12.435-0.829-15.879-1.801c-4.815-1.355-6.441-2.981-6.441-2.981v-4.783H108.778z M108.778,16.942"/>
	<path class="st0" d="M108.778,21.725v12.754c0-3.523-2.854-6.377-6.377-6.377v-3.188l-0.064-0.207
		C107.152,23.351,108.778,21.725,108.778,21.725L108.778,21.725z M108.778,21.725"/>
	<path class="st0" d="M64.14,21.725c0,0,1.626,1.626,6.441,2.981l-0.064,0.207v3.188c-3.523,0-6.377,2.854-6.377,6.377V21.725z
		 M64.14,21.725"/>
	<path class="st5" d="M108.778,34.479c0,3.523-2.854,6.377-6.377,6.377h-0.079c0.047-0.526,0.079-1.052,0.079-1.594v-11.16
		C105.925,28.102,108.778,30.956,108.778,34.479L108.778,34.479z M108.778,34.479"/>
	<path class="st5" d="M70.58,24.706c3.444,0.972,8.545,1.801,15.879,1.801c7.334,0,12.435-0.829,15.879-1.801l0.064,0.207v14.348
		c0,0.542-0.032,1.068-0.079,1.594c-0.526,5.325-3.683,9.868-8.131,12.34c-2.296,1.291-4.927,2.008-7.732,2.008
		c-2.805,0-5.437-0.718-7.732-2.008c-1.307-0.718-2.487-1.611-3.539-2.663c-2.535-2.535-4.225-5.915-4.592-9.677
		c-0.047-0.526-0.079-1.052-0.079-1.594V24.914L70.58,24.706z M70.58,24.706"/>
	<path class="st5" d="M70.517,40.856c-3.523,0-6.377-2.854-6.377-6.377s2.854-6.377,6.377-6.377v11.16
		c0,0.542,0.032,1.068,0.079,1.594H70.517z M70.517,40.856"/>
	<path class="st5" d="M80.082,34.479c0,0.88-0.714,1.594-1.594,1.594c-0.88,0-1.594-0.714-1.594-1.594s0.714-1.594,1.594-1.594
		C79.368,32.885,80.082,33.599,80.082,34.479L80.082,34.479z M80.082,34.479"/>
	<path class="st5" d="M96.024,34.479c0,0.88-0.714,1.594-1.594,1.594c-0.88,0-1.594-0.714-1.594-1.594s0.714-1.594,1.594-1.594
		C95.311,32.885,96.024,33.599,96.024,34.479L96.024,34.479z M96.024,34.479"/>
	<path class="st5" d="M91.751,44.044c0,2.923-2.369,5.292-5.292,5.292s-5.292-2.369-5.292-5.292"/>
	<g>
		<g>
			<path class="st1" d="M35.599,122.703c-0.603,0.274-1.066,0.192-1.395-0.246c-0.219-0.546-0.137-0.984,0.246-1.313
				c2.461-1.858,4.266-3.691,5.414-5.496c0.438-0.601,0.956-0.765,1.559-0.492c0.492,0.328,0.574,0.738,0.246,1.23
				c-0.055,0.055-0.11,0.164-0.164,0.328c-0.11,0.11-0.192,0.219-0.246,0.328h6.973c0.602,0,0.902,0.246,0.902,0.738
				c0,0.438-0.164,0.82-0.492,1.148l-1.887,1.969h3.609c0.71,0.055,1.094,0.438,1.148,1.148v4.43
				c-0.055,0.711-0.438,1.095-1.148,1.148h-6.48c-1.039,3.063-3.746,5.496-8.121,7.301c-0.711,0.273-1.23,0.164-1.559-0.328
				c-0.274-0.656-0.11-1.148,0.492-1.477c3.827-1.366,6.234-3.199,7.219-5.496h-4.512c-0.767-0.054-1.177-0.437-1.23-1.148v-4.266
				c-0.055,0.055-0.137,0.137-0.246,0.246C35.763,122.568,35.652,122.65,35.599,122.703z M46.017,118.602h-5.988
				c-0.711,0.82-1.477,1.587-2.297,2.297h6.563l1.969-1.887c0.109-0.109,0.136-0.218,0.082-0.328
				C46.29,118.63,46.181,118.602,46.017,118.602z M38.06,122.949v2.707c0,0.274,0.136,0.41,0.41,0.41h4.02
				c0.054-0.054,0.082-0.164,0.082-0.328c0.054-0.109,0.082-0.191,0.082-0.246c0.109-0.382,0.191-1.23,0.246-2.543
				c0.054-0.218,0.082-0.382,0.082-0.492H38.47C38.195,122.457,38.06,122.621,38.06,122.949z M46.591,134.434
				c-1.915,0-2.844-0.82-2.789-2.461v-2.953c0.054-0.601,0.355-0.929,0.902-0.984c0.602,0.055,0.93,0.383,0.984,0.984v2.543
				c-0.055,0.874,0.438,1.284,1.477,1.23h2.871c0.984,0.054,1.53-0.41,1.641-1.395c0.109-0.437,0.191-1.011,0.246-1.723
				c0.109-0.546,0.464-0.792,1.066-0.738c0.602,0.11,0.848,0.492,0.738,1.148c0,0.274-0.11,0.902-0.328,1.887
				c0,0.055,0,0.11,0,0.164c-0.274,1.585-1.259,2.351-2.953,2.297H46.591z M49.708,125.657v-2.707c0-0.328-0.137-0.492-0.41-0.492
				H44.95c-0.11,0.82-0.246,1.887-0.41,3.199c0,0.055-0.028,0.11-0.082,0.164c0,0.11-0.028,0.192-0.082,0.246h4.922
				C49.571,126.067,49.708,125.931,49.708,125.657z"/>
			<path class="st1" d="M57.419,130.414c-0.875,0.383-1.367,0.055-1.477-0.984v-11.156c0.054-0.546,0.355-0.847,0.902-0.902
				c0.546,0.055,0.848,0.356,0.902,0.902v9.516c0,0.219,0.136,0.301,0.41,0.246c0.109-0.054,0.328-0.164,0.656-0.328
				c0.602-0.382,1.038-0.656,1.313-0.82v-10.992c0.054-0.546,0.355-0.847,0.902-0.902c0.546,0.055,0.848,0.356,0.902,0.902v18.375
				c-0.055,0.601-0.356,0.929-0.902,0.984c-0.603,0-0.902-0.328-0.902-0.984v-5.414C58.867,129.676,57.965,130.197,57.419,130.414z
				 M62.423,124.59c-0.383-0.492-0.383-0.984,0-1.477c1.641-2.242,2.898-4.729,3.773-7.465c0.218-0.546,0.628-0.765,1.23-0.656
				c0.546,0.164,0.766,0.547,0.656,1.148c-0.055,0.219-0.192,0.521-0.41,0.902c-0.274,0.767-0.492,1.341-0.656,1.723h7.055
				c0.546,0.055,0.848,0.356,0.902,0.902c-0.055,0.547-0.356,0.849-0.902,0.902h-1.395c-0.492,4.048-1.477,7.083-2.953,9.105
				c1.148,1.259,2.652,2.297,4.512,3.117c0.546,0.382,0.71,0.874,0.492,1.477c-0.383,0.546-0.902,0.683-1.559,0.41
				c-2.079-1.148-3.638-2.297-4.676-3.445c-1.148,1.202-2.625,2.406-4.43,3.609c-0.547,0.328-1.039,0.218-1.477-0.328
				c-0.219-0.492-0.11-0.958,0.328-1.395c1.858-1.093,3.309-2.242,4.348-3.445c-1.203-1.805-2.051-4.02-2.543-6.645
				c-0.328,0.492-0.656,0.984-0.984,1.477C63.353,124.891,62.915,124.918,62.423,124.59z M68.493,128.117
				c1.202-1.858,1.996-4.375,2.379-7.547h-4.758l-0.082,0.164C66.414,123.907,67.234,126.368,68.493,128.117z"/>
			<path class="st1" d="M78.255,123.032c-0.547-0.054-0.849-0.328-0.902-0.82v-3.281c0.054-0.656,0.41-1.011,1.066-1.066h6.48
				c0.109-0.382,0.191-0.929,0.246-1.641c0.054-0.218,0.082-0.355,0.082-0.41c0.164-0.601,0.52-0.902,1.066-0.902
				c0.71,0.055,1.012,0.41,0.902,1.066c0,0.055,0,0.137,0,0.246c-0.055,0.438-0.164,0.984-0.328,1.641h6.891
				c0.656,0.055,1.012,0.41,1.066,1.066v2.625c-0.055,0.547-0.356,0.849-0.902,0.902c-0.603-0.054-0.931-0.355-0.984-0.902v-1.477
				c-0.055-0.273-0.192-0.437-0.41-0.492h-6.07c-0.055,0.328-0.137,0.603-0.246,0.82c0.546,2.079,1.313,3.855,2.297,5.332
				c0.93-0.601,2.187-1.448,3.773-2.543c0.492-0.328,0.956-0.3,1.395,0.082c0.328,0.547,0.273,1.013-0.164,1.395
				c-1.367,0.875-2.68,1.723-3.938,2.543c1.422,1.641,3.391,3.035,5.906,4.184c0.492,0.328,0.628,0.82,0.41,1.477
				c-0.438,0.492-0.957,0.574-1.559,0.246c-4.704-2.351-7.766-5.769-9.188-10.254c-0.711,1.313-1.367,2.27-1.969,2.871v6.152
				c0.054,0.274,0.246,0.356,0.574,0.246c1.094-0.382,2.187-0.82,3.281-1.313c0.546-0.164,0.956,0.028,1.23,0.574
				c0.164,0.603-0.082,1.038-0.738,1.313c-0.328,0.109-0.875,0.328-1.641,0.656c-1.095,0.437-1.887,0.738-2.379,0.902
				c-0.931,0.382-1.559,0.382-1.887,0c-0.219-0.328-0.328-0.984-0.328-1.969v-4.594c-1.203,1.148-2.516,2.161-3.938,3.035
				c-0.492,0.328-0.957,0.219-1.395-0.328c-0.219-0.546-0.11-1.011,0.328-1.395c4.266-2.57,6.973-5.714,8.121-9.434h-4.676
				c-0.274,0.055-0.438,0.219-0.492,0.492v2.133C79.185,122.703,78.856,122.978,78.255,123.032z"/>
			<path class="st1" d="M100.649,134.762c-0.603,0.164-1.066,0.136-1.395-0.082c-0.274-0.219-0.41-0.656-0.41-1.313v-16.242
				c0-0.765,0.382-1.148,1.148-1.148h14.191c0.71,0,1.066,0.356,1.066,1.066v4.43c-0.055,0.711-0.41,1.095-1.066,1.148h-5.004
				c0.054,0.219,0.082,0.521,0.082,0.902c0.164,1.095,0.3,1.86,0.41,2.297h6.563c0.546,0.055,0.848,0.356,0.902,0.902
				c-0.055,0.547-0.356,0.849-0.902,0.902h-6.152c0.492,1.696,1.12,3.063,1.887,4.102c0.602,0.71,1.12,1.038,1.559,0.984
				c0.546,0.054,0.874-0.274,0.984-0.984c0.054-0.218,0.164-0.628,0.328-1.23c0.054-0.492,0.109-0.82,0.164-0.984
				c0.164-0.492,0.52-0.683,1.066-0.574c0.602,0.164,0.82,0.547,0.656,1.148c-0.274,1.368-0.492,2.297-0.656,2.789
				c-0.383,1.257-1.148,1.914-2.297,1.969c-1.367,0.054-2.461-0.547-3.281-1.805c-1.148-1.421-1.969-3.226-2.461-5.414h-7.219v4.676
				c0,0.273,0.109,0.355,0.328,0.246c0.164-0.055,0.546-0.191,1.148-0.41c1.586-0.546,2.625-0.902,3.117-1.066
				c0.656-0.164,1.038,0.055,1.148,0.656c0.109,0.547-0.11,0.956-0.656,1.23c-0.547,0.218-1.587,0.574-3.117,1.066
				C101.743,134.406,101.031,134.652,100.649,134.762z M100.813,118.11v2.789h12.141c0.273,0,0.41-0.136,0.41-0.41v-2.379
				c0-0.273-0.137-0.41-0.41-0.41h-11.73C100.949,117.699,100.813,117.837,100.813,118.11z M107.622,125.821
				c-0.219-1.257-0.356-2.324-0.41-3.199h-6.398v3.199H107.622z"/>
			<path class="st1" d="M120.091,118.848c-0.603-0.054-0.931-0.382-0.984-0.984c0.054-0.601,0.382-0.929,0.984-0.984h15.586
				c0.602,0.055,0.93,0.383,0.984,0.984c-0.055,0.603-0.383,0.931-0.984,0.984h-6.645v12.715h7.793
				c0.602,0.055,0.93,0.383,0.984,0.984c-0.055,0.601-0.383,0.929-0.984,0.984h-17.883c-0.603-0.055-0.931-0.383-0.984-0.984
				c0.109-0.601,0.438-0.929,0.984-0.984h7.957v-12.715H120.091z"/>
			<path class="st1" d="M139.204,134.516c-0.383-0.383-0.383-0.849,0-1.395c0.328-0.438,0.902-1.202,1.723-2.297
				c0.218-0.218,0.355-0.382,0.41-0.492v-5.988c0-0.218-0.137-0.328-0.41-0.328h-1.148c-0.492-0.054-0.738-0.355-0.738-0.902
				c0.054-0.546,0.355-0.847,0.902-0.902h2.215c0.71,0,1.066,0.356,1.066,1.066v6.973c0.874,1.532,2.269,2.297,4.184,2.297
				c3.335,0.109,6.754,0.082,10.254-0.082c0.766,0.054,1.176,0.382,1.23,0.984c-0.11,0.656-0.547,0.984-1.313,0.984
				c-3.828,0-7.355-0.055-10.582-0.164c-2.023,0.054-3.474-0.603-4.348-1.969c-0.164-0.273-0.356-0.273-0.574,0
				c-0.219,0.273-0.574,0.738-1.066,1.395c-0.11,0.164-0.192,0.3-0.246,0.41C140.27,134.762,139.75,134.898,139.204,134.516z
				 M143.716,119.832c-0.603,0.328-1.066,0.219-1.395-0.328c-0.438-0.71-1.039-1.585-1.805-2.625
				c-0.274-0.546-0.164-0.956,0.328-1.23c0.438-0.218,0.874-0.109,1.313,0.328c0.82,1.04,1.422,1.887,1.805,2.543
				C144.235,119.067,144.153,119.504,143.716,119.832z M144.454,130.578c-0.438-0.273-0.521-0.765-0.246-1.477
				c1.422-1.75,2.078-4.292,1.969-7.629v-3.773c0.054-0.765,0.464-1.175,1.23-1.23c2.679-0.054,5.934-0.3,9.762-0.738
				c0.602-0.054,0.984,0.192,1.148,0.738c0.054,0.547-0.246,0.875-0.902,0.984c-3.063,0.383-6.017,0.574-8.859,0.574
				c-0.328,0.055-0.492,0.246-0.492,0.574v2.051h8.449c0.656,0.055,1.012,0.383,1.066,0.984c0,0.603-0.137,1.177-0.41,1.723
				c-0.656,1.477-1.505,2.762-2.543,3.855l3.117,2.461c0.382,0.383,0.41,0.849,0.082,1.395c-0.492,0.383-0.957,0.383-1.395,0
				c-1.039-0.874-2.079-1.723-3.117-2.543c-1.367,1.095-3.008,2.106-4.922,3.035c-0.603,0.219-1.066,0.055-1.395-0.492
				c-0.219-0.546-0.028-0.956,0.574-1.23c1.641-0.656,3.117-1.477,4.43-2.461c-0.328-0.273-0.82-0.683-1.477-1.23
				c-0.656-0.492-1.148-0.874-1.477-1.148c-0.383-0.273-0.438-0.656-0.164-1.148c0.492-0.328,0.956-0.328,1.395,0
				c0.984,0.711,1.996,1.477,3.035,2.297c0.93-0.984,1.668-2.104,2.215-3.363c0.109-0.328,0-0.464-0.328-0.41h-7.219
				c0,3.008-0.711,5.578-2.133,7.711C145.466,130.689,145,130.853,144.454,130.578z"/>
			<path class="st1" d="M162.419,135.09c-0.603-0.055-0.931-0.356-0.984-0.902v-11.32c0-0.765,0.382-1.148,1.148-1.148h14.766
				c0.766,0,1.148,0.383,1.148,1.148v9.105c0.109,1.805-0.711,2.734-2.461,2.789c-0.984,0-1.915,0-2.789,0
				c-0.547,0-0.875-0.274-0.984-0.82c0.054-0.603,0.328-0.931,0.82-0.984c0.766,0,1.504,0,2.215,0
				c0.874,0.054,1.284-0.383,1.23-1.313v-7.793c0-0.328-0.164-0.492-0.492-0.492h-12.141c-0.328,0-0.492,0.164-0.492,0.492v10.336
				C163.349,134.734,163.02,135.035,162.419,135.09z M162.829,119.996c-0.711-0.054-1.095-0.41-1.148-1.066v-2.379
				c0.054-0.492,0.355-0.765,0.902-0.82c0.602,0.055,0.93,0.328,0.984,0.82v1.313c0,0.328,0.136,0.492,0.41,0.492h5.004v-2.461
				c0.054-0.546,0.355-0.847,0.902-0.902c0.602,0.055,0.93,0.356,0.984,0.902v2.461h5.004c0.273,0,0.41-0.164,0.41-0.492v-1.313
				c0.054-0.492,0.382-0.765,0.984-0.82c0.546,0.055,0.848,0.328,0.902,0.82v2.379c-0.055,0.656-0.438,1.013-1.148,1.066H162.829z
				 M165.7,132.465c-0.547,0.218-1.013,0.136-1.395-0.246c-0.274-0.492-0.192-0.929,0.246-1.313c1.366-0.82,2.707-1.694,4.02-2.625
				c-1.148-0.82-2.27-1.612-3.363-2.379c-0.383-0.328-0.438-0.71-0.164-1.148c0.382-0.437,0.82-0.492,1.313-0.164
				c0.438,0.274,1.066,0.685,1.887,1.23c0.82,0.603,1.422,1.04,1.805,1.313c0.984-0.765,1.969-1.612,2.953-2.543
				c0.382-0.382,0.82-0.41,1.313-0.082c0.328,0.383,0.355,0.767,0.082,1.148c-0.931,0.875-1.887,1.723-2.871,2.543
				c0.492,0.328,1.202,0.82,2.133,1.477c0.492,0.383,0.874,0.656,1.148,0.82c0.438,0.438,0.492,0.902,0.164,1.395
				c-0.383,0.383-0.849,0.41-1.395,0.082c-0.164-0.109-0.41-0.3-0.738-0.574c-0.711-0.492-1.641-1.175-2.789-2.051
				c-0.656,0.547-1.695,1.313-3.117,2.297C166.384,132.028,165.974,132.301,165.7,132.465z"/>
			<path class="st1" d="M181.122,123.688c-0.383-0.601-0.301-1.175,0.246-1.723c1.914-2.022,3.309-4.128,4.184-6.316
				c0.382-0.601,0.848-0.82,1.395-0.656c0.602,0.274,0.766,0.738,0.492,1.395c-0.055,0.055-0.11,0.137-0.164,0.246
				c-0.055,0.11-0.137,0.328-0.246,0.656h10.418c0.71,0.055,1.094,0.438,1.148,1.148c-0.055,0.984-0.11,2.543-0.164,4.676
				c-0.055,1.641-0.082,2.844-0.082,3.609c0,2.297-1.095,3.445-3.281,3.445c-0.274,0-0.711,0.028-1.313,0.082
				c-0.383,0-0.656,0-0.82,0c-0.711-0.054-1.121-0.382-1.23-0.984c0.054-0.601,0.355-0.929,0.902-0.984
				c0.273,0.055,0.71,0.055,1.313,0c0.273,0,0.492,0,0.656,0c1.202,0.055,1.805-0.519,1.805-1.723
				c0.164-2.133,0.246-4.43,0.246-6.891c0-0.382-0.192-0.574-0.574-0.574h-10.09c-0.492,0.82-1.066,1.641-1.723,2.461
				c0.164-0.054,0.328-0.082,0.492-0.082h7.055c0.766,0.055,1.176,0.438,1.23,1.148v4.02c-0.055,0.711-0.465,1.095-1.23,1.148
				h-6.316v3.035c-0.055,1.204,0.602,1.776,1.969,1.723h9.023c1.202,0.054,1.914-0.41,2.133-1.395
				c0.054-0.218,0.109-0.656,0.164-1.313c0.054-0.273,0.082-0.464,0.082-0.574c0.164-0.546,0.546-0.792,1.148-0.738
				c0.602,0.164,0.874,0.547,0.82,1.148c-0.164,0.82-0.301,1.614-0.41,2.379c-0.328,1.53-1.505,2.269-3.527,2.215h-9.926
				c-2.352,0.109-3.474-0.984-3.363-3.281v-8.367c0-0.109,0-0.191,0-0.246c-0.055,0.11-0.164,0.246-0.328,0.41
				c-0.11,0.11-0.356,0.41-0.738,0.902C181.97,124.071,181.504,124.071,181.122,123.688z M185.47,123.606v2.543h5.086
				c0.382,0,0.574-0.164,0.574-0.492v-2.051c0-0.328-0.192-0.492-0.574-0.492h-4.594C185.634,123.114,185.47,123.278,185.47,123.606
				z"/>
			<path class="st1" d="M203.517,119.75c-0.492-0.054-0.767-0.355-0.82-0.902c0.054-0.546,0.328-0.847,0.82-0.902h4.676
				c0.218-0.328,0.492-0.847,0.82-1.559c0.109-0.218,0.191-0.382,0.246-0.492c0.438-0.765,0.984-1.038,1.641-0.82
				c0.602,0.219,0.738,0.685,0.41,1.395c-0.328,0.492-0.603,0.984-0.82,1.477h9.844c0.546,0.055,0.848,0.356,0.902,0.902
				c-0.055,0.547-0.356,0.849-0.902,0.902h-10.828c-0.219,0.328-0.547,0.849-0.984,1.559c-0.711,1.148-1.259,1.997-1.641,2.543
				c-0.11,0.11-0.137,0.219-0.082,0.328c0.054,0.055,0.164,0.082,0.328,0.082h4.512v-2.707c0.054-0.601,0.382-0.929,0.984-0.984
				c0.602,0.055,0.93,0.383,0.984,0.984v2.707h5.66c0.492,0.055,0.766,0.356,0.82,0.902c-0.055,0.492-0.328,0.767-0.82,0.82h-5.66
				v3.199h7.383c0.492,0.055,0.766,0.356,0.82,0.902c-0.055,0.492-0.328,0.767-0.82,0.82h-7.383v3.281
				c-0.055,0.601-0.383,0.929-0.984,0.984c-0.547-0.055-0.875-0.383-0.984-0.984v-3.281h-8.695c-0.547-0.054-0.849-0.328-0.902-0.82
				c0.054-0.546,0.355-0.847,0.902-0.902h8.695v-3.199h-6.152c-1.259-0.164-1.559-0.902-0.902-2.215
				c0.93-1.257,1.805-2.597,2.625-4.02H203.517z"/>
			<path class="st1" d="M224.845,125.41c-0.656,0.328-1.203,0.274-1.641-0.164c-0.328-0.546-0.219-1.066,0.328-1.559
				c2.406-1.858,4.319-4.266,5.742-7.219c0.382-0.546,0.848-0.71,1.395-0.492c0.546,0.274,0.71,0.711,0.492,1.313
				C229.63,120.298,227.523,123.005,224.845,125.41z M227.142,133.778c-1.203,0.054-1.859-0.192-1.969-0.738
				c-0.219-0.547-0.028-1.148,0.574-1.805c1.969-2.022,3.855-4.594,5.66-7.711c0.438-0.601,0.93-0.765,1.477-0.492
				c0.656,0.383,0.792,0.849,0.41,1.395c-1.423,2.188-3.117,4.512-5.086,6.973c-0.055,0.11-0.082,0.219-0.082,0.328
				c0.054,0.055,0.136,0.082,0.246,0.082c0.328,0,0.792-0.027,1.395-0.082c3.227-0.054,5.77-0.136,7.629-0.246
				c-0.274-0.328-0.685-0.847-1.23-1.559c-0.656-0.874-1.148-1.503-1.477-1.887c-0.328-0.492-0.246-0.929,0.246-1.312
				c0.492-0.218,0.93-0.136,1.313,0.246c0.874,1.04,2.351,2.871,4.43,5.496c0.328,0.437,0.574,0.738,0.738,0.902
				c0.382,0.492,0.328,0.984-0.164,1.477c-0.492,0.273-1.013,0.191-1.559-0.246c-0.11-0.164-0.274-0.383-0.492-0.656
				c-0.219-0.328-0.383-0.574-0.492-0.738c-1.531,0.054-3.638,0.164-6.316,0.328C230.095,133.64,228.344,133.722,227.142,133.778z
				 M241.005,125c-2.844-2.187-4.977-4.922-6.398-8.203c-0.219-0.601-0.028-1.011,0.574-1.23c0.546-0.218,0.984-0.027,1.313,0.574
				c1.258,2.953,3.199,5.305,5.824,7.055c0.546,0.383,0.656,0.931,0.328,1.641C242.207,125.275,241.661,125.328,241.005,125z"/>
			<path class="st1" d="M246.255,122.703c-0.767,0-1.148-0.382-1.148-1.148v-4.266c0-0.765,0.382-1.148,1.148-1.148h4.266
				c0.71,0.055,1.094,0.438,1.148,1.148v4.266c-0.055,0.711-0.438,1.095-1.148,1.148h-0.738v3.117h1.395
				c0.492,0.055,0.766,0.328,0.82,0.82c-0.055,0.438-0.328,0.685-0.82,0.738h-1.395v3.855c0.602-0.109,1.176-0.191,1.723-0.246
				c0.602-0.054,0.956,0.219,1.066,0.82c-0.055,0.492-0.356,0.82-0.902,0.984c-2.461,0.492-4.676,0.847-6.645,1.066
				c-0.603,0.109-0.984-0.137-1.148-0.738c-0.055-0.656,0.218-1.038,0.82-1.148c0.054,0,0.164,0,0.328,0v-6.891
				c0.054-0.437,0.3-0.683,0.738-0.738c0.438,0.055,0.684,0.301,0.738,0.738v6.645c0.218-0.054,0.492-0.109,0.82-0.164
				c0.382-0.054,0.656-0.082,0.82-0.082v-8.777H246.255z M249.536,121.145c0.328,0,0.492-0.164,0.492-0.492v-2.461
				c0-0.273-0.164-0.41-0.492-0.41h-2.297c-0.328,0-0.492,0.137-0.492,0.41v2.461c0,0.328,0.164,0.492,0.492,0.492H249.536z
				 M252.243,121.637c-0.383-0.328-0.383-0.738,0-1.23c1.258-1.477,2.269-3.089,3.035-4.84c0.273-0.546,0.71-0.738,1.313-0.574
				c0.492,0.274,0.628,0.685,0.41,1.23c-0.164,0.328-0.328,0.629-0.492,0.902h5.25c0.602,0.055,0.93,0.383,0.984,0.984
				c0,0.492-0.137,1.013-0.41,1.559c-0.931,1.477-1.887,2.625-2.871,3.445c1.094,0.656,2.379,1.177,3.855,1.559
				c0.546,0.164,0.766,0.547,0.656,1.148c-0.219,0.547-0.629,0.738-1.23,0.574c-2.023-0.656-3.582-1.395-4.676-2.215
				c-1.313,0.875-2.899,1.669-4.758,2.379c-0.547,0.164-0.957,0-1.23-0.492c-0.219-0.546-0.055-0.929,0.492-1.148
				c1.641-0.546,3.007-1.148,4.102-1.805c-0.767-0.656-1.505-1.585-2.215-2.789c-0.274,0.383-0.574,0.793-0.902,1.23
				C253.063,121.993,252.625,122.02,252.243,121.637z M254.54,134.024c-0.711-0.055-1.095-0.438-1.148-1.148v-4.758
				c0.054-0.71,0.438-1.093,1.148-1.148h6.727c0.71,0.055,1.094,0.438,1.148,1.148v4.758c-0.055,0.71-0.438,1.093-1.148,1.148
				H254.54z M260.118,132.383c0.328,0,0.492-0.164,0.492-0.492v-2.789c0-0.328-0.164-0.492-0.492-0.492h-4.43
				c-0.328,0-0.492,0.164-0.492,0.492v2.789c0,0.328,0.164,0.492,0.492,0.492H260.118z M255.442,118.848
				c0.71,1.313,1.586,2.407,2.625,3.281c0.82-0.656,1.641-1.641,2.461-2.953c0.109-0.218,0.027-0.355-0.246-0.41h-4.758
				C255.524,118.821,255.496,118.848,255.442,118.848z"/>
			<path class="st1" d="M283.825,134.352c-3.664,0-7.137-0.055-10.418-0.164c-2.079,0.054-3.638-0.603-4.676-1.969
				c-0.219-0.273-0.438-0.3-0.656-0.082c-0.711,0.874-1.23,1.53-1.559,1.969c-0.438,0.437-0.902,0.437-1.395,0
				c-0.328-0.492-0.301-0.984,0.082-1.477c0.218-0.219,0.574-0.601,1.066-1.148c0.492-0.492,0.848-0.847,1.066-1.066v-5.988
				c0-0.328-0.137-0.492-0.41-0.492h-1.23c-0.438-0.054-0.685-0.355-0.738-0.902c0.054-0.546,0.328-0.847,0.82-0.902h2.297
				c0.71,0,1.066,0.383,1.066,1.148v6.973c1.038,1.587,2.625,2.351,4.758,2.297c3.063,0.109,6.452,0.109,10.172,0
				c0.656,0.054,0.956,0.382,0.902,0.984C284.863,134.077,284.481,134.352,283.825,134.352z M269.798,119.832
				c-0.656,0.274-1.121,0.164-1.395-0.328c-0.164-0.218-0.521-0.628-1.066-1.23c-0.492-0.601-0.849-1.011-1.066-1.23
				c-0.219-0.546-0.137-0.929,0.246-1.148c0.492-0.328,0.93-0.273,1.313,0.164c0.164,0.164,0.52,0.547,1.066,1.148
				c0.546,0.656,0.93,1.095,1.148,1.313C270.262,119.012,270.18,119.45,269.798,119.832z M272.259,131.727
				c-0.547-0.054-0.849-0.355-0.902-0.902v-9.27c0-0.71,0.382-1.066,1.148-1.066h3.609c-0.219-0.109-0.603-0.328-1.148-0.656
				c-0.767-0.437-1.313-0.738-1.641-0.902c-0.328-0.273-0.383-0.574-0.164-0.902c0.328-0.273,0.738-0.328,1.23-0.164
				c0.382,0.219,0.52,0.301,0.41,0.246c1.094,0.603,1.94,1.066,2.543,1.395l2.953-1.641c0.054-0.054,0.082-0.109,0.082-0.164
				c0-0.054-0.055-0.082-0.164-0.082h-8.695c-0.438-0.054-0.685-0.328-0.738-0.82c0-0.437,0.246-0.656,0.738-0.656h11.156
				c0.492,0.055,0.766,0.301,0.82,0.738c0,0.656-0.246,1.066-0.738,1.23l-4.102,2.379h3.855c0.766,0,1.148,0.356,1.148,1.066v7.629
				c0.109,1.532-0.603,2.297-2.133,2.297c-0.328,0.055-0.82,0.082-1.477,0.082c-0.492-0.054-0.793-0.3-0.902-0.738
				c-0.055-0.437,0.109-0.683,0.492-0.738c0.109,0,0.3,0.028,0.574,0.082c0.273,0,0.438,0,0.492,0
				c0.874,0.055,1.284-0.41,1.23-1.395v-0.492h-3.527v2.215c-0.055,0.547-0.356,0.849-0.902,0.902
				c-0.547-0.054-0.849-0.355-0.902-0.902v-2.215h-3.527v2.543C273.024,131.372,272.751,131.673,272.259,131.727z M273.079,122.375
				v1.395h3.527v-1.887h-2.871C273.297,121.883,273.079,122.047,273.079,122.375z M273.079,125.082v1.887h3.527v-1.887H273.079z
				 M281.364,121.883h-2.953v1.887h3.527v-1.395C281.938,122.047,281.746,121.883,281.364,121.883z M278.411,125.082v1.887h3.527
				v-1.887H278.411z"/>
			<path class="st1" d="M287.435,128.364c-0.492,0.383-0.931,0.328-1.313-0.164c-0.328-0.437-0.274-0.929,0.164-1.477
				c1.858-1.694,3.445-3.554,4.758-5.578c0.438-0.437,0.874-0.519,1.313-0.246c0.492,0.274,0.602,0.711,0.328,1.313
				c-0.547,0.82-1.121,1.614-1.723,2.379v9.598c-0.055,0.601-0.383,0.929-0.984,0.984c-0.547-0.055-0.849-0.383-0.902-0.984v-7.383
				C288.528,127.352,287.98,127.871,287.435,128.364z M287.927,121.473c-0.547,0.328-1.013,0.246-1.395-0.246
				c-0.328-0.492-0.246-0.956,0.246-1.395c1.422-1.093,2.789-2.488,4.102-4.184c0.382-0.382,0.848-0.437,1.395-0.164
				c0.438,0.383,0.492,0.82,0.164,1.313C291.235,118.274,289.731,119.832,287.927,121.473z M294.325,124.508
				c-0.603-0.054-0.931-0.355-0.984-0.902c0.054-0.601,0.382-0.929,0.984-0.984h10.828c0.546,0.055,0.848,0.383,0.902,0.984
				c-0.055,0.547-0.356,0.849-0.902,0.902h-2.789v6.973c0.109,2.022-0.875,3.035-2.953,3.035c-0.603,0.054-1.477,0.082-2.625,0.082
				c-0.656-0.055-1.013-0.41-1.066-1.066c0-0.547,0.273-0.82,0.82-0.82c0.71,0,1.422,0,2.133,0c1.202,0.054,1.776-0.464,1.723-1.559
				v-6.645H294.325z M295.31,118.356c-0.547-0.054-0.849-0.355-0.902-0.902c0.054-0.546,0.355-0.847,0.902-0.902h8.941
				c0.546,0.055,0.848,0.356,0.902,0.902c-0.055,0.547-0.356,0.849-0.902,0.902H295.31z"/>
			<path class="st1" d="M322.544,126.067c-0.328,0-0.547-0.164-0.656-0.492c0.054-0.382,0.246-0.574,0.574-0.574
				c0.438,0,0.874,0,1.313,0c0.492,0.055,0.71-0.109,0.656-0.492c0.054-0.054,0.082-0.164,0.082-0.328s-0.082-0.246-0.246-0.246
				h-3.691v1.148c-0.055,0.547-0.328,0.849-0.82,0.902c-0.603,0-0.902-0.3-0.902-0.902v-1.148h-3.773
				c-0.328,0.984-1.013,1.805-2.051,2.461h9.762c0.71,0.055,1.094,0.41,1.148,1.066v3.117c-0.055,0.547-0.383,0.849-0.984,0.902
				c-0.547-0.054-0.849-0.355-0.902-0.902v-2.297c0-0.328-0.164-0.492-0.492-0.492H312.7c-0.383,0-0.574,0.164-0.574,0.492v2.543
				c-0.055,0.603-0.356,0.931-0.902,0.984c-0.547-0.054-0.849-0.382-0.902-0.984v-3.281c-0.274,0.11-0.656,0.246-1.148,0.41
				c-0.383,0.11-0.685,0.192-0.902,0.246c-0.656,0.11-1.066-0.054-1.23-0.492c-0.11-0.546,0.054-0.902,0.492-1.066
				c3.227-0.601,5.086-1.503,5.578-2.707h-3.527c-0.767-0.054-1.121-0.41-1.066-1.066l0.328-2.297
				c0.109-0.656,0.52-0.984,1.23-0.984h3.609c0-0.492,0-1.011,0-1.559h-5.086c-0.383-0.054-0.603-0.273-0.656-0.656
				c0-0.492,0.218-0.738,0.656-0.738h5.168c0-0.273,0-0.546,0-0.82c0.054-0.546,0.355-0.847,0.902-0.902
				c0.546,0.055,0.848,0.356,0.902,0.902c0,0.274,0,0.547,0,0.82h3.281v-0.82c0.054-0.546,0.355-0.847,0.902-0.902
				c0.492,0.055,0.766,0.356,0.82,0.902v0.82h3.773c0.71,0,1.066,0.383,1.066,1.148v2.051c0,0.767-0.356,1.148-1.066,1.148h-3.773
				v1.559h4.594c0.71,0,1.066,0.356,1.066,1.066c-0.055,0.328-0.082,0.629-0.082,0.902c-0.055,0.984-0.656,1.477-1.805,1.477
				C324.02,126.04,323.418,126.067,322.544,126.067z M309.009,135.008c-0.656,0.054-1.095-0.164-1.313-0.656
				c-0.055-0.711,0.191-1.095,0.738-1.148c5.086-0.383,7.656-1.694,7.711-3.938c0.109-0.656,0.438-0.956,0.984-0.902
				c0.656,0.055,0.956,0.383,0.902,0.984c-0.055,0.383-0.164,0.793-0.328,1.23c2.078,0.603,4.758,1.423,8.039,2.461
				c0.546,0.273,0.71,0.683,0.492,1.23c-0.219,0.492-0.656,0.656-1.313,0.492c-0.656-0.219-1.723-0.603-3.199-1.148
				c-2.188-0.767-3.773-1.313-4.758-1.641C316.035,133.394,313.384,134.406,309.009,135.008z M310.321,122.293
				c0,0.164,0.109,0.246,0.328,0.246h2.871c0.054-0.164,0.082-0.382,0.082-0.656c0.054-0.328,0.082-0.574,0.082-0.738v-0.164h-2.789
				c-0.274,0-0.41,0.11-0.41,0.328L310.321,122.293z M315.489,121.227c0,0.164-0.028,0.383-0.082,0.656
				c0,0.274-0.028,0.492-0.082,0.656h3.527v-1.559h-3.363V121.227z M315.489,118.028c0,0.547,0,1.066,0,1.559h3.363v-1.559H315.489z
				 M323.364,118.028h-2.789v1.559h2.789c0.218,0,0.328-0.109,0.328-0.328v-0.902C323.692,118.138,323.582,118.028,323.364,118.028z
				"/>
			<path class="st1" d="M34.204,174.516c-0.383-0.383-0.383-0.849,0-1.395c0.328-0.438,0.902-1.202,1.723-2.297
				c0.218-0.218,0.355-0.382,0.41-0.492v-5.988c0-0.218-0.137-0.328-0.41-0.328h-1.148c-0.492-0.054-0.738-0.355-0.738-0.902
				c0.054-0.546,0.355-0.847,0.902-0.902h2.215c0.71,0,1.066,0.356,1.066,1.066v6.973c0.874,1.532,2.269,2.297,4.184,2.297
				c3.335,0.109,6.754,0.082,10.254-0.082c0.766,0.054,1.176,0.382,1.23,0.984c-0.11,0.656-0.547,0.984-1.313,0.984
				c-3.828,0-7.355-0.055-10.582-0.164c-2.023,0.054-3.474-0.603-4.348-1.969c-0.164-0.273-0.356-0.273-0.574,0
				c-0.219,0.273-0.574,0.738-1.066,1.395c-0.11,0.164-0.192,0.3-0.246,0.41C35.27,174.762,34.75,174.898,34.204,174.516z
				 M38.716,159.832c-0.603,0.328-1.066,0.219-1.395-0.328c-0.438-0.71-1.039-1.585-1.805-2.625
				c-0.274-0.546-0.164-0.956,0.328-1.23c0.438-0.218,0.874-0.109,1.313,0.328c0.82,1.04,1.422,1.887,1.805,2.543
				C39.235,159.067,39.153,159.504,38.716,159.832z M39.454,170.578c-0.438-0.273-0.521-0.765-0.246-1.477
				c1.422-1.75,2.078-4.292,1.969-7.629v-3.773c0.054-0.765,0.464-1.175,1.23-1.23c2.679-0.054,5.934-0.3,9.762-0.738
				c0.602-0.054,0.984,0.192,1.148,0.738c0.054,0.547-0.246,0.875-0.902,0.984c-3.063,0.383-6.017,0.574-8.859,0.574
				c-0.328,0.055-0.492,0.246-0.492,0.574v2.051h8.449c0.656,0.055,1.012,0.383,1.066,0.984c0,0.603-0.137,1.177-0.41,1.723
				c-0.656,1.477-1.505,2.762-2.543,3.855l3.117,2.461c0.382,0.383,0.41,0.849,0.082,1.395c-0.492,0.383-0.957,0.383-1.395,0
				c-1.039-0.874-2.079-1.723-3.117-2.543c-1.367,1.095-3.008,2.106-4.922,3.035c-0.603,0.219-1.066,0.055-1.395-0.492
				c-0.219-0.546-0.028-0.956,0.574-1.23c1.641-0.656,3.117-1.477,4.43-2.461c-0.328-0.273-0.82-0.683-1.477-1.23
				c-0.656-0.492-1.148-0.874-1.477-1.148c-0.383-0.273-0.438-0.656-0.164-1.148c0.492-0.328,0.956-0.328,1.395,0
				c0.984,0.711,1.996,1.477,3.035,2.297c0.93-0.984,1.668-2.104,2.215-3.363c0.109-0.328,0-0.464-0.328-0.41h-7.219
				c0,3.008-0.711,5.578-2.133,7.711C40.466,170.689,40,170.853,39.454,170.578z"/>
			<path class="st1" d="M57.419,175.09c-0.603-0.055-0.931-0.356-0.984-0.902v-11.32c0-0.765,0.382-1.148,1.148-1.148h14.766
				c0.766,0,1.148,0.383,1.148,1.148v9.105c0.109,1.805-0.711,2.734-2.461,2.789c-0.984,0-1.915,0-2.789,0
				c-0.547,0-0.875-0.274-0.984-0.82c0.054-0.603,0.328-0.931,0.82-0.984c0.766,0,1.504,0,2.215,0
				c0.874,0.054,1.284-0.383,1.23-1.313v-7.793c0-0.328-0.164-0.492-0.492-0.492H58.895c-0.328,0-0.492,0.164-0.492,0.492v10.336
				C58.349,174.734,58.02,175.035,57.419,175.09z M57.829,159.996c-0.711-0.054-1.095-0.41-1.148-1.066v-2.379
				c0.054-0.492,0.355-0.765,0.902-0.82c0.602,0.055,0.93,0.328,0.984,0.82v1.313c0,0.328,0.136,0.492,0.41,0.492h5.004v-2.461
				c0.054-0.546,0.355-0.847,0.902-0.902c0.602,0.055,0.93,0.356,0.984,0.902v2.461h5.004c0.273,0,0.41-0.164,0.41-0.492v-1.313
				c0.054-0.492,0.382-0.765,0.984-0.82c0.546,0.055,0.848,0.328,0.902,0.82v2.379c-0.055,0.656-0.438,1.013-1.148,1.066H57.829z
				 M60.7,172.465c-0.547,0.218-1.013,0.136-1.395-0.246c-0.274-0.492-0.192-0.929,0.246-1.313c1.366-0.82,2.707-1.694,4.02-2.625
				c-1.148-0.82-2.27-1.612-3.363-2.379c-0.383-0.328-0.438-0.71-0.164-1.148c0.382-0.437,0.82-0.492,1.313-0.164
				c0.438,0.274,1.066,0.685,1.887,1.23c0.82,0.603,1.422,1.04,1.805,1.313c0.984-0.765,1.969-1.612,2.953-2.543
				c0.382-0.382,0.82-0.41,1.313-0.082c0.328,0.383,0.355,0.767,0.082,1.148c-0.931,0.875-1.887,1.723-2.871,2.543
				c0.492,0.328,1.202,0.82,2.133,1.477c0.492,0.383,0.874,0.656,1.148,0.82c0.438,0.438,0.492,0.902,0.164,1.395
				c-0.383,0.383-0.849,0.41-1.395,0.082c-0.164-0.109-0.41-0.3-0.738-0.574c-0.711-0.492-1.641-1.175-2.789-2.051
				c-0.656,0.547-1.695,1.313-3.117,2.297C61.384,172.028,60.974,172.301,60.7,172.465z"/>
			<path class="st1" d="M77.27,161.555c-0.438,0.328-0.849,0.274-1.23-0.164c-0.274-0.492-0.192-0.956,0.246-1.395
				c1.805-1.421,3.227-3.007,4.266-4.758c0.382-0.382,0.82-0.519,1.313-0.41c0.492,0.383,0.628,0.767,0.41,1.148l-0.41,0.574h13.289
				c0.492,0.055,0.766,0.301,0.82,0.738c0,0.492-0.274,0.767-0.82,0.82H80.798c-0.274,0.274-0.685,0.711-1.23,1.313
				c0.382-0.382,0.328-0.3-0.164,0.246c0.164-0.109,0.355-0.164,0.574-0.164H92.61c0.766,0,1.148,0.383,1.148,1.148v4.512
				c0,0.767-0.383,1.148-1.148,1.148h-9.762c0.109,0,0.191,0.028,0.246,0.082c0.438,0.164,0.52,0.492,0.246,0.984
				c0,0.055-0.055,0.11-0.164,0.164c-0.055,0.11-0.11,0.192-0.164,0.246h9.844c0.438,0.055,0.71,0.301,0.82,0.738
				c0.109,0.438-0.055,0.82-0.492,1.148c-1.148,0.875-2.543,1.696-4.184,2.461c1.805,0.492,3.938,0.847,6.398,1.066
				c0.492,0.164,0.684,0.519,0.574,1.066c-0.164,0.437-0.521,0.601-1.066,0.492c-3.281-0.383-6.017-0.958-8.203-1.723
				c-2.571,0.874-5.578,1.559-9.023,2.051c-0.492,0-0.849-0.192-1.066-0.574c-0.11-0.547,0.109-0.875,0.656-0.984
				c2.625-0.383,4.976-0.875,7.055-1.477c-1.313-0.656-2.489-1.395-3.527-2.215c-0.055,0.055-0.11,0.11-0.164,0.164
				c-1.259,0.931-2.297,1.614-3.117,2.051c-0.492,0.219-0.931,0.137-1.313-0.246c-0.274-0.546-0.164-0.929,0.328-1.148
				c2.133-1.202,3.855-2.515,5.168-3.938c0.164-0.218,0.355-0.355,0.574-0.41h-2.297c-0.767,0-1.148-0.382-1.148-1.148v-4.512
				c0-0.218,0.054-0.41,0.164-0.574c-0.11,0.11-0.301,0.274-0.574,0.492C77.927,161.063,77.544,161.391,77.27,161.555z
				 M80.716,161.391v0.984h11.156v-0.984c0-0.328-0.137-0.492-0.41-0.492H81.208C80.88,160.899,80.716,161.063,80.716,161.391z
				 M91.462,164.918c0.273,0,0.41-0.136,0.41-0.41v-1.066H80.716v1.066c0,0.274,0.164,0.41,0.492,0.41H91.462z M82.52,169.184
				c1.202,0.931,2.543,1.641,4.02,2.133c1.586-0.492,2.925-1.12,4.02-1.887c0.109-0.054,0.164-0.109,0.164-0.164
				c0-0.054-0.055-0.082-0.164-0.082H82.52z"/>
			<path class="st1" d="M99.091,158.848c-0.603-0.054-0.931-0.382-0.984-0.984c0.054-0.601,0.382-0.929,0.984-0.984h15.586
				c0.602,0.055,0.93,0.383,0.984,0.984c-0.055,0.603-0.383,0.931-0.984,0.984h-6.645v12.715h7.793
				c0.602,0.055,0.93,0.383,0.984,0.984c-0.055,0.601-0.383,0.929-0.984,0.984H97.942c-0.603-0.055-0.931-0.383-0.984-0.984
				c0.109-0.601,0.438-0.929,0.984-0.984h7.957v-12.715H99.091z"/>
			<path class="st1" d="M132.478,159.258c-0.055,0.931-0.547,1.423-1.477,1.477c-0.931-0.054-1.423-0.656-1.477-1.805
				c0.109-1.914,0.874-3.226,2.297-3.938c0.438-0.164,0.766-0.027,0.984,0.41c0.273,0.383,0.164,0.738-0.328,1.066
				c-0.547,0.547-0.875,1.04-0.984,1.477C132.149,158.165,132.478,158.602,132.478,159.258z M136.251,159.258
				c-0.055,0.931-0.521,1.423-1.395,1.477c-0.931-0.054-1.423-0.656-1.477-1.805c0.109-1.914,0.874-3.226,2.297-3.938
				c0.438-0.164,0.766-0.027,0.984,0.41c0.273,0.383,0.164,0.738-0.328,1.066c-0.547,0.547-0.875,1.04-0.984,1.477
				C135.95,158.11,136.251,158.548,136.251,159.258z"/>
			<path class="st1" d="M139.152,174.926c-0.492-0.274-0.629-0.685-0.41-1.23c0.164-0.274,0.492-0.849,0.984-1.723
				s0.82-1.448,0.984-1.723c0.218-0.601,0.628-0.792,1.23-0.574c0.546,0.219,0.738,0.603,0.574,1.148
				c-0.656,1.204-1.313,2.406-1.969,3.609C140.164,174.98,139.698,175.144,139.152,174.926z M142.105,168.528
				c-0.711-0.054-1.095-0.437-1.148-1.148v-4.84c0.054-0.71,0.438-1.093,1.148-1.148h5.086v-5.742
				c0.054-0.601,0.382-0.929,0.984-0.984c0.546,0.055,0.848,0.383,0.902,0.984v1.641h8.449c0.546,0.055,0.848,0.356,0.902,0.902
				c-0.055,0.492-0.356,0.767-0.902,0.82h-8.449v2.379h5.988c0.71,0.055,1.094,0.438,1.148,1.148v4.84
				c-0.055,0.711-0.438,1.095-1.148,1.148H142.105z M153.836,166.805c0.273,0,0.41-0.164,0.41-0.492v-2.707
				c0-0.328-0.137-0.492-0.41-0.492h-10.5c-0.274,0-0.41,0.164-0.41,0.492v2.707c0,0.328,0.136,0.492,0.41,0.492H153.836z
				 M146.617,174.762c-0.656,0.109-1.039-0.164-1.148-0.82c-0.055-0.11-0.11-0.274-0.164-0.492
				c-0.438-1.257-0.738-2.104-0.902-2.543c-0.055-0.601,0.191-0.984,0.738-1.148c0.546-0.109,0.93,0.11,1.148,0.656
				c0,0.055,0.054,0.192,0.164,0.41c0.438,1.368,0.71,2.297,0.82,2.789C147.383,174.215,147.163,174.598,146.617,174.762z
				 M151.867,174.516c-0.603,0.164-1.013-0.055-1.23-0.656c-0.11-0.219-0.328-0.738-0.656-1.559s-0.547-1.339-0.656-1.559
				c-0.11-0.601,0.082-0.984,0.574-1.148c0.602-0.164,1.012,0.028,1.23,0.574c0,0.055,0.027,0.11,0.082,0.164
				c0.656,1.477,1.066,2.461,1.23,2.953C152.551,173.942,152.359,174.352,151.867,174.516z M157.527,174.68
				c-0.603,0.164-1.039-0.028-1.313-0.574c-0.82-1.641-1.395-2.761-1.723-3.363c-0.219-0.546-0.055-0.929,0.492-1.148
				c0.546-0.164,0.984,0,1.313,0.492c0.109,0.219,0.355,0.656,0.738,1.313c0.546,1.038,0.874,1.694,0.984,1.969
				C158.237,173.913,158.073,174.352,157.527,174.68z"/>
			<path class="st1" d="M159.496,173.696c-0.328-0.603-0.274-1.122,0.164-1.559c1.75-1.641,3.089-3.363,4.02-5.168
				c-0.438-0.656-1.066-1.612-1.887-2.871c-0.767-1.148-1.313-1.94-1.641-2.379c-0.219-0.437-0.137-0.82,0.246-1.148
				c0.492-0.218,0.93-0.136,1.313,0.246c0.546,0.82,1.53,2.215,2.953,4.184c0.656-1.694,1.12-3.527,1.395-5.496
				c0-0.328-0.164-0.492-0.492-0.492h-5.086c-0.547-0.054-0.849-0.355-0.902-0.902c0.054-0.546,0.355-0.847,0.902-0.902h6.48
				c0.71,0,1.066,0.356,1.066,1.066v0.492c-0.219,2.844-0.931,5.551-2.133,8.121c0.438,0.547,1.012,1.368,1.723,2.461
				c0.602,0.875,1.038,1.505,1.313,1.887c0.273,0.492,0.191,0.958-0.246,1.395c-0.547,0.328-1.039,0.218-1.477-0.328
				c-0.164-0.218-0.383-0.546-0.656-0.984c-0.656-1.038-1.203-1.858-1.641-2.461c-1.039,1.751-2.379,3.445-4.02,5.086
				C160.344,174.324,159.878,174.241,159.496,173.696z M169.504,161.145c-0.547-0.054-0.849-0.355-0.902-0.902
				c0.054-0.546,0.355-0.847,0.902-0.902h5.824v-3.609c0.054-0.601,0.382-0.929,0.984-0.984c0.602,0.055,0.93,0.383,0.984,0.984
				v3.609h1.641c0.546,0.055,0.848,0.356,0.902,0.902c-0.055,0.547-0.356,0.849-0.902,0.902h-1.641v10.09
				c0.054,2.242-0.957,3.335-3.035,3.281c-0.438,0.054-1.313,0.082-2.625,0.082c-0.603,0-0.957-0.301-1.066-0.902
				c0-0.656,0.3-1.013,0.902-1.066c0.656,0,1.34,0,2.051,0c1.313,0.109,1.914-0.519,1.805-1.887v-9.598H169.504z M172.785,168.282
				c-0.492,0.219-0.931,0.11-1.313-0.328c-0.055-0.109-0.164-0.273-0.328-0.492c-0.875-1.585-1.505-2.652-1.887-3.199
				c-0.328-0.492-0.274-0.902,0.164-1.23c0.492-0.218,0.93-0.136,1.313,0.246c0.164,0.219,0.438,0.629,0.82,1.23
				c0.766,1.204,1.284,1.997,1.559,2.379C173.387,167.49,173.277,167.953,172.785,168.282z"/>
			<path class="st1" d="M181.152,174.926c-0.492-0.274-0.629-0.685-0.41-1.23c0.164-0.274,0.492-0.849,0.984-1.723
				s0.82-1.448,0.984-1.723c0.218-0.601,0.628-0.792,1.23-0.574c0.546,0.219,0.738,0.603,0.574,1.148
				c-0.656,1.204-1.313,2.406-1.969,3.609C182.164,174.98,181.698,175.144,181.152,174.926z M184.105,168.528
				c-0.711-0.054-1.095-0.437-1.148-1.148v-4.84c0.054-0.71,0.438-1.093,1.148-1.148h5.086v-5.742
				c0.054-0.601,0.382-0.929,0.984-0.984c0.546,0.055,0.848,0.383,0.902,0.984v1.641h8.449c0.546,0.055,0.848,0.356,0.902,0.902
				c-0.055,0.492-0.356,0.767-0.902,0.82h-8.449v2.379h5.988c0.71,0.055,1.094,0.438,1.148,1.148v4.84
				c-0.055,0.711-0.438,1.095-1.148,1.148H184.105z M195.836,166.805c0.273,0,0.41-0.164,0.41-0.492v-2.707
				c0-0.328-0.137-0.492-0.41-0.492h-10.5c-0.274,0-0.41,0.164-0.41,0.492v2.707c0,0.328,0.136,0.492,0.41,0.492H195.836z
				 M188.617,174.762c-0.656,0.109-1.039-0.164-1.148-0.82c-0.055-0.11-0.11-0.274-0.164-0.492
				c-0.438-1.257-0.738-2.104-0.902-2.543c-0.055-0.601,0.191-0.984,0.738-1.148c0.546-0.109,0.93,0.11,1.148,0.656
				c0,0.055,0.054,0.192,0.164,0.41c0.438,1.368,0.71,2.297,0.82,2.789C189.383,174.215,189.163,174.598,188.617,174.762z
				 M193.867,174.516c-0.603,0.164-1.013-0.055-1.23-0.656c-0.11-0.219-0.328-0.738-0.656-1.559s-0.547-1.339-0.656-1.559
				c-0.11-0.601,0.082-0.984,0.574-1.148c0.602-0.164,1.012,0.028,1.23,0.574c0,0.055,0.027,0.11,0.082,0.164
				c0.656,1.477,1.066,2.461,1.23,2.953C194.551,173.942,194.359,174.352,193.867,174.516z M199.527,174.68
				c-0.603,0.164-1.039-0.028-1.313-0.574c-0.82-1.641-1.395-2.761-1.723-3.363c-0.219-0.546-0.055-0.929,0.492-1.148
				c0.546-0.164,0.984,0,1.313,0.492c0.109,0.219,0.355,0.656,0.738,1.313c0.546,1.038,0.874,1.694,0.984,1.969
				C200.237,173.913,200.073,174.352,199.527,174.68z"/>
			<path class="st1" d="M203.219,156.387c0.054-0.874,0.52-1.339,1.395-1.395c0.93,0.055,1.422,0.629,1.477,1.723
				c-0.11,1.915-0.875,3.228-2.297,3.938c-0.383,0.164-0.711,0.028-0.984-0.41c-0.274-0.328-0.164-0.683,0.328-1.066
				c0.546-0.546,0.874-1.038,0.984-1.477C203.519,157.482,203.219,157.043,203.219,156.387z M206.992,156.387
				c0.054-0.874,0.546-1.339,1.477-1.395c0.93,0.055,1.422,0.629,1.477,1.723c-0.11,1.915-0.875,3.228-2.297,3.938
				c-0.438,0.164-0.767,0.028-0.984-0.41c-0.274-0.328-0.164-0.683,0.328-1.066c0.546-0.546,0.874-1.038,0.984-1.477
				C207.32,157.482,206.992,157.043,206.992,156.387z"/>
			<path class="st1" d="M228.121,174.762c-0.438-0.383-0.521-0.849-0.246-1.395c0.874-1.477,1.284-4.02,1.23-7.629v-8.531
				c0.054-0.71,0.41-1.066,1.066-1.066h3.773c0.71,0,1.066,0.356,1.066,1.066v15.176c0.054,1.421-0.574,2.16-1.887,2.215
				c-0.11,0-0.301,0-0.574,0c-0.274,0.054-0.492,0.082-0.656,0.082c-0.656,0-0.984-0.301-0.984-0.902
				c0-0.438,0.191-0.711,0.574-0.82c0.328,0,0.628,0,0.902,0c0.656,0,0.984-0.328,0.984-0.984v-3.938h-2.625
				c-0.11,2.844-0.603,5.004-1.477,6.48C228.995,174.898,228.613,174.98,228.121,174.762z M230.746,158.11v3.199h2.625v-3.199
				c0-0.273-0.137-0.41-0.41-0.41h-1.805C230.882,157.699,230.746,157.837,230.746,158.11z M230.746,166.395v0.082h2.625v-3.609
				h-2.625V166.395z M237.555,175.172c-0.492-0.055-0.767-0.356-0.82-0.902v-16.898c0-0.765,0.382-1.148,1.148-1.148h7.383
				c0.71,0,1.066,0.383,1.066,1.148c0,0.656-0.028,1.313-0.082,1.969c-0.055,1.805-1.013,2.653-2.871,2.543
				c-0.383,0.055-1.121,0.082-2.215,0.082c-0.383,0-0.685-0.246-0.902-0.738c0.054-0.492,0.273-0.765,0.656-0.82h1.805
				c1.202,0.11,1.776-0.273,1.723-1.148c0.054-0.382,0.082-0.738,0.082-1.066c0-0.218-0.11-0.328-0.328-0.328h-5.332
				c-0.274,0-0.41,0.137-0.41,0.41v5.168h7.301c0.492,0.055,0.766,0.328,0.82,0.82c0,0.711-0.082,1.259-0.246,1.641
				c-0.603,1.86-1.395,3.445-2.379,4.758c0.874,0.82,1.969,1.532,3.281,2.133c0.438,0.328,0.546,0.765,0.328,1.313
				c-0.274,0.492-0.711,0.601-1.313,0.328c-1.367-0.711-2.516-1.532-3.445-2.461c-0.82,0.82-1.777,1.641-2.871,2.461
				c-0.547,0.218-1.013,0.136-1.395-0.246v-0.082c-0.055-0.055-0.082-0.11-0.082-0.164v0.328
				C238.402,174.816,238.101,175.117,237.555,175.172z M239.359,165.903c-0.11-0.382-0.082-0.656,0.082-0.82h-0.984v8.285
				c0.054-0.219,0.191-0.383,0.41-0.492c1.094-0.765,1.996-1.503,2.707-2.215C240.699,169.512,239.961,167.927,239.359,165.903z
				 M240.836,165.246c0.492,1.641,1.12,3.008,1.887,4.102c0.766-0.929,1.448-2.242,2.051-3.938c0.054-0.164,0.054-0.246,0-0.246
				c0-0.054-0.11-0.082-0.328-0.082h-3.773C240.781,165.082,240.836,165.137,240.836,165.246z"/>
			<path class="st1" d="M250.68,161.801c-0.492,0.328-0.931,0.246-1.313-0.246c-0.328-0.437-0.274-0.847,0.164-1.23
				c2.022-1.53,3.773-3.199,5.25-5.004c0.492-0.492,0.956-0.601,1.395-0.328c0.438,0.328,0.492,0.738,0.164,1.23
				c-0.164,0.164-0.328,0.383-0.492,0.656h9.516c0.546,0.055,0.848,0.328,0.902,0.82c0,0.603-0.219,1.066-0.656,1.395
				c-1.367,1.313-2.871,2.407-4.512,3.281c1.805,0.547,4.155,0.984,7.055,1.313c0.492,0.055,0.71,0.41,0.656,1.066
				c-0.164,0.492-0.547,0.738-1.148,0.738c-3.609-0.437-6.509-1.12-8.695-2.051c-2.461,0.984-5.496,1.751-9.105,2.297
				c-0.711,0.055-1.121-0.164-1.23-0.656c-0.11-0.546,0.136-0.902,0.738-1.066c2.734-0.382,5.222-0.929,7.465-1.641
				c-1.203-0.82-2.352-1.805-3.445-2.953C252.512,160.242,251.609,161.036,250.68,161.801z M250.516,174.926
				c-0.656,0.218-1.148,0.027-1.477-0.574c-0.219-0.547-0.055-0.958,0.492-1.23c3.663-1.038,5.714-2.597,6.152-4.676h-5.168
				c-0.492-0.054-0.767-0.328-0.82-0.82c0.054-0.546,0.328-0.847,0.82-0.902h5.496c0.109-0.437,0.164-0.929,0.164-1.477
				c0.109-0.546,0.464-0.847,1.066-0.902c0.602,0.11,0.902,0.465,0.902,1.066c0,0.492-0.055,0.931-0.164,1.313h7.137
				c0.71,0.055,1.094,0.438,1.148,1.148c0,0.219-0.028,0.547-0.082,0.984c-0.055,0.875-0.11,1.532-0.164,1.969
				c0.054,2.57-1.23,3.8-3.855,3.691c-0.492,0.054-1.531,0.082-3.117,0.082c-0.656-0.055-1.013-0.383-1.066-0.984
				c0.054-0.547,0.382-0.849,0.984-0.902c0.82,0,1.805,0,2.953,0c1.422,0.164,2.16-0.492,2.215-1.969
				c0-0.164,0.027-0.464,0.082-0.902c0-0.437,0-0.738,0-0.902c0.054-0.273-0.082-0.437-0.41-0.492h-6.07
				C257.242,171.345,254.835,173.503,250.516,174.926z M254.863,158.438c1.202,1.259,2.57,2.297,4.102,3.117
				c1.53-0.82,2.98-1.75,4.348-2.789c0.109-0.054,0.136-0.109,0.082-0.164c-0.055-0.109-0.137-0.164-0.246-0.164H254.863z"/>
			<path class="st1" d="M34.204,214.516c-0.383-0.383-0.383-0.849,0-1.395c0.328-0.438,0.902-1.202,1.723-2.297
				c0.218-0.218,0.355-0.382,0.41-0.492v-5.988c0-0.218-0.137-0.328-0.41-0.328h-1.148c-0.492-0.054-0.738-0.355-0.738-0.902
				c0.054-0.546,0.355-0.847,0.902-0.902h2.215c0.71,0,1.066,0.356,1.066,1.066v6.973c0.874,1.532,2.269,2.297,4.184,2.297
				c3.335,0.109,6.754,0.082,10.254-0.082c0.766,0.054,1.176,0.382,1.23,0.984c-0.11,0.656-0.547,0.984-1.313,0.984
				c-3.828,0-7.355-0.055-10.582-0.164c-2.023,0.054-3.474-0.603-4.348-1.969c-0.164-0.273-0.356-0.273-0.574,0
				c-0.219,0.273-0.574,0.738-1.066,1.395c-0.11,0.164-0.192,0.3-0.246,0.41C35.27,214.762,34.75,214.898,34.204,214.516z
				 M38.716,199.832c-0.603,0.328-1.066,0.219-1.395-0.328c-0.438-0.71-1.039-1.585-1.805-2.625
				c-0.274-0.546-0.164-0.956,0.328-1.23c0.438-0.218,0.874-0.109,1.313,0.328c0.82,1.04,1.422,1.887,1.805,2.543
				C39.235,199.067,39.153,199.504,38.716,199.832z M39.454,210.578c-0.438-0.273-0.521-0.765-0.246-1.477
				c1.422-1.75,2.078-4.292,1.969-7.629v-3.773c0.054-0.765,0.464-1.175,1.23-1.23c2.679-0.054,5.934-0.3,9.762-0.738
				c0.602-0.054,0.984,0.192,1.148,0.738c0.054,0.547-0.246,0.875-0.902,0.984c-3.063,0.383-6.017,0.574-8.859,0.574
				c-0.328,0.055-0.492,0.246-0.492,0.574v2.051h8.449c0.656,0.055,1.012,0.383,1.066,0.984c0,0.603-0.137,1.177-0.41,1.723
				c-0.656,1.477-1.505,2.762-2.543,3.855l3.117,2.461c0.382,0.383,0.41,0.849,0.082,1.395c-0.492,0.383-0.957,0.383-1.395,0
				c-1.039-0.874-2.079-1.723-3.117-2.543c-1.367,1.095-3.008,2.106-4.922,3.035c-0.603,0.219-1.066,0.055-1.395-0.492
				c-0.219-0.546-0.028-0.956,0.574-1.23c1.641-0.656,3.117-1.477,4.43-2.461c-0.328-0.273-0.82-0.683-1.477-1.23
				c-0.656-0.492-1.148-0.874-1.477-1.148c-0.383-0.273-0.438-0.656-0.164-1.148c0.492-0.328,0.956-0.328,1.395,0
				c0.984,0.711,1.996,1.477,3.035,2.297c0.93-0.984,1.668-2.104,2.215-3.363c0.109-0.328,0-0.464-0.328-0.41h-7.219
				c0,3.008-0.711,5.578-2.133,7.711C40.466,210.689,40,210.853,39.454,210.578z"/>
			<path class="st1" d="M57.419,215.09c-0.603-0.055-0.931-0.356-0.984-0.902v-11.32c0-0.765,0.382-1.148,1.148-1.148h14.766
				c0.766,0,1.148,0.383,1.148,1.148v9.105c0.109,1.805-0.711,2.734-2.461,2.789c-0.984,0-1.915,0-2.789,0
				c-0.547,0-0.875-0.274-0.984-0.82c0.054-0.603,0.328-0.931,0.82-0.984c0.766,0,1.504,0,2.215,0
				c0.874,0.054,1.284-0.383,1.23-1.313v-7.793c0-0.328-0.164-0.492-0.492-0.492H58.895c-0.328,0-0.492,0.164-0.492,0.492v10.336
				C58.349,214.734,58.02,215.035,57.419,215.09z M57.829,199.996c-0.711-0.054-1.095-0.41-1.148-1.066v-2.379
				c0.054-0.492,0.355-0.765,0.902-0.82c0.602,0.055,0.93,0.328,0.984,0.82v1.313c0,0.328,0.136,0.492,0.41,0.492h5.004v-2.461
				c0.054-0.546,0.355-0.847,0.902-0.902c0.602,0.055,0.93,0.356,0.984,0.902v2.461h5.004c0.273,0,0.41-0.164,0.41-0.492v-1.313
				c0.054-0.492,0.382-0.765,0.984-0.82c0.546,0.055,0.848,0.328,0.902,0.82v2.379c-0.055,0.656-0.438,1.013-1.148,1.066H57.829z
				 M60.7,212.465c-0.547,0.218-1.013,0.136-1.395-0.246c-0.274-0.492-0.192-0.929,0.246-1.313c1.366-0.82,2.707-1.694,4.02-2.625
				c-1.148-0.82-2.27-1.612-3.363-2.379c-0.383-0.328-0.438-0.71-0.164-1.148c0.382-0.437,0.82-0.492,1.313-0.164
				c0.438,0.274,1.066,0.685,1.887,1.23c0.82,0.603,1.422,1.04,1.805,1.313c0.984-0.765,1.969-1.612,2.953-2.543
				c0.382-0.382,0.82-0.41,1.313-0.082c0.328,0.383,0.355,0.767,0.082,1.148c-0.931,0.875-1.887,1.723-2.871,2.543
				c0.492,0.328,1.202,0.82,2.133,1.477c0.492,0.383,0.874,0.656,1.148,0.82c0.438,0.438,0.492,0.902,0.164,1.395
				c-0.383,0.383-0.849,0.41-1.395,0.082c-0.164-0.109-0.41-0.3-0.738-0.574c-0.711-0.492-1.641-1.175-2.789-2.051
				c-0.656,0.547-1.695,1.313-3.117,2.297C61.384,212.028,60.974,212.301,60.7,212.465z"/>
			<path class="st1" d="M76.204,214.516c-0.328-0.328-0.356-0.793-0.082-1.395c0.109-0.164,0.328-0.438,0.656-0.82
				c0.82-1.038,1.395-1.75,1.723-2.133v-5.906c0-0.218-0.11-0.328-0.328-0.328H76.86c-0.492-0.054-0.767-0.382-0.82-0.984
				c0.054-0.492,0.355-0.765,0.902-0.82h2.297c0.71,0.055,1.094,0.41,1.148,1.066v6.645c1.148,1.696,2.816,2.543,5.004,2.543
				c2.625,0.109,5.714,0.109,9.27,0c0.766,0,1.148,0.328,1.148,0.984c0,0.601-0.438,0.902-1.313,0.902
				c-0.931,0-2.571-0.028-4.922-0.082c-2.188,0-3.72,0-4.594,0c-2.188,0-3.884-0.711-5.086-2.133c-0.219-0.273-0.41-0.273-0.574,0
				c-0.656,0.82-1.177,1.53-1.559,2.133C77.27,214.789,76.75,214.898,76.204,214.516z M80.634,199.75
				c-0.492,0.219-0.957,0.11-1.395-0.328c-0.492-0.82-1.066-1.694-1.723-2.625c-0.274-0.437-0.192-0.847,0.246-1.23
				c0.492-0.218,0.93-0.136,1.313,0.246c0.602,0.82,1.23,1.696,1.887,2.625C81.29,198.93,81.18,199.368,80.634,199.75z
				 M82.685,203.196c-0.547-0.054-0.849-0.355-0.902-0.902c0.054-0.492,0.355-0.765,0.902-0.82h12.141c0.546,0,0.82,0.274,0.82,0.82
				c-0.055,0.547-0.328,0.849-0.82,0.902h-6.152c-0.931,1.423-2.051,2.981-3.363,4.676c-0.055,0.055-0.082,0.137-0.082,0.246
				c0.054,0.055,0.136,0.082,0.246,0.082c0.656-0.054,1.776-0.109,3.363-0.164c1.313-0.054,2.242-0.082,2.789-0.082
				c-0.328-0.437-0.767-1.093-1.313-1.969c-0.055-0.109-0.11-0.191-0.164-0.246c-0.328-0.492-0.246-0.874,0.246-1.148
				c0.492-0.218,0.902-0.109,1.23,0.328c0.984,1.259,2.051,2.762,3.199,4.512c0.273,0.547,0.191,0.984-0.246,1.313
				c-0.603,0.274-1.039,0.164-1.313-0.328c-0.055-0.054-0.11-0.136-0.164-0.246c-0.219-0.218-0.356-0.41-0.41-0.574
				c-3.773,0.219-6.727,0.356-8.859,0.41c-0.711,0-1.148-0.246-1.313-0.738c-0.219-0.492-0.082-0.956,0.41-1.395
				c1.422-1.53,2.57-3.089,3.445-4.676H82.685z M83.915,198.11c-0.492-0.054-0.767-0.355-0.82-0.902
				c0.054-0.546,0.328-0.847,0.82-0.902h9.762c0.492,0.055,0.766,0.356,0.82,0.902c-0.055,0.547-0.328,0.849-0.82,0.902H83.915z"/>
			<path class="st1" d="M97.778,199.504c-0.492-0.054-0.767-0.3-0.82-0.738c0.054-0.546,0.328-0.82,0.82-0.82h1.313
				c0.164-0.71,0.328-1.395,0.492-2.051c0.164-0.546,0.492-0.792,0.984-0.738c0.492,0.11,0.71,0.41,0.656,0.902
				c-0.055,0.219-0.137,0.521-0.246,0.902c-0.11,0.438-0.192,0.767-0.246,0.984h2.379c0.546,0,0.82,0.274,0.82,0.82
				c-0.055,0.438-0.328,0.685-0.82,0.738h-2.789c-0.164,0.492-0.383,1.23-0.656,2.215c-0.274,1.04-0.492,1.805-0.656,2.297
				c-0.11,0.328,0,0.492,0.328,0.492h1.313v-2.625c0.054-0.382,0.273-0.601,0.656-0.656c0.382,0.055,0.602,0.274,0.656,0.656v2.625
				h0.902c0.492,0.055,0.766,0.328,0.82,0.82c-0.055,0.492-0.328,0.767-0.82,0.82h-0.902v2.789c0.109,0,0.273-0.027,0.492-0.082
				c0.218,0,0.382,0,0.492,0c0.546,0,0.848,0.246,0.902,0.738c0,0.492-0.301,0.793-0.902,0.902c-0.11,0-0.274,0-0.492,0
				c-0.219,0.055-0.383,0.082-0.492,0.082v3.609c-0.055,0.437-0.328,0.683-0.82,0.738c-0.492-0.055-0.767-0.301-0.82-0.738v-3.363
				c-0.274,0.055-0.656,0.11-1.148,0.164c-0.547,0.11-0.957,0.192-1.23,0.246c-0.547-0.054-0.875-0.328-0.984-0.82
				c0-0.546,0.246-0.847,0.738-0.902c0.273,0,0.656-0.054,1.148-0.164c0.656-0.054,1.148-0.109,1.477-0.164v-3.035h-2.215
				c-0.492-0.054-0.767-0.3-0.82-0.738c-0.11-0.492-0.082-0.984,0.082-1.477c0.546-1.641,0.984-3.117,1.313-4.43H97.778z
				 M104.669,202.047c-0.603,0.274-1.039,0.219-1.313-0.164c-0.274-0.546-0.192-0.984,0.246-1.313
				c2.351-1.257,4.102-2.816,5.25-4.676c0.328-0.492,0.738-0.738,1.23-0.738s0.902,0.246,1.23,0.738
				c1.094,1.696,2.761,3.117,5.004,4.266c0.492,0.383,0.628,0.793,0.41,1.23c-0.383,0.438-0.875,0.521-1.477,0.246
				c-0.711-0.382-1.395-0.82-2.051-1.313c0.164,0.164,0.218,0.328,0.164,0.492c0,0.492-0.219,0.738-0.656,0.738h-5.25
				c-0.438-0.054-0.685-0.3-0.738-0.738c0-0.109,0.027-0.191,0.082-0.246c-0.328,0.274-0.849,0.629-1.559,1.066
				C104.969,201.801,104.778,201.938,104.669,202.047z M105.161,215.008c-0.438-0.055-0.685-0.301-0.738-0.738v-10.09
				c0-0.765,0.382-1.148,1.148-1.148h3.199c0.766,0,1.148,0.383,1.148,1.148v8.613c0,1.257-0.574,1.914-1.723,1.969
				c-0.274,0-0.547,0-0.82,0c-0.547-0.055-0.849-0.356-0.902-0.902c-0.055-0.438,0.164-0.656,0.656-0.656h0.492
				c0.546,0,0.82-0.274,0.82-0.82v-1.805h-2.543v3.691C105.845,214.707,105.599,214.953,105.161,215.008z M105.899,204.836v1.313
				h2.543v-1.313c0-0.273-0.11-0.41-0.328-0.41h-1.887C106.063,204.426,105.953,204.563,105.899,204.836z M105.899,207.461v1.805
				h2.543v-1.805H105.899z M112.708,200.078c0.054,0,0.109,0,0.164,0l0.164,0.082c-1.039-0.71-1.969-1.641-2.789-2.789l-0.082-0.164
				c-0.055,0-0.11,0.055-0.164,0.164c-0.767,0.984-1.641,1.887-2.625,2.707h0.082H112.708z M112.38,214.68
				c-0.603-0.055-0.931-0.328-0.984-0.82c0-0.492,0.246-0.767,0.738-0.82c0.382,0.054,0.738,0.082,1.066,0.082
				c0.82,0.054,1.202-0.383,1.148-1.313v-8.449c0.054-0.437,0.3-0.683,0.738-0.738c0.438,0.055,0.71,0.301,0.82,0.738v8.859
				c0.054,1.641-0.711,2.461-2.297,2.461c-0.055,0-0.164,0-0.328,0C112.844,214.734,112.544,214.734,112.38,214.68z
				 M112.052,211.235c-0.383-0.054-0.603-0.273-0.656-0.656v-6.234c0.054-0.382,0.273-0.601,0.656-0.656
				c0.492,0,0.738,0.219,0.738,0.656v6.234C112.79,211.017,112.544,211.235,112.052,211.235z"/>
			<path class="st1" d="M118.368,214.762c-0.438-0.383-0.521-0.849-0.246-1.395c0.874-1.477,1.284-4.02,1.23-7.629v-8.531
				c0.054-0.71,0.41-1.066,1.066-1.066h3.773c0.71,0,1.066,0.356,1.066,1.066v15.176c0.054,1.421-0.574,2.16-1.887,2.215
				c-0.11,0-0.301,0-0.574,0c-0.274,0.054-0.492,0.082-0.656,0.082c-0.656,0-0.984-0.301-0.984-0.902
				c0-0.438,0.191-0.711,0.574-0.82c0.328,0,0.628,0,0.902,0c0.656,0,0.984-0.328,0.984-0.984v-3.938h-2.625
				c-0.11,2.844-0.603,5.004-1.477,6.48C119.242,214.898,118.86,214.98,118.368,214.762z M120.993,198.11v3.199h2.625v-3.199
				c0-0.273-0.137-0.41-0.41-0.41h-1.805C121.129,197.699,120.993,197.837,120.993,198.11z M120.993,206.395v0.082h2.625v-3.609
				h-2.625V206.395z M127.802,215.172c-0.492-0.055-0.767-0.356-0.82-0.902v-16.898c0-0.765,0.382-1.148,1.148-1.148h7.383
				c0.71,0,1.066,0.383,1.066,1.148c0,0.656-0.028,1.313-0.082,1.969c-0.055,1.805-1.013,2.653-2.871,2.543
				c-0.383,0.055-1.121,0.082-2.215,0.082c-0.383,0-0.685-0.246-0.902-0.738c0.054-0.492,0.273-0.765,0.656-0.82h1.805
				c1.202,0.11,1.776-0.273,1.723-1.148c0.054-0.382,0.082-0.738,0.082-1.066c0-0.218-0.11-0.328-0.328-0.328h-5.332
				c-0.274,0-0.41,0.137-0.41,0.41v5.168h7.301c0.492,0.055,0.766,0.328,0.82,0.82c0,0.711-0.082,1.259-0.246,1.641
				c-0.603,1.86-1.395,3.445-2.379,4.758c0.874,0.82,1.969,1.532,3.281,2.133c0.438,0.328,0.546,0.765,0.328,1.313
				c-0.274,0.492-0.711,0.601-1.313,0.328c-1.367-0.711-2.516-1.532-3.445-2.461c-0.82,0.82-1.777,1.641-2.871,2.461
				c-0.547,0.218-1.013,0.136-1.395-0.246v-0.082c-0.055-0.055-0.082-0.11-0.082-0.164v0.328
				C128.649,214.816,128.348,215.117,127.802,215.172z M129.606,205.903c-0.11-0.382-0.082-0.656,0.082-0.82h-0.984v8.285
				c0.054-0.219,0.191-0.383,0.41-0.492c1.094-0.765,1.996-1.503,2.707-2.215C130.946,209.512,130.208,207.927,129.606,205.903z
				 M131.083,205.246c0.492,1.641,1.12,3.008,1.887,4.102c0.766-0.929,1.448-2.242,2.051-3.938c0.054-0.164,0.054-0.246,0-0.246
				c0-0.054-0.11-0.082-0.328-0.082h-3.773C131.028,205.082,131.083,205.137,131.083,205.246z"/>
			<path class="st1" d="M140.927,201.801c-0.492,0.328-0.931,0.246-1.313-0.246c-0.328-0.437-0.274-0.847,0.164-1.23
				c2.022-1.53,3.773-3.199,5.25-5.004c0.492-0.492,0.956-0.601,1.395-0.328c0.438,0.328,0.492,0.738,0.164,1.23
				c-0.164,0.164-0.328,0.383-0.492,0.656h9.516c0.546,0.055,0.848,0.328,0.902,0.82c0,0.603-0.219,1.066-0.656,1.395
				c-1.367,1.313-2.871,2.407-4.512,3.281c1.805,0.547,4.155,0.984,7.055,1.313c0.492,0.055,0.71,0.41,0.656,1.066
				c-0.164,0.492-0.547,0.738-1.148,0.738c-3.609-0.437-6.509-1.12-8.695-2.051c-2.461,0.984-5.496,1.751-9.105,2.297
				c-0.711,0.055-1.121-0.164-1.23-0.656c-0.11-0.546,0.136-0.902,0.738-1.066c2.734-0.382,5.222-0.929,7.465-1.641
				c-1.203-0.82-2.352-1.805-3.445-2.953C142.759,200.242,141.856,201.036,140.927,201.801z M140.763,214.926
				c-0.656,0.218-1.148,0.027-1.477-0.574c-0.219-0.547-0.055-0.958,0.492-1.23c3.663-1.038,5.714-2.597,6.152-4.676h-5.168
				c-0.492-0.054-0.767-0.328-0.82-0.82c0.054-0.546,0.328-0.847,0.82-0.902h5.496c0.109-0.437,0.164-0.929,0.164-1.477
				c0.109-0.546,0.464-0.847,1.066-0.902c0.602,0.11,0.902,0.465,0.902,1.066c0,0.492-0.055,0.931-0.164,1.313h7.137
				c0.71,0.055,1.094,0.438,1.148,1.148c0,0.219-0.028,0.547-0.082,0.984c-0.055,0.875-0.11,1.532-0.164,1.969
				c0.054,2.57-1.23,3.8-3.855,3.691c-0.492,0.054-1.531,0.082-3.117,0.082c-0.656-0.055-1.013-0.383-1.066-0.984
				c0.054-0.547,0.382-0.849,0.984-0.902c0.82,0,1.805,0,2.953,0c1.422,0.164,2.16-0.492,2.215-1.969
				c0-0.164,0.027-0.464,0.082-0.902c0-0.437,0-0.738,0-0.902c0.054-0.273-0.082-0.437-0.41-0.492h-6.07
				C147.489,211.345,145.082,213.503,140.763,214.926z M145.11,198.438c1.202,1.259,2.57,2.297,4.102,3.117
				c1.53-0.82,2.98-1.75,4.348-2.789c0.109-0.054,0.136-0.109,0.082-0.164c-0.055-0.109-0.137-0.164-0.246-0.164H145.11z"/>
			<path class="st1" d="M160.204,205.821c-0.274-0.109-0.41-0.328-0.41-0.656c0-0.273,0.054-0.519,0.164-0.738
				c1.53-2.351,2.761-5.222,3.691-8.613c0.164-0.546,0.574-0.765,1.23-0.656c0.546,0.164,0.766,0.547,0.656,1.148
				c-0.438,1.368-0.902,2.68-1.395,3.938v14.027c-0.055,0.492-0.356,0.792-0.902,0.902c-0.547-0.055-0.849-0.356-0.902-0.902
				v-10.336c-0.11,0.164-0.219,0.383-0.328,0.656c-0.11,0.11-0.301,0.41-0.574,0.902
				C161.106,205.985,160.696,206.095,160.204,205.821z M168.161,203.032c-0.711-0.109-1.121-0.519-1.23-1.23v-4.512
				c0.109-0.765,0.52-1.175,1.23-1.23h8.859c0.766,0.055,1.176,0.465,1.23,1.23v4.512c-0.055,0.767-0.465,1.177-1.23,1.23h-3.609
				c0.054,0.11,0.082,0.219,0.082,0.328v2.215h5.66c0.546,0,0.82,0.274,0.82,0.82c-0.055,0.492-0.328,0.767-0.82,0.82h-4.43
				c1.038,1.805,2.597,3.228,4.676,4.266c0.492,0.383,0.628,0.849,0.41,1.395c-0.438,0.437-0.902,0.519-1.395,0.246
				c-2.188-1.202-3.828-2.871-4.922-5.004v6.07c-0.055,0.546-0.356,0.847-0.902,0.902c-0.603-0.055-0.931-0.356-0.984-0.902v-5.988
				c-1.203,2.133-2.926,3.884-5.168,5.25c-0.547,0.273-1.013,0.164-1.395-0.328c-0.219-0.492-0.137-0.902,0.246-1.23
				c2.242-1.313,3.938-2.871,5.086-4.676h-4.43c-0.547-0.054-0.849-0.328-0.902-0.82c0.054-0.492,0.355-0.765,0.902-0.82h5.66
				v-2.215c0-0.109,0.027-0.218,0.082-0.328H168.161z M175.872,201.309c0.382,0,0.574-0.164,0.574-0.492v-2.543
				c0-0.328-0.192-0.492-0.574-0.492h-6.563c-0.328,0.055-0.521,0.219-0.574,0.492v2.543c0,0.274,0.191,0.438,0.574,0.492H175.872z"
				/>
			<path class="st1" d="M182.681,215.254c-0.492-0.055-0.767-0.356-0.82-0.902v-17.063c0-0.765,0.382-1.148,1.148-1.148h3.609
				c0.602,0,0.902,0.274,0.902,0.82c0,0.492-0.082,1.04-0.246,1.641l-1.23,4.266c0,0.274,0.054,0.574,0.164,0.902
				c0.93,1.259,1.395,2.68,1.395,4.266c0.054,1.805-0.603,2.844-1.969,3.117c-0.055,0-0.192,0-0.41,0
				c-0.164,0.055-0.301,0.082-0.41,0.082c-0.547,0.11-0.984-0.218-1.313-0.984v4.102
				C183.446,214.898,183.173,215.199,182.681,215.254z M183.501,198.11v11.977c0.054-0.382,0.246-0.574,0.574-0.574h0.738
				c0.71-0.054,1.094-0.519,1.148-1.395c0.109-1.202-0.246-2.488-1.066-3.855c-0.328-0.492-0.41-1.038-0.246-1.641l1.23-4.512
				c0-0.273-0.11-0.41-0.328-0.41h-1.641C183.637,197.699,183.501,197.837,183.501,198.11z M189.981,209.512
				c-0.767-0.054-1.148-0.41-1.148-1.066v-4.348c0-0.71,0.382-1.066,1.148-1.066h8.367c0.766,0,1.148,0.356,1.148,1.066v4.348
				c0,0.711-0.383,1.066-1.148,1.066h-3.281v1.477h5.332c0.438,0.055,0.684,0.301,0.738,0.738c-0.055,0.438-0.301,0.683-0.738,0.738
				h-5.332v1.805c-0.055,0.546-0.356,0.847-0.902,0.902c-0.547-0.055-0.849-0.356-0.902-0.902v-1.805h-5.414
				c-0.438-0.055-0.685-0.3-0.738-0.738c0.054-0.437,0.3-0.683,0.738-0.738h5.414v-1.477H189.981z M188.997,198.356
				c-0.438-0.054-0.685-0.3-0.738-0.738c0.054-0.492,0.3-0.765,0.738-0.82h4.512c-0.055-0.109-0.11-0.273-0.164-0.492
				c-0.11-0.218-0.192-0.382-0.246-0.492c-0.055-0.437,0.136-0.765,0.574-0.984c0.656-0.054,1.066,0.137,1.23,0.574
				c0.054,0.11,0.136,0.328,0.246,0.656c0.109,0.328,0.191,0.574,0.246,0.738h4.102c0.492,0.055,0.766,0.328,0.82,0.82
				c-0.055,0.438-0.328,0.685-0.82,0.738h-1.477c0.164,0.274,0.191,0.574,0.082,0.902c-0.055,0.11-0.164,0.274-0.328,0.492
				c-0.164,0.274-0.301,0.465-0.41,0.574h2.953c0.438,0.055,0.684,0.301,0.738,0.738c0,0.492-0.246,0.738-0.738,0.738h-12.223
				c-0.438-0.054-0.685-0.3-0.738-0.738c0.054-0.437,0.3-0.683,0.738-0.738h3.117c-0.274-0.273-0.574-0.656-0.902-1.148
				c-0.164-0.328-0.164-0.601,0-0.82H188.997z M190.556,204.754v0.902h7.219v-0.902c0.054-0.328-0.082-0.464-0.41-0.41h-6.398
				C190.691,204.344,190.556,204.481,190.556,204.754z M197.364,208.199c0.328,0,0.464-0.136,0.41-0.41v-0.984h-7.219v0.984
				c0,0.274,0.136,0.41,0.41,0.41H197.364z M196.544,198.602c0.054-0.054,0.082-0.109,0.082-0.164l0.082-0.082h-5.004
				c0.054,0,0.082,0.028,0.082,0.082c0.054,0.11,0.273,0.41,0.656,0.902c0.164,0.219,0.273,0.356,0.328,0.41
				c0.109,0.164,0.136,0.356,0.082,0.574h2.543C195.777,199.723,196.161,199.149,196.544,198.602z"/>
			<path class="st1" d="M216.344,204.344c-0.82,0-1.23-0.382-1.23-1.148v-5.414c0.054-0.601,0.382-0.929,0.984-0.984
				c0.602,0.055,0.93,0.383,0.984,0.984v4.184c0,0.383,0.191,0.574,0.574,0.574h4.43v-6.48c0.054-0.601,0.382-0.929,0.984-0.984
				c0.656,0.055,1.012,0.383,1.066,0.984v6.48h4.43c0.382-0.054,0.574-0.246,0.574-0.574v-4.184
				c0.054-0.601,0.382-0.929,0.984-0.984c0.602,0.055,0.93,0.383,0.984,0.984v5.414c0,0.767-0.41,1.148-1.23,1.148h-5.742v8.203
				h5.086c0.382,0,0.574-0.218,0.574-0.656v-4.922c0.109-0.492,0.438-0.765,0.984-0.82c0.602,0.055,0.93,0.328,0.984,0.82v5.66
				c0,1.038-0.521,1.559-1.559,1.559h-14.191c-0.984,0-1.505-0.521-1.559-1.559v-5.66c0.054-0.546,0.382-0.847,0.984-0.902
				c0.602,0.055,0.93,0.356,0.984,0.902v4.922c0,0.438,0.218,0.656,0.656,0.656h5.004v-8.203H216.344z"/>
			<path class="st1" d="M235.621,208.364c-0.492,0.383-0.931,0.328-1.313-0.164c-0.328-0.437-0.274-0.929,0.164-1.477
				c1.858-1.694,3.445-3.554,4.758-5.578c0.438-0.437,0.874-0.519,1.313-0.246c0.492,0.274,0.602,0.711,0.328,1.313
				c-0.547,0.82-1.121,1.614-1.723,2.379v9.598c-0.055,0.601-0.383,0.929-0.984,0.984c-0.547-0.055-0.849-0.383-0.902-0.984v-7.383
				C236.715,207.352,236.167,207.871,235.621,208.364z M236.113,201.473c-0.547,0.328-1.013,0.246-1.395-0.246
				c-0.328-0.492-0.246-0.956,0.246-1.395c1.422-1.093,2.789-2.488,4.102-4.184c0.382-0.382,0.848-0.437,1.395-0.164
				c0.438,0.383,0.492,0.82,0.164,1.313C239.422,198.274,237.918,199.832,236.113,201.473z M242.512,204.508
				c-0.603-0.054-0.931-0.355-0.984-0.902c0.054-0.601,0.382-0.929,0.984-0.984h10.828c0.546,0.055,0.848,0.383,0.902,0.984
				c-0.055,0.547-0.356,0.849-0.902,0.902h-2.789v6.973c0.109,2.022-0.875,3.035-2.953,3.035c-0.603,0.054-1.477,0.082-2.625,0.082
				c-0.656-0.055-1.013-0.41-1.066-1.066c0-0.547,0.273-0.82,0.82-0.82c0.71,0,1.422,0,2.133,0c1.202,0.054,1.776-0.464,1.723-1.559
				v-6.645H242.512z M243.496,198.356c-0.547-0.054-0.849-0.355-0.902-0.902c0.054-0.546,0.355-0.847,0.902-0.902h8.941
				c0.546,0.055,0.848,0.356,0.902,0.902c-0.055,0.547-0.356,0.849-0.902,0.902H243.496z"/>
			<path class="st1" d="M255.309,205.574c-0.164-0.218-0.274-0.492-0.328-0.82c0-0.054,0.027-0.136,0.082-0.246
				c0.109-0.273,0.191-0.464,0.246-0.574c1.422-2.625,2.433-5.332,3.035-8.121c0.164-0.546,0.52-0.765,1.066-0.656
				c0.546,0.164,0.766,0.492,0.656,0.984c-0.328,1.313-0.767,2.653-1.313,4.02v14.109c0,0.546-0.274,0.82-0.82,0.82
				c-0.492-0.055-0.767-0.328-0.82-0.82v-10.336c-0.164,0.492-0.383,0.958-0.656,1.395
				C256.129,205.821,255.746,205.903,255.309,205.574z M265.152,201.391c-0.492,0-0.738-0.218-0.738-0.656
				c0.054-0.437,0.3-0.683,0.738-0.738h3.281v-1.559h-2.379c-0.383-0.054-0.603-0.273-0.656-0.656c0-0.492,0.218-0.738,0.656-0.738
				h2.379v-1.148c0-0.437,0.273-0.683,0.82-0.738c0.546,0,0.82,0.246,0.82,0.738v1.148h2.543c0.766,0,1.148,0.383,1.148,1.148v1.805
				h0.82c0.438,0,0.656,0.246,0.656,0.738c0,0.438-0.219,0.656-0.656,0.656h-0.82v1.805c0,0.767-0.328,1.148-0.984,1.148h-2.707
				v1.559h3.609c0.382,0.055,0.602,0.274,0.656,0.656c-0.055,0.438-0.274,0.685-0.656,0.738h-3.609v1.559h3.855
				c0.382,0.055,0.602,0.274,0.656,0.656c-0.055,0.438-0.274,0.685-0.656,0.738h-3.855v1.641c0,0.274-0.11,0.492-0.328,0.656
				c1.477,0.109,2.98,0.109,4.512,0c0.546,0.054,0.848,0.355,0.902,0.902c0,0.546-0.328,0.82-0.984,0.82
				c-2.571,0-4.32-0.028-5.25-0.082c-3.063-0.11-5.196-0.82-6.398-2.133c-0.547,0.874-1.203,1.723-1.969,2.543
				c-0.383,0.328-0.793,0.3-1.23-0.082c-0.328-0.383-0.328-0.767,0-1.148c0.874-0.875,1.586-1.75,2.133-2.625
				c-0.547-0.765-1.121-2.078-1.723-3.938c-0.164-0.492,0-0.82,0.492-0.984c0.328-0.109,0.628,0.028,0.902,0.41
				c0.273,1.095,0.628,2.051,1.066,2.871c0.546-1.313,0.848-2.816,0.902-4.512c0-0.328-0.11-0.492-0.328-0.492h-1.641
				c-0.438,0-0.685-0.273-0.738-0.82c0-0.601,0.136-1.093,0.41-1.477l1.969-3.117c0.164-0.273,0.136-0.437-0.082-0.492h-1.969
				c-0.438-0.054-0.685-0.328-0.738-0.82c0.054-0.437,0.3-0.683,0.738-0.738h3.199c0.546,0.055,0.848,0.328,0.902,0.82
				c0,0.383-0.137,0.849-0.41,1.395l-2.051,3.281c-0.055,0.219,0,0.356,0.164,0.41h1.313c0.546,0,0.82,0.274,0.82,0.82v0.574
				c-0.055,2.461-0.521,4.676-1.395,6.645c1.038,1.204,2.871,1.858,5.496,1.969c-0.164-0.164-0.274-0.382-0.328-0.656v-1.641h-3.117
				c-0.438,0-0.656-0.246-0.656-0.738c0.054-0.382,0.273-0.601,0.656-0.656h3.117v-1.559h-2.707c-0.383-0.054-0.603-0.3-0.656-0.738
				c0.054-0.382,0.273-0.601,0.656-0.656h2.707v-1.559h-2.543c-0.438,0-0.656-0.218-0.656-0.656
				c0.054-0.382,0.273-0.601,0.656-0.656h2.543v-1.641H265.152z M271.715,198.438h-1.641v1.559h2.215v-1.066
				C272.343,198.548,272.152,198.384,271.715,198.438z M271.797,203.032c0.382,0.055,0.546-0.109,0.492-0.492v-1.148h-2.215v1.641
				H271.797z"/>
			<path class="st1" d="M276.555,214.926c-0.383-0.274-0.492-0.711-0.328-1.313c1.366-1.805,1.996-4.812,1.887-9.023v-6.48
				c0.054-0.71,0.438-1.093,1.148-1.148h6.809c-0.055-0.164-0.11-0.41-0.164-0.738c-0.11-0.164-0.164-0.3-0.164-0.41
				c-0.11-0.492,0.164-0.82,0.82-0.984c0.656-0.109,1.066,0.055,1.23,0.492c0.109,0.219,0.246,0.629,0.41,1.23
				c0.054,0.164,0.082,0.301,0.082,0.41h6.645c0.438,0.055,0.684,0.328,0.738,0.82c-0.055,0.438-0.301,0.685-0.738,0.738h-6.809
				c0.054,0.055,0.082,0.137,0.082,0.246v1.395h4.676c0.71,0,1.066,0.356,1.066,1.066v1.723h1.641
				c0.382,0.055,0.602,0.301,0.656,0.738c-0.055,0.383-0.274,0.603-0.656,0.656h-1.641v1.805c0,0.767-0.356,1.148-1.066,1.148
				h-4.594c0.054,0.055,0.109,0.137,0.164,0.246c0.546,0.767,1.12,1.45,1.723,2.051c1.094-0.546,2.215-1.175,3.363-1.887
				c0.438-0.218,0.848-0.164,1.23,0.164c0.218,0.438,0.164,0.793-0.164,1.066c-0.164,0.055-0.41,0.192-0.738,0.41
				c-1.095,0.656-1.887,1.095-2.379,1.313c0.984,0.711,2.215,1.313,3.691,1.805c0.492,0.273,0.628,0.683,0.41,1.23
				c-0.274,0.492-0.685,0.628-1.23,0.41c-2.899-1.204-4.95-2.679-6.152-4.43v2.543c0.109,1.641-0.629,2.461-2.215,2.461
				c-0.11,0-0.41,0-0.902,0c-0.492,0.054-0.82,0.082-0.984,0.082c-0.492,0-0.793-0.274-0.902-0.82c0-0.492,0.246-0.738,0.738-0.738
				h1.23c0.93,0.054,1.366-0.356,1.313-1.23v-1.066c-0.383,0.11-0.984,0.328-1.805,0.656c-1.915,0.767-3.254,1.284-4.02,1.559
				c-0.438,0.218-0.82,0.054-1.148-0.492c-0.11-0.492,0.054-0.847,0.492-1.066c0.602-0.218,1.694-0.601,3.281-1.148
				c1.586-0.546,2.652-0.902,3.199-1.066v-2.051h-4.84c-0.492-0.054-0.767-0.3-0.82-0.738c0.054-0.437,0.328-0.656,0.82-0.656h4.84
				v-1.559h-6.316c-0.11,0-0.219-0.027-0.328-0.082v0.41c0.109,4.376-0.547,7.657-1.969,9.844
				C277.539,215.008,277.101,215.144,276.555,214.926z M286.48,198.766c0-0.109,0-0.191,0-0.246h-6.234
				c-0.274,0.055-0.41,0.192-0.41,0.41v4.102c0.054,0,0.109-0.027,0.164-0.082h0.164h6.316v-1.395h-4.758
				c-0.438-0.054-0.685-0.3-0.738-0.738c0.054-0.382,0.3-0.601,0.738-0.656h4.758V198.766z M282.871,210.168
				c-0.164-0.109-0.465-0.328-0.902-0.656c-0.492-0.328-0.82-0.546-0.984-0.656c-0.328-0.273-0.383-0.601-0.164-0.984
				c0.218-0.273,0.602-0.328,1.148-0.164c0.164,0.11,0.492,0.301,0.984,0.574c0.492,0.328,0.82,0.547,0.984,0.656
				c0.328,0.328,0.382,0.685,0.164,1.066C283.719,210.332,283.309,210.387,282.871,210.168z M291.812,201.555h-3.609v1.395h4.02
				v-0.984C292.223,201.692,292.086,201.555,291.812,201.555z M291.812,205.903c0.273,0,0.41-0.136,0.41-0.41v-1.148h-4.02v1.559
				H291.812z"/>
			<path class="st1" d="M297.555,214.762c-0.438-0.383-0.521-0.849-0.246-1.395c0.874-1.477,1.284-4.02,1.23-7.629v-8.531
				c0.054-0.71,0.41-1.066,1.066-1.066h3.773c0.71,0,1.066,0.356,1.066,1.066v15.176c0.054,1.421-0.574,2.16-1.887,2.215
				c-0.11,0-0.301,0-0.574,0c-0.274,0.054-0.492,0.082-0.656,0.082c-0.656,0-0.984-0.301-0.984-0.902
				c0-0.438,0.191-0.711,0.574-0.82c0.328,0,0.628,0,0.902,0c0.656,0,0.984-0.328,0.984-0.984v-3.938h-2.625
				c-0.11,2.844-0.603,5.004-1.477,6.48C298.429,214.898,298.047,214.98,297.555,214.762z M300.18,198.11v3.199h2.625v-3.199
				c0-0.273-0.137-0.41-0.41-0.41h-1.805C300.315,197.699,300.18,197.837,300.18,198.11z M300.18,206.395v0.082h2.625v-3.609h-2.625
				V206.395z M306.988,215.172c-0.492-0.055-0.767-0.356-0.82-0.902v-16.898c0-0.765,0.382-1.148,1.148-1.148h7.383
				c0.71,0,1.066,0.383,1.066,1.148c0,0.656-0.028,1.313-0.082,1.969c-0.055,1.805-1.013,2.653-2.871,2.543
				c-0.383,0.055-1.121,0.082-2.215,0.082c-0.383,0-0.685-0.246-0.902-0.738c0.054-0.492,0.273-0.765,0.656-0.82h1.805
				c1.202,0.11,1.776-0.273,1.723-1.148c0.054-0.382,0.082-0.738,0.082-1.066c0-0.218-0.11-0.328-0.328-0.328h-5.332
				c-0.274,0-0.41,0.137-0.41,0.41v5.168h7.301c0.492,0.055,0.766,0.328,0.82,0.82c0,0.711-0.082,1.259-0.246,1.641
				c-0.603,1.86-1.395,3.445-2.379,4.758c0.874,0.82,1.969,1.532,3.281,2.133c0.438,0.328,0.546,0.765,0.328,1.313
				c-0.274,0.492-0.711,0.601-1.313,0.328c-1.367-0.711-2.516-1.532-3.445-2.461c-0.82,0.82-1.777,1.641-2.871,2.461
				c-0.547,0.218-1.013,0.136-1.395-0.246v-0.082c-0.055-0.055-0.082-0.11-0.082-0.164v0.328
				C307.836,214.816,307.534,215.117,306.988,215.172z M308.793,205.903c-0.11-0.382-0.082-0.656,0.082-0.82h-0.984v8.285
				c0.054-0.219,0.191-0.383,0.41-0.492c1.094-0.765,1.996-1.503,2.707-2.215C310.133,209.512,309.395,207.927,308.793,205.903z
				 M310.27,205.246c0.492,1.641,1.12,3.008,1.887,4.102c0.766-0.929,1.448-2.242,2.051-3.938c0.054-0.164,0.054-0.246,0-0.246
				c0-0.054-0.11-0.082-0.328-0.082h-3.773C310.215,205.082,310.27,205.137,310.27,205.246z"/>
			<path class="st1" d="M320.113,201.801c-0.492,0.328-0.931,0.246-1.313-0.246c-0.328-0.437-0.274-0.847,0.164-1.23
				c2.022-1.53,3.773-3.199,5.25-5.004c0.492-0.492,0.956-0.601,1.395-0.328c0.438,0.328,0.492,0.738,0.164,1.23
				c-0.164,0.164-0.328,0.383-0.492,0.656h9.516c0.546,0.055,0.848,0.328,0.902,0.82c0,0.603-0.219,1.066-0.656,1.395
				c-1.367,1.313-2.871,2.407-4.512,3.281c1.805,0.547,4.155,0.984,7.055,1.313c0.492,0.055,0.71,0.41,0.656,1.066
				c-0.164,0.492-0.547,0.738-1.148,0.738c-3.609-0.437-6.509-1.12-8.695-2.051c-2.461,0.984-5.496,1.751-9.105,2.297
				c-0.711,0.055-1.121-0.164-1.23-0.656c-0.11-0.546,0.136-0.902,0.738-1.066c2.734-0.382,5.222-0.929,7.465-1.641
				c-1.203-0.82-2.352-1.805-3.445-2.953C321.945,200.242,321.043,201.036,320.113,201.801z M319.949,214.926
				c-0.656,0.218-1.148,0.027-1.477-0.574c-0.219-0.547-0.055-0.958,0.492-1.23c3.663-1.038,5.714-2.597,6.152-4.676h-5.168
				c-0.492-0.054-0.767-0.328-0.82-0.82c0.054-0.546,0.328-0.847,0.82-0.902h5.496c0.109-0.437,0.164-0.929,0.164-1.477
				c0.109-0.546,0.464-0.847,1.066-0.902c0.602,0.11,0.902,0.465,0.902,1.066c0,0.492-0.055,0.931-0.164,1.313h7.137
				c0.71,0.055,1.094,0.438,1.148,1.148c0,0.219-0.028,0.547-0.082,0.984c-0.055,0.875-0.11,1.532-0.164,1.969
				c0.054,2.57-1.23,3.8-3.855,3.691c-0.492,0.054-1.531,0.082-3.117,0.082c-0.656-0.055-1.013-0.383-1.066-0.984
				c0.054-0.547,0.382-0.849,0.984-0.902c0.82,0,1.805,0,2.953,0c1.422,0.164,2.16-0.492,2.215-1.969
				c0-0.164,0.027-0.464,0.082-0.902c0-0.437,0-0.738,0-0.902c0.054-0.273-0.082-0.437-0.41-0.492h-6.07
				C326.676,211.345,324.269,213.503,319.949,214.926z M324.297,198.438c1.202,1.259,2.57,2.297,4.102,3.117
				c1.53-0.82,2.98-1.75,4.348-2.789c0.109-0.054,0.136-0.109,0.082-0.164c-0.055-0.109-0.137-0.164-0.246-0.164H324.297z"/>
		</g>
	</g>
</g>
</svg>