<!-- Generator: Adobe Illustrator 24.1.3, SVG Export Plug-In  -->
<svg version="1.1" xmlns="http://www.w3.org/2000/svg" xmlns:xlink="http://www.w3.org/1999/xlink" x="0px" y="0px"
	 width="500.753px" height="977.071px" viewBox="0 0 500.753 977.071"
	 style="overflow:visible;enable-background:new 0 0 500.753 977.071;" xml:space="preserve">
<style type="text/css">
	.st0{fill:#FFFFFF;stroke:#1C3B94;stroke-width:19.4763;stroke-linecap:round;stroke-linejoin:round;stroke-miterlimit:10;}
	.st1{fill:none;}
	.st2{fill:#1C3B94;}
	.st3{fill:#BF2222;}
	.st4{font-family:'HYQingFenTi-W';}
	.st5{font-size:146px;}
	.st6{letter-spacing:14;}
</style>
<defs>
</defs>
<g>
	<rect x="9.738" y="9.738" class="st0" width="481.277" height="957.595"/>
	<g>
		<rect x="97.658" y="112.99" class="st1" width="309.88" height="773.902"/>
		<path class="st2" d="M115.909,208.037c-2.336,2.24-4.526,3.212-6.57,2.92s-3.602-1.216-4.672-2.774
			c-1.072-1.556-1.438-3.38-1.096-5.475c0.34-2.092,1.775-3.819,4.308-5.183c3.6-1.946,6.837-3.942,9.709-5.986
			c2.87-2.044,5.425-3.99,7.665-5.84c0.193-0.194,0.365-0.315,0.511-0.365c0.146-0.048,0.315-0.121,0.511-0.219
			c0.194-5.84,0.314-12.287,0.365-19.345c0.048-7.056,0.073-14.867,0.073-23.433c0-2.432,0.753-4.257,2.263-5.475
			c1.508-1.216,3.139-1.825,4.891-1.825s3.381,0.634,4.892,1.898c1.508,1.266,2.263,3.164,2.263,5.694
			c0,7.008-0.025,13.482-0.072,19.418c-0.051,5.938-0.172,11.461-0.365,16.571c-0.196,5.11-0.463,9.855-0.803,14.235
			c-0.343,4.38-0.756,8.518-1.242,12.41c-0.682,5.062-1.656,9.687-2.92,13.87c-1.266,4.186-2.896,8.08-4.891,11.68
			c-1.996,3.602-4.404,7.031-7.227,10.293c-2.824,3.26-6.133,6.497-9.928,9.709c-0.877,0.68-1.803,0.924-2.774,0.73
			c-0.974-0.196-1.802-0.634-2.481-1.314c-0.683-0.682-1.048-1.533-1.096-2.555c-0.051-1.022,0.413-2.069,1.387-3.139
			c4.866-4.77,8.614-10.195,11.242-16.279c2.628-6.082,4.38-13.505,5.256-22.265l0.73-9.636
			C123.012,200.349,119.704,204.241,115.909,208.037z M109.776,168.471c-0.779-2.628-1.558-5.256-2.336-7.884
			c-0.779-2.628-1.51-4.818-2.189-6.57c-0.293-0.972-0.244-1.92,0.146-2.847c0.388-0.924,0.972-1.629,1.753-2.117
			c0.777-0.486,1.678-0.657,2.7-0.511s2.019,0.803,2.993,1.971c0.584,0.682,1.314,1.631,2.189,2.847
			c0.877,1.218,1.752,2.482,2.629,3.796c0.875,1.314,1.701,2.532,2.481,3.65c0.778,1.12,1.313,1.923,1.606,2.409
			c1.556,2.336,1.971,4.503,1.24,6.497c-0.729,1.996-1.947,3.431-3.649,4.307c-1.704,0.876-3.505,0.949-5.402,0.219
			S110.653,171.587,109.776,168.471z M231.54,238.405c2.725,0.584,4.527,1.775,5.402,3.577c0.877,1.8,1.022,3.625,0.438,5.475
			c-0.584,1.848-1.752,3.358-3.505,4.526c-1.752,1.168-3.894,1.362-6.424,0.584c-6.715-2.044-13.603-4.478-20.658-7.3
			c-7.059-2.824-14.188-6.522-21.389-11.096c-6.23,2.824-13.117,5.767-20.66,8.833s-15.986,6.351-25.33,9.855
			c-1.168,0.486-2.264,0.438-3.285-0.146s-1.752-1.364-2.19-2.336c-0.438-0.974-0.536-1.971-0.292-2.993
			c0.242-1.022,1.045-1.825,2.409-2.409c7.884-3.116,15.185-6.036,21.899-8.76c6.717-2.724,12.849-5.498,18.396-8.322
			c-2.824-2.14-5.598-4.428-8.322-6.862c-2.726-2.432-5.451-5.11-8.176-8.03c-0.975-0.972-1.387-1.946-1.24-2.92
			c0.146-0.972,0.584-1.8,1.313-2.482c0.729-0.68,1.606-1.095,2.628-1.241s1.971,0.123,2.848,0.803
			c3.697,3.116,7.322,5.89,10.877,8.322c3.551,2.434,7.03,4.672,10.438,6.716c7.3-4.476,12.994-9.246,17.082-14.308
			c0.778-1.07,0.997-2.044,0.657-2.92c-0.342-0.876-1.34-1.314-2.993-1.314h-47.742c-1.558,0-2.751-0.511-3.577-1.533
			c-0.828-1.022-1.24-2.14-1.24-3.358c0-1.216,0.387-2.336,1.168-3.358c0.777-1.022,1.993-1.533,3.649-1.533h59.276
			c2.14,0,4.015,0.463,5.621,1.387c1.605,0.926,2.797,2.142,3.576,3.65c0.778,1.51,1.045,3.212,0.803,5.11
			c-0.244,1.898-1.145,3.821-2.7,5.767c-2.824,3.408-6.085,6.595-9.782,9.563c-3.7,2.97-7.982,5.817-12.848,8.541
			c5.548,2.532,11.07,4.649,16.57,6.351C219.737,235.948,225.504,237.333,231.54,238.405z M160.292,161.171
			c0-2.724,0.779-4.745,2.337-6.059c1.556-1.314,3.26-1.971,5.11-1.971c1.848,0,3.551,0.657,5.109,1.971
			c1.556,1.314,2.336,3.335,2.336,6.059c0,4.284-0.707,8.007-2.117,11.169c-1.412,3.164-3.285,5.963-5.621,8.395
			c-2.336,2.434-5.014,4.551-8.029,6.351c-3.019,1.802-6.133,3.431-9.344,4.891c-1.168,0.488-2.24,0.561-3.213,0.219
			c-0.974-0.34-1.729-0.899-2.263-1.679c-0.536-0.778-0.755-1.628-0.657-2.555c0.096-0.924,0.68-1.727,1.752-2.409
			c2.53-1.654,4.721-3.235,6.57-4.745c1.848-1.508,3.357-3.187,4.525-5.037c1.168-1.848,2.045-3.942,2.629-6.278
			S160.292,164.383,160.292,161.171z M149.05,145.403c-1.752,0-3.044-0.511-3.869-1.533c-0.828-1.022-1.241-2.165-1.241-3.431
			c0-1.264,0.413-2.409,1.241-3.431c0.825-1.022,2.117-1.533,3.869-1.533h27.886l-4.964-9.782c-0.584-0.972-0.755-1.898-0.511-2.774
			c0.242-0.876,0.705-1.581,1.387-2.117c0.68-0.534,1.533-0.826,2.555-0.876c1.022-0.048,2.117,0.365,3.285,1.241
			c3.213,2.336,5.596,4.211,7.154,5.621c1.556,1.412,2.578,2.361,3.066,2.847c0.971,0.974,1.605,1.948,1.897,2.92
			c0.292,0.974,0.34,1.948,0.146,2.92h40.442c1.752,0,3.089,0.511,4.015,1.533c0.924,1.022,1.388,2.167,1.388,3.431
			c0,1.266-0.464,2.409-1.388,3.431c-0.926,1.022-2.263,1.533-4.015,1.533H149.05z M183.944,162.631
			c-1.656,0-2.871-0.511-3.649-1.533c-0.78-1.022-1.169-2.117-1.169-3.285s0.389-2.263,1.169-3.285
			c0.778-1.022,1.993-1.533,3.649-1.533h21.17c3.114,0,5.498,0.974,7.154,2.92c1.654,1.948,2.482,4.526,2.482,7.738v6.716
			c0,2.24,0.412,3.7,1.24,4.38c0.826,0.682,2.312,1.022,4.453,1.022h7.154c1.752,0,3.089,0.584,4.016,1.752
			c0.924,1.168,1.387,2.459,1.387,3.869c0,1.412-0.463,2.701-1.387,3.869c-0.927,1.168-2.264,1.752-4.016,1.752h-12.557
			c-5.744,0-9.733-1.216-11.971-3.65c-2.24-2.432-3.358-5.936-3.358-10.512v-6.716c0-2.336-1.218-3.504-3.65-3.504H183.944z"/>
		<path class="st2" d="M279.136,151.097c0,3.796-0.024,7.154-0.073,10.074c-0.05,2.92-0.123,5.598-0.219,8.03
			c-0.098,2.434-0.292,4.795-0.584,7.081c-0.292,2.288-0.635,4.649-1.021,7.081c-0.488,2.532-1.584,4.284-3.285,5.256
			c-1.705,0.974-3.383,1.241-5.037,0.803c-1.656-0.438-2.971-1.533-3.942-3.285c-0.974-1.752-0.926-4.088,0.146-7.008
			c0.973-2.822,1.775-5.352,2.41-7.592c0.631-2.238,1.19-4.453,1.679-6.643c0.485-2.19,0.898-4.428,1.241-6.716
			c0.34-2.286,0.752-4.891,1.24-7.811c0.096-1.168,0.559-2.019,1.387-2.555c0.826-0.534,1.68-0.753,2.556-0.657
			c0.876,0.098,1.679,0.488,2.409,1.168C278.772,149.005,279.136,149.929,279.136,151.097z M296.073,245.851
			c0,2.336-0.683,4.088-2.045,5.256c-1.363,1.168-2.871,1.752-4.525,1.752c-1.656,0-3.164-0.584-4.526-1.752
			c-1.364-1.168-2.044-2.92-2.044-5.256V128.613c0-2.432,0.68-4.234,2.044-5.402c1.362-1.168,2.87-1.727,4.526-1.679
			c1.654,0.05,3.162,0.657,4.525,1.825c1.362,1.168,2.045,2.92,2.045,5.256V245.851z M303.957,145.841
			c1.848,2.824,3.358,5.306,4.526,7.446c1.168,2.142,2.237,4.333,3.211,6.57c0.877,2.044,0.852,3.796-0.072,5.256
			c-0.926,1.46-2.117,2.482-3.577,3.066s-2.92,0.584-4.38,0c-1.461-0.584-2.336-1.946-2.629-4.088
			c-0.584-3.698-1.094-6.618-1.532-8.76c-0.438-2.14-0.949-4.476-1.533-7.008c-0.196-0.876-0.073-1.654,0.365-2.336
			c0.438-0.68,0.972-1.143,1.606-1.387c0.631-0.242,1.336-0.267,2.116-0.073C302.837,144.723,303.468,145.161,303.957,145.841z
			 M389.366,144.235h-30.075v7.738h24.09c1.556,0,2.724,0.488,3.504,1.46c0.778,0.974,1.168,2.044,1.168,3.212
			s-0.39,2.24-1.168,3.212c-0.78,0.974-1.948,1.46-3.504,1.46h-24.09v8.03h34.31c1.557,0,2.725,0.488,3.504,1.46
			c0.778,0.974,1.168,2.069,1.168,3.285c0,1.218-0.39,2.313-1.168,3.285c-0.779,0.974-1.947,1.46-3.504,1.46h-82.636
			c-1.558,0-2.726-0.486-3.504-1.46c-0.78-0.972-1.168-2.067-1.168-3.285c0-1.216,0.388-2.311,1.168-3.285
			c0.778-0.972,1.946-1.46,3.504-1.46h34.31v-8.03h-23.943c-1.559,0-2.727-0.486-3.504-1.46c-0.781-0.972-1.168-2.044-1.168-3.212
			s0.387-2.238,1.168-3.212c0.777-0.972,1.945-1.46,3.504-1.46h23.943v-7.738h-30.076c-1.558,0-2.726-0.486-3.504-1.46
			c-0.779-0.972-1.168-2.044-1.168-3.212s0.389-2.238,1.168-3.212c0.778-0.972,1.946-1.46,3.504-1.46h30.076v-6.57
			c0.096-2.53,0.877-4.428,2.336-5.694c1.461-1.264,3.066-1.898,4.818-1.898s3.333,0.634,4.745,1.898
			c1.409,1.266,2.117,3.164,2.117,5.694v6.57h30.075c1.557,0,2.725,0.488,3.504,1.46c0.779,0.974,1.168,2.044,1.168,3.212
			s-0.389,2.24-1.168,3.212C392.09,143.749,390.922,144.235,389.366,144.235z M329.653,245.851c0,2.336-0.707,4.063-2.117,5.183
			c-1.412,1.118-2.993,1.679-4.745,1.679c-1.753,0-3.335-0.561-4.745-1.679c-1.412-1.12-2.117-2.847-2.117-5.183v-52.852
			c0-2.336,0.705-4.063,2.117-5.183c1.41-1.118,2.992-1.679,4.745-1.679c1.752,0,3.333,0.562,4.745,1.679
			c1.41,1.12,2.117,2.847,2.117,5.183V245.851z M388.052,200.007c0-2.044-0.171-3.917-0.511-5.621
			c-0.342-1.702-0.975-3.162-1.898-4.38c-0.926-1.216-2.189-2.165-3.796-2.847c-1.606-0.68-3.675-1.022-6.205-1.022h-37.376
			c-1.656,0-2.872,0.488-3.65,1.46c-0.779,0.974-1.168,2.069-1.168,3.285c0,1.218,0.389,2.313,1.168,3.285
			c0.778,0.974,1.994,1.46,3.65,1.46h30.368c3.698,0,5.548,2.094,5.548,6.278v23.652c0,1.948-0.098,3.577-0.292,4.891
			c-0.196,1.314-0.729,2.336-1.606,3.066c-0.875,0.73-2.215,1.218-4.014,1.46c-1.803,0.244-4.26,0.27-7.373,0.073
			c-0.975-0.096-1.752,0.171-2.337,0.803c-0.584,0.634-0.926,1.362-1.022,2.19c-0.098,0.826,0.074,1.606,0.512,2.336
			s1.191,1.143,2.264,1.241c4.379,0.68,7.688,1.581,9.928,2.701c2.237,1.118,3.211,2.651,2.92,4.599
			c-0.293,1.752,0.365,2.92,1.971,3.504s3.381,0.194,5.329-1.168c1.653-1.168,2.993-2.336,4.015-3.504s1.801-2.409,2.336-3.723
			c0.534-1.314,0.877-2.774,1.022-4.38s0.219-3.431,0.219-5.475V200.007z M365.569,211.833h-27.303c-1.46,0-2.555-0.461-3.285-1.387
			c-0.729-0.924-1.095-1.971-1.095-3.139s0.365-2.212,1.095-3.139c0.73-0.924,1.825-1.387,3.285-1.387h27.303
			c1.459,0,2.577,0.463,3.357,1.387c0.777,0.926,1.168,1.971,1.168,3.139s-0.391,2.215-1.168,3.139
			C368.146,211.372,367.028,211.833,365.569,211.833z M365.422,228.039h-27.156c-1.46,0-2.555-0.461-3.285-1.387
			c-0.729-0.924-1.095-1.971-1.095-3.139s0.365-2.213,1.095-3.139c0.73-0.924,1.825-1.387,3.285-1.387h27.156
			c1.556,0,2.701,0.463,3.432,1.387c0.729,0.926,1.094,1.971,1.094,3.139s-0.364,2.215-1.094,3.139
			C368.124,227.578,366.978,228.039,365.422,228.039z"/>
		<path class="st2" d="M109.776,452.129c-0.974,0.68-1.947,0.949-2.92,0.803c-0.974-0.146-1.777-0.536-2.408-1.168
			c-0.635-0.634-1-1.437-1.096-2.409c-0.098-0.974,0.292-1.898,1.168-2.774c1.654-1.85,3.188-3.577,4.6-5.183
			c1.409-1.606,2.748-3.262,4.015-4.964c1.264-1.702,2.505-3.526,3.724-5.475c1.215-1.946,2.504-4.088,3.868-6.424
			c1.168-2.14,2.677-3.285,4.526-3.431c1.848-0.146,3.504,0.292,4.964,1.314s2.432,2.482,2.92,4.38
			c0.485,1.898-0.05,3.773-1.606,5.621c-3.211,3.796-6.643,7.323-10.293,10.585C117.587,446.264,113.766,449.305,109.776,452.129z
			 M109.338,350.513c-1.559,0-2.727-0.511-3.504-1.533c-0.78-1.022-1.168-2.14-1.168-3.358c0-1.216,0.388-2.336,1.168-3.358
			c0.777-1.022,1.945-1.533,3.504-1.533h5.693v-11.534c0-2.336,0.705-4.088,2.117-5.256c1.41-1.168,2.993-1.752,4.745-1.752
			s3.333,0.584,4.745,1.752c1.41,1.168,2.117,2.92,2.117,5.256v11.534h22.046v-11.534c0-2.336,0.68-4.088,2.044-5.256
			c1.361-1.168,2.895-1.752,4.6-1.752c1.701,0,3.234,0.584,4.599,1.752c1.362,1.168,2.044,2.92,2.044,5.256v11.534h5.548
			c1.556,0,2.724,0.511,3.504,1.533c0.778,1.022,1.168,2.142,1.168,3.358c0,1.218-0.39,2.336-1.168,3.358
			c-0.78,1.022-1.948,1.533-3.504,1.533h-5.548v58.108h6.132c1.653,0,2.896,0.511,3.724,1.533c0.825,1.022,1.24,2.142,1.24,3.358
			c0,1.218-0.415,2.336-1.24,3.358c-0.828,1.022-2.07,1.533-3.724,1.533h-61.758c-1.656,0-2.897-0.511-3.724-1.533
			c-0.828-1.022-1.24-2.14-1.24-3.358c0-1.216,0.412-2.336,1.24-3.358c0.826-1.022,2.067-1.533,3.724-1.533h6.569v-58.108H109.338z
			 M136.348,394.459c-1.46,0-2.58-0.486-3.357-1.46c-0.781-0.972-1.168-2.019-1.168-3.139c0-1.118,0.387-2.165,1.168-3.139
			c0.777-0.972,1.897-1.46,3.357-1.46h14.454v-13.432h-14.454c-1.46,0-2.58-0.486-3.357-1.46c-0.781-0.972-1.168-2.019-1.168-3.139
			c0-1.118,0.387-2.165,1.168-3.139c0.777-0.972,1.897-1.46,3.357-1.46h14.454v-12.118h-22.046v58.108h22.046v-14.162H136.348z
			 M153.868,443.077c-1.363-3.018-2.58-5.548-3.649-7.592c-1.072-2.044-2.336-4.38-3.796-7.008c-0.584-0.876-0.78-1.8-0.584-2.774
			c0.193-0.972,0.632-1.752,1.314-2.336c0.68-0.584,1.532-0.899,2.555-0.949c1.021-0.048,2.117,0.415,3.285,1.387
			c1.555,1.364,2.92,2.532,4.088,3.504c1.168,0.974,2.189,1.875,3.065,2.701c0.876,0.828,1.702,1.656,2.482,2.482
			c0.778,0.828,1.606,1.777,2.481,2.847c1.557,1.848,2.045,3.698,1.461,5.548c-0.584,1.848-1.656,3.308-3.213,4.38
			c-1.558,1.07-3.285,1.533-5.183,1.387S154.84,445.315,153.868,443.077z M172.995,451.399c-0.683,0.876-1.559,1.362-2.629,1.46
			c-1.072,0.096-2.043-0.073-2.92-0.511c-0.875-0.438-1.459-1.12-1.752-2.044c-0.291-0.926-0.05-2.021,0.73-3.285
			c2.14-3.311,3.99-6.716,5.548-10.22c1.556-3.504,2.847-7.446,3.869-11.826c1.022-4.38,1.825-9.293,2.409-14.746
			c0.584-5.45,1.021-11.728,1.313-18.834c0.292-7.104,0.486-15.184,0.585-24.236c0.096-9.052,0.146-19.368,0.146-30.952
			c0-2.336,0.729-4.088,2.19-5.256c1.459-1.168,3.065-1.752,4.817-1.752s3.358,0.584,4.817,1.752c1.461,1.168,2.19,2.92,2.19,5.256
			c0,10.708-0.05,20.367-0.146,28.981c-0.099,8.614-0.343,16.475-0.73,23.579c-0.391,7.106-1.021,13.53-1.898,19.272
			c-0.875,5.745-2.116,11.096-3.723,16.06c-1.605,4.964-3.602,9.661-5.986,14.089C179.441,442.614,176.499,447.019,172.995,451.399z
			 M220.298,449.793c-1.948,1.362-3.748,1.8-5.402,1.314c-1.655-0.488-2.336-1.606-2.044-3.358c0.096-0.974-0.072-2.021-0.511-3.139
			c-0.438-1.12-1.146-2.19-2.117-3.212c-0.974-1.022-2.215-1.923-3.724-2.701c-1.51-0.78-3.236-1.314-5.182-1.606
			c-1.072-0.096-1.803-0.511-2.19-1.241c-0.39-0.73-0.511-1.482-0.365-2.263c0.146-0.778,0.511-1.483,1.095-2.117
			c0.584-0.632,1.362-0.899,2.336-0.803c3.114,0.292,5.571,0.415,7.373,0.365c1.801-0.048,3.139-0.34,4.016-0.876
			c0.875-0.534,1.435-1.337,1.679-2.409c0.241-1.07,0.364-2.53,0.364-4.38v-18.834h-13.869c-1.559,0-2.727-0.511-3.504-1.533
			c-0.78-1.022-1.168-2.117-1.168-3.285s0.388-2.263,1.168-3.285c0.777-1.022,1.945-1.533,3.504-1.533h13.869v-23.068h-13.869
			c-1.559,0-2.727-0.511-3.504-1.533c-0.78-1.022-1.168-2.117-1.168-3.285s0.388-2.263,1.168-3.285
			c0.777-1.022,1.945-1.533,3.504-1.533h13.869v-16.206c0-4.184-1.85-6.278-5.547-6.278h-7.885c-1.656,0-2.871-0.511-3.649-1.533
			c-0.78-1.022-1.169-2.165-1.169-3.431c0-1.264,0.389-2.409,1.169-3.431c0.778-1.022,1.993-1.533,3.649-1.533h14.893
			c2.529,0,4.599,0.342,6.205,1.022c1.605,0.682,2.869,1.631,3.796,2.847c0.924,1.218,1.556,2.678,1.897,4.38
			c0.34,1.704,0.512,3.577,0.512,5.621v88.038c0,4.088-0.683,7.519-2.045,10.293C226.088,444.756,223.704,447.359,220.298,449.793z"
			/>
		<path class="st2" d="M273.151,352.703c0-2.432,0.777-4.234,2.336-5.402c1.555-1.168,3.26-1.727,5.109-1.679
			c1.848,0.05,3.553,0.682,5.11,1.898c1.556,1.218,2.336,3.043,2.336,5.475v92.564c0,2.432-0.78,4.257-2.336,5.475
			c-1.558,1.216-3.263,1.825-5.11,1.825c-1.85,0-3.555-0.609-5.109-1.825c-1.559-1.218-2.336-3.043-2.336-5.475V352.703z
			 M296.218,344.527c-2.435-3.796-4.576-7.031-6.424-9.709c-1.851-2.676-3.796-5.329-5.841-7.957
			c-0.682-0.876-0.974-1.775-0.875-2.701c0.096-0.924,0.438-1.702,1.021-2.336c0.584-0.632,1.337-0.997,2.264-1.095
			c0.924-0.096,1.971,0.196,3.139,0.876c4.574,2.92,8.297,5.427,11.169,7.519c2.87,2.094,5.476,4.211,7.812,6.351
			c1.945,1.752,2.723,3.723,2.336,5.913c-0.391,2.19-1.388,3.967-2.994,5.329c-1.605,1.364-3.504,2.021-5.693,1.971
			C299.942,348.64,297.97,347.253,296.218,344.527z M302.204,366.281c0-2.432,0.754-4.234,2.264-5.402
			c1.508-1.168,3.188-1.752,5.037-1.752c1.848,0,3.527,0.584,5.037,1.752c1.508,1.168,2.263,2.97,2.263,5.402v48.18
			c0,2.532-0.755,4.453-2.263,5.767c-1.51,1.314-3.189,1.971-5.037,1.971c-1.85,0-3.529-0.657-5.037-1.971
			c-1.51-1.314-2.264-3.235-2.264-5.767V366.281z M323.083,341.169c-1.656,0-2.897-0.534-3.723-1.606
			c-0.828-1.07-1.242-2.213-1.242-3.431c0-1.216,0.414-2.359,1.242-3.431c0.825-1.07,2.066-1.606,3.723-1.606h52.705
			c9.053,0,13.578,4.478,13.578,13.432v90.228c0,7.98-3.941,14.016-11.825,18.104c-1.267,0.68-2.435,0.851-3.505,0.511
			c-1.071-0.342-1.703-1.291-1.897-2.847c-0.488-3.116-1.996-5.402-4.526-6.862c-2.531-1.46-6.182-2.532-10.949-3.212
			c-1.267-0.196-2.168-0.682-2.701-1.46c-0.536-0.78-0.756-1.606-0.657-2.482c0.096-0.876,0.461-1.654,1.095-2.336
			c0.633-0.68,1.533-1.022,2.701-1.022c3.698,0.098,6.691,0.05,8.979-0.146c2.287-0.194,4.039-0.657,5.257-1.387
			c1.216-0.73,2.044-1.825,2.481-3.285c0.438-1.46,0.657-3.406,0.657-5.84v-75.482c0-3.892-1.948-5.84-5.84-5.84H323.083z
			 M324.835,421.615c-1.656,0-2.872-0.511-3.65-1.533c-0.779-1.022-1.168-2.14-1.168-3.358c0-1.216,0.389-2.336,1.168-3.358
			c0.778-1.022,1.994-1.533,3.65-1.533h20.586v-38.544c0-3.114-1.559-4.672-4.672-4.672h-15.914c-1.656,0-2.897-0.511-3.723-1.533
			c-0.828-1.022-1.242-2.117-1.242-3.285s0.414-2.263,1.242-3.285c0.825-1.022,2.066-1.533,3.723-1.533h22.922
			c4.184,0,7.275,1.241,9.271,3.723c1.993,2.482,2.992,5.427,2.992,8.833v39.274c0,2.824-0.854,5.329-2.555,7.519
			c-1.704,2.19-4.357,3.285-7.957,3.285H324.835z M325.419,394.167c-1.656,0-2.897-0.486-3.723-1.46
			c-0.828-0.972-1.242-2.067-1.242-3.285c0-1.216,0.414-2.311,1.242-3.285c0.825-0.972,2.066-1.46,3.723-1.46h11.533
			c1.752,0,3.041,0.488,3.869,1.46c0.826,0.974,1.242,2.069,1.242,3.285c0,1.218-0.416,2.313-1.242,3.285
			c-0.828,0.974-2.117,1.46-3.869,1.46H325.419z"/>
		<path class="st2" d="M112.696,552.411c0-2.432,0.73-4.234,2.19-5.402s3.065-1.752,4.817-1.752s3.358,0.584,4.818,1.752
			c1.461,1.168,2.19,2.97,2.19,5.402v90.082c0,2.53-0.729,4.403-2.19,5.621c-1.46,1.216-3.066,1.825-4.818,1.825
			s-3.357-0.609-4.817-1.825c-1.46-1.218-2.19-3.091-2.19-5.621V552.411z M131.384,594.386c-0.876-1.022-1.313-2.117-1.313-3.285
			c0-1.168,0.438-2.263,1.313-3.285s2.14-1.533,3.796-1.533h15.477v-25.842c0-1.752-0.584-3.114-1.752-4.088
			c-1.168-0.972-2.679-1.46-4.526-1.46h-9.198c-1.559,0-2.727-0.46-3.504-1.387c-0.78-0.924-1.219-1.971-1.314-3.139
			c-0.098-1.168,0.17-2.263,0.803-3.285s1.629-1.629,2.994-1.825c0.387-2.724,0.705-5.571,0.949-8.541
			c0.241-2.968,0.412-5.183,0.51-6.643c0.096-2.724,0.998-4.672,2.701-5.84c1.702-1.168,3.479-1.606,5.33-1.314
			c1.848,0.292,3.405,1.266,4.672,2.92c1.264,1.656,1.555,3.894,0.875,6.716c-0.488,1.656-1.168,3.529-2.043,5.621
			c-0.877,2.094-1.996,4.405-3.358,6.935h7.737c4.866,0,8.25,1.241,10.147,3.723s2.847,5.475,2.847,8.979v71.54
			c0,3.408-0.9,6.132-2.701,8.176c-1.802,2.044-4.988,3.066-9.563,3.066H135.18c-1.656,0-2.872-0.511-3.65-1.533
			c-0.779-1.022-1.168-2.14-1.168-3.358c0-1.216,0.389-2.336,1.168-3.358c0.778-1.022,1.994-1.533,3.65-1.533h15.477v-34.894H135.18
			C133.524,595.919,132.26,595.408,131.384,594.386z M167.739,574.53c0.387,1.022,0.996,1.752,1.824,2.19
			c0.826,0.438,1.752,0.562,2.774,0.365c1.022-0.194,1.971-0.924,2.847-2.19c4.088-6.132,7.738-12.677,10.95-19.637
			c3.212-6.958,5.84-14.819,7.884-23.579c0.584-2.628,0.219-4.768-1.095-6.424c-1.313-1.654-2.92-2.651-4.818-2.993
			c-1.897-0.34-3.772,0.05-5.62,1.168c-1.851,1.12-2.971,3.091-3.359,5.913c-1.363,8.372-2.992,15.987-4.891,22.849
			c-1.897,6.862-4.015,13.213-6.351,19.053C167.396,572.413,167.348,573.508,167.739,574.53z M184.601,591.101
			c-1.606-3.796-3.091-7.104-4.452-9.928c-0.391-0.876-0.439-1.727-0.146-2.555c0.292-0.826,0.777-1.508,1.46-2.044
			c0.68-0.534,1.482-0.803,2.409-0.803c0.924,0,1.824,0.438,2.701,1.314c6.715,6.814,12.067,13.286,16.06,19.418
			c1.46,2.24,1.774,4.38,0.948,6.424c-0.828,2.044-2.142,3.577-3.941,4.599c-1.803,1.022-3.723,1.314-5.768,0.876
			c-2.043-0.438-3.504-1.971-4.379-4.599C187.837,599.131,186.208,594.897,184.601,591.101z M207.962,651.983
			c-1.412-0.682-2.215-1.704-2.409-3.066c-0.292-1.752-0.949-3.139-1.972-4.161c-1.021-1.022-2.408-1.825-4.16-2.409
			s-3.846-1.022-6.278-1.314c-2.435-0.292-5.16-0.584-8.176-0.876c-1.072-0.098-1.876-0.561-2.409-1.387
			c-0.536-0.828-0.78-1.702-0.73-2.628c0.049-0.924,0.389-1.752,1.022-2.482c0.632-0.73,1.581-1.095,2.847-1.095
			c2.141,0.098,4.33,0.146,6.57,0.146c2.238,0,4.33-0.048,6.278-0.146c1.946-0.096,3.698-0.292,5.256-0.584
			c1.556-0.292,2.821-0.73,3.796-1.314c1.945-1.168,3.432-3.333,4.453-6.497c1.021-3.162,1.775-7.615,2.263-13.359
			c0.486-5.742,0.778-12.871,0.876-21.389c0.096-8.516,0.146-18.615,0.146-30.295c0-1.556-0.317-2.701-0.949-3.431
			c-0.635-0.73-1.825-1.095-3.577-1.095H197.23c-1.558,0-2.726-0.511-3.504-1.533c-0.78-1.022-1.168-2.14-1.168-3.358
			c0-1.216,0.388-2.336,1.168-3.358c0.778-1.022,1.946-1.533,3.504-1.533h21.9c2.14,0,3.892,0.342,5.256,1.022
			c1.362,0.682,2.457,1.606,3.285,2.774c0.825,1.168,1.387,2.482,1.679,3.942s0.438,2.92,0.438,4.38
			c0,14.796-0.146,27.498-0.438,38.106c-0.292,10.61-1.021,19.614-2.189,27.01c-1.168,7.398-2.897,13.409-5.184,18.031
			c-2.288,4.622-5.379,8.297-9.271,11.023C210.954,652.371,209.372,652.663,207.962,651.983z"/>
		<path class="st3" d="M170.075,827.309c-7.301,2.24-15.769,4.576-25.404,7.008c-9.637,2.434-20.053,4.914-31.244,7.446
			c-3.116,0.68-5.475,0.315-7.081-1.095c-1.606-1.412-2.556-3.139-2.847-5.183c-0.293-2.044,0.121-3.99,1.24-5.84
			c1.118-1.848,2.896-2.92,5.33-3.212c4.768-0.388,9.805-0.898,15.11-1.533c5.304-0.632,10.534-1.289,15.694-1.971
			c5.158-0.68,10.098-1.337,14.82-1.971c4.719-0.632,8.979-1.241,12.774-1.825c1.362-0.194,2.432,0.05,3.212,0.73
			c0.777,0.682,1.264,1.51,1.46,2.482c0.194,0.974,0.048,1.948-0.438,2.92C172.213,826.239,171.338,826.921,170.075,827.309z
			 M136.64,809.789v-63.802h-24.674c-1.656,0-2.92-0.534-3.796-1.606c-0.876-1.07-1.314-2.263-1.314-3.577s0.438-2.53,1.314-3.65
			c0.876-1.118,2.14-1.679,3.796-1.679H167.3c1.556,0,2.774,0.562,3.649,1.679c0.877,1.12,1.314,2.336,1.314,3.65
			s-0.415,2.507-1.24,3.577c-0.828,1.072-2.07,1.606-3.724,1.606h-16.937v28.762h14.746c1.557,0,2.725,0.536,3.504,1.606
			c0.778,1.072,1.168,2.215,1.168,3.431c0,1.218-0.39,2.361-1.168,3.431c-0.779,1.072-1.947,1.606-3.504,1.606h-14.746v24.966
			c0,2.336-0.707,4.113-2.117,5.329c-1.412,1.218-2.992,1.825-4.744,1.825s-3.336-0.584-4.745-1.752
			C137.345,814.023,136.64,812.223,136.64,809.789z M112.258,771.099c0-2.432,0.705-4.234,2.117-5.402
			c1.41-1.168,2.942-1.752,4.599-1.752c1.653,0,3.187,0.609,4.599,1.825c1.41,1.218,2.117,2.993,2.117,5.329v42.486
			c0,2.336-0.707,4.113-2.117,5.329c-1.412,1.218-2.945,1.825-4.599,1.825c-1.656,0-3.188-0.584-4.599-1.752
			c-1.412-1.168-2.117-2.968-2.117-5.402V771.099z M225.262,850.669c-4.284-3.796-8.688-8.299-13.213-13.505
			c-4.525-5.206-8.979-10.973-13.359-17.301c-4.964,6.132-10.27,11.778-15.914,16.936c-5.646,5.158-11.438,10.122-17.373,14.892
			c-1.168,0.972-2.314,1.387-3.432,1.241c-1.12-0.146-2.021-0.609-2.701-1.387c-0.682-0.78-1.047-1.704-1.095-2.774
			c-0.05-1.072,0.364-1.996,1.241-2.774c6.228-5.548,12.141-11.265,17.738-17.155c5.596-5.888,10.586-12.287,14.965-19.199
			c-2.92-4.964-5.621-10.023-8.103-15.184c-2.481-5.158-4.599-10.462-6.351-15.914c-0.488-1.264-0.463-2.384,0.072-3.358
			c0.534-0.972,1.241-1.654,2.117-2.044c0.877-0.388,1.825-0.438,2.848-0.146c1.021,0.292,1.824,1.072,2.408,2.336
			c1.752,3.7,3.746,7.496,5.986,11.388c2.238,3.894,4.622,7.788,7.154,11.68c2.432-4.964,4.476-10.17,6.132-15.622
			c1.653-5.45,2.87-11.29,3.649-17.52c0.293-2.628,1.314-4.453,3.066-5.475s3.577-1.387,5.475-1.095
			c1.898,0.292,3.527,1.193,4.892,2.701c1.362,1.51,1.848,3.529,1.46,6.059c-1.46,8.274-3.627,15.866-6.497,22.776
			c-2.872,6.913-6.255,13.336-10.147,19.272c4.381,5.646,8.93,10.95,13.651,15.914c4.72,4.964,9.61,9.15,14.673,12.556
			c2.141,1.46,3.26,3.308,3.358,5.548c0.096,2.238-0.438,4.209-1.606,5.913c-1.168,1.702-2.773,2.822-4.818,3.358
			C229.497,853.32,227.402,852.615,225.262,850.669z M174.892,772.559c-0.78,1.168-1.704,1.825-2.774,1.971
			c-1.072,0.146-2.021-0.023-2.847-0.511c-0.828-0.486-1.437-1.191-1.825-2.117c-0.39-0.924-0.342-1.921,0.146-2.993
			c2.822-6.424,5.352-13.042,7.592-19.856c2.238-6.812,4.038-13.966,5.402-21.462c0.486-2.724,1.654-4.549,3.504-5.475
			c1.848-0.924,3.697-1.168,5.548-0.73c1.848,0.438,3.405,1.438,4.672,2.993c1.265,1.558,1.556,3.408,0.876,5.548
			c-1.948,6.424-4.503,13.311-7.665,20.659C184.357,757.936,180.149,765.259,174.892,772.559z M196.501,755.039
			c-1.752,0-3.066-0.511-3.942-1.533s-1.313-2.165-1.313-3.431c0-1.264,0.438-2.409,1.313-3.431c0.876-1.022,2.19-1.533,3.942-1.533
			h34.894c1.556,0,2.749,0.511,3.577,1.533c0.826,1.022,1.241,2.167,1.241,3.431c0,1.266-0.415,2.409-1.241,3.431
			c-0.828,1.022-2.021,1.533-3.577,1.533H196.501z"/>
		<path class="st3" d="M313.446,813.585c1.848,0.098,3.358,0.78,4.526,2.044c1.168,1.266,1.8,2.799,1.897,4.599
			c0.097,1.802-0.729,3.431-2.481,4.891c-5.256,4.478-11.924,8.614-20.002,12.41c-8.08,3.796-17.618,7.688-28.616,11.68
			c-1.072,0.388-1.996,0.34-2.773-0.146c-0.78-0.488-1.364-1.146-1.752-1.971c-0.391-0.828-0.488-1.679-0.293-2.555
			c0.194-0.876,0.778-1.51,1.752-1.898c10.024-4.38,18.396-8.687,25.113-12.921c6.715-4.234,12.409-8.735,17.082-13.505
			C309.747,814.365,311.596,813.489,313.446,813.585z M265.923,761.828c0.146,0.828,0.56,1.485,1.241,1.971
			c0.68,0.488,1.482,0.73,2.408,0.73c0.924,0,1.826-0.388,2.701-1.168c2.822-2.53,5.377-4.914,7.666-7.154
			c2.285-2.238,4.402-4.549,6.351-6.935c1.946-2.384,3.745-4.891,5.401-7.519c1.654-2.628,3.26-5.548,4.818-8.76
			c1.07-2.238,1.096-4.257,0.073-6.059c-1.022-1.8-2.46-3.066-4.308-3.796c-1.85-0.73-3.795-0.753-5.84-0.073
			c-2.044,0.682-3.554,2.386-4.525,5.11c-1.267,3.7-2.459,6.96-3.577,9.782c-1.12,2.824-2.288,5.427-3.505,7.811
			c-1.217,2.386-2.481,4.649-3.795,6.789c-1.314,2.142-2.799,4.38-4.453,6.716C265.997,760.149,265.778,761.002,265.923,761.828z
			 M365.276,815.556c1.557,0.926,2.336,1.923,2.336,2.993c-0.098,1.558,0.512,2.507,1.826,2.847c1.313,0.342,2.65,0.073,4.014-0.803
			c1.752-1.168,3.162-2.384,4.234-3.65c1.07-1.264,1.898-2.578,2.482-3.942c0.584-1.362,0.972-2.701,1.168-4.015
			c0.193-1.314,0.292-2.555,0.292-3.723v-8.03c0-3.892-1.12-6.837-3.358-8.833c-2.24-1.994-5.402-2.993-9.49-2.993h-30.66v-9.928
			h51.685c1.653,0,2.896-0.511,3.724-1.533c0.825-1.022,1.24-2.165,1.24-3.431c0-1.264-0.415-2.409-1.24-3.431
			c-0.828-1.022-2.07-1.533-3.724-1.533H338.12v-1.752c0-2.432-0.754-4.282-2.262-5.548c-1.511-1.264-3.14-1.898-4.892-1.898
			s-3.384,0.634-4.892,1.898c-1.51,1.266-2.262,3.116-2.262,5.548v1.752h-51.246c-1.559,0-2.727,0.511-3.504,1.533
			c-0.781,1.022-1.168,2.167-1.168,3.431c0,1.266,0.387,2.409,1.168,3.431c0.777,1.022,1.945,1.533,3.504,1.533h51.246v9.928
			h-19.711c-1.46,0-2.555,0.488-3.285,1.46c-0.729,0.974-1.095,2.069-1.095,3.285c0,1.218,0.365,2.313,1.095,3.285
			c0.73,0.974,1.825,1.46,3.285,1.46h19.711v50.808c0,2.336,0.752,4.111,2.262,5.329c1.508,1.216,3.14,1.825,4.892,1.825
			s3.381-0.584,4.892-1.752c1.508-1.168,2.262-2.97,2.262-5.402v-50.808h24.675c1.653,0,2.821,0.317,3.504,0.949
			c0.68,0.634,1.022,1.777,1.022,3.431v2.628c0,1.168-0.099,2.167-0.293,2.993c-0.195,0.828-0.608,1.485-1.24,1.971
			c-0.635,0.488-1.559,0.828-2.774,1.022c-1.218,0.196-2.897,0.244-5.037,0.146c-0.876-0.096-1.583,0.146-2.116,0.73
			c-0.537,0.584-0.854,1.241-0.949,1.971c-0.099,0.73,0.047,1.437,0.438,2.117c0.389,0.682,1.07,1.022,2.044,1.022
			C361.09,814.073,363.718,814.632,365.276,815.556z M296.657,792.561c0-2.432-0.756-4.234-2.264-5.402
			c-1.51-1.168-3.139-1.752-4.891-1.752s-3.383,0.584-4.891,1.752c-1.511,1.168-2.264,2.97-2.264,5.402v19.564
			c0,2.532,0.753,4.43,2.264,5.694c1.508,1.266,3.139,1.898,4.891,1.898s3.381-0.632,4.891-1.898
			c1.508-1.264,2.264-3.162,2.264-5.694V792.561z M332.792,744.016c0.826-1.022,1.24-2.14,1.24-3.358
			c0-1.216-0.414-2.336-1.24-3.358c-0.828-1.022-2.117-1.533-3.869-1.533h-29.055c-1.656,0-2.871,0.511-3.649,1.533
			c-0.78,1.022-1.168,2.142-1.168,3.358c0,1.218,0.388,2.336,1.168,3.358c0.778,1.022,1.993,1.533,3.649,1.533h29.055
			C330.674,745.549,331.963,745.038,332.792,744.016z M298.774,747.739c-0.73,0.39-1.242,0.926-1.533,1.606
			c-0.293,0.682-0.343,1.412-0.146,2.19c0.193,0.78,0.73,1.412,1.605,1.898c0.877,0.488,2.117,1.339,3.724,2.555
			c1.606,1.218,3.577,2.847,5.913,4.891c1.752,1.46,3.479,1.948,5.184,1.46c1.701-0.486,3.04-1.41,4.014-2.774
			c0.973-1.362,1.314-2.87,1.022-4.526c-0.292-1.654-1.511-2.92-3.649-3.796c-1.656-0.584-3.432-1.143-5.33-1.679
			c-1.897-0.534-4.551-1.191-7.957-1.971C300.452,747.301,299.504,747.351,298.774,747.739z M332.938,754.017
			c0.241,0.974,0.729,1.704,1.459,2.19c0.73,0.488,1.581,0.707,2.555,0.657c0.973-0.048,1.898-0.511,2.774-1.387
			c2.14-2.044,4.038-3.917,5.694-5.621c1.654-1.702,3.188-3.406,4.6-5.11c1.409-1.702,2.7-3.431,3.868-5.183s2.286-3.698,3.358-5.84
			c1.264-2.432,1.387-4.622,0.365-6.57c-1.022-1.946-2.482-3.285-4.381-4.015c-1.897-0.73-3.894-0.753-5.986-0.073
			c-2.094,0.682-3.627,2.386-4.598,5.11c-1.072,2.92-1.972,5.379-2.701,7.373c-0.73,1.996-1.438,3.821-2.117,5.475
			c-0.683,1.656-1.364,3.237-2.045,4.745c-0.682,1.51-1.459,3.139-2.336,4.891C332.864,751.925,332.694,753.045,332.938,754.017z
			 M397.835,839.792c0.584,1.702,0.559,3.358-0.073,4.964c-0.634,1.606-1.802,2.847-3.504,3.723c-1.704,0.876-3.628,0.876-5.767,0
			c-9.248-3.992-17.521-8.227-24.82-12.702c-7.301-4.476-14.066-9.198-20.294-14.162c-1.072-0.876-1.632-1.8-1.679-2.774
			c-0.051-0.972,0.193-1.825,0.729-2.555c0.534-0.73,1.264-1.216,2.19-1.46c0.924-0.242,1.873-0.073,2.847,0.511
			c7.786,4.868,15.403,8.858,22.849,11.972c7.446,3.116,15.159,6.037,23.141,8.76C395.791,836.849,397.251,838.088,397.835,839.792z
			 M395.133,744.016c0.826-1.022,1.241-2.14,1.241-3.358c0-1.216-0.415-2.336-1.241-3.358c-0.828-1.022-2.069-1.533-3.723-1.533
			h-29.93c-1.752,0-3.044,0.511-3.869,1.533c-0.828,1.022-1.242,2.142-1.242,3.358c0,1.218,0.414,2.336,1.242,3.358
			c0.825,1.022,2.117,1.533,3.869,1.533h29.93C393.064,745.549,394.305,745.038,395.133,744.016z M361.481,747.739
			c-0.781,0.39-1.292,0.926-1.533,1.606c-0.244,0.682-0.244,1.438,0,2.263c0.241,0.828,0.803,1.485,1.679,1.971
			c1.362,0.78,2.821,1.777,4.38,2.993c1.556,1.218,3.406,2.751,5.548,4.599c1.752,1.46,3.479,1.923,5.183,1.387
			c1.702-0.534,3.016-1.482,3.942-2.847c0.924-1.362,1.241-2.87,0.949-4.526c-0.292-1.654-1.558-2.87-3.796-3.65
			c-1.656-0.68-3.481-1.314-5.475-1.898c-1.996-0.584-4.65-1.264-7.957-2.044C363.233,747.301,362.258,747.351,361.481,747.739z"/>
	</g>
	<g>
		<path class="st2" d="M335.681,515.067c-39.521,0-71.675,32.153-71.675,71.675c0,39.522,32.153,71.675,71.675,71.675
			s71.675-32.153,71.675-71.675C407.356,547.22,375.203,515.067,335.681,515.067z M335.681,645.417
			c-32.354,0-58.675-26.322-58.675-58.675c0-32.353,26.321-58.675,58.675-58.675s58.675,26.322,58.675,58.675
			C394.356,619.095,368.035,645.417,335.681,645.417z"/>
		<path class="st2" d="M370.685,573.605h-23.069c-1.095,0-2.064-0.705-2.402-1.746l-7.129-21.94c-0.757-2.328-4.05-2.328-4.807,0
			l-7.129,21.94c-0.338,1.041-1.308,1.746-2.402,1.746h-23.069c-2.448,0-3.466,3.132-1.485,4.571l18.663,13.56
			c0.886,0.644,1.256,1.784,0.918,2.825l-7.129,21.94c-0.756,2.328,1.908,4.264,3.889,2.825l18.663-13.56
			c0.886-0.644,2.085-0.644,2.971,0l18.663,13.56c1.98,1.438,4.645-0.497,3.889-2.825l-7.129-21.94
			c-0.338-1.041,0.032-2.182,0.918-2.825l18.663-13.56C374.151,576.737,373.133,573.605,370.685,573.605z"/>
	</g>
</g>
</svg>