<!-- Generator: Adobe Illustrator 24.1.3, SVG Export Plug-In  -->
<svg version="1.1" xmlns="http://www.w3.org/2000/svg" xmlns:xlink="http://www.w3.org/1999/xlink" x="0px" y="0px"
	 width="369.69px" height="100.363px" viewBox="0 0 369.69 100.363"
	 style="overflow:visible;enable-background:new 0 0 369.69 100.363;" xml:space="preserve">
<style type="text/css">
	.st0{fill:#BF2222;}
	.st1{fill:none;}
	.st2{font-family:'HYQingFenTi-W';}
	.st3{font-size:72px;}
</style>
<defs>
</defs>
<g>
	<g>
		<g>
			<path class="st0" d="M82.125,48.438c2.016-3.313,3.672-6.756,4.968-10.332c1.296-3.576,2.328-7.092,3.096-10.549
				c0.288-1.199,0.888-2.016,1.8-2.447c0.912-0.432,1.812-0.527,2.7-0.288c0.888,0.241,1.607,0.78,2.16,1.62
				c0.551,0.84,0.612,1.933,0.18,3.275c-0.336,1.105-0.792,2.353-1.368,3.744c-0.576,1.393-1.272,2.881-2.088,4.465
				c0.479,0.575,0.72,1.295,0.72,2.159V67.95c0,1.152-0.349,2.027-1.044,2.628c-0.696,0.6-1.453,0.899-2.268,0.899
				c-0.817,0-1.573-0.3-2.268-0.899c-0.696-0.601-1.044-1.476-1.044-2.628V47.502c-0.48,0.624-0.961,1.249-1.44,1.872
				c-0.48,0.625-0.984,1.225-1.512,1.801c-0.432,0.385-0.876,0.564-1.332,0.539c-0.457-0.023-0.84-0.191-1.152-0.504
				c-0.313-0.312-0.504-0.72-0.576-1.224C81.585,49.481,81.74,48.967,82.125,48.438z M85.581,18.27h20.304
				c0.864,0,1.523,0.276,1.98,0.828c0.456,0.552,0.684,1.151,0.684,1.799c0,0.648-0.228,1.236-0.684,1.765
				c-0.457,0.528-1.116,0.792-1.98,0.792H85.581c-0.864,0-1.501-0.264-1.908-0.792c-0.408-0.528-0.612-1.116-0.612-1.765
				c0-0.647,0.204-1.247,0.612-1.799C84.08,18.547,84.717,18.27,85.581,18.27z M107.325,41.454v21.96c0,1.008-0.36,1.86-1.08,2.556
				c-0.72,0.697-1.561,1.045-2.52,1.045h-5.832c-0.817,0-1.429-0.252-1.836-0.756c-0.409-0.505-0.612-1.068-0.612-1.693
				c0-0.623,0.204-1.188,0.612-1.691c0.407-0.504,1.019-0.756,1.836-0.756h2.88V42.534c0-0.384-0.144-0.707-0.432-0.973
				c-0.288-0.263-0.624-0.396-1.008-0.396h-1.44c-0.817,0-1.429-0.252-1.836-0.756c-0.409-0.504-0.612-1.056-0.612-1.656
				c0-0.6,0.204-1.151,0.612-1.655c0.407-0.504,1.019-0.756,1.836-0.756h5.184c1.296,0,2.328,0.396,3.096,1.188
				C106.94,38.322,107.325,39.63,107.325,41.454z M131.733,47.358h-9.216c-0.385,3.072-0.925,5.939-1.62,8.604
				c-0.696,2.664-1.609,5.16-2.736,7.488c-1.128,2.328-2.509,4.512-4.14,6.552c-1.632,2.04-3.577,3.996-5.832,5.868
				c-0.576,0.479-1.141,0.672-1.692,0.576c-0.553-0.098-0.984-0.324-1.296-0.684c-0.313-0.36-0.493-0.805-0.54-1.332
				c-0.048-0.529,0.119-0.984,0.504-1.369c1.728-1.68,3.191-3.372,4.392-5.075c1.199-1.704,2.219-3.552,3.06-5.544
				c0.839-1.992,1.5-4.213,1.98-6.66c0.479-2.448,0.839-5.256,1.08-8.424h-4.32c-0.864,0-1.501-0.264-1.908-0.793
				c-0.408-0.527-0.612-1.115-0.612-1.764c0-0.647,0.204-1.247,0.612-1.8c0.407-0.552,1.044-0.827,1.908-0.827h4.608
				c0.144-3.936,0.216-8.473,0.216-13.609c0-1.247,0.371-2.184,1.116-2.807c0.744-0.624,1.572-0.937,2.484-0.937
				c0.912,0,1.739,0.313,2.484,0.937c0.744,0.623,1.116,1.56,1.116,2.807c0,4.994-0.144,9.529-0.432,13.609h8.784V28.637
				c0-1.247,0.371-2.184,1.116-2.808c0.744-0.623,1.571-0.937,2.484-0.937c0.911,0,1.739,0.313,2.484,0.937
				c0.744,0.624,1.116,1.561,1.116,2.808v13.537h6.12c0.864,0,1.523,0.275,1.98,0.827c0.456,0.553,0.684,1.152,0.684,1.8
				c0,0.648-0.228,1.236-0.684,1.764c-0.457,0.529-1.116,0.793-1.98,0.793h-6.12v25.488c0,1.199-0.373,2.099-1.116,2.699
				c-0.745,0.6-1.573,0.888-2.484,0.864c-0.913-0.024-1.74-0.337-2.484-0.937c-0.745-0.6-1.116-1.476-1.116-2.627V47.358z
				 M112.221,22.95c-0.864,0-1.5-0.264-1.908-0.792c-0.408-0.528-0.612-1.116-0.612-1.765c0-0.647,0.204-1.247,0.612-1.799
				c0.407-0.552,1.044-0.828,1.908-0.828h31.536c0.864,0,1.523,0.276,1.98,0.828c0.456,0.552,0.684,1.151,0.684,1.799
				c0,0.648-0.229,1.236-0.684,1.765c-0.457,0.528-1.116,0.792-1.98,0.792H112.221z"/>
			<path class="st0" d="M178.965,40.733c0-1.295,0.384-2.268,1.152-2.916c0.767-0.647,1.62-0.971,2.556-0.971s1.8,0.323,2.592,0.971
				c0.792,0.648,1.188,1.621,1.188,2.916c0,0.961-0.025,1.908-0.072,2.845c-0.048,0.937-0.12,1.836-0.216,2.7h13.824
				c3.168,0.287,4.752,2.064,4.752,5.328v14.039c0,1.009,0.18,1.682,0.54,2.017c0.36,0.337,0.803,0.504,1.332,0.504h2.88
				c1.199,0,1.98-0.708,2.34-2.124c0.36-1.415,0.587-3.371,0.684-5.867c0-0.576,0.191-1.009,0.576-1.297
				c0.384-0.287,0.803-0.432,1.26-0.432c0.456,0,0.864,0.145,1.224,0.432c0.36,0.288,0.54,0.721,0.54,1.297
				c0,3.12,0.6,4.823,1.8,5.111c1.008,0.24,1.62,0.828,1.836,1.764c0.216,0.937,0.011,1.908-0.612,2.916
				c-0.625,1.008-1.645,1.92-3.06,2.736c-1.417,0.815-3.229,1.225-5.436,1.225h-5.04c-2.784,0-4.824-0.661-6.12-1.98
				c-1.296-1.32-1.944-3.085-1.944-5.292V52.902c0-1.152-0.601-1.728-1.8-1.728h-10.296c-0.768,3.408-1.933,6.407-3.492,9
				c-1.561,2.592-3.517,4.871-5.868,6.84c-2.353,1.967-5.101,3.695-8.244,5.184c-3.144,1.487-6.66,2.832-10.548,4.031
				c-0.529,0.145-1.008,0.084-1.44-0.18s-0.745-0.624-0.936-1.08c-0.192-0.457-0.229-0.924-0.108-1.404
				c0.119-0.479,0.492-0.84,1.116-1.079c2.927-1.152,5.591-2.364,7.992-3.636c2.399-1.271,4.523-2.736,6.372-4.393
				c1.847-1.656,3.408-3.564,4.68-5.725c1.271-2.159,2.244-4.68,2.916-7.559h-15.336c-0.816,0-1.416-0.253-1.8-0.757
				c-0.385-0.504-0.576-1.067-0.576-1.692c0-0.623,0.191-1.188,0.576-1.691c0.384-0.504,0.983-0.756,1.8-0.756h16.128
				c0.096-0.864,0.168-1.752,0.216-2.664C178.94,42.702,178.965,41.742,178.965,40.733z M158.445,45.414
				c-0.576,0.288-1.08,0.337-1.512,0.144c-0.432-0.191-0.756-0.479-0.972-0.863c-0.216-0.384-0.3-0.804-0.252-1.26
				c0.047-0.456,0.288-0.828,0.72-1.117c3.744-2.398,7.2-4.763,10.368-7.092c3.168-2.327,5.976-4.715,8.424-7.164
				c1.008-1.008,2.052-1.463,3.132-1.367c1.08,0.097,1.944,0.504,2.592,1.224s0.936,1.608,0.864,2.664
				c-0.072,1.057-0.709,2.017-1.908,2.88c-2.448,1.729-5.4,3.576-8.856,5.544C167.589,40.974,163.388,43.11,158.445,45.414z
				 M163.269,28.71c-0.432,1.537-1.177,2.52-2.232,2.952c-1.057,0.433-2.041,0.468-2.952,0.108c-0.913-0.36-1.573-1.032-1.98-2.017
				c-0.408-0.983-0.18-2.099,0.684-3.348c0.911-1.296,1.715-2.604,2.412-3.925c0.695-1.318,1.283-2.675,1.764-4.067
				c0.191-0.623,0.528-1.044,1.008-1.26c0.479-0.216,0.947-0.276,1.404-0.181c0.456,0.098,0.852,0.313,1.188,0.648
				c0.335,0.336,0.504,0.744,0.504,1.225c-0.097,1.536-0.288,3.131-0.576,4.787C164.205,25.29,163.796,26.981,163.269,28.71z
				 M180.189,13.662c-0.288-0.479-0.408-0.96-0.36-1.44c0.047-0.479,0.227-0.875,0.54-1.188c0.312-0.312,0.731-0.492,1.26-0.54
				c0.528-0.048,1.08,0.144,1.656,0.576c2.304,1.584,4.104,2.952,5.4,4.104c0.671,0.672,1.055,1.355,1.152,2.051
				c0.096,0.697,0,1.357-0.288,1.98h23.4c1.104,0,2.027,0.229,2.772,0.684c0.744,0.457,1.296,1.045,1.656,1.765
				s0.504,1.512,0.432,2.376c-0.072,0.863-0.373,1.704-0.9,2.52c-0.48,0.816-1.069,1.633-1.764,2.448
				c-0.696,0.817-1.404,1.561-2.124,2.231c-0.576,0.576-1.188,0.889-1.836,0.937s-1.213-0.06-1.692-0.323
				c-0.48-0.264-0.841-0.66-1.08-1.188c-0.241-0.528-0.241-1.08,0-1.656c0.239-0.527,0.504-1.176,0.792-1.944
				c0.288-0.768,0.504-1.415,0.648-1.943c0.096-0.24,0.072-0.456-0.072-0.648c-0.144-0.191-0.336-0.287-0.576-0.287h-40.608
				c-0.817,0-1.429-0.264-1.836-0.793c-0.408-0.527-0.612-1.091-0.612-1.691c0-0.6,0.204-1.164,0.612-1.692
				c0.407-0.527,1.02-0.792,1.836-0.792h14.832c-0.528-0.959-1.068-1.883-1.62-2.771C181.256,15.546,180.717,14.623,180.189,13.662z
				 M208.845,44.262c-2.4-2.545-5.028-5.004-7.884-7.381c-2.856-2.376-5.533-4.523-8.028-6.443
				c-0.385-0.289-0.588-0.672-0.612-1.152c-0.024-0.479,0.072-0.924,0.288-1.332c0.216-0.407,0.551-0.695,1.008-0.863
				c0.456-0.168,0.972-0.084,1.548,0.252c1.392,0.816,2.916,1.703,4.572,2.663c1.656,0.961,3.348,1.969,5.076,3.024
				c1.728,1.057,3.443,2.137,5.148,3.24c1.703,1.104,3.276,2.185,4.716,3.24c1.056,0.768,1.572,1.68,1.548,2.735
				c-0.025,1.056-0.385,1.944-1.08,2.664c-0.696,0.72-1.62,1.104-2.772,1.151C211.221,46.11,210.044,45.51,208.845,44.262z"/>
			<path class="st0" d="M228.357,39.87c-0.385,0.432-0.804,0.648-1.26,0.648c-0.457,0-0.841-0.145-1.152-0.433
				c-0.313-0.288-0.504-0.684-0.576-1.188c-0.072-0.504,0.083-1.019,0.468-1.547c0.911-1.536,1.812-3.107,2.7-4.717
				c0.888-1.607,1.739-3.312,2.556-5.111c0.816-1.801,1.595-3.72,2.34-5.76c0.744-2.04,1.476-4.285,2.196-6.732
				c0.288-1.152,0.852-1.872,1.692-2.16c0.839-0.288,1.656-0.264,2.448,0.072s1.404,0.924,1.836,1.764s0.432,1.836,0,2.988
				c-0.864,2.208-1.753,4.26-2.664,6.156c-0.912,1.896-1.896,3.732-2.952,5.508c-1.056,1.775-2.208,3.517-3.456,5.22
				C231.284,36.282,229.893,38.046,228.357,39.87z M245.565,60.389c-0.72,0.817-1.465,1.249-2.232,1.297
				c-0.769,0.048-1.404-0.132-1.908-0.541c-0.504-0.406-0.816-0.947-0.936-1.619c-0.12-0.672,0.083-1.344,0.612-2.016
				c0.527-0.624,0.983-1.188,1.368-1.693c0.384-0.504,0.731-0.982,1.044-1.439c0.312-0.455,0.612-0.924,0.9-1.404
				c0.288-0.479,0.576-1.008,0.864-1.584c0.24-0.432,0.312-0.875,0.216-1.332c-0.097-0.455-0.432-0.684-1.008-0.684h-14.904
				c-0.72,0-1.285-0.24-1.692-0.72c-0.409-0.479-0.625-1.02-0.648-1.62c-0.024-0.6,0.155-1.14,0.54-1.62
				c0.384-0.479,0.983-0.72,1.8-0.72h20.016c0.815,0,1.5,0.216,2.052,0.648c0.551,0.432,0.972,0.96,1.26,1.584
				c0.288,0.623,0.419,1.295,0.396,2.016c-0.025,0.72-0.205,1.393-0.54,2.016c-0.72,1.393-1.717,2.893-2.988,4.5
				C248.504,57.067,247.101,58.71,245.565,60.389z M242.685,73.061c-1.969-2.447-3.888-4.727-5.76-6.84
				c-1.872-2.111-3.936-4.248-6.192-6.408c-0.432-0.432-0.648-0.887-0.648-1.367c0-0.479,0.144-0.888,0.432-1.225
				c0.288-0.335,0.671-0.539,1.152-0.611c0.479-0.072,0.983,0.061,1.512,0.396c1.44,1.009,2.772,1.944,3.996,2.808
				c1.224,0.865,2.387,1.717,3.492,2.557c1.104,0.84,2.207,1.681,3.312,2.52c1.104,0.841,2.255,1.765,3.456,2.772
				c1.152,0.96,1.703,1.955,1.656,2.987c-0.048,1.032-0.42,1.896-1.116,2.593c-0.696,0.695-1.561,1.08-2.592,1.151
				C244.352,74.466,243.452,74.021,242.685,73.061z M239.877,30.582c1.296,1.584,2.292,2.845,2.988,3.78
				c0.695,0.936,1.212,1.645,1.548,2.124c0.671,0.96,0.828,1.872,0.468,2.735c-0.36,0.864-0.925,1.501-1.692,1.908
				c-0.769,0.408-1.596,0.48-2.484,0.217c-0.889-0.264-1.524-1.045-1.908-2.341c-0.385-1.392-0.732-2.556-1.044-3.491
				c-0.313-0.937-0.66-1.884-1.044-2.845c-0.241-0.671-0.277-1.235-0.108-1.692c0.167-0.455,0.443-0.791,0.828-1.008
				c0.384-0.216,0.804-0.275,1.26-0.18C239.144,29.886,239.54,30.149,239.877,30.582z M245.205,19.278
				c0.864,1.104,1.68,2.148,2.448,3.132c0.768,0.984,1.512,1.992,2.232,3.024c0.72,1.032,1.452,2.1,2.196,3.203
				c0.744,1.105,1.548,2.281,2.412,3.528c0.959,1.44,1.343,2.7,1.152,3.78c-0.192,1.08-0.661,1.86-1.404,2.34
				c-0.745,0.48-1.573,0.637-2.484,0.468c-0.912-0.167-1.608-0.756-2.088-1.764c-0.961-2.063-1.825-3.899-2.592-5.509
				c-0.769-1.607-1.453-3.023-2.052-4.248c-0.601-1.223-1.165-2.303-1.692-3.239c-0.529-0.937-1.008-1.765-1.44-2.483
				c-0.288-0.48-0.373-0.984-0.252-1.513c0.119-0.527,0.36-0.947,0.72-1.26c0.36-0.312,0.792-0.456,1.296-0.433
				C244.161,18.331,244.676,18.655,245.205,19.278z M269.541,40.086c0-1.104,0.335-1.944,1.008-2.521
				c0.672-0.575,1.416-0.863,2.232-0.863c0.816,0,1.56,0.301,2.232,0.9c0.671,0.6,1.008,1.476,1.008,2.627
				c0,2.258-0.025,4.32-0.072,6.192c-0.048,1.872-0.156,3.612-0.324,5.22c-0.169,1.609-0.408,3.133-0.72,4.572
				c-0.313,1.44-0.732,2.881-1.26,4.32c-1.249,3.168-3.492,5.977-6.732,8.424c-3.24,2.448-7.333,4.799-12.276,7.057
				c-0.672,0.287-1.26,0.323-1.764,0.107s-0.876-0.553-1.116-1.008c-0.241-0.457-0.3-0.949-0.18-1.477
				c0.119-0.528,0.491-0.936,1.116-1.224c4.896-2.353,8.52-4.739,10.872-7.164c2.351-2.423,3.863-4.716,4.536-6.876
				c0.623-2.063,1.019-4.536,1.188-7.416C269.456,48.078,269.541,44.454,269.541,40.086z M255.645,20.934
				c-0.817,0-1.417-0.252-1.8-0.756c-0.385-0.504-0.576-1.056-0.576-1.656c0-0.6,0.191-1.152,0.576-1.656
				c0.384-0.504,0.983-0.756,1.8-0.756h32.472c0.815,0,1.427,0.252,1.836,0.756c0.407,0.504,0.612,1.057,0.612,1.656
				c0,0.601-0.205,1.152-0.612,1.656c-0.409,0.504-1.021,0.756-1.836,0.756H255.645z M256.941,31.805
				c0-1.199,0.348-2.075,1.044-2.627c0.695-0.552,1.451-0.816,2.268-0.793c0.815,0.025,1.572,0.35,2.268,0.973
				c0.695,0.624,1.044,1.537,1.044,2.736v25.991c0,1.2-0.349,2.089-1.044,2.664c-0.696,0.576-1.453,0.853-2.268,0.828
				c-0.817-0.023-1.573-0.36-2.268-1.008c-0.696-0.648-1.044-1.571-1.044-2.772V31.805z M281.277,36.198
				c0-1.92-0.96-2.881-2.88-2.881h-10.656c-0.816,0-1.416-0.252-1.8-0.756c-0.385-0.504-0.576-1.055-0.576-1.655
				c0-0.6,0.191-1.152,0.576-1.656c0.384-0.504,0.983-0.756,1.8-0.756h1.656c0.144-0.672,0.252-1.308,0.324-1.908
				c0.072-0.6,0.132-1.188,0.18-1.764c0.144-1.056,0.576-1.788,1.296-2.196c0.72-0.407,1.464-0.551,2.232-0.432
				c0.768,0.12,1.404,0.48,1.908,1.08c0.504,0.601,0.612,1.38,0.324,2.34l-1.008,2.88h6.768c2.16,0,3.78,0.48,4.86,1.44
				c1.08,0.961,1.62,2.592,1.62,4.896v22.968c0,1.201-0.349,2.124-1.044,2.772c-0.696,0.647-1.452,0.984-2.268,1.008
				c-0.817,0.024-1.573-0.252-2.268-0.828c-0.696-0.575-1.044-1.464-1.044-2.664V36.198z M286.461,75.294
				c-2.016-1.969-3.996-3.744-5.94-5.328s-3.78-3.023-5.508-4.32c-0.432-0.334-0.673-0.719-0.72-1.151
				c-0.048-0.433,0.036-0.815,0.252-1.151s0.528-0.576,0.936-0.721c0.407-0.145,0.875-0.096,1.404,0.145
				c3.6,1.824,6.576,3.348,8.928,4.571c2.351,1.224,3.935,2.124,4.752,2.7c0.864,0.623,1.307,1.415,1.332,2.376
				c0.023,0.96-0.216,1.8-0.72,2.521c-0.504,0.72-1.188,1.176-2.052,1.367C288.261,76.493,287.372,76.158,286.461,75.294z"/>
			<path class="st0" d="M317.637,54.918c0.576-0.144,1.032-0.083,1.368,0.181c0.335,0.264,0.563,0.588,0.684,0.972
				c0.119,0.385,0.119,0.792,0,1.224c-0.121,0.432-0.396,0.745-0.828,0.936c-1.393,0.674-2.736,1.321-4.032,1.945
				c-1.296,0.623-2.604,1.236-3.924,1.836c-1.321,0.6-2.664,1.188-4.032,1.764c-1.368,0.576-2.82,1.152-4.356,1.728
				c-1.296,0.528-2.353,0.517-3.168-0.036c-0.817-0.551-1.345-1.271-1.584-2.16c-0.241-0.887-0.169-1.775,0.216-2.664
				c0.384-0.887,1.104-1.451,2.16-1.691c1.631-0.336,3.132-0.648,4.5-0.936c1.368-0.289,2.711-0.588,4.032-0.9
				c1.32-0.313,2.7-0.648,4.14-1.008C314.253,55.746,315.86,55.35,317.637,54.918z M317.205,34.397h-4.32v16.129
				c0,1.296-0.36,2.28-1.08,2.951c-0.72,0.674-1.524,1.009-2.412,1.009c-0.889,0-1.692-0.335-2.412-1.009
				c-0.72-0.671-1.08-1.655-1.08-2.951V34.397h-5.112c-0.769,0-1.345-0.252-1.728-0.756c-0.385-0.504-0.565-1.066-0.54-1.691
				c0.023-0.623,0.227-1.188,0.612-1.691c0.384-0.505,0.936-0.757,1.656-0.757h5.112V16.038c0-1.199,0.36-2.088,1.08-2.664
				s1.523-0.863,2.412-0.863c0.888,0,1.692,0.287,2.412,0.863c0.72,0.576,1.08,1.465,1.08,2.664v13.464h4.32
				c0.72,0,1.271,0.252,1.656,0.757c0.384,0.504,0.576,1.068,0.576,1.691c0,0.625-0.18,1.187-0.54,1.691
				S317.972,34.397,317.205,34.397z M318.789,61.902c1.584-0.335,3.443-0.78,5.58-1.332c2.135-0.552,4.223-1.116,6.264-1.692
				c2.04-0.576,3.912-1.104,5.616-1.584c1.703-0.479,2.939-0.839,3.708-1.08c0.576-0.144,1.055-0.096,1.44,0.145
				c0.384,0.24,0.648,0.564,0.792,0.972c0.144,0.408,0.132,0.841-0.036,1.296c-0.168,0.457-0.516,0.828-1.044,1.116
				c-1.152,0.624-2.568,1.308-4.248,2.052c-1.681,0.745-3.445,1.488-5.292,2.232c-1.848,0.744-3.697,1.488-5.544,2.232
				c-1.848,0.744-3.564,1.403-5.148,1.979c-1.152,0.432-2.136,0.384-2.952-0.144c-0.816-0.528-1.368-1.199-1.656-2.017
				c-0.288-0.815-0.252-1.656,0.108-2.521C316.737,62.694,317.54,62.143,318.789,61.902z M321.741,29.43
				c-0.816,0-1.429-0.252-1.836-0.756c-0.408-0.505-0.612-1.068-0.612-1.693c0-0.623,0.204-1.188,0.612-1.691
				c0.407-0.504,1.02-0.756,1.836-0.756h20.16c-0.048-1.487-0.072-3.071-0.072-4.752c0-1.68,0-3.432,0-5.256
				c0-1.104,0.335-1.932,1.008-2.484c0.672-0.551,1.404-0.828,2.196-0.828s1.523,0.277,2.196,0.828
				c0.671,0.553,1.008,1.381,1.008,2.484c0,1.775,0,3.504,0,5.184c0,1.681,0.024,3.289,0.072,4.824h12.528
				c0.815,0,1.428,0.252,1.836,0.756c0.407,0.504,0.612,1.068,0.612,1.691c0,0.625-0.205,1.188-0.612,1.693
				c-0.408,0.504-1.021,0.756-1.836,0.756h-12.456c0.096,3.887,0.263,7.451,0.504,10.691c0.24,3.24,0.551,6.156,0.936,8.748
				c0.96-1.968,1.86-3.971,2.7-6.012c0.839-2.04,1.595-4.188,2.268-6.444c0.335-1.056,0.923-1.765,1.764-2.124
				c0.839-0.359,1.656-0.42,2.448-0.18s1.428,0.744,1.908,1.512c0.479,0.769,0.504,1.753,0.072,2.952
				c-1.152,3.168-2.484,6.264-3.996,9.288c-1.512,3.023-3.348,6.072-5.508,9.144c0.864,3.121,1.991,5.569,3.384,7.345
				c0.24,0.287,0.515,0.492,0.828,0.611c0.312,0.121,0.695,0.084,1.152-0.107c0.456-0.191,1.008-0.552,1.656-1.08
				c0.648-0.527,1.404-1.297,2.268-2.305c0.432-0.479,0.9-0.707,1.404-0.684c0.504,0.025,0.924,0.205,1.26,0.54
				c0.335,0.337,0.551,0.78,0.648,1.332c0.095,0.552-0.072,1.069-0.504,1.548c-1.681,2.064-2.712,3.612-3.096,4.645
				c-0.385,1.031-0.457,1.787-0.216,2.268c0.432,0.768,0.576,1.523,0.432,2.268s-0.468,1.368-0.972,1.873
				c-0.504,0.504-1.141,0.791-1.908,0.863c-0.769,0.072-1.584-0.205-2.448-0.828c-2.016-1.393-3.744-3.108-5.184-5.148
				c-1.44-2.039-2.641-4.355-3.6-6.947c-1.728,1.969-3.625,3.949-5.688,5.939c-2.064,1.992-4.392,4.068-6.984,6.229
				c-0.72,0.576-1.345,0.84-1.872,0.792c-0.529-0.048-0.936-0.252-1.224-0.612c-0.288-0.359-0.444-0.768-0.468-1.224
				c-0.024-0.457,0.108-0.828,0.396-1.116c2.976-2.736,5.604-5.4,7.884-7.992c2.279-2.592,4.331-5.207,6.156-7.848
				c-0.576-2.495-1.008-5.159-1.296-7.992c-0.288-2.543-0.564-5.375-0.828-8.496c-0.264-3.119-0.468-6.936-0.612-11.447H321.741z
				 M326.853,51.606c0,1.008-0.324,1.764-0.972,2.268s-1.344,0.756-2.088,0.756c-0.745,0-1.44-0.252-2.088-0.756
				s-0.972-1.26-0.972-2.268V38.502c0-1.008,0.324-1.774,0.972-2.304c0.648-0.527,1.343-0.792,2.088-0.792
				c0.744,0,1.44,0.265,2.088,0.792c0.648,0.529,0.972,1.296,0.972,2.304V51.606z M334.701,35.622c1.584,0,2.724,0.408,3.42,1.225
				c0.695,0.816,1.044,1.92,1.044,3.312v9.937c0,1.632-0.373,2.735-1.116,3.312c-0.745,0.575-1.861,0.864-3.348,0.864h-4.32
				c-0.72,0-1.26-0.217-1.62-0.648c-0.36-0.432-0.54-0.924-0.54-1.477c0-0.551,0.18-1.043,0.54-1.476
				c0.36-0.432,0.9-0.647,1.62-0.647h2.52v-8.137c0-0.576-0.097-1.055-0.288-1.439c-0.192-0.384-0.552-0.576-1.08-0.576h-1.152
				c-0.72,0-1.26-0.216-1.62-0.648c-0.36-0.432-0.54-0.924-0.54-1.476s0.18-1.044,0.54-1.476c0.36-0.433,0.9-0.648,1.62-0.648
				H334.701z M354.141,20.43c-0.432-0.816-0.853-1.56-1.26-2.232c-0.408-0.672-0.997-1.56-1.764-2.664
				c-0.288-0.384-0.385-0.792-0.288-1.225c0.096-0.432,0.299-0.791,0.612-1.08c0.312-0.287,0.72-0.455,1.224-0.504
				c0.504-0.047,1.044,0.145,1.62,0.576c1.008,0.721,1.859,1.368,2.556,1.944c0.695,0.576,1.5,1.296,2.412,2.16
				c0.672,0.72,0.9,1.512,0.684,2.376c-0.216,0.863-0.648,1.548-1.296,2.052s-1.404,0.709-2.268,0.612
				C355.509,22.35,354.764,21.678,354.141,20.43z"/>
		</g>
	</g>
	<g>
		<g>
			<path class="st0" d="M36.116,23.814L29.23,2.231c-0.538-1.686-2.341-2.617-4.027-2.079L2.295,7.462
				C0.609,8-0.322,9.803,0.216,11.489l6.886,21.583c-6.625,7.665-8.821,18.186-5.714,27.924
				c4.887,15.318,21.325,23.803,36.643,18.916c15.317-4.887,23.803-21.325,18.916-36.643C53.84,33.531,45.956,26.226,36.116,23.814z
				 M36.083,73.805c-11.951,3.813-24.776-2.807-28.589-14.758c-2.581-8.088-0.47-16.871,5.507-22.921
				c0.838-0.848,1.136-2.091,0.774-3.227L7.296,12.594l16.802-5.361l6.479,20.306c0.362,1.136,1.325,1.976,2.499,2.182
				c8.377,1.47,15.184,7.407,17.765,15.495C54.654,57.167,48.034,69.992,36.083,73.805z"/>
			<path class="st0" d="M33.568,50.227c-7.725,0.358-8.952-2.256-17.183-1.429c-1.443,0.145-3.1,0.396-4.861,0.766
				c-0.357,2.559-0.161,5.235,0.677,7.861c2.99,9.372,13.012,14.545,22.383,11.555c9.259-2.954,14.414-12.771,11.654-22.044
				C42.719,48.673,38.585,49.994,33.568,50.227z"/>
		</g>
	</g>
</g>
</svg>