<!-- Generator: Adobe Illustrator 24.1.3, SVG Export Plug-In  -->
<svg version="1.1" xmlns="http://www.w3.org/2000/svg" xmlns:xlink="http://www.w3.org/1999/xlink" x="0px" y="0px"
	 width="257.356px" height="237.345px" viewBox="0 0 257.356 237.345"
	 style="overflow:visible;enable-background:new 0 0 257.356 237.345;" xml:space="preserve">
<style type="text/css">
	.st0{fill:#FFFFFF;stroke:#1C3B94;stroke-width:8;stroke-linecap:round;stroke-linejoin:round;stroke-miterlimit:10;}
	.st1{fill:#BF2222;}
	.st2{fill:none;}
	.st3{font-family:'HYQingFenTi-W';}
	.st4{font-size:36px;}
</style>
<defs>
</defs>
<g>
	<g>
		<rect x="4" y="4" class="st0" width="249.356" height="229.345"/>
		<g>
			<g>
				<path class="st1" d="M55.49,202.794c-0.517-0.024-0.931-0.21-1.242-0.558c-0.313-0.349-0.474-0.787-0.485-1.314
					c-0.013-0.527,0.27-1.032,0.846-1.512c0.743-0.624,1.397-1.26,1.962-1.908c0.563-0.648,1.109-1.355,1.638-2.124v-9.685
					c0-0.191-0.054-0.359-0.162-0.504c-0.107-0.144-0.294-0.215-0.558-0.215h-2.052c-0.408,0-0.715-0.133-0.918-0.396
					c-0.204-0.264-0.307-0.552-0.307-0.864c0-0.312,0.108-0.6,0.324-0.864c0.216-0.264,0.527-0.396,0.937-0.396h4.067
					c0.815,0,1.392,0.247,1.729,0.737c0.336,0.492,0.504,1.015,0.504,1.566v8.893c0,0.984,0.264,1.8,0.792,2.447
					c0.527,0.648,1.271,1.164,2.231,1.549c0.96,0.384,2.106,0.654,3.438,0.81c1.332,0.156,2.79,0.233,4.374,0.233
					c1.392,0,2.688-0.005,3.888-0.018c1.2-0.012,2.358-0.041,3.475-0.09c1.115-0.048,2.214-0.119,3.294-0.216
					c1.079-0.096,2.195-0.228,3.348-0.396c0.191-0.024,0.342,0.018,0.45,0.125c0.107,0.108,0.167,0.246,0.18,0.414
					c0.012,0.168-0.013,0.324-0.072,0.469c-0.06,0.144-0.174,0.24-0.342,0.287c-0.432,0.121-0.773,0.324-1.026,0.612
					c-0.252,0.288-0.39,0.6-0.413,0.937c-0.049,0.432-0.145,0.779-0.288,1.043c-0.145,0.265-0.492,0.396-1.044,0.396
					c-3.505,0-6.601-0.042-9.288-0.126c-2.688-0.085-5.125-0.318-7.309-0.702c-0.792-0.144-1.578-0.354-2.357-0.63
					c-0.78-0.276-1.501-0.612-2.16-1.008c-0.66-0.396-1.242-0.833-1.746-1.313s-0.889-1.008-1.152-1.584
					c-0.384,0.912-0.846,1.824-1.386,2.735c-0.54,0.912-1.122,1.728-1.746,2.448C56.48,202.578,56.005,202.818,55.49,202.794z
					 M56.551,173.13c-0.12-0.216-0.161-0.432-0.126-0.647c0.036-0.217,0.139-0.391,0.307-0.522c0.167-0.132,0.372-0.198,0.611-0.198
					c0.24,0,0.492,0.108,0.757,0.324c1.175,0.936,2.172,1.776,2.987,2.52c0.816,0.744,1.428,1.381,1.836,1.908
					c0.456,0.576,0.595,1.135,0.414,1.674c-0.18,0.541-0.504,0.955-0.972,1.242c-0.468,0.289-0.979,0.396-1.53,0.324
					s-0.984-0.432-1.296-1.08C58.747,176.922,57.751,175.074,56.551,173.13z M63.95,195.99c-0.229,0.023-0.432-0.023-0.612-0.145
					c-0.18-0.119-0.312-0.293-0.396-0.521c-0.085-0.229-0.054-0.462,0.09-0.702c0.624-1.151,1.146-2.269,1.566-3.349
					c0.419-1.08,0.756-2.303,1.008-3.672c0.252-1.367,0.432-2.987,0.54-4.859c0.107-1.872,0.162-4.176,0.162-6.912
					c0-0.6,0.18-1.056,0.54-1.368c0.359-0.312,0.761-0.468,1.206-0.468c0.443,0,0.846,0.156,1.205,0.468
					c0.36,0.313,0.54,0.769,0.54,1.368c0,2.664-0.096,4.956-0.287,6.876c-0.192,1.921-0.499,3.618-0.919,5.095
					c-0.42,1.475-0.96,2.82-1.619,4.031c-0.661,1.213-1.458,2.466-2.395,3.762C64.387,195.834,64.177,195.967,63.95,195.99z
					 M85.963,195.307c-0.023,0.552-0.216,1.02-0.575,1.403c-0.36,0.384-0.811,0.606-1.351,0.666s-1.025-0.162-1.458-0.666
					c-0.96-1.08-1.824-2.034-2.592-2.862c-0.769-0.828-1.536-1.613-2.304-2.357c-1.32,1.008-2.754,1.969-4.303,2.88
					c-1.548,0.912-3.246,1.824-5.094,2.735c-0.336,0.169-0.618,0.205-0.846,0.108c-0.229-0.095-0.396-0.245-0.504-0.45
					c-0.108-0.203-0.145-0.426-0.108-0.666c0.036-0.239,0.162-0.42,0.378-0.539c1.68-0.937,3.216-1.873,4.608-2.809
					c1.392-0.936,2.688-1.968,3.888-3.096l-3.888-3.348c-0.337-0.289-0.522-0.57-0.559-0.847c-0.035-0.275,0.024-0.509,0.181-0.702
					c0.155-0.191,0.365-0.317,0.63-0.378c0.264-0.06,0.54-0.005,0.828,0.162c0.863,0.576,1.674,1.122,2.43,1.638
					c0.756,0.517,1.494,1.039,2.214,1.566c0.552-0.624,1.063-1.277,1.53-1.962s0.93-1.409,1.386-2.179
					c0.12-0.191,0.126-0.383,0.019-0.575c-0.108-0.192-0.295-0.288-0.559-0.288h-8.244c-0.408,0-0.708-0.126-0.899-0.378
					c-0.192-0.252-0.288-0.534-0.288-0.847c0-0.311,0.096-0.594,0.288-0.846c0.191-0.252,0.491-0.378,0.899-0.378h10.261
					c0.671,0,1.224,0.126,1.655,0.378c0.433,0.252,0.738,0.576,0.918,0.973c0.181,0.396,0.246,0.828,0.198,1.295
					c-0.048,0.469-0.204,0.932-0.468,1.387c-1.248,2.016-2.677,3.768-4.284,5.256c0.768,0.6,1.566,1.236,2.395,1.908
					c0.827,0.672,1.745,1.416,2.754,2.232C85.7,194.227,85.988,194.754,85.963,195.307z M70.952,174.696
					c-0.096,0.204-0.132,0.427-0.108,0.666c0.024,0.239,0.114,0.45,0.271,0.63s0.365,0.27,0.63,0.27
					c1.704-0.023,3.456-0.113,5.256-0.27s3.672-0.354,5.616-0.594c0.792-0.096,1.344-0.379,1.656-0.846
					c0.312-0.469,0.426-0.942,0.342-1.423c-0.084-0.479-0.349-0.87-0.792-1.17c-0.444-0.3-1.026-0.329-1.746-0.09
					c-0.744,0.24-1.548,0.474-2.412,0.702s-1.758,0.444-2.682,0.648c-0.925,0.203-1.854,0.401-2.79,0.594
					c-0.937,0.191-1.836,0.359-2.7,0.504C71.227,174.366,71.047,174.492,70.952,174.696z"/>
				<path class="st1" d="M96.007,201.139c0,0.6-0.186,1.049-0.558,1.35c-0.372,0.3-0.786,0.449-1.242,0.449s-0.87-0.149-1.242-0.449
					c-0.372-0.301-0.558-0.75-0.558-1.35v-25.885c0-0.6,0.186-1.044,0.558-1.332c0.372-0.287,0.786-0.432,1.242-0.432
					s0.87,0.145,1.242,0.432c0.372,0.288,0.558,0.732,0.558,1.332V201.139z M116.959,173.454c1.152,0,1.992,0.323,2.521,0.972
					c0.527,0.648,0.792,1.429,0.792,2.34v24.373c0,0.432-0.133,0.797-0.396,1.098c-0.264,0.299-0.57,0.504-0.918,0.611
					c-0.348,0.108-0.702,0.132-1.062,0.072c-0.36-0.061-0.648-0.234-0.864-0.521c-0.384-0.528-0.805-0.955-1.26-1.278
					c-0.456-0.324-1.032-0.485-1.729-0.485H98.276c-0.408,0-0.708-0.127-0.9-0.379s-0.288-0.527-0.288-0.828
					c0-0.299,0.096-0.576,0.288-0.828s0.492-0.377,0.9-0.377h18.359v-20.916c0-0.456-0.132-0.811-0.396-1.063
					c-0.265-0.252-0.624-0.378-1.08-0.378H98.276c-0.408,0-0.715-0.126-0.918-0.378c-0.204-0.252-0.307-0.527-0.307-0.828
					c0-0.3,0.103-0.576,0.307-0.828c0.203-0.252,0.51-0.378,0.918-0.378H116.959z M103.388,191.166c0,0.625-0.187,1.086-0.559,1.387
					c-0.372,0.3-0.78,0.449-1.224,0.449c-0.444,0-0.853-0.149-1.225-0.449c-0.372-0.301-0.558-0.762-0.558-1.387v-8.389
					c0-0.6,0.186-1.049,0.558-1.35c0.372-0.299,0.78-0.449,1.225-0.449c0.443,0,0.852,0.15,1.224,0.449
					c0.372,0.301,0.559,0.75,0.559,1.35V191.166z M110.408,180.941h-4.896c-0.409,0-0.709,0.127-0.9,0.379
					c-0.192,0.252-0.288,0.527-0.288,0.828c0,0.3,0.096,0.576,0.288,0.828c0.191,0.252,0.479,0.377,0.864,0.377h2.771
					c0.288,0,0.534,0.09,0.738,0.271c0.203,0.181,0.306,0.414,0.306,0.702v6.264h-3.744c-0.408,0-0.714,0.127-0.918,0.379
					s-0.306,0.533-0.306,0.846s0.096,0.594,0.288,0.846c0.191,0.252,0.491,0.378,0.9,0.378h5.544c0.504,0,0.93-0.174,1.277-0.522
					c0.348-0.348,0.522-0.773,0.522-1.277v-7.776c0-0.743-0.223-1.35-0.666-1.817C111.745,181.176,111.151,180.941,110.408,180.941z
					"/>
				<path class="st1" d="M153.535,189.906h-9.36v9h13.032c0.408,0,0.72,0.132,0.937,0.396c0.216,0.264,0.323,0.557,0.323,0.881
					s-0.102,0.618-0.306,0.883c-0.204,0.264-0.521,0.396-0.954,0.396h-29.664c-0.432,0-0.756-0.132-0.972-0.396
					c-0.216-0.265-0.324-0.559-0.324-0.883s0.108-0.617,0.324-0.881c0.216-0.265,0.54-0.396,0.972-0.396h12.853v-9h-9.181
					c-0.479,0-0.84-0.139-1.08-0.414c-0.239-0.275-0.359-0.576-0.359-0.9s0.12-0.623,0.359-0.9c0.24-0.275,0.601-0.414,1.08-0.414
					h9.181v-4.319c0-0.576,0.197-1.014,0.594-1.313c0.396-0.301,0.828-0.451,1.296-0.451s0.9,0.15,1.296,0.451
					c0.396,0.3,0.594,0.737,0.594,1.313v4.319h9.36c0.432,0,0.762,0.139,0.99,0.414c0.228,0.277,0.348,0.576,0.359,0.9
					c0.013,0.324-0.096,0.625-0.323,0.9C154.333,189.768,153.992,189.906,153.535,189.906z M155.48,179.862h-26.208
					c-0.456,0-0.799-0.132-1.026-0.396c-0.229-0.265-0.342-0.559-0.342-0.883s0.113-0.623,0.342-0.9
					c0.228-0.275,0.57-0.414,1.026-0.414h26.208c0.432,0,0.762,0.139,0.99,0.414c0.228,0.277,0.347,0.576,0.359,0.9
					c0.012,0.324-0.096,0.618-0.324,0.883C156.278,179.73,155.935,179.862,155.48,179.862z M140.467,170.719
					c1.009,0.623,1.782,1.128,2.322,1.512s1.014,0.744,1.422,1.08c0.36,0.312,0.57,0.647,0.63,1.008
					c0.06,0.359,0.024,0.701-0.107,1.025c-0.133,0.324-0.342,0.601-0.63,0.828c-0.288,0.229-0.606,0.373-0.954,0.432
					c-0.349,0.061-0.702,0.013-1.063-0.144c-0.359-0.155-0.684-0.474-0.972-0.954c-0.265-0.432-0.564-0.905-0.9-1.422
					c-0.336-0.516-0.756-1.158-1.26-1.926c-0.192-0.24-0.27-0.48-0.233-0.721c0.035-0.239,0.138-0.443,0.306-0.611
					s0.378-0.27,0.63-0.307C139.91,170.484,140.18,170.551,140.467,170.719z"/>
				<path class="st1" d="M163.291,203.406c-0.384,0.072-0.702,0.023-0.954-0.145s-0.414-0.377-0.485-0.63
					c-0.072-0.252-0.043-0.498,0.09-0.737c0.132-0.24,0.378-0.408,0.738-0.504c3.384-0.816,6.197-1.783,8.441-2.898
					c2.244-1.116,3.75-2.406,4.519-3.87c0.264-0.504,0.474-0.99,0.63-1.458c0.155-0.468,0.275-1.025,0.359-1.674
					s0.138-1.452,0.162-2.412c0.023-0.959,0.036-2.196,0.036-3.708c0-0.647,0.192-1.128,0.576-1.44
					c0.384-0.311,0.798-0.468,1.242-0.468c0.443,0,0.857,0.157,1.242,0.468c0.383,0.313,0.575,0.793,0.575,1.44
					c0,1.728-0.023,3.138-0.071,4.229c-0.049,1.093-0.139,2.005-0.271,2.736c-0.132,0.732-0.318,1.362-0.558,1.891
					c-0.24,0.527-0.553,1.115-0.937,1.764c-0.432,0.72-1.11,1.439-2.034,2.16c-0.924,0.72-2.052,1.404-3.384,2.052
					s-2.838,1.247-4.518,1.8C167.011,202.554,165.211,203.021,163.291,203.406z M164.192,175.614c-0.433,0-0.751-0.126-0.954-0.378
					c-0.204-0.252-0.306-0.527-0.306-0.828c0-0.3,0.102-0.576,0.306-0.828c0.203-0.252,0.521-0.378,0.954-0.378h28.62
					c0.384,0,0.678,0.126,0.882,0.378c0.203,0.252,0.306,0.528,0.306,0.828c0,0.301-0.103,0.576-0.306,0.828
					c-0.204,0.252-0.498,0.378-0.882,0.378H164.192z M166.82,181.482c0-0.6,0.186-1.045,0.558-1.332
					c0.372-0.288,0.786-0.432,1.242-0.432s0.87,0.144,1.242,0.432c0.372,0.287,0.558,0.732,0.558,1.332v12.06
					c0,0.601-0.186,1.05-0.558,1.351c-0.372,0.3-0.786,0.449-1.242,0.449s-0.87-0.149-1.242-0.449
					c-0.372-0.301-0.558-0.75-0.558-1.351V181.482z M186.583,183.534c0-0.912-0.504-1.368-1.512-1.368h-12.42
					c-0.432,0-0.751-0.131-0.954-0.396c-0.204-0.264-0.306-0.545-0.306-0.846c0-0.3,0.102-0.582,0.306-0.846
					c0.203-0.264,0.522-0.396,0.954-0.396h3.888c0.048-0.264,0.096-0.539,0.145-0.828c0.048-0.287,0.096-0.6,0.144-0.936
					c0.096-0.576,0.365-0.978,0.811-1.206c0.443-0.228,0.894-0.312,1.35-0.252c0.455,0.06,0.834,0.259,1.134,0.595
					s0.366,0.768,0.198,1.295l-0.504,1.332h6.912c2.327,0,3.492,1.104,3.492,3.313v10.548c0,0.601-0.192,1.05-0.576,1.351
					c-0.385,0.3-0.799,0.449-1.242,0.449c-0.444,0-0.858-0.149-1.242-0.449c-0.384-0.301-0.576-0.75-0.576-1.351V183.534z
					 M180.104,197.43c-0.288-0.119-0.475-0.306-0.559-0.558s-0.084-0.485,0-0.702c0.084-0.216,0.246-0.39,0.486-0.521
					c0.239-0.132,0.54-0.15,0.9-0.055c0.936,0.265,1.974,0.57,3.113,0.918c1.14,0.349,2.269,0.715,3.385,1.098
					c1.115,0.385,2.159,0.751,3.132,1.099c0.972,0.349,1.746,0.654,2.321,0.918c0.624,0.312,0.99,0.738,1.099,1.278
					c0.107,0.539,0.036,1.031-0.216,1.476s-0.631,0.769-1.135,0.972c-0.504,0.204-1.056,0.127-1.655-0.233
					c-0.601-0.36-1.327-0.78-2.179-1.261c-0.852-0.479-1.764-0.978-2.735-1.493c-0.973-0.517-1.975-1.026-3.006-1.53
					C182.024,198.33,181.039,197.862,180.104,197.43z"/>
			</g>
		</g>
	</g>
	<polygon class="st0" points="128.678,41.192 72.36,95.191 91.86,95.191 91.86,132.346 118.366,132.346 118.366,102.006 
		137.18,102.006 137.18,132.346 165.496,132.346 165.496,95.191 184.996,95.191 	"/>
</g>
</svg>