<!-- Generator: Adobe Illustrator 24.0.1, SVG Export Plug-In  -->
<svg version="1.1" xmlns="http://www.w3.org/2000/svg" xmlns:xlink="http://www.w3.org/1999/xlink" x="0px" y="0px"
	 width="408.616px" height="93.111px" viewBox="0 0 408.616 93.111" style="enable-background:new 0 0 408.616 93.111;"
	 xml:space="preserve">
<style type="text/css">
	.st0{fill:#BF2222;}
	.st1{fill:none;}
	.st2{font-family:'HYQiuShi-W';}
	.st3{font-size:72px;}
</style>
<defs>
</defs>
<g>
	<g>
		<path class="st0" d="M31.724,26.101c1.008,0.072,1.968,0.108,2.88,0.108c0.96,0,1.824-0.18,2.592-0.541
			c0.767-0.359,1.271-0.684,1.512-0.971c1.824,0,3.323,0.313,4.5,0.936c1.176,0.624,1.764,1.848,1.764,3.672
			c0,0.529-0.084,1.285-0.252,2.268c-0.169,0.984-0.252,2.125-0.252,3.42v18.937c1.104-0.672,2.171-1.368,3.204-2.088
			c1.032-0.72,2.027-1.44,2.988-2.16c0,1.056-0.144,2.064-0.432,3.024c-0.288,0.961-0.673,1.848-1.152,2.664
			c-0.432,0.72-0.984,1.561-1.656,2.52c-0.672,0.961-1.416,1.848-2.232,2.664c-0.816,0.815-1.656,1.512-2.52,2.088
			c-0.864,0.576-1.681,0.864-2.448,0.864c-0.529,0-1.057-0.097-1.584-0.288c-0.529-0.192-1.021-0.48-1.476-0.864
			c-0.457-0.385-0.828-0.899-1.116-1.548c-0.288-0.648-0.432-1.428-0.432-2.34c0.432-0.24,0.803-0.551,1.116-0.936
			c0.312-0.385,0.468-0.937,0.468-1.656V29.377c-1.152,0.049-2.137,0.133-2.952,0.252c-0.817,0.12-1.561,0.18-2.232,0.18
			c-1.008,0-1.692-0.359-2.052-1.08c-0.36-0.72-0.54-1.729-0.54-3.023C29.947,25.896,30.716,26.029,31.724,26.101z M37.268,13.465
			c-0.385-1.008-0.828-2.076-1.332-3.204s-1.069-2.147-1.692-3.06c3.071,0,5.699,0.637,7.884,1.908
			c2.184,1.271,3.611,3.203,4.284,5.795c0.335,1.249,0.227,2.412-0.324,3.492c-0.552,1.08-1.38,1.764-2.484,2.053
			c-1.104,0.287-2.148,0.107-3.132-0.541c-0.984-0.647-1.668-1.595-2.052-2.844C38.083,15.865,37.7,14.665,37.268,13.465z
			 M80.432,28.477c-0.745,0.217-1.62,0.324-2.628,0.324H60.812c-0.192-0.576-0.601-1.031-1.224-1.368
			c-0.624-0.335-1.56-0.504-2.808-0.504h-3.456c0,0.528-0.121,1.224-0.36,2.088c-0.241,0.864-0.588,1.836-1.044,2.916
			c-0.457,1.08-0.997,2.208-1.62,3.384c-0.625,1.178-1.321,2.293-2.088,3.348c1.824,0,3.323-0.215,4.5-0.647
			c1.176-0.433,2.292-0.983,3.348-1.655c0.815-0.576,1.572-1.261,2.268-2.053c0.695-0.792,1.26-1.596,1.692-2.412h5.688v8.352
			H54.332c-0.529,0-1.092-0.011-1.692-0.035c-0.601-0.023-1.188-0.061-1.764-0.108c-0.576-0.047-1.104-0.095-1.584-0.144
			c-0.48-0.047-0.864-0.119-1.152-0.217c0,2.401,0.695,3.601,2.088,3.601h15.48v16.704h-6.912v-5.688
			c0-1.824,0.083-3.18,0.252-4.068c0.167-0.888,0.252-1.596,0.252-2.125c0-1.008-0.409-1.774-1.224-2.303
			c-0.817-0.528-1.728-0.793-2.736-0.793c-1.057,0-1.908,0.108-2.556,0.324c-0.648,0.217-1.357,0.469-2.124,0.756
			c0.384,0.673,0.659,1.43,0.828,2.269c0.167,0.841,0.252,1.788,0.252,2.844v4.104c0,1.057-0.121,1.969-0.36,2.735
			c-0.241,0.769-0.48,1.417-0.72,1.944c0.144,0.768,0.443,1.428,0.9,1.98c0.456,0.551,1.02,1.019,1.692,1.403
			c0.672,0.384,1.428,0.672,2.268,0.864c0.839,0.191,1.692,0.287,2.556,0.287c0.815-0.527,1.751-0.912,2.808-1.151
			c1.055-0.241,2.351-0.36,3.888-0.36H80.18c0.384,0.527,0.888,0.973,1.512,1.332c0.624,0.36,1.392,0.541,2.304,0.541
			c1.152,0,1.968-0.361,2.448-1.08c0.479-0.721,0.72-1.705,0.72-2.953v-6.479c0-1.823,0.096-3.179,0.288-4.067
			c0.191-0.889,0.288-1.596,0.288-2.125c0-1.008-0.288-1.775-0.864-2.304c-0.576-0.527-1.512-0.792-2.808-0.792
			c-0.96,0-1.836,0.107-2.628,0.324c-0.792,0.216-1.573,0.468-2.34,0.756c0.672,1.296,1.008,3,1.008,5.112v5.399
			c0,1.44-0.192,2.545-0.576,3.313h-6.696V43.345H89.18c0.767,0,1.296-0.132,1.584-0.396s0.432-0.66,0.432-1.188
			c0-0.384-0.169-0.731-0.504-1.044c-0.336-0.312-0.756-0.576-1.26-0.792s-1.057-0.384-1.656-0.504
			c-0.601-0.12-1.164-0.181-1.692-0.181c-0.241,0.241-0.732,0.469-1.476,0.685c-0.745,0.216-1.62,0.323-2.628,0.323h-9.144v-8.352
			h12.168c0.768,0,1.296-0.119,1.584-0.359c0.288-0.24,0.432-0.623,0.432-1.152c0-0.384-0.168-0.744-0.504-1.08
			c-0.336-0.336-0.756-0.611-1.26-0.828c-0.504-0.216-1.057-0.383-1.656-0.504c-0.601-0.119-1.165-0.18-1.692-0.18
			C81.667,28.033,81.175,28.261,80.432,28.477z M62.828,13.789c2.448-0.072,4.835-0.168,7.164-0.289
			c2.328-0.119,4.523-0.299,6.588-0.539c2.063-0.24,3.863-0.527,5.4-0.864c1.536-0.335,2.76-0.731,3.672-1.188
			c0.911-0.455,1.368-0.995,1.368-1.619c0-1.056-0.732-1.752-2.196-2.088c-1.465-0.336-3.636-0.504-6.516-0.504
			c-1.056,0.528-2.712,1.043-4.968,1.547c-2.257,0.504-4.777,0.973-7.56,1.404c-2.785,0.432-5.665,0.828-8.64,1.188
			c-2.977,0.36-5.688,0.684-8.136,0.972c0.288,0.432,0.695,0.781,1.224,1.044c0.528,0.265,1.104,0.48,1.728,0.647
			c0.624,0.17,1.26,0.277,1.908,0.324c0.648,0.049,1.26,0.072,1.836,0.072C58.003,13.896,60.379,13.861,62.828,13.789z
			 M51.812,20.089c-0.336-0.768-0.708-1.584-1.116-2.448c-0.409-0.863-0.805-1.631-1.188-2.304c1.296,0,2.531,0.084,3.708,0.252
			c1.175,0.169,2.255,0.468,3.24,0.899c0.983,0.433,1.824,0.997,2.52,1.692c0.695,0.696,1.188,1.548,1.476,2.556
			c0.288,1.105,0.216,2.148-0.216,3.133c-0.432,0.984-1.201,1.619-2.304,1.908c-1.105,0.287-2.136,0.144-3.096-0.433
			c-0.96-0.576-1.584-1.415-1.872-2.521C52.579,21.865,52.195,20.953,51.812,20.089z M66.536,25.921
			c-0.792-0.72-1.236-1.632-1.332-2.736c-0.097-1.247-0.205-2.603-0.324-4.067c-0.12-1.465-0.444-2.916-0.972-4.356
			c2.543,0.241,4.631,1.044,6.264,2.412c1.631,1.368,2.567,3.132,2.808,5.292c0.096,1.104-0.192,2.088-0.864,2.951
			c-0.673,0.865-1.584,1.346-2.736,1.44C68.275,26.953,67.328,26.641,66.536,25.921z M79.532,16.345
			c-0.241,1.008-0.565,2.112-0.972,3.312c-0.408,1.201-0.9,2.448-1.476,3.744c-0.576,1.297-1.224,2.545-1.944,3.744
			c1.296,0,2.664-0.312,4.104-0.936c1.44-0.623,2.772-1.428,3.996-2.412c1.224-0.983,2.243-2.04,3.06-3.168
			c0.815-1.127,1.224-2.196,1.224-3.204c0-1.343-0.732-2.279-2.196-2.808c-1.465-0.528-3.276-0.793-5.436-0.793
			C79.892,14.498,79.772,15.337,79.532,16.345z"/>
		<path class="st0" d="M103.508,14.4c0.527,0.145,1.427,0.265,2.7,0.36c1.271,0.097,2.436,0.144,3.492,0.144h19.656
			c-0.768-0.863-1.152-1.895-1.152-3.096c-0.048-0.959-0.121-1.872-0.216-2.736c-0.097-0.72-0.205-1.451-0.324-2.195
			c-0.12-0.744-0.277-1.355-0.468-1.836c1.872,0,3.467,0.168,4.788,0.504c1.32,0.336,2.376,0.816,3.168,1.439
			c0.792,0.625,1.368,1.345,1.728,2.16c0.36,0.816,0.54,1.681,0.54,2.592c0,0.337-0.048,0.697-0.144,1.08
			c-0.097,0.336-0.205,0.684-0.324,1.045c-0.121,0.359-0.3,0.708-0.54,1.043h12.384c1.536,0,2.88-0.107,4.032-0.324
			c1.152-0.215,1.847-0.443,2.088-0.684c0.768,0,1.523,0.084,2.268,0.252c0.744,0.169,1.404,0.396,1.98,0.684
			c0.576,0.289,1.044,0.625,1.404,1.009c0.36,0.385,0.54,0.769,0.54,1.151c0,0.529-0.144,0.913-0.432,1.152
			c-0.288,0.24-0.84,0.36-1.656,0.36c-0.385,0-0.792-0.024-1.224-0.072c-0.432-0.048-1.02-0.108-1.764-0.181
			c-0.745-0.071-1.692-0.131-2.844-0.18c-1.152-0.047-2.617-0.072-4.392-0.072H115.82c-1.537,0-2.833,0.025-3.888,0.072
			c-1.057,0.049-1.957,0.108-2.7,0.18c-0.745,0.072-1.356,0.133-1.836,0.181c-0.48,0.048-0.912,0.072-1.296,0.072
			c-1.056,0-1.753-0.36-2.088-1.08C103.675,16.705,103.508,15.697,103.508,14.4z M150.308,32.185c0.528,0,1.091,0.062,1.692,0.181
			c0.6,0.119,1.152,0.3,1.656,0.539c0.504,0.241,0.923,0.517,1.26,0.828c0.335,0.313,0.504,0.66,0.504,1.045
			c0,0.528-0.144,0.924-0.432,1.188c-0.288,0.264-0.817,0.396-1.584,0.396h-42.696c-1.393,0-2.088-1.199-2.088-3.601
			c0.288,0.097,0.671,0.169,1.152,0.216c0.479,0.049,1.008,0.097,1.584,0.145c0.576,0.048,1.164,0.084,1.764,0.107
			c0.6,0.025,1.163,0.036,1.692,0.036h31.392c1.008,0,1.883-0.108,2.628-0.323C149.575,32.725,150.067,32.473,150.308,32.185z
			 M150.308,23.113c0.528,0,1.091,0.061,1.692,0.18c0.6,0.12,1.152,0.301,1.656,0.539c0.504,0.241,0.923,0.518,1.26,0.828
			c0.335,0.313,0.504,0.661,0.504,1.045c0,0.528-0.144,0.924-0.432,1.188c-0.288,0.265-0.817,0.396-1.584,0.396h-42.192
			c-0.768,0-1.296-0.289-1.584-0.864c-0.288-0.576-0.432-1.487-0.432-2.736c0.239,0.097,0.6,0.169,1.08,0.216
			c0.479,0.049,1.008,0.098,1.584,0.145c0.576,0.049,1.164,0.084,1.764,0.107c0.6,0.025,1.164,0.037,1.692,0.037h30.888
			c1.008,0,1.883-0.109,2.628-0.324C149.575,23.652,150.067,23.4,150.308,23.113z M115.171,65.736c-1.632,0-2.892-0.504-3.78-1.512
			c-0.889-1.008-1.452-2.016-1.692-3.023c0.24-0.24,0.443-0.732,0.612-1.477c0.167-0.744,0.252-1.62,0.252-2.628v-9.792
			c0-1.008-0.061-1.943-0.18-2.809c-0.121-0.863-0.349-1.631-0.684-2.303c0.671-0.385,1.44-0.66,2.304-0.828
			c0.864-0.168,1.752-0.252,2.664-0.252c0.624,0,1.284,0.133,1.98,0.396c0.695,0.265,1.235,0.66,1.62,1.188h21.456
			c1.536,0,2.916-0.133,4.14-0.396c1.224-0.264,2.243-0.659,3.06-1.188c0.767,0,1.595,0.071,2.484,0.215
			c0.888,0.145,1.703,0.396,2.448,0.756c0.744,0.361,1.356,0.842,1.836,1.441c0.479,0.6,0.72,1.355,0.72,2.268
			c0,0.528-0.084,1.285-0.252,2.268c-0.169,0.984-0.252,2.101-0.252,3.348v10.225c0,1.055-0.3,2.004-0.9,2.844
			c-0.601,0.84-1.501,1.26-2.7,1.26c-1.296,0-2.34-0.313-3.132-0.936c-0.792-0.625-1.404-1.344-1.836-2.16h-27.072
			C118.027,64.704,116.995,65.736,115.171,65.736z M145.916,45.793h-27.288c-0.097,0.528-0.168,1.152-0.216,1.871
			c-0.048,0.721-0.072,1.633-0.072,2.736v9.288h27.072c0.144-0.527,0.263-1.091,0.36-1.692c0.096-0.6,0.144-1.234,0.144-1.907
			V45.793z"/>
		<path class="st0" d="M209.852,26.137c-1.104,1.393-2.28,2.557-3.528,3.492c-1.249,0.936-2.736,1.476-4.464,1.619v28.297
			c0,1.2-0.324,2.171-0.972,2.916c-0.648,0.743-1.524,1.115-2.628,1.115c-1.057,0-1.92-0.313-2.592-0.936
			c-0.673-0.625-1.2-1.344-1.584-2.16h-8.712v0.576c0,1.248-0.288,2.256-0.864,3.023c-0.576,0.768-1.417,1.152-2.52,1.152
			c-0.72,0-1.345-0.144-1.872-0.432c-0.529-0.288-0.984-0.66-1.368-1.116c-0.385-0.456-0.696-0.948-0.936-1.476
			c-0.241-0.529-0.432-1.031-0.576-1.512c0.239-0.24,0.456-0.732,0.648-1.477c0.191-0.744,0.288-1.62,0.288-2.628V23.113
			c0-1.009-0.061-1.945-0.18-2.809c-0.121-0.863-0.373-1.631-0.756-2.305c0.767-0.287,1.512-0.527,2.232-0.719
			c0.72-0.191,1.559-0.289,2.52-0.289c1.055,0,1.967,0.265,2.736,0.793c0.191-0.816,0.371-1.752,0.54-2.809
			c0.167-1.055,0.299-2.124,0.396-3.204c0.096-1.079,0.167-2.111,0.216-3.096c0.047-0.983,0.072-1.812,0.072-2.483
			c1.728,0,3.143,0.061,4.248,0.18c1.104,0.12,1.991,0.287,2.664,0.504c0.672,0.216,1.14,0.48,1.404,0.791
			c0.263,0.313,0.396,0.661,0.396,1.045c0,0.576-0.108,1.248-0.324,2.016c-0.216,0.769-0.504,1.561-0.864,2.376
			c-0.36,0.817-0.792,1.646-1.296,2.484c-0.504,0.841-1.021,1.597-1.548,2.268c2.16-0.239,3.816-0.743,4.968-1.512
			c0.767,0,1.559,0.071,2.376,0.216c0.815,0.145,1.548,0.396,2.196,0.756c0.648,0.36,1.188,0.841,1.62,1.44
			c0.432,0.601,0.648,1.356,0.648,2.269c0,0.527-0.097,1.284-0.288,2.268c-0.192,0.984-0.288,2.1-0.288,3.348v3.023
			c0.96-1.631,1.908-3.6,2.844-5.903s1.788-4.583,2.556-6.84c0.767-2.256,1.379-4.32,1.836-6.192
			c0.456-1.872,0.684-3.24,0.684-4.104h3.672c1.44,0,2.484,0.252,3.132,0.756s0.972,1.26,0.972,2.268c0,0.864-0.241,1.98-0.72,3.348
			c-0.48,1.369-1.056,2.797-1.728,4.285h2.592c1.536,0,2.916-0.119,4.14-0.36c1.224-0.239,2.243-0.624,3.06-1.152
			c0.768,0,1.548,0.072,2.34,0.216c0.792,0.145,1.512,0.396,2.16,0.756c0.648,0.36,1.176,0.828,1.584,1.404
			c0.407,0.576,0.612,1.32,0.612,2.232c0,0.528-0.084,1.285-0.252,2.268c-0.169,0.984-0.252,2.101-0.252,3.348l-0.504,31.608
			c0,1.009-0.156,1.969-0.468,2.88c-0.313,0.912-0.792,1.729-1.44,2.448s-1.453,1.284-2.412,1.692
			c-0.961,0.406-2.113,0.611-3.456,0.611c-0.864-0.336-1.789-0.78-2.772-1.332c-0.984-0.553-1.969-1.164-2.952-1.836
			c-0.984-0.672-1.884-1.392-2.7-2.16c-0.817-0.768-1.465-1.535-1.944-2.304c1.44,0.337,2.855,0.589,4.248,0.756
			c1.392,0.169,2.567,0.253,3.528,0.253c1.008,0,1.775-0.24,2.304-0.721c0.528-0.479,0.792-1.104,0.792-1.872l0.504-35.64h-10.296
			c-0.624,1.104-1.249,2.16-1.872,3.168C211.027,24.553,210.428,25.416,209.852,26.137z M185.372,36.937h9.216V21.025h-8.784
			c-0.097,0.527-0.192,1.199-0.288,2.016c-0.097,0.816-0.144,1.871-0.144,3.168V36.937z M194.156,57.385
			c0.096-0.527,0.191-1.08,0.288-1.656c0.095-0.576,0.144-1.176,0.144-1.8V39.961h-9.216v17.424H194.156z M210.284,41.977
			c-0.241-1.392-0.504-2.736-0.792-4.031c-0.241-1.104-0.552-2.293-0.936-3.564c-0.385-1.271-0.84-2.436-1.368-3.492
			c1.152,0.145,2.328,0.504,3.528,1.08c1.199,0.576,2.304,1.309,3.312,2.195c1.008,0.889,1.859,1.921,2.556,3.097
			c0.695,1.177,1.164,2.412,1.404,3.708c0.335,1.681,0.299,3.084-0.108,4.212c-0.408,1.128-1.164,1.813-2.268,2.052
			c-1.249,0.241-2.376-0.154-3.384-1.188C211.22,45.014,210.572,43.657,210.284,41.977z"/>
		<path class="st0" d="M280.412,29.736c1.536,0,3.012-0.119,4.428-0.359c1.415-0.24,2.507-0.623,3.276-1.152
			c0.671,0,1.415,0.061,2.232,0.18c0.815,0.121,1.584,0.324,2.304,0.612c-1.105-1.104-2.173-2.327-3.204-3.672
			c-1.033-1.343-1.98-2.747-2.844-4.212c-0.864-1.464-1.609-2.939-2.232-4.428c-0.625-1.488-1.08-2.953-1.368-4.393
			c-0.241-1.008-0.552-1.908-0.936-2.699c-0.384-0.793-0.768-1.428-1.152-1.908c0.528-0.433,1.235-0.793,2.124-1.08
			c0.888-0.288,1.739-0.432,2.556-0.432c0.767,0,1.44,0.168,2.016,0.504c0.576,0.336,0.911,1.008,1.008,2.016
			c0.384,2.064,1.284,4.164,2.7,6.3c1.415,2.136,3.035,4.067,4.86,5.796c1.824,1.729,3.731,3.145,5.724,4.248
			c1.991,1.105,3.755,1.656,5.292,1.656c0,2.112-0.565,3.84-1.692,5.184c-1.128,1.345-2.46,2.016-3.996,2.016
			c-0.961,0-1.933-0.203-2.916-0.611c-0.984-0.407-2.005-0.996-3.06-1.764c0.191,0.48,0.288,0.912,0.288,1.295
			c0,0.913-0.084,1.777-0.252,2.593c-0.168,0.816-0.252,1.849-0.252,3.096l-1.008,19.08c-0.097,2.017-0.769,3.792-2.016,5.328
			c-1.249,1.536-3.144,2.304-5.688,2.304c-1.008-0.385-2.077-0.876-3.204-1.476c-1.128-0.601-2.185-1.249-3.168-1.944
			c-0.984-0.695-1.872-1.404-2.664-2.124s-1.38-1.415-1.764-2.088c0.383,0.097,0.923,0.181,1.62,0.252
			c0.695,0.072,1.44,0.12,2.232,0.144c0.792,0.025,1.536,0.049,2.232,0.072c0.695,0.025,1.235,0.036,1.62,0.036
			c0.767,0,1.296-0.155,1.584-0.468c0.288-0.312,0.456-0.828,0.504-1.548l1.44-23.257h-13.032l-1.296,7.272
			c-0.529,2.688-1.272,5.472-2.232,8.353c-0.961,2.88-2.401,5.532-4.32,7.955c-1.92,2.425-4.453,4.418-7.596,5.977
			c-3.145,1.559-7.164,2.34-12.06,2.34c4.896-2.4,8.664-5.64,11.304-9.72c2.639-4.079,4.511-9.048,5.616-14.904l1.368-7.272h-6.48
			c-1.152,0-1.825-0.647-2.016-1.943c-1.728,0.961-3.517,1.717-5.364,2.268c-1.849,0.553-3.685,0.805-5.508,0.756
			c2.063-1.631,4.115-3.516,6.156-5.651c2.04-2.136,3.863-4.356,5.472-6.66c1.607-2.304,2.903-4.644,3.888-7.021
			c0.983-2.375,1.476-4.667,1.476-6.875c0.72-0.289,1.5-0.527,2.34-0.721c0.839-0.191,1.764-0.287,2.772-0.287
			c1.056,0,1.919,0.252,2.592,0.756c0.671,0.504,1.008,1.284,1.008,2.34c0,1.775-0.324,3.576-0.972,5.4
			c-0.648,1.824-1.548,3.611-2.7,5.363c-1.152,1.753-2.509,3.396-4.068,4.932c-1.561,1.537-3.229,2.905-5.004,4.104
			c0.672,0.097,1.356,0.144,2.052,0.144c0.695,0,1.355,0,1.98,0H280.412z"/>
		<path class="st0" d="M322.82,49.537c-1.057,0-1.753-0.371-2.088-1.116c-0.336-0.743-0.504-1.739-0.504-2.988
			c0.528,0.144,1.428,0.265,2.7,0.36c1.271,0.097,2.436,0.144,3.492,0.144h16.272l0.216-0.504c0.24-0.815,0.36-1.751,0.36-2.808
			c0-1.056-0.12-1.848-0.36-2.377c0.815-0.287,1.607-0.527,2.376-0.719c0.767-0.191,1.8-0.289,3.096-0.289
			c1.296,0,2.256,0.313,2.88,0.937c0.623,0.624,0.767,1.681,0.432,3.168l-0.648,2.592h13.176c1.536,0,2.88-0.108,4.032-0.323
			c1.152-0.217,1.847-0.443,2.088-0.685c0.767,0,1.523,0.085,2.268,0.252c0.744,0.169,1.404,0.396,1.98,0.685
			c0.576,0.287,1.044,0.611,1.404,0.972s0.54,0.731,0.54,1.116c0,0.528-0.144,0.924-0.432,1.188
			c-0.288,0.265-0.817,0.396-1.584,0.396c-0.385,0-0.804-0.023-1.26-0.072c-0.457-0.047-1.057-0.108-1.8-0.18
			c-0.745-0.072-1.692-0.133-2.844-0.181c-1.152-0.047-2.617-0.071-4.392-0.071h-11.88c1.872,1.871,3.863,3.468,5.976,4.787
			c2.112,1.321,4.224,2.389,6.336,3.205c2.111,0.816,4.176,1.403,6.192,1.764c2.016,0.359,3.863,0.539,5.544,0.539
			c0,1.777-0.576,3.229-1.728,4.356s-2.641,1.692-4.464,1.692c-3.456,0-7.141-1.08-11.052-3.24
			c-3.913-2.16-7.524-5.279-10.836-9.359c-2.448,4.512-5.976,7.739-10.584,9.684c-4.608,1.943-10.681,2.916-18.216,2.916
			c2.16-0.769,4.32-1.692,6.48-2.772c2.16-1.079,4.199-2.304,6.12-3.672c1.919-1.368,3.672-2.868,5.256-4.5s2.903-3.431,3.96-5.399
			h-8.784c-1.537,0-2.833,0.024-3.888,0.071c-1.057,0.048-1.957,0.108-2.7,0.181c-0.745,0.071-1.357,0.133-1.836,0.18
			C323.635,49.514,323.203,49.537,322.82,49.537z M351.548,22.609h11.304c1.536,0,2.891-0.109,4.068-0.324
			c1.176-0.217,1.883-0.443,2.124-0.685c0.768,0,1.523,0.085,2.268,0.252c0.744,0.169,1.404,0.396,1.98,0.685
			c0.576,0.287,1.044,0.624,1.404,1.008c0.36,0.385,0.54,0.768,0.54,1.152c0,0.528-0.144,0.912-0.432,1.151
			c-0.288,0.241-0.84,0.36-1.656,0.36c-0.385,0-0.792-0.023-1.224-0.072c-0.432-0.047-1.021-0.107-1.764-0.18
			c-0.745-0.072-1.705-0.132-2.88-0.18c-1.177-0.048-2.653-0.072-4.428-0.072h-11.304v8.64c0,1.249-0.265,2.244-0.792,2.987
			c-0.529,0.746-1.296,1.117-2.304,1.117c-0.864,0-1.609-0.145-2.232-0.433c-0.625-0.288-1.141-0.659-1.548-1.116
			c-0.408-0.455-0.732-0.947-0.972-1.476c-0.241-0.528-0.432-1.056-0.576-1.584c0.24-0.239,0.468-0.731,0.684-1.476
			s0.324-1.621,0.324-2.629v-0.72c-3.265,3.985-6.793,6.829-10.584,8.532c-3.792,1.704-7.969,2.556-12.528,2.556
			c1.487-0.767,3.035-1.692,4.644-2.772c1.608-1.08,3.192-2.242,4.752-3.491c1.56-1.247,3.035-2.567,4.428-3.96
			c1.392-1.392,2.592-2.783,3.6-4.176h-4.176c-1.537,0-2.844,0.024-3.924,0.072s-1.993,0.107-2.736,0.18
			c-0.745,0.072-1.356,0.133-1.836,0.18c-0.48,0.049-0.912,0.072-1.296,0.072c-1.008,0-1.692-0.36-2.052-1.08
			c-0.36-0.721-0.54-1.729-0.54-3.024c0.288,0.097,0.671,0.169,1.152,0.216c0.479,0.049,1.008,0.098,1.584,0.145
			c0.576,0.049,1.163,0.084,1.764,0.107c0.6,0.025,1.163,0.037,1.692,0.037h16.056v-9.217c0-2.16-0.336-3.888-1.008-5.184
			c0.672-0.336,1.451-0.588,2.34-0.756c0.888-0.168,1.956-0.252,3.204-0.252c1.055,0,1.883,0.252,2.484,0.756
			c0.6,0.504,0.9,1.284,0.9,2.34c0,0.528-0.084,1.224-0.252,2.088c-0.169,0.863-0.252,2.209-0.252,4.031V22.609z M332.468,18.433
			c-0.385-1.199-0.84-2.376-1.368-3.528c-0.432-0.959-0.925-1.979-1.476-3.06c-0.552-1.08-1.116-2.027-1.692-2.845
			c1.775,0,3.348,0.241,4.716,0.721c1.368,0.48,2.52,1.104,3.456,1.872c0.936,0.769,1.667,1.632,2.196,2.592
			c0.527,0.961,0.864,1.897,1.008,2.808c0.24,1.201,0.216,2.293-0.072,3.276c-0.288,0.984-0.984,1.573-2.088,1.765
			c-1.104,0.24-2.1,0-2.988-0.721C333.271,20.593,332.707,19.633,332.468,18.433z M368.18,38.305
			c-0.961,0.673-2.016,0.792-3.168,0.359c-1.152-0.432-2.088-1.151-2.808-2.159c-0.576-0.768-1.285-1.656-2.124-2.664
			c-0.84-1.009-1.728-2.004-2.664-2.988c-0.936-0.983-1.884-1.872-2.844-2.664c-0.961-0.792-1.849-1.379-2.664-1.764
			c2.688,0,4.943,0.144,6.768,0.432c1.823,0.288,3.348,0.696,4.572,1.224c1.224,0.529,2.208,1.141,2.952,1.836
			c0.744,0.697,1.404,1.43,1.98,2.197c0.335,0.48,0.623,1.008,0.864,1.584c0.24,0.575,0.372,1.151,0.396,1.728
			c0.024,0.575-0.061,1.116-0.252,1.62C368.995,37.549,368.659,37.969,368.18,38.305z M353.852,21.529
			c0.624-0.768,1.26-1.729,1.908-2.881s1.235-2.327,1.764-3.527c0.528-1.199,0.947-2.352,1.26-3.457
			c0.312-1.104,0.468-2.016,0.468-2.735c2.4,0,4.224,0.276,5.472,0.828c1.248,0.552,1.872,1.476,1.872,2.772
			c0,0.96-0.349,1.955-1.044,2.987c-0.696,1.032-1.62,2.005-2.772,2.916c-1.152,0.913-2.497,1.656-4.032,2.231
			C357.211,21.24,355.58,21.529,353.852,21.529z"/>
	</g>
</g>
</svg>