<!-- Generator: Adobe Illustrator 24.1.3, SVG Export Plug-In  -->
<svg version="1.1" xmlns="http://www.w3.org/2000/svg" xmlns:xlink="http://www.w3.org/1999/xlink" x="0px" y="0px"
	 width="500.753px" height="981.048px" viewBox="0 0 500.753 981.048"
	 style="overflow:visible;enable-background:new 0 0 500.753 981.048;" xml:space="preserve">
<style type="text/css">
	.st0{fill:#FFFFFF;stroke:#1C3B94;stroke-width:19.4763;stroke-linecap:round;stroke-linejoin:round;stroke-miterlimit:10;}
	.st1{fill:none;}
	.st2{fill:#1C3B94;}
	.st3{fill:#BF2222;}
	.st4{font-family:'HYQingFenTi-W';}
	.st5{font-size:146px;}
	.st6{letter-spacing:14;}
</style>
<defs>
</defs>
<g>
	<rect x="9.738" y="9.738" class="st0" width="481.277" height="961.572"/>
	<g>
		<rect x="102.221" y="106.281" class="st1" width="317.582" height="773.902"/>
		<path class="st2" d="M120.471,201.328c-2.336,2.24-4.526,3.212-6.57,2.92s-3.602-1.216-4.672-2.774
			c-1.072-1.556-1.437-3.38-1.095-5.475c0.34-2.092,1.775-3.818,4.307-5.183c3.6-1.946,6.837-3.942,9.709-5.986
			c2.87-2.044,5.425-3.99,7.665-5.84c0.194-0.194,0.365-0.315,0.511-0.365c0.146-0.048,0.315-0.121,0.511-0.219
			c0.194-5.84,0.314-12.287,0.365-19.345c0.048-7.057,0.073-14.867,0.073-23.434c0-2.432,0.752-4.257,2.263-5.475
			c1.508-1.216,3.139-1.825,4.891-1.825s3.381,0.634,4.891,1.898c1.508,1.266,2.263,3.164,2.263,5.693
			c0,7.008-0.025,13.482-0.073,19.418c-0.05,5.938-0.171,11.461-0.365,16.571c-0.196,5.11-0.463,9.854-0.803,14.235
			c-0.342,4.38-0.755,8.518-1.241,12.409c-0.682,5.063-1.656,9.687-2.92,13.87c-1.266,4.187-2.897,8.08-4.891,11.681
			c-1.996,3.602-4.405,7.03-7.227,10.293c-2.824,3.26-6.132,6.497-9.928,9.709c-0.876,0.68-1.802,0.924-2.774,0.729
			c-0.974-0.196-1.802-0.634-2.482-1.313c-0.682-0.683-1.047-1.533-1.095-2.556c-0.05-1.021,0.413-2.068,1.387-3.139
			c4.866-4.771,8.614-10.195,11.242-16.279c2.628-6.082,4.38-13.505,5.256-22.265l0.73-9.636
			C127.575,193.64,124.267,197.532,120.471,201.328z M114.339,161.761c-0.78-2.628-1.558-5.256-2.336-7.884
			c-0.78-2.628-1.51-4.817-2.19-6.57c-0.292-0.972-0.244-1.92,0.146-2.847c0.388-0.924,0.972-1.629,1.752-2.117
			c0.778-0.485,1.679-0.656,2.701-0.511c1.022,0.146,2.019,0.803,2.993,1.971c0.584,0.683,1.314,1.632,2.19,2.848
			c0.876,1.218,1.752,2.481,2.628,3.796c0.876,1.313,1.702,2.532,2.482,3.649c0.778,1.12,1.314,1.924,1.606,2.409
			c1.556,2.336,1.971,4.503,1.241,6.497c-0.73,1.996-1.948,3.431-3.65,4.308c-1.704,0.876-3.504,0.948-5.402,0.219
			C116.602,166.798,115.215,164.878,114.339,161.761z M236.103,231.696c2.724,0.584,4.526,1.774,5.402,3.577
			c0.876,1.8,1.022,3.625,0.438,5.475c-0.584,1.848-1.752,3.358-3.504,4.526c-1.752,1.168-3.894,1.361-6.424,0.584
			c-6.716-2.044-13.603-4.479-20.659-7.301c-7.058-2.823-14.187-6.521-21.389-11.096c-6.23,2.824-13.117,5.768-20.659,8.833
			c-7.544,3.066-15.987,6.352-25.331,9.855c-1.168,0.485-2.263,0.438-3.285-0.146s-1.752-1.364-2.19-2.336
			c-0.438-0.974-0.536-1.971-0.292-2.993c0.242-1.021,1.045-1.825,2.409-2.409c7.884-3.116,15.184-6.036,21.9-8.76
			c6.716-2.724,12.848-5.498,18.396-8.322c-2.824-2.14-5.598-4.428-8.322-6.861c-2.726-2.432-5.452-5.11-8.176-8.03
			c-0.974-0.972-1.387-1.946-1.241-2.92c0.146-0.972,0.584-1.8,1.314-2.482c0.73-0.68,1.606-1.095,2.628-1.24
			c1.022-0.146,1.971,0.123,2.847,0.803c3.698,3.116,7.323,5.89,10.877,8.322c3.552,2.434,7.031,4.672,10.439,6.716
			c7.3-4.476,12.994-9.246,17.082-14.309c0.778-1.069,0.997-2.044,0.657-2.92c-0.342-0.876-1.339-1.313-2.993-1.313h-47.742
			c-1.558,0-2.751-0.511-3.577-1.533c-0.828-1.021-1.241-2.14-1.241-3.358c0-1.216,0.388-2.336,1.168-3.357
			c0.778-1.022,1.994-1.533,3.65-1.533h59.276c2.14,0,4.015,0.463,5.621,1.387c1.606,0.927,2.797,2.143,3.577,3.65
			c0.778,1.51,1.045,3.212,0.803,5.11c-0.244,1.897-1.145,3.82-2.701,5.767c-2.824,3.408-6.084,6.595-9.782,9.563
			c-3.7,2.97-7.982,5.816-12.848,8.54c5.548,2.532,11.071,4.649,16.571,6.352C224.3,229.239,230.067,230.624,236.103,231.696z
			 M164.855,154.462c0-2.724,0.778-4.745,2.336-6.059c1.556-1.314,3.26-1.972,5.11-1.972c1.848,0,3.552,0.657,5.11,1.972
			c1.556,1.313,2.336,3.335,2.336,6.059c0,4.284-0.707,8.008-2.117,11.169c-1.412,3.164-3.285,5.964-5.621,8.396
			c-2.336,2.434-5.014,4.551-8.03,6.351c-3.018,1.803-6.132,3.431-9.344,4.892c-1.168,0.487-2.24,0.561-3.212,0.219
			c-0.974-0.34-1.729-0.899-2.263-1.68c-0.536-0.777-0.755-1.628-0.657-2.555c0.096-0.924,0.68-1.727,1.752-2.409
			c2.53-1.653,4.72-3.234,6.57-4.745c1.848-1.508,3.358-3.187,4.526-5.036c1.168-1.849,2.044-3.942,2.628-6.278
			S164.855,157.673,164.855,154.462z M153.613,138.694c-1.752,0-3.043-0.512-3.869-1.533c-0.828-1.022-1.241-2.165-1.241-3.431
			c0-1.265,0.413-2.409,1.241-3.432c0.826-1.021,2.117-1.533,3.869-1.533h27.886l-4.964-9.781c-0.584-0.972-0.755-1.898-0.511-2.774
			c0.242-0.876,0.705-1.581,1.387-2.117c0.68-0.533,1.533-0.825,2.555-0.876c1.022-0.048,2.117,0.365,3.285,1.241
			c3.212,2.336,5.596,4.211,7.154,5.621c1.556,1.412,2.578,2.361,3.066,2.847c0.972,0.975,1.606,1.948,1.898,2.92
			c0.292,0.975,0.34,1.948,0.146,2.92h40.442c1.752,0,3.089,0.512,4.015,1.533c0.924,1.022,1.387,2.167,1.387,3.432
			c0,1.266-0.463,2.408-1.387,3.431c-0.926,1.021-2.263,1.533-4.015,1.533H153.613z M188.507,155.922
			c-1.656,0-2.872-0.511-3.65-1.533c-0.78-1.021-1.168-2.116-1.168-3.284s0.388-2.264,1.168-3.285
			c0.778-1.022,1.994-1.533,3.65-1.533h21.17c3.114,0,5.498,0.974,7.154,2.92c1.654,1.948,2.482,4.526,2.482,7.738v6.716
			c0,2.24,0.413,3.7,1.241,4.38c0.826,0.683,2.311,1.022,4.453,1.022h7.154c1.752,0,3.089,0.584,4.015,1.752
			c0.924,1.168,1.387,2.459,1.387,3.868c0,1.412-0.463,2.701-1.387,3.869c-0.926,1.168-2.263,1.752-4.015,1.752h-12.556
			c-5.744,0-9.734-1.216-11.972-3.649c-2.24-2.432-3.358-5.936-3.358-10.513v-6.716c0-2.336-1.218-3.504-3.65-3.504H188.507z"/>
		<path class="st2" d="M283.699,144.387c0,3.796-0.025,7.154-0.073,10.074c-0.05,2.92-0.124,5.599-0.219,8.03
			c-0.098,2.434-0.292,4.795-0.584,7.081c-0.292,2.288-0.634,4.649-1.022,7.081c-0.488,2.532-1.583,4.284-3.285,5.256
			c-1.704,0.974-3.383,1.241-5.037,0.803c-1.656-0.438-2.97-1.533-3.942-3.285c-0.974-1.752-0.926-4.088,0.146-7.008
			c0.972-2.821,1.775-5.352,2.409-7.592c0.632-2.238,1.191-4.453,1.679-6.643c0.486-2.19,0.898-4.429,1.241-6.717
			c0.34-2.285,0.753-4.891,1.241-7.811c0.096-1.168,0.559-2.019,1.387-2.555c0.826-0.534,1.679-0.753,2.555-0.657
			c0.876,0.098,1.679,0.488,2.409,1.168C283.334,142.296,283.699,143.219,283.699,144.387z M300.635,239.141
			c0,2.337-0.682,4.089-2.044,5.257c-1.364,1.168-2.872,1.752-4.526,1.752c-1.656,0-3.164-0.584-4.526-1.752
			c-1.364-1.168-2.044-2.92-2.044-5.257V121.904c0-2.432,0.68-4.234,2.044-5.402c1.362-1.168,2.87-1.727,4.526-1.679
			c1.654,0.05,3.162,0.657,4.526,1.825c1.362,1.168,2.044,2.92,2.044,5.256V239.141z M308.52,139.132
			c1.848,2.824,3.358,5.307,4.526,7.446c1.168,2.142,2.238,4.332,3.212,6.57c0.876,2.044,0.851,3.796-0.073,5.256
			c-0.926,1.46-2.117,2.481-3.577,3.065s-2.92,0.584-4.38,0c-1.46-0.584-2.336-1.945-2.628-4.088
			c-0.584-3.697-1.095-6.617-1.533-8.76c-0.438-2.14-0.949-4.476-1.533-7.008c-0.196-0.876-0.073-1.654,0.365-2.336
			c0.438-0.68,0.972-1.144,1.606-1.388c0.632-0.241,1.337-0.267,2.117-0.072C307.399,138.014,308.031,138.452,308.52,139.132z
			 M393.929,137.526h-30.076v7.737h24.09c1.556,0,2.724,0.488,3.504,1.46c0.778,0.975,1.168,2.045,1.168,3.213
			s-0.39,2.239-1.168,3.212c-0.78,0.974-1.948,1.46-3.504,1.46h-24.09v8.029h34.31c1.556,0,2.724,0.488,3.504,1.46
			c0.778,0.975,1.168,2.069,1.168,3.285c0,1.219-0.39,2.313-1.168,3.285c-0.78,0.975-1.948,1.46-3.504,1.46h-82.636
			c-1.558,0-2.726-0.485-3.504-1.46c-0.78-0.972-1.168-2.066-1.168-3.285c0-1.216,0.388-2.311,1.168-3.285
			c0.778-0.972,1.946-1.46,3.504-1.46h34.31v-8.029h-23.944c-1.558,0-2.726-0.486-3.504-1.46c-0.78-0.973-1.168-2.044-1.168-3.212
			s0.388-2.238,1.168-3.213c0.778-0.972,1.946-1.46,3.504-1.46h23.944v-7.737h-30.076c-1.558,0-2.726-0.486-3.504-1.46
			c-0.78-0.972-1.168-2.044-1.168-3.212s0.388-2.238,1.168-3.213c0.778-0.972,1.946-1.46,3.504-1.46h30.076v-6.569
			c0.096-2.53,0.876-4.428,2.336-5.694c1.46-1.264,3.066-1.897,4.818-1.897s3.333,0.634,4.745,1.897
			c1.41,1.267,2.117,3.164,2.117,5.694v6.569h30.076c1.556,0,2.724,0.488,3.504,1.46c0.778,0.975,1.168,2.045,1.168,3.213
			s-0.39,2.24-1.168,3.212C396.653,137.04,395.485,137.526,393.929,137.526z M334.215,239.141c0,2.337-0.707,4.063-2.117,5.184
			c-1.412,1.118-2.993,1.679-4.745,1.679c-1.752,0-3.335-0.561-4.745-1.679c-1.412-1.12-2.117-2.847-2.117-5.184V186.29
			c0-2.336,0.705-4.063,2.117-5.183c1.41-1.118,2.993-1.68,4.745-1.68c1.752,0,3.333,0.562,4.745,1.68
			c1.41,1.12,2.117,2.847,2.117,5.183V239.141z M392.615,193.298c0-2.044-0.171-3.917-0.511-5.621
			c-0.342-1.701-0.974-3.161-1.898-4.38c-0.926-1.216-2.19-2.165-3.796-2.847c-1.606-0.68-3.675-1.022-6.205-1.022h-37.376
			c-1.656,0-2.872,0.488-3.65,1.46c-0.78,0.975-1.168,2.069-1.168,3.285c0,1.219,0.388,2.313,1.168,3.285
			c0.778,0.975,1.994,1.46,3.65,1.46h30.368c3.698,0,5.548,2.095,5.548,6.278v23.651c0,1.948-0.098,3.577-0.292,4.892
			c-0.196,1.313-0.73,2.336-1.606,3.065c-0.876,0.73-2.215,1.219-4.015,1.46c-1.802,0.244-4.259,0.27-7.373,0.073
			c-0.974-0.096-1.752,0.171-2.336,0.803c-0.584,0.635-0.926,1.362-1.022,2.19c-0.098,0.826,0.073,1.606,0.511,2.336
			c0.438,0.73,1.191,1.143,2.263,1.241c4.38,0.68,7.688,1.581,9.928,2.701c2.238,1.117,3.212,2.65,2.92,4.599
			c-0.292,1.752,0.365,2.92,1.971,3.504s3.381,0.194,5.329-1.168c1.654-1.168,2.993-2.336,4.015-3.504s1.8-2.409,2.336-3.723
			c0.534-1.314,0.876-2.774,1.022-4.38c0.146-1.606,0.219-3.432,0.219-5.476V193.298z M370.131,205.124h-27.302
			c-1.46,0-2.555-0.461-3.285-1.387c-0.73-0.924-1.095-1.972-1.095-3.14s0.365-2.212,1.095-3.139
			c0.73-0.924,1.825-1.387,3.285-1.387h27.302c1.46,0,2.578,0.463,3.358,1.387c0.778,0.927,1.168,1.971,1.168,3.139
			s-0.39,2.216-1.168,3.14C372.709,204.663,371.591,205.124,370.131,205.124z M369.985,221.33h-27.156
			c-1.46,0-2.555-0.461-3.285-1.387c-0.73-0.924-1.095-1.972-1.095-3.14s0.365-2.213,1.095-3.139
			c0.73-0.924,1.825-1.387,3.285-1.387h27.156c1.556,0,2.701,0.463,3.431,1.387c0.73,0.926,1.095,1.971,1.095,3.139
			s-0.365,2.216-1.095,3.14C372.686,220.869,371.541,221.33,369.985,221.33z"/>
		<path class="st2" d="M114.339,445.42c-0.974,0.68-1.948,0.949-2.92,0.803c-0.974-0.146-1.777-0.536-2.409-1.168
			c-0.634-0.634-0.999-1.437-1.095-2.408c-0.098-0.975,0.292-1.898,1.168-2.774c1.654-1.85,3.187-3.577,4.599-5.183
			c1.41-1.606,2.749-3.263,4.015-4.965c1.264-1.701,2.505-3.526,3.723-5.475c1.216-1.946,2.504-4.088,3.869-6.424
			c1.168-2.14,2.676-3.285,4.526-3.431c1.848-0.146,3.504,0.292,4.964,1.313c1.46,1.022,2.432,2.482,2.92,4.38
			c0.486,1.898-0.05,3.773-1.606,5.621c-3.212,3.796-6.643,7.323-10.293,10.585C122.15,439.554,118.329,442.595,114.339,445.42z
			 M113.901,343.803c-1.558,0-2.726-0.511-3.504-1.532c-0.78-1.022-1.168-2.141-1.168-3.358c0-1.216,0.388-2.336,1.168-3.358
			c0.778-1.021,1.946-1.532,3.504-1.532h5.694v-11.534c0-2.336,0.705-4.088,2.117-5.256c1.41-1.168,2.993-1.752,4.745-1.752
			c1.752,0,3.333,0.584,4.745,1.752c1.41,1.168,2.117,2.92,2.117,5.256v11.534h22.046v-11.534c0-2.336,0.68-4.088,2.044-5.256
			c1.362-1.168,2.895-1.752,4.599-1.752c1.702,0,3.235,0.584,4.599,1.752c1.362,1.168,2.044,2.92,2.044,5.256v11.534h5.548
			c1.556,0,2.724,0.511,3.504,1.532c0.778,1.022,1.168,2.143,1.168,3.358c0,1.218-0.39,2.336-1.168,3.358
			c-0.78,1.021-1.948,1.532-3.504,1.532h-5.548v58.108h6.132c1.654,0,2.895,0.511,3.723,1.533c0.826,1.021,1.241,2.142,1.241,3.357
			c0,1.219-0.415,2.336-1.241,3.358c-0.828,1.021-2.069,1.533-3.723,1.533h-61.758c-1.656,0-2.897-0.512-3.723-1.533
			c-0.828-1.022-1.241-2.14-1.241-3.358c0-1.216,0.413-2.336,1.241-3.357c0.826-1.022,2.067-1.533,3.723-1.533h6.57v-58.108H113.901
			z M140.911,387.75c-1.46,0-2.58-0.485-3.358-1.46c-0.78-0.972-1.168-2.019-1.168-3.139c0-1.118,0.388-2.165,1.168-3.14
			c0.778-0.972,1.898-1.46,3.358-1.46h14.454V365.12h-14.454c-1.46,0-2.58-0.486-3.358-1.46c-0.78-0.972-1.168-2.019-1.168-3.139
			c0-1.118,0.388-2.165,1.168-3.14c0.778-0.972,1.898-1.46,3.358-1.46h14.454v-12.118h-22.046v58.108h22.046V387.75H140.911z
			 M158.431,436.368c-1.364-3.019-2.58-5.548-3.65-7.592c-1.072-2.044-2.336-4.38-3.796-7.008c-0.584-0.877-0.78-1.801-0.584-2.774
			c0.194-0.972,0.632-1.752,1.314-2.336c0.68-0.584,1.533-0.899,2.555-0.949c1.022-0.048,2.117,0.415,3.285,1.387
			c1.556,1.364,2.92,2.532,4.088,3.504c1.168,0.975,2.19,1.876,3.066,2.701c0.876,0.828,1.702,1.656,2.482,2.482
			c0.778,0.828,1.606,1.777,2.482,2.847c1.556,1.848,2.044,3.698,1.46,5.548c-0.584,1.849-1.656,3.309-3.212,4.38
			c-1.558,1.07-3.285,1.533-5.183,1.388C160.84,439.798,159.403,438.606,158.431,436.368z M177.557,444.69
			c-0.682,0.876-1.558,1.361-2.628,1.46c-1.072,0.096-2.044-0.073-2.92-0.512c-0.876-0.438-1.46-1.12-1.752-2.044
			c-0.292-0.926-0.05-2.021,0.73-3.284c2.14-3.311,3.99-6.717,5.548-10.221c1.556-3.504,2.847-7.445,3.869-11.826
			c1.022-4.38,1.825-9.293,2.409-14.745c0.584-5.45,1.022-11.729,1.314-18.835c0.292-7.104,0.486-15.184,0.584-24.235
			c0.096-9.052,0.146-19.368,0.146-30.952c0-2.336,0.73-4.088,2.19-5.256s3.066-1.752,4.818-1.752s3.358,0.584,4.818,1.752
			s2.19,2.92,2.19,5.256c0,10.708-0.05,20.367-0.146,28.981c-0.098,8.613-0.342,16.475-0.73,23.578
			c-0.39,7.106-1.022,13.53-1.898,19.272c-0.876,5.744-2.117,11.096-3.723,16.06c-1.606,4.965-3.602,9.661-5.986,14.09
			C184.004,435.905,181.061,440.31,177.557,444.69z M224.861,443.084c-1.948,1.362-3.748,1.8-5.402,1.314
			c-1.656-0.488-2.336-1.606-2.044-3.358c0.096-0.974-0.073-2.021-0.511-3.139c-0.438-1.12-1.146-2.19-2.117-3.212
			c-0.974-1.022-2.215-1.924-3.723-2.701c-1.51-0.78-3.237-1.314-5.183-1.606c-1.072-0.096-1.802-0.511-2.19-1.241
			c-0.39-0.729-0.511-1.482-0.365-2.263c0.146-0.777,0.511-1.482,1.095-2.117c0.584-0.632,1.362-0.898,2.336-0.803
			c3.114,0.292,5.571,0.415,7.373,0.365c1.8-0.048,3.139-0.34,4.015-0.876c0.876-0.534,1.435-1.337,1.679-2.409
			c0.242-1.07,0.365-2.53,0.365-4.38v-18.834h-13.87c-1.558,0-2.726-0.511-3.504-1.533c-0.78-1.021-1.168-2.117-1.168-3.285
			s0.388-2.263,1.168-3.285c0.778-1.021,1.946-1.532,3.504-1.532h13.87V365.12h-13.87c-1.558,0-2.726-0.511-3.504-1.533
			c-0.78-1.021-1.168-2.117-1.168-3.285s0.388-2.263,1.168-3.285c0.778-1.021,1.946-1.532,3.504-1.532h13.87v-16.206
			c0-4.184-1.85-6.278-5.548-6.278h-7.884c-1.656,0-2.872-0.511-3.65-1.533c-0.78-1.021-1.168-2.165-1.168-3.431
			c0-1.264,0.388-2.409,1.168-3.431c0.778-1.022,1.994-1.533,3.65-1.533h14.892c2.53,0,4.599,0.342,6.205,1.021
			c1.606,0.683,2.87,1.632,3.796,2.848c0.924,1.218,1.556,2.678,1.898,4.38c0.34,1.704,0.511,3.577,0.511,5.621v88.038
			c0,4.088-0.682,7.519-2.044,10.293C230.651,438.047,228.267,440.65,224.861,443.084z"/>
		<path class="st2" d="M277.713,345.994c0-2.432,0.778-4.234,2.336-5.402c1.556-1.168,3.26-1.727,5.11-1.679
			c1.848,0.05,3.552,0.682,5.11,1.898c1.556,1.218,2.336,3.043,2.336,5.475v92.563c0,2.433-0.78,4.257-2.336,5.476
			c-1.558,1.216-3.262,1.825-5.11,1.825c-1.85,0-3.554-0.609-5.11-1.825c-1.558-1.219-2.336-3.043-2.336-5.476V345.994z
			 M300.781,337.818c-2.434-3.796-4.576-7.031-6.424-9.709c-1.85-2.676-3.796-5.329-5.84-7.957
			c-0.682-0.876-0.974-1.775-0.876-2.701c0.096-0.924,0.438-1.702,1.022-2.336c0.584-0.632,1.337-0.997,2.263-1.095
			c0.924-0.097,1.971,0.195,3.139,0.876c4.574,2.92,8.297,5.427,11.169,7.519c2.87,2.094,5.475,4.211,7.811,6.351
			c1.946,1.753,2.724,3.724,2.336,5.913c-0.39,2.19-1.387,3.968-2.993,5.329c-1.606,1.364-3.504,2.021-5.694,1.972
			C304.504,341.931,302.533,340.544,300.781,337.818z M306.767,359.572c0-2.432,0.753-4.234,2.263-5.402
			c1.508-1.168,3.187-1.752,5.037-1.752c1.848,0,3.527,0.584,5.037,1.752c1.508,1.168,2.263,2.971,2.263,5.402v48.18
			c0,2.532-0.755,4.453-2.263,5.768c-1.51,1.313-3.189,1.971-5.037,1.971c-1.85,0-3.529-0.657-5.037-1.971
			c-1.51-1.314-2.263-3.235-2.263-5.768V359.572z M327.645,334.46c-1.656,0-2.897-0.534-3.723-1.605
			c-0.828-1.07-1.241-2.213-1.241-3.432c0-1.216,0.413-2.358,1.241-3.431c0.826-1.07,2.067-1.606,3.723-1.606h52.706
			c9.052,0,13.578,4.479,13.578,13.433v90.228c0,7.98-3.942,14.017-11.826,18.104c-1.266,0.68-2.434,0.851-3.504,0.511
			c-1.072-0.342-1.704-1.291-1.898-2.847c-0.488-3.116-1.996-5.402-4.526-6.862c-2.532-1.46-6.182-2.532-10.95-3.212
			c-1.266-0.196-2.167-0.683-2.701-1.46c-0.536-0.78-0.755-1.606-0.657-2.482c0.096-0.876,0.461-1.653,1.095-2.336
			c0.632-0.68,1.533-1.021,2.701-1.021c3.698,0.098,6.691,0.05,8.979-0.146c2.286-0.193,4.038-0.657,5.256-1.387
			c1.216-0.73,2.044-1.825,2.482-3.285s0.657-3.406,0.657-5.84v-75.482c0-3.892-1.948-5.84-5.84-5.84H327.645z M329.397,414.906
			c-1.656,0-2.872-0.511-3.65-1.533c-0.78-1.021-1.168-2.14-1.168-3.358c0-1.216,0.388-2.336,1.168-3.357
			c0.778-1.022,1.994-1.533,3.65-1.533h20.586V366.58c0-3.114-1.558-4.672-4.672-4.672h-15.914c-1.656,0-2.897-0.511-3.723-1.533
			c-0.828-1.021-1.241-2.117-1.241-3.285s0.413-2.263,1.241-3.285c0.826-1.021,2.067-1.532,3.723-1.532h22.922
			c4.184,0,7.275,1.24,9.271,3.723c1.994,2.482,2.993,5.427,2.993,8.833v39.274c0,2.823-0.854,5.328-2.555,7.519
			c-1.704,2.19-4.357,3.285-7.957,3.285H329.397z M329.981,387.458c-1.656,0-2.897-0.485-3.723-1.46
			c-0.828-0.972-1.241-2.066-1.241-3.285c0-1.216,0.413-2.311,1.241-3.285c0.826-0.972,2.067-1.46,3.723-1.46h11.534
			c1.752,0,3.041,0.488,3.869,1.46c0.826,0.975,1.241,2.069,1.241,3.285c0,1.219-0.416,2.313-1.241,3.285
			c-0.828,0.975-2.117,1.46-3.869,1.46H329.981z"/>
		<path class="st2" d="M117.259,545.702c0-2.432,0.73-4.234,2.19-5.402s3.066-1.752,4.818-1.752s3.358,0.584,4.818,1.752
			c1.46,1.168,2.19,2.971,2.19,5.402v90.082c0,2.53-0.73,4.402-2.19,5.621c-1.46,1.216-3.066,1.825-4.818,1.825
			s-3.358-0.609-4.818-1.825c-1.46-1.219-2.19-3.091-2.19-5.621V545.702z M135.947,587.676c-0.876-1.021-1.314-2.116-1.314-3.285
			c0-1.168,0.438-2.263,1.314-3.284c0.876-1.022,2.14-1.533,3.796-1.533h15.476v-25.842c0-1.752-0.584-3.114-1.752-4.088
			c-1.168-0.973-2.678-1.461-4.526-1.461h-9.198c-1.558,0-2.726-0.46-3.504-1.387c-0.78-0.924-1.218-1.971-1.314-3.139
			c-0.098-1.168,0.169-2.263,0.803-3.285c0.632-1.021,1.629-1.629,2.993-1.825c0.388-2.724,0.705-5.57,0.949-8.541
			c0.242-2.968,0.413-5.183,0.511-6.643c0.096-2.724,0.997-4.672,2.701-5.84c1.702-1.168,3.479-1.606,5.329-1.314
			c1.848,0.292,3.406,1.267,4.672,2.92c1.264,1.656,1.556,3.895,0.876,6.716c-0.488,1.656-1.168,3.529-2.044,5.621
			c-0.876,2.095-1.996,4.405-3.358,6.936h7.738c4.866,0,8.249,1.241,10.147,3.723c1.898,2.482,2.847,5.475,2.847,8.979v71.54
			c0,3.408-0.901,6.132-2.701,8.176c-1.802,2.044-4.989,3.065-9.563,3.065h-17.082c-1.656,0-2.872-0.511-3.65-1.532
			c-0.78-1.022-1.168-2.141-1.168-3.358c0-1.216,0.388-2.336,1.168-3.358c0.778-1.021,1.994-1.532,3.65-1.532h15.476V589.21h-15.476
			C138.087,589.21,136.823,588.699,135.947,587.676z M172.301,567.821c0.388,1.021,0.997,1.752,1.825,2.189
			c0.826,0.438,1.752,0.562,2.774,0.365c1.022-0.193,1.971-0.924,2.847-2.189c4.088-6.133,7.738-12.678,10.95-19.638
			c3.212-6.958,5.84-14.818,7.884-23.579c0.584-2.628,0.219-4.768-1.095-6.424c-1.314-1.653-2.92-2.65-4.818-2.993
			c-1.898-0.34-3.773,0.051-5.621,1.168c-1.85,1.12-2.97,3.092-3.358,5.913c-1.364,8.372-2.993,15.987-4.891,22.85
			c-1.898,6.861-4.015,13.213-6.351,19.053C171.959,565.704,171.911,566.798,172.301,567.821z M189.164,584.391
			c-1.606-3.796-3.091-7.104-4.453-9.928c-0.39-0.876-0.438-1.727-0.146-2.555c0.292-0.826,0.778-1.508,1.46-2.044
			c0.68-0.534,1.482-0.803,2.409-0.803c0.924,0,1.825,0.438,2.701,1.313c6.716,6.814,12.068,13.286,16.06,19.418
			c1.46,2.24,1.775,4.38,0.949,6.424c-0.828,2.044-2.142,3.577-3.942,4.6c-1.802,1.021-3.723,1.313-5.767,0.876
			c-2.044-0.438-3.504-1.972-4.38-4.6C192.399,592.422,190.77,588.188,189.164,584.391z M212.524,645.274
			c-1.412-0.683-2.215-1.704-2.409-3.066c-0.292-1.752-0.949-3.139-1.971-4.161c-1.022-1.021-2.409-1.825-4.161-2.409
			c-1.752-0.584-3.846-1.021-6.278-1.313c-2.434-0.292-5.16-0.584-8.176-0.876c-1.072-0.099-1.875-0.562-2.409-1.387
			c-0.536-0.828-0.78-1.702-0.73-2.629c0.048-0.924,0.388-1.752,1.022-2.481c0.632-0.73,1.581-1.095,2.847-1.095
			c2.14,0.098,4.33,0.146,6.57,0.146c2.238,0,4.33-0.048,6.278-0.146c1.946-0.096,3.698-0.292,5.256-0.584
			c1.556-0.292,2.822-0.73,3.796-1.314c1.946-1.168,3.431-3.333,4.453-6.497c1.022-3.162,1.775-7.614,2.263-13.358
			c0.486-5.742,0.778-12.871,0.876-21.39c0.096-8.516,0.146-18.615,0.146-30.295c0-1.556-0.317-2.701-0.949-3.431
			c-0.634-0.73-1.825-1.096-3.577-1.096h-13.578c-1.558,0-2.726-0.511-3.504-1.532c-0.78-1.022-1.168-2.14-1.168-3.358
			c0-1.216,0.388-2.336,1.168-3.357c0.778-1.022,1.946-1.533,3.504-1.533h21.9c2.14,0,3.892,0.342,5.256,1.021
			c1.362,0.683,2.457,1.606,3.285,2.774c0.826,1.168,1.387,2.481,1.679,3.941s0.438,2.921,0.438,4.381
			c0,14.796-0.146,27.498-0.438,38.105c-0.292,10.61-1.022,19.614-2.19,27.01c-1.168,7.398-2.897,13.409-5.183,18.031
			c-2.288,4.622-5.379,8.297-9.271,11.023C215.517,645.662,213.934,645.954,212.524,645.274z"/>
		<path class="st3" d="M138.137,833.301c-1.168,2.044-2.532,3.406-4.088,4.088c-1.558,0.681-3.066,0.804-4.526,0.365
			c-1.46-0.438-2.678-1.364-3.65-2.773c-0.974-1.412-1.46-3.285-1.46-5.621v-54.313c0-1.945-1.022-2.92-3.066-2.92h-8.322
			c-1.656,0-2.897-0.533-3.723-1.605c-0.828-1.07-1.241-2.238-1.241-3.504c0-1.265,0.438-2.433,1.314-3.505
			c0.876-1.069,2.14-1.605,3.796-1.605h16.644c2.432,0,4.38,0.854,5.84,2.555c1.46,1.704,2.19,3.773,2.19,6.205v44.822
			c0,0.584,0.194,1.072,0.584,1.46c0.388,0.39,0.876,0.342,1.46-0.146l8.614-6.569c0.972-0.486,1.92-0.584,2.847-0.292
			c0.924,0.292,1.606,0.853,2.044,1.679c0.438,0.828,0.559,1.752,0.365,2.774c-0.196,1.021-0.926,2.021-2.19,2.992
			c-2.24,1.656-4.576,3.942-7.008,6.862C142.127,827.17,139.985,830.188,138.137,833.301z M117.697,724.824
			c-0.682-0.972-0.926-1.946-0.73-2.92c0.194-0.972,0.607-1.752,1.241-2.336c0.632-0.584,1.46-0.924,2.482-1.022
			c1.022-0.096,2.019,0.292,2.993,1.168c4.672,3.992,8.37,7.351,11.096,10.074c2.724,2.727,5.012,5.16,6.862,7.3
			c1.264,1.46,1.946,2.945,2.044,4.453c0.096,1.51-0.196,2.897-0.876,4.161c-0.682,1.266-1.656,2.288-2.92,3.066
			c-1.266,0.779-2.628,1.218-4.088,1.313c-1.46,0.098-2.872-0.242-4.234-1.021c-1.364-0.778-2.482-2.141-3.358-4.089
			c-1.168-2.724-2.215-5.06-3.139-7.008c-0.926-1.945-1.802-3.673-2.628-5.183c-0.828-1.508-1.606-2.87-2.336-4.088
			C119.376,727.477,118.573,726.188,117.697,724.824z M237.125,802.641h-35.916v23.507h18.542v-11.534
			c0-2.238,0.68-3.917,2.044-5.037c1.362-1.118,2.895-1.679,4.599-1.679c1.702,0,3.235,0.561,4.599,1.679
			c1.362,1.12,2.044,2.799,2.044,5.037v23.506c0,1.46-0.488,2.676-1.46,3.65c-0.974,0.972-2.117,1.653-3.431,2.044
			c-1.314,0.388-2.653,0.388-4.015,0c-1.364-0.391-2.434-1.267-3.212-2.628c-1.46-2.337-2.945-3.869-4.453-4.6
			c-1.51-0.729-3.237-1.095-5.183-1.095h-35.186c-1.364,0-2.409-0.488-3.139-1.46c-0.73-0.975-1.095-2.044-1.095-3.212
			s0.365-2.238,1.095-3.212c0.73-0.972,1.775-1.46,3.139-1.46h12.118v-23.507h-36.354c-1.46,0-2.532-0.485-3.212-1.46
			c-0.682-0.972-1.022-2.066-1.022-3.284c0-1.216,0.34-2.312,1.022-3.285c0.68-0.972,1.752-1.46,3.212-1.46h36.354v-5.84
			c0-2.238,0.68-3.942,2.044-5.11c1.362-1.168,2.847-1.752,4.453-1.752c1.606,0,3.088,0.562,4.453,1.679
			c1.362,1.12,2.044,2.848,2.044,5.184v5.84h35.916c1.556,0,2.701,0.488,3.431,1.46c0.73,0.974,1.095,2.069,1.095,3.285
			c0,1.218-0.365,2.313-1.095,3.284C239.826,802.156,238.681,802.641,237.125,802.641z M224.569,718.546
			c2.336-0.68,4.234-0.461,5.694,0.657c1.46,1.12,2.336,2.507,2.628,4.161c0.292,1.656-0.146,3.285-1.314,4.891
			c-1.168,1.606-3.212,2.605-6.132,2.993c-4.38,0.584-9.052,1.12-14.016,1.606c-4.964,0.487-10.391,0.948-16.279,1.387
			c-5.891,0.438-12.289,0.828-19.199,1.168c-6.912,0.342-14.504,0.657-22.776,0.949c-0.876,0-1.583-0.34-2.117-1.022
			c-0.536-0.68-0.853-1.435-0.949-2.263c-0.098-0.826,0.048-1.606,0.438-2.336c0.388-0.73,1.022-1.144,1.898-1.241
			c8.078-0.584,15.768-1.314,23.068-2.19s14.064-1.824,20.294-2.847c6.228-1.021,11.776-2.044,16.644-3.065
			C217.317,720.371,221.357,719.422,224.569,718.546z M169.819,771.106c-1.072,2.434-2.482,4.916-4.234,7.445
			c-1.752,2.532-4.138,5.744-7.154,9.637c-0.78,1.072-1.704,1.656-2.774,1.752c-1.072,0.098-2.021-0.121-2.847-0.657
			c-0.828-0.534-1.412-1.337-1.752-2.409c-0.342-1.07-0.123-2.286,0.657-3.65c1.46-2.529,2.628-5.012,3.504-7.445
			c0.876-2.432,1.848-5.206,2.92-8.322c0.778-2.336,1.994-3.844,3.65-4.526c1.654-0.68,3.212-0.752,4.672-0.219
			c1.46,0.536,2.603,1.559,3.431,3.066C170.718,767.287,170.695,769.062,169.819,771.106z M168.651,837.828
			c0,2.044-0.682,3.6-2.044,4.672c-1.364,1.07-2.873,1.606-4.526,1.606c-1.656,0-3.164-0.536-4.526-1.606
			c-1.364-1.072-2.044-2.628-2.044-4.672v-23.214c0-2.238,0.68-3.917,2.044-5.037c1.362-1.118,2.87-1.679,4.526-1.679
			c1.654,0,3.162,0.561,4.526,1.679c1.362,1.12,2.044,2.799,2.044,5.037V837.828z M162.665,739.57
			c2.724,2.824,4.891,5.109,6.497,6.861s2.943,3.311,4.015,4.673c1.46,1.948,1.873,3.796,1.241,5.548
			c-0.634,1.752-1.679,3.043-3.139,3.869c-1.46,0.828-3.043,1.021-4.745,0.584c-1.704-0.438-2.945-1.921-3.723-4.453
			c-1.072-3.212-1.996-5.815-2.774-7.812c-0.78-1.993-1.558-3.818-2.336-5.475c-0.39-0.778-0.463-1.533-0.219-2.263
			c0.242-0.73,0.632-1.314,1.168-1.752c0.534-0.438,1.19-0.657,1.971-0.657C161.399,738.694,162.081,738.986,162.665,739.57z
			 M228.073,778.406h-51.538c-1.46,0-2.532-0.486-3.212-1.46c-0.682-0.972-1.022-2.02-1.022-3.14c0-1.117,0.34-2.164,1.022-3.139
			c0.68-0.972,1.752-1.46,3.212-1.46h51.538c1.362,0,2.384,0.488,3.066,1.46c0.68,0.975,1.022,2.021,1.022,3.139
			c0,1.12-0.342,2.168-1.022,3.14C230.457,777.92,229.435,778.406,228.073,778.406z M190.989,737.38
			c1.848,2.532,3.504,4.868,4.964,7.008c1.46,2.143,2.87,4.431,4.234,6.862c1.264,2.143,1.483,4.065,0.657,5.767
			c-0.828,1.704-1.996,2.921-3.504,3.65c-1.51,0.73-3.116,0.828-4.818,0.292c-1.704-0.534-2.799-2.019-3.285-4.453
			c-0.584-2.92-1.146-5.522-1.679-7.811c-0.536-2.286-1.241-4.939-2.117-7.957c-0.292-0.972-0.244-1.825,0.146-2.556
			c0.388-0.729,0.898-1.264,1.533-1.605c0.632-0.34,1.314-0.461,2.044-0.365C189.894,736.31,190.501,736.7,190.989,737.38z
			 M212.305,757.673c0.876-2.336,1.679-4.817,2.409-7.445c0.73-2.629,1.581-5.937,2.555-9.929c0.584-2.336,1.702-3.818,3.358-4.453
			c1.654-0.632,3.26-0.656,4.818-0.072c1.556,0.584,2.774,1.729,3.65,3.431c0.876,1.704,0.73,3.723-0.438,6.059
			c-1.46,3.116-2.993,5.865-4.599,8.249c-1.606,2.387-3.529,4.892-5.767,7.52c-0.584,0.78-1.314,1.241-2.19,1.387
			c-0.876,0.146-1.656,0.051-2.336-0.292c-0.682-0.34-1.193-0.876-1.533-1.605C211.89,759.791,211.915,758.841,212.305,757.673z"/>
		<path class="st3" d="M394.221,744.971H278.005c-1.752,0-3.066-0.533-3.942-1.605c-0.876-1.07-1.314-2.213-1.314-3.431
			c0-1.217,0.438-2.359,1.314-3.432c0.876-1.069,2.19-1.605,3.942-1.605h116.216c1.654,0,2.92,0.536,3.796,1.605
			c0.876,1.072,1.314,2.215,1.314,3.432c0,1.218-0.415,2.36-1.241,3.431C397.262,744.438,395.973,744.971,394.221,744.971z
			 M380.351,766.433h-88.33c-1.85,0-3.237-0.511-4.161-1.532c-0.926-1.022-1.387-2.165-1.387-3.432c0-1.264,0.461-2.408,1.387-3.431
			c0.924-1.022,2.311-1.533,4.161-1.533h88.33c1.752,0,3.089,0.511,4.015,1.533c0.924,1.022,1.387,2.167,1.387,3.431
			c0,1.267-0.438,2.409-1.314,3.432C383.563,765.922,382.199,766.433,380.351,766.433z M380.059,787.312h-87.746
			c-1.85,0-3.237-0.512-4.161-1.533c-0.926-1.022-1.387-2.165-1.387-3.432c0-1.264,0.461-2.408,1.387-3.431
			c0.924-1.021,2.311-1.533,4.161-1.533h87.746c1.752,0,3.089,0.512,4.015,1.533c0.924,1.022,1.387,2.167,1.387,3.431
			c0,1.267-0.438,2.409-1.314,3.432C383.271,786.8,381.907,787.312,380.059,787.312z M288.225,838.704
			c0,2.336,0.778,4.063,2.336,5.183c1.556,1.118,3.234,1.68,5.037,1.68c1.8,0,3.479-0.562,5.037-1.68
			c1.556-1.12,2.336-2.847,2.336-5.183v-33.726c0-2.337-0.78-4.063-2.336-5.184c-1.558-1.117-3.237-1.679-5.037-1.679
			c-1.802,0-3.481,0.562-5.037,1.679c-1.558,1.12-2.336,2.847-2.336,5.184V838.704z M370.861,843.376
			c0.876,1.168,2.019,1.873,3.431,2.117c1.41,0.242,2.774,0.146,4.088-0.292c1.314-0.438,2.432-1.267,3.358-2.482
			c0.924-1.218,1.387-2.7,1.387-4.453v-27.739c0-7.98-3.992-11.973-11.972-11.973h-60.152c-1.558,0-2.726,0.512-3.504,1.533
			c-0.78,1.022-1.168,2.167-1.168,3.432c0,1.266,0.388,2.408,1.168,3.431c0.778,1.021,1.946,1.533,3.504,1.533h53.144
			c1.556,0,2.65,0.292,3.285,0.876c0.632,0.584,0.949,1.605,0.949,3.065v15.038h-57.378c-1.558,0-2.726,0.511-3.504,1.533
			c-0.78,1.021-1.168,2.14-1.168,3.358c0,1.216,0.388,2.336,1.168,3.357c0.778,1.022,1.946,1.533,3.504,1.533h49.056
			c2.14,0,4.038,0.461,5.694,1.387C367.405,839.554,369.109,841.135,370.861,843.376z M331.295,713.29
			c3.99,2.532,7.542,5.015,10.658,7.446c2.14,1.85,3.041,3.748,2.701,5.693c-0.342,1.948-1.314,3.504-2.92,4.673
			c-1.606,1.168-3.481,1.704-5.621,1.605c-2.142-0.096-3.846-1.264-5.11-3.504c-2.142-3.796-4.284-7.348-6.424-10.658
			c-0.682-0.972-0.949-1.945-0.803-2.92c0.146-0.972,0.584-1.752,1.314-2.336s1.629-0.924,2.701-1.021
			C328.861,712.172,330.029,712.511,331.295,713.29z"/>
	</g>
	<g>
		<path class="st2" d="M416.625,636.475l-11.322-28.226c5.05-8.474,7.703-17.918,7.703-27.535c0-32.948-30.781-59.754-68.617-59.754
			s-68.618,26.806-68.618,59.754c0,32.949,30.782,59.755,68.618,59.755c10.77,0,21.414-2.216,30.982-6.431l32.172,11.796
			c0.801,0.294,1.632,0.437,2.456,0.437c1.897,0,3.755-0.757,5.124-2.168C417.087,642.081,417.675,639.091,416.625,636.475z
			 M390.683,610.149l6.724,16.762l-19.905-7.298c-0.795-0.292-1.627-0.436-2.457-0.436c-1.084,0-2.166,0.247-3.16,0.737
			c-8.323,4.108-17.83,6.279-27.496,6.279c-29.964,0-54.34-20.401-54.34-45.478c0-25.076,24.377-45.477,54.34-45.477
			c29.962,0,54.339,20.401,54.339,45.477c0,7.97-2.521,15.825-7.291,22.714C390.074,605.399,389.789,607.924,390.683,610.149z"/>
		<path class="st2" d="M317.607,572.32c-4.679,0-8.473,3.793-8.473,8.472c0,4.678,3.793,8.472,8.473,8.472
			c4.678,0,8.471-3.793,8.471-8.472C326.077,576.113,322.285,572.32,317.607,572.32z"/>
		<path class="st2" d="M344.389,572.32c-4.679,0-8.472,3.793-8.472,8.472c0,4.678,3.792,8.472,8.472,8.472
			c4.678,0,8.471-3.793,8.471-8.472C352.86,576.113,349.068,572.32,344.389,572.32z"/>
		<circle class="st2" cx="372.659" cy="580.791" r="8.472"/>
	</g>
</g>
</svg>