<!-- Generator: Adobe Illustrator 24.1.3, SVG Export Plug-In  -->
<svg version="1.1" xmlns="http://www.w3.org/2000/svg" xmlns:xlink="http://www.w3.org/1999/xlink" x="0px" y="0px"
	 width="839.058px" height="524.851px" viewBox="0 0 839.058 524.851"
	 style="overflow:visible;enable-background:new 0 0 839.058 524.851;" xml:space="preserve">
<style type="text/css">
	.st0{fill:#FFFFFF;stroke:#1C3B94;stroke-width:3;stroke-miterlimit:10;}
	.st1{fill:#3752A1;}
	.st2{fill:#BF2222;}
	.st3{fill:none;stroke:#3752A1;stroke-width:4;stroke-linecap:round;stroke-linejoin:round;stroke-miterlimit:10;}
	.st4{font-family:'FZLANTY_ZHUNK--GBK1-0';}
	.st5{font-size:28px;}
</style>
<defs>
</defs>
<g>
	<rect x="1.5" y="2" class="st0" width="836.058" height="520.851"/>
	<g>
		<g>
			<path class="st1" d="M84.087,63.321c-1.024,0-1.535-0.51-1.535-1.531v-6.453v-2.625c0.072-0.947,0.584-1.458,1.535-1.531h8.772
				v-4.156c0.072-0.802,0.549-1.239,1.426-1.313c0.804,0.073,1.242,0.511,1.315,1.313v4.156h8.883
				c0.949,0.073,1.461,0.584,1.535,1.531v9.078c-0.074,0.948-0.586,1.459-1.535,1.531h-8.883v7.875
				c-0.073,0.802-0.512,1.239-1.315,1.313c-0.877-0.073-1.354-0.511-1.426-1.313v-7.875H84.087z M85.184,54.352v5.797
				c0.071,0.438,0.329,0.656,0.768,0.656h6.908v-7.109h-6.908C85.513,53.769,85.255,53.988,85.184,54.352z M102.62,53.696h-7.019
				v7.109h7.019c0.438,0,0.658-0.219,0.658-0.656v-5.797C103.278,53.915,103.058,53.696,102.62,53.696z"/>
			<path class="st1" d="M111.941,71.415c-0.951-0.073-1.464-0.584-1.535-1.531V48.555c0.071-0.947,0.584-1.458,1.535-1.531h20.835
				c0.949,0.073,1.462,0.584,1.535,1.531v21.328c-0.073,0.947-0.586,1.458-1.535,1.531H111.941z M131.131,69.118
				c0.364,0,0.548-0.183,0.548-0.547V49.868c0-0.364-0.184-0.547-0.548-0.547h-17.546c-0.438,0-0.658,0.183-0.658,0.547v18.703
				c0,0.364,0.22,0.547,0.658,0.547H131.131z M115.231,54.024c-0.587-0.072-0.915-0.438-0.987-1.094
				c0.072-0.656,0.4-1.021,0.987-1.094h14.036c0.729,0,1.097,0.365,1.097,1.094c-0.074,0.656-0.439,1.021-1.097,1.094h-5.922v3.172
				h5.482c0.658,0.073,1.023,0.401,1.097,0.984c0,0.656-0.366,1.021-1.097,1.094h-5.482v4.703h6.36
				c0.658,0.073,1.022,0.438,1.097,1.094c-0.074,0.656-0.438,1.021-1.097,1.094h-14.694c-0.658-0.072-1.024-0.438-1.097-1.094
				c0.072-0.656,0.438-1.021,1.097-1.094h5.922v-4.703h-5.045c-0.657-0.072-1.024-0.438-1.097-1.094
				c0.072-0.583,0.439-0.911,1.097-0.984h5.045v-3.172H115.231z M128.5,63.321c-0.439,0.438-0.915,0.438-1.426,0
				c-0.951-0.947-1.609-1.567-1.974-1.859c-0.367-0.438-0.367-0.875,0-1.313c0.364-0.364,0.804-0.364,1.315,0
				c0.22,0.146,0.584,0.438,1.097,0.875c0.584,0.511,0.949,0.839,1.097,0.984C128.9,62.374,128.864,62.811,128.5,63.321z"/>
		</g>
	</g>
	<g>
		<g>
			<path class="st2" d="M284.386,67.654l6.47-18.047h-9.649c-1.025,0.073-1.5-0.291-1.426-1.094c-0.074-0.875,0.4-1.313,1.426-1.313
				h10.307c1.316,0,1.975,0.547,1.975,1.641c0.072,0.292,0,0.656-0.22,1.094l-6.47,18.484c-0.367,1.021-0.915,1.422-1.645,1.203
				C284.277,69.404,284.019,68.748,284.386,67.654z"/>
			<path class="st2" d="M306.047,64.373h-7.896c-1.096-0.072-1.682-0.583-1.754-1.531c0-0.51,0.255-1.166,0.768-1.969l7.676-12.578
				c0.658-1.094,1.352-1.641,2.084-1.641c1.168-0.072,1.717,0.729,1.645,2.406v12.906h0.986c0.949-0.072,1.389,0.328,1.316,1.203
				c0.072,0.875-0.367,1.276-1.316,1.203h-0.986v3.938c0.072,0.947-0.329,1.385-1.207,1.313c-0.877,0-1.315-0.438-1.315-1.313
				V64.373z M299.249,61.967h6.799V50.92L299.249,61.967z"/>
			<path class="st2" d="M313.672,60.654v-2.297c0.072-7.656,2.558-11.557,7.457-11.703c2.777,0.073,4.677,1.131,5.702,3.172
				c0.291,0.729,0.146,1.313-0.439,1.75c-0.657,0.365-1.243,0.183-1.754-0.547c-0.877-1.239-2.047-1.896-3.509-1.969
				c-2.779,0.073-4.425,2.553-4.935,7.438c1.315-1.313,2.887-1.969,4.715-1.969c4.239,0.292,6.471,2.808,6.689,7.547
				c-0.147,4.813-2.486,7.328-7.018,7.547C316.047,69.476,313.745,66.488,313.672,60.654z M316.304,62.076
				c0.146,3.209,1.571,4.922,4.277,5.141c2.851-0.219,4.348-1.932,4.495-5.141c-0.147-3.281-1.645-4.994-4.495-5.141
				C317.876,57.082,316.45,58.795,316.304,62.076z"/>
		</g>
	</g>
	<g>
		<g>
			<path class="st1" d="M82.771,110.67c-0.586-0.072-0.914-0.4-0.986-0.984c0.072-0.583,0.4-0.911,0.986-0.984h6.36l-0.109-0.109
				c-0.22-0.219-0.622-0.692-1.206-1.422c-0.293-0.291-0.477-0.51-0.549-0.656c-0.438-0.51-0.293-0.984,0.438-1.422
				c0.804-0.219,1.426-0.072,1.864,0.438c0.146,0.219,0.439,0.547,0.878,0.984s0.729,0.766,0.877,0.984
				c0.365,0.438,0.365,0.839,0,1.203h5.154c0.146-0.219,0.438-0.583,0.877-1.094c0.804-0.947,1.315-1.604,1.535-1.969
				c0.438-0.583,1.059-0.766,1.864-0.547c0.804,0.438,1.022,0.912,0.658,1.422c-0.438,0.656-1.024,1.386-1.755,2.188h6.031
				c0.584,0.073,0.913,0.401,0.987,0.984c-0.074,0.584-0.403,0.912-0.987,0.984H95.492v2.406h8.772c0.658,0,0.987,0.328,0.987,0.984
				c-0.074,0.729-0.402,1.094-0.987,1.094h-8.772v2.406h10.966c0.584,0.073,0.913,0.401,0.987,0.984
				c-0.074,0.584-0.403,0.912-0.987,0.984H82.114c-0.658-0.072-1.025-0.4-1.097-0.984c0.071-0.583,0.438-0.911,1.097-0.984H92.86
				v-2.406h-8.663c-0.586-0.072-0.915-0.438-0.986-1.094c0.071-0.583,0.4-0.911,0.986-0.984h8.663v-2.406H82.771z M82.552,124.342
				c-0.586-0.072-0.915-0.4-0.987-0.984c0.072-0.656,0.401-1.021,0.987-1.094h10.198c0-0.072,0.036-0.219,0.109-0.438
				c0-0.146,0-0.255,0-0.328c0.146-0.802,0.658-1.239,1.535-1.313c0.73,0.073,1.133,0.475,1.206,1.203
				c0,0.073-0.037,0.219-0.109,0.438c0,0.219-0.038,0.365-0.109,0.438h10.637c0.584,0.073,0.913,0.438,0.987,1.094
				c-0.074,0.584-0.403,0.912-0.987,0.984h-9.979c1.388,2.406,4.787,3.938,10.197,4.594c0.878,0.291,1.169,0.875,0.878,1.75
				c-0.367,0.656-0.987,0.911-1.864,0.766c-5.702-0.875-9.431-2.844-11.186-5.906c0,0.073-0.073,0.183-0.219,0.328
				c-1.097,2.697-4.68,4.63-10.747,5.797c-0.805,0.072-1.39-0.219-1.754-0.875c-0.147-0.803,0.109-1.313,0.768-1.531
				c5.628-0.875,8.882-2.516,9.759-4.922H82.552z"/>
			<path class="st1" d="M111.941,130.685c-0.951-0.073-1.464-0.584-1.535-1.531v-21.328c0.071-0.947,0.584-1.458,1.535-1.531h20.835
				c0.949,0.073,1.462,0.584,1.535,1.531v21.328c-0.073,0.947-0.586,1.458-1.535,1.531H111.941z M131.131,128.388
				c0.364,0,0.548-0.183,0.548-0.547v-18.703c0-0.364-0.184-0.547-0.548-0.547h-17.546c-0.438,0-0.658,0.183-0.658,0.547v18.703
				c0,0.364,0.22,0.547,0.658,0.547H131.131z M115.231,113.295c-0.587-0.072-0.915-0.438-0.987-1.094
				c0.072-0.656,0.4-1.021,0.987-1.094h14.036c0.729,0,1.097,0.365,1.097,1.094c-0.074,0.656-0.439,1.021-1.097,1.094h-5.922v3.172
				h5.482c0.658,0.073,1.023,0.401,1.097,0.984c0,0.656-0.366,1.021-1.097,1.094h-5.482v4.703h6.36
				c0.658,0.073,1.022,0.438,1.097,1.094c-0.074,0.656-0.438,1.021-1.097,1.094h-14.694c-0.658-0.072-1.024-0.438-1.097-1.094
				c0.072-0.656,0.438-1.021,1.097-1.094h5.922v-4.703h-5.045c-0.657-0.072-1.024-0.438-1.097-1.094
				c0.072-0.583,0.439-0.911,1.097-0.984h5.045v-3.172H115.231z M128.5,122.592c-0.439,0.438-0.915,0.438-1.426,0
				c-0.951-0.947-1.609-1.567-1.974-1.859c-0.367-0.438-0.367-0.875,0-1.313c0.364-0.364,0.804-0.364,1.315,0
				c0.22,0.146,0.584,0.438,1.097,0.875c0.584,0.511,0.949,0.839,1.097,0.984C128.9,121.644,128.864,122.082,128.5,122.592z"/>
		</g>
	</g>
	<g>
		<g>
			<path class="st2" d="M283.179,126.001h8.664c1.022-0.072,1.497,0.328,1.425,1.203c0,0.802-0.476,1.203-1.425,1.203h-9.979
				c-1.243,0-1.864-0.584-1.864-1.75c0-0.802,0.182-1.531,0.549-2.188c1.096-2.26,3.252-4.813,6.469-7.656
				c2.413-1.896,3.546-3.682,3.4-5.359c-0.147-1.969-1.316-2.989-3.51-3.063c-2.267,0-3.656,1.058-4.166,3.172
				c-0.22,1.313-0.732,1.859-1.535,1.641c-0.807-0.146-1.135-0.766-0.988-1.859c0.73-3.427,2.961-5.213,6.689-5.359
				c3.948,0.146,5.958,1.969,6.031,5.469c0.146,2.479-1.315,4.922-4.386,7.328c-2.852,2.553-4.753,4.776-5.702,6.672
				C282.777,125.82,282.886,126.001,283.179,126.001z"/>
			<path class="st2" d="M300.455,108.939v5.797c1.242-0.583,2.413-0.875,3.51-0.875c4.313,0.219,6.541,2.516,6.689,6.891
				c-0.148,5.323-2.596,8.057-7.348,8.203c-3.218-0.073-5.373-1.641-6.47-4.703c-0.22-0.947,0.071-1.531,0.877-1.75
				c0.658-0.291,1.169,0,1.535,0.875c0.729,2.042,2.083,3.1,4.058,3.172c3.07-0.146,4.678-2.078,4.824-5.797
				c-0.146-2.771-1.572-4.266-4.275-4.484c-0.878,0-1.828,0.256-2.852,0.766c-0.586,0.219-1.061,0.365-1.426,0.438
				c-1.024,0-1.535-0.656-1.535-1.969v-7.328c-0.074-1.094,0.511-1.641,1.754-1.641h8.555c1.022-0.072,1.497,0.365,1.425,1.313
				c0.072,0.729-0.366,1.094-1.315,1.094H300.455z"/>
			<path class="st2" d="M317.072,126.001h8.663c1.022-0.072,1.497,0.328,1.425,1.203c0,0.802-0.476,1.203-1.425,1.203h-9.979
				c-1.243,0-1.863-0.584-1.863-1.75c0-0.802,0.182-1.531,0.548-2.188c1.097-2.26,3.252-4.813,6.47-7.656
				c2.412-1.896,3.545-3.682,3.399-5.359c-0.147-1.969-1.315-2.989-3.509-3.063c-2.268,0-3.656,1.058-4.167,3.172
				c-0.22,1.313-0.731,1.859-1.535,1.641c-0.806-0.146-1.134-0.766-0.987-1.859c0.73-3.427,2.961-5.213,6.689-5.359
				c3.947,0.146,5.957,1.969,6.031,5.469c0.146,2.479-1.316,4.922-4.387,7.328c-2.852,2.553-4.753,4.776-5.702,6.672
				C316.669,125.82,316.779,126.001,317.072,126.001z"/>
		</g>
	</g>
	<g>
		<g>
			<path class="st1" d="M81.894,182.628c-0.658-0.072-1.024-0.438-1.097-1.094c0.072-0.583,0.438-0.911,1.097-0.984h2.412v-5.359
				c0.072-1.021,0.621-1.567,1.646-1.641h7.018v-1.641c0.072-0.802,0.549-1.239,1.426-1.313c0.804,0.073,1.242,0.511,1.316,1.313
				c0,0.146,0,0.401,0,0.766c-0.074,0.365-0.11,0.656-0.11,0.875h7.019c0.949,0.073,1.462,0.62,1.535,1.641v5.359h2.522
				c0.657,0.073,1.022,0.401,1.097,0.984c-0.074,0.656-0.439,1.021-1.097,1.094H96.041c1.826,3.063,5.335,4.922,10.526,5.578
				c0.804,0.072,1.133,0.656,0.987,1.75c-0.366,0.656-0.987,0.911-1.864,0.766c-5.775-0.948-9.578-3.1-11.404-6.453
				c-1.316,2.844-5.044,5.031-11.186,6.563c-1.024,0.219-1.719-0.037-2.083-0.766c-0.22-0.875,0.071-1.459,0.877-1.75
				c5.629-1.021,9.138-2.916,10.527-5.688H81.894z M82.003,169.503c-0.586-0.072-0.915-0.438-0.986-1.094
				c0.071-0.656,0.4-1.021,0.986-1.094h5.813v-1.969c0.071-0.802,0.511-1.239,1.315-1.313c0.804,0.073,1.242,0.511,1.316,1.313
				v1.969h7.676v-1.969c0.072-0.802,0.511-1.239,1.316-1.313c0.729,0.073,1.132,0.511,1.206,1.313v1.969h5.921
				c0.658,0.073,1.023,0.438,1.097,1.094c-0.073,0.656-0.438,1.021-1.097,1.094h-5.921v1.531c-0.074,0.803-0.477,1.24-1.206,1.313
				c-0.806-0.072-1.244-0.51-1.316-1.313v-1.531h-7.676v1.531c-0.074,0.729-0.513,1.167-1.316,1.313
				c-0.731-0.146-1.17-0.583-1.315-1.313v-1.531H82.003z M86.938,176.394v4.156h5.922c0.072-1.094,0.109-2.697,0.109-4.813h-5.373
				C87.158,175.738,86.938,175.956,86.938,176.394z M100.865,175.738h-5.264c0,1.823-0.037,3.428-0.109,4.813h6.141v-4.156
				C101.632,175.956,101.376,175.738,100.865,175.738z"/>
			<path class="st1" d="M111.941,189.956c-0.951-0.073-1.464-0.584-1.535-1.531v-21.328c0.071-0.947,0.584-1.458,1.535-1.531h20.835
				c0.949,0.073,1.462,0.584,1.535,1.531v21.328c-0.073,0.947-0.586,1.458-1.535,1.531H111.941z M131.131,187.659
				c0.364,0,0.548-0.183,0.548-0.547v-18.703c0-0.364-0.184-0.547-0.548-0.547h-17.546c-0.438,0-0.658,0.183-0.658,0.547v18.703
				c0,0.364,0.22,0.547,0.658,0.547H131.131z M115.231,172.566c-0.587-0.072-0.915-0.438-0.987-1.094
				c0.072-0.656,0.4-1.021,0.987-1.094h14.036c0.729,0,1.097,0.365,1.097,1.094c-0.074,0.656-0.439,1.021-1.097,1.094h-5.922v3.172
				h5.482c0.658,0.073,1.023,0.401,1.097,0.984c0,0.656-0.366,1.021-1.097,1.094h-5.482v4.703h6.36
				c0.658,0.073,1.022,0.438,1.097,1.094c-0.074,0.656-0.438,1.021-1.097,1.094h-14.694c-0.658-0.072-1.024-0.438-1.097-1.094
				c0.072-0.656,0.438-1.021,1.097-1.094h5.922v-4.703h-5.045c-0.657-0.072-1.024-0.438-1.097-1.094
				c0.072-0.583,0.439-0.911,1.097-0.984h5.045v-3.172H115.231z M128.5,181.863c-0.439,0.438-0.915,0.438-1.426,0
				c-0.951-0.947-1.609-1.567-1.974-1.859c-0.367-0.438-0.367-0.875,0-1.313c0.364-0.364,0.804-0.364,1.315,0
				c0.22,0.146,0.584,0.438,1.097,0.875c0.584,0.511,0.949,0.839,1.097,0.984C128.9,180.915,128.864,181.353,128.5,181.863z"/>
		</g>
	</g>
	<g>
		<g>
			<path class="st2" d="M293.707,173.412v4.047c0,7.146-2.34,10.755-7.018,10.828c-3.145-0.073-5.338-1.459-6.58-4.156
				c-0.366-1.021-0.146-1.677,0.658-1.969c0.73-0.219,1.316,0.146,1.755,1.094c0.729,1.678,2.119,2.553,4.167,2.625
				c2.559-0.072,4.02-2.406,4.387-7c-1.316,1.094-2.816,1.641-4.496,1.641c-4.241-0.291-6.508-2.807-6.799-7.547
				c0.291-4.739,2.594-7.291,6.908-7.656C291.22,165.537,293.56,168.235,293.707,173.412z M291.185,173.084
				c-0.147-3.427-1.645-5.213-4.496-5.359c-2.779,0.073-4.24,1.859-4.387,5.359c0.146,3.136,1.571,4.813,4.277,5.031
				C289.502,177.97,291.038,176.293,291.185,173.084z"/>
			<path class="st2" d="M300.455,168.271v5.797c1.242-0.583,2.413-0.875,3.51-0.875c4.313,0.219,6.541,2.516,6.689,6.891
				c-0.148,5.323-2.596,8.057-7.348,8.203c-3.218-0.073-5.373-1.641-6.47-4.703c-0.22-0.947,0.071-1.531,0.877-1.75
				c0.658-0.291,1.169,0,1.535,0.875c0.729,2.042,2.083,3.1,4.058,3.172c3.07-0.146,4.678-2.078,4.824-5.797
				c-0.146-2.771-1.572-4.266-4.275-4.484c-0.878,0-1.828,0.256-2.852,0.766c-0.586,0.219-1.061,0.365-1.426,0.438
				c-1.024,0-1.535-0.656-1.535-1.969v-7.328c-0.074-1.094,0.511-1.641,1.754-1.641h8.555c1.022-0.072,1.497,0.365,1.425,1.313
				c0.072,0.729-0.366,1.094-1.315,1.094H300.455z"/>
		</g>
	</g>
	<g>
		<g>
			<path class="st1" d="M86.17,248.461c-1.243,0-1.864-0.62-1.864-1.859v-19.469c0-1.166,0.621-1.75,1.864-1.75H102.4
				c1.242,0,1.864,0.584,1.864,1.75v19.359c-0.073,1.239-0.695,1.896-1.864,1.969H86.17z M87.048,228.554v7.109h14.475v-7.109
				c-0.073-0.438-0.293-0.692-0.658-0.766H87.706C87.267,227.789,87.048,228.045,87.048,228.554z M100.865,245.945
				c0.438,0,0.658-0.219,0.658-0.656v-7.219H87.048v7.219c0,0.438,0.219,0.656,0.657,0.656H100.865z"/>
			<path class="st1" d="M110.954,230.633c-0.731-0.072-1.134-0.474-1.206-1.203c0.072-0.729,0.475-1.13,1.206-1.203h10.089v-3.609
				c0.072-0.802,0.511-1.239,1.315-1.313c0.804,0.073,1.242,0.511,1.316,1.313v3.609h10.089c0.729,0.073,1.132,0.475,1.206,1.203
				c-0.074,0.729-0.477,1.131-1.206,1.203h-8.773c2.413,4.74,5.774,8.604,10.089,11.594c0.729,0.584,0.877,1.24,0.438,1.969
				c-0.512,0.729-1.17,0.839-1.974,0.328c-4.387-3.281-7.676-7.291-9.869-12.031v10.172h4.935c0.658,0.073,1.022,0.475,1.097,1.203
				c-0.074,0.729-0.438,1.131-1.097,1.203h-4.935v4.047c-0.074,0.802-0.513,1.239-1.316,1.313c-0.805-0.073-1.243-0.511-1.315-1.313
				v-4.047h-5.044c-0.732-0.072-1.135-0.474-1.207-1.203c0.146-0.729,0.549-1.13,1.207-1.203h5.044v-10.172
				c-2.121,4.886-5.373,9.006-9.76,12.359c-0.806,0.438-1.463,0.365-1.974-0.219c-0.513-0.729-0.402-1.422,0.329-2.078
				c4.386-3.208,7.712-7.182,9.979-11.922H110.954z"/>
		</g>
	</g>
	<g>
		<g>
			<path class="st2" d="M293.707,240.837c-0.146,4.375-2.486,6.635-7.018,6.781c-3.583-0.146-5.886-1.786-6.908-4.922
				c-0.148-1.094,0.109-1.713,0.768-1.859c0.729-0.219,1.242,0.109,1.535,0.984c0.877,2.188,2.412,3.318,4.605,3.391
				c2.923-0.072,4.422-1.494,4.496-4.266c0.072-2.697-1.902-4.047-5.922-4.047c-1.024,0-1.535-0.438-1.535-1.313
				c0-0.802,0.511-1.203,1.535-1.203c3.581,0,5.373-1.239,5.373-3.719c-0.073-2.333-1.389-3.536-3.947-3.609
				c-2.121,0.073-3.51,1.131-4.167,3.172c-0.22,1.021-0.696,1.422-1.426,1.203c-0.878-0.072-1.243-0.583-1.097-1.531
				c1.097-3.354,3.326-5.104,6.689-5.25c4.167,0.146,6.322,2.151,6.47,6.016c0,2.042-0.915,3.683-2.741,4.922
				C292.537,236.681,293.633,238.431,293.707,240.837z"/>
			<path class="st2" d="M300.126,244.665h8.662c1.023-0.072,1.498,0.328,1.426,1.203c0,0.802-0.477,1.203-1.426,1.203h-9.979
				c-1.244,0-1.864-0.584-1.864-1.75c0-0.802,0.182-1.531,0.548-2.188c1.098-2.26,3.252-4.813,6.471-7.656
				c2.412-1.896,3.545-3.682,3.398-5.359c-0.146-1.969-1.315-2.989-3.508-3.063c-2.268,0-3.657,1.058-4.168,3.172
				c-0.219,1.313-0.731,1.859-1.535,1.641c-0.805-0.146-1.134-0.766-0.986-1.859c0.729-3.427,2.961-5.213,6.689-5.359
				c3.947,0.146,5.957,1.969,6.031,5.469c0.145,2.479-1.316,4.922-4.387,7.328c-2.852,2.553-4.754,4.776-5.703,6.672
				C299.723,244.484,299.834,244.665,300.126,244.665z"/>
		</g>
	</g>
	<g>
		<g>
			<path class="st1" d="M84.417,295.154c-0.22-0.219-0.696-0.619-1.426-1.203c-0.731-0.583-1.244-0.984-1.535-1.203
				c-0.513-0.51-0.549-1.057-0.109-1.641c0.657-0.51,1.278-0.547,1.864-0.109c0.291,0.219,0.803,0.62,1.535,1.203
				c0.729,0.584,1.206,0.984,1.425,1.203c0.511,0.584,0.549,1.167,0.11,1.75C85.695,295.664,85.075,295.664,84.417,295.154z
				 M82.552,309.263c-0.658-0.146-0.951-0.693-0.877-1.641c0.877-2.989,1.57-5.76,2.083-8.313c0.146-0.656,0.658-0.947,1.535-0.875
				c0.73,0.219,1.023,0.729,0.877,1.531c-0.877,3.428-1.535,6.234-1.974,8.422C83.904,309.116,83.356,309.408,82.552,309.263z
				 M85.184,288.044c-0.147-0.146-0.367-0.328-0.658-0.547c-1.024-0.947-1.755-1.567-2.193-1.859
				c-0.438-0.51-0.476-1.057-0.109-1.641c0.584-0.51,1.206-0.547,1.864-0.109c0.291,0.219,0.768,0.584,1.426,1.094
				c0.729,0.584,1.206,0.984,1.425,1.203c0.585,0.584,0.621,1.167,0.11,1.75C86.462,288.519,85.842,288.555,85.184,288.044z
				 M88.145,303.029c-0.658-0.072-1.025-0.4-1.097-0.984c0.071-0.583,0.438-0.911,1.097-0.984h7.785l0.11-0.656
				c0-0.802,0.438-1.203,1.315-1.203c0.804,0.073,1.169,0.438,1.097,1.094c0,0.219,0,0.475,0,0.766h8.114
				c0.585,0.073,0.914,0.401,0.987,0.984c-0.073,0.584-0.402,0.912-0.987,0.984h-7.566c1.316,1.969,3.839,3.317,7.566,4.047
				c0.73,0.219,1.023,0.729,0.878,1.531c-0.22,0.583-0.731,0.766-1.535,0.547c-4.314-0.875-7.202-2.516-8.663-4.922
				c-0.951,2.26-3.948,3.974-8.992,5.141c-0.658,0.219-1.17,0.036-1.535-0.547c-0.293-0.803-0.038-1.313,0.768-1.531
				c4.825-1.021,7.457-2.442,7.896-4.266H88.145z M89.79,299.857c-0.658-0.072-1.024-0.4-1.097-0.984v-12.031
				c0.072-0.802,0.549-1.239,1.426-1.313h3.947c0.072-0.146,0.146-0.364,0.22-0.656c0.219-0.656,0.365-1.094,0.438-1.313
				c0.146-0.729,0.62-1.057,1.426-0.984c0.877,0.219,1.242,0.656,1.097,1.313c0,0.073-0.038,0.183-0.11,0.328
				c-0.146,0.584-0.293,1.021-0.438,1.313h8.005c0.878,0.073,1.353,0.547,1.426,1.422v11.922c-0.073,0.656-0.477,1.021-1.206,1.094
				c-0.658-0.072-1.024-0.438-1.097-1.094v-10.938c0-0.291-0.184-0.438-0.548-0.438H91.434c-0.293,0-0.438,0.146-0.438,0.438v10.938
				C90.922,299.456,90.519,299.784,89.79,299.857z M92.641,294.06c-0.587-0.072-0.915-0.4-0.987-0.984
				c0.072-0.438,0.4-0.692,0.987-0.766h3.728v-3.391c0.072-0.583,0.401-0.911,0.987-0.984c0.584,0.073,0.913,0.401,0.987,0.984
				v3.391h3.728c0.585,0,0.878,0.256,0.878,0.766c0,0.656-0.293,0.984-0.878,0.984h-3.728v3.828
				c-0.074,0.511-0.403,0.803-0.987,0.875c-0.586-0.072-0.915-0.364-0.987-0.875v-2.297c-0.95,1.094-2.083,2.078-3.399,2.953
				c-0.438,0.219-0.877,0.146-1.315-0.219c-0.293-0.438-0.22-0.875,0.219-1.313c1.389-0.729,2.704-1.713,3.948-2.953H92.641z
				 M94.944,291.435c-0.367,0.292-0.768,0.256-1.207-0.109c-0.438-0.438-0.877-0.875-1.315-1.313c-0.293-0.291-0.293-0.656,0-1.094
				c0.438-0.291,0.877-0.255,1.315,0.109c0.439,0.438,0.878,0.875,1.316,1.313C95.344,290.706,95.308,291.071,94.944,291.435z
				 M101.632,297.997c-0.366-0.219-0.915-0.51-1.645-0.875c-0.513-0.291-0.915-0.51-1.206-0.656
				c-0.367-0.291-0.438-0.692-0.22-1.203c0.291-0.364,0.73-0.438,1.316-0.219c1.022,0.584,1.974,1.094,2.851,1.531
				c0.438,0.292,0.511,0.729,0.22,1.313C102.582,298.325,102.143,298.363,101.632,297.997z M99.659,291.544
				c-0.366-0.438-0.402-0.838-0.109-1.203c0.729-0.729,1.206-1.166,1.426-1.313c0.364-0.438,0.768-0.474,1.206-0.109
				c0.438,0.292,0.475,0.656,0.109,1.094c-0.438,0.438-0.915,0.912-1.426,1.422C100.426,291.727,100.024,291.763,99.659,291.544z"/>
			<path class="st1" d="M110.186,292.747c-0.805-0.072-1.244-0.51-1.315-1.313c0.071-0.729,0.511-1.13,1.315-1.203h10.747
				c0.071-1.458,0.109-3.572,0.109-6.344c0.072-0.875,0.548-1.349,1.426-1.422c0.877,0.073,1.352,0.547,1.425,1.422
				c0,0.584,0,1.641,0,3.172c-0.073,1.531-0.109,2.589-0.109,3.172h10.856c0.729,0.073,1.133,0.475,1.206,1.203
				c-0.073,0.803-0.477,1.24-1.206,1.313h-10.856c1.097,6.271,4.787,10.792,11.075,13.563c0.878,0.438,1.097,1.094,0.658,1.969
				c-0.438,0.729-1.134,0.911-2.083,0.547c-5.85-2.698-9.541-6.781-11.076-12.25c-1.17,5.25-4.824,9.479-10.966,12.688
				c-0.805,0.364-1.499,0.219-2.083-0.438c-0.438-0.948-0.257-1.641,0.548-2.078c6.506-3.208,10.125-7.875,10.856-14H110.186z"/>
			<path class="st1" d="M138.697,287.388c-0.805-0.072-1.279-0.438-1.425-1.094c0.071-0.729,0.4-1.13,0.986-1.203
				c1.974-0.146,5.373-0.474,10.198-0.984c0.658-0.072,1.133-0.109,1.426-0.109c0.804,0.073,1.278,0.401,1.426,0.984
				c-0.074,0.803-0.477,1.24-1.206,1.313c-0.294,0-0.806,0.037-1.536,0.109c-1.243,0.146-2.192,0.256-2.851,0.328v4.594h5.044
				c0.73,0.073,1.133,0.475,1.206,1.203c-0.073,0.729-0.476,1.131-1.206,1.203h-5.044v2.844c0.584-0.438,1.168-0.4,1.755,0.109
				c0.071,0.073,0.255,0.219,0.548,0.438c1.607,1.459,2.704,2.406,3.29,2.844c0.511,0.584,0.548,1.167,0.109,1.75
				c-0.586,0.511-1.206,0.547-1.864,0.109c-1.244-1.239-2.522-2.406-3.838-3.5v10.281c-0.074,0.729-0.477,1.13-1.206,1.203
				c-0.806-0.073-1.244-0.475-1.316-1.203v-10.719c-0.951,2.188-2.303,4.229-4.057,6.125c-0.587,0.511-1.244,0.511-1.975,0
				c-0.438-0.802-0.402-1.531,0.11-2.188c2.484-2.188,4.386-4.885,5.702-8.094h-4.935c-0.658-0.072-1.025-0.474-1.097-1.203
				c0.071-0.729,0.438-1.13,1.097-1.203h5.153v-4.375c-0.951,0.146-2.23,0.292-3.838,0.438
				C139.062,287.388,138.842,287.388,138.697,287.388z M154.269,303.247c-0.732-0.072-1.135-0.51-1.207-1.313v-15.094
				c0.072-0.729,0.475-1.13,1.207-1.203c0.729,0.073,1.132,0.475,1.206,1.203v15.094
				C155.401,302.738,154.999,303.175,154.269,303.247z M155.146,308.935c-0.877-0.146-1.354-0.584-1.426-1.313
				c0-0.803,0.401-1.24,1.206-1.313c1.169,0,2.193,0,3.07,0c1.242,0.072,1.827-0.547,1.755-1.859v-20.453
				c0.072-0.729,0.475-1.13,1.206-1.203c0.804,0.073,1.242,0.475,1.316,1.203v21.219c0.071,2.333-1.061,3.536-3.399,3.609
				C157.046,308.825,155.804,308.862,155.146,308.935z"/>
			<path class="st1" d="M167.099,287.169c-0.731-0.072-1.135-0.474-1.206-1.203c0.071-0.802,0.475-1.239,1.206-1.313h22.809
				c0.729,0.073,1.133,0.511,1.206,1.313c-0.073,0.729-0.477,1.131-1.206,1.203h-6.579v18.156h7.237
				c0.804,0.073,1.242,0.511,1.315,1.313c-0.073,0.729-0.512,1.13-1.315,1.203h-24.125c-0.806-0.073-1.244-0.475-1.316-1.203
				c0.072-0.802,0.511-1.239,1.316-1.313h7.128v-18.156H167.099z M171.485,301.497c-0.805,0.292-1.354,0.037-1.645-0.766
				c-0.951-2.697-2.048-5.614-3.29-8.75c-0.147-0.729,0.072-1.239,0.658-1.531c0.729-0.219,1.278,0,1.645,0.656
				c0.439,1.094,1.133,2.881,2.084,5.359c0.584,1.604,1.022,2.734,1.315,3.391C172.472,300.659,172.215,301.206,171.485,301.497z
				 M176.201,287.169v18.156h4.496v-18.156H176.201z M185.083,301.607c-0.657-0.364-0.841-0.911-0.548-1.641
				c1.681-3.646,2.923-6.599,3.729-8.859c0.364-0.729,0.913-0.947,1.645-0.656c0.729,0.292,0.949,0.803,0.658,1.531
				c-1.171,2.99-2.486,5.979-3.948,8.969C186.325,301.607,185.813,301.825,185.083,301.607z"/>
		</g>
	</g>
	<g>
		<g>
			<path class="st2" d="M293.707,300.17c-0.146,4.375-2.486,6.635-7.018,6.781c-3.583-0.146-5.886-1.786-6.908-4.922
				c-0.148-1.094,0.109-1.713,0.768-1.859c0.729-0.219,1.242,0.109,1.535,0.984c0.877,2.188,2.412,3.318,4.605,3.391
				c2.923-0.072,4.422-1.494,4.496-4.266c0.072-2.697-1.902-4.047-5.922-4.047c-1.024,0-1.535-0.438-1.535-1.313
				c0-0.802,0.511-1.203,1.535-1.203c3.581,0,5.373-1.239,5.373-3.719c-0.073-2.333-1.389-3.536-3.947-3.609
				c-2.121,0.073-3.51,1.131-4.167,3.172c-0.22,1.021-0.696,1.422-1.426,1.203c-0.878-0.072-1.243-0.583-1.097-1.531
				c1.097-3.354,3.326-5.104,6.689-5.25c4.167,0.146,6.322,2.151,6.47,6.016c0,2.042-0.915,3.683-2.741,4.922
				C292.537,296.013,293.633,297.763,293.707,300.17z"/>
			<path class="st2" d="M302.32,305.42v-18.266l-2.852,1.641c-0.877,0.438-1.463,0.256-1.755-0.547
				c-0.366-0.656-0.073-1.275,0.878-1.859l4.057-2.188c1.389-0.51,2.119-0.036,2.193,1.422v19.797c0,1.094-0.402,1.604-1.206,1.531
				C302.757,307.023,302.32,306.513,302.32,305.42z"/>
		</g>
	</g>
	<g>
		<g>
			<path class="st1" d="M83.32,346.44c-0.513-0.072-0.806-0.364-0.877-0.875c0.071-0.51,0.364-0.802,0.877-0.875h9.979
				c-0.073-0.219-0.183-0.547-0.329-0.984c-0.073-0.219-0.109-0.364-0.109-0.438c-0.219-0.729,0.072-1.166,0.877-1.313
				c0.804-0.219,1.316,0.037,1.535,0.766c0,0.073,0.072,0.256,0.22,0.547c0.146,0.656,0.255,1.131,0.329,1.422h9.321
				c0.584,0,0.877,0.292,0.877,0.875c0,0.584-0.293,0.875-0.877,0.875h-3.839c0,0.219-0.073,0.438-0.219,0.656
				c-0.074,0.073-0.184,0.256-0.329,0.547c-0.366,0.511-0.658,0.875-0.877,1.094h6.908c0.511,0.073,0.804,0.401,0.877,0.984
				c0,0.584-0.293,0.875-0.877,0.875H81.785c-0.658,0-0.987-0.291-0.987-0.875c0.072-0.583,0.401-0.911,0.987-0.984h6.689
				c-0.074-0.146-0.258-0.4-0.549-0.766c-0.22-0.364-0.402-0.619-0.548-0.766c-0.22-0.219-0.258-0.474-0.11-0.766H83.32z
				 M81.785,367.221c-0.586-0.438-0.731-0.984-0.438-1.641c0.219-0.292,0.62-0.911,1.206-1.859c0.438-0.583,0.729-1.021,0.877-1.313
				c0.291-0.656,0.804-0.838,1.535-0.547c0.658,0.292,0.84,0.766,0.549,1.422c-0.367,0.875-1.061,2.041-2.084,3.5
				C82.991,367.366,82.443,367.512,81.785,367.221z M85.732,360.658c-0.877-0.072-1.354-0.583-1.426-1.531v-5.359
				c0.072-1.021,0.549-1.531,1.426-1.531h16.997c0.878,0.073,1.353,0.584,1.426,1.531v5.359c-0.073,0.948-0.548,1.459-1.426,1.531
				H85.732z M86.719,354.533v1.203h15.023v-1.203c0-0.438-0.22-0.656-0.658-0.656H87.377
				C86.938,353.877,86.719,354.096,86.719,354.533z M101.743,358.362v-1.203H86.719v1.203c0,0.365,0.219,0.547,0.658,0.547h13.707
				C101.523,358.908,101.743,358.727,101.743,358.362z M90.777,367.877c-2.341,0.146-3.438-0.912-3.29-3.172v-2.188
				c0.072-0.656,0.475-1.021,1.206-1.094c0.804,0.073,1.242,0.438,1.316,1.094v1.75c-0.147,1.239,0.438,1.786,1.754,1.641h4.716
				c1.388,0.072,2.155-0.401,2.303-1.422c0.219-0.656,0.364-1.13,0.438-1.422c0.22-0.656,0.694-0.911,1.426-0.766
				c0.657,0.219,0.949,0.729,0.877,1.531c0,0.146-0.073,0.438-0.22,0.875c-0.146,0.511-0.257,0.838-0.328,0.984
				c-0.439,1.531-1.719,2.26-3.839,2.188H90.777z M97.136,348.737c0.511-0.802,1.023-1.567,1.535-2.297H89.79
				c0.146,0.146,0.329,0.401,0.548,0.766c0.292,0.365,0.475,0.62,0.549,0.766c0.146,0.219,0.146,0.475,0,0.766H97.136z
				 M96.369,364.268c-0.512,0.511-1.061,0.511-1.645,0c-0.951-0.947-1.608-1.567-1.974-1.859c-0.438-0.51-0.438-0.984,0-1.422
				s0.949-0.438,1.535,0c0.438,0.292,1.133,0.912,2.083,1.859C96.808,363.283,96.808,363.758,96.369,364.268z M106.787,366.893
				c-0.731,0.219-1.28,0.036-1.645-0.547c-0.147-0.292-0.477-0.839-0.987-1.641c-0.513-0.802-0.877-1.349-1.097-1.641
				c-0.293-0.51-0.147-0.984,0.438-1.422c0.658-0.219,1.206-0.072,1.646,0.438c0.729,1.094,1.461,2.151,2.192,3.172
				C107.554,365.908,107.371,366.455,106.787,366.893z"/>
			<path class="st1" d="M110.186,352.018c-0.805-0.072-1.244-0.51-1.315-1.313c0.071-0.729,0.511-1.13,1.315-1.203h10.747
				c0.071-1.458,0.109-3.572,0.109-6.344c0.072-0.875,0.548-1.349,1.426-1.422c0.877,0.073,1.352,0.547,1.425,1.422
				c0,0.584,0,1.641,0,3.172c-0.073,1.531-0.109,2.589-0.109,3.172h10.856c0.729,0.073,1.133,0.475,1.206,1.203
				c-0.073,0.803-0.477,1.24-1.206,1.313h-10.856c1.097,6.271,4.787,10.792,11.075,13.563c0.878,0.438,1.097,1.094,0.658,1.969
				c-0.438,0.729-1.134,0.911-2.083,0.547c-5.85-2.698-9.541-6.781-11.076-12.25c-1.17,5.25-4.824,9.479-10.966,12.688
				c-0.805,0.364-1.499,0.219-2.083-0.438c-0.438-0.948-0.257-1.641,0.548-2.078c6.506-3.208,10.125-7.875,10.856-14H110.186z"/>
			<path class="st1" d="M138.697,346.658c-0.805-0.072-1.279-0.438-1.425-1.094c0.071-0.729,0.4-1.13,0.986-1.203
				c1.974-0.146,5.373-0.474,10.198-0.984c0.658-0.072,1.133-0.109,1.426-0.109c0.804,0.073,1.278,0.401,1.426,0.984
				c-0.074,0.803-0.477,1.24-1.206,1.313c-0.294,0-0.806,0.037-1.536,0.109c-1.243,0.146-2.192,0.256-2.851,0.328v4.594h5.044
				c0.73,0.073,1.133,0.475,1.206,1.203c-0.073,0.729-0.476,1.131-1.206,1.203h-5.044v2.844c0.584-0.438,1.168-0.4,1.755,0.109
				c0.071,0.073,0.255,0.219,0.548,0.438c1.607,1.459,2.704,2.406,3.29,2.844c0.511,0.584,0.548,1.167,0.109,1.75
				c-0.586,0.511-1.206,0.547-1.864,0.109c-1.244-1.239-2.522-2.406-3.838-3.5v10.281c-0.074,0.729-0.477,1.13-1.206,1.203
				c-0.806-0.073-1.244-0.475-1.316-1.203v-10.719c-0.951,2.188-2.303,4.229-4.057,6.125c-0.587,0.511-1.244,0.511-1.975,0
				c-0.438-0.802-0.402-1.531,0.11-2.188c2.484-2.188,4.386-4.885,5.702-8.094h-4.935c-0.658-0.072-1.025-0.474-1.097-1.203
				c0.071-0.729,0.438-1.13,1.097-1.203h5.153v-4.375c-0.951,0.146-2.23,0.292-3.838,0.438
				C139.062,346.658,138.842,346.658,138.697,346.658z M154.269,362.518c-0.732-0.072-1.135-0.51-1.207-1.313v-15.094
				c0.072-0.729,0.475-1.13,1.207-1.203c0.729,0.073,1.132,0.475,1.206,1.203v15.094
				C155.401,362.008,154.999,362.446,154.269,362.518z M155.146,368.205c-0.877-0.146-1.354-0.584-1.426-1.313
				c0-0.803,0.401-1.24,1.206-1.313c1.169,0,2.193,0,3.07,0c1.242,0.072,1.827-0.547,1.755-1.859v-20.453
				c0.072-0.729,0.475-1.13,1.206-1.203c0.804,0.073,1.242,0.475,1.316,1.203v21.219c0.071,2.333-1.061,3.536-3.399,3.609
				C157.046,368.096,155.804,368.132,155.146,368.205z"/>
		</g>
	</g>
	<g>
		<g>
			<path class="st2" d="M283.179,363.33h8.664c1.022-0.072,1.497,0.328,1.425,1.203c0,0.802-0.476,1.203-1.425,1.203h-9.979
				c-1.243,0-1.864-0.584-1.864-1.75c0-0.802,0.182-1.531,0.549-2.188c1.096-2.26,3.252-4.813,6.469-7.656
				c2.413-1.896,3.546-3.682,3.4-5.359c-0.147-1.969-1.316-2.989-3.51-3.063c-2.267,0-3.656,1.058-4.166,3.172
				c-0.22,1.313-0.732,1.859-1.535,1.641c-0.807-0.146-1.135-0.766-0.988-1.859c0.73-3.427,2.961-5.213,6.689-5.359
				c3.948,0.146,5.958,1.969,6.031,5.469c0.146,2.479-1.315,4.922-4.386,7.328c-2.852,2.553-4.753,4.776-5.702,6.672
				C282.777,363.148,282.886,363.33,283.179,363.33z"/>
			<path class="st2" d="M310.654,351.408v4.047c0,7.146-2.342,10.755-7.019,10.828c-3.144-0.073-5.337-1.459-6.579-4.156
				c-0.367-1.021-0.148-1.677,0.657-1.969c0.729-0.219,1.315,0.146,1.755,1.094c0.729,1.678,2.119,2.553,4.167,2.625
				c2.558-0.072,4.02-2.406,4.386-7c-1.315,1.094-2.814,1.641-4.496,1.641c-4.24-0.291-6.507-2.807-6.799-7.547
				c0.292-4.739,2.595-7.291,6.909-7.656C308.168,343.533,310.505,346.231,310.654,351.408z M308.13,351.08
				c-0.146-3.427-1.645-5.213-4.495-5.359c-2.779,0.073-4.241,1.859-4.387,5.359c0.146,3.136,1.571,4.813,4.276,5.031
				C306.449,355.966,307.984,354.289,308.13,351.08z"/>
		</g>
	</g>
	<g>
		<g>
			<path class="st1" d="M84.746,414.132c-1.097-1.021-2.193-1.969-3.29-2.844c-0.513-0.656-0.549-1.239-0.109-1.75
				c0.511-0.51,1.132-0.547,1.864-0.109c0.803,0.584,1.936,1.495,3.399,2.734c0.51,0.511,0.548,1.131,0.109,1.859
				C86.133,414.533,85.475,414.57,84.746,414.132z M82.552,428.132c-0.806-0.438-1.135-1.058-0.987-1.859
				c0.511-1.313,1.316-3.755,2.413-7.328c0.146-0.583,0.255-0.984,0.328-1.203c0.365-0.729,0.914-1.021,1.646-0.875
				c0.804,0.365,1.097,0.984,0.877,1.859c-1.17,3.719-2.012,6.525-2.522,8.422C83.94,427.949,83.356,428.278,82.552,428.132z
				 M87.487,406.913c-0.513,0.511-1.135,0.547-1.864,0.109c-0.22-0.291-0.731-0.802-1.535-1.531
				c-0.806-0.729-1.354-1.203-1.645-1.422c-0.513-0.51-0.549-1.057-0.11-1.641c0.511-0.51,1.133-0.547,1.864-0.109
				c0.291,0.219,0.84,0.693,1.646,1.422c0.877,0.729,1.425,1.203,1.645,1.422C88.071,405.747,88.071,406.33,87.487,406.913z
				 M90.009,408.554c-0.732-0.072-1.135-0.474-1.207-1.203c0.072-0.656,0.475-1.021,1.207-1.094h6.359v-3.938
				c0.072-0.802,0.511-1.275,1.316-1.422c0.804,0.073,1.242,0.547,1.315,1.422v3.938h6.58c0.729,0.073,1.133,0.438,1.206,1.094
				c-0.073,0.729-0.477,1.131-1.206,1.203h-6.58v5.25h7.896c0.658,0.073,1.023,0.438,1.097,1.094
				c-0.073,0.729-0.438,1.131-1.097,1.203h-8.772c0.072,0.219,0.036,0.438-0.109,0.656c-1.755,2.625-3.474,4.922-5.154,6.891
				c-0.073,0.219,0,0.365,0.22,0.438c0.804,0,2.192-0.072,4.167-0.219c2.193-0.072,3.764-0.146,4.715-0.219
				c-0.877-1.239-1.683-2.369-2.412-3.391c-0.293-0.583-0.184-1.094,0.329-1.531c0.804-0.291,1.425-0.182,1.864,0.328
				c0.657,0.803,1.79,2.334,3.399,4.594c0.803,1.166,1.352,1.969,1.645,2.406c0.365,0.656,0.255,1.275-0.329,1.859
				c-0.877,0.364-1.535,0.219-1.974-0.438l-0.877-1.422c-3.51,0.072-7.566,0.255-12.173,0.547c-1.024,0-1.683-0.328-1.974-0.984
				c-0.293-0.656-0.147-1.385,0.438-2.188c2.266-2.697,4.02-5.104,5.264-7.219v-0.109h-6.36c-0.657-0.072-1.024-0.474-1.097-1.203
				c0.072-0.656,0.439-1.021,1.097-1.094h7.566v-5.25H90.009z"/>
			<path class="st1" d="M111.941,427.038c-0.951-0.073-1.464-0.584-1.535-1.531v-21.328c0.071-0.947,0.584-1.458,1.535-1.531h20.835
				c0.949,0.073,1.462,0.584,1.535,1.531v21.328c-0.073,0.947-0.586,1.458-1.535,1.531H111.941z M131.131,424.741
				c0.364,0,0.548-0.183,0.548-0.547v-18.703c0-0.364-0.184-0.547-0.548-0.547h-17.546c-0.438,0-0.658,0.183-0.658,0.547v18.703
				c0,0.364,0.22,0.547,0.658,0.547H131.131z M115.231,409.648c-0.587-0.072-0.915-0.438-0.987-1.094
				c0.072-0.656,0.4-1.021,0.987-1.094h14.036c0.729,0,1.097,0.365,1.097,1.094c-0.074,0.656-0.439,1.021-1.097,1.094h-5.922v3.172
				h5.482c0.658,0.073,1.023,0.401,1.097,0.984c0,0.656-0.366,1.021-1.097,1.094h-5.482v4.703h6.36
				c0.658,0.073,1.022,0.438,1.097,1.094c-0.074,0.656-0.438,1.021-1.097,1.094h-14.694c-0.658-0.072-1.024-0.438-1.097-1.094
				c0.072-0.656,0.438-1.021,1.097-1.094h5.922v-4.703h-5.045c-0.657-0.072-1.024-0.438-1.097-1.094
				c0.072-0.583,0.439-0.911,1.097-0.984h5.045v-3.172H115.231z M128.5,418.945c-0.439,0.438-0.915,0.438-1.426,0
				c-0.951-0.947-1.609-1.567-1.974-1.859c-0.367-0.438-0.367-0.875,0-1.313c0.364-0.364,0.804-0.364,1.315,0
				c0.22,0.146,0.584,0.438,1.097,0.875c0.584,0.511,0.949,0.839,1.097,0.984C128.9,417.997,128.864,418.435,128.5,418.945z"/>
		</g>
	</g>
	<g>
		<g>
			<path class="st2" d="M283.179,422.662h8.664c1.022-0.072,1.497,0.328,1.425,1.203c0,0.802-0.476,1.203-1.425,1.203h-9.979
				c-1.243,0-1.864-0.584-1.864-1.75c0-0.802,0.182-1.531,0.549-2.188c1.096-2.26,3.252-4.813,6.469-7.656
				c2.413-1.896,3.546-3.682,3.4-5.359c-0.147-1.969-1.316-2.989-3.51-3.063c-2.267,0-3.656,1.058-4.166,3.172
				c-0.22,1.313-0.732,1.859-1.535,1.641c-0.807-0.146-1.135-0.766-0.988-1.859c0.73-3.427,2.961-5.213,6.689-5.359
				c3.948,0.146,5.958,1.969,6.031,5.469c0.146,2.479-1.315,4.922-4.386,7.328c-2.852,2.553-4.753,4.776-5.702,6.672
				C282.777,422.48,282.886,422.662,283.179,422.662z"/>
			<path class="st2" d="M296.726,416.646v-2.297c0.072-7.656,2.559-11.557,7.457-11.703c2.777,0.073,4.678,1.131,5.703,3.172
				c0.291,0.729,0.145,1.313-0.439,1.75c-0.658,0.365-1.244,0.183-1.754-0.547c-0.878-1.239-2.048-1.896-3.51-1.969
				c-2.779,0.073-4.424,2.553-4.935,7.438c1.315-1.313,2.888-1.969,4.716-1.969c4.238,0.292,6.47,2.808,6.689,7.547
				c-0.148,4.813-2.486,7.328-7.019,7.547C299.101,425.469,296.798,422.48,296.726,416.646z M299.359,418.068
				c0.145,3.209,1.57,4.922,4.276,5.141c2.851-0.219,4.349-1.932,4.495-5.141c-0.146-3.281-1.645-4.994-4.495-5.141
				C300.929,413.074,299.503,414.787,299.359,418.068z"/>
		</g>
	</g>
	<g>
		<g>
			<path class="st1" d="M92.092,465.528c1.097,0,1.645,0.547,1.645,1.641c0,4.959-0.146,9.953-0.438,14.984
				c0.146,3.063-1.206,4.557-4.057,4.484c-0.658,0.072-1.426,0.109-2.304,0.109c-0.731-0.073-1.17-0.475-1.315-1.203
				c-0.073-0.803,0.291-1.24,1.097-1.313c0.658,0.146,1.388,0.146,2.193,0c1.315,0.072,2.01-0.656,2.083-2.188
				c0-0.51,0.036-1.313,0.109-2.406c0.146-4.958,0.22-8.713,0.22-11.266c0-0.438-0.257-0.656-0.768-0.656h-3.07
				c-0.074,0.365-0.109,0.766-0.109,1.203c-0.074,8.24-1.5,14.183-4.277,17.828c-0.438,0.51-1.061,0.619-1.864,0.328
				c-0.586-0.584-0.657-1.276-0.219-2.078c2.558-3.135,3.838-8.531,3.838-16.188c0-0.364,0.036-0.729,0.109-1.094h-2.961
				c-0.805-0.072-1.206-0.438-1.206-1.094c0-0.729,0.401-1.094,1.206-1.094h2.961c0.072-0.875,0.11-2.188,0.11-3.938
				c0.071-0.802,0.475-1.239,1.206-1.313c0.804,0.073,1.206,0.511,1.206,1.313c0,1.24,0,2.553,0,3.938H92.092z M98.014,485.981
				c-1.097-0.073-1.683-0.62-1.755-1.641v-18.266c0.072-1.021,0.658-1.567,1.755-1.641h6.799c1.097,0,1.645,0.547,1.645,1.641
				v18.266c-0.073,1.021-0.622,1.567-1.645,1.641H98.014z M103.387,483.575c0.365,0,0.548-0.182,0.548-0.547v-15.641
				c0-0.364-0.183-0.547-0.548-0.547H99.33c-0.366,0-0.548,0.183-0.548,0.547v15.641c0,0.365,0.182,0.547,0.548,0.547H103.387z"/>
			<path class="st1" d="M112.05,476.794c-0.658-0.072-1.061-0.328-1.206-0.766c0-0.583,0.329-0.875,0.987-0.875
				c7.748,0,14.437-0.109,20.067-0.328c0.584,0.073,0.913,0.328,0.986,0.766c0.072,0.584-0.184,0.875-0.768,0.875
				c-0.658,0.073-1.974,0.109-3.947,0.109c-1.755,0.073-3.108,0.109-4.058,0.109v1.75h8.443c0.511,0,0.768,0.256,0.768,0.766
				c0,0.438-0.257,0.693-0.768,0.766h-8.443v1.641h10.746c0.511,0.073,0.804,0.365,0.878,0.875
				c-0.074,0.511-0.367,0.803-0.878,0.875h-10.746v0.547c0.072,1.969-0.987,2.989-3.18,3.063c-1.171,0-2.377,0-3.619,0
				c-0.806,0-1.206-0.328-1.206-0.984c-0.074-0.584,0.255-0.875,0.986-0.875c0.292,0,0.73,0.036,1.316,0.109
				c0.584,0,1.022,0,1.315,0c1.316,0.072,1.937-0.438,1.864-1.531v-0.328h-11.843c-0.513-0.072-0.806-0.364-0.877-0.875
				c0.071-0.51,0.364-0.802,0.877-0.875h11.843v-1.641h-9.649c-0.438-0.072-0.696-0.328-0.768-0.766
				c0.071-0.51,0.329-0.766,0.768-0.766h9.649v-1.75C119.105,476.758,115.924,476.794,112.05,476.794z M117.423,467.169
				c-0.438-0.072-0.695-0.328-0.768-0.766c-1.828,0.948-3.729,1.75-5.702,2.406c-0.731,0.219-1.279,0-1.645-0.656
				c-0.293-0.729-0.038-1.275,0.768-1.641c4.093-1.313,7.528-2.916,10.308-4.813c0.804-0.583,1.498-0.875,2.084-0.875
				c0.657-0.146,1.352,0.073,2.083,0.656c2.852,2.188,6.251,3.792,10.198,4.813c0.73,0.365,0.987,0.948,0.768,1.75
				c-0.293,0.584-0.877,0.766-1.754,0.547c-2.268-0.729-4.277-1.567-6.031-2.516c0.071,0.073,0.109,0.183,0.109,0.328
				c0,0.438-0.257,0.693-0.768,0.766H117.423z M114.682,473.622c-0.806,0-1.206-0.438-1.206-1.313v-2.406
				c0-0.802,0.4-1.203,1.206-1.203h15.242c0.878,0,1.316,0.401,1.316,1.203v2.406c0,0.875-0.438,1.313-1.316,1.313H114.682z
				 M115.888,470.669v0.984c0,0.219,0.11,0.328,0.329,0.328H128.5c0.219-0.072,0.328-0.182,0.328-0.328v-0.984
				c0-0.219-0.109-0.364-0.328-0.438h-12.282C115.999,470.231,115.888,470.378,115.888,470.669z M121.919,463.231
				c-1.244,0.875-2.521,1.678-3.838,2.406h8.772c-1.315-0.729-2.56-1.531-3.729-2.406
				C122.759,463.012,122.358,463.012,121.919,463.231z"/>
			<path class="st1" d="M138.258,470.559c-0.805-0.072-1.244-0.51-1.315-1.313c0.071-0.729,0.511-1.13,1.315-1.203h10.747
				c0.071-1.458,0.109-3.572,0.109-6.344c0.072-0.875,0.548-1.349,1.426-1.422c0.877,0.073,1.352,0.547,1.425,1.422
				c0,0.584,0,1.641,0,3.172c-0.073,1.531-0.109,2.589-0.109,3.172h10.856c0.729,0.073,1.133,0.475,1.206,1.203
				c-0.073,0.803-0.477,1.24-1.206,1.313h-10.856c1.097,6.271,4.787,10.792,11.075,13.563c0.878,0.438,1.097,1.094,0.658,1.969
				c-0.438,0.729-1.134,0.911-2.083,0.547c-5.85-2.698-9.541-6.781-11.076-12.25c-1.17,5.25-4.824,9.479-10.966,12.688
				c-0.805,0.364-1.499,0.219-2.083-0.438c-0.438-0.948-0.257-1.641,0.548-2.078c6.506-3.208,10.125-7.875,10.856-14H138.258z"/>
		</g>
	</g>
	<g>
		<g>
			<path class="st2" d="M283.179,481.994h8.664c1.022-0.072,1.497,0.328,1.425,1.203c0,0.802-0.476,1.203-1.425,1.203h-9.979
				c-1.243,0-1.864-0.584-1.864-1.75c0-0.802,0.182-1.531,0.549-2.188c1.096-2.26,3.252-4.813,6.469-7.656
				c2.413-1.896,3.546-3.682,3.4-5.359c-0.147-1.969-1.316-2.989-3.51-3.063c-2.267,0-3.656,1.058-4.166,3.172
				c-0.22,1.313-0.732,1.859-1.535,1.641c-0.807-0.146-1.135-0.766-0.988-1.859c0.73-3.427,2.961-5.213,6.689-5.359
				c3.948,0.146,5.958,1.969,6.031,5.469c0.146,2.479-1.315,4.922-4.386,7.328c-2.852,2.553-4.753,4.776-5.702,6.672
				C282.777,481.812,282.886,481.994,283.179,481.994z"/>
			<path class="st2" d="M300.455,464.931v5.797c1.242-0.583,2.413-0.875,3.51-0.875c4.313,0.219,6.541,2.516,6.689,6.891
				c-0.148,5.323-2.596,8.057-7.348,8.203c-3.218-0.073-5.373-1.641-6.47-4.703c-0.22-0.947,0.071-1.531,0.877-1.75
				c0.658-0.291,1.169,0,1.535,0.875c0.729,2.042,2.083,3.1,4.058,3.172c3.07-0.146,4.678-2.078,4.824-5.797
				c-0.146-2.771-1.572-4.266-4.275-4.484c-0.878,0-1.828,0.256-2.852,0.766c-0.586,0.219-1.061,0.365-1.426,0.438
				c-1.024,0-1.535-0.656-1.535-1.969v-7.328c-0.074-1.094,0.511-1.641,1.754-1.641h8.555c1.022-0.072,1.497,0.365,1.425,1.313
				c0.072,0.729-0.366,1.094-1.315,1.094H300.455z"/>
		</g>
	</g>
	<g>
		<g>
			<path class="st1" d="M499.301,62.505c-0.586,0.438-1.135,0.401-1.646-0.109c-0.366-0.656-0.293-1.275,0.22-1.859
				c1.826-1.604,3.581-3.9,5.264-6.891c0.364-0.656,0.877-0.802,1.535-0.438c0.658,0.438,0.804,0.984,0.438,1.641
				c-0.586,0.948-1.206,1.933-1.864,2.953v13.125c-0.073,0.729-0.438,1.13-1.097,1.203c-0.731-0.073-1.134-0.475-1.206-1.203V60.755
				c-0.147,0.146-0.402,0.438-0.768,0.875C499.811,61.995,499.52,62.286,499.301,62.505z M500.069,53.645
				c-0.586,0.438-1.135,0.365-1.646-0.219c-0.438-0.656-0.402-1.275,0.11-1.859c1.754-1.458,3.252-3.208,4.495-5.25
				c0.511-0.51,1.097-0.619,1.755-0.328c0.584,0.438,0.694,1.021,0.329,1.75C503.578,49.927,501.895,51.895,500.069,53.645z
				 M505.003,69.833c-0.586-0.292-0.768-0.729-0.549-1.313c0.585-1.166,1.097-2.333,1.535-3.5c0.292-0.656,0.768-0.875,1.426-0.656
				c0.584,0.219,0.768,0.62,0.549,1.203c-0.367,1.094-0.878,2.334-1.536,3.719C506.135,69.869,505.661,70.052,505.003,69.833z
				 M505.88,62.505c-0.586-0.072-0.915-0.364-0.987-0.875c0.072-0.583,0.401-0.911,0.987-0.984h17.436
				c0.584,0.073,0.913,0.401,0.987,0.984c-0.074,0.511-0.403,0.803-0.987,0.875h-9.102c0.22,0.146,0.401,0.328,0.549,0.547
				c0.364,0.365,0.877,1.094,1.535,2.188c0.291,0.511,0.146,0.948-0.439,1.313c-0.586,0.292-1.096,0.146-1.535-0.438
				c0-0.072-0.073-0.182-0.219-0.328c-0.586-1.021-1.024-1.677-1.316-1.969c-0.147-0.438,0.036-0.838,0.549-1.203
				c0.071,0,0.109-0.036,0.109-0.109H505.88z M506.428,49.817c-0.586-0.072-0.914-0.4-0.986-0.984
				c0.072-0.583,0.4-0.911,0.986-0.984h6.909v-1.641c0.071-0.802,0.438-1.239,1.097-1.313c0.729,0.073,1.132,0.511,1.206,1.313
				v1.641h7.347c0.585,0,0.878,0.328,0.878,0.984s-0.293,0.984-0.878,0.984h-7.347v2.078h5.593c1.022,0,1.535,0.475,1.535,1.422
				v3.938c0,1.021-0.513,1.531-1.535,1.531h-13.598c-0.878-0.072-1.354-0.583-1.426-1.531v-3.938
				c0.072-0.947,0.548-1.422,1.426-1.422h5.702v-2.078H506.428z M508.403,54.192v2.188c0,0.365,0.182,0.547,0.548,0.547h2.193
				v-3.281h-2.193C508.658,53.645,508.474,53.828,508.403,54.192z M512.459,71.145c-2.192,0.072-3.253-0.912-3.18-2.953V65.13
				c0.072-0.729,0.438-1.094,1.097-1.094c0.729,0,1.097,0.365,1.097,1.094v2.297c-0.074,1.239,0.584,1.822,1.974,1.75h2.193
				c1.097,0.072,1.754-0.328,1.974-1.203c0.072-0.146,0.146-0.4,0.22-0.766c0.071-0.438,0.109-0.692,0.109-0.766
				c0.22-0.583,0.658-0.802,1.315-0.656c0.585,0.146,0.84,0.584,0.768,1.313c-0.146,0.729-0.293,1.385-0.438,1.969
				c-0.438,1.458-1.608,2.15-3.509,2.078H512.459z M513.008,53.645v3.281h2.851v-3.281H513.008z M520.026,53.645h-2.303v3.281h2.303
				c0.365,0,0.549-0.182,0.549-0.547v-2.188C520.5,53.828,520.318,53.645,520.026,53.645z M523.536,69.177
				c-0.658,0.219-1.135,0.072-1.426-0.438c-0.073-0.073-0.147-0.219-0.22-0.438c-0.805-1.385-1.39-2.369-1.754-2.953
				c-0.22-0.583-0.074-1.021,0.438-1.313c0.511-0.291,1.022-0.146,1.535,0.438c0.22,0.511,0.768,1.459,1.645,2.844
				c0.146,0.219,0.256,0.365,0.329,0.438C524.303,68.411,524.12,68.885,523.536,69.177z"/>
			<path class="st1" d="M528.58,70.927c-0.95-0.073-1.463-0.584-1.535-1.531V48.067c0.072-0.947,0.585-1.458,1.535-1.531h20.835
				c0.949,0.073,1.462,0.584,1.535,1.531v21.328c-0.073,0.947-0.586,1.458-1.535,1.531H528.58z M547.77,68.63
				c0.365,0,0.549-0.183,0.549-0.547V49.38c0-0.364-0.184-0.547-0.549-0.547h-17.545c-0.438,0-0.658,0.183-0.658,0.547v18.703
				c0,0.364,0.22,0.547,0.658,0.547H547.77z M531.87,53.536c-0.586-0.072-0.915-0.438-0.987-1.094
				c0.072-0.656,0.401-1.021,0.987-1.094h14.036c0.73,0,1.097,0.365,1.097,1.094c-0.073,0.656-0.438,1.021-1.097,1.094h-5.922v3.172
				h5.483c0.658,0.073,1.022,0.401,1.097,0.984c0,0.656-0.367,1.021-1.097,1.094h-5.483v4.703h6.36
				c0.658,0.073,1.023,0.438,1.097,1.094c-0.073,0.656-0.438,1.021-1.097,1.094H531.65c-0.657-0.072-1.024-0.438-1.096-1.094
				c0.071-0.656,0.438-1.021,1.096-1.094h5.922v-4.703h-5.044c-0.658-0.072-1.024-0.438-1.097-1.094
				c0.072-0.583,0.438-0.911,1.097-0.984h5.044v-3.172H531.87z M545.138,62.833c-0.438,0.438-0.915,0.438-1.426,0
				c-0.95-0.947-1.608-1.567-1.974-1.859c-0.366-0.438-0.366-0.875,0-1.313c0.365-0.364,0.804-0.364,1.316,0
				c0.219,0.146,0.584,0.438,1.097,0.875c0.584,0.511,0.949,0.839,1.096,0.984C545.54,61.886,545.503,62.323,545.138,62.833z"/>
		</g>
	</g>
	<g>
		<g>
			<path class="st2" d="M704.958,66.669h8.664c1.022-0.072,1.497,0.328,1.425,1.203c0,0.802-0.476,1.203-1.425,1.203h-9.979
				c-1.243,0-1.864-0.584-1.864-1.75c0-0.802,0.182-1.531,0.549-2.188c1.096-2.26,3.252-4.813,6.469-7.656
				c2.413-1.896,3.546-3.682,3.4-5.359c-0.147-1.969-1.316-2.989-3.51-3.063c-2.267,0-3.656,1.058-4.166,3.172
				c-0.22,1.313-0.732,1.859-1.535,1.641c-0.807-0.146-1.135-0.766-0.988-1.859c0.73-3.427,2.961-5.213,6.689-5.359
				c3.948,0.146,5.958,1.969,6.031,5.469c0.146,2.479-1.315,4.922-4.386,7.328c-2.852,2.553-4.753,4.776-5.702,6.672
				C704.556,66.487,704.666,66.669,704.958,66.669z"/>
			<path class="st2" d="M732.433,62.841c-0.148,4.375-2.486,6.635-7.019,6.781c-3.583-0.146-5.886-1.786-6.909-4.922
				c-0.146-1.094,0.11-1.713,0.768-1.859c0.73-0.219,1.242,0.109,1.535,0.984c0.878,2.188,2.413,3.318,4.606,3.391
				c2.923-0.072,4.423-1.494,4.495-4.266c0.072-2.697-1.901-4.047-5.921-4.047c-1.024,0-1.535-0.438-1.535-1.313
				c0-0.802,0.511-1.203,1.535-1.203c3.581,0,5.374-1.239,5.374-3.719c-0.074-2.333-1.391-3.536-3.948-3.609
				c-2.122,0.073-3.509,1.131-4.167,3.172c-0.22,1.021-0.695,1.422-1.426,1.203c-0.877-0.072-1.244-0.583-1.097-1.531
				c1.097-3.354,3.325-5.104,6.689-5.25c4.167,0.146,6.322,2.151,6.47,6.016c0,2.042-0.915,3.683-2.742,4.922
				C731.262,58.684,732.359,60.434,732.433,62.841z"/>
		</g>
	</g>
	<g>
		<g>
			<path class="st1" d="M498.534,109.088c-0.732-0.072-1.135-0.474-1.207-1.203c0.072-0.656,0.475-1.021,1.207-1.094h6.799
				c0.729,0.073,1.132,0.438,1.206,1.094c-0.074,0.729-0.477,1.131-1.206,1.203h-2.193v6.453h1.974c0.729,0,1.097,0.365,1.097,1.094
				c0,0.656-0.367,1.021-1.097,1.094h-1.974v7c0.219-0.072,0.548-0.146,0.986-0.219c0.585-0.146,1.023-0.255,1.316-0.328
				c0.729-0.072,1.168,0.256,1.315,0.984c0,0.656-0.366,1.131-1.097,1.422c-0.731,0.146-2.011,0.438-3.838,0.875
				c-1.315,0.219-2.23,0.4-2.741,0.547c-0.806,0.146-1.315-0.183-1.535-0.984c-0.073-0.802,0.291-1.275,1.097-1.422
				c0.219,0,0.511-0.072,0.877-0.219c0.585-0.072,1.023-0.146,1.316-0.219v-7.438h-2.084c-0.658-0.072-1.024-0.438-1.097-1.094
				c0.072-0.656,0.438-1.021,1.097-1.094h2.084v-6.453H498.534z M507.525,116.526c-0.586-0.072-0.915-0.4-0.986-0.984
				c0.071-0.656,0.4-1.021,0.986-1.094h16.011c0.657,0.073,1.022,0.438,1.097,1.094c-0.074,0.584-0.439,0.912-1.097,0.984h-7.896
				l-0.658,2.516h6.908c0.878,0,1.316,0.438,1.316,1.313v7.656c0.072,1.822-0.768,2.771-2.522,2.844c-0.658,0-1.244,0-1.754,0
				c-0.658,0-1.062-0.365-1.207-1.094c0-0.073,0.036-0.146,0.11-0.219c0-0.146,0-0.256,0-0.328
				c-0.074,0.072-0.184,0.109-0.329,0.109c-0.658-0.073-1.024-0.401-1.097-0.984v-7.219h-2.522v7.656
				c-0.073,0.583-0.402,0.911-0.986,0.984c-0.586-0.073-0.915-0.401-0.987-0.984v-7.656h-1.974c-0.367,0-0.549,0.219-0.549,0.656
				v8.531c0,0.583-0.366,0.911-1.097,0.984c-0.731-0.073-1.096-0.401-1.096-0.984v-9.953c0-0.875,0.438-1.313,1.315-1.313h4.058
				l0.548-2.516H507.525z M509.17,112.151c-0.951,0-1.464-0.438-1.535-1.313v-4.047c0-0.729,0.4-1.094,1.206-1.094
				c0.729,0.073,1.133,0.365,1.206,0.875v2.953c0,0.365,0.182,0.547,0.549,0.547h3.398v-4.703c0.072-0.729,0.476-1.13,1.207-1.203
				c0.729,0.073,1.132,0.475,1.206,1.203v4.703h3.509c0.291,0,0.475-0.182,0.549-0.547v-2.953c0-0.583,0.4-0.875,1.206-0.875
				c0.729,0,1.097,0.365,1.097,1.094v4.047c-0.074,0.875-0.586,1.313-1.535,1.313H509.17z M518.381,128.338
				c0,0.146-0.037,0.291-0.109,0.438c0.072,0,0.146,0,0.219,0l0.11-0.109c0.291,0.072,0.693,0.109,1.206,0.109
				c0.877,0,1.278-0.438,1.206-1.313v-5.797c0.072-0.364-0.109-0.547-0.548-0.547h-2.084V128.338z"/>
			<path class="st1" d="M526.826,115.541c-0.806-0.072-1.244-0.51-1.316-1.313c0.072-0.802,0.511-1.239,1.316-1.313h10.637v-7.109
				c0.072-0.947,0.584-1.458,1.535-1.531c0.877,0.073,1.352,0.584,1.426,1.531v7.109h10.746c0.804,0.073,1.242,0.511,1.316,1.313
				c-0.074,0.803-0.513,1.24-1.316,1.313h-10.746v11.156h9.102c0.804,0.073,1.242,0.511,1.315,1.313
				c-0.073,0.802-0.512,1.239-1.315,1.313h-21.164c-0.731-0.073-1.171-0.511-1.316-1.313c0.072-0.802,0.511-1.239,1.316-1.313h9.102
				v-11.156H526.826z"/>
		</g>
	</g>
	<g>
		<g>
			<path class="st2" d="M704.958,126.001h8.664c1.022-0.072,1.497,0.328,1.425,1.203c0,0.802-0.476,1.203-1.425,1.203h-9.979
				c-1.243,0-1.864-0.584-1.864-1.75c0-0.802,0.182-1.531,0.549-2.188c1.096-2.26,3.252-4.813,6.469-7.656
				c2.413-1.896,3.546-3.682,3.4-5.359c-0.147-1.969-1.316-2.989-3.51-3.063c-2.267,0-3.656,1.058-4.166,3.172
				c-0.22,1.313-0.732,1.859-1.535,1.641c-0.807-0.146-1.135-0.766-0.988-1.859c0.73-3.427,2.961-5.213,6.689-5.359
				c3.948,0.146,5.958,1.969,6.031,5.469c0.146,2.479-1.315,4.922-4.386,7.328c-2.852,2.553-4.753,4.776-5.702,6.672
				C704.556,125.819,704.666,126.001,704.958,126.001z"/>
			<path class="st2" d="M724.099,127.423v-18.266l-2.852,1.641c-0.877,0.438-1.463,0.256-1.755-0.547
				c-0.366-0.656-0.073-1.275,0.878-1.859l4.057-2.188c1.389-0.51,2.119-0.036,2.193,1.422v19.797c0,1.094-0.402,1.604-1.206,1.531
				C724.537,129.026,724.099,128.516,724.099,127.423z"/>
		</g>
	</g>
	<g>
		<g>
			<path class="st1" d="M502.81,173.171c-0.074,0-0.147,0.037-0.22,0.109h2.742c0.219-0.364,0.548-0.984,0.986-1.859
				c0.438-0.729,0.73-1.239,0.878-1.531c0.364-0.656,0.913-0.875,1.645-0.656c0.584,0.365,0.729,0.839,0.438,1.422
				c-0.293,0.584-0.806,1.459-1.535,2.625h2.961c0.584,0.073,0.913,0.401,0.986,0.984c-0.073,0.656-0.402,1.021-0.986,1.094h-4.935
				c0.146,0.146,0.219,0.328,0.219,0.547v2.297h4.167c0.585,0.073,0.914,0.401,0.987,0.984c-0.073,0.656-0.402,1.021-0.987,1.094
				h-4.167v6.453c0,2.041-0.915,3.099-2.741,3.172c-0.147,0-0.477,0-0.987,0c-0.586,0.072-0.986,0.109-1.206,0.109
				c-0.731,0-1.17-0.401-1.315-1.203c0.071-0.729,0.438-1.131,1.097-1.203c0.146,0,0.364,0.036,0.657,0.109c0.365,0,0.585,0,0.658,0
				c0.949,0,1.426-0.511,1.426-1.531v-5.906h-4.496c-0.658-0.072-1.024-0.438-1.097-1.094c0.072-0.583,0.438-0.911,1.097-0.984
				h4.496v-2.297c0-0.219,0.072-0.4,0.22-0.547h-5.374c-0.657-0.072-1.024-0.438-1.097-1.094c0.072-0.583,0.439-0.911,1.097-0.984
				h3.399c-0.219-0.072-0.402-0.255-0.548-0.547c-0.074-0.072-0.184-0.255-0.329-0.547c-0.438-0.729-0.731-1.203-0.877-1.422
				c-0.293-0.583-0.184-1.057,0.329-1.422c0.657-0.219,1.168-0.072,1.535,0.438c0.146,0.146,0.364,0.438,0.657,0.875
				c0.365,0.511,0.585,0.839,0.658,0.984C503.54,172.223,503.394,172.733,502.81,173.171z M498.314,187.499
				c-0.513-0.365-0.658-0.838-0.438-1.422c0.658-1.239,1.315-2.552,1.974-3.938c0.291-0.583,0.73-0.766,1.316-0.547
				c0.584,0.292,0.803,0.729,0.657,1.313c-0.219,0.365-0.548,1.058-0.986,2.078c-0.513,0.948-0.878,1.641-1.097,2.078
				C499.447,187.571,498.972,187.718,498.314,187.499z M499.191,168.905c-0.586-0.072-0.915-0.438-0.986-1.094
				c0.071-0.583,0.4-0.911,0.986-0.984h4.496c-0.219-0.729-0.438-1.313-0.658-1.75c-0.073-0.729,0.22-1.166,0.878-1.313
				c0.729-0.146,1.278,0.073,1.645,0.656c0,0.073,0.036,0.219,0.109,0.438c0.292,0.948,0.549,1.604,0.768,1.969h3.619
				c0.658,0.073,1.023,0.401,1.097,0.984c-0.073,0.656-0.438,1.021-1.097,1.094H499.191z M510.376,185.968
				c-0.586,0.292-1.097,0.146-1.535-0.438c-0.438-0.656-0.987-1.531-1.645-2.625c-0.294-0.51-0.184-0.984,0.328-1.422
				c0.585-0.219,1.097-0.072,1.535,0.438c0.146,0.219,0.439,0.656,0.878,1.313c0.364,0.584,0.62,1.021,0.768,1.313
				C510.997,185.056,510.887,185.53,510.376,185.968z M510.706,190.014c-0.658-0.438-0.806-1.021-0.438-1.75
				c1.681-2.26,2.484-5.906,2.412-10.938v-9.844c0-0.875,0.438-1.385,1.315-1.531c2.266-0.072,4.936-0.328,8.006-0.766
				c0.804-0.146,1.278,0.183,1.425,0.984c0.072,0.729-0.257,1.167-0.986,1.313c-2.267,0.292-4.534,0.511-6.799,0.656
				c-0.367,0-0.549,0.219-0.549,0.656v5.031h8.115c0.729,0.073,1.133,0.475,1.206,1.203c-0.073,0.656-0.477,1.021-1.206,1.094
				h-2.193v13.344c-0.073,0.729-0.477,1.13-1.206,1.203c-0.658-0.073-1.024-0.475-1.097-1.203v-13.344h-3.619v1.094
				c0.072,5.542-0.805,9.662-2.632,12.359C512.093,190.305,511.509,190.452,510.706,190.014z"/>
			<path class="st1" d="M536.804,168.686c1.097,0,1.645,0.547,1.645,1.641c0,4.959-0.146,9.953-0.438,14.984
				c0.146,3.063-1.206,4.557-4.057,4.484c-0.658,0.072-1.426,0.109-2.304,0.109c-0.731-0.073-1.17-0.475-1.315-1.203
				c-0.073-0.803,0.291-1.24,1.097-1.313c0.658,0.146,1.388,0.146,2.193,0c1.315,0.072,2.01-0.656,2.083-2.188
				c0-0.51,0.036-1.313,0.109-2.406c0.146-4.958,0.22-8.713,0.22-11.266c0-0.438-0.257-0.656-0.768-0.656h-3.07
				c-0.074,0.365-0.109,0.766-0.109,1.203c-0.074,8.24-1.5,14.183-4.277,17.828c-0.438,0.51-1.061,0.619-1.864,0.328
				c-0.586-0.584-0.657-1.276-0.219-2.078c2.558-3.135,3.838-8.531,3.838-16.188c0-0.364,0.036-0.729,0.109-1.094h-2.961
				c-0.805-0.072-1.206-0.438-1.206-1.094c0-0.729,0.401-1.094,1.206-1.094h2.961c0.072-0.875,0.11-2.188,0.11-3.938
				c0.071-0.802,0.475-1.239,1.206-1.313c0.804,0.073,1.206,0.511,1.206,1.313c0,1.24,0,2.553,0,3.938H536.804z M542.726,189.139
				c-1.097-0.073-1.683-0.62-1.755-1.641v-18.266c0.072-1.021,0.658-1.567,1.755-1.641h6.799c1.097,0,1.645,0.547,1.645,1.641
				v18.266c-0.073,1.021-0.622,1.567-1.645,1.641H542.726z M548.099,186.733c0.365,0,0.548-0.182,0.548-0.547v-15.641
				c0-0.364-0.183-0.547-0.548-0.547h-4.058c-0.366,0-0.548,0.183-0.548,0.547v15.641c0,0.365,0.182,0.547,0.548,0.547H548.099z"/>
			<path class="st1" d="M554.788,173.061c-0.731-0.072-1.134-0.474-1.206-1.203c0.072-0.729,0.475-1.13,1.206-1.203h2.303v-5.797
				c0.072-0.656,0.475-1.021,1.207-1.094c0.729,0.073,1.132,0.438,1.206,1.094v5.797h2.083c0.73,0.073,1.133,0.475,1.207,1.203
				c-0.074,0.729-0.477,1.131-1.207,1.203h-2.083v8.531c0.584-0.146,1.168-0.328,1.755-0.547c0.729-0.219,1.242,0.037,1.535,0.766
				c0.071,0.803-0.293,1.35-1.097,1.641c-0.878,0.292-2.596,0.948-5.154,1.969c-0.586,0.219-0.987,0.365-1.206,0.438
				c-0.951,0.073-1.499-0.219-1.646-0.875c-0.219-0.802,0.036-1.349,0.769-1.641c0.803-0.219,1.681-0.51,2.631-0.875v-9.406H554.788
				z M560.819,190.124c-0.657-0.511-0.768-1.131-0.329-1.859c2.339-2.625,3.436-6.38,3.29-11.266v-8.094
				c0.072-0.947,0.549-1.422,1.426-1.422h5.593v-2.516c0.071-0.729,0.475-1.13,1.206-1.203c0.729,0.073,1.133,0.475,1.206,1.203
				v2.516h5.373c0.73,0.073,1.097,0.475,1.097,1.203l-0.438,3.719c-0.073,0.584-0.513,0.912-1.315,0.984
				c-0.658-0.146-0.951-0.547-0.878-1.203l0.329-2.078c0-0.291-0.147-0.438-0.438-0.438h-3.729v4.922h4.058
				c0.804,0.073,1.242,0.475,1.315,1.203c0,0.729-0.183,1.495-0.548,2.297c-0.877,2.479-2.121,4.703-3.729,6.672
				c1.462,1.167,3.216,2.151,5.264,2.953c0.658,0.438,0.913,1.021,0.768,1.75c-0.366,0.729-1.024,0.947-1.974,0.656
				c-2.341-1.094-4.277-2.334-5.813-3.719c-1.315,1.239-3.363,2.552-6.141,3.938c-0.805,0.291-1.426,0.109-1.864-0.547
				c-0.293-0.803-0.073-1.386,0.658-1.75c2.193-0.948,4.058-2.078,5.593-3.391c-1.535-1.677-2.742-3.9-3.619-6.672
				c-0.219-0.438-0.184-0.838,0.109-1.203h-1.096v0.328c0.071,5.323-1.135,9.589-3.619,12.797
				C562.061,190.415,561.477,190.488,560.819,190.124z M566.193,170.327v4.266h4.605v-4.922h-4.058
				C566.375,169.671,566.193,169.889,566.193,170.327z M569.373,177.108c0.729,2.261,1.79,4.229,3.18,5.906
				c1.242-1.385,2.303-3.244,3.181-5.578c0.071-0.438-0.074-0.656-0.438-0.656h-6.142
				C569.299,176.853,569.373,176.963,569.373,177.108z"/>
		</g>
	</g>
	<g>
		<g>
			<path class="st2" d="M704.958,185.333h8.664c1.022-0.072,1.497,0.328,1.425,1.203c0,0.802-0.476,1.203-1.425,1.203h-9.979
				c-1.243,0-1.864-0.584-1.864-1.75c0-0.802,0.182-1.531,0.549-2.188c1.096-2.26,3.252-4.813,6.469-7.656
				c2.413-1.896,3.546-3.682,3.4-5.359c-0.147-1.969-1.316-2.989-3.51-3.063c-2.267,0-3.656,1.058-4.166,3.172
				c-0.22,1.313-0.732,1.859-1.535,1.641c-0.807-0.146-1.135-0.766-0.988-1.859c0.73-3.427,2.961-5.213,6.689-5.359
				c3.948,0.146,5.958,1.969,6.031,5.469c0.146,2.479-1.315,4.922-4.386,7.328c-2.852,2.553-4.753,4.776-5.702,6.672
				C704.556,185.151,704.666,185.333,704.958,185.333z"/>
			<path class="st2" d="M725.415,165.317c4.458,0.219,6.799,4.047,7.019,11.484c-0.148,7.584-2.486,11.411-7.019,11.484
				c-4.534-0.219-6.837-4.047-6.909-11.484C718.652,169.292,720.955,165.464,725.415,165.317z M725.415,167.723
				c-2.779,0.146-4.241,3.172-4.387,9.078c0.072,5.834,1.536,8.859,4.387,9.078c2.923-0.146,4.423-3.172,4.495-9.078
				C729.763,170.969,728.265,167.942,725.415,167.723z"/>
		</g>
	</g>
	<g>
		<g>
			<path class="st1" d="M498.643,227.847c-0.658-0.072-1.024-0.4-1.097-0.984c0.072-0.729,0.438-1.094,1.097-1.094h4.276v-1.641
				c0.072-0.656,0.475-1.021,1.206-1.094c0.73,0.073,1.133,0.438,1.207,1.094v1.641h3.838c0.584,0.073,0.913,0.438,0.986,1.094
				c-0.073,0.584-0.402,0.912-0.986,0.984h-3.838v2.297h2.632c0.949,0,1.425,0.475,1.425,1.422v7.656
				c0,0.948-0.476,1.422-1.425,1.422h-2.632v2.297h4.167c0.729,0,1.097,0.365,1.097,1.094c-0.074,0.584-0.439,0.912-1.097,0.984
				h-4.167v3.5c-0.074,0.729-0.477,1.13-1.207,1.203c-0.731-0.073-1.134-0.475-1.206-1.203v-3.5h-4.496
				c-0.586-0.072-0.915-0.4-0.986-0.984c0.071-0.656,0.4-1.021,0.986-1.094h4.496v-2.297h-2.741c-0.877,0-1.354-0.474-1.426-1.422
				v-7.766c0-0.875,0.475-1.313,1.426-1.313h2.741v-2.297H498.643z M500.836,232.551v1.969h6.36v-1.969
				c0-0.364-0.147-0.547-0.439-0.547h-5.373C501.018,232.004,500.836,232.186,500.836,232.551z M506.757,238.785
				c0.292,0,0.439-0.182,0.439-0.547v-2.078h-6.36v2.078c0.071,0.365,0.255,0.547,0.548,0.547H506.757z M518.93,246.222
				c-0.806-0.072-1.28-0.438-1.426-1.094c0.071-0.802,0.4-1.166,0.986-1.094c0.439,0,0.84,0,1.207,0
				c0.949,0.073,1.461-0.4,1.535-1.422c0-0.072,0-0.255,0-0.547c0.071-0.364,0.109-0.656,0.109-0.875c0-0.364,0-0.692,0-0.984
				c0-0.364-0.147-0.547-0.438-0.547h-3.619v8.859c-0.073,0.656-0.477,1.021-1.206,1.094c-0.731-0.073-1.134-0.438-1.206-1.094
				v-8.859h-3.399c-0.658-0.072-1.024-0.474-1.097-1.203c0.072-0.583,0.438-0.911,1.097-0.984h3.399v-3.391h-2.852
				c-0.586-0.072-0.915-0.438-0.986-1.094c0.071-0.656,0.4-1.021,0.986-1.094h2.852v-3.281h-3.181
				c-0.586-0.072-0.915-0.438-0.986-1.094c0.071-0.656,0.4-1.021,0.986-1.094h3.181v-2.188c0.072-0.729,0.475-1.13,1.206-1.203
				c0.729,0.073,1.133,0.475,1.206,1.203v2.188h5.483c0.657,0.073,1.022,0.438,1.097,1.094c0,0.656-0.367,1.021-1.097,1.094h-5.483
				v3.281h4.605c0.658,0.073,1.023,0.438,1.097,1.094c-0.073,0.656-0.438,1.021-1.097,1.094h-4.605v3.391h5.045
				c1.022,0.073,1.497,0.584,1.425,1.531c0,0.292-0.037,0.693-0.109,1.203c0,0.438,0,0.766,0,0.984
				c-0.073,0.803-0.109,1.422-0.109,1.859c0,2.115-1.097,3.172-3.29,3.172H518.93z"/>
			<path class="st1" d="M528.58,248.738c-0.95-0.073-1.463-0.584-1.535-1.531v-21.328c0.072-0.947,0.585-1.458,1.535-1.531h20.835
				c0.949,0.073,1.462,0.584,1.535,1.531v21.328c-0.073,0.947-0.586,1.458-1.535,1.531H528.58z M547.77,246.441
				c0.365,0,0.549-0.183,0.549-0.547v-18.703c0-0.364-0.184-0.547-0.549-0.547h-17.545c-0.438,0-0.658,0.183-0.658,0.547v18.703
				c0,0.364,0.22,0.547,0.658,0.547H547.77z M531.87,231.347c-0.586-0.072-0.915-0.438-0.987-1.094
				c0.072-0.656,0.401-1.021,0.987-1.094h14.036c0.73,0,1.097,0.365,1.097,1.094c-0.073,0.656-0.438,1.021-1.097,1.094h-5.922v3.172
				h5.483c0.658,0.073,1.022,0.401,1.097,0.984c0,0.656-0.367,1.021-1.097,1.094h-5.483v4.703h6.36
				c0.658,0.073,1.023,0.438,1.097,1.094c-0.073,0.656-0.438,1.021-1.097,1.094H531.65c-0.657-0.072-1.024-0.438-1.096-1.094
				c0.071-0.656,0.438-1.021,1.096-1.094h5.922v-4.703h-5.044c-0.658-0.072-1.024-0.438-1.097-1.094
				c0.072-0.583,0.438-0.911,1.097-0.984h5.044v-3.172H531.87z M545.138,240.644c-0.438,0.438-0.915,0.438-1.426,0
				c-0.95-0.947-1.608-1.567-1.974-1.859c-0.366-0.438-0.366-0.875,0-1.313c0.365-0.364,0.804-0.364,1.316,0
				c0.219,0.146,0.584,0.438,1.097,0.875c0.584,0.511,0.949,0.839,1.096,0.984C545.54,239.697,545.503,240.135,545.138,240.644z"/>
		</g>
	</g>
	<g>
		<g>
			<path class="st2" d="M707.152,246.086v-18.266l-2.851,1.641c-0.878,0.438-1.464,0.256-1.755-0.547
				c-0.367-0.656-0.074-1.275,0.877-1.859l4.058-2.188c1.388-0.51,2.12-0.036,2.193,1.422v19.797c0,1.094-0.403,1.604-1.206,1.531
				C707.591,247.69,707.152,247.18,707.152,246.086z"/>
			<path class="st2" d="M727.827,242.367h-7.896c-1.096-0.072-1.682-0.583-1.754-1.531c0-0.51,0.255-1.166,0.768-1.969l7.676-12.578
				c0.658-1.094,1.352-1.641,2.084-1.641c1.168-0.072,1.717,0.729,1.645,2.406v12.906h0.986c0.949-0.072,1.389,0.328,1.316,1.203
				c0.072,0.875-0.367,1.276-1.316,1.203h-0.986v3.938c0.072,0.947-0.329,1.385-1.207,1.313c-0.877,0-1.315-0.438-1.315-1.313
				V242.367z M721.028,239.961h6.799v-11.047L721.028,239.961z"/>
		</g>
	</g>
	<g>
		<g>
			<path class="st1" d="M499.959,307.462c-0.293-0.292-0.438-1.021-0.438-2.188v-21.219c0.072-0.875,0.511-1.349,1.316-1.422
				c0.804,0.073,1.242,0.547,1.315,1.422v7h6.141c0.73,0.073,1.133,0.475,1.207,1.203c-0.074,0.803-0.477,1.24-1.207,1.313h-6.141
				v10.5c0,0.438,0.22,0.62,0.658,0.547c0.438-0.219,1.097-0.547,1.974-0.984c1.169-0.51,2.084-0.911,2.741-1.203
				c0.949-0.219,1.498,0.037,1.646,0.766c0.219,0.803-0.074,1.422-0.878,1.859c-0.877,0.365-2.121,0.875-3.728,1.531
				c-1.025,0.438-1.793,0.766-2.304,0.984C501.091,308.081,500.324,308.045,499.959,307.462z M514.982,308.227
				c-2.632,0.072-3.911-1.24-3.838-3.938v-20.672c0.072-0.802,0.511-1.239,1.315-1.313c0.804,0.073,1.242,0.511,1.316,1.313v9.734
				c2.412-1.75,4.825-3.864,7.237-6.344c0.729-0.583,1.388-0.619,1.974-0.109c0.511,0.511,0.549,1.131,0.11,1.859
				c-2.486,2.479-5.593,5.068-9.321,7.766v7.109c0,1.386,0.729,2.078,2.193,2.078h2.741c1.388,0,2.155-0.692,2.303-2.078
				c0.146-0.51,0.291-1.422,0.438-2.734c0-0.072,0-0.146,0-0.219c0.146-0.802,0.62-1.166,1.426-1.094
				c0.729,0.146,1.133,0.693,1.206,1.641c0,0.219-0.037,0.547-0.109,0.984c-0.22,1.313-0.402,2.261-0.549,2.844
				c-0.438,2.114-1.828,3.172-4.167,3.172H514.982z"/>
			<path class="st1" d="M527.264,286.899c-0.806-0.072-1.28-0.438-1.426-1.094c0.072-0.729,0.401-1.13,0.987-1.203
				c1.974-0.146,5.373-0.474,10.198-0.984c0.657-0.072,1.132-0.109,1.425-0.109c0.804,0.073,1.278,0.401,1.426,0.984
				c-0.073,0.803-0.477,1.24-1.206,1.313c-0.293,0-0.806,0.037-1.535,0.109c-1.244,0.146-2.193,0.256-2.852,0.328v4.594h5.045
				c0.729,0.073,1.132,0.475,1.206,1.203c-0.074,0.729-0.477,1.131-1.206,1.203h-5.045v2.844c0.585-0.438,1.169-0.4,1.755,0.109
				c0.072,0.073,0.255,0.219,0.548,0.438c1.607,1.459,2.704,2.406,3.29,2.844c0.511,0.584,0.549,1.167,0.109,1.75
				c-0.586,0.511-1.206,0.547-1.863,0.109c-1.244-1.239-2.522-2.406-3.839-3.5v10.281c-0.073,0.729-0.476,1.13-1.206,1.203
				c-0.805-0.073-1.244-0.475-1.315-1.203v-10.719c-0.951,2.188-2.303,4.229-4.058,6.125c-0.586,0.511-1.244,0.511-1.974,0
				c-0.438-0.802-0.403-1.531,0.109-2.188c2.484-2.188,4.387-4.885,5.702-8.094h-4.935c-0.658-0.072-1.024-0.474-1.097-1.203
				c0.072-0.729,0.438-1.13,1.097-1.203h5.154v-4.375c-0.951,0.146-2.231,0.292-3.838,0.438
				C527.629,286.899,527.41,286.899,527.264,286.899z M542.835,302.759c-0.731-0.072-1.134-0.51-1.206-1.313v-15.094
				c0.072-0.729,0.475-1.13,1.206-1.203c0.729,0.073,1.133,0.475,1.206,1.203v15.094
				C543.968,302.249,543.565,302.686,542.835,302.759z M543.712,308.446c-0.877-0.146-1.354-0.584-1.425-1.313
				c0-0.803,0.4-1.24,1.206-1.313c1.168,0,2.193,0,3.07,0c1.242,0.072,1.826-0.547,1.755-1.859v-20.453
				c0.071-0.729,0.475-1.13,1.206-1.203c0.804,0.073,1.242,0.475,1.315,1.203v21.219c0.072,2.333-1.061,3.536-3.399,3.609
				C545.613,308.337,544.371,308.373,543.712,308.446z"/>
			<path class="st1" d="M556.213,305.384c-0.877-0.072-1.354-0.547-1.426-1.422v-17.828c0.072-0.947,0.549-1.422,1.426-1.422h6.58
				c0.949,0,1.425,0.475,1.425,1.422v17.828c0,0.875-0.476,1.35-1.425,1.422H556.213z M557.201,287.446v6.453h4.715v-6.344
				c0-0.364-0.183-0.547-0.548-0.547h-3.619C557.382,287.009,557.201,287.155,557.201,287.446z M561.368,303.087
				c0.365,0,0.548-0.182,0.548-0.547v-6.453h-4.715v6.453c0,0.365,0.182,0.547,0.548,0.547H561.368z M566.521,290.509
				c-0.731-0.072-1.134-0.474-1.206-1.203c0.072-0.729,0.475-1.13,1.206-1.203h8.006v-4.594c0.071-0.802,0.51-1.239,1.315-1.313
				c0.73,0.073,1.133,0.511,1.206,1.313v4.594h2.413c0.729,0.073,1.132,0.475,1.206,1.203c-0.074,0.729-0.477,1.131-1.206,1.203
				h-2.413v13.781c0.072,2.771-1.206,4.156-3.838,4.156c-1.17,0-2.412,0-3.729,0c-0.877,0-1.39-0.401-1.535-1.203
				c0.072-0.948,0.511-1.386,1.316-1.313c0.949,0,1.936,0,2.961,0c1.681,0.146,2.448-0.619,2.303-2.297v-13.125H566.521z
				 M570.798,299.915c-0.658,0.438-1.244,0.292-1.755-0.438c-0.219-0.51-0.695-1.385-1.426-2.625
				c-0.438-0.875-0.768-1.494-0.986-1.859c-0.293-0.729-0.184-1.239,0.329-1.531c0.657-0.291,1.242-0.182,1.754,0.328
				c0.146,0.219,0.329,0.511,0.549,0.875c0.949,1.678,1.606,2.881,1.974,3.609C571.675,298.93,571.528,299.477,570.798,299.915z"/>
		</g>
	</g>
	<g>
		<g>
			<path class="st2" d="M707.152,305.418v-18.266l-2.851,1.641c-0.878,0.438-1.464,0.256-1.755-0.547
				c-0.367-0.656-0.074-1.275,0.877-1.859l4.058-2.188c1.388-0.51,2.12-0.036,2.193,1.422v19.797c0,1.094-0.403,1.604-1.206,1.531
				C707.591,307.022,707.152,306.512,707.152,305.418z"/>
			<path class="st2" d="M724.099,305.418v-18.266l-2.852,1.641c-0.877,0.438-1.463,0.256-1.755-0.547
				c-0.366-0.656-0.073-1.275,0.878-1.859l4.057-2.188c1.389-0.51,2.119-0.036,2.193,1.422v19.797c0,1.094-0.402,1.604-1.206,1.531
				C724.537,307.022,724.099,306.512,724.099,305.418z"/>
		</g>
	</g>
	<g>
		<g>
			<path class="st1" d="M504.345,367.06c-2.998,0-4.496-1.422-4.496-4.266v-17.5c0.072-1.021,0.584-1.567,1.535-1.641h18.861
				c1.097,0,1.645,0.511,1.645,1.531v9.078c-0.073,1.021-0.622,1.568-1.645,1.641h-17.765v6.344
				c0.072,1.459,0.949,2.225,2.632,2.297h12.721c1.899,0.073,2.96-0.583,3.18-1.969c0.072-0.291,0.146-0.838,0.22-1.641
				c0.071-0.656,0.109-1.094,0.109-1.313c0.22-0.729,0.729-1.021,1.535-0.875c0.804,0.219,1.169,0.766,1.097,1.641
				c-0.147,1.021-0.367,2.188-0.658,3.5c-0.438,2.114-2.048,3.172-4.825,3.172H504.345z M502.481,346.717v6.781h7.019v-7.328h-6.36
				C502.701,346.17,502.481,346.352,502.481,346.717z M518.601,346.17h-6.47v7.328h6.47c0.364-0.072,0.584-0.291,0.657-0.656v-6.125
				C519.258,346.352,519.04,346.17,518.601,346.17z"/>
			<path class="st1" d="M526.715,345.513c-0.657-0.072-1.024-0.438-1.097-1.094c0.072-0.729,0.439-1.13,1.097-1.203h24.454
				c0.658,0.073,1.023,0.475,1.097,1.203c0,0.656-0.366,1.021-1.097,1.094h-7.786v3.938h5.813c1.097,0,1.645,0.511,1.645,1.531
				v14.547c-0.073,1.021-0.622,1.567-1.645,1.641h-20.287c-0.951-0.073-1.463-0.62-1.535-1.641v-14.547
				c0.072-0.947,0.584-1.458,1.535-1.531h5.702v-3.938H526.715z M532.966,360.826c-0.586,0.438-1.206,0.438-1.864,0
				c-0.438-0.656-0.402-1.275,0.109-1.859c2.193-1.677,3.326-4.083,3.399-7.219h-4.167c-0.366,0-0.548,0.183-0.548,0.547v11.922
				c0,0.365,0.182,0.547,0.548,0.547h17.217c0.438,0,0.658-0.182,0.658-0.547v-4.813c-0.22,0.365-0.622,0.547-1.207,0.547h-2.96
				c-2.268,0.073-3.364-0.984-3.29-3.172v-5.031h-3.729C537.133,355.54,535.744,358.566,532.966,360.826z M537.133,345.513v3.938
				h3.729v-3.938H537.133z M547.441,357.545c0.365,0,0.658,0.183,0.878,0.547v-5.797c0-0.364-0.22-0.547-0.658-0.547h-4.277v4.594
				c-0.073,0.875,0.475,1.276,1.646,1.203H547.441z"/>
		</g>
	</g>
	<g>
		<g>
			<path class="st2" d="M707.152,364.75v-18.266l-2.851,1.641c-0.878,0.438-1.464,0.256-1.755-0.547
				c-0.367-0.656-0.074-1.275,0.877-1.859l4.058-2.188c1.388-0.51,2.12-0.036,2.193,1.422v19.797c0,1.094-0.403,1.604-1.206,1.531
				C707.591,366.354,707.152,365.844,707.152,364.75z"/>
			<path class="st2" d="M724.099,364.75v-18.266l-2.852,1.641c-0.877,0.438-1.463,0.256-1.755-0.547
				c-0.366-0.656-0.073-1.275,0.878-1.859l4.057-2.188c1.389-0.51,2.119-0.036,2.193,1.422v19.797c0,1.094-0.402,1.604-1.206,1.531
				C724.537,366.354,724.099,365.844,724.099,364.75z"/>
		</g>
	</g>
	<g>
		<g>
			<path class="st1" d="M497.656,417.909c-0.366-0.51-0.293-1.166,0.22-1.969c1.974-2.114,3.654-4.666,5.044-7.656
				c0.365-0.729,0.949-0.984,1.755-0.766c0.658,0.365,0.84,0.912,0.548,1.641c-0.219,0.438-0.548,1.058-0.986,1.859
				c-0.367,0.656-0.622,1.167-0.768,1.531v13.891c-0.074,0.729-0.513,1.13-1.316,1.203c-0.731-0.073-1.134-0.475-1.206-1.203V416.05
				c-0.293,0.438-0.658,0.875-1.097,1.313C499.191,418.238,498.46,418.42,497.656,417.909z M499.191,405.769
				c-0.657-0.072-1.024-0.438-1.097-1.094c0.072-0.729,0.439-1.13,1.097-1.203h6.142v-1.422c0.071-0.802,0.475-1.239,1.206-1.313
				c0.804,0.073,1.242,0.511,1.315,1.313v1.422h6.689v-1.422c0.072-0.802,0.511-1.239,1.315-1.313
				c0.73,0.073,1.133,0.511,1.207,1.313v1.422h6.141c0.658,0.073,1.022,0.475,1.097,1.203c-0.074,0.656-0.438,1.021-1.097,1.094
				h-6.141v0.766c-0.074,0.729-0.477,1.131-1.207,1.203c-0.805-0.072-1.243-0.474-1.315-1.203v-0.766h-6.689v0.766
				c-0.073,0.803-0.512,1.24-1.315,1.313c-0.731-0.072-1.135-0.51-1.206-1.313v-0.766H499.191z M506.757,411.128
				c-0.657-0.072-1.024-0.438-1.097-1.094c0.072-0.729,0.439-1.094,1.097-1.094h16.34c0.657,0.073,1.022,0.438,1.096,1.094
				c-0.073,0.656-0.438,1.021-1.096,1.094h-1.755v11.922c0.146,2.771-1.097,4.083-3.729,3.938c-0.513,0.072-1.573,0.109-3.18,0.109
				c-0.732,0-1.171-0.365-1.316-1.094c0-0.803,0.329-1.203,0.987-1.203c0.877,0,1.717,0,2.521,0
				c1.682,0.146,2.449-0.547,2.304-2.078v-11.594H506.757z M508.074,422.066c-0.877,0-1.316-0.438-1.316-1.313v-5.688
				c0-0.875,0.439-1.275,1.316-1.203h6.36c0.877,0,1.315,0.401,1.315,1.203v5.688c0,0.875-0.438,1.313-1.315,1.313H508.074z
				 M513.667,419.55v-3.281c0-0.364-0.184-0.547-0.549-0.547h-3.728c-0.219,0-0.366,0.183-0.438,0.547v3.281
				c0.072,0.365,0.22,0.547,0.438,0.547h3.728C513.483,420.097,513.667,419.915,513.667,419.55z"/>
			<path class="st1" d="M526.826,425.675c-0.806-0.073-1.244-0.475-1.316-1.203c0.072-0.802,0.511-1.239,1.316-1.313h24.344
				c0.804,0.073,1.242,0.511,1.316,1.313c-0.074,0.729-0.513,1.13-1.316,1.203H526.826z M535.927,406.534
				c-0.074,0-0.11,0.037-0.11,0.109c-0.073,0.073-0.219,0.109-0.438,0.109h5.264c0.658-0.875,1.864-2.516,3.619-4.922
				c0.511-0.729,1.206-0.947,2.083-0.656c0.658,0.511,0.804,1.094,0.438,1.75c-0.877,1.021-1.901,2.297-3.07,3.828h6.47
				c0.804,0.073,1.243,0.475,1.316,1.203c-0.073,0.803-0.513,1.24-1.316,1.313h-22.479c-0.731-0.072-1.134-0.51-1.206-1.313
				c0.072-0.729,0.475-1.13,1.206-1.203h7.347c-0.293,0-0.657-0.219-1.096-0.656c-0.658-0.947-1.5-2.005-2.522-3.172
				c-0.367-0.583-0.257-1.13,0.329-1.641c0.804-0.291,1.461-0.182,1.974,0.328c1.022,1.167,1.864,2.225,2.522,3.172
				C536.766,405.368,536.657,405.951,535.927,406.534z M529.676,417.363c-0.805-0.072-1.244-0.474-1.315-1.203
				c0.071-0.802,0.511-1.239,1.315-1.313h18.643c0.729,0.073,1.132,0.511,1.206,1.313c-0.074,0.729-0.477,1.131-1.206,1.203H529.676
				z"/>
		</g>
	</g>
	<g>
		<g>
			<path class="st2" d="M707.152,424.082v-18.266l-2.851,1.641c-0.878,0.438-1.464,0.256-1.755-0.547
				c-0.367-0.656-0.074-1.275,0.877-1.859l4.058-2.188c1.388-0.51,2.12-0.036,2.193,1.422v19.797c0,1.094-0.403,1.604-1.206,1.531
				C707.591,425.685,707.152,425.176,707.152,424.082z"/>
			<path class="st2" d="M725.415,402.644c4.458,0.219,6.799,4.047,7.019,11.484c-0.148,7.584-2.486,11.411-7.019,11.484
				c-4.534-0.219-6.837-4.047-6.909-11.484C718.652,406.619,720.955,402.791,725.415,402.644z M725.415,405.051
				c-2.779,0.146-4.241,3.172-4.387,9.078c0.072,5.834,1.536,8.859,4.387,9.078c2.923-0.146,4.423-3.172,4.495-9.078
				C729.763,408.296,728.265,405.269,725.415,405.051z"/>
		</g>
	</g>
	<g>
		<g>
			<path class="st1" d="M501.933,482.976c-1.244,0.438-2.048,0.364-2.413-0.219c-0.219-0.364-0.329-1.021-0.329-1.969v-17.063
				c0-0.875,0.439-1.385,1.316-1.531c2.119-0.364,4.678-0.947,7.676-1.75c0.804-0.072,1.352,0.219,1.645,0.875
				c0.146,0.729-0.109,1.24-0.768,1.531c-0.293,0.073-0.731,0.183-1.315,0.328c-2.56,0.584-4.314,0.948-5.264,1.094
				c-0.438,0.073-0.695,0.365-0.768,0.875v5.031h6.689c0.729,0.073,1.132,0.475,1.206,1.203c-0.074,0.729-0.477,1.131-1.206,1.203
				h-6.689v7.219c0,0.292,0.182,0.438,0.548,0.438c0.73-0.219,1.791-0.547,3.181-0.984c1.315-0.51,2.265-0.838,2.851-0.984
				c0.878-0.219,1.462,0.037,1.755,0.766c0.072,0.875-0.329,1.459-1.206,1.75C505.842,481.81,503.54,482.539,501.933,482.976z
				 M512.57,487.133c-0.806-0.073-1.244-0.511-1.316-1.313v-22.094c0.072-0.947,0.585-1.458,1.535-1.531h8.554
				c0.949,0.073,1.462,0.584,1.535,1.531v14.766c0.072,2.334-1.097,3.573-3.509,3.719c-0.586,0-1.426,0-2.522,0
				c-0.951-0.072-1.499-0.51-1.645-1.313c0.071-0.802,0.475-1.239,1.206-1.313c0.729,0,1.388,0,1.974,0
				c1.388,0.073,2.046-0.51,1.974-1.75v-12.578c0-0.438-0.219-0.656-0.657-0.656h-5.154c-0.438,0-0.658,0.219-0.658,0.656v20.563
				C513.812,486.622,513.374,487.059,512.57,487.133z"/>
			<path class="st1" d="M526.277,486.695c-0.586-0.365-0.768-0.984-0.548-1.859c1.022-1.822,1.681-3.536,1.974-5.141
				c0.291-1.677,0.438-4.192,0.438-7.547v-7.766c0-0.947,0.511-1.422,1.535-1.422h9.54c-0.073-0.291-0.183-0.692-0.328-1.203
				c-0.074-0.219-0.11-0.364-0.11-0.438c-0.147-0.729,0.22-1.203,1.097-1.422c0.878-0.072,1.426,0.219,1.646,0.875
				c0.071,0.219,0.182,0.62,0.328,1.203c0.072,0.438,0.146,0.766,0.22,0.984h9.102c0.658,0.073,1.023,0.438,1.097,1.094
				c-0.073,0.584-0.438,0.912-1.097,0.984h-20.067c-0.366,0-0.548,0.219-0.548,0.656v2.297l0.219-0.109
				c0.22-0.146,0.401-0.219,0.549-0.219h3.618v-1.313c0.072-0.729,0.475-1.13,1.206-1.203c0.73,0.073,1.133,0.475,1.207,1.203v1.313
				h7.456v-1.313c0.072-0.656,0.438-1.021,1.097-1.094c0.804,0,1.206,0.365,1.206,1.094v1.313h3.948
				c0.658,0.073,1.022,0.438,1.097,1.094c-0.074,0.584-0.438,0.912-1.097,0.984h-3.948v2.734c-0.073,0.875-0.512,1.35-1.315,1.422
				h-9.54c-0.806-0.072-1.244-0.547-1.316-1.422v-2.734h-3.618c-0.22,0-0.477-0.072-0.768-0.219v2.953
				c0.146,6.125-0.696,10.646-2.522,13.563C527.665,486.767,527.081,486.986,526.277,486.695z M531.87,486.695
				c-0.877,0.219-1.463-0.037-1.755-0.766c-0.147-0.803,0.182-1.313,0.987-1.531c2.852-0.438,5.336-1.094,7.457-1.969
				c-1.975-1.239-3.547-2.734-4.716-4.484h-1.206c-0.586-0.072-0.915-0.438-0.987-1.094c0.072-0.583,0.401-0.911,0.987-0.984h15.353
				c0.657,0.073,1.022,0.438,1.097,1.094c0,0.656-0.293,1.276-0.878,1.859c-1.39,1.386-2.961,2.625-4.715,3.719
				c2.119,0.802,4.642,1.349,7.566,1.641c0.804,0.219,1.133,0.729,0.986,1.531c-0.219,0.729-0.805,0.984-1.754,0.766
				c-3.729-0.511-6.799-1.386-9.212-2.625C538.668,484.945,535.598,485.892,531.87,486.695z M536.584,477.945
				c1.169,1.313,2.632,2.443,4.387,3.391c1.755-0.875,3.252-1.859,4.496-2.953c0.22-0.291,0.182-0.438-0.109-0.438H536.584z
				 M544.261,472.148c0.365,0,0.548-0.182,0.548-0.547v-1.859h-7.456v1.75c0,0.438,0.182,0.656,0.548,0.656H544.261z"/>
		</g>
	</g>
	<g>
		<g>
			<path class="st2" d="M707.152,483.414v-18.266l-2.851,1.641c-0.878,0.438-1.464,0.256-1.755-0.547
				c-0.367-0.656-0.074-1.275,0.877-1.859l4.058-2.188c1.388-0.51,2.12-0.036,2.193,1.422v19.797c0,1.094-0.403,1.604-1.206,1.531
				C707.591,485.017,707.152,484.508,707.152,483.414z"/>
			<path class="st2" d="M725.415,461.976c4.458,0.219,6.799,4.047,7.019,11.484c-0.148,7.584-2.486,11.411-7.019,11.484
				c-4.534-0.219-6.837-4.047-6.909-11.484C718.652,465.951,720.955,462.123,725.415,461.976z M725.415,464.383
				c-2.779,0.146-4.241,3.172-4.387,9.078c0.072,5.834,1.536,8.859,4.387,9.078c2.923-0.146,4.423-3.172,4.495-9.078
				C729.763,467.628,728.265,464.601,725.415,464.383z"/>
		</g>
	</g>
	<line class="st3" x1="419.227" y1="2" x2="419.227" y2="522.851"/>
</g>
</svg>