<!-- Generator: Adobe Illustrator 24.0.1, SVG Export Plug-In  -->
<svg version="1.1" xmlns="http://www.w3.org/2000/svg" xmlns:xlink="http://www.w3.org/1999/xlink" x="0px" y="0px"
	 width="408.616px" height="93.11px" viewBox="0 0 408.616 93.11" style="enable-background:new 0 0 408.616 93.11;"
	 xml:space="preserve">
<style type="text/css">
	.st0{fill:#BF2222;}
	.st1{fill:none;}
	.st2{font-family:'HYQiuShi-W';}
	.st3{font-size:72px;}
</style>
<defs>
</defs>
<g>
	<g>
		<path class="st0" d="M31.723,26.1c1.008,0.072,1.968,0.108,2.88,0.108c0.96,0,1.824-0.18,2.592-0.54
			c0.767-0.36,1.271-0.684,1.512-0.972c1.824,0,3.323,0.313,4.5,0.936c1.176,0.624,1.764,1.848,1.764,3.672
			c0,0.529-0.084,1.285-0.252,2.268c-0.169,0.984-0.252,2.124-0.252,3.42v18.936c1.104-0.672,2.171-1.368,3.204-2.088
			c1.032-0.72,2.027-1.44,2.988-2.16c0,1.056-0.144,2.064-0.432,3.024c-0.288,0.961-0.673,1.849-1.152,2.664
			c-0.432,0.72-0.984,1.561-1.656,2.52c-0.672,0.961-1.416,1.848-2.232,2.664c-0.816,0.815-1.656,1.512-2.52,2.088
			c-0.864,0.576-1.681,0.864-2.448,0.864c-0.529,0-1.057-0.097-1.584-0.288c-0.529-0.192-1.021-0.48-1.476-0.864
			c-0.457-0.385-0.828-0.9-1.116-1.548c-0.288-0.648-0.432-1.428-0.432-2.34c0.432-0.24,0.803-0.551,1.116-0.936
			c0.312-0.384,0.468-0.936,0.468-1.656V29.376c-1.152,0.049-2.137,0.133-2.952,0.252c-0.817,0.12-1.561,0.18-2.232,0.18
			c-1.008,0-1.692-0.36-2.052-1.08c-0.36-0.72-0.54-1.728-0.54-3.024C29.947,25.896,30.716,26.028,31.723,26.1z M37.267,13.464
			c-0.385-1.008-0.828-2.076-1.332-3.204c-0.504-1.127-1.069-2.147-1.692-3.06c3.071,0,5.699,0.637,7.884,1.908
			c2.184,1.272,3.611,3.204,4.284,5.796c0.335,1.249,0.227,2.412-0.324,3.492c-0.552,1.08-1.38,1.764-2.484,2.052
			c-1.104,0.288-2.148,0.108-3.132-0.54c-0.984-0.648-1.668-1.595-2.052-2.844C38.083,15.865,37.699,14.665,37.267,13.464z
			 M80.431,28.476c-0.745,0.216-1.62,0.324-2.628,0.324H60.811c-0.192-0.576-0.601-1.032-1.224-1.368
			c-0.624-0.335-1.56-0.504-2.808-0.504h-3.456c0,0.529-0.121,1.224-0.36,2.088c-0.241,0.864-0.588,1.836-1.044,2.916
			c-0.457,1.08-0.997,2.208-1.62,3.384c-0.625,1.177-1.321,2.292-2.088,3.348c1.824,0,3.323-0.216,4.5-0.648
			c1.176-0.432,2.292-0.983,3.348-1.656c0.815-0.576,1.572-1.26,2.268-2.052c0.695-0.792,1.26-1.595,1.692-2.412h5.688v8.352H54.331
			c-0.529,0-1.092-0.011-1.692-0.036c-0.601-0.024-1.188-0.06-1.764-0.108c-0.576-0.047-1.104-0.095-1.584-0.144
			c-0.48-0.047-0.864-0.119-1.152-0.216c0,2.401,0.695,3.6,2.088,3.6h15.48v16.704h-6.912V54.36c0-1.824,0.083-3.179,0.252-4.068
			c0.167-0.887,0.252-1.595,0.252-2.124c0-1.008-0.409-1.775-1.224-2.304c-0.817-0.528-1.728-0.792-2.736-0.792
			c-1.057,0-1.908,0.108-2.556,0.324c-0.648,0.216-1.357,0.468-2.124,0.756c0.384,0.672,0.659,1.429,0.828,2.268
			c0.167,0.84,0.252,1.789,0.252,2.844v4.104c0,1.057-0.121,1.969-0.36,2.736c-0.241,0.769-0.48,1.417-0.72,1.944
			c0.144,0.768,0.443,1.427,0.9,1.98c0.456,0.551,1.02,1.019,1.692,1.404c0.672,0.384,1.428,0.672,2.268,0.864
			c0.839,0.191,1.692,0.288,2.556,0.288c0.815-0.528,1.751-0.912,2.808-1.152c1.055-0.241,2.351-0.36,3.888-0.36h15.408
			c0.384,0.527,0.888,0.972,1.512,1.332c0.624,0.36,1.392,0.54,2.304,0.54c1.152,0,1.968-0.36,2.448-1.08
			c0.479-0.72,0.72-1.705,0.72-2.952v-6.48c0-1.824,0.096-3.179,0.288-4.068c0.191-0.888,0.288-1.595,0.288-2.124
			c0-1.008-0.288-1.775-0.864-2.304c-0.576-0.527-1.512-0.792-2.808-0.792c-0.96,0-1.836,0.108-2.628,0.324
			c-0.792,0.216-1.573,0.468-2.34,0.756c0.672,1.296,1.008,3,1.008,5.112v5.4c0,1.44-0.192,2.544-0.576,3.312h-6.696V43.344h16.344
			c0.767,0,1.296-0.132,1.584-0.396c0.288-0.263,0.432-0.659,0.432-1.188c0-0.384-0.169-0.731-0.504-1.044
			c-0.336-0.312-0.756-0.576-1.26-0.792c-0.504-0.216-1.057-0.384-1.656-0.504c-0.601-0.12-1.164-0.18-1.692-0.18
			c-0.241,0.241-0.732,0.468-1.476,0.684c-0.745,0.216-1.62,0.324-2.628,0.324h-9.144v-8.352h12.168c0.768,0,1.296-0.119,1.584-0.36
			c0.288-0.24,0.432-0.623,0.432-1.152c0-0.384-0.168-0.744-0.504-1.08c-0.336-0.335-0.756-0.612-1.26-0.828
			c-0.504-0.216-1.057-0.383-1.656-0.504c-0.601-0.119-1.165-0.18-1.692-0.18C81.667,28.033,81.175,28.26,80.431,28.476z
			 M62.827,13.788c2.448-0.072,4.835-0.167,7.164-0.288c2.328-0.119,4.523-0.299,6.588-0.54c2.063-0.239,3.863-0.527,5.4-0.864
			c1.536-0.335,2.76-0.731,3.672-1.188c0.911-0.456,1.368-0.996,1.368-1.62c0-1.055-0.732-1.751-2.196-2.088
			c-1.465-0.335-3.636-0.504-6.516-0.504c-1.056,0.529-2.712,1.044-4.968,1.548c-2.257,0.504-4.777,0.972-7.56,1.404
			c-2.785,0.432-5.665,0.828-8.64,1.188c-2.977,0.36-5.688,0.684-8.136,0.972c0.288,0.432,0.695,0.781,1.224,1.044
			c0.528,0.265,1.104,0.48,1.728,0.648c0.624,0.169,1.26,0.277,1.908,0.324c0.648,0.048,1.26,0.072,1.836,0.072
			C58.003,13.896,60.379,13.86,62.827,13.788z M51.811,20.088c-0.336-0.768-0.708-1.584-1.116-2.448
			c-0.409-0.864-0.805-1.631-1.188-2.304c1.296,0,2.531,0.084,3.708,0.252c1.175,0.168,2.255,0.468,3.24,0.9
			c0.983,0.432,1.824,0.997,2.52,1.692c0.695,0.696,1.188,1.548,1.476,2.556c0.288,1.104,0.216,2.148-0.216,3.132
			c-0.432,0.984-1.201,1.62-2.304,1.908c-1.105,0.288-2.136,0.144-3.096-0.432c-0.96-0.576-1.584-1.416-1.872-2.52
			C52.579,21.865,52.195,20.952,51.811,20.088z M66.535,25.92c-0.792-0.72-1.236-1.631-1.332-2.736
			c-0.097-1.248-0.205-2.603-0.324-4.068c-0.12-1.464-0.444-2.916-0.972-4.356c2.543,0.241,4.631,1.044,6.264,2.412
			c1.631,1.368,2.567,3.132,2.808,5.292c0.096,1.104-0.192,2.088-0.864,2.952c-0.673,0.864-1.584,1.345-2.736,1.44
			C68.275,26.953,67.327,26.64,66.535,25.92z M79.531,16.344c-0.241,1.008-0.565,2.113-0.972,3.312
			c-0.408,1.2-0.9,2.448-1.476,3.744c-0.576,1.296-1.224,2.544-1.944,3.744c1.296,0,2.664-0.312,4.104-0.936
			c1.44-0.623,2.772-1.427,3.996-2.412c1.224-0.983,2.243-2.04,3.06-3.168c0.815-1.127,1.224-2.196,1.224-3.204
			c0-1.343-0.732-2.279-2.196-2.808c-1.465-0.528-3.276-0.792-5.436-0.792C79.891,14.497,79.771,15.336,79.531,16.344z"/>
		<path class="st0" d="M103.508,14.4c0.527,0.144,1.427,0.264,2.7,0.36c1.271,0.097,2.436,0.144,3.492,0.144h19.656
			c-0.768-0.864-1.152-1.896-1.152-3.096c-0.048-0.959-0.121-1.872-0.216-2.736c-0.097-0.72-0.205-1.451-0.324-2.196
			c-0.12-0.743-0.277-1.355-0.468-1.836c1.872,0,3.467,0.169,4.788,0.504c1.32,0.336,2.376,0.816,3.168,1.44
			c0.792,0.624,1.368,1.344,1.728,2.16c0.36,0.817,0.54,1.681,0.54,2.592c0,0.336-0.048,0.696-0.144,1.08
			c-0.097,0.336-0.205,0.684-0.324,1.044c-0.121,0.36-0.3,0.708-0.54,1.044h12.384c1.536,0,2.88-0.108,4.032-0.324
			c1.152-0.216,1.847-0.443,2.088-0.684c0.768,0,1.523,0.084,2.268,0.252c0.744,0.168,1.404,0.396,1.98,0.684
			c0.576,0.288,1.044,0.625,1.404,1.008c0.36,0.385,0.54,0.768,0.54,1.152c0,0.529-0.144,0.913-0.432,1.152
			c-0.288,0.241-0.84,0.36-1.656,0.36c-0.385,0-0.792-0.024-1.224-0.072c-0.432-0.047-1.02-0.108-1.764-0.18
			c-0.745-0.072-1.692-0.131-2.844-0.18c-1.152-0.047-2.617-0.072-4.392-0.072H115.82c-1.537,0-2.833,0.025-3.888,0.072
			c-1.057,0.048-1.957,0.108-2.7,0.18c-0.745,0.072-1.356,0.133-1.836,0.18c-0.48,0.048-0.912,0.072-1.296,0.072
			c-1.056,0-1.753-0.36-2.088-1.08C103.675,16.704,103.508,15.696,103.508,14.4z M150.307,32.184c0.528,0,1.091,0.061,1.692,0.18
			c0.6,0.12,1.152,0.3,1.656,0.54c0.504,0.241,0.923,0.516,1.26,0.828c0.335,0.313,0.504,0.66,0.504,1.044
			c0,0.529-0.144,0.925-0.432,1.188c-0.288,0.264-0.817,0.396-1.584,0.396h-42.696c-1.393,0-2.088-1.199-2.088-3.6
			c0.288,0.097,0.671,0.168,1.152,0.216c0.479,0.048,1.008,0.097,1.584,0.144c0.576,0.048,1.164,0.084,1.764,0.108
			c0.6,0.025,1.163,0.036,1.692,0.036h31.392c1.008,0,1.883-0.108,2.628-0.324C149.575,32.724,150.067,32.472,150.307,32.184z
			 M150.307,23.112c0.528,0,1.091,0.061,1.692,0.18c0.6,0.121,1.152,0.301,1.656,0.54c0.504,0.241,0.923,0.517,1.26,0.828
			c0.335,0.313,0.504,0.661,0.504,1.044c0,0.529-0.144,0.925-0.432,1.188c-0.288,0.265-0.817,0.396-1.584,0.396h-42.192
			c-0.768,0-1.296-0.288-1.584-0.864c-0.288-0.576-0.432-1.487-0.432-2.736c0.239,0.097,0.6,0.169,1.08,0.216
			c0.479,0.048,1.008,0.097,1.584,0.144c0.576,0.048,1.164,0.084,1.764,0.108c0.6,0.025,1.164,0.036,1.692,0.036h30.888
			c1.008,0,1.883-0.108,2.628-0.324C149.575,23.652,150.067,23.4,150.307,23.112z M115.171,65.736c-1.632,0-2.892-0.504-3.78-1.512
			c-0.889-1.008-1.452-2.016-1.692-3.024c0.24-0.24,0.443-0.731,0.612-1.476c0.167-0.744,0.252-1.62,0.252-2.628v-9.792
			c0-1.008-0.061-1.944-0.18-2.808c-0.121-0.864-0.349-1.631-0.684-2.304c0.671-0.384,1.44-0.66,2.304-0.828
			c0.864-0.167,1.752-0.252,2.664-0.252c0.624,0,1.284,0.133,1.98,0.396c0.695,0.264,1.235,0.66,1.62,1.188h21.456
			c1.536,0,2.916-0.132,4.14-0.396c1.224-0.263,2.243-0.659,3.06-1.188c0.767,0,1.595,0.072,2.484,0.216
			c0.888,0.144,1.703,0.396,2.448,0.756c0.744,0.36,1.356,0.841,1.836,1.44c0.479,0.601,0.72,1.356,0.72,2.268
			c0,0.529-0.084,1.285-0.252,2.268c-0.169,0.984-0.252,2.101-0.252,3.348v10.224c0,1.055-0.3,2.003-0.9,2.844
			c-0.601,0.839-1.501,1.26-2.7,1.26c-1.296,0-2.34-0.313-3.132-0.936c-0.792-0.625-1.404-1.344-1.836-2.16h-27.072
			C118.027,64.704,116.995,65.736,115.171,65.736z M145.915,45.792h-27.288c-0.097,0.529-0.168,1.152-0.216,1.872
			c-0.048,0.72-0.072,1.632-0.072,2.736v9.288h27.072c0.144-0.527,0.263-1.091,0.36-1.692c0.096-0.6,0.144-1.235,0.144-1.908V45.792
			z"/>
		<path class="st0" d="M209.851,26.136c-1.104,1.393-2.28,2.556-3.528,3.492c-1.249,0.936-2.736,1.476-4.464,1.62v28.296
			c0,1.2-0.324,2.171-0.972,2.916c-0.648,0.744-1.524,1.116-2.628,1.116c-1.057,0-1.92-0.313-2.592-0.936
			c-0.673-0.625-1.2-1.344-1.584-2.16h-8.712v0.576c0,1.248-0.288,2.256-0.864,3.024c-0.576,0.768-1.417,1.152-2.52,1.152
			c-0.72,0-1.345-0.144-1.872-0.432c-0.529-0.288-0.984-0.661-1.368-1.116c-0.385-0.457-0.696-0.948-0.936-1.476
			c-0.241-0.528-0.432-1.031-0.576-1.512c0.239-0.24,0.456-0.731,0.648-1.476c0.191-0.744,0.288-1.62,0.288-2.628v-33.48
			c0-1.008-0.061-1.944-0.18-2.808c-0.121-0.864-0.373-1.631-0.756-2.304c0.767-0.288,1.512-0.527,2.232-0.72
			c0.72-0.191,1.559-0.288,2.52-0.288c1.055,0,1.967,0.264,2.736,0.792c0.191-0.815,0.371-1.751,0.54-2.808
			c0.167-1.055,0.299-2.124,0.396-3.204c0.096-1.08,0.167-2.111,0.216-3.096c0.047-0.983,0.072-1.812,0.072-2.484
			c1.728,0,3.143,0.061,4.248,0.18c1.104,0.121,1.991,0.288,2.664,0.504c0.672,0.216,1.14,0.48,1.404,0.792
			c0.263,0.313,0.396,0.661,0.396,1.044c0,0.576-0.108,1.249-0.324,2.016c-0.216,0.769-0.504,1.561-0.864,2.376
			c-0.36,0.817-0.792,1.645-1.296,2.484c-0.504,0.84-1.021,1.596-1.548,2.268c2.16-0.239,3.816-0.743,4.968-1.512
			c0.767,0,1.559,0.072,2.376,0.216c0.815,0.144,1.548,0.396,2.196,0.756c0.648,0.36,1.188,0.84,1.62,1.44
			c0.432,0.601,0.648,1.356,0.648,2.268c0,0.528-0.097,1.285-0.288,2.268c-0.192,0.984-0.288,2.101-0.288,3.348v3.024
			c0.96-1.631,1.908-3.6,2.844-5.904c0.936-2.304,1.788-4.583,2.556-6.84c0.767-2.256,1.379-4.32,1.836-6.192
			c0.456-1.872,0.684-3.24,0.684-4.104h3.672c1.44,0,2.484,0.252,3.132,0.756c0.648,0.504,0.972,1.26,0.972,2.268
			c0,0.864-0.241,1.98-0.72,3.348c-0.48,1.368-1.056,2.797-1.728,4.284h2.592c1.536,0,2.916-0.119,4.14-0.36
			c1.224-0.24,2.243-0.624,3.06-1.152c0.768,0,1.548,0.072,2.34,0.216s1.512,0.396,2.16,0.756c0.648,0.36,1.176,0.828,1.584,1.404
			c0.407,0.576,0.612,1.321,0.612,2.232c0,0.529-0.084,1.285-0.252,2.268c-0.169,0.984-0.252,2.101-0.252,3.348L230.587,57.6
			c0,1.008-0.156,1.969-0.468,2.88c-0.313,0.912-0.792,1.728-1.44,2.448s-1.453,1.284-2.412,1.692
			c-0.961,0.407-2.113,0.612-3.456,0.612c-0.864-0.336-1.789-0.781-2.772-1.332c-0.984-0.553-1.969-1.165-2.952-1.836
			c-0.984-0.672-1.884-1.392-2.7-2.16c-0.817-0.768-1.465-1.536-1.944-2.304c1.44,0.336,2.855,0.588,4.248,0.756
			c1.392,0.169,2.567,0.252,3.528,0.252c1.008,0,1.775-0.24,2.304-0.72c0.528-0.479,0.792-1.104,0.792-1.872l0.504-35.64h-10.296
			c-0.624,1.105-1.249,2.16-1.872,3.168C211.027,24.552,210.427,25.416,209.851,26.136z M185.371,36.936h9.216V21.024h-8.784
			c-0.097,0.528-0.192,1.2-0.288,2.016c-0.097,0.817-0.144,1.872-0.144,3.168V36.936z M194.156,57.384
			c0.096-0.528,0.191-1.08,0.288-1.656c0.095-0.576,0.144-1.175,0.144-1.8V39.96h-9.216v17.424H194.156z M210.283,41.976
			c-0.241-1.392-0.504-2.736-0.792-4.032c-0.241-1.104-0.552-2.292-0.936-3.564c-0.385-1.271-0.84-2.436-1.368-3.492
			c1.152,0.144,2.328,0.504,3.528,1.08c1.199,0.576,2.304,1.308,3.312,2.196c1.008,0.889,1.859,1.92,2.556,3.096
			c0.695,1.177,1.164,2.412,1.404,3.708c0.335,1.681,0.299,3.084-0.108,4.212c-0.408,1.128-1.164,1.813-2.268,2.052
			c-1.249,0.241-2.376-0.155-3.384-1.188C211.219,45.013,210.572,43.657,210.283,41.976z"/>
		<path class="st0" d="M280.555,61.92c0,1.296-0.336,2.304-1.008,3.024c-0.673,0.72-1.561,1.08-2.664,1.08
			c-0.961,0-1.764-0.144-2.412-0.432s-1.177-0.648-1.584-1.08c-0.409-0.432-0.732-0.925-0.972-1.476
			c-0.241-0.552-0.432-1.092-0.576-1.62c0.288-0.239,0.54-0.72,0.756-1.44c0.216-0.72,0.324-1.584,0.324-2.592V43.632
			c-1.537,2.448-3.324,4.741-5.364,6.876c-2.041,2.136-4.212,3.996-6.516,5.58c-2.304,1.584-4.68,2.82-7.128,3.708
			c-2.448,0.889-4.824,1.332-7.128,1.332c0.959-0.576,2.088-1.392,3.384-2.448c1.296-1.055,2.639-2.255,4.032-3.6
			c1.392-1.343,2.808-2.795,4.248-4.356c1.44-1.559,2.795-3.143,4.068-4.752c1.271-1.607,2.423-3.215,3.456-4.824
			c1.032-1.608,1.836-3.107,2.412-4.5h-7.344c-1.537,0-2.833,0.024-3.888,0.072c-1.057,0.048-1.957,0.108-2.7,0.18
			c-0.745,0.072-1.357,0.132-1.836,0.18c-0.48,0.048-0.913,0.072-1.296,0.072c-1.057,0-1.753-0.372-2.088-1.116
			c-0.336-0.744-0.504-1.739-0.504-2.988c0.528,0.144,1.428,0.264,2.7,0.36c1.271,0.097,2.436,0.144,3.492,0.144h18v-16.2h-17.928
			c-0.769,0-1.309-0.275-1.62-0.828c-0.313-0.551-0.468-1.476-0.468-2.772c0.527,0.192,1.427,0.324,2.7,0.396
			c1.271,0.072,2.436,0.108,3.492,0.108h13.824v-1.944c0-1.008-0.084-1.955-0.252-2.844c-0.168-0.888-0.444-1.644-0.828-2.268
			c0.864-0.288,1.764-0.528,2.7-0.72c0.936-0.191,1.908-0.288,2.916-0.288c1.055,0,2.004,0.192,2.844,0.576
			c0.839,0.385,1.26,1.224,1.26,2.52c0,0.241-0.025,0.493-0.072,0.756c-0.048,0.264-0.108,0.576-0.18,0.936
			c-0.072,0.36-0.133,0.805-0.18,1.332c-0.048,0.529-0.072,1.177-0.072,1.944h11.592c1.055,0,1.944-0.108,2.664-0.324
			c0.72-0.216,1.199-0.443,1.44-0.684c0.528,0,1.091,0.061,1.692,0.18c0.6,0.12,1.163,0.288,1.692,0.504
			c0.527,0.216,0.959,0.493,1.296,0.828c0.335,0.336,0.504,0.696,0.504,1.08c0,1.008-0.696,1.512-2.088,1.512h-18.792v16.2h12.096
			c1.535,0,2.88-0.108,4.032-0.324c1.152-0.216,1.847-0.468,2.088-0.756c0.768,0,1.523,0.097,2.268,0.288
			c0.744,0.192,1.404,0.432,1.98,0.72c0.576,0.288,1.044,0.612,1.404,0.972c0.36,0.36,0.54,0.732,0.54,1.116
			c0,0.529-0.144,0.925-0.432,1.188c-0.288,0.264-0.84,0.396-1.656,0.396c-0.385,0-0.792-0.024-1.224-0.072
			c-0.432-0.047-1.021-0.108-1.764-0.18c-0.745-0.072-1.692-0.132-2.844-0.18c-1.152-0.047-2.617-0.072-4.392-0.072h-9.288
			c0.72,1.2,1.644,2.473,2.772,3.816c1.127,1.344,2.363,2.664,3.708,3.96c1.343,1.296,2.747,2.532,4.212,3.708
			c1.463,1.177,2.891,2.208,4.284,3.096c1.392,0.889,2.688,1.597,3.888,2.124c1.199,0.529,2.208,0.792,3.024,0.792
			c0,4.273-2.088,6.408-6.264,6.408c-1.44,0-2.964-0.492-4.572-1.476c-1.609-0.983-3.216-2.279-4.824-3.888
			c-1.609-1.607-3.193-3.456-4.752-5.544c-1.561-2.088-2.988-4.212-4.284-6.372V61.92z M266.083,32.328
			c-0.96,0.288-1.992,0.097-3.096-0.576c-1.105-0.671-1.897-1.679-2.376-3.024c-0.385-1.104-0.889-2.363-1.512-3.78
			c-0.625-1.416-1.512-3.132-2.664-5.148c1.104,0,2.256,0.156,3.456,0.468c1.199,0.313,2.328,0.732,3.384,1.26
			c1.056,0.529,1.992,1.177,2.808,1.944c0.816,0.769,1.416,1.584,1.8,2.448c0.527,1.296,0.695,2.581,0.504,3.852
			C268.195,31.044,267.426,31.896,266.083,32.328z M282.716,32.4c0.864-1.056,1.679-2.22,2.448-3.492
			c0.767-1.271,1.44-2.52,2.016-3.744c0.576-1.224,1.032-2.363,1.368-3.42c0.335-1.055,0.504-1.896,0.504-2.52
			c2.16,0,3.899,0.265,5.22,0.792c1.32,0.529,1.98,1.465,1.98,2.808c0,1.104-0.408,2.232-1.224,3.384
			c-0.817,1.152-1.872,2.185-3.168,3.096c-1.296,0.913-2.748,1.656-4.356,2.232C285.895,32.112,284.3,32.4,282.716,32.4z"/>
		<path class="st0" d="M327.499,37.296c-1.249,0.432-2.388,0.372-3.42-0.18c-1.033-0.551-1.764-1.428-2.196-2.628
			c-0.192-0.576-0.396-1.271-0.612-2.088c-0.216-0.816-0.468-1.68-0.756-2.592c-0.288-0.911-0.612-1.824-0.972-2.736
			c-0.36-0.911-0.804-1.703-1.332-2.376c3.024,0,5.52,0.564,7.488,1.692c1.968,1.128,3.335,2.772,4.104,4.932
			c0.432,1.249,0.456,2.437,0.072,3.564C329.49,36.013,328.698,36.817,327.499,37.296z M319.291,53.856
			c0.528,0,1.235-0.335,2.124-1.008c0.888-0.671,1.86-1.656,2.916-2.952c1.055-1.296,2.171-2.891,3.348-4.788
			c1.176-1.896,2.315-4.092,3.42-6.588c0.432,2.064,0.563,4.489,0.396,7.272c-0.169,2.785-0.576,5.449-1.224,7.992
			c-0.648,2.545-1.5,4.705-2.556,6.48c-1.057,1.775-2.232,2.664-3.528,2.664c-0.673,0-1.308-0.241-1.908-0.72
			c-0.601-0.48-1.116-1.127-1.548-1.944c-0.432-0.815-0.781-1.775-1.044-2.88C319.423,56.281,319.291,55.105,319.291,53.856z
			 M330.019,21.456c-1.249,0.336-2.352,0.157-3.312-0.54c-0.96-0.695-1.632-1.667-2.016-2.916c-0.144-0.576-0.324-1.283-0.54-2.124
			c-0.216-0.839-0.468-1.703-0.756-2.592c-0.288-0.888-0.624-1.775-1.008-2.664c-0.385-0.888-0.84-1.692-1.368-2.412
			c3.024,0,5.58,0.648,7.668,1.944c2.088,1.296,3.467,3.144,4.14,5.544c0.335,1.249,0.263,2.437-0.216,3.564
			C332.131,20.389,331.267,21.121,330.019,21.456z M365.227,59.688c0,1.775-0.564,3.228-1.692,4.356
			c-1.128,1.127-2.604,1.692-4.428,1.692c-0.672-0.241-1.368-0.637-2.088-1.188c-0.72-0.553-1.417-1.188-2.088-1.908
			c-0.673-0.72-1.285-1.476-1.836-2.268c-0.552-0.792-0.997-1.548-1.332-2.268c0.623,0.192,1.284,0.324,1.98,0.396
			c0.695,0.072,1.307,0.108,1.836,0.108c1.008,0,1.692-0.168,2.052-0.504c0.36-0.335,0.54-1.008,0.54-2.016V40.32h-4.464
			c-0.192,0.673-0.504,1.177-0.936,1.512c-0.432,0.336-1.08,0.504-1.944,0.504c-0.72,0-1.357-0.144-1.908-0.432
			c-0.552-0.288-1.008-0.659-1.368-1.116c-0.36-0.456-0.648-0.947-0.864-1.476c-0.216-0.527-0.396-1.055-0.54-1.584
			c0.24-0.239,0.468-0.731,0.684-1.476c0.216-0.743,0.324-1.62,0.324-2.628v-9.792c0-2.111-0.336-3.816-1.008-5.112
			c0.672-0.335,1.32-0.6,1.944-0.792c0.623-0.191,1.584-0.288,2.88-0.288c1.44,0,2.423,0.36,2.952,1.08h2.52
			c0.144-1.199,0.227-2.351,0.252-3.456c0.023-1.104,0.036-2.088,0.036-2.952h-13.32c-0.097,0.576-0.18,1.236-0.252,1.98
			c-0.072,0.745-0.108,1.645-0.108,2.7v18c0,4.608-0.265,8.809-0.792,12.6c-0.529,3.792-1.332,7.032-2.412,9.72
			c-1.08,2.689-2.448,4.764-4.104,6.228c-1.656,1.464-3.636,2.196-5.94,2.196c1.296-2.016,2.34-4.081,3.132-6.192
			c0.792-2.112,1.416-4.392,1.872-6.84c0.456-2.448,0.767-5.112,0.936-7.992c0.167-2.88,0.252-6.12,0.252-9.72V13.896
			c0-1.055-0.084-2.016-0.252-2.88c-0.169-0.864-0.444-1.631-0.828-2.304c0.816-0.335,1.595-0.587,2.34-0.756
			c0.743-0.167,1.644-0.252,2.7-0.252c0.672,0,1.284,0.144,1.836,0.432c0.551,0.288,0.996,0.673,1.332,1.152h22.68
			c1.536,0,2.88-0.119,4.032-0.36c1.152-0.24,1.872-0.479,2.16-0.72c0.767,0,1.512,0.097,2.232,0.288
			c0.72,0.192,1.368,0.432,1.944,0.72c0.576,0.288,1.044,0.612,1.404,0.972c0.36,0.36,0.54,0.732,0.54,1.116
			c0,0.529-0.144,0.925-0.432,1.188c-0.288,0.264-0.817,0.396-1.584,0.396c-0.385,0-0.804-0.023-1.26-0.072
			c-0.457-0.047-1.057-0.108-1.8-0.18c-0.745-0.072-1.692-0.144-2.844-0.216c-1.152-0.072-2.617-0.108-4.392-0.108h-5.184
			c1.248,0.241,2.268,0.553,3.06,0.936c0.792,0.385,1.188,0.84,1.188,1.368c0,1.104-0.72,2.473-2.16,4.104
			c1.44,0,2.664-0.132,3.672-0.396c1.008-0.263,1.919-0.659,2.736-1.188c0.767,0,1.536,0.072,2.304,0.216
			c0.768,0.144,1.452,0.396,2.052,0.756c0.6,0.36,1.091,0.84,1.476,1.44c0.383,0.601,0.576,1.332,0.576,2.196
			c0,0.529-0.084,1.128-0.252,1.8c-0.168,0.672-0.252,1.632-0.252,2.88v11.808c0,1.056-0.277,2.004-0.828,2.844
			c-0.552,0.84-1.332,1.26-2.34,1.26s-1.813-0.191-2.412-0.576c-0.601-0.384-1.092-0.864-1.476-1.44h-2.736V59.688z M341.467,61.416
			c1.008-1.536,1.932-3.107,2.772-4.716c0.839-1.607,1.548-3.191,2.124-4.752c0.576-1.559,1.019-3.024,1.332-4.392
			c0.312-1.368,0.468-2.556,0.468-3.564c1.872,0,3.467,0.192,4.788,0.576c1.32,0.385,1.98,1.2,1.98,2.448
			c0,1.296-0.385,2.772-1.152,4.428c-0.769,1.656-1.789,3.229-3.06,4.716c-1.272,1.488-2.712,2.736-4.32,3.744
			C344.791,60.912,343.147,61.416,341.467,61.416z M353.924,27.936h14.256v-6.192h-13.896c-0.097,0.385-0.18,0.876-0.252,1.476
			c-0.072,0.601-0.108,1.5-0.108,2.7V27.936z M368.179,31.032h-14.256v6.192h13.608c0.191-0.623,0.348-1.355,0.468-2.196
			c0.119-0.839,0.18-1.667,0.18-2.484V31.032z M374.803,60.912c-1.105,0.097-2.052-0.36-2.844-1.368
			c-0.792-1.008-1.26-2.279-1.404-3.816c-0.192-2.063-0.576-4.043-1.152-5.94c-0.576-1.896-1.393-4.02-2.448-6.372
			c3.071,0.817,5.52,2.293,7.344,4.428c1.823,2.136,2.999,4.5,3.528,7.092c0.144,1.537-0.048,2.893-0.576,4.068
			C376.722,60.181,375.907,60.816,374.803,60.912z"/>
	</g>
</g>
</svg>