<!-- Generator: Adobe Illustrator 24.1.3, SVG Export Plug-In  -->
<svg version="1.1" xmlns="http://www.w3.org/2000/svg" xmlns:xlink="http://www.w3.org/1999/xlink" x="0px" y="0px"
	 width="257.356px" height="237.345px" viewBox="0 0 257.356 237.345"
	 style="overflow:visible;enable-background:new 0 0 257.356 237.345;" xml:space="preserve">
<style type="text/css">
	.st0{fill:#FFFFFF;stroke:#1C3B94;stroke-width:8;stroke-linecap:round;stroke-linejoin:round;stroke-miterlimit:10;}
	.st1{fill:#BF2222;}
	.st2{fill:none;}
	.st3{font-family:'HYQingFenTi-W';}
	.st4{font-size:36px;}
</style>
<defs>
</defs>
<g>
	<g>
		<rect x="4" y="4" class="st0" width="249.356" height="229.345"/>
		<g>
			<g>
				<path class="st1" d="M58.424,180.942c-0.384,0-0.672-0.12-0.864-0.36c-0.192-0.239-0.288-0.497-0.288-0.773
					c0-0.275,0.096-0.533,0.288-0.773c0.192-0.24,0.479-0.361,0.864-0.361h8.064l0.324-0.756c0.192-0.504,0.51-0.852,0.954-1.043
					c0.444-0.192,0.882-0.246,1.314-0.162s0.792,0.294,1.08,0.63c0.288,0.336,0.372,0.78,0.252,1.331h11.952
					c0.36,0,0.636,0.121,0.828,0.361c0.192,0.24,0.288,0.498,0.288,0.773c0,0.276-0.09,0.534-0.27,0.773
					c-0.18,0.24-0.462,0.36-0.846,0.36H69.512c-0.192,0.384-0.384,0.769-0.576,1.152c-0.192,0.384-0.408,0.769-0.648,1.151h17.28
					c0.36,0,0.636,0.121,0.828,0.36c0.192,0.24,0.288,0.499,0.288,0.774s-0.09,0.534-0.27,0.773c-0.18,0.24-0.462,0.36-0.846,0.36
					H66.704c-0.336,0.48-0.679,0.942-1.026,1.386c-0.348,0.444-0.726,0.883-1.134,1.314c0.048,0.096,0.072,0.156,0.072,0.18v13.284
					c0,0.575-0.187,1.014-0.558,1.313c-0.373,0.301-0.787,0.45-1.242,0.45c-0.456,0-0.87-0.149-1.242-0.45
					c-0.373-0.3-0.558-0.738-0.558-1.313v-9.937c-0.913,0.841-1.854,1.639-2.826,2.395s-1.95,1.471-2.934,2.142
					c-0.24,0.169-0.474,0.21-0.702,0.126c-0.229-0.084-0.409-0.228-0.54-0.432c-0.132-0.203-0.187-0.443-0.162-0.721
					c0.023-0.275,0.18-0.521,0.468-0.737c1.656-1.319,3.204-2.724,4.644-4.212s2.736-3.084,3.888-4.788h-7.524
					c-0.384,0-0.672-0.12-0.864-0.36c-0.192-0.239-0.288-0.498-0.288-0.773s0.096-0.534,0.288-0.774
					c0.192-0.239,0.48-0.36,0.864-0.36h8.964c0.216-0.383,0.426-0.762,0.63-1.133c0.204-0.373,0.402-0.762,0.594-1.171H58.424z
					 M57.992,176.37c-0.336,0-0.588-0.096-0.756-0.289c-0.168-0.191-0.258-0.407-0.27-0.647c-0.012-0.239,0.054-0.462,0.198-0.666
					s0.36-0.317,0.648-0.342c2.472-0.144,4.86-0.3,7.164-0.468c2.304-0.168,4.464-0.33,6.48-0.486s3.852-0.318,5.508-0.486
					c1.656-0.168,3.083-0.324,4.284-0.468c0.504-0.071,0.906,0.042,1.206,0.342c0.3,0.301,0.468,0.643,0.504,1.026
					s-0.078,0.75-0.342,1.098c-0.265,0.348-0.697,0.547-1.296,0.594c-0.768,0.049-1.872,0.104-3.312,0.162
					c-1.44,0.061-3.156,0.127-5.148,0.198c-1.992,0.072-4.242,0.144-6.75,0.216C63.601,176.226,60.895,176.298,57.992,176.37z
					 M79.484,202.902c-0.408-0.576-0.822-0.918-1.242-1.025c-0.42-0.108-0.931-0.162-1.53-0.162H66.56
					c-0.336,0-0.588-0.114-0.756-0.342c-0.168-0.229-0.252-0.48-0.252-0.756c0-0.277,0.084-0.529,0.252-0.757
					c0.167-0.228,0.419-0.342,0.756-0.342h12.168v-8.496c0-0.911-0.456-1.368-1.368-1.368H66.92c-0.336,0-0.588-0.113-0.756-0.342
					c-0.168-0.228-0.252-0.474-0.252-0.738c0-0.264,0.083-0.51,0.252-0.738c0.167-0.227,0.419-0.342,0.756-0.342h12.42
					c0.6,0,1.092,0.085,1.476,0.252c0.384,0.168,0.689,0.391,0.918,0.666c0.228,0.277,0.384,0.607,0.468,0.99
					c0.083,0.385,0.126,0.792,0.126,1.225v11.052c0,0.432-0.114,0.786-0.342,1.062s-0.492,0.469-0.792,0.576
					c-0.3,0.107-0.612,0.132-0.936,0.072C79.934,203.327,79.675,203.165,79.484,202.902z M66.56,197.61
					c-0.336,0-0.588-0.108-0.756-0.323c-0.168-0.217-0.252-0.463-0.252-0.738s0.084-0.522,0.252-0.738
					c0.167-0.216,0.419-0.324,0.756-0.324h10.26c0.312,0,0.54,0.108,0.684,0.324s0.216,0.463,0.216,0.738s-0.072,0.521-0.216,0.738
					c-0.144,0.215-0.372,0.323-0.684,0.323H66.56z M66.632,193.65c-0.336,0-0.588-0.107-0.756-0.324
					c-0.168-0.216-0.252-0.461-0.252-0.738c0-0.275,0.084-0.521,0.252-0.737c0.167-0.216,0.419-0.324,0.756-0.324h10.26
					c0.312,0,0.54,0.108,0.684,0.324s0.216,0.462,0.216,0.737c0,0.277-0.072,0.522-0.216,0.738
					c-0.144,0.217-0.373,0.324-0.684,0.324H66.632z"/>
				<path class="st1" d="M91.544,176.694c-0.432,0-0.756-0.132-0.972-0.396c-0.216-0.264-0.324-0.559-0.324-0.883
					c0-0.323,0.108-0.623,0.324-0.899c0.216-0.276,0.54-0.414,0.972-0.414h29.664c0.432,0,0.756,0.138,0.972,0.414
					c0.216,0.276,0.324,0.576,0.324,0.899c0,0.324-0.108,0.619-0.324,0.883c-0.216,0.264-0.54,0.396-0.972,0.396H91.544z
					 M107.383,201.39c0,0.648-0.198,1.134-0.594,1.458c-0.396,0.323-0.828,0.485-1.296,0.485c-0.468,0-0.906-0.162-1.314-0.485
					c-0.409-0.324-0.612-0.81-0.612-1.458v-21.6c0-0.6,0.198-1.051,0.594-1.351s0.833-0.45,1.314-0.45
					c0.479,0,0.918,0.15,1.314,0.45s0.594,0.751,0.594,1.351V201.39z M111.38,183.354c2.016,1.392,3.732,2.634,5.148,3.726
					c1.416,1.093,2.532,2.022,3.348,2.791c0.36,0.359,0.582,0.737,0.666,1.133c0.084,0.396,0.06,0.77-0.072,1.117
					c-0.132,0.348-0.349,0.66-0.648,0.936c-0.3,0.275-0.63,0.463-0.99,0.559s-0.738,0.084-1.134-0.037
					c-0.396-0.119-0.75-0.383-1.062-0.791c-1.368-1.729-2.604-3.234-3.708-4.519s-2.076-2.346-2.916-3.187
					c-0.265-0.264-0.391-0.533-0.378-0.81c0.012-0.275,0.102-0.516,0.27-0.72c0.168-0.203,0.39-0.336,0.666-0.396
					C110.845,183.097,111.115,183.161,111.38,183.354z"/>
				<path class="st1" d="M156.56,187.531h-28.404c-0.528,0-0.924-0.162-1.188-0.486s-0.396-0.678-0.396-1.063
					c0-0.383,0.132-0.738,0.396-1.063c0.264-0.323,0.66-0.485,1.188-0.485h28.404c0.527,0,0.918,0.162,1.17,0.485
					c0.252,0.324,0.378,0.68,0.378,1.063c0,0.385-0.132,0.738-0.396,1.063C157.447,187.368,157.064,187.531,156.56,187.531z"/>
				<path class="st1" d="M163.13,203.208c-0.276,0.059-0.528,0.035-0.756-0.072c-0.229-0.108-0.391-0.276-0.486-0.504
					c-0.096-0.229-0.061-0.51,0.108-0.846c0.6-1.152,1.128-2.311,1.584-3.475c0.456-1.164,0.828-2.472,1.116-3.924
					c0.288-1.452,0.504-3.114,0.648-4.986c0.144-1.871,0.216-4.068,0.216-6.588c0-0.623,0.186-1.092,0.558-1.404
					c0.372-0.311,0.779-0.468,1.224-0.468c0.444,0,0.852,0.157,1.224,0.468c0.372,0.313,0.558,0.781,0.558,1.404
					c0,2.376-0.103,4.477-0.306,6.301c-0.204,1.824-0.522,3.498-0.954,5.021c-0.432,1.524-0.984,2.97-1.656,4.338
					c-0.672,1.368-1.476,2.783-2.412,4.248C163.628,202.986,163.405,203.148,163.13,203.208z M162.266,180.312
					c0.036,0.204,0.138,0.359,0.306,0.469c0.168,0.107,0.366,0.161,0.594,0.161c0.228,0,0.45-0.095,0.666-0.288
					c0.696-0.6,1.326-1.164,1.89-1.691c0.563-0.527,1.085-1.074,1.566-1.639c0.479-0.563,0.923-1.157,1.332-1.781
					c0.408-0.624,0.804-1.32,1.188-2.088c0.264-0.528,0.27-1.008,0.018-1.44s-0.606-0.738-1.062-0.918
					c-0.457-0.181-0.936-0.186-1.44-0.019c-0.504,0.168-0.876,0.576-1.116,1.225c-0.312,0.889-0.606,1.668-0.882,2.34
					c-0.276,0.672-0.564,1.291-0.864,1.854c-0.3,0.564-0.612,1.099-0.936,1.603c-0.324,0.504-0.69,1.032-1.098,1.584
					C162.284,179.898,162.23,180.109,162.266,180.312z M178.754,176.333c0.204-0.239,0.306-0.504,0.306-0.791
					c0-0.289-0.103-0.553-0.306-0.793c-0.204-0.239-0.522-0.359-0.954-0.359h-7.164c-0.408,0-0.708,0.12-0.9,0.359
					c-0.192,0.24-0.288,0.504-0.288,0.793c0,0.287,0.096,0.552,0.288,0.791c0.192,0.24,0.492,0.36,0.9,0.36h7.164
					C178.232,176.694,178.549,176.574,178.754,176.333z M169.447,191.165c0-0.527,0.168-0.918,0.504-1.17
					c0.335-0.252,0.714-0.371,1.134-0.359c0.419,0.012,0.798,0.15,1.134,0.414c0.335,0.264,0.504,0.66,0.504,1.188v10.801
					c0,0.527-0.168,0.924-0.504,1.188c-0.336,0.264-0.715,0.396-1.134,0.396c-0.42,0-0.798-0.133-1.134-0.396
					c-0.336-0.264-0.504-0.66-0.504-1.188V191.165z M170.366,177.18c-0.18,0.085-0.306,0.21-0.378,0.378
					c-0.072,0.168-0.084,0.342-0.036,0.521c0.048,0.181,0.18,0.318,0.396,0.414c0.216,0.121,0.522,0.318,0.918,0.594
					c0.396,0.277,0.882,0.654,1.458,1.135c0.432,0.336,0.858,0.449,1.278,0.342c0.419-0.107,0.75-0.318,0.99-0.63
					c0.239-0.312,0.324-0.659,0.252-1.044c-0.072-0.384-0.373-0.672-0.9-0.864c-0.408-0.144-0.846-0.275-1.314-0.396
					c-0.468-0.12-1.122-0.275-1.962-0.469C170.779,177.089,170.546,177.096,170.366,177.18z M170.402,187.188
					c-0.204-0.228-0.306-0.485-0.306-0.774c0-0.287,0.102-0.545,0.306-0.773c0.204-0.229,0.522-0.342,0.954-0.342h17.064v-1.297
					c0-0.239-0.048-0.432-0.144-0.575c-0.096-0.144-0.312-0.216-0.648-0.216h-16.272c-0.432,0-0.75-0.113-0.954-0.342
					c-0.204-0.229-0.306-0.486-0.306-0.774s0.102-0.546,0.306-0.774c0.204-0.228,0.522-0.342,0.954-0.342h5.832
					c-0.121-0.216-0.247-0.443-0.378-0.684c-0.132-0.24-0.294-0.527-0.486-0.864c-0.121-0.192-0.162-0.378-0.126-0.558
					c0.036-0.181,0.126-0.33,0.27-0.451c0.144-0.119,0.318-0.191,0.522-0.215c0.204-0.023,0.402,0.012,0.594,0.107
					c0.671,0.336,1.206,0.637,1.602,0.9s0.75,0.539,1.062,0.828c0.288,0.264,0.432,0.576,0.432,0.936h8.1
					c1.248,0,2.088,0.234,2.52,0.702c0.432,0.468,0.648,1.11,0.648,1.926v1.62c0,0.769-0.198,1.344-0.594,1.729
					c-0.396,0.384-1.026,0.576-1.89,0.576h-18.108C170.924,187.531,170.605,187.416,170.402,187.188z M189.482,203.495
					c-0.396-0.06-0.582-0.294-0.558-0.701c0.024-0.408-0.108-0.672-0.396-0.793c-0.288-0.119-0.696-0.203-1.224-0.252
					c-0.265-0.023-0.457-0.107-0.576-0.252c-0.121-0.144-0.18-0.306-0.18-0.485c0-0.181,0.066-0.337,0.198-0.468
					c0.131-0.133,0.306-0.198,0.522-0.198c0.768,0,1.26-0.036,1.476-0.108c0.216-0.072,0.324-0.348,0.324-0.828v-6.623
					c0-0.192-0.06-0.385-0.18-0.576c-0.121-0.192-0.36-0.289-0.72-0.289h-13.32c-0.384,0-0.672-0.113-0.864-0.342
					c-0.192-0.228-0.288-0.485-0.288-0.773s0.096-0.546,0.288-0.773c0.192-0.229,0.48-0.343,0.864-0.343h14.616
					c1.224,0,2.022,0.282,2.394,0.847c0.372,0.563,0.558,1.338,0.558,2.321v6.948c0,0.768-0.156,1.428-0.468,1.98
					c-0.312,0.551-0.708,0.995-1.188,1.332C190.303,203.429,189.878,203.556,189.482,203.495z M173.984,197.159
					c-0.168-0.228-0.252-0.473-0.252-0.738c0-0.264,0.084-0.509,0.252-0.737c0.167-0.228,0.432-0.342,0.792-0.342h1.404v-1.152
					c0-0.527,0.162-0.923,0.486-1.188c0.324-0.264,0.678-0.389,1.062-0.377c0.384,0.012,0.738,0.156,1.062,0.432
					c0.324,0.275,0.486,0.678,0.486,1.206v1.08h3.348v-1.152c0-0.527,0.162-0.923,0.486-1.188c0.324-0.264,0.678-0.389,1.062-0.377
					c0.384,0.012,0.738,0.156,1.062,0.432c0.324,0.275,0.486,0.678,0.486,1.206v1.08h1.26c0.36,0,0.624,0.114,0.792,0.342
					c0.167,0.229,0.252,0.474,0.252,0.737c0,0.266-0.084,0.511-0.252,0.738c-0.168,0.229-0.432,0.342-0.792,0.342h-1.26v3.637
					c0,0.527-0.162,0.924-0.486,1.188c-0.324,0.264-0.678,0.396-1.062,0.396c-0.384,0-0.738-0.133-1.062-0.396
					c-0.324-0.264-0.486-0.66-0.486-1.188v-3.637h-3.348v3.637c0,0.527-0.162,0.924-0.486,1.188
					c-0.324,0.264-0.678,0.396-1.062,0.396c-0.384,0-0.738-0.133-1.062-0.396c-0.324-0.264-0.486-0.66-0.486-1.188v-3.637h-1.404
					C174.416,197.501,174.151,197.388,173.984,197.159z M179.024,178.296c0.072,0.229,0.21,0.396,0.414,0.504
					c0.204,0.107,0.438,0.15,0.702,0.126c0.264-0.024,0.504-0.144,0.72-0.36c0.744-0.695,1.446-1.428,2.106-2.195
					c0.66-0.769,1.254-1.68,1.782-2.736c0.312-0.6,0.348-1.122,0.108-1.566c-0.24-0.443-0.582-0.756-1.026-0.936
					c-0.444-0.18-0.918-0.186-1.422-0.018c-0.504,0.168-0.864,0.575-1.08,1.223c-0.24,0.697-0.457,1.291-0.648,1.783
					c-0.192,0.492-0.366,0.936-0.522,1.332c-0.157,0.396-0.318,0.756-0.486,1.08c-0.168,0.323-0.336,0.653-0.504,0.989
					C179,177.81,178.952,178.068,179.024,178.296z M184.838,177.234c-0.18,0.096-0.3,0.229-0.36,0.396
					c-0.06,0.168-0.06,0.342,0,0.521c0.06,0.18,0.198,0.33,0.414,0.45c0.336,0.192,0.696,0.427,1.08,0.702
					c0.383,0.275,0.84,0.618,1.368,1.025c0.432,0.337,0.858,0.451,1.278,0.342c0.419-0.107,0.744-0.316,0.972-0.629
					s0.306-0.66,0.234-1.045c-0.072-0.383-0.384-0.671-0.936-0.863c-0.409-0.145-0.858-0.288-1.35-0.432
					c-0.492-0.145-1.158-0.313-1.998-0.504C185.252,177.126,185.018,177.138,184.838,177.234z M194.126,176.333
					c0.204-0.239,0.306-0.504,0.306-0.791c0-0.289-0.103-0.553-0.306-0.793c-0.204-0.239-0.51-0.359-0.918-0.359h-7.38
					c-0.432,0-0.75,0.12-0.954,0.359c-0.204,0.24-0.306,0.504-0.306,0.793c0,0.287,0.102,0.552,0.306,0.791
					c0.204,0.24,0.522,0.36,0.954,0.36h7.38C193.615,176.694,193.922,176.574,194.126,176.333z"/>
			</g>
		</g>
	</g>
	<polygon class="st0" points="190.246,97.829 143.626,51.209 143.626,79.462 67.11,79.462 67.11,116.196 143.626,116.196 
		143.626,144.449 	"/>
</g>
</svg>