<!-- Generator: Adobe Illustrator 24.1.3, SVG Export Plug-In  -->
<svg version="1.1" xmlns="http://www.w3.org/2000/svg" xmlns:xlink="http://www.w3.org/1999/xlink" x="0px" y="0px"
	 width="391.555px" height="211.228px" viewBox="0 0 391.555 211.228"
	 style="overflow:visible;enable-background:new 0 0 391.555 211.228;" xml:space="preserve">
<style type="text/css">
	.st0{fill:#FFFFFF;stroke:#1C3B94;stroke-width:2;stroke-linecap:round;stroke-linejoin:round;stroke-miterlimit:10;}
	.st1{fill:#FFFFFF;stroke:#1C3B94;stroke-width:2;stroke-miterlimit:10;}
	.st2{fill:#FFE291;stroke:#1C3B94;stroke-width:2;stroke-linecap:round;stroke-linejoin:round;stroke-miterlimit:10;}
	.st3{fill:none;stroke:#1C3B94;stroke-width:2;stroke-linecap:round;stroke-linejoin:round;stroke-miterlimit:10;}
	.st4{fill:#1C3B94;}
	.st5{fill:#BF2222;}
	.st6{fill:none;}
	.st7{font-family:'FZLANTY_ZHUNK--GBK1-0';}
	.st8{font-size:28.8559px;}
	.st9{letter-spacing:1;}
	.st10{font-size:19px;}
	.st11{font-size:17.3135px;}
	.st12{font-size:21px;}
</style>
<defs>
</defs>
<g>
	<g>
		<g>
			<path class="st0" d="M269.204,65.948v-16.51H134.99c0,0.001,0,0.003,0,0.004c0,26.754-21.689,48.442-48.442,48.442
				c-26.754,0-48.442-21.688-48.442-48.442c0-0.001,0-0.003,0-0.004H1v160.79h389.555V65.948H269.204z"/>
			<path class="st1" d="M86.548,97.885c26.754,0,48.442-21.688,48.442-48.442c0-0.001,0-0.003,0-0.004
				C134.988,22.686,113.3,1,86.548,1c-26.752,0-48.44,21.686-48.442,48.438c0,0.001,0,0.003,0,0.004
				C38.106,76.196,59.794,97.885,86.548,97.885z"/>
		</g>
		<path class="st2" d="M98.045,59.809l8.074,1.631l-0.194,0.92v4.085c0,4.748,1.098,9.431,3.229,13.677v11.303l0.339,0.678
			c-6.83,3.698-14.646,5.781-22.946,5.781c1.873-3.117,3.52-6.346,4.925-9.656c1.858-4.295,3.311-8.752,4.36-13.289
			c0.92-3.924,1.534-7.929,1.841-11.981l0.177-2.212L98.045,59.809z M98.045,59.809"/>
		<path class="st2" d="M77.263,74.939c1.049,4.538,2.502,8.994,4.36,13.289c1.404,3.31,3.051,6.54,4.925,9.656
			c-8.3,0-16.115-2.083-22.946-5.781l0.339-0.678V80.123c2.131-4.247,3.229-8.929,3.229-13.677V62.36l-0.194-0.92l8.074-1.631
			l0.194,0.937l0.177,2.212C75.729,67.011,76.343,71.015,77.263,74.939L77.263,74.939z M77.263,74.939"/>
		<path class="st2" d="M91.053,70.951l-2.89,4.328h-3.229l-2.89-4.328l4.505-3.746L91.053,70.951z M91.053,70.951"/>
		<path class="st2" d="M88.163,75.278l3.229,12.918l0.08,0.032c-1.404,3.31-3.051,6.54-4.925,9.656
			c-1.873-3.117-3.52-6.346-4.925-9.656l0.08-0.032l3.229-12.918H88.163z M88.163,75.278"/>
		<path class="st3" d="M67.171,62.36v4.085c0,4.748-1.098,9.431-3.229,13.677v11.303l-0.339,0.678
			c-3.488-1.873-6.718-4.182-9.64-6.83l0.291-0.307V71.92c0-4.618,3.262-8.59,7.783-9.495l4.941-0.985L67.171,62.36z M67.171,62.36"
			/>
		<path class="st3" d="M84.933,75.278l-3.229,12.918l-0.08,0.032c-1.858-4.295-3.311-8.752-4.36-13.289l4.78-3.989 M84.933,75.278"
			/>
		<path class="st3" d="M95.833,74.939c-1.049,4.538-2.502,8.994-4.36,13.289l-0.08-0.032l-3.229-12.918l2.89-4.328L95.833,74.939z
			 M95.833,74.939"/>
		<path class="st3" d="M118.843,84.967l0.291,0.307c-2.923,2.648-6.152,4.957-9.64,6.83l-0.339-0.678V80.123
			c-2.131-4.247-3.229-8.929-3.229-13.677V62.36l0.194-0.92l4.941,0.985c4.521,0.904,7.783,4.877,7.783,9.495V84.967z
			 M118.843,84.967"/>
		<path class="st3" d="M97.851,60.746l-0.177,2.212c-0.307,4.053-0.921,8.057-1.841,11.981l-4.78-3.989l-4.505-3.746l8.074-8.074
			l3.423,0.678L97.851,60.746z M97.851,60.746"/>
		<path class="st3" d="M78.474,59.131l8.074,8.074l-4.505,3.746l-4.78,3.989c-0.92-3.924-1.534-7.929-1.841-11.981l-0.177-2.212
			l-0.194-0.937L78.474,59.131z M78.474,59.131"/>
		<path class="st2" d="M110.721,7.475c0.016,0,0.032,0,0.048,0.032c-0.016,6.104-2.794,11.885-7.573,15.696l-0.501,0.404h-5.313
			c-3.569,0-7.089-0.419-10.544-1.227c-3.44-0.807-6.782-2.035-9.979-3.617L72.015,5.844c2.131-2.131,4.796-3.617,7.67-4.344
			c0.016-0.017,0.032-0.017,0.048-0.017c1.89-0.274,3.811-0.436,5.765-0.452c1.857,0.097,3.665,0.517,5.377,1.227
			c1.986,0.824,3.811,2.035,5.361,3.585c2.066,2.066,4.877,3.229,7.799,3.229h0.065c1.211,0,2.406-0.194,3.552-0.581L110.721,7.475z
			 M110.721,7.475"/>
		<path class="st2" d="M72.015,5.844l4.844,12.918l-1.986,1.485c-2.18,1.647-3.665,4.005-4.214,6.636l-0.259-0.048
			c-3.569,0-6.459,2.89-6.459,6.459V15.694c0-2.39,0.84-4.618,2.277-6.379C67.655,7.572,69.658,6.313,72.015,5.844L72.015,5.844z
			 M72.015,5.844"/>
		<path class="st3" d="M94.622,52.672v6.459l-8.074,8.074l-8.074-8.074v-6.459l0.242-0.419c2.325,1.307,4.99,2.034,7.832,2.034
			s5.507-0.727,7.832-2.034L94.622,52.672z M94.622,52.672"/>
		<path class="st3" d="M109.155,33.295c0,3.569-2.89,6.459-6.459,6.459h-0.08c0.048-0.533,0.08-1.066,0.08-1.615V26.836
			C106.264,26.836,109.155,29.726,109.155,33.295L109.155,33.295z M109.155,33.295"/>
		<path class="st3" d="M102.696,26.836v11.303c0,0.549-0.032,1.082-0.08,1.615c-0.533,5.393-3.73,9.995-8.235,12.499
			c-2.325,1.307-4.99,2.034-7.832,2.034s-5.506-0.727-7.832-2.034c-1.324-0.727-2.519-1.631-3.584-2.697
			c-2.568-2.567-4.28-5.991-4.651-9.801c-0.048-0.533-0.08-1.066-0.08-1.615V29.21c0-0.792,0.08-1.582,0.259-2.326
			c0.549-2.632,2.034-4.989,4.214-6.636l1.986-1.485c3.197,1.582,6.539,2.81,9.979,3.617c3.455,0.807,6.976,1.227,10.544,1.227
			h5.313V26.836z M102.696,26.836"/>
		<path class="st3" d="M70.401,39.754c-3.569,0-6.459-2.89-6.459-6.459c0-3.569,2.89-6.459,6.459-6.459l0.259,0.048
			c-0.178,0.744-0.259,1.534-0.259,2.326v8.929c0,0.549,0.032,1.082,0.08,1.615H70.401z M70.401,39.754"/>
		<path class="st3" d="M80.089,31.68c0,0.892-0.723,1.615-1.615,1.615c-0.892,0-1.615-0.723-1.615-1.615
			c0-0.892,0.723-1.615,1.615-1.615C79.366,30.065,80.089,30.788,80.089,31.68L80.089,31.68z M80.089,31.68"/>
		<path class="st3" d="M96.237,31.68c0,0.892-0.723,1.615-1.615,1.615s-1.615-0.723-1.615-1.615c0-0.892,0.723-1.615,1.615-1.615
			S96.237,30.788,96.237,31.68L96.237,31.68z M96.237,31.68"/>
	</g>
	<polygon class="st2" points="269.204,17.046 269.204,49.438 269.204,65.948 390.555,65.948 390.555,49.438 390.555,17.046 	"/>
	<g>
		<g>
			<path class="st4" d="M280.484,49.051h8.905c1.051-0.074,1.539,0.338,1.465,1.24c0,0.826-0.489,1.24-1.465,1.24h-10.258
				c-1.278,0-1.916-0.602-1.916-1.803c0-0.826,0.187-1.578,0.563-2.254c1.127-2.328,3.343-4.959,6.65-7.89
				c2.479-1.953,3.644-3.794,3.494-5.523c-0.151-2.029-1.353-3.08-3.607-3.156c-2.33,0-3.758,1.09-4.283,3.269
				c-0.225,1.353-0.752,1.916-1.578,1.691c-0.827-0.15-1.165-0.789-1.014-1.917c0.75-3.531,3.043-5.372,6.875-5.523
				c4.059,0.151,6.124,2.029,6.2,5.636c0.149,2.556-1.353,5.072-4.509,7.552c-2.931,2.631-4.886,4.922-5.861,6.876
				C280.07,48.864,280.184,49.051,280.484,49.051z"/>
		</g>
	</g>
	<g>
		<g>
			<path class="st5" d="M146.763,41.517c-0.447,0-0.695-0.248-0.744-0.742c0.049-0.445,0.297-0.693,0.744-0.742h1.488v-4.676
				c0-0.692,0.346-1.039,1.041-1.039h11.832c0.744,0,1.115,0.347,1.115,1.039v4.676h1.488c0.396,0.049,0.619,0.297,0.67,0.742
				c-0.051,0.445-0.273,0.692-0.67,0.742H146.763z M148.399,32.982c-0.496-0.049-0.77-0.321-0.818-0.816v-6.457
				c0.049-0.494,0.322-0.767,0.818-0.816c0.494,0.05,0.768,0.322,0.818,0.816v6.457C149.167,32.661,148.894,32.933,148.399,32.982z
				 M149.962,36.174v3.859h2.455v-4.305h-2.01C150.06,35.679,149.911,35.828,149.962,36.174z M152.491,33.724
				c-0.496-0.049-0.77-0.321-0.818-0.816v-7.941c0.049-0.544,0.322-0.841,0.818-0.891c0.496,0.05,0.77,0.347,0.818,0.891v7.941
				C153.261,33.403,152.987,33.676,152.491,33.724z M153.979,32.314c-0.348-0.297-0.396-0.692-0.148-1.188
				c1.389-1.93,2.48-4.082,3.273-6.457c0.199-0.445,0.57-0.643,1.117-0.594c0.494,0.148,0.693,0.495,0.596,1.039
				c-0.199,0.594-0.447,1.213-0.744,1.855h5.506c0.494,0.05,0.768,0.297,0.818,0.742c-0.051,0.445-0.324,0.693-0.818,0.742h-6.25
				c-0.596,1.336-1.291,2.573-2.084,3.711C154.847,32.562,154.427,32.611,153.979,32.314z M153.979,35.728v4.305h2.455v-4.305
				H153.979z M160.899,33.056c-0.695-0.643-1.637-1.435-2.826-2.375c-0.348-0.346-0.373-0.692-0.076-1.039
				c0.396-0.297,0.793-0.321,1.191-0.074c0.248,0.198,0.719,0.569,1.414,1.113c0.693,0.594,1.164,0.99,1.414,1.188
				c0.346,0.347,0.371,0.718,0.074,1.113C161.692,33.329,161.296,33.353,160.899,33.056z M160.081,35.728h-2.084v4.305h2.531v-3.859
				C160.577,35.828,160.429,35.679,160.081,35.728z"/>
			<path class="st5" d="M166.108,29.197c-0.447-0.049-0.695-0.321-0.744-0.816c0.049-0.494,0.297-0.742,0.744-0.742h1.637v-2.598
				c0.049-0.544,0.322-0.841,0.818-0.891c0.545,0,0.818,0.297,0.818,0.891v2.598h1.488c0.447,0.05,0.695,0.297,0.744,0.742
				c-0.049,0.495-0.297,0.768-0.744,0.816h-1.488v3.488c0.199-0.049,0.471-0.099,0.818-0.148c0.248-0.099,0.447-0.148,0.596-0.148
				c0.496-0.099,0.793,0.1,0.893,0.594c0,0.594-0.248,0.94-0.744,1.039c-0.496,0.148-1.016,0.297-1.563,0.445v5.27
				c0.049,1.435-0.57,2.152-1.859,2.152c-0.299,0-0.645,0-1.041,0c-0.646-0.05-0.994-0.347-1.043-0.891
				c-0.049-0.445,0.148-0.693,0.596-0.742c0.297,0,0.57,0,0.818,0c0.645,0.049,0.941-0.248,0.893-0.891v-4.453
				c-0.596,0.148-1.141,0.297-1.637,0.445c-0.496,0.1-0.818-0.123-0.967-0.668c0-0.594,0.248-0.939,0.744-1.039
				c0.098-0.049,0.297-0.099,0.596-0.148c0.545-0.148,0.967-0.271,1.264-0.371v-3.934H166.108z M170.87,42.037
				c-0.445-0.297-0.52-0.768-0.223-1.41c0.844-1.236,1.363-2.424,1.563-3.563c0.248-1.188,0.373-3.043,0.373-5.566V28.01
				c0.049-0.692,0.42-1.063,1.115-1.113h3.125v-0.148c0-0.049-0.025-0.099-0.074-0.148c-0.348-0.594-0.57-0.989-0.67-1.188
				c-0.1-0.544,0.074-0.891,0.521-1.039c0.596-0.099,0.992,0.124,1.189,0.668c0.348,0.445,0.596,0.866,0.744,1.262
				c0.1,0.248,0.1,0.445,0,0.594h2.828c0.695,0.05,1.066,0.421,1.117,1.113v5.344c-0.051,0.693-0.422,1.064-1.117,1.113h-7.143
				c-0.051,2.969-0.744,5.369-2.084,7.199C171.839,42.16,171.417,42.284,170.87,42.037z M174.294,32.092v0.742h6.102
				c0.248,0,0.371-0.123,0.371-0.371V28.9c0-0.297-0.123-0.445-0.371-0.445h-5.656c-0.297,0-0.445,0.148-0.445,0.445V32.092z"/>
			<path class="st5" d="M184.935,30.31c-0.398-0.247-0.521-0.594-0.373-1.039c0.695-1.286,1.314-2.795,1.861-4.527
				c0.148-0.396,0.445-0.568,0.893-0.52c0.445,0.148,0.645,0.445,0.596,0.891c-0.199,0.445-0.373,0.916-0.521,1.41h4.316
				c0.445,0.05,0.693,0.272,0.744,0.668c0,0.445-0.25,0.693-0.744,0.742h-2.232v3.414h2.826c0.447,0.05,0.695,0.297,0.744,0.742
				c-0.049,0.445-0.297,0.693-0.744,0.742h-2.826v6.234h1.189c0.248,0,0.373-0.123,0.373-0.371v-3.859
				c0.049-0.396,0.271-0.618,0.67-0.668c0.396,0.05,0.619,0.272,0.67,0.668v4.75c0,0.594-0.273,0.891-0.82,0.891h-5.729
				c-0.547,0-0.818-0.297-0.818-0.891v-4.75c0.049-0.396,0.271-0.618,0.67-0.668c0.396,0.05,0.619,0.272,0.67,0.668v3.859
				c0,0.248,0.123,0.371,0.371,0.371h1.266v-6.234h-3.051c-0.447-0.049-0.695-0.297-0.744-0.742
				c0.049-0.445,0.297-0.692,0.744-0.742h3.051v-3.414h-1.191c-0.1,0.347-0.297,0.842-0.596,1.484
				c-0.148,0.248-0.248,0.445-0.297,0.594C185.604,30.41,185.28,30.509,184.935,30.31z M193.714,34.689
				c-0.445-0.049-0.695-0.321-0.744-0.816c0.049-0.445,0.299-0.692,0.744-0.742h2.01c0.049-0.989,0.074-2.375,0.074-4.156h-1.859
				c-0.447-0.049-0.695-0.297-0.744-0.742c0.049-0.494,0.297-0.742,0.744-0.742h1.934c0-0.791,0-1.633,0-2.523
				c0.049-0.494,0.299-0.742,0.744-0.742c0.496,0.05,0.77,0.297,0.818,0.742c0,0.891-0.025,1.732-0.074,2.523h2.754
				c0.596,0.05,0.916,0.347,0.967,0.891v4.75h0.744c0.447,0.05,0.693,0.297,0.744,0.742c-0.051,0.495-0.297,0.768-0.744,0.816
				h-4.166c0.793,2.573,2.131,4.479,4.018,5.715c0.445,0.346,0.521,0.767,0.223,1.262c-0.348,0.396-0.77,0.445-1.266,0.148
				c-1.885-1.484-3.174-3.389-3.869-5.715c-0.445,2.178-1.563,4.131-3.348,5.863c-0.348,0.297-0.744,0.271-1.191-0.074
				c-0.297-0.396-0.273-0.816,0.074-1.262c1.885-1.583,2.977-3.563,3.275-5.938H193.714z M199.296,28.974h-1.936
				c0,1.584-0.049,2.969-0.148,4.156h2.455v-3.785C199.667,29.098,199.544,28.974,199.296,28.974z"/>
			<path class="st5" d="M204.876,31.795c-0.447-0.346-0.547-0.742-0.297-1.188c1.041-1.533,1.859-3.216,2.455-5.047
				c0.197-0.544,0.568-0.767,1.115-0.668c0.496,0.148,0.695,0.52,0.596,1.113c-0.051,0.198-0.174,0.545-0.371,1.039
				c-0.15,0.297-0.25,0.52-0.299,0.668h3.869c0-0.841,0-1.781,0-2.82c0.049-0.594,0.373-0.915,0.969-0.965
				c0.545,0.05,0.842,0.347,0.893,0.891c-0.051,1.039-0.074,2.004-0.074,2.895h6.176c0.494,0.05,0.768,0.322,0.818,0.816
				c-0.051,0.545-0.324,0.842-0.818,0.891h-6.25c-0.051,1.188-0.125,2.326-0.225,3.414h7.293c0.545,0.05,0.842,0.322,0.893,0.816
				c-0.051,0.495-0.348,0.768-0.893,0.816h-6.994c0.941,2.771,3.348,4.701,7.217,5.789c0.545,0.297,0.695,0.742,0.447,1.336
				c-0.348,0.445-0.818,0.568-1.414,0.371c-3.771-1.188-6.227-3.216-7.367-6.086c-0.893,2.672-3.496,4.774-7.813,6.309
				c-0.596,0.197-1.068,0.074-1.414-0.371c-0.199-0.594-0.051-1.039,0.447-1.336c4.363-1.435,6.846-3.438,7.439-6.012h-7.291
				c-0.496-0.049-0.77-0.321-0.818-0.816c0.049-0.494,0.322-0.767,0.818-0.816h7.664c0.148-1.039,0.223-2.177,0.223-3.414h-4.539
				c-0.199,0.396-0.521,0.94-0.967,1.633c-0.1,0.198-0.174,0.322-0.223,0.371C205.794,31.869,205.37,31.993,204.876,31.795z"/>
			<path class="st5" d="M224.222,41.74c-0.545,0.396-1.066,0.42-1.563,0.074c-0.348-0.495-0.322-0.99,0.074-1.484
				c1.588-1.236,2.68-2.548,3.275-3.934c0.545-1.336,0.818-3.314,0.818-5.938v-5.195c0.049-0.544,0.371-0.841,0.967-0.891
				c0.545,0.05,0.844,0.347,0.893,0.891v5.492C228.935,35.654,227.446,39.316,224.222,41.74z M235.458,41.592
				c-1.934,0.148-2.854-0.842-2.752-2.969V25.189c0.049-0.544,0.346-0.841,0.893-0.891c0.545,0.05,0.842,0.347,0.893,0.891V38.4
				c-0.051,0.99,0.371,1.46,1.266,1.41h0.967c0.992,0.05,1.537-0.42,1.637-1.41c0-0.099,0.025-0.271,0.074-0.52
				c0-0.346,0.074-1.014,0.223-2.004c0.1-0.544,0.422-0.816,0.969-0.816c0.545,0.148,0.793,0.52,0.744,1.113
				c-0.102,1.139-0.225,2.178-0.373,3.117c-0.248,1.583-1.291,2.35-3.125,2.301H235.458z"/>
			<path class="st5" d="M244.536,36.842c-0.695,0-1.041-0.371-1.041-1.113v-3.711c0.049-0.643,0.396-0.989,1.041-1.039h11.832
				c0.643,0.05,0.99,0.396,1.041,1.039v3.711c0,0.742-0.348,1.113-1.041,1.113h-5.061v1.113h6.549c0.396,0,0.594,0.198,0.594,0.594
				c0,0.297-0.197,0.471-0.594,0.52h-6.549v1.262h7.813c0.348,0.049,0.545,0.247,0.596,0.594c-0.051,0.346-0.248,0.544-0.596,0.594
				h-17.338c-0.348-0.05-0.545-0.248-0.594-0.594c0.049-0.347,0.246-0.545,0.594-0.594h7.814v-1.262h-6.549
				c-0.348-0.049-0.547-0.223-0.596-0.52c0.049-0.346,0.248-0.544,0.596-0.594h6.549v-1.113H244.536z M242.825,27.045
				c-0.348-0.049-0.547-0.247-0.596-0.594c0.049-0.346,0.248-0.544,0.596-0.594h6.846l-0.299-0.965
				c-0.049-0.544,0.199-0.865,0.744-0.965c0.547-0.099,0.918,0.1,1.117,0.594l0.297,1.336h6.623c0.346,0.05,0.545,0.248,0.596,0.594
				c-0.051,0.347-0.25,0.545-0.596,0.594h-2.977c0.248,0.248,0.248,0.495,0,0.742c-0.051,0.1-0.148,0.248-0.297,0.445
				c-0.15,0.248-0.273,0.421-0.373,0.52h4.539c0.348,0.05,0.545,0.248,0.596,0.594c-0.051,0.347-0.248,0.545-0.596,0.594h-17.113
				c-0.348-0.049-0.547-0.247-0.596-0.594c0.049-0.346,0.248-0.544,0.596-0.594h4.688c-0.148-0.148-0.324-0.371-0.521-0.668
				c-0.1-0.148-0.174-0.247-0.223-0.297c-0.199-0.247-0.199-0.494,0-0.742H242.825z M245.206,32.463v0.891h4.391v-1.262h-4.02
				C245.329,32.092,245.206,32.216,245.206,32.463z M245.206,35.357c0,0.248,0.123,0.371,0.371,0.371h4.02v-1.336h-4.391V35.357z
				 M253.763,27.119c0-0.049,0.025-0.074,0.074-0.074h-6.621c0.297,0.297,0.594,0.644,0.893,1.039
				c0.148,0.198,0.197,0.421,0.148,0.668h4.166l0.076-0.074c0.049-0.049,0.123-0.148,0.223-0.297
				C253.216,27.837,253.563,27.416,253.763,27.119z M255.325,32.092h-4.018v1.262h4.465v-0.891
				C255.772,32.216,255.624,32.092,255.325,32.092z M255.325,35.728c0.299,0,0.447-0.123,0.447-0.371v-0.965h-4.465v1.336H255.325z"
				/>
		</g>
	</g>
	<g>
		<g>
			<path class="st4" d="M298.135,39.281c-0.451,0.271-0.835,0.249-1.149-0.067c-0.316-0.406-0.294-0.766,0.067-1.082
				c1.713-1.262,3.044-2.592,3.99-3.99c0.36-0.36,0.744-0.45,1.149-0.271c0.45,0.181,0.563,0.451,0.339,0.812
				c-0.181,0.271-0.384,0.541-0.609,0.812h7.439c0.45,0.045,0.699,0.271,0.744,0.676c0,0.451-0.158,0.812-0.474,1.082
				c-1.127,0.992-2.322,1.826-3.584,2.502c1.487,0.451,3.336,0.812,5.546,1.082c0.45,0.135,0.652,0.429,0.608,0.879
				c-0.135,0.406-0.497,0.586-1.082,0.541c-2.751-0.36-5.028-0.901-6.831-1.623c-1.668,0.722-4.125,1.353-7.371,1.894
				c-0.541,0.091-0.903-0.068-1.082-0.474c-0.046-0.541,0.135-0.833,0.541-0.879c2.705-0.406,4.778-0.879,6.222-1.42
				c-0.947-0.496-1.826-1.194-2.638-2.097c-0.271,0.271-0.677,0.632-1.218,1.082C298.473,38.966,298.27,39.145,298.135,39.281z
				 M297.526,49.155c-0.406,0.225-0.768,0.157-1.082-0.203c-0.271-0.361-0.227-0.676,0.135-0.947c1.037-0.585,2.276-1.42,3.72-2.502
				c0.406-0.225,0.767-0.203,1.082,0.068c0.315,0.406,0.293,0.744-0.067,1.014C300.547,47.171,299.284,48.029,297.526,49.155z
				 M297.188,44.691c-0.406-0.044-0.632-0.271-0.677-0.676c0.045-0.45,0.271-0.699,0.677-0.744h6.289v-0.947
				c0.045-0.496,0.315-0.766,0.812-0.812c0.496,0.045,0.767,0.316,0.812,0.812v0.947h5.816c0.406,0.045,0.631,0.294,0.677,0.744
				c-0.046,0.406-0.271,0.632-0.677,0.676h-5.816v2.976c0.09,1.578-0.632,2.344-2.164,2.3c-0.091,0-0.315,0-0.676,0
				c-0.451,0.044-0.768,0.067-0.947,0.067c-0.451,0-0.744-0.226-0.879-0.676c0-0.497,0.203-0.767,0.608-0.812h1.218
				c0.901,0.09,1.307-0.316,1.217-1.217v-2.638H297.188z M300.976,36.779c0.991,0.947,2.097,1.714,3.313,2.299
				c1.218-0.541,2.344-1.217,3.382-2.029c0.09-0.044,0.112-0.09,0.067-0.135c-0.045-0.09-0.113-0.135-0.203-0.135H300.976z
				 M310.646,49.02c-0.135-0.091-0.384-0.249-0.744-0.474c-1.487-0.947-2.525-1.578-3.11-1.894
				c-0.271-0.271-0.316-0.585-0.136-0.947c0.315-0.271,0.698-0.315,1.15-0.135c0.676,0.361,1.758,0.992,3.246,1.894
				c0.271,0.181,0.45,0.294,0.541,0.338c0.36,0.316,0.428,0.653,0.202,1.015C311.48,49.222,311.097,49.29,310.646,49.02z"/>
			<path class="st4" d="M313.893,38.604c-0.405-0.044-0.632-0.292-0.676-0.744c0.044-0.406,0.271-0.631,0.676-0.676h1.759v-2.638
				c0.044-0.45,0.314-0.699,0.812-0.744c0.45,0.091,0.698,0.338,0.744,0.744v2.638h1.556c0.45,0.045,0.698,0.271,0.743,0.676
				c-0.045,0.451-0.293,0.699-0.743,0.744h-1.556v1.961c0.18,0,0.338,0.045,0.474,0.135l1.623,1.556
				c0.314,0.316,0.338,0.654,0.067,1.014c-0.316,0.316-0.654,0.338-1.015,0.068l-1.149-1.217v7.575
				c-0.046,0.406-0.294,0.653-0.744,0.744c-0.497-0.045-0.768-0.293-0.812-0.744v-7.98c-0.541,1.443-1.038,2.525-1.488,3.246
				c-0.226,0.361-0.541,0.429-0.946,0.203c-0.136-0.09-0.203-0.271-0.203-0.541c-0.046-0.18,0.044-0.474,0.271-0.879
				c0.856-1.262,1.623-2.976,2.3-5.14H313.893z M321.061,49.493c-0.586-0.045-0.902-0.361-0.946-0.947V35.899
				c0.044-0.585,0.36-0.901,0.946-0.947h6.831c0.585,0.045,0.901,0.361,0.946,0.947v12.647c-0.045,0.585-0.361,0.901-0.946,0.947
				H321.061z M321.603,36.711v2.638h5.749v-2.638c0-0.225-0.136-0.338-0.406-0.338h-4.937
				C321.738,36.373,321.603,36.486,321.603,36.711z M321.603,40.701v2.976h5.749v-2.976H321.603z M326.945,48.073
				c0.271,0,0.406-0.112,0.406-0.338V45.03h-5.749v2.705c0,0.226,0.136,0.338,0.406,0.338H326.945z"/>
			<path class="st4" d="M332.288,38.875c-0.451-0.044-0.699-0.292-0.743-0.744c0.044-0.45,0.292-0.699,0.743-0.744h3.314
				c-0.181-0.225-0.497-0.653-0.947-1.285c-0.405-0.542-0.676-0.879-0.812-1.015c-0.226-0.36-0.158-0.699,0.203-1.015
				c0.406-0.18,0.788-0.112,1.149,0.203c0.18,0.181,0.541,0.632,1.082,1.353c0.45,0.586,0.744,0.947,0.88,1.082
				c0.18,0.181,0.225,0.406,0.135,0.676h2.503c0.314-0.406,0.946-1.285,1.894-2.638c0.18-0.225,0.292-0.382,0.338-0.473
				c0.314-0.36,0.698-0.45,1.149-0.271c0.45,0.271,0.563,0.608,0.339,1.014c-0.136,0.181-0.43,0.541-0.88,1.083
				c-0.451,0.586-0.767,1.014-0.946,1.285h3.449c0.45,0.045,0.698,0.294,0.743,0.744c-0.045,0.451-0.293,0.699-0.743,0.744h-5.613
				c0,0.722-0.046,1.669-0.136,2.841h6.628c0.495,0.045,0.766,0.293,0.812,0.744c-0.046,0.451-0.316,0.7-0.812,0.744h-6.357
				c0.991,2.661,3.179,4.396,6.561,5.208c0.495,0.225,0.652,0.609,0.474,1.15c-0.227,0.45-0.654,0.585-1.285,0.406
				c-3.473-1.082-5.704-2.863-6.695-5.343c-0.813,2.299-3.021,4.125-6.628,5.478c-0.632,0.225-1.038,0.112-1.218-0.338
				c-0.227-0.451-0.091-0.835,0.406-1.149c3.787-1.262,5.86-3.066,6.222-5.411h-6.087c-0.451-0.044-0.699-0.293-0.744-0.744
				c0.045-0.45,0.293-0.698,0.744-0.744h6.29c0.09-0.991,0.135-1.938,0.135-2.841H332.288z"/>
			<path class="st4" d="M348.655,36.711c-0.406-0.044-0.632-0.271-0.677-0.676c0.045-0.45,0.271-0.699,0.677-0.744h6.763
				c0.406,0.045,0.631,0.294,0.677,0.744c-0.046,0.406-0.271,0.632-0.677,0.676h-1.961v4.125h1.556
				c0.405,0.045,0.631,0.271,0.676,0.676c-0.045,0.451-0.271,0.7-0.676,0.744h-1.556v4.193c0.18-0.044,0.45-0.09,0.812-0.135
				c0.45-0.09,0.766-0.157,0.946-0.203c0.542-0.044,0.834,0.181,0.88,0.676c0.044,0.451-0.181,0.722-0.677,0.812
				c-0.496,0.091-1.42,0.249-2.772,0.473c-1.804,0.36-3.156,0.609-4.058,0.744c-0.451,0-0.744-0.226-0.88-0.676
				c-0.045-0.541,0.18-0.856,0.677-0.947c0.135,0,0.314-0.022,0.541-0.068v-7.236c0.044-0.45,0.271-0.699,0.676-0.744
				c0.45,0.045,0.699,0.294,0.744,0.744v7.034c0.541-0.044,1.104-0.135,1.691-0.271v-9.942H348.655z M354.877,40.498
				c-0.271-0.36-0.248-0.744,0.067-1.15c1.083-1.488,1.938-3.133,2.57-4.937c0.18-0.406,0.518-0.585,1.015-0.541
				c0.495,0.226,0.653,0.564,0.474,1.014c-0.271,0.722-0.564,1.353-0.88,1.894h5.546c0.406,0.045,0.631,0.293,0.677,0.744
				c-0.046,0.451-0.271,0.7-0.677,0.744h-0.879c-0.316,3.156-1.105,5.681-2.367,7.575c0.901,1.082,2.029,1.984,3.382,2.705
				c0.405,0.271,0.518,0.676,0.338,1.217c-0.316,0.45-0.722,0.541-1.218,0.271c-1.397-0.857-2.569-1.826-3.517-2.908
				c-0.946,1.083-2.188,2.074-3.72,2.976c-0.451,0.225-0.856,0.157-1.217-0.203c-0.271-0.451-0.181-0.857,0.271-1.217
				c1.577-0.812,2.817-1.758,3.72-2.84c-1.038-1.713-1.714-3.674-2.029-5.884c-0.045,0-0.067-0.044-0.067-0.136
				c-0.136,0.227-0.294,0.474-0.474,0.744C355.575,40.836,355.237,40.814,354.877,40.498z M357.65,38.266
				c-0.046,0-0.113-0.022-0.203-0.068c0.044,0.045,0.067,0.113,0.067,0.203c0.315,2.57,0.947,4.622,1.894,6.154
				c1.082-1.713,1.713-3.81,1.894-6.29H357.65z"/>
			<path class="st4" d="M365.901,40.43c-0.362-0.044-0.564-0.271-0.609-0.676c0.045-0.36,0.247-0.563,0.609-0.609h6.627V38.74
				c0.09-0.496,0.36-0.766,0.813-0.812c0.45,0.045,0.698,0.316,0.743,0.812v0.406h6.695c0.36,0.045,0.563,0.249,0.609,0.609
				c-0.046,0.406-0.249,0.632-0.609,0.676h-6.695v1.353h4.938c0.676,0,1.015,0.338,1.015,1.015v1.488
				c0.044,1.127-0.52,1.714-1.691,1.758c-0.361,0-0.743,0-1.149,0s-0.654-0.18-0.744-0.541c-0.045-0.36,0.09-0.563,0.406-0.608
				c0.314,0,0.608,0,0.879,0c0.45,0.045,0.698-0.158,0.744-0.609v-0.879c0.044-0.179-0.067-0.292-0.338-0.338h-4.059v1.015
				c1.668,1.939,3.968,3.27,6.898,3.99c0.496,0.225,0.653,0.585,0.474,1.083c-0.181,0.45-0.564,0.585-1.149,0.406
				c-2.705-0.903-4.78-2.165-6.223-3.788v3.99c-0.091,0.45-0.338,0.699-0.743,0.744c-0.452-0.045-0.723-0.294-0.813-0.744v-3.99
				c-1.308,1.533-3.404,2.863-6.289,3.99c-0.497,0.18-0.879,0.044-1.149-0.406c-0.136-0.497,0.021-0.857,0.473-1.082
				c2.976-0.856,5.298-2.276,6.966-4.261v-0.947h-3.854c-0.271,0-0.406,0.135-0.406,0.406v1.894c-0.045,0.451-0.315,0.7-0.812,0.744
				c-0.451-0.09-0.699-0.338-0.743-0.744v-2.57c0-0.676,0.338-1.015,1.014-1.015h4.802V40.43H365.901z M365.36,38.334
				c-0.316-0.271-0.316-0.585,0-0.947c1.172-1.037,2.073-2.141,2.705-3.314c0.225-0.406,0.563-0.541,1.015-0.406
				c0.449,0.181,0.585,0.474,0.405,0.879c-0.045,0.091-0.113,0.203-0.203,0.338c-0.091,0.181-0.158,0.316-0.202,0.406h3.922
				c0.36,0.045,0.563,0.249,0.609,0.609c-0.046,0.361-0.249,0.564-0.609,0.609h-4.869c-0.497,0.676-1.06,1.285-1.69,1.826
				C366.036,38.604,365.675,38.604,365.36,38.334z M370.905,38.672c-0.271,0.271-0.586,0.248-0.946-0.068
				c-0.046-0.09-0.181-0.247-0.406-0.473c-0.226-0.271-0.384-0.428-0.473-0.474c-0.271-0.271-0.271-0.541,0-0.812
				c0.314-0.225,0.631-0.225,0.946,0c0.496,0.497,0.788,0.812,0.879,0.947C371.221,38.063,371.221,38.357,370.905,38.672z
				 M373.543,37.861c-0.361-0.225-0.405-0.541-0.135-0.947c0.766-0.766,1.396-1.713,1.894-2.841c0.135-0.36,0.474-0.496,1.015-0.406
				c0.36,0.181,0.495,0.474,0.405,0.879l-0.338,0.744h4.464c0.405,0.045,0.631,0.249,0.676,0.609
				c-0.045,0.361-0.271,0.564-0.676,0.609h-5.275c-0.046,0.091-0.113,0.203-0.203,0.338c-0.181,0.226-0.429,0.541-0.744,0.947
				C374.264,38.109,373.903,38.131,373.543,37.861z M378.615,38.672c-0.361,0.271-0.676,0.271-0.946,0
				c-0.091-0.09-0.271-0.271-0.541-0.541c-0.271-0.315-0.451-0.496-0.541-0.541c-0.227-0.271-0.203-0.541,0.067-0.812
				c0.314-0.271,0.631-0.271,0.947,0c0.36,0.316,0.698,0.654,1.014,1.014C378.886,38.109,378.886,38.402,378.615,38.672z"/>
		</g>
	</g>
	<g>
		<g>
			<path class="st4" d="M36.418,134.368c-0.82,0-1.23-0.41-1.23-1.23V117.47c0.054-0.765,0.464-1.175,1.23-1.23h15.094
				c0.766,0,1.148,0.41,1.148,1.23v15.668c-0.055,0.765-0.438,1.175-1.148,1.23H36.418z M50.199,132.646
				c0.382,0,0.574-0.191,0.574-0.574v-13.535c0-0.382-0.192-0.574-0.574-0.574H37.648c-0.328,0-0.492,0.192-0.492,0.574v13.535
				c0,0.383,0.164,0.574,0.492,0.574H50.199z M38.879,123.622c-0.547-0.054-0.849-0.355-0.902-0.902
				c0.054-0.492,0.355-0.765,0.902-0.82h4.102v-2.461c0.054-0.546,0.382-0.847,0.984-0.902c0.602,0.055,0.902,0.356,0.902,0.902
				v2.461h4.02c0.546,0.055,0.848,0.328,0.902,0.82c-0.055,0.547-0.356,0.849-0.902,0.902h-4.02c0,0.11-0.028,0.274-0.082,0.492
				c-0.055,0.492-0.11,0.82-0.164,0.984c0.382,0.274,0.984,0.767,1.805,1.477c1.422,1.095,2.406,1.887,2.953,2.379
				c0.438,0.383,0.492,0.849,0.164,1.395c-0.492,0.438-1.013,0.438-1.559,0c-1.367-1.257-2.68-2.433-3.938-3.527
				c-0.767,1.587-2.325,2.981-4.676,4.184c-0.547,0.274-1.039,0.192-1.477-0.246c-0.328-0.546-0.219-0.984,0.328-1.313
				c3.063-1.366,4.647-3.308,4.758-5.824H38.879z"/>
			<path class="st4" d="M58.895,122.146c-0.055,0-0.11,0.028-0.164,0.082h2.051c0.164-0.273,0.41-0.738,0.738-1.395
				c0.328-0.546,0.546-0.929,0.656-1.148c0.273-0.492,0.684-0.656,1.23-0.492c0.438,0.274,0.546,0.629,0.328,1.066
				c-0.219,0.438-0.603,1.095-1.148,1.969h2.215c0.438,0.055,0.684,0.301,0.738,0.738c-0.055,0.492-0.301,0.767-0.738,0.82h-3.691
				c0.109,0.11,0.164,0.246,0.164,0.41v1.723h3.117c0.438,0.055,0.684,0.301,0.738,0.738c-0.055,0.492-0.301,0.767-0.738,0.82
				h-3.117v4.84c0,1.53-0.685,2.324-2.051,2.379c-0.11,0-0.356,0-0.738,0c-0.438,0.054-0.738,0.082-0.902,0.082
				c-0.547,0-0.875-0.301-0.984-0.902c0.054-0.547,0.328-0.849,0.82-0.902c0.109,0,0.273,0.027,0.492,0.082c0.273,0,0.438,0,0.492,0
				c0.71,0,1.066-0.383,1.066-1.148v-4.43h-3.363c-0.492-0.054-0.767-0.328-0.82-0.82c0.054-0.437,0.328-0.683,0.82-0.738h3.363
				v-1.723c0-0.164,0.054-0.3,0.164-0.41h-4.02c-0.492-0.054-0.767-0.328-0.82-0.82c0.054-0.437,0.328-0.683,0.82-0.738h2.543
				c-0.164-0.054-0.301-0.191-0.41-0.41c-0.055-0.054-0.137-0.191-0.246-0.41c-0.328-0.546-0.547-0.902-0.656-1.066
				c-0.219-0.437-0.137-0.792,0.246-1.066c0.492-0.164,0.874-0.054,1.148,0.328c0.109,0.11,0.273,0.328,0.492,0.656
				c0.273,0.383,0.438,0.629,0.492,0.738C59.44,121.436,59.332,121.818,58.895,122.146z M55.531,132.892
				c-0.383-0.274-0.492-0.628-0.328-1.066c0.492-0.929,0.984-1.914,1.477-2.953c0.218-0.437,0.546-0.574,0.984-0.41
				c0.438,0.219,0.602,0.547,0.492,0.984c-0.164,0.274-0.41,0.793-0.738,1.559c-0.383,0.711-0.656,1.23-0.82,1.559
				C56.379,132.946,56.023,133.056,55.531,132.892z M56.187,118.947c-0.438-0.054-0.685-0.328-0.738-0.82
				c0.054-0.437,0.3-0.683,0.738-0.738h3.363c-0.164-0.546-0.328-0.984-0.492-1.313c-0.055-0.546,0.164-0.874,0.656-0.984
				c0.546-0.109,0.956,0.055,1.23,0.492c0,0.055,0.027,0.164,0.082,0.328c0.218,0.711,0.41,1.204,0.574,1.477h2.707
				c0.492,0.055,0.766,0.301,0.82,0.738c-0.055,0.492-0.328,0.767-0.82,0.82H56.187z M64.555,131.743
				c-0.438,0.219-0.82,0.11-1.148-0.328c-0.328-0.492-0.738-1.148-1.23-1.969c-0.219-0.382-0.137-0.738,0.246-1.066
				c0.438-0.164,0.82-0.054,1.148,0.328c0.109,0.164,0.328,0.492,0.656,0.984c0.273,0.438,0.464,0.767,0.574,0.984
				C65.019,131.06,64.936,131.415,64.555,131.743z M64.801,134.779c-0.492-0.328-0.603-0.767-0.328-1.313
				c1.258-1.694,1.858-4.43,1.805-8.203v-7.383c0-0.656,0.328-1.038,0.984-1.148c1.694-0.054,3.691-0.246,5.988-0.574
				c0.602-0.109,0.956,0.137,1.066,0.738c0.054,0.547-0.192,0.875-0.738,0.984c-1.695,0.219-3.392,0.383-5.086,0.492
				c-0.274,0-0.41,0.164-0.41,0.492v3.773h6.07c0.546,0.055,0.848,0.356,0.902,0.902c-0.055,0.492-0.356,0.767-0.902,0.82h-1.641
				v10.008c-0.055,0.546-0.356,0.847-0.902,0.902c-0.492-0.055-0.767-0.356-0.82-0.902v-10.008h-2.707v0.82
				c0.054,4.157-0.603,7.247-1.969,9.27C65.839,134.996,65.402,135.107,64.801,134.779z"/>
			<path class="st4" d="M77.023,126.247c-0.547-0.054-0.849-0.328-0.902-0.82c0.054-0.492,0.355-0.765,0.902-0.82h8.367
				c0.546,0.055,0.848,0.328,0.902,0.82c-0.055,0.492-0.356,0.767-0.902,0.82h-1.148v5.414c0,0.767,0.464,1.148,1.395,1.148h6.563
				c1.094,0.054,1.694-0.382,1.805-1.313c0.054-0.273,0.109-0.792,0.164-1.559c0,0.164,0.027-0.027,0.082-0.574
				c0.054-0.546,0.382-0.792,0.984-0.738c0.492,0.11,0.71,0.492,0.656,1.148c0,0.11-0.028,0.274-0.082,0.492
				c-0.055,0.984-0.137,1.641-0.246,1.969c-0.274,1.53-1.313,2.269-3.117,2.215h-7.301c-1.805,0.054-2.68-0.767-2.625-2.461v-5.742
				h-2.051v1.313c0.109,3.008-0.875,5.414-2.953,7.219c-0.547,0.382-1.013,0.382-1.395,0c-0.328-0.438-0.301-0.875,0.082-1.313
				c1.694-1.477,2.515-3.445,2.461-5.906l0.082-1.313H77.023z M77.598,120.505c-0.547-0.054-0.849-0.328-0.902-0.82v-2.297
				c0.054-0.656,0.41-1.011,1.066-1.066h16.16c0.656,0.055,1.012,0.41,1.066,1.066v2.133c0,0.492-0.301,0.738-0.902,0.738
				c-0.603-0.054-0.931-0.3-0.984-0.738v-1.148c0-0.273-0.137-0.41-0.41-0.41H78.992c-0.219,0-0.356,0.137-0.41,0.41v1.313
				C78.527,120.177,78.199,120.451,77.598,120.505z M78.254,122.228c-0.492-0.054-0.767-0.355-0.82-0.902
				c0.054-0.492,0.328-0.765,0.82-0.82h6.07c0.546,0.055,0.848,0.328,0.902,0.82c-0.055,0.547-0.356,0.849-0.902,0.902H78.254z
				 M86.539,123.376c-0.492-0.054-0.767-0.355-0.82-0.902c0.054-0.492,0.328-0.765,0.82-0.82h4.594v-1.148
				c0.054-0.546,0.355-0.847,0.902-0.902c0.546,0.055,0.848,0.356,0.902,0.902v1.148h1.887c0.492,0.055,0.766,0.328,0.82,0.82
				c-0.055,0.547-0.328,0.849-0.82,0.902h-1.887v5.332c0.109,1.805-0.738,2.68-2.543,2.625c-0.383,0.055-1.095,0.082-2.133,0.082
				c-0.603-0.054-0.957-0.328-1.066-0.82c0.054-0.546,0.3-0.847,0.738-0.902c0.602,0,1.202,0,1.805,0
				c0.984,0.055,1.448-0.382,1.395-1.313v-5.004H86.539z M89.328,128.052c-0.438,0.219-0.82,0.137-1.148-0.246
				c-0.383-0.765-0.793-1.477-1.23-2.133c-0.219-0.437-0.137-0.792,0.246-1.066c0.492-0.218,0.874-0.136,1.148,0.246
				c0.164,0.219,0.41,0.603,0.738,1.148c0.273,0.383,0.464,0.656,0.574,0.82C89.93,127.369,89.82,127.779,89.328,128.052z"/>
			<path class="st4" d="M97.367,134.615c-0.438-0.328-0.547-0.767-0.328-1.313c0.766-1.421,1.12-3.938,1.066-7.547v-8.449
				c0-0.765,0.41-1.148,1.23-1.148h3.527c0.766,0,1.148,0.383,1.148,1.148v15.012c0.054,1.477-0.603,2.215-1.969,2.215
				c-0.328,0.054-0.738,0.082-1.23,0.082s-0.793-0.246-0.902-0.738c0-0.547,0.218-0.875,0.656-0.984
				c0.109,0.054,0.41,0.082,0.902,0.082c0.71,0.054,1.038-0.301,0.984-1.066v-3.855h-2.625c-0.11,2.625-0.547,4.703-1.313,6.234
				C98.187,134.779,97.805,134.887,97.367,134.615z M99.828,118.126v3.199h2.625v-3.199c0-0.328-0.164-0.464-0.492-0.41h-1.641
				C99.992,117.662,99.828,117.798,99.828,118.126z M99.828,126.329v0.164h2.625v-3.691h-2.625V126.329z M105.734,119.849
				c-0.547-0.054-0.849-0.355-0.902-0.902c0.054-0.492,0.355-0.765,0.902-0.82h4.184v-2.133c0.054-0.492,0.355-0.765,0.902-0.82
				c0.546,0.055,0.848,0.328,0.902,0.82v2.133h4.512c0.492,0.055,0.766,0.328,0.82,0.82c-0.055,0.547-0.328,0.849-0.82,0.902h-4.512
				v2.625h3.281c0.656,0.11,1.038,0.492,1.148,1.148v6.07c0.054,1.587-0.603,2.379-1.969,2.379c-0.328,0-0.685,0-1.066,0
				c-0.603,0-0.957-0.273-1.066-0.82c0.054-0.546,0.273-0.847,0.656-0.902h0.82c0.656,0.055,0.956-0.3,0.902-1.066v-4.594
				c-0.055-0.328-0.219-0.519-0.492-0.574h-2.215v10.172c-0.055,0.546-0.356,0.847-0.902,0.902
				c-0.547-0.055-0.849-0.356-0.902-0.902v-10.172h-2.133c-0.219,0.055-0.356,0.219-0.41,0.492v6.973
				c-0.055,0.492-0.356,0.767-0.902,0.82c-0.492-0.054-0.767-0.328-0.82-0.82v-7.957c0.164-0.656,0.546-1.038,1.148-1.148h3.117
				v-2.625H105.734z"/>
			<path class="st4" d="M119.598,134.943c-0.711,0.164-1.177,0.027-1.395-0.41c-0.274-0.603-0.11-1.066,0.492-1.395
				c4.703-1.093,7.328-2.953,7.875-5.578c0.218-0.765,0.382-1.832,0.492-3.199c0.054-0.601,0.382-0.929,0.984-0.984
				c0.602,0.055,0.93,0.383,0.984,0.984c0,0.164-0.028,0.438-0.082,0.82c-0.055,0.767-0.11,1.313-0.164,1.641
				c1.202,3.336,4.047,5.387,8.531,6.152c0.546,0.218,0.71,0.656,0.492,1.313c-0.219,0.437-0.685,0.601-1.395,0.492
				c-4.32-0.931-7.109-2.843-8.367-5.742C127.116,131.772,124.301,133.739,119.598,134.943z M119.844,125.263
				c-0.603,0.164-1.066,0.028-1.395-0.41c-0.219-0.656-0.055-1.093,0.492-1.313c4.594-0.874,7.219-2.324,7.875-4.348
				c0.328-0.765,0.492-1.832,0.492-3.199c0.109-0.601,0.438-0.929,0.984-0.984c0.656,0.055,1.012,0.41,1.066,1.066
				c-0.11,1.587-0.301,2.735-0.574,3.445v0.082c1.038,0.438,2.789,1.204,5.25,2.297c1.586,0.711,2.679,1.204,3.281,1.477
				c0.546,0.274,0.71,0.738,0.492,1.395c-0.328,0.492-0.793,0.629-1.395,0.41c-3.172-1.585-6.017-2.953-8.531-4.102
				C126.734,122.994,124.055,124.389,119.844,125.263z M122.715,120.259c-1.313-1.148-2.161-1.887-2.543-2.215
				c-0.383-0.437-0.41-0.82-0.082-1.148c0.438-0.382,0.902-0.41,1.395-0.082c0.273,0.164,0.848,0.603,1.723,1.313
				c0.438,0.383,0.738,0.629,0.902,0.738c0.382,0.492,0.382,0.931,0,1.313C123.727,120.56,123.261,120.587,122.715,120.259z
				 M123.945,129.611c-0.438,0.383-0.902,0.356-1.395-0.082c-0.219-0.273-0.767-0.82-1.641-1.641
				c-0.274-0.273-0.465-0.464-0.574-0.574c-0.383-0.437-0.356-0.847,0.082-1.23c0.438-0.328,0.874-0.3,1.313,0.082
				c0.218,0.164,0.602,0.521,1.148,1.066c0.602,0.547,0.984,0.902,1.148,1.066C124.409,128.737,124.383,129.174,123.945,129.611z
				 M133.051,129.447c-0.383,0.383-0.849,0.41-1.395,0.082c-0.328-0.437-0.301-0.874,0.082-1.313
				c1.148-0.984,1.94-1.694,2.379-2.133c0.438-0.437,0.902-0.492,1.395-0.164c0.438,0.383,0.464,0.793,0.082,1.23
				C135.047,127.642,134.199,128.408,133.051,129.447z M133.215,120.177c-0.492,0.328-0.957,0.274-1.395-0.164
				c-0.328-0.437-0.301-0.847,0.082-1.23c0.328-0.218,0.956-0.683,1.887-1.395c0.382-0.328,0.656-0.546,0.82-0.656
				c0.492-0.328,0.93-0.3,1.313,0.082c0.328,0.383,0.328,0.793,0,1.23C134.663,118.975,133.761,119.685,133.215,120.177z"/>
			<path class="st4" d="M139.941,128.216c-0.547,0.219-0.902,0.055-1.066-0.492c-0.219-0.546-0.082-0.956,0.41-1.23
				c1.313-0.656,2.269-1.12,2.871-1.395v-0.246v-6.563c0.054-0.656,0.438-1.011,1.148-1.066h6.563
				c-0.055-0.109-0.11-0.273-0.164-0.492c-0.11-0.218-0.192-0.382-0.246-0.492c-0.164-0.601,0.082-0.984,0.738-1.148
				s1.094,0,1.313,0.492c0.054,0.274,0.191,0.711,0.41,1.313c0.054,0.164,0.082,0.274,0.082,0.328h6.152
				c0.438,0.055,0.684,0.328,0.738,0.82c-0.055,0.492-0.301,0.767-0.738,0.82h-13.781c-0.274,0-0.41,0.137-0.41,0.41v5.742
				c0.109,3.937-0.793,7.165-2.707,9.68c-0.383,0.437-0.849,0.492-1.395,0.164c-0.383-0.328-0.438-0.767-0.164-1.313
				c1.53-1.858,2.324-4.046,2.379-6.562C141.199,127.533,140.487,127.943,139.941,128.216z M141.172,124.279
				c-0.438,0.055-0.738-0.109-0.902-0.492c-0.055-0.164-0.137-0.437-0.246-0.82c-0.383-1.313-0.685-2.242-0.902-2.789
				c-0.055-0.437,0.109-0.71,0.492-0.82c0.438-0.109,0.766,0.055,0.984,0.492c0.109,0.328,0.273,0.875,0.492,1.641
				c0.273,0.82,0.464,1.423,0.574,1.805C141.773,123.786,141.609,124.115,141.172,124.279z M144.535,135.025
				c-0.603,0.164-1.039-0.028-1.313-0.574c-0.11-0.603,0.082-0.958,0.574-1.066c2.133-0.438,4.02-1.011,5.66-1.723
				c-1.095-0.984-2.133-2.104-3.117-3.363c-0.11-0.218-0.164-0.41-0.164-0.574h-0.328c-0.438-0.054-0.685-0.3-0.738-0.738
				c0.054-0.492,0.3-0.765,0.738-0.82h10.172c0.492,0.055,0.766,0.328,0.82,0.82c0,0.547-0.164,1.013-0.492,1.395
				c-1.148,1.477-2.297,2.571-3.445,3.281c1.477,0.656,3.253,1.148,5.332,1.477c0.438,0.164,0.602,0.574,0.492,1.23
				c-0.274,0.492-0.711,0.656-1.313,0.492c-2.625-0.547-4.704-1.259-6.234-2.133C149.32,133.712,147.105,134.477,144.535,135.025z
				 M146.34,125.591c-0.492,0.219-0.902,0.137-1.23-0.246c-0.328-0.492-0.274-0.847,0.164-1.066
				c1.313-0.546,1.914-1.395,1.805-2.543v-0.492c0-0.601,0.3-0.902,0.902-0.902h6.563c0.602,0,0.902,0.301,0.902,0.902v1.23
				c-0.055,0.82,0.328,1.204,1.148,1.148h1.313c0.438,0.055,0.628,0.301,0.574,0.738c0,0.492-0.246,0.738-0.738,0.738h-1.887
				c-1.531,0.055-2.27-0.656-2.215-2.133v-0.738c0-0.218-0.11-0.328-0.328-0.328h-4.184c-0.219,0-0.328,0.11-0.328,0.328v0.082
				C148.91,123.733,148.09,124.826,146.34,125.591z M148.062,127.724c0.984,1.204,2.022,2.188,3.117,2.953
				c1.038-0.546,2.104-1.421,3.199-2.625c0.054-0.218,0-0.328-0.164-0.328H148.062z"/>
			<path class="st4" d="M160.531,125.427c-0.328-0.109-0.521-0.355-0.574-0.738c0.273-1.421,0.52-2.953,0.738-4.594
				c0-0.437,0.246-0.656,0.738-0.656c0.438,0.164,0.628,0.438,0.574,0.82c-0.219,1.696-0.438,3.254-0.656,4.676
				C161.241,125.318,160.969,125.482,160.531,125.427z M163.566,135.271c-0.547-0.055-0.849-0.356-0.902-0.902v-18.457
				c0.054-0.492,0.355-0.765,0.902-0.82c0.546,0.055,0.848,0.328,0.902,0.82v3.035c0.109,0,0.246,0.055,0.41,0.164
				c0.656,0.492,1.12,0.849,1.395,1.066c0.382,0.383,0.41,0.82,0.082,1.313c-0.328,0.438-0.711,0.492-1.148,0.164
				c-0.055-0.054-0.11-0.109-0.164-0.164c-0.274-0.218-0.465-0.41-0.574-0.574v13.453
				C164.414,134.914,164.112,135.216,163.566,135.271z M167.094,118.208c-0.438-0.054-0.685-0.3-0.738-0.738
				c0.054-0.328,0.3-0.519,0.738-0.574h4.922v-0.984c0.054-0.546,0.355-0.847,0.902-0.902c0.546,0.055,0.848,0.356,0.902,0.902
				v0.984h5.25c0.382,0.055,0.602,0.246,0.656,0.574c-0.055,0.438-0.274,0.685-0.656,0.738h-5.25v1.313h4.758
				c0.382,0,0.574,0.219,0.574,0.656c0,0.328-0.192,0.521-0.574,0.574h-4.758v1.395h5.578c0.382,0.055,0.602,0.274,0.656,0.656
				c0,0.438-0.219,0.656-0.656,0.656h-12.715c-0.438,0-0.656-0.218-0.656-0.656c0.054-0.382,0.273-0.601,0.656-0.656h5.332v-1.395
				h-4.43c-0.328-0.054-0.521-0.246-0.574-0.574c0.054-0.437,0.246-0.656,0.574-0.656h4.43v-1.313H167.094z M168.242,135.271
				c-0.547-0.055-0.849-0.383-0.902-0.984v-8.449c0-0.71,0.355-1.066,1.066-1.066h9.105c0.71,0,1.066,0.356,1.066,1.066v6.562
				c0.109,1.585-0.685,2.379-2.379,2.379c-0.11,0-0.438,0-0.984,0c-0.82,0.054-1.341,0.082-1.559,0.082
				c-0.603,0-0.902-0.274-0.902-0.82c-0.055-0.547,0.164-0.793,0.656-0.738c0.656,0,1.366,0,2.133,0
				c0.874,0.054,1.284-0.328,1.23-1.148v-0.738h-7.629v2.871C169.09,134.887,168.788,135.216,168.242,135.271z M169.145,126.493
				v1.066h7.629v-1.066c0-0.273-0.137-0.41-0.41-0.41h-6.891C169.254,126.083,169.145,126.22,169.145,126.493z M169.145,128.79
				v1.395h7.629v-1.395H169.145z"/>
			<path class="st4" d="M183.172,122.064c-0.656-0.054-1.013-0.41-1.066-1.066v-3.938c0.054-0.71,0.41-1.066,1.066-1.066h7.793
				c0.71,0,1.066,0.356,1.066,1.066v4.02c-0.055,0.603-0.41,0.931-1.066,0.984h-3.281c0.109,0.11,0.164,0.219,0.164,0.328
				c0.164,0.383,0.273,0.738,0.328,1.066h4.594c0.382,0.055,0.602,0.274,0.656,0.656c-0.055,0.383-0.274,0.603-0.656,0.656h-11.238
				c-0.383-0.054-0.603-0.273-0.656-0.656c0.054-0.382,0.273-0.601,0.656-0.656h4.84c-0.055-0.054-0.082-0.164-0.082-0.328
				c-0.055-0.164-0.082-0.273-0.082-0.328c-0.055-0.328,0.027-0.574,0.246-0.738H183.172z M182.516,134.04
				c-0.383,0.328-0.767,0.328-1.148,0c-0.274-0.328-0.274-0.711,0-1.148c0.656-0.492,1.34-1.148,2.051-1.969
				c0.438-0.382,0.848-0.41,1.23-0.082c0.382,0.328,0.41,0.685,0.082,1.066C183.964,132.782,183.226,133.493,182.516,134.04z
				 M183.336,129.939c-0.656,0-0.984-0.3-0.984-0.902v-2.133c0-0.601,0.328-0.902,0.984-0.902h7.465
				c0.656,0,0.984,0.301,0.984,0.902v2.133c0,0.603-0.328,0.902-0.984,0.902h-2.625v2.871c0,1.366-0.656,2.078-1.969,2.133
				c-0.492,0-1.013,0-1.559,0c-0.438,0-0.711-0.219-0.82-0.656c0.054-0.492,0.273-0.767,0.656-0.82c0.273,0,0.602,0,0.984,0
				c0.71,0.054,1.038-0.274,0.984-0.984v-2.543H183.336z M183.746,117.634v0.902h6.645v-0.902c0-0.273-0.137-0.41-0.41-0.41h-5.824
				C183.882,117.224,183.746,117.361,183.746,117.634z M189.98,120.833c0.273-0.054,0.41-0.164,0.41-0.328v-0.902h-6.645v0.902
				c0,0.164,0.136,0.274,0.41,0.328H189.98z M184.074,127.642v0.738c0,0.164,0.109,0.274,0.328,0.328h5.332
				c0.273,0,0.41-0.109,0.41-0.328v-0.738c0-0.273-0.137-0.41-0.41-0.41h-5.332C184.184,127.232,184.074,127.369,184.074,127.642z
				 M191.047,133.384c-0.492-0.492-1.066-1.011-1.723-1.559c-0.219-0.328-0.219-0.683,0-1.066c0.382-0.273,0.766-0.273,1.148,0
				c0.164,0.11,0.464,0.356,0.902,0.738c0.382,0.328,0.656,0.574,0.82,0.738c0.328,0.382,0.328,0.765,0,1.148
				C191.812,133.712,191.429,133.712,191.047,133.384z M193.672,134.943c-0.603,0.328-1.066,0.246-1.395-0.246
				c-0.274-0.492-0.192-0.931,0.246-1.313c2.734-1.53,4.949-3.363,6.645-5.496c0.438-0.382,0.874-0.41,1.313-0.082
				c0.382,0.438,0.41,0.875,0.082,1.312C198.43,131.579,196.133,133.52,193.672,134.943z M194.656,121.407
				c-0.492,0.219-0.931,0.137-1.313-0.246c-0.328-0.492-0.274-0.902,0.164-1.23c1.694-1.148,3.171-2.406,4.43-3.773
				c0.438-0.382,0.874-0.41,1.313-0.082c0.382,0.438,0.41,0.875,0.082,1.313C198.02,118.756,196.461,120.095,194.656,121.407z
				 M194.738,127.478c-0.492,0.328-0.931,0.274-1.313-0.164c-0.219-0.546-0.137-0.984,0.246-1.313
				c2.022-1.313,3.663-2.761,4.922-4.348c0.438-0.328,0.874-0.328,1.313,0c0.328,0.438,0.328,0.875,0,1.313
				C198.43,124.662,196.707,126.165,194.738,127.478z"/>
			<path class="st4" d="M203.844,131.661c-0.603,0-0.902-0.328-0.902-0.984v-12.141c0.054-0.71,0.355-1.093,0.902-1.148h3.117
				c0.656,0,0.984,0.383,0.984,1.148v12.059c0,0.656-0.328,1.013-0.984,1.066H203.844z M205.977,130.021
				c0.328,0,0.492-0.136,0.492-0.41v-10.172c0-0.218-0.137-0.355-0.41-0.41h-1.23c-0.164,0-0.274,0.137-0.328,0.41v10.172
				c0.054,0.274,0.164,0.41,0.328,0.41H205.977z M210.406,135.435c-0.492-0.055-0.767-0.328-0.82-0.82v-15.504
				c0.054-0.71,0.438-1.093,1.148-1.148h2.379h0.082c0.054-0.328,0.218-0.956,0.492-1.887c0.054-0.164,0.082-0.273,0.082-0.328
				c0.164-0.601,0.546-0.847,1.148-0.738c0.602,0.164,0.848,0.521,0.738,1.066c-0.055,0.11-0.137,0.356-0.246,0.738
				c-0.164,0.547-0.301,0.931-0.41,1.148h4.758c0.71,0.055,1.094,0.438,1.148,1.148v13.125c0.054,1.694-0.738,2.543-2.379,2.543
				c-0.219,0.054-0.875,0.082-1.969,0.082c-0.603-0.055-0.931-0.356-0.984-0.902c0.054-0.492,0.328-0.767,0.82-0.82
				c0.546,0,1.066,0,1.559,0c0.93,0.054,1.366-0.383,1.313-1.313v-11.812c0-0.273-0.137-0.41-0.41-0.41h-7.219
				c-0.274,0-0.41,0.137-0.41,0.41v14.602C211.172,135.107,210.898,135.38,210.406,135.435z M213.687,130.431
				c-0.656,0-0.984-0.3-0.984-0.902v-6.562c0-0.656,0.3-0.984,0.902-0.984h3.199c0.602,0,0.902,0.328,0.902,0.984v6.562
				c0,0.603-0.301,0.902-0.902,0.902H213.687z M215.984,128.872c0.218-0.054,0.355-0.164,0.41-0.328v-4.594
				c0-0.218-0.137-0.355-0.41-0.41h-1.477c-0.274,0-0.41,0.11-0.41,0.328v4.676c0,0.164,0.136,0.274,0.41,0.328H215.984z"/>
			<path class="st4" d="M241.742,134.45c-5.196,0-8.586-0.028-10.172-0.082c-2.079,0-3.72-0.685-4.922-2.051
				c-0.164-0.218-0.356-0.218-0.574,0c-0.711,0.874-1.23,1.53-1.559,1.969c-0.438,0.437-0.902,0.437-1.395,0
				c-0.328-0.492-0.301-0.984,0.082-1.477c0.109-0.11,0.246-0.274,0.41-0.492c0.82-0.874,1.422-1.503,1.805-1.887v-5.906
				c0-0.328-0.137-0.492-0.41-0.492h-1.313c-0.492-0.054-0.767-0.355-0.82-0.902c0.054-0.546,0.355-0.847,0.902-0.902h2.379
				c0.766,0,1.148,0.383,1.148,1.148v7.137c1.038,1.477,2.597,2.187,4.676,2.133c1.641,0.054,5.004,0.082,10.09,0.082
				c0.546,0,0.82,0.3,0.82,0.902C242.836,134.176,242.452,134.45,241.742,134.45z M227.469,119.931
				c-0.547,0.328-1.013,0.219-1.395-0.328c-0.164-0.218-0.521-0.738-1.066-1.559c-0.328-0.492-0.547-0.847-0.656-1.066
				c-0.328-0.437-0.246-0.847,0.246-1.23c0.438-0.218,0.874-0.109,1.313,0.328c0.164,0.164,0.41,0.521,0.738,1.066
				c0.546,0.767,0.93,1.286,1.148,1.559C228.07,119.248,227.961,119.658,227.469,119.931z M229.848,121.243
				c-0.492-0.218-0.629-0.601-0.41-1.148c0.766-1.313,1.366-2.57,1.805-3.773c0.218-0.492,0.574-0.683,1.066-0.574
				c0.546,0.11,0.738,0.438,0.574,0.984c-0.055,0.219-0.164,0.521-0.328,0.902c-0.055,0.11-0.082,0.192-0.082,0.246h2.707v-1.969
				c0.054-0.546,0.355-0.847,0.902-0.902c0.656,0,0.984,0.301,0.984,0.902v1.969h4.266c0.438,0.055,0.684,0.328,0.738,0.82
				c-0.055,0.383-0.301,0.629-0.738,0.738h-4.266v2.379h5.086c0.492,0.055,0.766,0.328,0.82,0.82c0,0.492-0.274,0.767-0.82,0.82
				h-12.797c-0.438-0.054-0.685-0.328-0.738-0.82c0.054-0.492,0.3-0.765,0.738-0.82h5.824v-2.379h-3.363
				c-0.219,0.492-0.465,0.958-0.738,1.395C230.695,121.325,230.285,121.463,229.848,121.243z M231.16,131.005
				c-0.82,0-1.23-0.41-1.23-1.23v-3.609c0-0.82,0.41-1.23,1.23-1.23h8.695c0.82,0,1.23,0.41,1.23,1.23v3.609
				c0,0.82-0.41,1.23-1.23,1.23H231.16z M231.816,126.74v2.461c0,0.274,0.136,0.41,0.41,0.41h6.563c0.273,0,0.41-0.136,0.41-0.41
				v-2.461c0-0.273-0.137-0.41-0.41-0.41h-6.563C231.952,126.329,231.816,126.467,231.816,126.74z"/>
			<path class="st4" d="M244.531,134.861c-0.492-0.274-0.629-0.685-0.41-1.23c0.766-1.366,1.258-2.652,1.477-3.855
				c0.218-1.202,0.328-3.007,0.328-5.414v-4.02c0.054-0.82,0.492-1.257,1.313-1.313h7.957c-0.055-1.038-0.082-2.051-0.082-3.035
				c0.054-0.601,0.355-0.929,0.902-0.984c0.602,0.055,0.93,0.383,0.984,0.984c0,0.984,0.027,1.997,0.082,3.035h5.988
				c0.546,0.055,0.848,0.328,0.902,0.82c-0.055,0.547-0.356,0.849-0.902,0.902h-5.906c0.164,2.68,0.464,5.032,0.902,7.055
				c0.984-1.421,1.887-3.035,2.707-4.84c0.218-0.492,0.628-0.656,1.23-0.492c0.492,0.274,0.628,0.685,0.41,1.23
				c-1.259,2.625-2.489,4.676-3.691,6.152l0.082,0.082c0.602,1.915,1.284,2.871,2.051,2.871c0.438,0,0.766-0.355,0.984-1.066
				c0-0.109,0.027-0.328,0.082-0.656c0.164-0.71,0.273-1.23,0.328-1.559c0.054-0.437,0.355-0.628,0.902-0.574
				c0.492,0.11,0.71,0.465,0.656,1.066c-0.055,0.82-0.219,1.751-0.492,2.789c-0.383,1.366-1.203,2.051-2.461,2.051
				c-1.423,0.054-2.598-1.04-3.527-3.281c-0.984,0.984-2.079,1.94-3.281,2.871c-0.438,0.328-0.902,0.273-1.395-0.164
				c-0.328-0.492-0.274-0.931,0.164-1.313c1.477-0.984,2.734-2.104,3.773-3.363c-0.711-2.515-1.148-5.468-1.313-8.859h-6.891
				c-0.438,0-0.656,0.219-0.656,0.656v2.215h4.43c0.82,0.055,1.258,0.492,1.313,1.313c0,0.438-0.028,1.066-0.082,1.887
				c-0.055,1.148-0.11,2.024-0.164,2.625c-0.055,1.86-0.957,2.817-2.707,2.871c-0.438,0-0.875,0-1.313,0
				c-0.656,0.055-1.039-0.246-1.148-0.902c0.054-0.546,0.328-0.847,0.82-0.902c0.438,0,0.848,0,1.23,0
				c0.874,0,1.34-0.464,1.395-1.395c0.054-1.148,0.082-2.242,0.082-3.281c0-0.328-0.164-0.492-0.492-0.492h-3.363
				c0.109,3.72-0.521,6.782-1.887,9.187C245.516,135.025,245.077,135.134,244.531,134.861z M260.445,118.29
				c-0.82-0.656-1.423-1.093-1.805-1.313c-0.274-0.382-0.246-0.738,0.082-1.066c0.438-0.273,0.848-0.246,1.23,0.082
				c0.438,0.219,1.038,0.629,1.805,1.23c0.382,0.328,0.382,0.711,0,1.148C261.319,118.647,260.883,118.618,260.445,118.29z"/>
			<path class="st4" d="M265.613,134.286c-0.492,0-0.767-0.274-0.82-0.82c0.054-0.492,0.328-0.767,0.82-0.82h1.641v-5.168
				c0-0.765,0.382-1.148,1.148-1.148h13.043c0.82,0,1.23,0.383,1.23,1.148v5.168h1.641c0.438,0.054,0.684,0.328,0.738,0.82
				c-0.055,0.492-0.301,0.765-0.738,0.82H265.613z M267.418,124.853c-0.547-0.054-0.849-0.355-0.902-0.902v-7.137
				c0.054-0.546,0.355-0.847,0.902-0.902c0.546,0.055,0.848,0.356,0.902,0.902v7.137
				C268.266,124.498,267.964,124.799,267.418,124.853z M269.141,128.38v4.266h2.707v-4.758h-2.215
				C269.25,127.834,269.086,127.998,269.141,128.38z M271.93,125.673c-0.547-0.054-0.849-0.355-0.902-0.902v-8.777
				c0.054-0.601,0.355-0.929,0.902-0.984c0.546,0.055,0.848,0.383,0.902,0.984v8.777
				C272.777,125.318,272.476,125.619,271.93,125.673z M273.57,124.115c-0.383-0.328-0.438-0.765-0.164-1.313
				c1.53-2.133,2.734-4.512,3.609-7.137c0.218-0.492,0.628-0.71,1.23-0.656c0.546,0.164,0.766,0.547,0.656,1.148
				c-0.219,0.656-0.492,1.341-0.82,2.051h6.07c0.546,0.055,0.848,0.328,0.902,0.82c-0.055,0.492-0.356,0.767-0.902,0.82h-6.891
				c-0.656,1.477-1.423,2.844-2.297,4.102C274.526,124.389,274.062,124.443,273.57,124.115z M273.57,127.888v4.758h2.707v-4.758
				H273.57z M281.199,124.935c-0.767-0.71-1.805-1.585-3.117-2.625c-0.383-0.382-0.41-0.765-0.082-1.148
				c0.438-0.328,0.874-0.355,1.313-0.082c0.273,0.219,0.792,0.629,1.559,1.23c0.766,0.656,1.284,1.095,1.559,1.313
				c0.382,0.383,0.41,0.793,0.082,1.23C282.073,125.236,281.637,125.263,281.199,124.935z M280.297,127.888H278v4.758h2.789v-4.266
				C280.843,127.998,280.679,127.834,280.297,127.888z"/>
			<path class="st4" d="M286.941,120.669c-0.492-0.054-0.767-0.355-0.82-0.902c0.054-0.546,0.328-0.82,0.82-0.82h1.805v-2.871
				c0.054-0.601,0.355-0.929,0.902-0.984c0.602,0,0.902,0.328,0.902,0.984v2.871h1.641c0.492,0.055,0.766,0.328,0.82,0.82
				c-0.055,0.547-0.328,0.849-0.82,0.902h-1.641v3.855c0.218-0.054,0.52-0.109,0.902-0.164c0.273-0.109,0.492-0.164,0.656-0.164
				c0.546-0.109,0.874,0.11,0.984,0.656c0,0.656-0.274,1.04-0.82,1.148c-0.547,0.164-1.121,0.328-1.723,0.492v5.824
				c0.054,1.585-0.629,2.379-2.051,2.379c-0.328,0-0.711,0-1.148,0c-0.711-0.055-1.095-0.383-1.148-0.984
				c-0.055-0.492,0.164-0.767,0.656-0.82c0.328,0,0.628,0,0.902,0c0.71,0.054,1.038-0.274,0.984-0.984v-4.922
				c-0.656,0.164-1.259,0.328-1.805,0.492c-0.547,0.11-0.902-0.136-1.066-0.738c0-0.656,0.273-1.038,0.82-1.148
				c0.109-0.054,0.328-0.109,0.656-0.164c0.602-0.164,1.066-0.3,1.395-0.41v-4.348H286.941z M292.191,134.861
				c-0.492-0.328-0.574-0.849-0.246-1.559c0.93-1.366,1.504-2.679,1.723-3.938c0.273-1.313,0.41-3.363,0.41-6.152v-3.855
				c0.054-0.765,0.464-1.175,1.23-1.23h3.445v-0.164c0-0.054-0.028-0.109-0.082-0.164c-0.383-0.656-0.629-1.093-0.738-1.313
				c-0.11-0.601,0.082-0.984,0.574-1.148c0.656-0.109,1.094,0.137,1.313,0.738c0.382,0.492,0.656,0.958,0.82,1.395
				c0.109,0.274,0.109,0.492,0,0.656h3.117c0.766,0.055,1.176,0.465,1.23,1.23v5.906c-0.055,0.767-0.465,1.177-1.23,1.23h-7.875
				c-0.055,3.281-0.82,5.935-2.297,7.957C293.258,134.996,292.793,135.134,292.191,134.861z M295.965,123.868v0.82h6.727
				c0.273,0,0.41-0.136,0.41-0.41v-3.938c0-0.328-0.137-0.492-0.41-0.492h-6.234c-0.328,0-0.492,0.164-0.492,0.492V123.868z"/>
			<path class="st4" d="M307.695,121.9c-0.438-0.273-0.574-0.656-0.41-1.148c0.766-1.421,1.448-3.089,2.051-5.004
				c0.164-0.437,0.492-0.628,0.984-0.574c0.492,0.164,0.71,0.492,0.656,0.984c-0.219,0.492-0.41,1.013-0.574,1.559h4.758
				c0.492,0.055,0.766,0.301,0.82,0.738c0,0.492-0.274,0.767-0.82,0.82h-2.461v3.773h3.117c0.492,0.055,0.766,0.328,0.82,0.82
				c-0.055,0.492-0.328,0.767-0.82,0.82h-3.117v6.891h1.313c0.273,0,0.41-0.136,0.41-0.41v-4.266c0.054-0.437,0.3-0.683,0.738-0.738
				c0.438,0.055,0.684,0.301,0.738,0.738v5.25c0,0.656-0.301,0.984-0.902,0.984h-6.316c-0.603,0-0.902-0.328-0.902-0.984v-5.25
				c0.054-0.437,0.3-0.683,0.738-0.738c0.438,0.055,0.684,0.301,0.738,0.738v4.266c0,0.274,0.136,0.41,0.41,0.41h1.395v-6.891
				h-3.363c-0.492-0.054-0.767-0.328-0.82-0.82c0.054-0.492,0.328-0.765,0.82-0.82h3.363v-3.773h-1.313
				c-0.11,0.383-0.328,0.931-0.656,1.641c-0.164,0.274-0.274,0.492-0.328,0.656C308.434,122.01,308.077,122.119,307.695,121.9z
				 M317.375,126.74c-0.492-0.054-0.767-0.355-0.82-0.902c0.054-0.492,0.328-0.765,0.82-0.82h2.215
				c0.054-1.093,0.082-2.625,0.082-4.594h-2.051c-0.492-0.054-0.767-0.328-0.82-0.82c0.054-0.546,0.328-0.82,0.82-0.82h2.133
				c0-0.874,0-1.805,0-2.789c0.054-0.546,0.328-0.82,0.82-0.82c0.546,0.055,0.848,0.328,0.902,0.82c0,0.984-0.028,1.915-0.082,2.789
				h3.035c0.656,0.055,1.012,0.383,1.066,0.984v5.25h0.82c0.492,0.055,0.766,0.328,0.82,0.82c-0.055,0.547-0.328,0.849-0.82,0.902
				h-4.594c0.874,2.844,2.351,4.95,4.43,6.316c0.492,0.382,0.574,0.847,0.246,1.395c-0.383,0.437-0.849,0.492-1.395,0.164
				c-2.079-1.641-3.5-3.745-4.266-6.316c-0.492,2.407-1.723,4.565-3.691,6.48c-0.383,0.328-0.82,0.3-1.313-0.082
				c-0.328-0.438-0.301-0.902,0.082-1.395c2.078-1.75,3.281-3.938,3.609-6.562H317.375z M323.527,120.423h-2.133
				c0,1.751-0.055,3.281-0.164,4.594h2.707v-4.184C323.937,120.56,323.801,120.423,323.527,120.423z"/>
			<path class="st4" d="M329.68,123.54c-0.492-0.382-0.603-0.82-0.328-1.313c1.148-1.694,2.051-3.554,2.707-5.578
				c0.218-0.601,0.628-0.847,1.23-0.738c0.546,0.164,0.766,0.574,0.656,1.23c-0.055,0.219-0.192,0.603-0.41,1.148
				c-0.164,0.328-0.274,0.574-0.328,0.738h4.266c0-0.929,0-1.969,0-3.117c0.054-0.656,0.41-1.011,1.066-1.066
				c0.602,0.055,0.93,0.383,0.984,0.984c-0.055,1.148-0.082,2.215-0.082,3.199h6.809c0.546,0.055,0.848,0.356,0.902,0.902
				c-0.055,0.603-0.356,0.931-0.902,0.984h-6.891c-0.055,1.313-0.137,2.571-0.246,3.773h8.039c0.602,0.055,0.93,0.356,0.984,0.902
				c-0.055,0.547-0.383,0.849-0.984,0.902h-7.711c1.038,3.063,3.691,5.196,7.957,6.398c0.602,0.328,0.766,0.82,0.492,1.477
				c-0.383,0.492-0.902,0.628-1.559,0.41c-4.156-1.313-6.863-3.554-8.121-6.727c-0.984,2.953-3.855,5.277-8.613,6.973
				c-0.656,0.218-1.177,0.082-1.559-0.41c-0.219-0.656-0.055-1.148,0.492-1.477c4.812-1.585,7.547-3.8,8.203-6.645h-8.039
				c-0.547-0.054-0.849-0.355-0.902-0.902c0.054-0.546,0.355-0.847,0.902-0.902h8.449c0.164-1.148,0.246-2.406,0.246-3.773h-5.004
				c-0.219,0.438-0.574,1.04-1.066,1.805c-0.11,0.219-0.192,0.356-0.246,0.41C330.691,123.622,330.226,123.76,329.68,123.54z"/>
			<path class="st4" d="M35.926,173.794c-0.711-0.055-1.095-0.438-1.148-1.148v-12.961c0.054-0.71,0.438-1.093,1.148-1.148h1.066
				c0.109-0.437,0.164-0.574,0.164-0.41c0.273-1.038,0.464-1.75,0.574-2.133c0.164-0.656,0.546-0.929,1.148-0.82
				c0.656,0.11,0.93,0.492,0.82,1.148c-0.11,0.274-0.274,0.767-0.492,1.477c-0.11,0.328-0.192,0.574-0.246,0.738h2.625
				c0.656,0.055,1.012,0.438,1.066,1.148v12.961c-0.055,0.71-0.41,1.093-1.066,1.148H35.926z M36.664,160.751v4.594h4.184v-4.594
				c0-0.273-0.137-0.41-0.41-0.41h-3.363C36.8,160.341,36.664,160.478,36.664,160.751z M40.437,171.99c0.273,0,0.41-0.136,0.41-0.41
				v-4.594h-4.184v4.594c0,0.274,0.136,0.41,0.41,0.41H40.437z M43.719,163.294c-0.438-0.328-0.547-0.765-0.328-1.313
				c0.82-1.366,1.694-3.39,2.625-6.07c0.164-0.546,0.574-0.792,1.23-0.738c0.546,0.164,0.766,0.547,0.656,1.148
				c-0.219,0.711-0.492,1.45-0.82,2.215h4.922c0.71,0.055,1.094,0.438,1.148,1.148c0,0.438-0.028,1.095-0.082,1.969
				c-0.055,4.321-0.137,7.411-0.246,9.27c0,2.515-1.177,3.745-3.527,3.691c-0.492,0.054-1.367,0.082-2.625,0.082
				c-0.711-0.055-1.121-0.41-1.23-1.066c0.054-0.547,0.328-0.849,0.82-0.902c0.766,0.054,1.559,0.082,2.379,0.082
				c1.53,0.109,2.297-0.628,2.297-2.215c0-0.164,0-0.437,0-0.82c0.164-4.21,0.246-7.219,0.246-9.023c0-0.273-0.137-0.41-0.41-0.41
				h-4.43c-0.438,0.984-0.875,1.86-1.313,2.625C44.757,163.405,44.32,163.513,43.719,163.294z M48.723,168.462
				c-0.603,0.328-1.066,0.246-1.395-0.246c-0.492-0.82-1.259-1.858-2.297-3.117c-0.274-0.492-0.192-0.902,0.246-1.23
				c0.438-0.273,0.874-0.218,1.313,0.164c0.328,0.383,0.792,1.013,1.395,1.887c0.438,0.547,0.738,0.958,0.902,1.23
				C49.215,167.697,49.16,168.134,48.723,168.462z"/>
			<path class="st4" d="M57.008,174.532c-0.603,0.437-1.177,0.464-1.723,0.082c-0.383-0.547-0.356-1.095,0.082-1.641
				c1.75-1.366,2.953-2.816,3.609-4.348c0.602-1.477,0.902-3.663,0.902-6.563v-5.742c0.054-0.601,0.41-0.929,1.066-0.984
				c0.602,0.055,0.93,0.383,0.984,0.984v6.07C62.203,167.806,60.562,171.854,57.008,174.532z M69.395,174.368
				c-2.133,0.164-3.146-0.931-3.035-3.281V156.24c0.054-0.601,0.382-0.929,0.984-0.984c0.602,0.055,0.93,0.383,0.984,0.984v14.602
				c-0.055,1.095,0.41,1.614,1.395,1.559h1.066c1.094,0.055,1.694-0.464,1.805-1.559c0-0.109,0.027-0.3,0.082-0.574
				c0-0.382,0.082-1.12,0.246-2.215c0.109-0.601,0.464-0.902,1.066-0.902c0.602,0.164,0.874,0.574,0.82,1.23
				c-0.11,1.259-0.246,2.407-0.41,3.445c-0.274,1.75-1.423,2.597-3.445,2.543H69.395z"/>
			<path class="st4" d="M79.402,169.118c-0.767,0-1.148-0.41-1.148-1.23v-4.102c0.054-0.71,0.438-1.093,1.148-1.148h13.043
				c0.71,0.055,1.094,0.438,1.148,1.148v4.102c0,0.82-0.383,1.23-1.148,1.23h-5.578v1.23h7.219c0.438,0,0.656,0.219,0.656,0.656
				c0,0.328-0.219,0.521-0.656,0.574h-7.219v1.395h8.613c0.382,0.054,0.602,0.273,0.656,0.656c-0.055,0.382-0.274,0.601-0.656,0.656
				H76.367c-0.383-0.055-0.603-0.274-0.656-0.656c0.054-0.383,0.273-0.603,0.656-0.656h8.613v-1.395h-7.219
				c-0.383-0.054-0.603-0.246-0.656-0.574c0.054-0.382,0.273-0.601,0.656-0.656h7.219v-1.23H79.402z M77.516,158.29
				c-0.383-0.054-0.603-0.273-0.656-0.656c0.054-0.382,0.273-0.601,0.656-0.656h7.547l-0.328-1.066
				c-0.055-0.601,0.218-0.956,0.82-1.066c0.602-0.109,1.012,0.11,1.23,0.656l0.328,1.477h7.301c0.382,0.055,0.602,0.274,0.656,0.656
				c-0.055,0.383-0.274,0.603-0.656,0.656h-3.281c0.273,0.274,0.273,0.547,0,0.82c-0.055,0.11-0.164,0.274-0.328,0.492
				c-0.164,0.274-0.301,0.465-0.41,0.574h5.004c0.382,0.055,0.602,0.274,0.656,0.656c-0.055,0.383-0.274,0.603-0.656,0.656H76.531
				c-0.383-0.054-0.603-0.273-0.656-0.656c0.054-0.382,0.273-0.601,0.656-0.656h5.168c-0.164-0.164-0.356-0.41-0.574-0.738
				c-0.11-0.164-0.192-0.273-0.246-0.328c-0.219-0.273-0.219-0.546,0-0.82H77.516z M80.141,164.279v0.984h4.84v-1.395h-4.43
				C80.276,163.868,80.141,164.006,80.141,164.279z M80.141,167.478c0,0.274,0.136,0.41,0.41,0.41h4.43v-1.477h-4.84V167.478z
				 M89.574,158.372c0-0.054,0.027-0.082,0.082-0.082h-7.301c0.328,0.328,0.656,0.711,0.984,1.148
				c0.164,0.219,0.218,0.465,0.164,0.738h4.594l0.082-0.082c0.054-0.054,0.136-0.164,0.246-0.328
				C88.972,159.166,89.355,158.7,89.574,158.372z M91.297,163.868h-4.43v1.395h4.922v-0.984
				C91.789,164.006,91.625,163.868,91.297,163.868z M91.297,167.888c0.328,0,0.492-0.136,0.492-0.41v-1.066h-4.922v1.477H91.297z"/>
			<path class="st4" d="M97.941,160.587c-0.492-0.054-0.767-0.355-0.82-0.902c0.054-0.492,0.328-0.765,0.82-0.82h3.445v-2.707
				c0.054-0.546,0.355-0.847,0.902-0.902c0.546,0.055,0.848,0.356,0.902,0.902v2.707h3.363c0.492,0.055,0.766,0.328,0.82,0.82
				c-0.055,0.547-0.328,0.849-0.82,0.902h-3.363v5.496c0.218-0.054,0.41,0,0.574,0.164c0.328,0.274,0.848,0.767,1.559,1.477
				c0.766,0.767,1.313,1.286,1.641,1.559c0.382,0.438,0.41,0.849,0.082,1.23c-0.492,0.383-0.931,0.383-1.313,0
				c-0.274-0.273-0.685-0.71-1.23-1.313c-0.603-0.601-1.039-1.038-1.313-1.313v4.348c0.054,1.694-0.767,2.543-2.461,2.543
				c-0.656,0-1.313,0-1.969,0c-0.547-0.055-0.875-0.356-0.984-0.902c0-0.547,0.3-0.82,0.902-0.82h1.395
				c0.93,0.054,1.366-0.356,1.313-1.23v-3.773c-0.547,0.492-1.395,1.259-2.543,2.297c0.109-0.164-0.028-0.054-0.41,0.328
				c-0.438,0.274-0.849,0.192-1.23-0.246c-0.164-0.601-0.055-1.038,0.328-1.313c1.75-1.366,3.007-2.406,3.773-3.117h0.082v-5.414
				H97.941z M100.238,165.345c-0.438,0.219-0.793,0.137-1.066-0.246c-0.164-0.328-0.492-0.82-0.984-1.477
				c-0.164-0.218-0.274-0.382-0.328-0.492c-0.219-0.437-0.164-0.792,0.164-1.066c0.438-0.273,0.792-0.191,1.066,0.246
				c0.164,0.219,0.464,0.656,0.902,1.313c0.218,0.328,0.382,0.547,0.492,0.656C100.758,164.717,100.676,165.072,100.238,165.345z
				 M104.094,165.427c-0.328-0.273-0.383-0.601-0.164-0.984c0.328-0.546,0.792-1.23,1.395-2.051
				c0.218-0.382,0.574-0.492,1.066-0.328c0.328,0.274,0.41,0.629,0.246,1.066c-0.274,0.438-0.767,1.148-1.477,2.133
				C104.832,165.646,104.476,165.701,104.094,165.427z M105.57,157.88c-0.11-0.109-0.301-0.246-0.574-0.41
				c-0.383-0.328-0.629-0.546-0.738-0.656c-0.219-0.328-0.192-0.628,0.082-0.902c0.328-0.273,0.656-0.273,0.984,0
				c0.438,0.328,0.848,0.685,1.23,1.066c0.273,0.274,0.273,0.603,0,0.984C106.172,158.237,105.844,158.208,105.57,157.88z
				 M106.637,165.345c-0.383-0.437-0.41-0.902-0.082-1.395c1.422-2.187,2.488-4.812,3.199-7.875c0.218-0.492,0.574-0.71,1.066-0.656
				c0.546,0.164,0.766,0.521,0.656,1.066c-0.219,0.82-0.465,1.587-0.738,2.297h5.25c0.546,0.055,0.848,0.383,0.902,0.984
				c-0.055,0.547-0.356,0.849-0.902,0.902h-0.656c-0.383,3.665-1.259,6.591-2.625,8.777c0.82,1.204,2.051,2.297,3.691,3.281
				c0.546,0.437,0.656,0.929,0.328,1.477c-0.383,0.546-0.875,0.656-1.477,0.328c-1.423-1.04-2.625-2.215-3.609-3.527
				c-1.095,1.368-2.543,2.652-4.348,3.855c-0.547,0.328-1.013,0.273-1.395-0.164c-0.328-0.547-0.274-1.013,0.164-1.395
				c1.969-1.202,3.473-2.515,4.512-3.938c-0.984-1.53-1.669-3.363-2.051-5.496c-0.164,0.492-0.41,0.931-0.738,1.313
				C107.511,165.619,107.129,165.673,106.637,165.345z M109.754,161.407c0.328,2.516,0.93,4.649,1.805,6.398
				c1.038-1.914,1.723-4.292,2.051-7.137h-3.527C110.027,160.888,109.918,161.135,109.754,161.407z"/>
			<path class="st4" d="M135.84,159.357c0.82,0,1.23,0.438,1.23,1.313c0,3.938-0.11,7.52-0.328,10.746
				c0,2.297-1.066,3.472-3.199,3.527c-0.711,0-1.367,0-1.969,0c-0.656-0.11-1.039-0.41-1.148-0.902
				c-0.055-0.603,0.218-0.931,0.82-0.984c0.218,0,0.546,0,0.984,0c0.492,0.054,0.874,0.082,1.148,0.082
				c1.038,0,1.586-0.603,1.641-1.805c0.218-2.461,0.328-5.714,0.328-9.762c0-0.382-0.192-0.574-0.574-0.574h-2.789
				c0,0.219-0.028,0.492-0.082,0.82c0,0.328,0,0.547,0,0.656c-0.055,5.797-1.395,9.926-4.02,12.387
				c-0.438,0.382-0.875,0.41-1.313,0.082c-0.438-0.438-0.465-0.931-0.082-1.477c0.382-0.383,0.738-0.793,1.066-1.23h-0.082
				c-3.063,0.328-5.961,0.683-8.695,1.066c-0.547,0-0.902-0.301-1.066-0.902c-0.055-0.546,0.246-0.874,0.902-0.984
				c0.218,0,0.492-0.027,0.82-0.082v-13.945c0-0.656,0.328-0.984,0.984-0.984h5.332c0.656,0,0.984,0.328,0.984,0.984v13.125
				c0.382,0,0.628-0.027,0.738-0.082c0.492,0,0.792,0.192,0.902,0.574c1.038-1.75,1.612-4.594,1.723-8.531
				c0-0.437,0.027-0.929,0.082-1.477h-1.723c-0.547-0.054-0.849-0.328-0.902-0.82c0.054-0.492,0.328-0.765,0.82-0.82h1.805
				c0-1.202,0.027-2.379,0.082-3.527c0.054-0.546,0.355-0.847,0.902-0.902c0.546,0.055,0.848,0.356,0.902,0.902
				c0,1.095-0.028,2.27-0.082,3.527H135.84z M121.238,158.536v2.789h3.773v-2.789c0-0.328-0.137-0.492-0.41-0.492h-2.953
				C121.374,158.044,121.238,158.208,121.238,158.536z M121.238,162.802v3.281h3.773v-3.281H121.238z M121.238,171.169
				c0.438-0.054,1.066-0.136,1.887-0.246c0.874-0.054,1.504-0.109,1.887-0.164v-3.199h-3.773V171.169z"/>
			<path class="st4" d="M139.203,165.919c-0.274-0.109-0.41-0.328-0.41-0.656c0-0.273,0.054-0.519,0.164-0.738
				c1.53-2.351,2.761-5.222,3.691-8.613c0.164-0.546,0.574-0.765,1.23-0.656c0.546,0.164,0.766,0.547,0.656,1.148
				c-0.438,1.368-0.902,2.68-1.395,3.938v14.027c-0.055,0.492-0.356,0.792-0.902,0.902c-0.547-0.055-0.849-0.356-0.902-0.902
				v-10.336c-0.11,0.164-0.219,0.383-0.328,0.656c-0.11,0.11-0.301,0.41-0.574,0.902
				C140.105,166.083,139.695,166.194,139.203,165.919z M147.16,163.13c-0.711-0.109-1.121-0.519-1.23-1.23v-4.512
				c0.109-0.765,0.52-1.175,1.23-1.23h8.859c0.766,0.055,1.176,0.465,1.23,1.23v4.512c-0.055,0.767-0.465,1.177-1.23,1.23h-3.609
				c0.054,0.11,0.082,0.219,0.082,0.328v2.215h5.66c0.546,0,0.82,0.274,0.82,0.82c-0.055,0.492-0.328,0.767-0.82,0.82h-4.43
				c1.038,1.805,2.597,3.228,4.676,4.266c0.492,0.383,0.628,0.849,0.41,1.395c-0.438,0.437-0.902,0.519-1.395,0.246
				c-2.188-1.202-3.828-2.871-4.922-5.004v6.07c-0.055,0.546-0.356,0.847-0.902,0.902c-0.603-0.055-0.931-0.356-0.984-0.902v-5.988
				c-1.203,2.133-2.926,3.884-5.168,5.25c-0.547,0.273-1.013,0.164-1.395-0.328c-0.219-0.492-0.137-0.902,0.246-1.23
				c2.242-1.313,3.938-2.871,5.086-4.676h-4.43c-0.547-0.054-0.849-0.328-0.902-0.82c0.054-0.492,0.355-0.765,0.902-0.82h5.66
				v-2.215c0-0.109,0.027-0.218,0.082-0.328H147.16z M154.871,161.407c0.382,0,0.574-0.164,0.574-0.492v-2.543
				c0-0.328-0.192-0.492-0.574-0.492h-6.563c-0.328,0.055-0.521,0.219-0.574,0.492v2.543c0,0.274,0.191,0.438,0.574,0.492H154.871z"
				/>
			<path class="st4" d="M160.941,160.669c-0.492-0.054-0.767-0.355-0.82-0.902c0.054-0.546,0.328-0.82,0.82-0.82h1.805v-2.871
				c0.054-0.601,0.355-0.929,0.902-0.984c0.602,0,0.902,0.328,0.902,0.984v2.871h1.641c0.492,0.055,0.766,0.328,0.82,0.82
				c-0.055,0.547-0.328,0.849-0.82,0.902h-1.641v3.855c0.218-0.054,0.52-0.109,0.902-0.164c0.273-0.109,0.492-0.164,0.656-0.164
				c0.546-0.109,0.874,0.11,0.984,0.656c0,0.656-0.274,1.04-0.82,1.148c-0.547,0.164-1.121,0.328-1.723,0.492v5.824
				c0.054,1.585-0.629,2.379-2.051,2.379c-0.328,0-0.711,0-1.148,0c-0.711-0.055-1.095-0.383-1.148-0.984
				c-0.055-0.492,0.164-0.767,0.656-0.82c0.328,0,0.628,0,0.902,0c0.71,0.054,1.038-0.274,0.984-0.984v-4.922
				c-0.656,0.164-1.259,0.328-1.805,0.492c-0.547,0.11-0.902-0.136-1.066-0.738c0-0.656,0.273-1.038,0.82-1.148
				c0.109-0.054,0.328-0.109,0.656-0.164c0.602-0.164,1.066-0.3,1.395-0.41v-4.348H160.941z M166.191,174.861
				c-0.492-0.328-0.574-0.849-0.246-1.559c0.93-1.366,1.504-2.679,1.723-3.938c0.273-1.313,0.41-3.363,0.41-6.152v-3.855
				c0.054-0.765,0.464-1.175,1.23-1.23h3.445v-0.164c0-0.054-0.028-0.109-0.082-0.164c-0.383-0.656-0.629-1.093-0.738-1.313
				c-0.11-0.601,0.082-0.984,0.574-1.148c0.656-0.109,1.094,0.137,1.313,0.738c0.382,0.492,0.656,0.958,0.82,1.395
				c0.109,0.274,0.109,0.492,0,0.656h3.117c0.766,0.055,1.176,0.465,1.23,1.23v5.906c-0.055,0.767-0.465,1.177-1.23,1.23h-7.875
				c-0.055,3.281-0.82,5.935-2.297,7.957C167.258,174.996,166.793,175.134,166.191,174.861z M169.965,163.868v0.82h6.727
				c0.273,0,0.41-0.136,0.41-0.41v-3.938c0-0.328-0.137-0.492-0.41-0.492h-6.234c-0.328,0-0.492,0.164-0.492,0.492V163.868z"/>
			<path class="st4" d="M183.09,158.947c-0.603-0.054-0.931-0.382-0.984-0.984c0.054-0.601,0.382-0.929,0.984-0.984h15.586
				c0.602,0.055,0.93,0.383,0.984,0.984c-0.055,0.603-0.383,0.931-0.984,0.984h-6.645v12.715h7.793
				c0.602,0.055,0.93,0.383,0.984,0.984c-0.055,0.601-0.383,0.929-0.984,0.984h-17.883c-0.603-0.055-0.931-0.383-0.984-0.984
				c0.109-0.601,0.438-0.929,0.984-0.984h7.957v-12.715H183.09z"/>
			<path class="st4" d="M202.203,166.165c-0.219-0.164-0.328-0.41-0.328-0.738c0-0.273,0.054-0.519,0.164-0.738
				c1.694-2.625,3.063-5.55,4.102-8.777c0.218-0.546,0.628-0.765,1.23-0.656c0.546,0.164,0.766,0.547,0.656,1.148
				c-0.383,1.313-0.875,2.571-1.477,3.773v14.191c-0.055,0.546-0.356,0.847-0.902,0.902c-0.547-0.055-0.849-0.356-0.902-0.902v-10.5
				c-0.11,0.164-0.246,0.383-0.41,0.656c-0.383,0.603-0.656,1.04-0.82,1.313C203.187,166.329,202.749,166.44,202.203,166.165z
				 M208.109,164.279c-0.492-0.382-0.547-0.847-0.164-1.395c1.366-1.914,2.543-4.21,3.527-6.891c0.218-0.546,0.628-0.792,1.23-0.738
				c0.546,0.164,0.766,0.547,0.656,1.148c-0.055,0.219-0.192,0.547-0.41,0.984c-0.164,0.438-0.301,0.767-0.41,0.984h8.695
				c0.546,0.055,0.848,0.328,0.902,0.82c-0.055,0.603-0.356,0.931-0.902,0.984h-6.316v3.281h5.25
				c0.492,0.055,0.766,0.356,0.82,0.902c-0.055,0.492-0.328,0.767-0.82,0.82h-5.25v3.363h5.824c0.492,0.055,0.766,0.356,0.82,0.902
				c-0.055,0.547-0.328,0.849-0.82,0.902h-5.824v3.938c-0.055,0.601-0.383,0.929-0.984,0.984c-0.547-0.055-0.849-0.383-0.902-0.984
				v-14.109h-1.313c-0.656,1.368-1.367,2.625-2.133,3.773C209.094,164.553,208.602,164.662,208.109,164.279z"/>
		</g>
	</g>
	<path class="st3" d="M91.841,42.9c0,2.923-2.369,5.292-5.292,5.292s-5.292-2.37-5.292-5.292"/>
</g>
</svg>