<!-- Generator: Adobe Illustrator 24.0.1, SVG Export Plug-In  -->
<svg version="1.1" xmlns="http://www.w3.org/2000/svg" xmlns:xlink="http://www.w3.org/1999/xlink" x="0px" y="0px"
	 width="408.616px" height="93.11px" viewBox="0 0 408.616 93.11" style="enable-background:new 0 0 408.616 93.11;"
	 xml:space="preserve">
<style type="text/css">
	.st0{fill:#BF2222;}
	.st1{fill:none;}
	.st2{font-family:'HYQiuShi-W';}
	.st3{font-size:72px;}
</style>
<defs>
</defs>
<g>
	<g>
		<path class="st0" d="M78.667,59.688c0,0.865-0.241,1.668-0.72,2.412c-0.48,0.744-1.092,1.393-1.836,1.945
			c-0.745,0.551-1.573,0.971-2.484,1.26c-0.912,0.287-1.825,0.432-2.736,0.432c-1.008-0.288-2.028-0.696-3.06-1.225
			c-1.033-0.528-2.028-1.104-2.988-1.728c-0.961-0.624-1.849-1.296-2.664-2.017c-0.817-0.719-1.488-1.414-2.016-2.088
			c1.536,0.193,3.06,0.324,4.572,0.396c1.512,0.072,2.772,0.107,3.78,0.107c1.055,0,1.751-0.18,2.088-0.539
			c0.335-0.36,0.504-1.02,0.504-1.98V33.768H43.676c-1.537,0-2.833,0.025-3.888,0.072c-1.056,0.049-1.957,0.108-2.7,0.18
			c-0.745,0.072-1.356,0.133-1.836,0.181c-0.48,0.048-0.912,0.071-1.296,0.071c-1.056,0-1.753-0.371-2.088-1.115
			c-0.336-0.744-0.504-1.739-0.504-2.988c0.527,0.145,1.427,0.265,2.7,0.36c1.271,0.097,2.436,0.144,3.492,0.144h39.384
			c1.536,0,2.88-0.107,4.032-0.324c1.152-0.215,1.847-0.467,2.088-0.756c0.767,0,1.523,0.098,2.268,0.289
			c0.744,0.191,1.404,0.432,1.98,0.719c0.576,0.289,1.044,0.613,1.404,0.973c0.36,0.359,0.54,0.732,0.54,1.115
			c0,0.529-0.144,0.926-0.432,1.188c-0.288,0.265-0.841,0.396-1.656,0.396c-0.336,0-0.708-0.023-1.116-0.071
			c-0.409-0.048-0.913-0.096-1.512-0.144c-0.601-0.048-1.368-0.108-2.304-0.181c-0.936-0.071-2.124-0.108-3.564-0.108V59.688z
			 M80.827,28.512c-0.625,0.817-1.62,1.188-2.988,1.117c-1.368-0.072-2.749-0.541-4.14-1.404c-0.529-0.336-1.309-0.828-2.34-1.477
			c-1.033-0.648-2.221-1.367-3.564-2.16c-1.344-0.791-2.784-1.619-4.32-2.484c-1.537-0.863-3.096-1.703-4.68-2.52
			c-2.352,3.456-5.46,5.977-9.324,7.561c-3.864,1.584-8.316,2.375-13.356,2.375c3.168-1.486,6.156-3.264,8.964-5.327
			s5.123-4.464,6.948-7.2H36.475c-0.769,0-1.296-0.288-1.584-0.863c-0.288-0.576-0.432-1.488-0.432-2.736
			c0.528,0.144,1.428,0.264,2.7,0.359c1.271,0.098,2.436,0.145,3.492,0.145h13.176c0.096-0.288,0.191-0.504,0.288-0.648
			c0.383-0.959,0.636-2.027,0.756-3.203c0.119-1.176,0.036-2.148-0.252-2.916c0.432-0.191,0.792-0.348,1.08-0.469
			c0.288-0.119,0.587-0.227,0.9-0.324c0.312-0.096,0.659-0.168,1.044-0.216c0.384-0.048,0.911-0.071,1.584-0.071
			c1.296,0,2.268,0.264,2.916,0.791c0.648,0.529,0.875,1.297,0.684,2.305c-0.192,0.863-0.385,1.691-0.576,2.484
			c-0.192,0.791-0.408,1.547-0.648,2.268h15.336c1.008,0,1.883-0.108,2.628-0.324c0.744-0.217,1.235-0.443,1.476-0.684
			c0.479,0,1.02,0.061,1.62,0.18c0.6,0.12,1.163,0.287,1.692,0.504c0.528,0.216,0.96,0.48,1.296,0.792
			c0.335,0.313,0.504,0.66,0.504,1.044c0,0.529-0.144,0.925-0.432,1.188c-0.288,0.265-0.817,0.396-1.584,0.396H60.307
			c-0.144,0.24-0.277,0.48-0.396,0.721c-0.121,0.24-0.252,0.479-0.396,0.719c3.84,0.145,7.416,0.541,10.728,1.188
			s5.904,1.548,7.776,2.7c1.392,0.912,2.352,1.969,2.88,3.168C81.427,26.688,81.404,27.697,80.827,28.512z M60.379,56.592
			c-0.912,0-1.668-0.275-2.268-0.828c-0.601-0.551-1.093-1.234-1.476-2.051H45.187V54c0,1.249-0.349,2.244-1.044,2.988
			c-0.696,0.744-1.548,1.115-2.556,1.115c-1.249,0-2.244-0.515-2.988-1.547c-0.745-1.032-1.213-2.053-1.404-3.061
			c0.191-0.24,0.371-0.73,0.54-1.477c0.167-0.743,0.252-1.619,0.252-2.627v-6.696c0-2.16-0.265-3.863-0.792-5.112
			c0.623-0.287,1.332-0.539,2.124-0.756c0.792-0.216,1.548-0.324,2.268-0.324c1.248,0,2.279,0.36,3.096,1.08h7.056
			c1.44,0,2.664-0.047,3.672-0.144c1.008-0.096,1.872-0.407,2.592-0.937c1.968,0,3.492,0.324,4.572,0.973
			c1.08,0.647,1.62,1.884,1.62,3.707c0,0.529-0.084,1.213-0.252,2.053c-0.169,0.84-0.252,1.885-0.252,3.132v6.12
			c0,1.2-0.252,2.185-0.756,2.952C62.432,56.209,61.579,56.592,60.379,56.592z M45.187,50.616h11.304
			c0.144-0.528,0.275-1.116,0.396-1.765c0.119-0.647,0.18-1.332,0.18-2.051v-6.192H45.475c-0.048,0.528-0.108,1.2-0.18,2.016
			c-0.072,0.817-0.108,1.872-0.108,3.168V50.616z"/>
		<path class="st0" d="M103.723,40.032c-0.961-0.239-1.632-0.983-2.016-2.231c-0.385-1.248-0.36-2.64,0.072-4.177
			c0.191-0.72,0.443-1.667,0.756-2.844c0.312-1.176,0.612-2.448,0.9-3.815c0.288-1.369,0.492-2.783,0.612-4.248
			c0.119-1.465,0.108-2.868-0.036-4.213c0.72,0.432,1.428,1.201,2.124,2.305c0.695,1.104,1.284,2.424,1.764,3.959
			c0.479,1.537,0.816,3.229,1.008,5.076c0.191,1.849,0.119,3.733-0.216,5.652c-0.144,0.769-0.385,1.465-0.72,2.088
			c-0.336,0.625-0.745,1.141-1.224,1.549c-0.48,0.408-0.984,0.695-1.512,0.863C104.707,40.165,104.202,40.176,103.723,40.032z
			 M118.411,61.633c0,1.295-0.229,2.303-0.684,3.023c-0.457,0.72-1.332,1.08-2.628,1.08c-0.913,0-1.681-0.145-2.304-0.432
			c-0.624-0.289-1.152-0.648-1.584-1.08c-0.432-0.433-0.768-0.912-1.008-1.44c-0.241-0.528-0.432-1.056-0.576-1.584
			c0.24-0.239,0.468-0.731,0.684-1.476c0.216-0.744,0.324-1.621,0.324-2.629V12.313c0-2.111-0.336-3.816-1.008-5.112
			c1.631-0.671,3.456-1.008,5.472-1.008c1.055,0,1.955,0.252,2.7,0.756c0.744,0.504,1.116,1.284,1.116,2.34
			c0,0.528-0.084,1.224-0.252,2.088c-0.169,0.864-0.252,2.208-0.252,4.032v3.24c2.399,0.385,4.223,1.356,5.472,2.916
			c1.248,1.561,1.991,3.54,2.232,5.939c0.096,1.105-0.121,2.088-0.648,2.952c-0.529,0.864-1.224,1.345-2.088,1.44
			c-1.008,0.097-1.812-0.324-2.412-1.26c-0.601-0.937-0.9-2.1-0.9-3.492c0-0.672,0-1.284,0-1.836s-0.036-1.116-0.108-1.692
			c-0.072-0.576-0.228-1.163-0.468-1.765c-0.241-0.6-0.601-1.26-1.08-1.979V61.633z M129.716,18.792
			c-0.961-1.392-1.8-2.231-2.52-2.521c0.527-0.479,1.14-0.827,1.836-1.043c0.695-0.217,1.451-0.324,2.268-0.324
			c0.767,0,1.379,0.156,1.836,0.468c0.456,0.313,0.875,0.685,1.26,1.116c1.104,1.296,2.243,2.473,3.42,3.527
			c1.176,1.057,2.364,1.993,3.564,2.809c1.824-1.92,3.336-3.779,4.536-5.58c1.199-1.8,1.968-3.443,2.304-4.932H127.7
			c-0.769,0-1.309-0.275-1.62-0.828c-0.313-0.551-0.468-1.477-0.468-2.771c0.527,0.191,1.427,0.336,2.7,0.432
			c1.271,0.096,2.436,0.144,3.492,0.144h11.808c1.536,0,2.844-0.132,3.924-0.396s2.003-0.66,2.772-1.188
			c0.767,0,1.595,0.062,2.484,0.181c0.888,0.119,1.703,0.323,2.448,0.611c0.744,0.288,1.368,0.684,1.872,1.188
			c0.504,0.504,0.756,1.141,0.756,1.908c0,2.16-0.828,4.585-2.484,7.272c-1.656,2.688-3.877,5.304-6.66,7.849
			c1.536,0.623,3.012,1.104,4.428,1.439c1.415,0.336,2.723,0.588,3.924,0.756c1.199,0.169,2.279,0.277,3.24,0.324
			c0.96,0.049,1.728,0.072,2.304,0.072c0,0.768-0.133,1.596-0.396,2.483c-0.264,0.889-0.648,1.704-1.152,2.448
			c-0.504,0.744-1.141,1.356-1.908,1.836c-0.769,0.48-1.656,0.72-2.664,0.72c-1.537,0-3.54-0.442-6.012-1.332
			c-2.473-0.888-5.076-2.243-7.812-4.067c-3.265,2.112-6.804,3.792-10.62,5.039c-3.816,1.25-7.668,1.754-11.556,1.513
			c2.736-1.247,5.532-2.819,8.388-4.716c2.855-1.896,5.555-3.972,8.1-6.229c-1.296-1.152-2.556-2.412-3.78-3.779
			C131.983,21.852,130.819,20.376,129.716,18.792z M124.603,64.944c-1.056,0-1.752-0.36-2.088-1.08
			c-0.336-0.72-0.504-1.704-0.504-2.952c0.527,0.145,1.428,0.252,2.7,0.324c1.271,0.072,2.436,0.107,3.492,0.107h9.288V48.313
			h-11.376c-0.769,0-1.296-0.275-1.584-0.828c-0.288-0.551-0.432-1.477-0.432-2.771c0.24,0.096,0.6,0.18,1.08,0.252
			c0.479,0.071,1.008,0.133,1.584,0.18c0.576,0.048,1.163,0.084,1.764,0.107c0.6,0.025,1.163,0.036,1.692,0.036h7.272v-3.096
			c0-1.056-0.072-2.017-0.216-2.88c-0.144-0.864-0.408-1.631-0.792-2.305c1.487-0.672,3.264-1.008,5.328-1.008
			c1.008,0,1.991,0.252,2.952,0.756c0.959,0.504,1.44,1.285,1.44,2.34c0,0.529-0.084,1.213-0.252,2.053
			c-0.169,0.84-0.252,2.172-0.252,3.996v0.072h5.904c1.055,0,1.944-0.119,2.664-0.361c0.72-0.238,1.199-0.479,1.44-0.719
			c0.528,0,1.091,0.061,1.692,0.18c0.6,0.12,1.164,0.301,1.692,0.539c0.527,0.242,0.959,0.518,1.296,0.828
			c0.335,0.313,0.504,0.661,0.504,1.045c0,1.008-0.696,1.512-2.088,1.512L145.7,48.313v13.031h4.104
			c1.536,0,2.952-0.107,4.248-0.324c1.296-0.215,2.088-0.442,2.376-0.684c0.767,0,1.512,0.084,2.232,0.252
			c0.72,0.169,1.368,0.396,1.944,0.684c0.576,0.289,1.044,0.613,1.404,0.973c0.36,0.359,0.54,0.731,0.54,1.116
			c0,0.527-0.144,0.911-0.432,1.151s-0.817,0.36-1.584,0.36c-0.385,0-0.828-0.024-1.332-0.071c-0.504-0.049-1.152-0.098-1.944-0.145
			c-0.792-0.049-1.789-0.097-2.988-0.145c-1.2-0.048-2.688-0.071-4.464-0.071h-15.408c-1.537,0-2.844,0.023-3.924,0.071
			s-1.993,0.108-2.736,0.181c-0.745,0.071-1.357,0.132-1.836,0.18C125.419,64.92,124.987,64.944,124.603,64.944z"/>
		<path class="st0" d="M209.851,26.137c-1.104,1.393-2.28,2.556-3.528,3.492c-1.249,0.936-2.736,1.475-4.464,1.619v28.297
			c0,1.199-0.324,2.17-0.972,2.915c-0.648,0.743-1.524,1.116-2.628,1.116c-1.057,0-1.92-0.313-2.592-0.936
			c-0.673-0.625-1.2-1.345-1.584-2.16h-8.712v0.576c0,1.247-0.288,2.256-0.864,3.023c-0.576,0.768-1.417,1.152-2.52,1.152
			c-0.72,0-1.345-0.145-1.872-0.432c-0.529-0.289-0.984-0.661-1.368-1.117c-0.385-0.456-0.696-0.947-0.936-1.476
			c-0.241-0.528-0.432-1.031-0.576-1.512c0.239-0.239,0.456-0.731,0.648-1.476c0.191-0.744,0.288-1.621,0.288-2.629V23.112
			c0-1.009-0.061-1.944-0.18-2.808c-0.121-0.864-0.373-1.632-0.756-2.305c0.767-0.287,1.512-0.527,2.232-0.72
			c0.72-0.191,1.559-0.288,2.52-0.288c1.055,0,1.967,0.264,2.736,0.792c0.191-0.815,0.371-1.751,0.54-2.808
			c0.167-1.056,0.299-2.125,0.396-3.205c0.096-1.079,0.167-2.111,0.216-3.096c0.047-0.982,0.072-1.811,0.072-2.483
			c1.728,0,3.143,0.061,4.248,0.18c1.104,0.12,1.991,0.288,2.664,0.504c0.672,0.216,1.14,0.48,1.404,0.792
			c0.263,0.313,0.396,0.66,0.396,1.045c0,0.575-0.108,1.248-0.324,2.016c-0.216,0.768-0.504,1.561-0.864,2.375
			c-0.36,0.817-0.792,1.646-1.296,2.484c-0.504,0.841-1.021,1.597-1.548,2.268c2.16-0.238,3.816-0.742,4.968-1.512
			c0.767,0,1.559,0.072,2.376,0.217c0.815,0.144,1.548,0.396,2.196,0.756c0.648,0.359,1.188,0.84,1.62,1.439
			c0.432,0.602,0.648,1.357,0.648,2.269c0,0.528-0.097,1.284-0.288,2.268c-0.192,0.984-0.288,2.101-0.288,3.349v3.023
			c0.96-1.631,1.908-3.6,2.844-5.904c0.936-2.304,1.788-4.583,2.556-6.84c0.767-2.256,1.379-4.32,1.836-6.191
			c0.456-1.873,0.684-3.24,0.684-4.104h3.672c1.44,0,2.484,0.252,3.132,0.757c0.648,0.504,0.972,1.26,0.972,2.268
			c0,0.863-0.241,1.98-0.72,3.348c-0.48,1.368-1.056,2.797-1.728,4.284h2.592c1.536,0,2.916-0.119,4.14-0.36
			c1.224-0.239,2.243-0.623,3.06-1.152c0.768,0,1.548,0.072,2.34,0.217s1.512,0.396,2.16,0.756c0.648,0.359,1.176,0.828,1.584,1.404
			c0.407,0.576,0.612,1.32,0.612,2.231c0,0.528-0.084,1.285-0.252,2.269c-0.169,0.984-0.252,2.1-0.252,3.348L230.587,57.6
			c0,1.009-0.156,1.969-0.468,2.881c-0.313,0.911-0.792,1.728-1.44,2.447c-0.648,0.721-1.453,1.284-2.412,1.692
			c-0.961,0.407-2.113,0.612-3.456,0.612c-0.864-0.336-1.789-0.781-2.772-1.332c-0.984-0.553-1.969-1.164-2.952-1.836
			c-0.984-0.673-1.884-1.393-2.7-2.16c-0.817-0.768-1.465-1.535-1.944-2.305c1.44,0.337,2.855,0.589,4.248,0.756
			c1.392,0.17,2.567,0.253,3.528,0.253c1.008,0,1.775-0.239,2.304-0.72c0.528-0.479,0.792-1.104,0.792-1.873l0.504-35.64h-10.296
			c-0.624,1.104-1.249,2.16-1.872,3.169C211.027,24.553,210.428,25.416,209.851,26.137z M185.371,36.936h9.216V21.024h-8.784
			c-0.097,0.528-0.192,1.2-0.288,2.016c-0.097,0.817-0.144,1.872-0.144,3.168V36.936z M194.156,57.385
			c0.096-0.528,0.191-1.08,0.288-1.656c0.095-0.576,0.144-1.176,0.144-1.801V39.96h-9.216v17.425H194.156z M210.284,41.977
			c-0.241-1.393-0.504-2.736-0.792-4.032c-0.241-1.104-0.552-2.292-0.936-3.563c-0.385-1.271-0.84-2.437-1.368-3.492
			c1.152,0.144,2.328,0.504,3.528,1.08c1.199,0.576,2.304,1.308,3.312,2.195c1.008,0.889,1.859,1.92,2.556,3.096
			c0.695,1.178,1.164,2.412,1.404,3.709c0.335,1.68,0.299,3.084-0.108,4.211c-0.408,1.129-1.164,1.813-2.268,2.053
			c-1.249,0.24-2.376-0.155-3.384-1.188C211.22,45.013,210.572,43.656,210.284,41.977z"/>
		<path class="st0" d="M247.723,26.1c1.008,0.072,1.968,0.108,2.88,0.108c0.96,0,1.824-0.18,2.592-0.54
			c0.767-0.359,1.271-0.684,1.512-0.972c1.824,0,3.323,0.313,4.5,0.937c1.176,0.623,1.764,1.848,1.764,3.672
			c0,0.528-0.084,1.284-0.252,2.268c-0.169,0.984-0.252,2.124-0.252,3.42v18.936c1.104-0.672,2.171-1.367,3.204-2.088
			c1.032-0.72,2.027-1.439,2.988-2.16c0,1.057-0.144,2.064-0.432,3.024c-0.288,0.961-0.673,1.849-1.152,2.664
			c-0.432,0.72-0.984,1.561-1.656,2.521c-0.672,0.961-1.416,1.848-2.232,2.664c-0.816,0.814-1.656,1.512-2.52,2.088
			c-0.864,0.576-1.681,0.863-2.448,0.863c-0.529,0-1.057-0.097-1.584-0.287c-0.529-0.193-1.021-0.48-1.476-0.865
			c-0.457-0.385-0.828-0.899-1.116-1.547c-0.288-0.648-0.432-1.428-0.432-2.34c0.432-0.24,0.803-0.552,1.116-0.937
			c0.312-0.384,0.468-0.937,0.468-1.656V29.376c-1.152,0.049-2.137,0.133-2.952,0.253c-0.817,0.119-1.561,0.18-2.232,0.18
			c-1.008,0-1.692-0.36-2.052-1.08c-0.36-0.721-0.54-1.729-0.54-3.024C245.947,25.896,246.716,26.028,247.723,26.1z M253.267,13.465
			c-0.385-1.009-0.828-2.076-1.332-3.205c-0.504-1.127-1.069-2.146-1.692-3.06c3.071,0,5.699,0.637,7.884,1.908
			c2.184,1.272,3.611,3.204,4.284,5.796c0.335,1.248,0.227,2.412-0.324,3.492c-0.552,1.08-1.38,1.764-2.484,2.052
			c-1.104,0.288-2.148,0.108-3.132-0.54c-0.984-0.648-1.668-1.596-2.052-2.844C254.083,15.865,253.7,14.664,253.267,13.465z
			 M296.432,28.477c-0.745,0.216-1.62,0.324-2.628,0.324h-16.992c-0.192-0.576-0.601-1.032-1.224-1.369
			c-0.624-0.334-1.56-0.504-2.808-0.504h-3.456c0,0.529-0.121,1.225-0.36,2.088c-0.241,0.865-0.588,1.836-1.044,2.916
			c-0.457,1.08-0.997,2.209-1.62,3.385c-0.625,1.177-1.321,2.293-2.088,3.348c1.824,0,3.323-0.216,4.5-0.648
			c1.176-0.432,2.292-0.982,3.348-1.655c0.815-0.576,1.572-1.261,2.268-2.052c0.695-0.793,1.26-1.596,1.692-2.412h5.688v8.352
			h-11.376c-0.529,0-1.092-0.012-1.692-0.035c-0.601-0.024-1.188-0.061-1.764-0.109c-0.576-0.047-1.104-0.095-1.584-0.144
			c-0.48-0.047-0.864-0.119-1.152-0.216c0,2.4,0.695,3.6,2.088,3.6h15.48v16.705h-6.912V54.36c0-1.823,0.083-3.179,0.252-4.068
			c0.167-0.888,0.252-1.595,0.252-2.124c0-1.008-0.409-1.775-1.224-2.304c-0.817-0.528-1.728-0.792-2.736-0.792
			c-1.057,0-1.908,0.107-2.556,0.324c-0.648,0.216-1.357,0.468-2.124,0.756c0.384,0.672,0.659,1.429,0.828,2.268
			c0.167,0.841,0.252,1.789,0.252,2.844v4.104c0,1.057-0.121,1.969-0.36,2.735c-0.241,0.77-0.48,1.417-0.72,1.945
			c0.144,0.768,0.443,1.427,0.9,1.979c0.456,0.552,1.02,1.019,1.692,1.403c0.672,0.385,1.428,0.672,2.268,0.865
			c0.839,0.19,1.692,0.287,2.556,0.287c0.815-0.528,1.751-0.912,2.808-1.152c1.055-0.24,2.351-0.359,3.888-0.359h15.408
			c0.384,0.527,0.888,0.973,1.512,1.332c0.624,0.359,1.392,0.54,2.304,0.54c1.152,0,1.968-0.36,2.448-1.08
			c0.479-0.72,0.72-1.704,0.72-2.952v-6.48c0-1.823,0.096-3.179,0.288-4.067c0.191-0.888,0.288-1.595,0.288-2.124
			c0-1.008-0.288-1.775-0.864-2.305c-0.576-0.527-1.512-0.791-2.808-0.791c-0.96,0-1.836,0.107-2.628,0.324
			c-0.792,0.215-1.573,0.467-2.34,0.756c0.672,1.295,1.008,3,1.008,5.111v5.4c0,1.439-0.192,2.545-0.576,3.313h-6.696V43.344h16.344
			c0.767,0,1.296-0.131,1.584-0.396c0.288-0.263,0.432-0.659,0.432-1.188c0-0.383-0.169-0.73-0.504-1.043
			c-0.336-0.313-0.756-0.576-1.26-0.793c-0.504-0.216-1.057-0.383-1.656-0.504c-0.601-0.119-1.164-0.18-1.692-0.18
			c-0.241,0.24-0.732,0.468-1.476,0.684c-0.745,0.217-1.62,0.324-2.628,0.324h-9.144v-8.352h12.168c0.768,0,1.296-0.119,1.584-0.36
			c0.288-0.239,0.432-0.623,0.432-1.151c0-0.385-0.168-0.744-0.504-1.08c-0.336-0.336-0.756-0.612-1.26-0.828
			c-0.504-0.217-1.057-0.384-1.656-0.504c-0.601-0.119-1.165-0.181-1.692-0.181C297.667,28.033,297.175,28.26,296.432,28.477z
			 M278.828,13.788c2.448-0.071,4.835-0.167,7.164-0.288c2.328-0.119,4.523-0.299,6.588-0.54c2.063-0.239,3.863-0.527,5.4-0.864
			c1.536-0.335,2.76-0.73,3.672-1.188c0.911-0.455,1.368-0.996,1.368-1.62c0-1.056-0.732-1.751-2.196-2.088
			c-1.465-0.335-3.636-0.504-6.516-0.504c-1.056,0.528-2.712,1.044-4.968,1.548c-2.257,0.504-4.777,0.973-7.56,1.404
			c-2.785,0.432-5.665,0.828-8.64,1.188c-2.977,0.36-5.688,0.684-8.136,0.973c0.288,0.432,0.695,0.78,1.224,1.043
			c0.528,0.266,1.104,0.48,1.728,0.648c0.624,0.169,1.26,0.277,1.908,0.324c0.648,0.049,1.26,0.072,1.836,0.072
			C274.003,13.896,276.379,13.86,278.828,13.788z M267.811,20.088c-0.336-0.768-0.708-1.584-1.116-2.447
			c-0.409-0.864-0.805-1.632-1.188-2.305c1.296,0,2.531,0.084,3.708,0.252c1.175,0.169,2.255,0.469,3.24,0.9
			c0.983,0.432,1.824,0.996,2.52,1.691c0.695,0.697,1.188,1.549,1.476,2.557c0.288,1.104,0.216,2.148-0.216,3.132
			c-0.432,0.984-1.201,1.62-2.304,1.908c-1.105,0.288-2.136,0.144-3.096-0.433c-0.96-0.576-1.584-1.415-1.872-2.52
			C268.579,21.865,268.195,20.952,267.811,20.088z M282.536,25.92c-0.792-0.72-1.236-1.631-1.332-2.736
			c-0.097-1.247-0.205-2.603-0.324-4.067c-0.12-1.464-0.444-2.916-0.972-4.356c2.543,0.241,4.631,1.045,6.264,2.412
			c1.631,1.368,2.567,3.133,2.808,5.293c0.096,1.104-0.192,2.088-0.864,2.951c-0.673,0.864-1.584,1.345-2.736,1.439
			C284.275,26.953,283.328,26.641,282.536,25.92z M295.532,16.344c-0.241,1.008-0.565,2.113-0.972,3.313
			c-0.408,1.2-0.9,2.447-1.476,3.744c-0.576,1.296-1.224,2.545-1.944,3.744c1.296,0,2.664-0.313,4.104-0.937
			c1.44-0.623,2.772-1.427,3.996-2.411c1.224-0.984,2.243-2.041,3.06-3.168c0.815-1.128,1.224-2.197,1.224-3.205
			c0-1.343-0.732-2.279-2.196-2.808c-1.465-0.528-3.276-0.792-5.436-0.792C295.891,14.497,295.771,15.336,295.532,16.344z"/>
		<path class="st0" d="M319.508,14.4c0.527,0.145,1.427,0.264,2.7,0.359c1.271,0.098,2.436,0.145,3.492,0.145h19.656
			c-0.768-0.864-1.152-1.896-1.152-3.096c-0.048-0.96-0.121-1.873-0.216-2.736c-0.097-0.721-0.205-1.451-0.324-2.196
			c-0.12-0.743-0.277-1.355-0.468-1.836c1.872,0,3.467,0.169,4.788,0.505c1.32,0.336,2.376,0.816,3.168,1.439
			c0.792,0.624,1.368,1.344,1.728,2.16c0.36,0.816,0.54,1.68,0.54,2.592c0,0.336-0.048,0.696-0.144,1.08
			c-0.097,0.336-0.205,0.684-0.324,1.044c-0.121,0.36-0.3,0.708-0.54,1.044h12.384c1.536,0,2.88-0.107,4.032-0.324
			c1.152-0.216,1.847-0.443,2.088-0.684c0.768,0,1.523,0.084,2.268,0.252c0.744,0.168,1.404,0.396,1.98,0.684
			c0.576,0.288,1.044,0.625,1.404,1.008c0.36,0.385,0.54,0.769,0.54,1.152c0,0.529-0.144,0.912-0.432,1.152
			c-0.288,0.24-0.84,0.359-1.656,0.359c-0.385,0-0.792-0.023-1.224-0.072c-0.432-0.047-1.02-0.107-1.764-0.18
			c-0.745-0.072-1.692-0.131-2.844-0.18c-1.152-0.047-2.617-0.072-4.392-0.072H331.82c-1.537,0-2.833,0.025-3.888,0.072
			c-1.057,0.049-1.957,0.107-2.7,0.18c-0.745,0.072-1.356,0.133-1.836,0.18c-0.48,0.049-0.912,0.072-1.296,0.072
			c-1.056,0-1.753-0.359-2.088-1.08C319.675,16.704,319.508,15.696,319.508,14.4z M366.307,32.184c0.528,0,1.091,0.062,1.692,0.181
			c0.6,0.12,1.152,0.3,1.656,0.54s0.923,0.516,1.26,0.828c0.335,0.313,0.504,0.66,0.504,1.044c0,0.528-0.144,0.925-0.432,1.188
			c-0.288,0.264-0.817,0.396-1.584,0.396h-42.696c-1.393,0-2.088-1.199-2.088-3.601c0.288,0.098,0.671,0.169,1.152,0.217
			c0.479,0.048,1.008,0.096,1.584,0.144c0.576,0.048,1.164,0.085,1.764,0.108c0.6,0.024,1.163,0.035,1.692,0.035h31.392
			c1.008,0,1.883-0.107,2.628-0.323C365.575,32.725,366.067,32.473,366.307,32.184z M366.307,23.112c0.528,0,1.091,0.061,1.692,0.18
			c0.6,0.12,1.152,0.301,1.656,0.54c0.504,0.24,0.923,0.517,1.26,0.828c0.335,0.313,0.504,0.66,0.504,1.044
			c0,0.528-0.144,0.925-0.432,1.188c-0.288,0.264-0.817,0.396-1.584,0.396h-42.192c-0.768,0-1.296-0.288-1.584-0.864
			c-0.288-0.576-0.432-1.486-0.432-2.736c0.239,0.098,0.6,0.17,1.08,0.217c0.479,0.049,1.008,0.097,1.584,0.145
			c0.576,0.048,1.164,0.084,1.764,0.107c0.6,0.025,1.164,0.036,1.692,0.036h30.888c1.008,0,1.883-0.108,2.628-0.324
			C365.575,23.652,366.067,23.4,366.307,23.112z M331.171,65.736c-1.632,0-2.892-0.504-3.78-1.512
			c-0.889-1.008-1.452-2.017-1.692-3.024c0.24-0.239,0.443-0.731,0.612-1.476c0.167-0.744,0.252-1.621,0.252-2.629v-9.791
			c0-1.008-0.061-1.944-0.18-2.809c-0.121-0.863-0.349-1.631-0.684-2.304c0.671-0.384,1.44-0.659,2.304-0.828
			c0.864-0.167,1.752-0.252,2.664-0.252c0.624,0,1.284,0.133,1.98,0.396c0.695,0.265,1.235,0.66,1.62,1.188h21.456
			c1.536,0,2.916-0.132,4.14-0.396c1.224-0.264,2.243-0.66,3.06-1.188c0.767,0,1.595,0.071,2.484,0.216
			c0.888,0.145,1.703,0.396,2.448,0.756c0.744,0.36,1.356,0.841,1.836,1.44c0.479,0.601,0.72,1.356,0.72,2.268
			c0,0.528-0.084,1.285-0.252,2.269c-0.169,0.984-0.252,2.1-0.252,3.348v10.225c0,1.055-0.3,2.003-0.9,2.844
			c-0.601,0.839-1.501,1.26-2.7,1.26c-1.296,0-2.34-0.313-3.132-0.936c-0.792-0.625-1.404-1.345-1.836-2.16h-27.072
			C334.027,64.703,332.995,65.736,331.171,65.736z M361.915,45.792h-27.288c-0.097,0.528-0.168,1.152-0.216,1.872
			c-0.048,0.721-0.072,1.633-0.072,2.736v9.287h27.072c0.144-0.527,0.263-1.09,0.36-1.691c0.096-0.6,0.144-1.235,0.144-1.908V45.792
			z"/>
	</g>
</g>
</svg>