<!-- Generator: Adobe Illustrator 24.1.3, SVG Export Plug-In  -->
<svg version="1.1" xmlns="http://www.w3.org/2000/svg" xmlns:xlink="http://www.w3.org/1999/xlink" x="0px" y="0px"
	 width="459.637px" height="98.445px" viewBox="0 0 459.637 98.445"
	 style="overflow:visible;enable-background:new 0 0 459.637 98.445;" xml:space="preserve">
<style type="text/css">
	.st0{fill:none;}
	.st1{fill:#BF2222;}
	.st2{font-family:'HYQingFenTi-W';}
	.st3{font-size:72px;}
</style>
<defs>
</defs>
<g>
	<g>
		<rect x="92.605" y="5.335" class="st0" width="367.032" height="93.11"/>
		<path class="st1" d="M101.738,19.519c-0.769,0-1.345-0.252-1.728-0.756c-0.385-0.504-0.576-1.055-0.576-1.656
			c0-0.6,0.191-1.151,0.576-1.655c0.383-0.504,0.959-0.756,1.728-0.756h60.696c0.767,0,1.343,0.252,1.728,0.756
			c0.384,0.504,0.576,1.056,0.576,1.655c0,0.602-0.192,1.152-0.576,1.656c-0.385,0.504-0.961,0.756-1.728,0.756H101.738z
			 M103.969,30.176c0-1.055,0.36-1.859,1.08-2.412c0.721-0.551,1.5-0.828,2.34-0.828s1.621,0.277,2.34,0.828
			c0.721,0.553,1.08,1.357,1.08,2.412v40.969c0,1.104-0.359,1.932-1.08,2.483c-0.719,0.552-1.5,0.828-2.34,0.828
			s-1.619-0.276-2.34-0.828c-0.72-0.552-1.08-1.38-1.08-2.483V30.176z M128.233,23.12c0.289-1.247,0.865-2.027,1.729-2.34
			c0.864-0.312,1.692-0.312,2.484,0c0.792,0.313,1.415,0.853,1.871,1.62c0.457,0.768,0.443,1.608-0.035,2.52
			c-0.24,0.385-0.457,0.732-0.648,1.045s-0.408,0.66-0.648,1.043h21.744c2.256,0,3.756,0.576,4.5,1.729s1.117,2.545,1.117,4.176
			v38.232c0,0.815-0.241,1.486-0.721,2.016c-0.48,0.527-1.044,0.9-1.691,1.116c-0.648,0.216-1.309,0.263-1.98,0.144
			c-0.673-0.12-1.177-0.444-1.512-0.972c-0.769-1.104-1.537-1.921-2.305-2.448c-0.768-0.529-1.704-0.792-2.808-0.792h-35.28
			c-0.672,0-1.164-0.252-1.476-0.756c-0.313-0.504-0.468-1.056-0.468-1.656s0.154-1.151,0.468-1.655
			c0.312-0.504,0.804-0.756,1.476-0.756h5.473V36.08c0-0.959,0.335-1.68,1.008-2.16c0.672-0.479,1.415-0.72,2.232-0.72
			c0.814,0,1.559,0.241,2.231,0.72c0.671,0.48,1.008,1.201,1.008,2.16v29.305h12.24V36.08c0-0.959,0.335-1.68,1.008-2.16
			c0.672-0.479,1.415-0.72,2.231-0.72s1.561,0.241,2.232,0.72c0.672,0.48,1.008,1.201,1.008,2.16v29.305h8.784V34.351
			c0-1.68-0.864-2.52-2.592-2.52h-36.72c-0.673,0-1.188-0.252-1.549-0.756c-0.359-0.504-0.539-1.055-0.539-1.656
			c0-0.6,0.168-1.152,0.504-1.656c0.335-0.504,0.863-0.756,1.584-0.756h13.031c0.191-0.623,0.36-1.247,0.504-1.871
			C127.873,24.512,128.041,23.84,128.233,23.12z M129.889,57.176c-0.768,0-1.344-0.239-1.728-0.72
			c-0.385-0.479-0.576-1.019-0.576-1.62c0-0.6,0.191-1.14,0.576-1.619c0.384-0.48,0.96-0.721,1.728-0.721h4.537
			c0.719,0,1.247,0.24,1.584,0.721c0.334,0.479,0.504,1.02,0.504,1.619c0,0.602-0.17,1.141-0.504,1.62
			c-0.337,0.48-0.865,0.72-1.584,0.72H129.889z M129.889,44.431c-0.72,0-1.248-0.239-1.584-0.72
			c-0.336-0.479-0.504-1.019-0.504-1.62c0-0.6,0.168-1.139,0.504-1.619c0.336-0.48,0.864-0.721,1.584-0.721h4.537
			c0.671,0,1.175,0.24,1.512,0.721c0.335,0.48,0.504,1.02,0.504,1.619c0,0.602-0.169,1.141-0.504,1.62
			c-0.337,0.48-0.841,0.72-1.512,0.72H129.889z"/>
		<path class="st1" d="M182.738,70.64c0,1.151-0.372,2.003-1.116,2.556c-0.744,0.552-1.572,0.827-2.484,0.827
			s-1.74-0.275-2.483-0.827c-0.745-0.553-1.116-1.404-1.116-2.556V21.465c0-1.152,0.371-2.004,1.116-2.557
			c0.743-0.551,1.571-0.816,2.483-0.792s1.74,0.323,2.484,0.899s1.116,1.44,1.116,2.592V70.64z M187.633,23.191
			c-0.768,0-1.356-0.252-1.764-0.756c-0.408-0.504-0.611-1.066-0.611-1.691c0-0.623,0.19-1.188,0.575-1.691
			c0.384-0.504,0.983-0.757,1.8-0.757h6.12c0.335-0.72,0.624-1.368,0.864-1.944c0.24-0.575,0.455-1.115,0.648-1.619
			c0.191-0.504,0.371-1.008,0.539-1.512s0.348-1.045,0.541-1.621c0.334-1.247,0.995-2.039,1.979-2.375
			c0.983-0.336,1.919-0.336,2.808,0c0.888,0.336,1.549,0.936,1.98,1.799c0.432,0.865,0.312,1.897-0.36,3.097
			c-0.528,0.961-1.021,1.765-1.476,2.412c-0.457,0.647-0.9,1.236-1.332,1.764h26.783c2.064,0,3.576,0.565,4.537,1.692
			c0.959,1.129,1.439,2.652,1.439,4.572v40.824c0,3.887-1.969,6.863-5.904,8.928c-0.624,0.335-1.2,0.42-1.728,0.252
			c-0.528-0.169-0.841-0.637-0.937-1.404c-0.096-0.769-0.264-1.429-0.504-1.98s-0.637-1.02-1.188-1.403
			c-0.553-0.385-1.297-0.709-2.232-0.972c-0.936-0.266-2.172-0.469-3.708-0.613c-0.624-0.048-1.068-0.275-1.332-0.684
			c-0.265-0.408-0.372-0.828-0.323-1.26c0.047-0.432,0.227-0.815,0.539-1.152c0.313-0.335,0.756-0.504,1.332-0.504
			c1.824,0.049,3.313,0.025,4.465-0.072c1.151-0.096,2.052-0.323,2.699-0.684c0.648-0.359,1.08-0.9,1.297-1.619
			c0.215-0.721,0.323-1.68,0.323-2.881V26.648c0-2.305-1.2-3.457-3.6-3.457H187.633z M190.801,36.656
			c0-1.055,0.371-1.859,1.116-2.412c0.743-0.551,1.56-0.828,2.448-0.828c0.888,0,1.703,0.277,2.447,0.828
			c0.744,0.553,1.117,1.357,1.117,2.412v19.8c0,1.151-0.373,2.028-1.117,2.628c-0.744,0.602-1.56,0.9-2.447,0.9
			c-0.889,0-1.705-0.299-2.448-0.9c-0.745-0.6-1.116-1.477-1.116-2.628V36.656z M210.745,33.633c2.351,0,4.007,0.539,4.968,1.619
			c0.96,1.08,1.44,2.581,1.44,4.5v14.112c0,1.536-0.517,2.628-1.548,3.276c-1.033,0.647-2.484,0.972-4.356,0.972h-9.216
			c-0.816,0-1.439-0.252-1.872-0.757c-0.433-0.504-0.647-1.066-0.647-1.691c0-0.623,0.215-1.188,0.647-1.691
			s1.056-0.756,1.872-0.756h7.992V40.76c0-0.768-0.156-1.343-0.469-1.728c-0.313-0.384-0.876-0.576-1.691-0.576h-5.832
			c-0.816,0-1.439-0.252-1.872-0.756s-0.647-1.056-0.647-1.656c0-0.6,0.215-1.151,0.647-1.655s1.056-0.756,1.872-0.756H210.745z"/>
		<path class="st1" d="M247.537,24.776c0-1.2,0.359-2.089,1.08-2.664c0.72-0.576,1.512-0.864,2.376-0.864s1.655,0.288,2.376,0.864
			c0.72,0.575,1.08,1.464,1.08,2.664V69.2c0,1.247-0.36,2.171-1.08,2.772c-0.721,0.6-1.512,0.899-2.376,0.899
			s-1.656-0.3-2.376-0.899c-0.721-0.602-1.08-1.525-1.08-2.772V24.776z M256.753,45.476c-0.432-0.504-0.647-1.045-0.647-1.621
			c0-0.575,0.216-1.115,0.647-1.619c0.433-0.504,1.056-0.756,1.872-0.756h7.633V28.736c0-0.864-0.289-1.535-0.865-2.016
			S264.072,26,263.161,26h-4.536c-0.768,0-1.344-0.227-1.729-0.684c-0.385-0.456-0.6-0.973-0.647-1.549s0.083-1.115,0.396-1.619
			s0.804-0.804,1.477-0.9c0.191-1.344,0.348-2.747,0.468-4.212c0.12-1.464,0.204-2.556,0.253-3.276
			c0.047-1.343,0.49-2.304,1.331-2.879c0.839-0.576,1.716-0.793,2.628-0.648c0.912,0.144,1.68,0.624,2.305,1.439
			c0.623,0.816,0.768,1.92,0.432,3.313c-0.24,0.816-0.576,1.74-1.008,2.771c-0.432,1.033-0.984,2.173-1.656,3.42h3.816
			c2.399,0,4.068,0.612,5.004,1.836c0.936,1.225,1.404,2.7,1.404,4.428V62.72c0,1.68-0.445,3.023-1.332,4.031
			c-0.889,1.008-2.461,1.512-4.717,1.512h-8.424c-0.816,0-1.416-0.252-1.8-0.756c-0.385-0.504-0.576-1.055-0.576-1.656
			c0-0.6,0.191-1.151,0.576-1.655c0.384-0.505,0.983-0.757,1.8-0.757h7.633V46.232h-7.633
			C257.809,46.232,257.186,45.98,256.753,45.476z M274.682,35.683c0.191,0.504,0.491,0.865,0.899,1.08
			c0.407,0.217,0.864,0.277,1.368,0.181c0.504-0.096,0.972-0.456,1.404-1.08c2.016-3.024,3.815-6.252,5.399-9.685
			c1.584-3.431,2.88-7.308,3.888-11.627c0.289-1.297,0.108-2.352-0.539-3.168c-0.648-0.816-1.44-1.309-2.377-1.477
			c-0.936-0.168-1.86,0.025-2.771,0.576c-0.912,0.553-1.465,1.523-1.656,2.916c-0.672,4.129-1.476,7.884-2.412,11.268
			c-0.936,3.385-1.979,6.516-3.132,9.396C274.512,34.64,274.488,35.179,274.682,35.683z M282.997,43.855
			c-0.792-1.871-1.524-3.502-2.196-4.896c-0.191-0.432-0.216-0.852-0.072-1.26c0.145-0.407,0.385-0.743,0.721-1.009
			c0.335-0.263,0.73-0.396,1.188-0.396c0.456,0,0.9,0.216,1.332,0.648c3.313,3.36,5.951,6.552,7.92,9.575
			c0.721,1.105,0.875,2.16,0.469,3.168c-0.408,1.009-1.057,1.765-1.944,2.269c-0.889,0.504-1.836,0.647-2.844,0.433
			c-1.009-0.217-1.728-0.973-2.16-2.269C284.592,47.816,283.789,45.728,282.997,43.855z M294.518,73.881
			c-0.697-0.337-1.093-0.842-1.188-1.513c-0.144-0.864-0.468-1.548-0.972-2.052s-1.188-0.9-2.053-1.188
			c-0.863-0.288-1.896-0.504-3.096-0.647c-1.2-0.145-2.545-0.289-4.031-0.432c-0.529-0.049-0.926-0.277-1.188-0.685
			c-0.265-0.409-0.385-0.839-0.36-1.296c0.023-0.456,0.191-0.864,0.504-1.225c0.313-0.359,0.779-0.539,1.404-0.539
			c1.055,0.048,2.135,0.071,3.24,0.071c1.104,0,2.135-0.023,3.096-0.071c0.959-0.048,1.824-0.145,2.592-0.289
			c0.768-0.144,1.393-0.359,1.872-0.647c0.96-0.576,1.692-1.644,2.196-3.204c0.504-1.559,0.875-3.756,1.115-6.588
			s0.385-6.348,0.433-10.548s0.072-9.181,0.072-14.94c0-0.768-0.157-1.332-0.468-1.691c-0.313-0.36-0.9-0.541-1.765-0.541h-6.696
			c-0.768,0-1.344-0.252-1.728-0.756c-0.385-0.504-0.576-1.055-0.576-1.655c0-0.6,0.191-1.152,0.576-1.656
			c0.384-0.504,0.96-0.756,1.728-0.756h10.801c1.055,0,1.919,0.169,2.592,0.504c0.672,0.337,1.211,0.792,1.62,1.368
			c0.407,0.576,0.684,1.224,0.827,1.943c0.145,0.721,0.217,1.44,0.217,2.16c0,7.297-0.072,13.561-0.217,18.793
			c-0.144,5.232-0.504,9.672-1.08,13.319c-0.575,3.648-1.428,6.612-2.555,8.892c-1.129,2.279-2.653,4.092-4.572,5.437
			C295.993,74.071,295.213,74.215,294.518,73.881z"/>
		<path class="st1" d="M317.809,37.952c-0.385,0.433-0.804,0.647-1.26,0.647c-0.457,0-0.84-0.144-1.152-0.432
			c-0.313-0.287-0.504-0.684-0.575-1.188c-0.072-0.504,0.083-1.02,0.468-1.549c0.911-1.535,1.812-3.107,2.7-4.715
			c0.888-1.608,1.739-3.313,2.556-5.113c0.816-1.799,1.596-3.719,2.34-5.76c0.744-2.039,1.477-4.283,2.196-6.731
			c0.288-1.152,0.852-1.872,1.692-2.16c0.839-0.288,1.656-0.263,2.447,0.071c0.793,0.337,1.404,0.926,1.836,1.765
			c0.433,0.841,0.433,1.836,0,2.988c-0.863,2.208-1.752,4.261-2.664,6.155c-0.912,1.897-1.896,3.733-2.951,5.508
			c-1.057,1.777-2.209,3.518-3.457,5.221C320.737,34.365,319.345,36.129,317.809,37.952z M335.018,58.472
			c-0.721,0.816-1.465,1.248-2.232,1.295c-0.769,0.049-1.404-0.131-1.908-0.539s-0.816-0.947-0.936-1.621
			c-0.121-0.671,0.083-1.343,0.611-2.016c0.527-0.623,0.983-1.188,1.368-1.691c0.384-0.504,0.731-0.983,1.044-1.44
			c0.313-0.456,0.612-0.923,0.9-1.403s0.576-1.008,0.863-1.584c0.24-0.433,0.313-0.876,0.217-1.332
			c-0.098-0.456-0.432-0.685-1.008-0.685h-14.904c-0.721,0-1.285-0.239-1.691-0.72c-0.409-0.479-0.625-1.02-0.648-1.62
			c-0.025-0.6,0.154-1.14,0.539-1.62c0.385-0.479,0.984-0.72,1.801-0.72h20.016c0.816,0,1.5,0.216,2.053,0.647
			c0.551,0.432,0.972,0.961,1.26,1.584c0.287,0.625,0.42,1.297,0.396,2.016c-0.025,0.721-0.205,1.394-0.541,2.017
			c-0.72,1.394-1.717,2.893-2.988,4.5C337.957,55.148,336.553,56.793,335.018,58.472z M332.137,71.144
			c-1.969-2.448-3.888-4.728-5.76-6.84s-3.936-4.248-6.191-6.408c-0.433-0.432-0.648-0.889-0.648-1.368s0.145-0.888,0.432-1.224
			c0.289-0.336,0.672-0.541,1.152-0.613c0.479-0.071,0.983,0.062,1.512,0.396c1.44,1.008,2.772,1.944,3.996,2.809
			c1.225,0.863,2.387,1.717,3.492,2.556c1.104,0.841,2.207,1.681,3.313,2.521c1.104,0.84,2.255,1.764,3.455,2.771
			c1.152,0.959,1.703,1.955,1.656,2.988c-0.049,1.031-0.42,1.896-1.115,2.592c-0.697,0.695-1.561,1.08-2.593,1.152
			S332.905,72.103,332.137,71.144z M329.329,28.664c1.296,1.584,2.292,2.844,2.987,3.78s1.213,1.645,1.549,2.124
			c0.672,0.961,0.828,1.871,0.468,2.736c-0.36,0.863-0.925,1.5-1.692,1.907c-0.768,0.409-1.596,0.48-2.483,0.216
			c-0.889-0.263-1.524-1.043-1.908-2.34c-0.385-1.392-0.732-2.556-1.044-3.492c-0.313-0.936-0.66-1.883-1.044-2.844
			c-0.241-0.672-0.276-1.234-0.108-1.691c0.168-0.456,0.443-0.793,0.828-1.008c0.384-0.217,0.804-0.276,1.26-0.181
			C328.597,27.968,328.992,28.232,329.329,28.664z M334.657,17.36c0.864,1.104,1.68,2.148,2.448,3.132
			c0.768,0.984,1.512,1.992,2.231,3.023c0.72,1.033,1.452,2.102,2.196,3.205s1.548,2.279,2.412,3.527
			c0.959,1.439,1.344,2.7,1.152,3.78c-0.193,1.079-0.661,1.86-1.404,2.34c-0.745,0.48-1.573,0.637-2.484,0.468
			c-0.912-0.168-1.608-0.756-2.088-1.764c-0.961-2.063-1.824-3.899-2.592-5.508c-0.769-1.607-1.453-3.024-2.053-4.248
			c-0.6-1.225-1.164-2.305-1.691-3.24c-0.529-0.936-1.008-1.764-1.439-2.484c-0.289-0.479-0.373-0.982-0.252-1.512
			c0.119-0.527,0.359-0.947,0.719-1.26c0.36-0.313,0.793-0.455,1.297-0.432C333.613,16.413,334.129,16.736,334.657,17.36z
			 M358.993,38.168c0-1.104,0.335-1.943,1.008-2.52c0.672-0.576,1.415-0.864,2.231-0.864s1.561,0.3,2.232,0.899
			c0.672,0.602,1.008,1.477,1.008,2.629c0,2.256-0.024,4.32-0.072,6.191c-0.048,1.872-0.156,3.613-0.323,5.221
			c-0.169,1.608-0.408,3.131-0.72,4.571c-0.313,1.44-0.732,2.88-1.26,4.32c-1.25,3.168-3.492,5.976-6.732,8.424
			s-7.333,4.8-12.276,7.056c-0.673,0.289-1.26,0.324-1.764,0.108s-0.876-0.552-1.116-1.008c-0.24-0.457-0.301-0.948-0.18-1.476
			c0.119-0.529,0.491-0.937,1.115-1.225c4.896-2.353,8.52-4.74,10.873-7.164c2.351-2.424,3.863-4.716,4.535-6.876
			c0.623-2.063,1.02-4.536,1.188-7.416C358.908,46.16,358.993,42.537,358.993,38.168z M345.098,19.015
			c-0.817,0-1.417-0.252-1.801-0.756c-0.385-0.504-0.576-1.055-0.576-1.656c0-0.6,0.191-1.151,0.576-1.655
			c0.384-0.504,0.983-0.757,1.801-0.757h32.472c0.815,0,1.427,0.253,1.836,0.757c0.407,0.504,0.612,1.056,0.612,1.655
			c0,0.602-0.205,1.152-0.612,1.656c-0.409,0.504-1.021,0.756-1.836,0.756H345.098z M346.393,29.888
			c0-1.199,0.348-2.076,1.045-2.629c0.695-0.551,1.451-0.815,2.268-0.791c0.815,0.023,1.572,0.348,2.268,0.971
			c0.695,0.625,1.045,1.537,1.045,2.736v25.992c0,1.201-0.35,2.088-1.045,2.664s-1.452,0.854-2.268,0.828
			c-0.816-0.023-1.572-0.359-2.268-1.008c-0.697-0.648-1.045-1.572-1.045-2.771V29.888z M370.729,34.28
			c0-1.919-0.96-2.88-2.879-2.88h-10.656c-0.816,0-1.416-0.252-1.801-0.756s-0.576-1.056-0.576-1.656c0-0.6,0.191-1.152,0.576-1.656
			s0.984-0.756,1.801-0.756h1.656c0.144-0.672,0.252-1.307,0.323-1.908c0.072-0.6,0.132-1.188,0.181-1.764
			c0.144-1.055,0.576-1.787,1.295-2.196c0.721-0.407,1.465-0.552,2.232-0.432s1.404,0.479,1.908,1.079
			c0.504,0.602,0.611,1.381,0.324,2.341l-1.008,2.88h6.768c2.16,0,3.78,0.48,4.859,1.439c1.08,0.961,1.621,2.592,1.621,4.896v22.969
			c0,1.199-0.35,2.123-1.045,2.771s-1.451,0.984-2.268,1.008c-0.816,0.025-1.572-0.252-2.268-0.828
			c-0.697-0.576-1.045-1.463-1.045-2.664V34.28z M375.913,73.376c-2.017-1.969-3.996-3.743-5.94-5.327
			c-1.943-1.584-3.779-3.025-5.508-4.32c-0.432-0.336-0.672-0.721-0.72-1.152s0.036-0.815,0.252-1.152
			c0.216-0.335,0.528-0.576,0.937-0.72c0.406-0.144,0.875-0.096,1.403,0.144c3.601,1.825,6.575,3.349,8.929,4.572
			c2.351,1.225,3.935,2.124,4.752,2.7c0.863,0.623,1.307,1.415,1.332,2.376c0.023,0.959-0.217,1.8-0.721,2.52
			c-0.504,0.721-1.188,1.176-2.052,1.369C377.713,74.575,376.824,74.24,375.913,73.376z"/>
		<path class="st1" d="M407.089,53c0.576-0.145,1.032-0.083,1.368,0.18c0.336,0.265,0.563,0.589,0.684,0.973
			c0.119,0.385,0.119,0.792,0,1.224c-0.12,0.433-0.396,0.745-0.828,0.937c-1.393,0.672-2.735,1.32-4.031,1.943
			c-1.297,0.625-2.604,1.236-3.924,1.836c-1.321,0.602-2.664,1.188-4.032,1.764c-1.368,0.576-2.82,1.152-4.356,1.729
			c-1.296,0.529-2.352,0.517-3.168-0.035s-1.344-1.271-1.584-2.16s-0.168-1.775,0.217-2.664c0.383-0.889,1.104-1.451,2.16-1.692
			c1.631-0.335,3.131-0.647,4.5-0.937c1.367-0.287,2.711-0.587,4.031-0.899c1.32-0.312,2.7-0.647,4.141-1.009
			C403.705,53.828,405.313,53.431,407.089,53z M406.657,32.48h-4.32v16.127c0,1.297-0.36,2.281-1.079,2.953
			c-0.721,0.672-1.525,1.008-2.412,1.008c-0.889,0-1.692-0.336-2.412-1.008c-0.721-0.672-1.08-1.656-1.08-2.953V32.48h-5.112
			c-0.769,0-1.345-0.252-1.728-0.756c-0.385-0.504-0.565-1.068-0.541-1.692c0.023-0.624,0.228-1.188,0.612-1.692
			c0.384-0.504,0.937-0.756,1.656-0.756h5.112V14.12c0-1.199,0.359-2.088,1.08-2.664c0.72-0.575,1.523-0.864,2.412-0.864
			c0.887,0,1.691,0.289,2.412,0.864c0.719,0.576,1.079,1.465,1.079,2.664v13.464h4.32c0.72,0,1.271,0.252,1.655,0.756
			s0.576,1.068,0.576,1.692s-0.18,1.188-0.539,1.692C407.989,32.228,407.424,32.48,406.657,32.48z M408.241,59.984
			c1.584-0.336,3.443-0.779,5.58-1.332c2.136-0.551,4.224-1.116,6.264-1.692c2.04-0.575,3.911-1.104,5.616-1.584
			c1.703-0.479,2.939-0.839,3.708-1.08c0.575-0.144,1.056-0.095,1.44,0.144c0.383,0.241,0.647,0.565,0.791,0.973
			c0.145,0.408,0.133,0.84-0.035,1.296c-0.169,0.457-0.517,0.828-1.045,1.116c-1.151,0.625-2.568,1.309-4.248,2.052
			c-1.68,0.745-3.444,1.489-5.291,2.231c-1.849,0.746-3.697,1.489-5.545,2.232c-1.848,0.745-3.563,1.404-5.147,1.98
			c-1.151,0.432-2.136,0.383-2.952-0.145s-1.367-1.199-1.656-2.016c-0.287-0.815-0.252-1.656,0.108-2.52
			C406.19,60.776,406.992,60.224,408.241,59.984z M411.194,27.511c-0.816,0-1.43-0.252-1.836-0.756
			c-0.408-0.504-0.612-1.067-0.612-1.691c0-0.623,0.204-1.188,0.612-1.692c0.406-0.504,1.02-0.756,1.836-0.756h20.16
			c-0.049-1.487-0.072-3.071-0.072-4.752c0-1.68,0-3.431,0-5.257c0-1.104,0.335-1.932,1.008-2.483
			c0.672-0.552,1.404-0.828,2.195-0.828c0.793,0,1.523,0.276,2.197,0.828c0.671,0.552,1.008,1.38,1.008,2.483
			c0,1.777,0,3.505,0,5.185c0,1.681,0.023,3.288,0.072,4.824h12.527c0.815,0,1.428,0.252,1.836,0.756
			c0.407,0.504,0.612,1.069,0.612,1.692c0,0.624-0.205,1.188-0.612,1.691c-0.408,0.504-1.021,0.756-1.836,0.756h-12.456
			c0.096,3.889,0.263,7.453,0.504,10.692c0.239,3.24,0.552,6.156,0.937,8.748c0.959-1.968,1.859-3.972,2.699-6.013
			c0.84-2.039,1.596-4.187,2.269-6.443c0.335-1.055,0.923-1.764,1.764-2.124c0.839-0.36,1.656-0.419,2.448-0.181
			c0.792,0.242,1.428,0.746,1.908,1.513c0.479,0.769,0.504,1.753,0.072,2.952c-1.152,3.168-2.484,6.264-3.996,9.288
			s-3.349,6.073-5.508,9.144c0.863,3.121,1.99,5.568,3.383,7.344c0.24,0.289,0.516,0.493,0.828,0.612
			c0.313,0.12,0.695,0.085,1.152-0.108c0.455-0.19,1.008-0.551,1.656-1.08c0.648-0.527,1.404-1.295,2.268-2.303
			c0.432-0.48,0.9-0.708,1.404-0.685c0.504,0.024,0.924,0.204,1.26,0.54s0.551,0.781,0.648,1.332
			c0.096,0.553-0.072,1.068-0.504,1.548c-1.682,2.064-2.713,3.612-3.096,4.644c-0.385,1.032-0.457,1.788-0.217,2.269
			c0.432,0.767,0.576,1.522,0.432,2.269c-0.144,0.743-0.467,1.367-0.972,1.871c-0.504,0.504-1.141,0.793-1.907,0.864
			c-0.77,0.072-1.584-0.204-2.449-0.828c-2.016-1.393-3.743-3.108-5.184-5.147c-1.439-2.04-2.641-4.356-3.6-6.948
			c-1.729,1.969-3.625,3.948-5.688,5.94c-2.064,1.99-4.393,4.067-6.984,6.228c-0.721,0.575-1.345,0.839-1.872,0.792
			c-0.528-0.049-0.937-0.252-1.224-0.612c-0.289-0.36-0.445-0.769-0.469-1.224c-0.024-0.457,0.108-0.828,0.396-1.116
			c2.976-2.735,5.604-5.399,7.884-7.992c2.279-2.592,4.331-5.208,6.155-7.848c-0.575-2.495-1.008-5.159-1.295-7.992
			c-0.289-2.544-0.564-5.375-0.828-8.496c-0.265-3.12-0.469-6.936-0.612-11.448H411.194z M416.305,49.687
			c0,1.009-0.324,1.765-0.972,2.269s-1.345,0.756-2.088,0.756c-0.745,0-1.44-0.252-2.088-0.756s-0.972-1.26-0.972-2.269V36.584
			c0-1.008,0.324-1.775,0.972-2.304s1.343-0.792,2.088-0.792c0.743,0,1.44,0.264,2.088,0.792s0.972,1.296,0.972,2.304V49.687z
			 M424.154,33.704c1.584,0,2.724,0.408,3.42,1.224c0.695,0.817,1.044,1.921,1.044,3.313v9.936c0,1.633-0.373,2.736-1.116,3.313
			c-0.745,0.576-1.86,0.863-3.348,0.863h-4.32c-0.72,0-1.26-0.215-1.62-0.647c-0.359-0.433-0.54-0.924-0.54-1.476
			s0.181-1.045,0.54-1.477c0.36-0.432,0.9-0.648,1.62-0.648h2.521v-8.135c0-0.576-0.098-1.056-0.289-1.44
			c-0.191-0.384-0.552-0.576-1.08-0.576h-1.151c-0.72,0-1.26-0.216-1.62-0.647c-0.359-0.433-0.54-0.924-0.54-1.477
			c0-0.551,0.181-1.044,0.54-1.477c0.36-0.432,0.9-0.647,1.62-0.647H424.154z M443.594,18.511c-0.433-0.815-0.854-1.559-1.261-2.231
			c-0.408-0.672-0.997-1.56-1.764-2.664c-0.288-0.384-0.385-0.792-0.288-1.224c0.096-0.433,0.299-0.793,0.611-1.08
			c0.313-0.289,0.721-0.456,1.225-0.504s1.044,0.144,1.62,0.576c1.008,0.719,1.859,1.367,2.556,1.943
			c0.695,0.576,1.5,1.296,2.412,2.16c0.672,0.72,0.9,1.512,0.684,2.376c-0.216,0.864-0.647,1.548-1.295,2.052
			c-0.648,0.504-1.404,0.709-2.269,0.612C444.961,20.432,444.217,19.76,443.594,18.511z"/>
	</g>
	<g>
		<g>
			<path class="st1" d="M40.839,0C18.32,0,0,18.32,0,40.839c0,22.519,18.32,40.839,40.839,40.839s40.839-18.32,40.839-40.839
				C81.677,18.32,63.357,0,40.839,0z M40.839,74.27c-18.434,0-33.431-14.998-33.431-33.432c0-18.434,14.997-33.431,33.431-33.431
				S74.27,22.405,74.27,40.839C74.27,59.273,59.273,74.27,40.839,74.27z"/>
			<path class="st1" d="M60.783,33.354H47.639c-0.624,0-1.176-0.402-1.369-0.995l-4.062-12.501c-0.431-1.327-2.307-1.327-2.739,0
				l-4.062,12.501c-0.193,0.593-0.745,0.995-1.369,0.995H20.894c-1.395,0-1.975,1.785-0.846,2.604l10.634,7.726
				c0.505,0.367,0.716,1.017,0.523,1.61l-4.062,12.501c-0.431,1.327,1.087,2.429,2.216,1.61l10.634-7.726
				c0.505-0.367,1.188-0.367,1.693,0l10.634,7.726c1.128,0.82,2.646-0.283,2.216-1.61l-4.062-12.501
				c-0.193-0.593,0.018-1.243,0.523-1.61l10.634-7.726C62.758,35.139,62.178,33.354,60.783,33.354z"/>
		</g>
	</g>
</g>
</svg>