<!-- Generator: Adobe Illustrator 24.1.3, SVG Export Plug-In  -->
<svg version="1.1" xmlns="http://www.w3.org/2000/svg" xmlns:xlink="http://www.w3.org/1999/xlink" x="0px" y="0px"
	 width="391.555px" height="212.757px" viewBox="0 0 391.555 212.757"
	 style="overflow:visible;enable-background:new 0 0 391.555 212.757;" xml:space="preserve">
<style type="text/css">
	.st0{fill:#FFFFFF;stroke:#1C3B94;stroke-width:2;stroke-linecap:round;stroke-linejoin:round;stroke-miterlimit:10;}
	.st1{fill:#FFFFFF;stroke:#1C3B94;stroke-width:2;stroke-miterlimit:10;}
	.st2{fill:#FFE291;stroke:#1C3B94;stroke-width:2;stroke-linecap:round;stroke-linejoin:round;stroke-miterlimit:10;}
	.st3{fill:#1C3B94;}
	.st4{fill:#BF2222;}
	.st5{fill:none;stroke:#1C3B94;stroke-width:2;stroke-linecap:round;stroke-linejoin:round;stroke-miterlimit:10;}
	.st6{fill:none;}
	.st7{font-family:'FZLANTY_ZHUNK--GBK1-0';}
	.st8{font-size:28.8559px;}
	.st9{letter-spacing:1;}
	.st10{font-size:19px;}
	.st11{font-size:17.3135px;}
	.st12{font-size:21px;}
</style>
<defs>
</defs>
<g>
	<g>
		<path class="st0" d="M268.128,67.219v-16.51H133.584c-0.673,26.167-22.081,47.177-48.411,47.177s-47.737-21.01-48.411-47.177H1
			v161.049h389.555V67.219H268.128z"/>
		<path class="st1" d="M85.173,97.885c26.329,0,47.737-21.01,48.411-47.177c0.011-0.422,0.032-0.841,0.032-1.266
			C133.616,22.689,111.927,1,85.173,1S36.731,22.689,36.731,49.442c0,0.425,0.021,0.844,0.032,1.266
			C37.436,76.875,58.844,97.885,85.173,97.885z"/>
	</g>
	<polygon class="st2" points="268.128,18.316 268.128,50.708 268.128,67.219 390.555,67.219 390.555,50.708 390.555,18.316 	"/>
	<g>
		<g>
			<path class="st3" d="M280.484,50.322h8.905c1.051-0.074,1.539,0.338,1.465,1.24c0,0.826-0.489,1.24-1.465,1.24h-10.258
				c-1.278,0-1.916-0.602-1.916-1.803c0-0.826,0.187-1.578,0.563-2.254c1.127-2.328,3.343-4.959,6.65-7.89
				c2.479-1.953,3.644-3.794,3.494-5.523c-0.151-2.029-1.353-3.08-3.607-3.156c-2.33,0-3.758,1.09-4.283,3.269
				c-0.225,1.353-0.752,1.916-1.578,1.691c-0.827-0.15-1.165-0.789-1.014-1.917c0.75-3.531,3.043-5.372,6.875-5.523
				c4.059,0.151,6.124,2.029,6.2,5.636c0.149,2.556-1.353,5.072-4.509,7.552c-2.931,2.631-4.886,4.922-5.861,6.876
				C280.07,50.135,280.184,50.322,280.484,50.322z"/>
		</g>
	</g>
	<g>
		<g>
			<path class="st4" d="M151.176,33.881c-0.744,0-1.116-0.346-1.116-1.039v-4.898c0.049-0.544,0.347-0.841,0.893-0.891
				c0.546,0.05,0.843,0.347,0.894,0.891v3.785c0,0.347,0.173,0.52,0.521,0.52h4.019v-5.863c0.049-0.544,0.346-0.841,0.893-0.891
				c0.596,0.05,0.917,0.347,0.968,0.891v5.863h4.018c0.347-0.049,0.521-0.223,0.521-0.52v-3.785
				c0.049-0.544,0.346-0.841,0.893-0.891c0.545,0.05,0.843,0.347,0.893,0.891v4.898c0,0.693-0.372,1.039-1.116,1.039h-5.208v7.422
				h4.613c0.347,0,0.521-0.197,0.521-0.594v-4.453c0.099-0.445,0.396-0.692,0.894-0.742c0.545,0.05,0.843,0.297,0.893,0.742v5.121
				c0,0.939-0.473,1.41-1.414,1.41h-12.873c-0.893,0-1.365-0.471-1.414-1.41v-5.121c0.049-0.494,0.347-0.767,0.894-0.816
				c0.545,0.05,0.843,0.322,0.893,0.816v4.453c0,0.396,0.197,0.594,0.596,0.594h4.539v-7.422H151.176z"/>
			<path class="st4" d="M168.885,43.678c-0.446-0.05-0.695-0.322-0.744-0.816V27.424c0.049-0.643,0.372-0.965,0.968-0.965h3.497
				c0.495,0.05,0.769,0.297,0.818,0.742c0,0.495-0.074,1.015-0.223,1.559l-1.19,3.934c-0.051,0.198,0,0.445,0.148,0.742
				c0.941,1.287,1.389,2.672,1.34,4.156c0,1.683-0.571,2.647-1.712,2.895c-0.1,0-0.273,0-0.521,0
				c-0.249,0.05-0.447,0.074-0.596,0.074c-0.496,0.05-0.844-0.173-1.042-0.668v2.969C169.579,43.356,169.331,43.628,168.885,43.678z
				 M169.629,28.315v10.984c0.099-0.247,0.248-0.371,0.446-0.371c0.248,0,0.521,0,0.819,0c0.744,0,1.09-0.445,1.041-1.336
				c0.149-1.236-0.223-2.474-1.116-3.711c-0.297-0.445-0.348-0.939-0.148-1.484l1.19-4.082c0.049-0.197-0.05-0.297-0.298-0.297
				h-1.563C169.752,28.018,169.629,28.117,169.629,28.315z M174.466,36.405c-0.446-0.049-0.695-0.297-0.744-0.742
				c0.049-0.445,0.298-0.692,0.744-0.742h10.046c0.446,0.05,0.693,0.297,0.744,0.742c-0.051,0.445-0.298,0.693-0.744,0.742h-2.977
				v4.156c-0.05,0.643,0.197,0.939,0.744,0.891h0.595c0.596,0,0.918-0.297,0.968-0.891c0.049-0.148,0.074-0.371,0.074-0.668
				c0.049-0.346,0.074-0.594,0.074-0.742c0-0.544,0.248-0.816,0.744-0.816c0.546,0.1,0.769,0.421,0.67,0.965
				c0,0.148-0.025,0.445-0.074,0.891c-0.05,0.495-0.101,0.816-0.149,0.965c-0.198,1.188-0.942,1.781-2.231,1.781h-0.894
				c-1.439,0.049-2.134-0.619-2.083-2.004v-4.527h-1.935c0,0.148-0.026,0.347-0.075,0.594c0,0.198,0,0.322,0,0.371
				c-0.1,2.523-1.413,4.502-3.943,5.938c-0.547,0.297-0.993,0.223-1.34-0.223c-0.248-0.445-0.124-0.842,0.372-1.188
				c2.133-1.088,3.225-2.598,3.274-4.527c0.049-0.247,0.074-0.568,0.074-0.965H174.466z M184.064,31.061
				c-0.496-0.049-0.77-0.271-0.818-0.668v-0.891c0-0.247-0.1-0.371-0.297-0.371h-6.995c-0.148,0-0.249,0.124-0.298,0.371v0.816
				c-0.1,0.445-0.372,0.693-0.818,0.742c-0.496-0.049-0.77-0.321-0.818-0.816v-1.633c0.049-0.594,0.396-0.915,1.042-0.965h3.646
				c-0.05-0.148-0.124-0.371-0.223-0.668c-0.149-0.297-0.249-0.52-0.298-0.668c-0.1-0.445,0.123-0.767,0.67-0.965
				c0.545-0.099,0.917,0.074,1.116,0.52c0.049,0.148,0.148,0.396,0.297,0.742c0.1,0.347,0.174,0.594,0.224,0.742
				c0,0.1,0,0.198,0,0.297h3.349c0.595,0.05,0.917,0.371,0.967,0.965v1.633C184.759,30.74,184.512,31.012,184.064,31.061z
				 M175.508,32.842c-0.446-0.049-0.695-0.297-0.744-0.742c0.049-0.445,0.298-0.692,0.744-0.742h7.888
				c0.446,0.05,0.693,0.297,0.744,0.742c-0.051,0.445-0.298,0.693-0.744,0.742H175.508z"/>
			<path class="st4" d="M187.115,42.342c-0.446-0.198-0.57-0.545-0.372-1.039c0.446-0.939,0.843-1.855,1.19-2.746
				c0.298-0.396,0.645-0.544,1.042-0.445c0.495,0.198,0.67,0.545,0.521,1.039c-0.248,0.693-0.669,1.633-1.265,2.82
				C187.982,42.416,187.61,42.539,187.115,42.342z M189.273,31.135c-0.596-0.049-0.919-0.346-0.968-0.891v-2.301
				c0.099-0.544,0.421-0.841,0.968-0.891h5.357v-0.891c0-0.445,0.272-0.668,0.818-0.668s0.818,0.223,0.818,0.668v0.891h5.358
				c0.595,0.05,0.917,0.371,0.967,0.965v2.152c-0.05,0.594-0.397,0.916-1.042,0.965h-5.283v1.336h5.805
				c0.595,0.05,0.917,0.371,0.967,0.965v2.227c-0.05,0.594-0.372,0.916-0.967,0.965h-5.805v0.297c0,0.495-0.272,0.742-0.818,0.742
				c-0.05,0-0.124,0-0.223,0l0.074,0.074c0.396,0.248,0.991,0.644,1.786,1.188c0.297,0.297,0.271,0.644-0.075,1.039
				c-0.397,0.297-0.794,0.272-1.19-0.074c-0.198-0.148-0.595-0.42-1.19-0.816c-0.298-0.197-0.496-0.346-0.596-0.445
				c-0.248-0.297-0.223-0.618,0.075-0.965c0.247-0.148,0.495-0.197,0.744-0.148c-0.149-0.148-0.224-0.346-0.224-0.594v-0.297h-5.804
				c-0.596-0.049-0.919-0.371-0.968-0.965v-2.227c0.049-0.594,0.372-0.915,0.968-0.965h5.804v-1.336H189.273z M189.496,34.104v0.965
				c0.049,0.198,0.149,0.297,0.298,0.297h4.837v-1.633h-4.837C189.645,33.733,189.545,33.857,189.496,34.104z M189.868,28.686v0.891
				c0,0.148,0.124,0.248,0.372,0.297h4.391v-1.633h-4.391C189.992,28.241,189.868,28.389,189.868,28.686z M193.291,43.01
				c-1.687,0.049-2.505-0.742-2.455-2.375v-2.078c0-0.494,0.272-0.742,0.818-0.742c0.495,0.05,0.769,0.297,0.818,0.742v1.707
				c-0.05,0.939,0.447,1.385,1.488,1.336h2.902c0.941,0.049,1.488-0.248,1.637-0.891c0-0.148,0.049-0.47,0.149-0.965
				c0.049-0.148,0.074-0.247,0.074-0.297c0.148-0.445,0.471-0.618,0.967-0.52c0.496,0.198,0.719,0.52,0.67,0.965
				c-0.05,0.248-0.124,0.594-0.223,1.039c-0.101,0.247-0.149,0.42-0.149,0.52c-0.298,1.088-1.216,1.607-2.753,1.559H193.291z
				 M200.956,29.576v-0.965c0-0.247-0.101-0.371-0.298-0.371h-4.391v1.633h4.391C200.855,29.873,200.956,29.775,200.956,29.576z
				 M201.104,33.733h-4.837v1.633h4.837c0.198,0,0.298-0.099,0.298-0.297v-0.965C201.402,33.807,201.303,33.684,201.104,33.733z
				 M203.933,41.823c-0.547,0.247-0.943,0.148-1.191-0.297c-0.148-0.198-0.397-0.618-0.743-1.262
				c-0.398-0.594-0.67-0.989-0.819-1.188c-0.248-0.396-0.174-0.717,0.224-0.965c0.396-0.197,0.769-0.123,1.116,0.223
				c0.148,0.198,0.421,0.594,0.818,1.188c0.396,0.545,0.67,0.94,0.818,1.188C204.403,41.106,204.329,41.476,203.933,41.823z"/>
			<path class="st4" d="M207.876,29.057c-0.447-0.049-0.695-0.297-0.744-0.742c0.049-0.396,0.297-0.618,0.744-0.668h4.39v-1.484
				c0.049-0.494,0.322-0.767,0.818-0.816c0.546,0.05,0.844,0.322,0.894,0.816v1.484h3.795c0.396,0.05,0.619,0.272,0.67,0.668
				c-0.051,0.445-0.273,0.693-0.67,0.742h-3.795v2.152h2.232c1.637-1.188,3.149-2.548,4.539-4.082
				c0.298-0.396,0.719-0.445,1.265-0.148c0.347,0.347,0.372,0.718,0.074,1.113c-1.092,1.089-2.208,2.128-3.349,3.117h4.093
				c0.495,0,0.744,0.248,0.744,0.742c-0.05,0.445-0.298,0.693-0.744,0.742h-6.027c-1.041,0.693-2.108,1.336-3.199,1.93h6.176
				c0.694,0.05,1.066,0.421,1.116,1.113v5.789c-0.1,0.594-0.472,0.939-1.116,1.039h-9.896c-0.646-0.1-1.018-0.445-1.116-1.039
				v-4.527c-0.744,0.297-1.514,0.594-2.307,0.891c-0.496,0.198-0.868,0.05-1.116-0.445c-0.1-0.544,0.074-0.915,0.521-1.113
				c3.025-1.039,5.73-2.251,8.111-3.637h-7.813c-0.446-0.049-0.695-0.297-0.744-0.742c0.049-0.445,0.298-0.692,0.744-0.742h6.102
				v-2.152H207.876z M210.927,36.033c-0.05,0-0.074,0.025-0.074,0.074c-0.051,0.05-0.149,0.074-0.298,0.074v0.074
				c-0.05,0.1-0.074,0.174-0.074,0.223v1.41h8.706v-1.41c-0.051-0.247-0.199-0.396-0.447-0.445H210.927z M218.739,41.229
				c0.248-0.05,0.396-0.223,0.447-0.52v-1.484h-8.706v1.484c0.049,0.297,0.197,0.47,0.446,0.52H218.739z"/>
		</g>
	</g>
	<g>
		<g>
			<path class="st3" d="M298.135,40.55c-0.451,0.271-0.835,0.249-1.149-0.067c-0.316-0.406-0.294-0.766,0.067-1.082
				c1.713-1.262,3.044-2.592,3.99-3.99c0.36-0.36,0.744-0.45,1.149-0.271c0.45,0.181,0.563,0.451,0.339,0.812
				c-0.181,0.271-0.384,0.541-0.609,0.812h7.439c0.45,0.045,0.699,0.271,0.744,0.676c0,0.451-0.158,0.812-0.474,1.082
				c-1.127,0.992-2.322,1.826-3.584,2.502c1.487,0.451,3.336,0.812,5.546,1.082c0.45,0.135,0.652,0.429,0.608,0.879
				c-0.135,0.406-0.497,0.586-1.082,0.541c-2.751-0.36-5.028-0.901-6.831-1.623c-1.668,0.722-4.125,1.353-7.371,1.894
				c-0.541,0.091-0.903-0.068-1.082-0.474c-0.046-0.541,0.135-0.833,0.541-0.879c2.705-0.406,4.778-0.879,6.222-1.42
				c-0.947-0.496-1.826-1.194-2.638-2.097c-0.271,0.271-0.677,0.632-1.218,1.082C298.473,40.235,298.27,40.415,298.135,40.55z
				 M297.526,50.425c-0.406,0.225-0.768,0.157-1.082-0.203c-0.271-0.361-0.227-0.676,0.135-0.947c1.037-0.585,2.276-1.42,3.72-2.502
				c0.406-0.225,0.767-0.203,1.082,0.068c0.315,0.406,0.293,0.744-0.067,1.014C300.547,48.441,299.284,49.298,297.526,50.425z
				 M297.188,45.961c-0.406-0.044-0.632-0.271-0.677-0.676c0.045-0.45,0.271-0.699,0.677-0.744h6.289v-0.947
				c0.045-0.496,0.315-0.766,0.812-0.812c0.496,0.045,0.767,0.316,0.812,0.812v0.947h5.816c0.406,0.045,0.631,0.294,0.677,0.744
				c-0.046,0.406-0.271,0.632-0.677,0.676h-5.816v2.976c0.09,1.578-0.632,2.344-2.164,2.3c-0.091,0-0.315,0-0.676,0
				c-0.451,0.044-0.768,0.067-0.947,0.067c-0.451,0-0.744-0.226-0.879-0.676c0-0.497,0.203-0.767,0.608-0.812h1.218
				c0.901,0.09,1.307-0.316,1.217-1.217v-2.638H297.188z M300.976,38.048c0.991,0.947,2.097,1.714,3.313,2.299
				c1.218-0.541,2.344-1.217,3.382-2.029c0.09-0.044,0.112-0.09,0.067-0.135c-0.045-0.09-0.113-0.135-0.203-0.135H300.976z
				 M310.646,50.289c-0.135-0.091-0.384-0.249-0.744-0.474c-1.487-0.947-2.525-1.578-3.11-1.894
				c-0.271-0.271-0.316-0.585-0.136-0.947c0.315-0.271,0.698-0.315,1.15-0.135c0.676,0.361,1.758,0.992,3.246,1.894
				c0.271,0.181,0.45,0.294,0.541,0.338c0.36,0.316,0.428,0.653,0.202,1.015C311.48,50.492,311.097,50.56,310.646,50.289z"/>
			<path class="st3" d="M313.893,39.874c-0.405-0.044-0.632-0.292-0.676-0.744c0.044-0.406,0.271-0.631,0.676-0.676h1.759v-2.638
				c0.044-0.45,0.314-0.699,0.812-0.744c0.45,0.091,0.698,0.338,0.744,0.744v2.638h1.556c0.45,0.045,0.698,0.271,0.743,0.676
				c-0.045,0.451-0.293,0.699-0.743,0.744h-1.556v1.961c0.18,0,0.338,0.045,0.474,0.135l1.623,1.556
				c0.314,0.316,0.338,0.654,0.067,1.014c-0.316,0.316-0.654,0.338-1.015,0.068l-1.149-1.217v7.575
				c-0.046,0.406-0.294,0.653-0.744,0.744c-0.497-0.045-0.768-0.293-0.812-0.744v-7.98c-0.541,1.443-1.038,2.525-1.488,3.246
				c-0.226,0.361-0.541,0.429-0.946,0.203c-0.136-0.09-0.203-0.271-0.203-0.541c-0.046-0.18,0.044-0.474,0.271-0.879
				c0.856-1.262,1.623-2.976,2.3-5.14H313.893z M321.061,50.762c-0.586-0.045-0.902-0.361-0.946-0.947V37.169
				c0.044-0.585,0.36-0.901,0.946-0.947h6.831c0.585,0.045,0.901,0.361,0.946,0.947v12.647c-0.045,0.585-0.361,0.901-0.946,0.947
				H321.061z M321.603,37.98v2.638h5.749V37.98c0-0.225-0.136-0.338-0.406-0.338h-4.937
				C321.738,37.642,321.603,37.755,321.603,37.98z M321.603,41.971v2.976h5.749v-2.976H321.603z M326.945,49.342
				c0.271,0,0.406-0.112,0.406-0.338v-2.705h-5.749v2.705c0,0.226,0.136,0.338,0.406,0.338H326.945z"/>
			<path class="st3" d="M332.288,40.144c-0.451-0.044-0.699-0.292-0.743-0.744c0.044-0.45,0.292-0.699,0.743-0.744h3.314
				c-0.181-0.225-0.497-0.653-0.947-1.285c-0.405-0.542-0.676-0.879-0.812-1.015c-0.226-0.36-0.158-0.699,0.203-1.015
				c0.406-0.18,0.788-0.112,1.149,0.203c0.18,0.181,0.541,0.632,1.082,1.353c0.45,0.586,0.744,0.947,0.88,1.082
				c0.18,0.181,0.225,0.406,0.135,0.676h2.503c0.314-0.406,0.946-1.285,1.894-2.638c0.18-0.225,0.292-0.382,0.338-0.473
				c0.314-0.36,0.698-0.45,1.149-0.271c0.45,0.271,0.563,0.608,0.339,1.014c-0.136,0.181-0.43,0.541-0.88,1.083
				c-0.451,0.586-0.767,1.014-0.946,1.285h3.449c0.45,0.045,0.698,0.294,0.743,0.744c-0.045,0.451-0.293,0.699-0.743,0.744h-5.613
				c0,0.722-0.046,1.669-0.136,2.841h6.628c0.495,0.045,0.766,0.293,0.812,0.744c-0.046,0.451-0.316,0.7-0.812,0.744h-6.357
				c0.991,2.661,3.179,4.396,6.561,5.208c0.495,0.225,0.652,0.609,0.474,1.15c-0.227,0.45-0.654,0.585-1.285,0.406
				c-3.473-1.082-5.704-2.863-6.695-5.343c-0.813,2.299-3.021,4.125-6.628,5.478c-0.632,0.225-1.038,0.112-1.218-0.338
				c-0.227-0.451-0.091-0.835,0.406-1.149c3.787-1.262,5.86-3.066,6.222-5.411h-6.087c-0.451-0.044-0.699-0.293-0.744-0.744
				c0.045-0.45,0.293-0.698,0.744-0.744h6.29c0.09-0.991,0.135-1.938,0.135-2.841H332.288z"/>
			<path class="st3" d="M348.655,37.98c-0.406-0.044-0.632-0.271-0.677-0.676c0.045-0.45,0.271-0.699,0.677-0.744h6.763
				c0.406,0.045,0.631,0.294,0.677,0.744c-0.046,0.406-0.271,0.632-0.677,0.676h-1.961v4.125h1.556
				c0.405,0.045,0.631,0.271,0.676,0.676c-0.045,0.451-0.271,0.7-0.676,0.744h-1.556v4.193c0.18-0.044,0.45-0.09,0.812-0.135
				c0.45-0.09,0.766-0.157,0.946-0.203c0.542-0.044,0.834,0.181,0.88,0.676c0.044,0.451-0.181,0.722-0.677,0.812
				c-0.496,0.091-1.42,0.249-2.772,0.473c-1.804,0.36-3.156,0.609-4.058,0.744c-0.451,0-0.744-0.226-0.88-0.676
				c-0.045-0.541,0.18-0.856,0.677-0.947c0.135,0,0.314-0.022,0.541-0.068v-7.236c0.044-0.45,0.271-0.699,0.676-0.744
				c0.45,0.045,0.699,0.294,0.744,0.744v7.034c0.541-0.044,1.104-0.135,1.691-0.271V37.98H348.655z M354.877,41.768
				c-0.271-0.36-0.248-0.744,0.067-1.15c1.083-1.488,1.938-3.133,2.57-4.937c0.18-0.406,0.518-0.585,1.015-0.541
				c0.495,0.226,0.653,0.564,0.474,1.014c-0.271,0.722-0.564,1.353-0.88,1.894h5.546c0.406,0.045,0.631,0.293,0.677,0.744
				c-0.046,0.451-0.271,0.7-0.677,0.744h-0.879c-0.316,3.156-1.105,5.681-2.367,7.575c0.901,1.082,2.029,1.984,3.382,2.705
				c0.405,0.271,0.518,0.676,0.338,1.217c-0.316,0.45-0.722,0.541-1.218,0.271c-1.397-0.857-2.569-1.826-3.517-2.908
				c-0.946,1.083-2.188,2.074-3.72,2.976c-0.451,0.225-0.856,0.157-1.217-0.203c-0.271-0.451-0.181-0.857,0.271-1.217
				c1.577-0.812,2.817-1.758,3.72-2.84c-1.038-1.713-1.714-3.674-2.029-5.884c-0.045,0-0.067-0.044-0.067-0.136
				c-0.136,0.227-0.294,0.474-0.474,0.744C355.575,42.106,355.237,42.084,354.877,41.768z M357.65,39.536
				c-0.046,0-0.113-0.022-0.203-0.068c0.044,0.045,0.067,0.113,0.067,0.203c0.315,2.57,0.947,4.622,1.894,6.154
				c1.082-1.713,1.713-3.81,1.894-6.29H357.65z"/>
			<path class="st3" d="M365.901,41.7c-0.362-0.044-0.564-0.271-0.609-0.676c0.045-0.36,0.247-0.563,0.609-0.609h6.627v-0.406
				c0.09-0.496,0.36-0.766,0.813-0.812c0.45,0.045,0.698,0.316,0.743,0.812v0.406h6.695c0.36,0.045,0.563,0.249,0.609,0.609
				c-0.046,0.406-0.249,0.632-0.609,0.676h-6.695v1.353h4.938c0.676,0,1.015,0.338,1.015,1.015v1.488
				c0.044,1.127-0.52,1.714-1.691,1.758c-0.361,0-0.743,0-1.149,0s-0.654-0.18-0.744-0.541c-0.045-0.36,0.09-0.563,0.406-0.608
				c0.314,0,0.608,0,0.879,0c0.45,0.045,0.698-0.158,0.744-0.609v-0.879c0.044-0.179-0.067-0.292-0.338-0.338h-4.059v1.015
				c1.668,1.939,3.968,3.27,6.898,3.99c0.496,0.225,0.653,0.585,0.474,1.083c-0.181,0.45-0.564,0.585-1.149,0.406
				c-2.705-0.903-4.78-2.165-6.223-3.788v3.99c-0.091,0.45-0.338,0.699-0.743,0.744c-0.452-0.045-0.723-0.294-0.813-0.744v-3.99
				c-1.308,1.533-3.404,2.863-6.289,3.99c-0.497,0.18-0.879,0.044-1.149-0.406c-0.136-0.497,0.021-0.857,0.473-1.082
				c2.976-0.856,5.298-2.276,6.966-4.261v-0.947h-3.854c-0.271,0-0.406,0.135-0.406,0.406v1.894c-0.045,0.451-0.315,0.7-0.812,0.744
				c-0.451-0.09-0.699-0.338-0.743-0.744v-2.57c0-0.676,0.338-1.015,1.014-1.015h4.802V41.7H365.901z M365.36,39.603
				c-0.316-0.271-0.316-0.585,0-0.947c1.172-1.037,2.073-2.141,2.705-3.314c0.225-0.406,0.563-0.541,1.015-0.406
				c0.449,0.181,0.585,0.474,0.405,0.879c-0.045,0.091-0.113,0.203-0.203,0.338c-0.091,0.181-0.158,0.316-0.202,0.406h3.922
				c0.36,0.045,0.563,0.249,0.609,0.609c-0.046,0.361-0.249,0.564-0.609,0.609h-4.869c-0.497,0.676-1.06,1.285-1.69,1.826
				C366.036,39.874,365.675,39.874,365.36,39.603z M370.905,39.942c-0.271,0.271-0.586,0.248-0.946-0.068
				c-0.046-0.09-0.181-0.247-0.406-0.473c-0.226-0.271-0.384-0.428-0.473-0.474c-0.271-0.271-0.271-0.541,0-0.812
				c0.314-0.225,0.631-0.225,0.946,0c0.496,0.497,0.788,0.812,0.879,0.947C371.221,39.333,371.221,39.627,370.905,39.942z
				 M373.543,39.13c-0.361-0.225-0.405-0.541-0.135-0.947c0.766-0.766,1.396-1.713,1.894-2.841c0.135-0.36,0.474-0.496,1.015-0.406
				c0.36,0.181,0.495,0.474,0.405,0.879l-0.338,0.744h4.464c0.405,0.045,0.631,0.249,0.676,0.609
				c-0.045,0.361-0.271,0.564-0.676,0.609h-5.275c-0.046,0.091-0.113,0.203-0.203,0.338c-0.181,0.226-0.429,0.541-0.744,0.947
				C374.264,39.378,373.903,39.401,373.543,39.13z M378.615,39.942c-0.361,0.271-0.676,0.271-0.946,0
				c-0.091-0.09-0.271-0.271-0.541-0.541c-0.271-0.315-0.451-0.496-0.541-0.541c-0.227-0.271-0.203-0.541,0.067-0.812
				c0.314-0.271,0.631-0.271,0.947,0c0.36,0.316,0.698,0.654,1.014,1.014C378.886,39.378,378.886,39.671,378.615,39.942z"/>
		</g>
	</g>
	<g>
		<g>
			<path class="st3" d="M37.238,133.506c-0.931,0.328-1.531,0.273-1.805-0.164c-0.164-0.273-0.246-0.765-0.246-1.477v-12.797
				c0-0.656,0.328-1.038,0.984-1.148c1.586-0.273,3.499-0.71,5.742-1.313c0.602-0.054,1.012,0.164,1.23,0.656
				c0.109,0.547-0.082,0.931-0.574,1.148c-0.219,0.055-0.547,0.137-0.984,0.246c-1.915,0.438-3.228,0.711-3.938,0.82
				c-0.328,0.055-0.521,0.274-0.574,0.656v3.773h5.004c0.546,0.055,0.848,0.356,0.902,0.902c-0.055,0.547-0.356,0.849-0.902,0.902
				h-5.004v5.414c0,0.219,0.136,0.328,0.41,0.328c0.546-0.164,1.34-0.41,2.379-0.738c0.984-0.382,1.694-0.628,2.133-0.738
				c0.656-0.164,1.094,0.028,1.313,0.574c0.054,0.656-0.246,1.095-0.902,1.313C40.163,132.632,38.44,133.178,37.238,133.506z
				 M45.195,136.623c-0.603-0.055-0.931-0.383-0.984-0.984v-16.57c0.054-0.71,0.438-1.093,1.148-1.148h6.398
				c0.71,0.055,1.094,0.438,1.148,1.148v11.074c0.054,1.751-0.82,2.68-2.625,2.789c-0.438,0-1.066,0-1.887,0
				c-0.711-0.054-1.121-0.382-1.23-0.984c0.054-0.601,0.355-0.929,0.902-0.984c0.546,0,1.038,0,1.477,0
				c1.038,0.055,1.53-0.382,1.477-1.313v-9.434c0-0.328-0.164-0.492-0.492-0.492h-3.855c-0.328,0-0.492,0.164-0.492,0.492v15.422
				C46.125,136.24,45.797,136.568,45.195,136.623z"/>
			<path class="st3" d="M56.762,122.596c-0.492,0-0.82-0.191-0.984-0.574c-0.055-0.492,0.027-1.038,0.246-1.641
				c0.164-0.328,0.382-0.902,0.656-1.723c0.218-0.437,0.355-0.765,0.41-0.984c0.218-0.546,0.628-0.765,1.23-0.656
				c0.546,0.164,0.738,0.547,0.574,1.148c-0.055,0.11-0.11,0.246-0.164,0.41c-0.328,0.875-0.574,1.477-0.738,1.805
				c-0.055,0.328,0.027,0.492,0.246,0.492h3.363c0.054-0.109,0.109-0.3,0.164-0.574c0.328-1.313,0.574-2.351,0.738-3.117
				c0.164-0.656,0.574-0.929,1.23-0.82c0.602,0.11,0.874,0.465,0.82,1.066c-0.274,1.148-0.574,2.297-0.902,3.445h10.5
				c0.546,0.055,0.848,0.328,0.902,0.82c-0.055,0.547-0.356,0.849-0.902,0.902H63.16c-0.274,0.82-0.574,1.614-0.902,2.379h9.598
				c0.492,0.055,0.766,0.328,0.82,0.82c0,0.547-0.137,1.04-0.41,1.477c-1.148,2.079-2.461,3.72-3.938,4.922
				c1.53,0.875,3.309,1.532,5.332,1.969c0.71,0.218,1.012,0.628,0.902,1.23c-0.274,0.656-0.793,0.902-1.559,0.738
				c-2.735-0.767-4.868-1.696-6.398-2.789c-1.751,1.093-4.02,2.078-6.809,2.953c-0.656,0.218-1.148,0.027-1.477-0.574
				c-0.11-0.603,0.109-1.04,0.656-1.313c2.515-0.656,4.539-1.395,6.07-2.215c-1.641-1.53-2.844-3.308-3.609-5.332
				c-1.203,2.461-2.762,4.731-4.676,6.809c-0.438,0.437-0.902,0.437-1.395,0c-0.383-0.546-0.328-1.093,0.164-1.641
				c2.406-2.406,4.266-5.55,5.578-9.434H56.762z M63.242,126.615c0.82,1.805,1.969,3.31,3.445,4.512
				c1.477-1.038,2.625-2.379,3.445-4.02c0.054-0.273-0.055-0.437-0.328-0.492H63.242z M70.543,120.053
				c-0.219-0.164-0.603-0.464-1.148-0.902c-0.547-0.492-0.931-0.82-1.148-0.984c-0.383-0.382-0.41-0.765-0.082-1.148
				c0.438-0.273,0.874-0.3,1.313-0.082c0.492,0.438,1.258,1.04,2.297,1.805c0.382,0.383,0.41,0.793,0.082,1.23
				C71.417,120.354,70.98,120.381,70.543,120.053z"/>
			<path class="st3" d="M79.895,123.416c-0.055,0-0.11,0.028-0.164,0.082h2.051c0.164-0.273,0.41-0.738,0.738-1.395
				c0.328-0.546,0.546-0.929,0.656-1.148c0.273-0.492,0.684-0.656,1.23-0.492c0.438,0.274,0.546,0.629,0.328,1.066
				c-0.219,0.438-0.603,1.095-1.148,1.969h2.215c0.438,0.055,0.684,0.301,0.738,0.738c-0.055,0.492-0.301,0.767-0.738,0.82h-3.691
				c0.109,0.11,0.164,0.246,0.164,0.41v1.723h3.117c0.438,0.055,0.684,0.301,0.738,0.738c-0.055,0.492-0.301,0.767-0.738,0.82
				h-3.117v4.84c0,1.53-0.685,2.324-2.051,2.379c-0.11,0-0.356,0-0.738,0c-0.438,0.054-0.738,0.082-0.902,0.082
				c-0.547,0-0.875-0.301-0.984-0.902c0.054-0.547,0.328-0.849,0.82-0.902c0.109,0,0.273,0.027,0.492,0.082c0.273,0,0.438,0,0.492,0
				c0.71,0,1.066-0.383,1.066-1.148v-4.43h-3.363c-0.492-0.054-0.767-0.328-0.82-0.82c0.054-0.437,0.328-0.683,0.82-0.738h3.363
				v-1.723c0-0.164,0.054-0.3,0.164-0.41h-4.02c-0.492-0.054-0.767-0.328-0.82-0.82c0.054-0.437,0.328-0.683,0.82-0.738h2.543
				c-0.164-0.054-0.301-0.191-0.41-0.41c-0.055-0.054-0.137-0.191-0.246-0.41c-0.328-0.546-0.547-0.902-0.656-1.066
				c-0.219-0.437-0.137-0.792,0.246-1.066c0.492-0.164,0.874-0.054,1.148,0.328c0.109,0.11,0.273,0.328,0.492,0.656
				c0.273,0.383,0.438,0.629,0.492,0.738C80.44,122.706,80.332,123.088,79.895,123.416z M76.531,134.162
				c-0.383-0.274-0.492-0.628-0.328-1.066c0.492-0.929,0.984-1.914,1.477-2.953c0.218-0.437,0.546-0.574,0.984-0.41
				c0.438,0.219,0.602,0.547,0.492,0.984c-0.164,0.274-0.41,0.793-0.738,1.559c-0.383,0.711-0.656,1.23-0.82,1.559
				C77.379,134.216,77.023,134.326,76.531,134.162z M77.187,120.217c-0.438-0.054-0.685-0.328-0.738-0.82
				c0.054-0.437,0.3-0.683,0.738-0.738h3.363c-0.164-0.546-0.328-0.984-0.492-1.313c-0.055-0.546,0.164-0.874,0.656-0.984
				c0.546-0.109,0.956,0.055,1.23,0.492c0,0.055,0.027,0.164,0.082,0.328c0.218,0.711,0.41,1.204,0.574,1.477h2.707
				c0.492,0.055,0.766,0.301,0.82,0.738c-0.055,0.492-0.328,0.767-0.82,0.82H77.187z M85.555,133.013
				c-0.438,0.219-0.82,0.11-1.148-0.328c-0.328-0.492-0.738-1.148-1.23-1.969c-0.219-0.382-0.137-0.738,0.246-1.066
				c0.438-0.164,0.82-0.054,1.148,0.328c0.109,0.164,0.328,0.492,0.656,0.984c0.273,0.438,0.464,0.767,0.574,0.984
				C86.019,132.33,85.936,132.685,85.555,133.013z M85.801,136.049c-0.492-0.328-0.603-0.767-0.328-1.313
				c1.258-1.694,1.858-4.43,1.805-8.203v-7.383c0-0.656,0.328-1.038,0.984-1.148c1.694-0.054,3.691-0.246,5.988-0.574
				c0.602-0.109,0.956,0.137,1.066,0.738c0.054,0.547-0.192,0.875-0.738,0.984c-1.695,0.219-3.392,0.383-5.086,0.492
				c-0.274,0-0.41,0.164-0.41,0.492v3.773h6.07c0.546,0.055,0.848,0.356,0.902,0.902c-0.055,0.492-0.356,0.767-0.902,0.82h-1.641
				v10.008c-0.055,0.546-0.356,0.847-0.902,0.902c-0.492-0.055-0.767-0.356-0.82-0.902v-10.008h-2.707v0.82
				c0.054,4.157-0.603,7.247-1.969,9.27C86.839,136.266,86.402,136.377,85.801,136.049z"/>
			<path class="st3" d="M98.023,127.517c-0.547-0.054-0.849-0.328-0.902-0.82c0.054-0.492,0.355-0.765,0.902-0.82h8.367
				c0.546,0.055,0.848,0.328,0.902,0.82c-0.055,0.492-0.356,0.767-0.902,0.82h-1.148v5.414c0,0.767,0.464,1.148,1.395,1.148h6.563
				c1.094,0.054,1.694-0.382,1.805-1.313c0.054-0.273,0.109-0.792,0.164-1.559c0,0.164,0.027-0.027,0.082-0.574
				c0.054-0.546,0.382-0.792,0.984-0.738c0.492,0.11,0.71,0.492,0.656,1.148c0,0.11-0.028,0.274-0.082,0.492
				c-0.055,0.984-0.137,1.641-0.246,1.969c-0.274,1.53-1.313,2.269-3.117,2.215h-7.301c-1.805,0.054-2.68-0.767-2.625-2.461v-5.742
				h-2.051v1.313c0.109,3.008-0.875,5.414-2.953,7.219c-0.547,0.382-1.013,0.382-1.395,0c-0.328-0.438-0.301-0.875,0.082-1.313
				c1.694-1.477,2.515-3.445,2.461-5.906l0.082-1.313H98.023z M98.598,121.775c-0.547-0.054-0.849-0.328-0.902-0.82v-2.297
				c0.054-0.656,0.41-1.011,1.066-1.066h16.16c0.656,0.055,1.012,0.41,1.066,1.066v2.133c0,0.492-0.301,0.738-0.902,0.738
				c-0.603-0.054-0.931-0.3-0.984-0.738v-1.148c0-0.273-0.137-0.41-0.41-0.41H99.992c-0.219,0-0.356,0.137-0.41,0.41v1.313
				C99.527,121.447,99.199,121.721,98.598,121.775z M99.254,123.498c-0.492-0.054-0.767-0.355-0.82-0.902
				c0.054-0.492,0.328-0.765,0.82-0.82h6.07c0.546,0.055,0.848,0.328,0.902,0.82c-0.055,0.547-0.356,0.849-0.902,0.902H99.254z
				 M107.539,124.646c-0.492-0.054-0.767-0.355-0.82-0.902c0.054-0.492,0.328-0.765,0.82-0.82h4.594v-1.148
				c0.054-0.546,0.355-0.847,0.902-0.902c0.546,0.055,0.848,0.356,0.902,0.902v1.148h1.887c0.492,0.055,0.766,0.328,0.82,0.82
				c-0.055,0.547-0.328,0.849-0.82,0.902h-1.887v5.332c0.109,1.805-0.738,2.68-2.543,2.625c-0.383,0.055-1.095,0.082-2.133,0.082
				c-0.603-0.054-0.957-0.328-1.066-0.82c0.054-0.546,0.3-0.847,0.738-0.902c0.602,0,1.202,0,1.805,0
				c0.984,0.055,1.448-0.382,1.395-1.313v-5.004H107.539z M110.328,129.322c-0.438,0.219-0.82,0.137-1.148-0.246
				c-0.383-0.765-0.793-1.477-1.23-2.133c-0.219-0.437-0.137-0.792,0.246-1.066c0.492-0.218,0.874-0.136,1.148,0.246
				c0.164,0.219,0.41,0.603,0.738,1.148c0.273,0.383,0.464,0.656,0.574,0.82C110.93,128.639,110.82,129.049,110.328,129.322z"/>
			<path class="st3" d="M118.367,135.885c-0.438-0.328-0.547-0.767-0.328-1.313c0.766-1.421,1.12-3.938,1.066-7.547v-8.449
				c0-0.765,0.41-1.148,1.23-1.148h3.527c0.766,0,1.148,0.383,1.148,1.148v15.012c0.054,1.477-0.603,2.215-1.969,2.215
				c-0.328,0.054-0.738,0.082-1.23,0.082s-0.793-0.246-0.902-0.738c0-0.547,0.218-0.875,0.656-0.984
				c0.109,0.054,0.41,0.082,0.902,0.082c0.71,0.054,1.038-0.301,0.984-1.066v-3.855h-2.625c-0.11,2.625-0.547,4.703-1.313,6.234
				C119.187,136.049,118.805,136.158,118.367,135.885z M120.828,119.396v3.199h2.625v-3.199c0-0.328-0.164-0.464-0.492-0.41h-1.641
				C120.992,118.932,120.828,119.068,120.828,119.396z M120.828,127.599v0.164h2.625v-3.691h-2.625V127.599z M126.734,121.119
				c-0.547-0.054-0.849-0.355-0.902-0.902c0.054-0.492,0.355-0.765,0.902-0.82h4.184v-2.133c0.054-0.492,0.355-0.765,0.902-0.82
				c0.546,0.055,0.848,0.328,0.902,0.82v2.133h4.512c0.492,0.055,0.766,0.328,0.82,0.82c-0.055,0.547-0.328,0.849-0.82,0.902h-4.512
				v2.625h3.281c0.656,0.11,1.038,0.492,1.148,1.148v6.07c0.054,1.587-0.603,2.379-1.969,2.379c-0.328,0-0.685,0-1.066,0
				c-0.603,0-0.957-0.273-1.066-0.82c0.054-0.546,0.273-0.847,0.656-0.902h0.82c0.656,0.055,0.956-0.3,0.902-1.066v-4.594
				c-0.055-0.328-0.219-0.519-0.492-0.574h-2.215v10.172c-0.055,0.546-0.356,0.847-0.902,0.902
				c-0.547-0.055-0.849-0.356-0.902-0.902v-10.172h-2.133c-0.219,0.055-0.356,0.219-0.41,0.492v6.973
				c-0.055,0.492-0.356,0.767-0.902,0.82c-0.492-0.054-0.767-0.328-0.82-0.82v-7.957c0.164-0.656,0.546-1.038,1.148-1.148h3.117
				v-2.625H126.734z"/>
			<path class="st3" d="M140.598,136.213c-0.711,0.164-1.177,0.027-1.395-0.41c-0.274-0.603-0.11-1.066,0.492-1.395
				c4.703-1.093,7.328-2.953,7.875-5.578c0.218-0.765,0.382-1.832,0.492-3.199c0.054-0.601,0.382-0.929,0.984-0.984
				c0.602,0.055,0.93,0.383,0.984,0.984c0,0.164-0.028,0.438-0.082,0.82c-0.055,0.767-0.11,1.313-0.164,1.641
				c1.202,3.336,4.047,5.387,8.531,6.152c0.546,0.218,0.71,0.656,0.492,1.313c-0.219,0.437-0.685,0.601-1.395,0.492
				c-4.32-0.931-7.109-2.843-8.367-5.742C148.116,133.042,145.301,135.009,140.598,136.213z M140.844,126.533
				c-0.603,0.164-1.066,0.028-1.395-0.41c-0.219-0.656-0.055-1.093,0.492-1.313c4.594-0.874,7.219-2.324,7.875-4.348
				c0.328-0.765,0.492-1.832,0.492-3.199c0.109-0.601,0.438-0.929,0.984-0.984c0.656,0.055,1.012,0.41,1.066,1.066
				c-0.11,1.587-0.301,2.735-0.574,3.445v0.082c1.038,0.438,2.789,1.204,5.25,2.297c1.586,0.711,2.679,1.204,3.281,1.477
				c0.546,0.274,0.71,0.738,0.492,1.395c-0.328,0.492-0.793,0.629-1.395,0.41c-3.172-1.585-6.017-2.953-8.531-4.102
				C147.734,124.264,145.055,125.659,140.844,126.533z M143.715,121.529c-1.313-1.148-2.161-1.887-2.543-2.215
				c-0.383-0.437-0.41-0.82-0.082-1.148c0.438-0.382,0.902-0.41,1.395-0.082c0.273,0.164,0.848,0.603,1.723,1.313
				c0.438,0.383,0.738,0.629,0.902,0.738c0.382,0.492,0.382,0.931,0,1.313C144.727,121.83,144.261,121.857,143.715,121.529z
				 M144.945,130.881c-0.438,0.383-0.902,0.356-1.395-0.082c-0.219-0.273-0.767-0.82-1.641-1.641
				c-0.274-0.273-0.465-0.464-0.574-0.574c-0.383-0.437-0.356-0.847,0.082-1.23c0.438-0.328,0.874-0.3,1.313,0.082
				c0.218,0.164,0.602,0.521,1.148,1.066c0.602,0.547,0.984,0.902,1.148,1.066C145.409,130.007,145.383,130.444,144.945,130.881z
				 M154.051,130.717c-0.383,0.383-0.849,0.41-1.395,0.082c-0.328-0.437-0.301-0.874,0.082-1.313
				c1.148-0.984,1.94-1.694,2.379-2.133c0.438-0.437,0.902-0.492,1.395-0.164c0.438,0.383,0.464,0.793,0.082,1.23
				C156.047,128.912,155.199,129.679,154.051,130.717z M154.215,121.447c-0.492,0.328-0.957,0.274-1.395-0.164
				c-0.328-0.437-0.301-0.847,0.082-1.23c0.328-0.218,0.956-0.683,1.887-1.395c0.382-0.328,0.656-0.546,0.82-0.656
				c0.492-0.328,0.93-0.3,1.313,0.082c0.328,0.383,0.328,0.793,0,1.23C155.663,120.245,154.761,120.955,154.215,121.447z"/>
			<path class="st3" d="M163.156,125.713c-0.82,0-1.23-0.382-1.23-1.148v-5.414c0.054-0.601,0.382-0.929,0.984-0.984
				c0.602,0.055,0.93,0.383,0.984,0.984v4.184c0,0.383,0.191,0.574,0.574,0.574h4.43v-6.48c0.054-0.601,0.382-0.929,0.984-0.984
				c0.656,0.055,1.012,0.383,1.066,0.984v6.48h4.43c0.382-0.054,0.574-0.246,0.574-0.574v-4.184
				c0.054-0.601,0.382-0.929,0.984-0.984c0.602,0.055,0.93,0.383,0.984,0.984v5.414c0,0.767-0.41,1.148-1.23,1.148h-5.742v8.203
				h5.086c0.382,0,0.574-0.218,0.574-0.656v-4.922c0.109-0.492,0.438-0.765,0.984-0.82c0.602,0.055,0.93,0.328,0.984,0.82v5.66
				c0,1.038-0.521,1.559-1.559,1.559h-14.191c-0.984,0-1.505-0.521-1.559-1.559v-5.66c0.054-0.546,0.382-0.847,0.984-0.902
				c0.602,0.055,0.93,0.356,0.984,0.902v4.922c0,0.438,0.218,0.656,0.656,0.656h5.004v-8.203H163.156z"/>
			<path class="st3" d="M182.68,136.541c-0.492-0.055-0.767-0.356-0.82-0.902v-17.063c0.054-0.71,0.41-1.066,1.066-1.066h3.855
				c0.546,0.055,0.848,0.328,0.902,0.82c0,0.547-0.082,1.122-0.246,1.723l-1.313,4.348c-0.055,0.219,0,0.492,0.164,0.82
				c1.038,1.423,1.53,2.953,1.477,4.594c0,1.86-0.629,2.926-1.887,3.199c-0.11,0-0.301,0-0.574,0
				c-0.274,0.055-0.492,0.082-0.656,0.082c-0.547,0.055-0.931-0.191-1.148-0.738v3.281
				C183.445,136.184,183.172,136.486,182.68,136.541z M183.5,119.56v12.141c0.109-0.273,0.273-0.41,0.492-0.41
				c0.273,0,0.574,0,0.902,0c0.82,0,1.202-0.492,1.148-1.477c0.164-1.366-0.246-2.734-1.23-4.102
				c-0.328-0.492-0.383-1.038-0.164-1.641l1.313-4.512c0.054-0.218-0.055-0.328-0.328-0.328h-1.723
				C183.636,119.232,183.5,119.343,183.5,119.56z M188.832,128.502c-0.492-0.054-0.767-0.328-0.82-0.82
				c0.054-0.492,0.328-0.765,0.82-0.82h11.074c0.492,0.055,0.766,0.328,0.82,0.82c-0.055,0.492-0.328,0.767-0.82,0.82h-3.281v4.594
				c-0.055,0.71,0.218,1.038,0.82,0.984h0.656c0.656,0,1.012-0.328,1.066-0.984c0.054-0.164,0.082-0.41,0.082-0.738
				c0.054-0.382,0.082-0.656,0.082-0.82c0-0.601,0.273-0.902,0.82-0.902c0.602,0.11,0.848,0.465,0.738,1.066
				c0,0.164-0.028,0.492-0.082,0.984c-0.055,0.547-0.11,0.902-0.164,1.066c-0.219,1.313-1.039,1.969-2.461,1.969h-0.984
				c-1.587,0.054-2.352-0.685-2.297-2.215v-5.004h-2.133c0,0.164-0.028,0.383-0.082,0.656c0,0.219,0,0.356,0,0.41
				c-0.11,2.789-1.559,4.976-4.348,6.563c-0.603,0.328-1.095,0.246-1.477-0.246c-0.274-0.492-0.137-0.931,0.41-1.313
				c2.351-1.202,3.555-2.871,3.609-5.004c0.054-0.273,0.082-0.628,0.082-1.066H188.832z M199.414,122.596
				c-0.547-0.054-0.849-0.3-0.902-0.738v-0.984c0-0.273-0.11-0.41-0.328-0.41h-7.711c-0.164,0-0.274,0.137-0.328,0.41v0.902
				c-0.11,0.492-0.41,0.767-0.902,0.82c-0.547-0.054-0.849-0.355-0.902-0.902v-1.805c0.054-0.656,0.438-1.011,1.148-1.066h4.02
				c-0.055-0.164-0.137-0.41-0.246-0.738c-0.164-0.328-0.274-0.574-0.328-0.738c-0.11-0.492,0.136-0.847,0.738-1.066
				c0.602-0.109,1.012,0.082,1.23,0.574c0.054,0.164,0.164,0.438,0.328,0.82c0.109,0.383,0.191,0.656,0.246,0.82
				c0,0.11,0,0.219,0,0.328h3.691c0.656,0.055,1.012,0.41,1.066,1.066v1.805C200.18,122.241,199.906,122.542,199.414,122.596z
				 M189.98,124.564c-0.492-0.054-0.767-0.328-0.82-0.82c0.054-0.492,0.328-0.765,0.82-0.82h8.695
				c0.492,0.055,0.766,0.328,0.82,0.82c-0.055,0.492-0.328,0.767-0.82,0.82H189.98z"/>
			<path class="st3" d="M202.777,135.064c-0.492-0.219-0.629-0.603-0.41-1.148c0.492-1.038,0.93-2.051,1.313-3.035
				c0.328-0.437,0.71-0.601,1.148-0.492c0.546,0.219,0.738,0.603,0.574,1.148c-0.274,0.767-0.738,1.805-1.395,3.117
				C203.733,135.146,203.323,135.282,202.777,135.064z M205.156,122.678c-0.656-0.054-1.013-0.382-1.066-0.984v-2.543
				c0.109-0.601,0.464-0.929,1.066-0.984h5.906v-0.984c0-0.492,0.3-0.738,0.902-0.738c0.602,0,0.902,0.246,0.902,0.738v0.984h5.906
				c0.656,0.055,1.012,0.41,1.066,1.066v2.379c-0.055,0.656-0.438,1.013-1.148,1.066h-5.824v1.477h6.398
				c0.656,0.055,1.012,0.41,1.066,1.066v2.461c-0.055,0.656-0.41,1.013-1.066,1.066h-6.398v0.328c0,0.547-0.301,0.82-0.902,0.82
				c-0.055,0-0.137,0-0.246,0l0.082,0.082c0.438,0.274,1.094,0.711,1.969,1.313c0.328,0.328,0.3,0.711-0.082,1.148
				c-0.438,0.328-0.875,0.301-1.313-0.082c-0.219-0.164-0.656-0.464-1.313-0.902c-0.328-0.218-0.547-0.382-0.656-0.492
				c-0.274-0.328-0.246-0.683,0.082-1.066c0.273-0.164,0.546-0.218,0.82-0.164c-0.164-0.164-0.246-0.382-0.246-0.656v-0.328h-6.398
				c-0.656-0.054-1.013-0.41-1.066-1.066v-2.461c0.054-0.656,0.41-1.011,1.066-1.066h6.398v-1.477H205.156z M205.402,125.959v1.066
				c0.054,0.219,0.164,0.328,0.328,0.328h5.332v-1.805h-5.332C205.566,125.549,205.456,125.686,205.402,125.959z M205.812,119.971
				v0.984c0,0.164,0.136,0.274,0.41,0.328h4.84v-1.805h-4.84C205.948,119.478,205.812,119.642,205.812,119.971z M209.586,135.803
				c-1.859,0.054-2.762-0.82-2.707-2.625v-2.297c0-0.546,0.3-0.82,0.902-0.82c0.546,0.055,0.848,0.328,0.902,0.82v1.887
				c-0.055,1.038,0.492,1.53,1.641,1.477h3.199c1.038,0.054,1.641-0.274,1.805-0.984c0-0.164,0.054-0.519,0.164-1.066
				c0.054-0.164,0.082-0.273,0.082-0.328c0.164-0.492,0.52-0.683,1.066-0.574c0.546,0.219,0.792,0.574,0.738,1.066
				c-0.055,0.274-0.137,0.656-0.246,1.148c-0.11,0.273-0.164,0.464-0.164,0.574c-0.328,1.202-1.341,1.776-3.035,1.723H209.586z
				 M218.035,120.955v-1.066c0-0.273-0.11-0.41-0.328-0.41h-4.84v1.805h4.84C217.925,121.283,218.035,121.174,218.035,120.955z
				 M218.199,125.549h-5.332v1.805h5.332c0.218,0,0.328-0.109,0.328-0.328v-1.066C218.527,125.631,218.417,125.495,218.199,125.549z
				 M221.316,134.49c-0.603,0.273-1.039,0.164-1.313-0.328c-0.164-0.219-0.438-0.683-0.82-1.395
				c-0.438-0.656-0.738-1.093-0.902-1.313c-0.274-0.437-0.192-0.792,0.246-1.066c0.438-0.218,0.848-0.136,1.23,0.246
				c0.164,0.219,0.464,0.656,0.902,1.313c0.438,0.603,0.738,1.04,0.902,1.313C221.836,133.698,221.754,134.107,221.316,134.49z"/>
			<path class="st3" d="M225.664,120.381c-0.492-0.054-0.767-0.328-0.82-0.82c0.054-0.437,0.328-0.683,0.82-0.738h4.84v-1.641
				c0.054-0.546,0.355-0.847,0.902-0.902c0.602,0.055,0.93,0.356,0.984,0.902v1.641h4.184c0.438,0.055,0.684,0.301,0.738,0.738
				c-0.055,0.492-0.301,0.767-0.738,0.82h-4.184v2.379h2.461c1.805-1.313,3.473-2.816,5.004-4.512
				c0.328-0.437,0.792-0.492,1.395-0.164c0.382,0.383,0.41,0.793,0.082,1.23c-1.203,1.204-2.434,2.352-3.691,3.445h4.512
				c0.546,0,0.82,0.274,0.82,0.82c-0.055,0.492-0.328,0.767-0.82,0.82h-6.645c-1.148,0.767-2.325,1.477-3.527,2.133h6.809
				c0.766,0.055,1.176,0.465,1.23,1.23v6.398c-0.11,0.656-0.521,1.038-1.23,1.148h-10.91c-0.711-0.11-1.121-0.492-1.23-1.148v-5.004
				c-0.82,0.328-1.669,0.656-2.543,0.984c-0.547,0.219-0.957,0.055-1.23-0.492c-0.11-0.601,0.082-1.011,0.574-1.23
				c3.335-1.148,6.316-2.488,8.941-4.02h-8.613c-0.492-0.054-0.767-0.328-0.82-0.82c0.054-0.492,0.328-0.765,0.82-0.82h6.727v-2.379
				H225.664z M229.027,128.092c-0.055,0-0.082,0.028-0.082,0.082c-0.055,0.055-0.164,0.082-0.328,0.082v0.082
				c-0.055,0.11-0.082,0.192-0.082,0.246v1.559h9.598v-1.559c-0.055-0.273-0.219-0.437-0.492-0.492H229.027z M237.641,133.834
				c0.273-0.055,0.438-0.246,0.492-0.574v-1.641h-9.598v1.641c0.054,0.328,0.218,0.519,0.492,0.574H237.641z"/>
			<path class="st3" d="M244.367,136.295c-0.383-0.274-0.492-0.711-0.328-1.313c1.366-1.805,1.996-4.812,1.887-9.023v-6.48
				c0.054-0.71,0.438-1.093,1.148-1.148h6.809c-0.055-0.164-0.11-0.41-0.164-0.738c-0.11-0.164-0.164-0.3-0.164-0.41
				c-0.11-0.492,0.164-0.82,0.82-0.984c0.656-0.109,1.066,0.055,1.23,0.492c0.109,0.219,0.246,0.629,0.41,1.23
				c0.054,0.164,0.082,0.301,0.082,0.41h6.645c0.438,0.055,0.684,0.328,0.738,0.82c-0.055,0.438-0.301,0.685-0.738,0.738h-6.809
				c0.054,0.055,0.082,0.137,0.082,0.246v1.395h4.676c0.71,0,1.066,0.356,1.066,1.066v1.723h1.641
				c0.382,0.055,0.602,0.301,0.656,0.738c-0.055,0.383-0.274,0.603-0.656,0.656h-1.641v1.805c0,0.767-0.356,1.148-1.066,1.148
				h-4.594c0.054,0.055,0.109,0.137,0.164,0.246c0.546,0.767,1.12,1.45,1.723,2.051c1.094-0.546,2.215-1.175,3.363-1.887
				c0.438-0.218,0.848-0.164,1.23,0.164c0.218,0.438,0.164,0.793-0.164,1.066c-0.164,0.055-0.41,0.192-0.738,0.41
				c-1.095,0.656-1.887,1.095-2.379,1.313c0.984,0.711,2.215,1.313,3.691,1.805c0.492,0.273,0.628,0.683,0.41,1.23
				c-0.274,0.492-0.685,0.628-1.23,0.41c-2.899-1.204-4.95-2.679-6.152-4.43v2.543c0.109,1.641-0.629,2.461-2.215,2.461
				c-0.11,0-0.41,0-0.902,0c-0.492,0.054-0.82,0.082-0.984,0.082c-0.492,0-0.793-0.274-0.902-0.82c0-0.492,0.246-0.738,0.738-0.738
				h1.23c0.93,0.054,1.366-0.356,1.313-1.23v-1.066c-0.383,0.11-0.984,0.328-1.805,0.656c-1.915,0.767-3.254,1.284-4.02,1.559
				c-0.438,0.218-0.82,0.054-1.148-0.492c-0.11-0.492,0.054-0.847,0.492-1.066c0.602-0.218,1.694-0.601,3.281-1.148
				c1.586-0.546,2.652-0.902,3.199-1.066v-2.051h-4.84c-0.492-0.054-0.767-0.3-0.82-0.738c0.054-0.437,0.328-0.656,0.82-0.656h4.84
				v-1.559h-6.316c-0.11,0-0.219-0.027-0.328-0.082v0.41c0.109,4.376-0.547,7.657-1.969,9.844
				C245.352,136.377,244.913,136.512,244.367,136.295z M254.293,120.135c0-0.109,0-0.191,0-0.246h-6.234
				c-0.274,0.055-0.41,0.192-0.41,0.41v4.102c0.054,0,0.109-0.027,0.164-0.082h0.164h6.316v-1.395h-4.758
				c-0.438-0.054-0.685-0.3-0.738-0.738c0.054-0.382,0.3-0.601,0.738-0.656h4.758V120.135z M250.684,131.537
				c-0.164-0.109-0.465-0.328-0.902-0.656c-0.492-0.328-0.82-0.546-0.984-0.656c-0.328-0.273-0.383-0.601-0.164-0.984
				c0.218-0.273,0.602-0.328,1.148-0.164c0.164,0.11,0.492,0.301,0.984,0.574c0.492,0.328,0.82,0.547,0.984,0.656
				c0.328,0.328,0.382,0.685,0.164,1.066C251.531,131.701,251.121,131.756,250.684,131.537z M259.625,122.924h-3.609v1.395h4.02
				v-0.984C260.035,123.061,259.898,122.924,259.625,122.924z M259.625,127.271c0.273,0,0.41-0.136,0.41-0.41v-1.148h-4.02v1.559
				H259.625z"/>
			<path class="st3" d="M266.27,122.924c-0.438,0.328-0.849,0.274-1.23-0.164c-0.274-0.492-0.192-0.956,0.246-1.395
				c1.805-1.421,3.227-3.007,4.266-4.758c0.382-0.382,0.82-0.519,1.313-0.41c0.492,0.383,0.628,0.767,0.41,1.148l-0.41,0.574h13.289
				c0.492,0.055,0.766,0.301,0.82,0.738c0,0.492-0.274,0.767-0.82,0.82h-14.355c-0.274,0.274-0.685,0.711-1.23,1.313
				c0.382-0.382,0.328-0.3-0.164,0.246c0.164-0.109,0.355-0.164,0.574-0.164h12.633c0.766,0,1.148,0.383,1.148,1.148v4.512
				c0,0.767-0.383,1.148-1.148,1.148h-9.762c0.109,0,0.191,0.028,0.246,0.082c0.438,0.164,0.52,0.492,0.246,0.984
				c0,0.055-0.055,0.11-0.164,0.164c-0.055,0.11-0.11,0.192-0.164,0.246h9.844c0.438,0.055,0.71,0.301,0.82,0.738
				c0.109,0.438-0.055,0.82-0.492,1.148c-1.148,0.875-2.543,1.696-4.184,2.461c1.805,0.492,3.938,0.847,6.398,1.066
				c0.492,0.164,0.684,0.519,0.574,1.066c-0.164,0.437-0.521,0.601-1.066,0.492c-3.281-0.383-6.017-0.958-8.203-1.723
				c-2.571,0.874-5.578,1.559-9.023,2.051c-0.492,0-0.849-0.192-1.066-0.574c-0.11-0.547,0.109-0.875,0.656-0.984
				c2.625-0.383,4.976-0.875,7.055-1.477c-1.313-0.656-2.489-1.395-3.527-2.215c-0.055,0.055-0.11,0.11-0.164,0.164
				c-1.259,0.931-2.297,1.614-3.117,2.051c-0.492,0.219-0.931,0.137-1.313-0.246c-0.274-0.546-0.164-0.929,0.328-1.148
				c2.133-1.202,3.855-2.515,5.168-3.938c0.164-0.218,0.355-0.355,0.574-0.41h-2.297c-0.767,0-1.148-0.382-1.148-1.148v-4.512
				c0-0.218,0.054-0.41,0.164-0.574c-0.11,0.11-0.301,0.274-0.574,0.492C266.926,122.431,266.543,122.76,266.27,122.924z
				 M269.715,122.76v0.984h11.156v-0.984c0-0.328-0.137-0.492-0.41-0.492h-10.254C269.879,122.267,269.715,122.431,269.715,122.76z
				 M280.461,126.287c0.273,0,0.41-0.136,0.41-0.41v-1.066h-11.156v1.066c0,0.274,0.164,0.41,0.492,0.41H280.461z M271.52,130.553
				c1.202,0.931,2.543,1.641,4.02,2.133c1.586-0.492,2.925-1.12,4.02-1.887c0.109-0.054,0.164-0.109,0.164-0.164
				c0-0.054-0.055-0.082-0.164-0.082H271.52z"/>
			<path class="st3" d="M287.105,121.529c-0.603-0.054-0.931-0.355-0.984-0.902c0.054-0.546,0.382-0.847,0.984-0.902h8.449
				c-0.055-0.109-0.137-0.328-0.246-0.656c-0.274-0.71-0.492-1.202-0.656-1.477c-0.11-0.546,0.136-0.929,0.738-1.148
				c0.656-0.164,1.12,0.028,1.395,0.574c0.164,0.438,0.438,1.122,0.82,2.051c0.054,0.11,0.082,0.192,0.082,0.246
				c0,0.11,0,0.246,0,0.41h7.219c0.546,0.055,0.848,0.356,0.902,0.902c-0.055,0.547-0.356,0.849-0.902,0.902h-11.32
				c0,0.82-0.055,1.942-0.164,3.363h8.367c0.874,0.055,1.284,0.492,1.23,1.313c-0.055,1.587-0.164,3.5-0.328,5.742
				c-0.11,2.57-1.449,3.827-4.02,3.773c-0.438,0.054-1.177,0.054-2.215,0c-0.383,0-0.656,0-0.82,0c-0.711,0-1.066-0.328-1.066-0.984
				c0.054-0.547,0.355-0.849,0.902-0.902c0.766,0,1.641,0,2.625,0c1.641,0.109,2.515-0.71,2.625-2.461
				c0-0.164,0.027-0.437,0.082-0.82c0.109-1.53,0.164-2.679,0.164-3.445c-0.055-0.273-0.192-0.41-0.41-0.41h-7.301
				c-0.219,3.938-1.915,7.082-5.086,9.434c-0.547,0.328-1.066,0.3-1.559-0.082c-0.383-0.492-0.383-0.984,0-1.477
				c3.007-2.022,4.594-5.058,4.758-9.105c0.109-1.421,0.164-2.734,0.164-3.938H287.105z"/>
			<path class="st3" d="M307.777,131.373c-0.492-0.054-0.767-0.328-0.82-0.82c0.054-0.437,0.328-0.683,0.82-0.738h8.285v-0.984
				c0.054-0.546,0.355-0.847,0.902-0.902c0.546,0.055,0.848,0.356,0.902,0.902v0.984h8.367c0.438,0.055,0.684,0.301,0.738,0.738
				c-0.055,0.492-0.301,0.767-0.738,0.82h-6.809c1.586,1.095,3.909,1.997,6.973,2.707c0.492,0.273,0.628,0.683,0.41,1.23
				c-0.219,0.382-0.629,0.519-1.23,0.41c-3.228-0.875-5.797-2.187-7.711-3.938v4.02c-0.055,0.546-0.356,0.847-0.902,0.902
				c-0.547-0.055-0.849-0.356-0.902-0.902v-3.938c-1.969,1.751-4.54,3.035-7.711,3.855c-0.656,0.218-1.095,0.109-1.313-0.328
				c-0.219-0.603-0.055-1.013,0.492-1.23c2.953-0.71,5.277-1.641,6.973-2.789H307.777z M307.777,123.416
				c-0.438-0.054-0.685-0.3-0.738-0.738c0.054-0.437,0.3-0.683,0.738-0.738h5.578c0.492-0.492,0.902-0.956,1.23-1.395
				c0.438-0.492,0.902-0.628,1.395-0.41c0.438,0.219,0.546,0.547,0.328,0.984c-0.219,0.328-0.465,0.603-0.738,0.82h10.5
				c0.438,0.055,0.684,0.301,0.738,0.738c-0.055,0.438-0.301,0.685-0.738,0.738h-3.527c-0.603,1.095-1.477,1.997-2.625,2.707
				c0.766,0.164,1.887,0.438,3.363,0.82c0.82,0.219,1.395,0.356,1.723,0.41c0.492,0.219,0.628,0.574,0.41,1.066
				c-0.219,0.438-0.603,0.603-1.148,0.492c-2.516-0.765-4.648-1.366-6.398-1.805c-1.805,0.711-4.868,1.313-9.188,1.805
				c-0.438,0.055-0.767-0.136-0.984-0.574c-0.055-0.601,0.136-0.929,0.574-0.984c2.734-0.218,5.031-0.546,6.891-0.984
				c-0.383-0.109-1.013-0.273-1.887-0.492c-0.82-0.218-1.449-0.382-1.887-0.492c-0.492-0.273-0.547-0.628-0.164-1.066
				c0.273-0.273,0.546-0.574,0.82-0.902H307.777z M325.004,121.857c-0.603-0.054-0.931-0.3-0.984-0.738v-0.984
				c0-0.218-0.11-0.328-0.328-0.328h-13.453c-0.274,0-0.41,0.11-0.41,0.328v0.984c-0.055,0.383-0.356,0.603-0.902,0.656
				c-0.547-0.054-0.849-0.273-0.902-0.656v-1.805c0.054-0.656,0.41-1.011,1.066-1.066h7.055c-0.11-0.273-0.246-0.656-0.41-1.148
				c-0.11-0.492,0.136-0.82,0.738-0.984c0.71-0.054,1.148,0.137,1.313,0.574c0.109,0.438,0.273,0.958,0.492,1.559h6.563
				c0.656,0.055,1.012,0.41,1.066,1.066v1.805C325.852,121.557,325.55,121.804,325.004,121.857z M313.684,124.646
				c0.766,0.164,2.078,0.465,3.938,0.902c1.313-0.546,2.242-1.257,2.789-2.133h-6.152c-0.274,0.274-0.492,0.492-0.656,0.656
				C313.383,124.346,313.409,124.537,313.684,124.646z"/>
			<path class="st3" d="M34.039,166.697c-0.164-0.109-0.246-0.3-0.246-0.574c0-0.328,0.082-0.656,0.246-0.984
				c1.258-2.078,2.324-4.703,3.199-7.875c0.218-0.546,0.602-0.792,1.148-0.738c0.546,0.164,0.766,0.521,0.656,1.066
				c-0.11,0.274-0.219,0.656-0.328,1.148c-0.383,1.095-0.685,1.915-0.902,2.461v14.438c-0.055,0.492-0.356,0.765-0.902,0.82
				c-0.492-0.055-0.767-0.328-0.82-0.82v-10.582c-0.055,0.164-0.192,0.41-0.41,0.738c-0.164,0.328-0.301,0.574-0.41,0.738
				C34.941,166.971,34.531,167.025,34.039,166.697z M39.371,162.185c-0.492-0.054-0.767-0.328-0.82-0.82
				c0.054-0.492,0.328-0.765,0.82-0.82h2.215v-3.199c0.054-0.546,0.355-0.847,0.902-0.902c0.546,0.055,0.848,0.356,0.902,0.902
				v3.199h2.051c0.492,0.055,0.766,0.328,0.82,0.82c0,0.492-0.274,0.767-0.82,0.82h-2.051v3.691h0.984
				c0.71,0.055,1.094,0.438,1.148,1.148v6.234c-0.055,0.71-0.438,1.093-1.148,1.148h-3.773c-0.767-0.055-1.177-0.438-1.23-1.148
				v-6.234c0.054-0.71,0.464-1.093,1.23-1.148h0.984v-3.691H39.371z M41.094,167.846v4.594c0,0.274,0.136,0.41,0.41,0.41h1.969
				c0.273,0,0.41-0.136,0.41-0.41v-4.594c-0.055-0.273-0.192-0.41-0.41-0.41h-1.969C41.229,167.435,41.094,167.573,41.094,167.846z
				 M45.687,165.713c-0.383-0.273-0.438-0.683-0.164-1.23c1.148-2.187,2.051-4.621,2.707-7.301c0.273-0.546,0.656-0.792,1.148-0.738
				c0.492,0.11,0.71,0.465,0.656,1.066c-0.274,0.931-0.574,1.86-0.902,2.789h4.102c0.492,0.055,0.766,0.328,0.82,0.82
				c-0.055,0.492-0.328,0.767-0.82,0.82h-0.41c-0.219,3.72-0.902,6.727-2.051,9.023c0.71,1.095,1.641,2.133,2.789,3.117
				c0.492,0.437,0.574,0.956,0.246,1.559c-0.383,0.437-0.849,0.492-1.395,0.164c-1.039-0.984-1.915-2.024-2.625-3.117
				c-0.547,0.875-1.559,2.022-3.035,3.445c-0.438,0.328-0.902,0.273-1.395-0.164c-0.328-0.492-0.274-0.958,0.164-1.395
				c1.366-1.148,2.461-2.379,3.281-3.691c-0.875-1.585-1.423-3.554-1.641-5.906c-0.055,0.164-0.137,0.301-0.246,0.41
				C46.59,165.932,46.18,166.041,45.687,165.713z M48.559,161.939c0,0.055-0.028,0.11-0.082,0.164c0,0.055-0.028,0.11-0.082,0.164
				c0,0.055,0,0.11,0,0.164c0.164,2.68,0.628,4.868,1.395,6.563c0.766-1.858,1.23-4.21,1.395-7.055H48.559z"/>
			<path class="st3" d="M54.793,161.365c0-0.546,0.246-0.82,0.738-0.82h1.723c0.273-1.202,0.438-2.379,0.492-3.527
				c0.164-0.656,0.546-0.956,1.148-0.902c0.546,0.164,0.82,0.521,0.82,1.066c-0.164,1.148-0.356,2.27-0.574,3.363h2.543
				c0.71,0.055,1.038,0.492,0.984,1.313c-0.438,3.773-1.039,6.591-1.805,8.449c1.038,0.82,1.969,1.587,2.789,2.297
				c0.438,0.438,0.438,0.902,0,1.395c-0.383,0.382-0.849,0.41-1.395,0.082c-0.328-0.328-0.984-0.956-1.969-1.887
				c0.71,0.656,0.602,0.574-0.328-0.246c-0.656,1.204-1.833,2.488-3.527,3.855c-0.492,0.382-0.957,0.41-1.395,0.082
				c-0.219-0.438-0.219-0.849,0-1.23c1.53-1.257,2.707-2.57,3.527-3.938c-0.219-0.218-0.574-0.519-1.066-0.902
				c-0.383-0.273-0.656-0.492-0.82-0.656c-0.603-0.601-0.82-1.313-0.656-2.133c0.328-1.477,0.656-3.089,0.984-4.84h-1.395
				C55.121,162.132,54.847,161.857,54.793,161.365z M58.156,168.092c0.438,0.328,0.848,0.656,1.23,0.984
				c0.71-1.641,1.148-3.827,1.313-6.563c0-0.218-0.11-0.328-0.328-0.328h-1.477c-0.11,0.603-0.301,1.45-0.574,2.543
				c-0.219,1.095-0.383,1.887-0.492,2.379C57.773,167.599,57.882,167.928,58.156,168.092z M63.898,167.353
				c-0.547-0.054-0.849-0.382-0.902-0.984c0.054-0.546,0.355-0.847,0.902-0.902h4.512v-1.313c0-0.82,0.191-1.448,0.574-1.887
				l2.543-2.297c0.109-0.273,0.054-0.437-0.164-0.492h-6.809c-0.547-0.054-0.849-0.355-0.902-0.902
				c0.054-0.546,0.355-0.847,0.902-0.902h8.777c0.546,0.055,0.874,0.328,0.984,0.82c0.109,0.547-0.055,1.04-0.492,1.477
				l-3.035,2.953c-0.274,0.383-0.41,0.767-0.41,1.148v1.395h3.938c0.546,0.055,0.848,0.356,0.902,0.902
				c0,0.656-0.301,0.984-0.902,0.984h-3.938v5.906c0.054,1.805-0.849,2.707-2.707,2.707c-0.82,0-1.587,0-2.297,0
				c-0.656,0.054-1.013-0.246-1.066-0.902c0.054-0.603,0.355-0.931,0.902-0.984c0.546,0,1.148,0,1.805,0
				c0.984,0.054,1.448-0.41,1.395-1.395v-5.332H63.898z"/>
			<path class="st3" d="M79.156,165.713c-0.82,0-1.23-0.382-1.23-1.148v-5.414c0.054-0.601,0.382-0.929,0.984-0.984
				c0.602,0.055,0.93,0.383,0.984,0.984v4.184c0,0.383,0.191,0.574,0.574,0.574h4.43v-6.48c0.054-0.601,0.382-0.929,0.984-0.984
				c0.656,0.055,1.012,0.383,1.066,0.984v6.48h4.43c0.382-0.054,0.574-0.246,0.574-0.574v-4.184
				c0.054-0.601,0.382-0.929,0.984-0.984c0.602,0.055,0.93,0.383,0.984,0.984v5.414c0,0.767-0.41,1.148-1.23,1.148h-5.742v8.203
				h5.086c0.382,0,0.574-0.218,0.574-0.656v-4.922c0.109-0.492,0.438-0.765,0.984-0.82c0.602,0.055,0.93,0.328,0.984,0.82v5.66
				c0,1.038-0.521,1.559-1.559,1.559H78.828c-0.984,0-1.505-0.521-1.559-1.559v-5.66c0.054-0.546,0.382-0.847,0.984-0.902
				c0.602,0.055,0.93,0.356,0.984,0.902v4.922c0,0.438,0.218,0.656,0.656,0.656h5.004v-8.203H79.156z"/>
			<path class="st3" d="M98.68,176.541c-0.492-0.055-0.767-0.356-0.82-0.902v-17.063c0.054-0.71,0.41-1.066,1.066-1.066h3.855
				c0.546,0.055,0.848,0.328,0.902,0.82c0,0.547-0.082,1.122-0.246,1.723l-1.313,4.348c-0.055,0.219,0,0.492,0.164,0.82
				c1.038,1.423,1.53,2.953,1.477,4.594c0,1.86-0.629,2.926-1.887,3.199c-0.11,0-0.301,0-0.574,0
				c-0.274,0.055-0.492,0.082-0.656,0.082c-0.547,0.055-0.931-0.191-1.148-0.738v3.281C99.445,176.184,99.172,176.486,98.68,176.541
				z M99.5,159.56v12.141c0.109-0.273,0.273-0.41,0.492-0.41c0.273,0,0.574,0,0.902,0c0.82,0,1.202-0.492,1.148-1.477
				c0.164-1.366-0.246-2.734-1.23-4.102c-0.328-0.492-0.383-1.038-0.164-1.641l1.313-4.512c0.054-0.218-0.055-0.328-0.328-0.328
				H99.91C99.636,159.232,99.5,159.343,99.5,159.56z M104.832,168.502c-0.492-0.054-0.767-0.328-0.82-0.82
				c0.054-0.492,0.328-0.765,0.82-0.82h11.074c0.492,0.055,0.766,0.328,0.82,0.82c-0.055,0.492-0.328,0.767-0.82,0.82h-3.281v4.594
				c-0.055,0.71,0.218,1.038,0.82,0.984h0.656c0.656,0,1.012-0.328,1.066-0.984c0.054-0.164,0.082-0.41,0.082-0.738
				c0.054-0.382,0.082-0.656,0.082-0.82c0-0.601,0.273-0.902,0.82-0.902c0.602,0.11,0.848,0.465,0.738,1.066
				c0,0.164-0.028,0.492-0.082,0.984c-0.055,0.547-0.11,0.902-0.164,1.066c-0.219,1.313-1.039,1.969-2.461,1.969h-0.984
				c-1.587,0.054-2.352-0.685-2.297-2.215v-5.004h-2.133c0,0.164-0.028,0.383-0.082,0.656c0,0.219,0,0.356,0,0.41
				c-0.11,2.789-1.559,4.976-4.348,6.563c-0.603,0.328-1.095,0.246-1.477-0.246c-0.274-0.492-0.137-0.931,0.41-1.313
				c2.351-1.202,3.555-2.871,3.609-5.004c0.054-0.273,0.082-0.628,0.082-1.066H104.832z M115.414,162.596
				c-0.547-0.054-0.849-0.3-0.902-0.738v-0.984c0-0.273-0.11-0.41-0.328-0.41h-7.711c-0.164,0-0.274,0.137-0.328,0.41v0.902
				c-0.11,0.492-0.41,0.767-0.902,0.82c-0.547-0.054-0.849-0.355-0.902-0.902v-1.805c0.054-0.656,0.438-1.011,1.148-1.066h4.02
				c-0.055-0.164-0.137-0.41-0.246-0.738c-0.164-0.328-0.274-0.574-0.328-0.738c-0.11-0.492,0.136-0.847,0.738-1.066
				c0.602-0.109,1.012,0.082,1.23,0.574c0.054,0.164,0.164,0.438,0.328,0.82c0.109,0.383,0.191,0.656,0.246,0.82
				c0,0.11,0,0.219,0,0.328h3.691c0.656,0.055,1.012,0.41,1.066,1.066v1.805C116.18,162.241,115.906,162.542,115.414,162.596z
				 M105.98,164.564c-0.492-0.054-0.767-0.328-0.82-0.82c0.054-0.492,0.328-0.765,0.82-0.82h8.695
				c0.492,0.055,0.766,0.328,0.82,0.82c-0.055,0.492-0.328,0.767-0.82,0.82H105.98z"/>
			<path class="st3" d="M118.777,175.064c-0.492-0.219-0.629-0.603-0.41-1.148c0.492-1.038,0.93-2.051,1.313-3.035
				c0.328-0.437,0.71-0.601,1.148-0.492c0.546,0.219,0.738,0.603,0.574,1.148c-0.274,0.767-0.738,1.805-1.395,3.117
				C119.733,175.146,119.323,175.282,118.777,175.064z M121.156,162.678c-0.656-0.054-1.013-0.382-1.066-0.984v-2.543
				c0.109-0.601,0.464-0.929,1.066-0.984h5.906v-0.984c0-0.492,0.3-0.738,0.902-0.738c0.602,0,0.902,0.246,0.902,0.738v0.984h5.906
				c0.656,0.055,1.012,0.41,1.066,1.066v2.379c-0.055,0.656-0.438,1.013-1.148,1.066h-5.824v1.477h6.398
				c0.656,0.055,1.012,0.41,1.066,1.066v2.461c-0.055,0.656-0.41,1.013-1.066,1.066h-6.398v0.328c0,0.547-0.301,0.82-0.902,0.82
				c-0.055,0-0.137,0-0.246,0l0.082,0.082c0.438,0.274,1.094,0.711,1.969,1.313c0.328,0.328,0.3,0.711-0.082,1.148
				c-0.438,0.328-0.875,0.301-1.313-0.082c-0.219-0.164-0.656-0.464-1.313-0.902c-0.328-0.218-0.547-0.382-0.656-0.492
				c-0.274-0.328-0.246-0.683,0.082-1.066c0.273-0.164,0.546-0.218,0.82-0.164c-0.164-0.164-0.246-0.382-0.246-0.656v-0.328h-6.398
				c-0.656-0.054-1.013-0.41-1.066-1.066v-2.461c0.054-0.656,0.41-1.011,1.066-1.066h6.398v-1.477H121.156z M121.402,165.959v1.066
				c0.054,0.219,0.164,0.328,0.328,0.328h5.332v-1.805h-5.332C121.566,165.549,121.456,165.686,121.402,165.959z M121.812,159.971
				v0.984c0,0.164,0.136,0.274,0.41,0.328h4.84v-1.805h-4.84C121.948,159.478,121.812,159.642,121.812,159.971z M125.586,175.803
				c-1.859,0.054-2.762-0.82-2.707-2.625v-2.297c0-0.546,0.3-0.82,0.902-0.82c0.546,0.055,0.848,0.328,0.902,0.82v1.887
				c-0.055,1.038,0.492,1.53,1.641,1.477h3.199c1.038,0.054,1.641-0.274,1.805-0.984c0-0.164,0.054-0.519,0.164-1.066
				c0.054-0.164,0.082-0.273,0.082-0.328c0.164-0.492,0.52-0.683,1.066-0.574c0.546,0.219,0.792,0.574,0.738,1.066
				c-0.055,0.274-0.137,0.656-0.246,1.148c-0.11,0.273-0.164,0.464-0.164,0.574c-0.328,1.202-1.341,1.776-3.035,1.723H125.586z
				 M134.035,160.955v-1.066c0-0.273-0.11-0.41-0.328-0.41h-4.84v1.805h4.84C133.925,161.283,134.035,161.174,134.035,160.955z
				 M134.199,165.549h-5.332v1.805h5.332c0.218,0,0.328-0.109,0.328-0.328v-1.066C134.527,165.631,134.417,165.495,134.199,165.549z
				 M137.316,174.49c-0.603,0.273-1.039,0.164-1.313-0.328c-0.164-0.219-0.438-0.683-0.82-1.395
				c-0.438-0.656-0.738-1.093-0.902-1.313c-0.274-0.437-0.192-0.792,0.246-1.066c0.438-0.218,0.848-0.136,1.23,0.246
				c0.164,0.219,0.464,0.656,0.902,1.313c0.438,0.603,0.738,1.04,0.902,1.313C137.836,173.698,137.754,174.107,137.316,174.49z"/>
			<path class="st3" d="M141.664,160.381c-0.492-0.054-0.767-0.328-0.82-0.82c0.054-0.437,0.328-0.683,0.82-0.738h4.84v-1.641
				c0.054-0.546,0.355-0.847,0.902-0.902c0.602,0.055,0.93,0.356,0.984,0.902v1.641h4.184c0.438,0.055,0.684,0.301,0.738,0.738
				c-0.055,0.492-0.301,0.767-0.738,0.82h-4.184v2.379h2.461c1.805-1.313,3.473-2.816,5.004-4.512
				c0.328-0.437,0.792-0.492,1.395-0.164c0.382,0.383,0.41,0.793,0.082,1.23c-1.203,1.204-2.434,2.352-3.691,3.445h4.512
				c0.546,0,0.82,0.274,0.82,0.82c-0.055,0.492-0.328,0.767-0.82,0.82h-6.645c-1.148,0.767-2.325,1.477-3.527,2.133h6.809
				c0.766,0.055,1.176,0.465,1.23,1.23v6.398c-0.11,0.656-0.521,1.038-1.23,1.148h-10.91c-0.711-0.11-1.121-0.492-1.23-1.148v-5.004
				c-0.82,0.328-1.669,0.656-2.543,0.984c-0.547,0.219-0.957,0.055-1.23-0.492c-0.11-0.601,0.082-1.011,0.574-1.23
				c3.335-1.148,6.316-2.488,8.941-4.02h-8.613c-0.492-0.054-0.767-0.328-0.82-0.82c0.054-0.492,0.328-0.765,0.82-0.82h6.727v-2.379
				H141.664z M145.027,168.092c-0.055,0-0.082,0.028-0.082,0.082c-0.055,0.055-0.164,0.082-0.328,0.082v0.082
				c-0.055,0.11-0.082,0.192-0.082,0.246v1.559h9.598v-1.559c-0.055-0.273-0.219-0.437-0.492-0.492H145.027z M153.641,173.834
				c0.273-0.055,0.438-0.246,0.492-0.574v-1.641h-9.598v1.641c0.054,0.328,0.218,0.519,0.492,0.574H153.641z"/>
			<path class="st3" d="M162.336,164.072c-0.82,0-1.23-0.382-1.23-1.148v-4.266c0-0.765,0.41-1.148,1.23-1.148h3.773
				c0.71,0.055,1.094,0.438,1.148,1.148v4.266c0,0.767-0.383,1.148-1.148,1.148h-0.574v3.035h1.559
				c0.492,0.055,0.766,0.301,0.82,0.738c-0.055,0.492-0.328,0.767-0.82,0.82h-1.559v3.938c0.492-0.109,0.984-0.191,1.477-0.246
				c0.546-0.054,0.874,0.192,0.984,0.738c0,0.547-0.301,0.874-0.902,0.984c-2.516,0.437-4.594,0.82-6.234,1.148
				c-0.492,0.054-0.82-0.192-0.984-0.738c-0.055-0.656,0.191-1.011,0.738-1.066c0.109-0.054,0.218-0.082,0.328-0.082v-7.137
				c0.054-0.437,0.3-0.683,0.738-0.738c0.382,0.055,0.602,0.301,0.656,0.738v6.891c0.164-0.054,0.438-0.109,0.82-0.164
				c0.328-0.054,0.574-0.082,0.738-0.082v-8.777H162.336z M165.289,162.513c0.328,0,0.492-0.164,0.492-0.492v-2.461
				c0-0.328-0.164-0.492-0.492-0.492h-2.051c-0.328,0-0.492,0.164-0.492,0.492v2.461c0,0.328,0.164,0.492,0.492,0.492H165.289z
				 M169.227,175.638c-0.274-0.11-0.383-0.603-0.328-1.477v-15.504c0.054-0.71,0.438-1.093,1.148-1.148h7.137
				c0.71,0.055,1.094,0.438,1.148,1.148v7.465c0,0.82-0.383,1.23-1.148,1.23h-3.199c0.328,0.984,0.71,1.915,1.148,2.789
				c1.094-0.656,2.078-1.313,2.953-1.969c0.438-0.273,0.848-0.218,1.23,0.164c0.273,0.438,0.191,0.849-0.246,1.23
				c-0.274,0.164-0.82,0.492-1.641,0.984c-0.656,0.383-1.121,0.656-1.395,0.82c0.874,1.04,2.022,1.915,3.445,2.625
				c0.438,0.382,0.546,0.82,0.328,1.313c-0.328,0.492-0.793,0.601-1.395,0.328c-3.228-1.86-5.278-4.621-6.152-8.285h-1.641v6.152
				c0,0.328,0.164,0.437,0.492,0.328c0.71-0.382,1.422-0.738,2.133-1.066c0.546-0.109,0.902,0.082,1.066,0.574
				c0.054,0.492-0.192,0.847-0.738,1.066c-0.82,0.492-1.751,0.929-2.789,1.313C169.965,175.993,169.444,175.967,169.227,175.638z
				 M170.621,159.724v1.969h5.988v-1.969c0-0.382-0.164-0.574-0.492-0.574h-4.922C170.812,159.15,170.621,159.343,170.621,159.724z
				 M176.117,165.713c0.328-0.054,0.492-0.246,0.492-0.574v-1.969h-5.988v2.543H176.117z"/>
			<path class="st3" d="M183.008,164.236c-0.603-0.054-0.931-0.382-0.984-0.984v-4.512c0.054-0.601,0.382-0.929,0.984-0.984h4.102
				c0.656,0,0.984,0.328,0.984,0.984v4.512c-0.055,0.603-0.383,0.931-0.984,0.984h-0.82v3.035h1.23
				c0.438,0.055,0.684,0.328,0.738,0.82c-0.055,0.438-0.301,0.685-0.738,0.738h-1.23v3.773c0.438-0.109,0.848-0.191,1.23-0.246
				c0.492-0.054,0.766,0.192,0.82,0.738c0,0.547-0.246,0.874-0.738,0.984c-0.383,0.054-1.013,0.164-1.887,0.328
				c-1.695,0.328-2.953,0.574-3.773,0.738c-0.603,0-0.957-0.274-1.066-0.82c-0.055-0.547,0.191-0.902,0.738-1.066
				c0.054,0,0.109,0,0.164,0v-6.809c0.054-0.437,0.273-0.683,0.656-0.738c0.438,0.055,0.684,0.301,0.738,0.738v6.645
				c0.492-0.109,0.984-0.191,1.477-0.246v-8.613H183.008z M183.664,159.724v2.543c0,0.274,0.136,0.41,0.41,0.41h2.051
				c0.273,0,0.41-0.136,0.41-0.41v-2.543c0-0.273-0.137-0.41-0.41-0.41h-2.051C183.8,159.314,183.664,159.451,183.664,159.724z
				 M188.75,174.736c-0.383-0.492-0.438-0.902-0.164-1.23c0.82-1.257,1.477-2.297,1.969-3.117c0.328-0.437,0.738-0.546,1.23-0.328
				c0.382,0.274,0.464,0.656,0.246,1.148c-0.274,0.547-0.793,1.368-1.559,2.461c-0.274,0.382-0.465,0.656-0.574,0.82
				C189.624,174.872,189.242,174.954,188.75,174.736z M189.734,168.748c-0.438-0.054-0.685-0.328-0.738-0.82
				c0.054-0.492,0.3-0.765,0.738-0.82h10.5c0.492,0.055,0.766,0.328,0.82,0.82c-0.055,0.492-0.328,0.767-0.82,0.82h-4.512v5.004
				c0.054,1.421-0.629,2.16-2.051,2.215c-0.328,0.054-0.957,0.082-1.887,0.082c-0.492,0-0.767-0.246-0.82-0.738
				c-0.055-0.547,0.164-0.849,0.656-0.902c0.438,0,0.848,0,1.23,0c0.766,0.054,1.12-0.328,1.066-1.148v-4.512H189.734z
				 M199.496,162.678c-0.603,0-0.902-0.246-0.902-0.738v-0.902c0-0.273-0.11-0.41-0.328-0.41h-6.973
				c-0.164,0-0.274,0.137-0.328,0.41v0.902c-0.055,0.438-0.356,0.685-0.902,0.738c-0.492-0.054-0.767-0.355-0.82-0.902v-1.641
				c0-0.71,0.382-1.066,1.148-1.066h3.445c-0.055-0.273-0.192-0.683-0.41-1.23c-0.055-0.218-0.11-0.382-0.164-0.492
				c-0.11-0.437,0.109-0.765,0.656-0.984c0.546-0.109,0.93,0.055,1.148,0.492c0.164,0.438,0.382,1.095,0.656,1.969
				c0.109,0.055,0.109,0.137,0,0.246h3.445c0.766,0,1.148,0.356,1.148,1.066v1.723C200.316,162.349,200.042,162.624,199.496,162.678
				z M190.637,164.728c-0.438-0.054-0.685-0.328-0.738-0.82c0.054-0.437,0.3-0.683,0.738-0.738h8.531
				c0.438,0.055,0.684,0.301,0.738,0.738c-0.055,0.492-0.301,0.767-0.738,0.82H190.637z M200.398,174.49
				c-0.383,0.273-0.793,0.218-1.23-0.164c-0.492-0.874-1.148-1.887-1.969-3.035c-0.274-0.382-0.219-0.765,0.164-1.148
				c0.492-0.218,0.902-0.136,1.23,0.246c0.218,0.274,0.574,0.738,1.066,1.395c0.492,0.711,0.82,1.204,0.984,1.477
				C200.862,173.752,200.78,174.162,200.398,174.49z"/>
			<path class="st3" d="M203.598,176.623c-0.438-0.055-0.685-0.328-0.738-0.82v-16.98c0-0.765,0.382-1.148,1.148-1.148h3.281
				c0.546,0.055,0.848,0.356,0.902,0.902c0,0.547-0.082,1.122-0.246,1.723l-1.066,3.938c-0.055,0.274,0,0.574,0.164,0.902
				c0.874,1.095,1.284,2.489,1.23,4.184c0,1.696-0.574,2.68-1.723,2.953c-0.055,0-0.192,0-0.41,0
				c-0.219,0.055-0.383,0.082-0.492,0.082c-0.603,0.11-0.984-0.191-1.148-0.902c-0.055-0.492,0.136-0.765,0.574-0.82
				c0.218,0,0.438,0,0.656,0c0.71,0,1.038-0.519,0.984-1.559c0-1.202-0.356-2.379-1.066-3.527c-0.274-0.492-0.328-1.011-0.164-1.559
				l1.148-4.43c0.054-0.164-0.028-0.273-0.246-0.328h-1.641c-0.219,0-0.328,0.11-0.328,0.328v16.242
				C204.363,176.295,204.09,176.568,203.598,176.623z M207.125,175.967c-0.492-0.328-0.521-0.767-0.082-1.313
				c0.328-0.383,0.874-0.984,1.641-1.805c0.438-0.492,0.738-0.82,0.902-0.984v-6.398c0-0.218-0.11-0.328-0.328-0.328h-0.738
				c-0.492,0-0.738-0.3-0.738-0.902c0.054-0.437,0.328-0.683,0.82-0.738h1.477c0.71,0.055,1.094,0.41,1.148,1.066v7.383
				c0.93,1.532,2.488,2.242,4.676,2.133c1.805,0.109,3.581,0.109,5.332,0c0.656,0.054,0.93,0.328,0.82,0.82
				c-0.055,0.601-0.41,0.902-1.066,0.902c-2.023,0-3.802,0-5.332,0c-2.352,0-4.02-0.629-5.004-1.887
				c-0.164-0.218-0.356-0.246-0.574-0.082c-0.11,0.109-0.274,0.3-0.492,0.574c-0.547,0.656-0.957,1.148-1.23,1.477
				C208.027,176.266,207.617,176.295,207.125,175.967z M211.062,161.693c-0.492,0.055-0.849-0.136-1.066-0.574
				c-0.274-1.093-0.629-2.242-1.066-3.445c-0.055-0.492,0.136-0.792,0.574-0.902c0.492-0.109,0.848,0.082,1.066,0.574
				c0.054,0.219,0.191,0.656,0.41,1.313c0.328,0.984,0.546,1.641,0.656,1.969C211.69,161.119,211.5,161.475,211.062,161.693z
				 M213.031,160.135c-0.492-0.054-0.767-0.3-0.82-0.738c0.054-0.437,0.328-0.683,0.82-0.738h2.297
				c0.218-0.492,0.41-1.038,0.574-1.641c0.164-0.492,0.492-0.71,0.984-0.656c0.546,0.164,0.766,0.492,0.656,0.984
				c-0.055,0.11-0.11,0.274-0.164,0.492c-0.11,0.383-0.219,0.656-0.328,0.82h4.102c0.438,0.055,0.684,0.301,0.738,0.738
				c-0.055,0.438-0.301,0.685-0.738,0.738h-4.676c-0.11,0.164-0.246,0.438-0.41,0.82c-0.219,0.383-0.383,0.685-0.492,0.902h3.855
				c0.71,0.055,1.094,0.438,1.148,1.148v7.629c0.109,1.477-0.574,2.243-2.051,2.297c-0.438,0-0.849,0-1.23,0
				c-0.547,0-0.849-0.246-0.902-0.738c-0.055-0.437,0.136-0.683,0.574-0.738c0.109,0,0.3,0,0.574,0
				c0.273,0.055,0.438,0.082,0.492,0.082c0.71,0.055,1.038-0.3,0.984-1.066v-1.148h-3.855v3.035c-0.055,0.492-0.328,0.767-0.82,0.82
				c-0.492-0.054-0.767-0.328-0.82-0.82v-7.301c-0.055,0.055-0.164,0.164-0.328,0.328c-0.11,0.164-0.219,0.301-0.328,0.41
				c-0.547,0.603-1.013,0.738-1.395,0.41c-0.383-0.382-0.301-0.902,0.246-1.559c1.148-1.257,2.133-2.761,2.953-4.512H213.031z
				 M215.164,163.744v1.313h3.855v-1.313c0-0.273-0.164-0.41-0.492-0.41h-2.953C215.3,163.28,215.164,163.416,215.164,163.744z
				 M215.164,166.287v1.805h3.855v-1.805H215.164z"/>
			<path class="st3" d="M227.633,173.506c-1.203,0.765-1.887,0.464-2.051-0.902v-7.137c0-0.273-0.11-0.41-0.328-0.41h-1.559
				c-0.492,0-0.767-0.3-0.82-0.902c0.054-0.546,0.355-0.847,0.902-0.902h2.543c0.656,0.055,1.038,0.438,1.148,1.148v6.48
				c0.054,0.164,0.164,0.192,0.328,0.082c0.492-0.328,0.984-0.71,1.477-1.148c0.438-0.218,0.82-0.136,1.148,0.246
				c0.218,0.383,0.136,0.793-0.246,1.23c-0.164,0.11-0.41,0.328-0.738,0.656C228.617,172.603,228.015,173.124,227.633,173.506z
				 M227.879,160.873c-0.603,0.328-1.095,0.246-1.477-0.246c-0.11-0.164-0.328-0.41-0.656-0.738c-0.603-0.71-1.013-1.202-1.23-1.477
				c-0.274-0.437-0.192-0.847,0.246-1.23c0.438-0.328,0.902-0.273,1.395,0.164c0.218,0.274,0.628,0.767,1.23,1.477
				c0.328,0.328,0.546,0.574,0.656,0.738C228.371,160.053,228.316,160.491,227.879,160.873z M230.504,161.611
				c-0.492-0.054-0.767-0.355-0.82-0.902c0.054-0.546,0.328-0.82,0.82-0.82h5.086c-0.055-0.273-0.192-0.765-0.41-1.477
				c-0.11-0.328-0.192-0.574-0.246-0.738c-0.11-0.546,0.109-0.929,0.656-1.148c0.71-0.054,1.148,0.164,1.313,0.656
				c0.273,0.656,0.546,1.45,0.82,2.379c0,0.11,0,0.219,0,0.328h4.43c0.546,0.055,0.848,0.328,0.902,0.82
				c-0.055,0.547-0.356,0.849-0.902,0.902h-7.793l-0.082,3.035h5.906c0.82,0.055,1.258,0.465,1.313,1.23
				c-0.11,2.625-0.219,4.704-0.328,6.234c0,2.515-1.121,3.718-3.363,3.609c-0.383,0.054-1.066,0.082-2.051,0.082
				c-0.711-0.055-1.095-0.383-1.148-0.984c0.054-0.603,0.41-0.931,1.066-0.984c0.218,0,0.546,0.027,0.984,0.082
				c0.328,0,0.546,0,0.656,0c1.313,0.109,1.969-0.628,1.969-2.215c0.109-1.421,0.191-3.035,0.246-4.84
				c0-0.328-0.164-0.492-0.492-0.492h-4.84c0,3.829-1.203,6.973-3.609,9.434c-0.438,0.546-0.957,0.656-1.559,0.328
				c-0.438-0.492-0.492-1.013-0.164-1.559c2.406-2.133,3.581-5.14,3.527-9.023l0.082-3.938H230.504z"/>
			<path class="st3" d="M246.09,160.217c-0.603-0.054-0.931-0.382-0.984-0.984c0.054-0.601,0.382-0.929,0.984-0.984h15.586
				c0.602,0.055,0.93,0.383,0.984,0.984c-0.055,0.603-0.383,0.931-0.984,0.984h-6.645v12.715h7.793
				c0.602,0.055,0.93,0.383,0.984,0.984c-0.055,0.601-0.383,0.929-0.984,0.984h-17.883c-0.603-0.055-0.931-0.383-0.984-0.984
				c0.109-0.601,0.438-0.929,0.984-0.984h7.957v-12.715H246.09z"/>
			<path class="st3" d="M265.203,167.435c-0.219-0.164-0.328-0.41-0.328-0.738c0-0.273,0.054-0.519,0.164-0.738
				c1.694-2.625,3.063-5.55,4.102-8.777c0.218-0.546,0.628-0.765,1.23-0.656c0.546,0.164,0.766,0.547,0.656,1.148
				c-0.383,1.313-0.875,2.571-1.477,3.773v14.191c-0.055,0.546-0.356,0.847-0.902,0.902c-0.547-0.055-0.849-0.356-0.902-0.902v-10.5
				c-0.11,0.164-0.246,0.383-0.41,0.656c-0.383,0.603-0.656,1.04-0.82,1.313C266.187,167.599,265.749,167.71,265.203,167.435z
				 M271.109,165.549c-0.492-0.382-0.547-0.847-0.164-1.395c1.366-1.914,2.543-4.21,3.527-6.891c0.218-0.546,0.628-0.792,1.23-0.738
				c0.546,0.164,0.766,0.547,0.656,1.148c-0.055,0.219-0.192,0.547-0.41,0.984c-0.164,0.438-0.301,0.767-0.41,0.984h8.695
				c0.546,0.055,0.848,0.328,0.902,0.82c-0.055,0.603-0.356,0.931-0.902,0.984h-6.316v3.281h5.25
				c0.492,0.055,0.766,0.356,0.82,0.902c-0.055,0.492-0.328,0.767-0.82,0.82h-5.25v3.363h5.824c0.492,0.055,0.766,0.356,0.82,0.902
				c-0.055,0.547-0.328,0.849-0.82,0.902h-5.824v3.938c-0.055,0.601-0.383,0.929-0.984,0.984c-0.547-0.055-0.849-0.383-0.902-0.984
				v-14.109h-1.313c-0.656,1.368-1.367,2.625-2.133,3.773C272.094,165.823,271.602,165.932,271.109,165.549z"/>
		</g>
	</g>
	<path class="st5" d="M96.008,69.288c1.324-1.324,2.083-3.149,2.083-5.038v-3.504l0.097-0.388l1.518,0.388l-6.33,36.429
		c-2.664,0.468-5.41,0.71-8.203,0.71c-2.794,0-5.539-0.242-8.203-0.71l-6.33-36.429l1.518-0.388l0.097,0.388v3.504
		c0,1.889,0.759,3.715,2.083,5.038c2.519,2.519,6.491,2.794,9.317,0.662l1.518-1.131l1.518,1.131
		C89.517,72.081,93.489,71.807,96.008,69.288L96.008,69.288z M96.008,69.288"/>
	<path class="st2" d="M119.083,83.352l0.339,0.339c-5.393,5.393-12.078,9.527-19.522,11.901l3.036-10.625l-1.615-4.844l3.229-3.229
		l3.149-14.161l4.053,1.017c4.311,1.082,7.331,4.958,7.331,9.398V83.352z M119.083,83.352"/>
	<path class="st2" d="M67.411,84.967l3.036,10.625c-7.444-2.374-14.129-6.508-19.522-11.901l0.339-0.339V73.147
		c0-4.441,3.02-8.317,7.331-9.398l4.053-1.017l3.149,14.161l3.229,3.229L67.411,84.967z M67.411,84.967"/>
	<path class="st2" d="M107.7,62.732l-3.149,14.161l-3.229,3.229l1.615,4.844L99.9,95.592c-2.116,0.678-4.295,1.211-6.524,1.582
		l6.33-36.429L107.7,62.732z M107.7,62.732"/>
	<path class="st2" d="M70.641,60.746l6.33,36.429c-2.228-0.371-4.408-0.904-6.524-1.582l-3.036-10.625l1.615-4.844l-3.229-3.229
		l-3.149-14.161L70.641,60.746z M70.641,60.746"/>
	<path class="st5" d="M98.188,60.358l-0.097,0.388v3.504c0,1.889-0.759,3.715-2.083,5.038c-2.519,2.519-6.491,2.794-9.317,0.662
		l-1.518-1.131l8.074-9.688L98.188,60.358z M98.188,60.358"/>
	<path class="st5" d="M77.1,59.131l8.074,9.688l-1.518,1.131c-2.826,2.131-6.798,1.857-9.317-0.662
		c-1.324-1.324-2.083-3.149-2.083-5.038v-3.504l-0.097-0.388L77.1,59.131z M77.1,59.131"/>
	<path class="st5" d="M93.247,54.287v4.844l-8.074,9.688L77.1,59.131v-4.844l0.242-0.419c2.325,1.307,4.99,2.034,7.832,2.034
		s5.507-0.727,7.832-2.034L93.247,54.287z M93.247,54.287"/>
	<path class="st2" d="M116.984,32.73c3.165,1.599,5.328,4.861,5.328,8.639c0,5.345-4.344,9.688-9.688,9.688
		c-1.017,0-2.003-0.162-2.923-0.452c-1.438,2.212-3.924,3.681-6.766,3.681c-2.584,0-4.877-1.211-6.362-3.1
		c2.567-2.567,4.279-5.991,4.667-9.818h0.08c3.569,0,6.459-2.89,6.459-6.459V23.606c0-0.484-0.016-0.969-0.048-1.453h0.048
		c0.517-0.114,1.066-0.162,1.615-0.162c4.456,0,8.074,3.617,8.074,8.074C117.468,31.002,117.274,31.89,116.984,32.73L116.984,32.73z
		 M116.984,32.73"/>
	<path class="st5" d="M94.862,42.983v9.688c-0.581,0.436-1.211,0.84-1.857,1.195c-2.325,1.307-4.99,2.034-7.832,2.034
		s-5.506-0.727-7.832-2.034c-0.646-0.356-1.276-0.759-1.857-1.195v-9.688H94.862z M94.862,42.983"/>
	<path class="st2" d="M93.247,28.451H69.026c-3.569,0-6.459,2.89-6.459,6.459V23.606c0-6.233,2.535-11.884,6.621-15.986
		c3.843-3.827,9.059-6.297,14.823-6.588C84.398,1,84.786,1,85.173,1c0.388,0,0.775,0,1.163,0.032
		c11.464,0.581,20.668,9.704,21.395,21.121c0.032,0.484,0.048,0.969,0.048,1.453V34.91c0-0.436-0.048-0.872-0.129-1.308
		c-0.581-2.971-3.326-5.022-6.33-5.151H93.247z M93.247,28.451"/>
	<path class="st5" d="M107.78,34.91c0,3.569-2.89,6.459-6.459,6.459h-0.08c0.048-0.533,0.08-1.066,0.08-1.615V28.451
		c3.003,0.129,5.749,2.18,6.33,5.151C107.732,34.038,107.78,34.474,107.78,34.91L107.78,34.91z M107.78,34.91"/>
	<path class="st5" d="M69.026,38.139v1.615c0,0.549,0.032,1.082,0.08,1.615h-0.08c-3.569,0-6.459-2.89-6.459-6.459
		s2.89-6.459,6.459-6.459V38.139z M69.026,38.139"/>
	<path class="st5" d="M101.047,28.451H69.026v11.303c0,0.549,0.032,1.082,0.08,1.615c0.371,3.811,2.083,7.234,4.651,9.801
		c0.532,0.533,1.114,1.034,1.728,1.486v-9.673h19.377v9.673c0.613-0.436,1.179-0.937,1.712-1.47
		c2.567-2.567,4.279-5.991,4.667-9.818c0.048-0.533,0.08-1.066,0.08-1.615V28.451H101.047z M101.047,28.451"/>
	<path class="st5" d="M78.714,34.91c0,0.892-0.723,1.615-1.615,1.615c-0.892,0-1.615-0.723-1.615-1.615
		c0-0.892,0.723-1.615,1.615-1.615C77.991,33.295,78.714,34.018,78.714,34.91L78.714,34.91z M78.714,34.91"/>
	<path class="st5" d="M94.862,34.91c0,0.892-0.723,1.615-1.615,1.615s-1.615-0.723-1.615-1.615c0-0.892,0.723-1.615,1.615-1.615
		S94.862,34.018,94.862,34.91L94.862,34.91z M94.862,34.91"/>
	<rect x="83.559" y="75.278" class="st2" width="3.229" height="3.229"/>
	<rect x="83.559" y="83.352" class="st2" width="3.229" height="3.229"/>
	<rect x="83.559" y="91.426" class="st2" width="3.229" height="3.229"/>
	<line class="st5" x1="94.862" y1="42.983" x2="101.321" y2="36.524"/>
	<line class="st5" x1="75.485" y1="42.983" x2="68.924" y2="36.422"/>
</g>
</svg>