<!-- Generator: Adobe Illustrator 24.1.3, SVG Export Plug-In  -->
<svg version="1.1" xmlns="http://www.w3.org/2000/svg" xmlns:xlink="http://www.w3.org/1999/xlink" x="0px" y="0px"
	 width="459.637px" height="98.445px" viewBox="0 0 459.637 98.445"
	 style="overflow:visible;enable-background:new 0 0 459.637 98.445;" xml:space="preserve">
<style type="text/css">
	.st0{fill:none;}
	.st1{fill:#BF2222;}
	.st2{font-family:'HYQingFenTi-W';}
	.st3{font-size:72px;}
</style>
<defs>
</defs>
<g>
	<g>
		<rect x="92.605" y="5.335" class="st0" width="367.032" height="93.11"/>
		<path class="st1" d="M105.05,74.24c-0.913,0.191-1.62,0.096-2.124-0.288c-0.504-0.385-0.805-0.864-0.9-1.44
			c-0.097-0.576-0.024-1.141,0.217-1.691c0.239-0.553,0.671-0.9,1.295-1.044c5.232-1.104,10.212-2.329,14.94-3.673
			c4.728-1.343,9.132-2.771,13.212-4.283c4.08-1.512,7.776-3.096,11.088-4.752c3.313-1.656,6.168-3.372,8.568-5.148
			c0.527-0.383,0.73-0.803,0.611-1.26c-0.119-0.455-0.492-0.684-1.115-0.684h-9.648c-0.816,0-1.429-0.264-1.836-0.793
			c-0.408-0.527-0.611-1.115-0.611-1.764s0.203-1.234,0.611-1.764c0.407-0.527,1.02-0.792,1.836-0.792h14.112
			c1.343,0,2.472,0.385,3.384,1.151c0.912,0.77,1.523,1.692,1.836,2.772s0.288,2.208-0.072,3.384
			c-0.359,1.178-1.115,2.196-2.268,3.061c-2.353,1.824-5.305,3.625-8.855,5.4c-3.553,1.775-7.586,3.48-12.097,5.111
			c-4.513,1.631-9.479,3.168-14.903,4.607C116.904,71.792,111.144,73.088,105.05,74.24z M105.338,46.591
			c-0.721,0.193-1.309,0.098-1.764-0.287c-0.457-0.385-0.746-0.852-0.865-1.404c-0.119-0.551-0.071-1.092,0.145-1.62
			c0.217-0.528,0.636-0.864,1.26-1.009c4.896-1.247,9.541-2.615,13.932-4.104c4.393-1.487,8.461-2.988,12.205-4.5
			c3.744-1.512,7.092-3.023,10.043-4.535c2.953-1.513,5.437-2.916,7.453-4.213c0.623-0.383,0.887-0.792,0.791-1.224
			c-0.096-0.433-0.432-0.647-1.008-0.647h-13.68c-0.912,0-1.596-0.264-2.053-0.793c-0.456-0.527-0.684-1.091-0.684-1.691
			c0-0.6,0.228-1.164,0.684-1.692c0.457-0.527,1.141-0.792,2.053-0.792h17.496c1.535,0,2.819,0.396,3.852,1.188
			c1.031,0.793,1.703,1.754,2.016,2.881c0.313,1.128,0.24,2.293-0.215,3.492c-0.457,1.199-1.404,2.231-2.844,3.096
			c-1.826,1.104-4.248,2.376-7.273,3.816c-3.023,1.439-6.588,2.951-10.691,4.535s-8.736,3.193-13.896,4.824
			C117.133,43.545,111.481,45.105,105.338,46.591z M125.929,59.48c-0.961-1.344-1.729-2.436-2.305-3.276
			c-0.575-0.839-1.104-1.571-1.584-2.196c-2.16,0.961-4.439,1.908-6.84,2.844c-2.4,0.937-4.968,1.885-7.703,2.845
			c-0.625,0.241-1.178,0.216-1.656-0.072c-0.48-0.288-0.816-0.671-1.008-1.151c-0.193-0.48-0.217-0.984-0.072-1.513
			c0.145-0.527,0.527-0.911,1.152-1.151c3.312-1.297,6.275-2.544,8.892-3.744c2.616-1.199,5.052-2.448,7.308-3.744
			c2.256-1.297,4.403-2.664,6.444-4.104c2.04-1.44,4.14-3.072,6.3-4.896c0.96-0.816,1.944-1.164,2.952-1.044s1.8,0.504,2.376,1.151
			c0.576,0.648,0.84,1.465,0.792,2.448c-0.048,0.984-0.647,1.908-1.8,2.772c-3.217,2.447-7.513,4.92-12.889,7.416
			c1.536,1.104,2.676,1.956,3.42,2.556c0.744,0.601,1.308,1.069,1.692,1.403c0.768,0.721,1.056,1.502,0.864,2.341
			c-0.192,0.841-0.637,1.524-1.332,2.052c-0.696,0.529-1.524,0.769-2.484,0.721C127.488,61.089,126.649,60.537,125.929,59.48z
			 M118.945,27.152c-1.584,0.961-3.275,1.908-5.076,2.844c-1.799,0.936-3.732,1.933-5.795,2.988
			c-0.576,0.287-1.129,0.349-1.656,0.18c-0.529-0.168-0.912-0.468-1.152-0.9c-0.24-0.432-0.324-0.899-0.252-1.403
			c0.072-0.505,0.42-0.947,1.044-1.332c2.207-1.343,4.259-2.651,6.155-3.925c1.896-1.271,3.673-2.603,5.328-3.996
			c1.656-1.391,3.216-2.854,4.681-4.391c1.464-1.536,2.892-3.216,4.284-5.041c0.863-1.152,1.859-1.764,2.988-1.836
			c1.127-0.072,2.088,0.193,2.879,0.793c0.793,0.6,1.236,1.464,1.332,2.592s-0.48,2.316-1.728,3.563
			c-1.345,1.393-2.749,2.677-4.212,3.853c-1.465,1.176-3.037,2.316-4.716,3.42c1.536,0.768,2.688,1.367,3.456,1.8
			c0.768,0.432,1.343,0.769,1.728,1.008c0.911,0.576,1.343,1.296,1.296,2.16c-0.048,0.864-0.385,1.608-1.008,2.231
			c-0.625,0.625-1.416,0.997-2.376,1.116c-0.96,0.12-1.872-0.275-2.735-1.188L118.945,27.152z"/>
		<path class="st1" d="M173.521,36.8h33.984c0.768,0,1.343,0.252,1.728,0.756c0.384,0.504,0.576,1.056,0.576,1.655
			c0,0.601-0.192,1.152-0.576,1.656c-0.385,0.504-0.96,0.756-1.728,0.756h-33.984c-0.768,0-1.344-0.252-1.729-0.756
			s-0.575-1.056-0.575-1.656c0-0.6,0.19-1.151,0.575-1.655S172.754,36.8,173.521,36.8z M175.537,18.007h14.041
			c-0.433-0.287-0.841-0.768-1.225-1.439c-0.288-0.527-0.66-1.176-1.115-1.944c-0.457-0.767-1.094-1.823-1.908-3.168
			c-0.289-0.479-0.385-0.96-0.289-1.44c0.096-0.479,0.3-0.863,0.613-1.151c0.311-0.288,0.73-0.456,1.26-0.504
			c0.527-0.048,1.08,0.12,1.656,0.504c1.342,0.864,2.398,1.584,3.168,2.159c0.767,0.576,1.367,1.057,1.799,1.441
			c0.576,0.479,0.947,0.996,1.117,1.547c0.167,0.553,0.215,1.08,0.143,1.584c-0.071,0.504-0.264,0.961-0.575,1.369
			c-0.313,0.408-0.685,0.756-1.116,1.043h12.385c0.863,0,1.522,0.252,1.979,0.756c0.456,0.504,0.685,1.069,0.685,1.692
			c0,0.624-0.229,1.188-0.685,1.692c-0.457,0.504-1.116,0.756-1.979,0.756h-29.953c-0.863,0-1.5-0.252-1.908-0.756
			s-0.611-1.068-0.611-1.692c0-0.623,0.203-1.188,0.611-1.692S174.674,18.007,175.537,18.007z M175.25,70.208
			c0,1.152,0.348,2.027,1.043,2.628c0.695,0.6,1.451,0.9,2.269,0.9c0.815,0,1.571-0.301,2.269-0.9
			c0.695-0.601,1.043-1.476,1.043-2.628V51.632c0-1.152-0.348-2.027-1.043-2.629c-0.697-0.6-1.453-0.9-2.269-0.9
			c-0.817,0-1.573,0.301-2.269,0.9c-0.695,0.602-1.043,1.477-1.043,2.629V70.208z M180.002,25.064
			c1.486,0.863,2.688,1.596,3.6,2.195c0.911,0.602,1.8,1.236,2.664,1.908c1.055,0.816,1.535,1.705,1.439,2.664
			c-0.096,0.961-0.48,1.764-1.151,2.412c-0.673,0.648-1.488,0.984-2.448,1.008c-0.961,0.025-1.8-0.516-2.52-1.619
			c-0.529-0.816-1.129-1.752-1.801-2.809c-0.672-1.055-1.344-2.088-2.016-3.096c-0.24-0.384-0.349-0.793-0.324-1.225
			c0.023-0.432,0.145-0.803,0.36-1.115s0.515-0.516,0.899-0.612C179.09,24.68,179.521,24.776,180.002,25.064z M199.369,72.728
			c0.433,0.576,0.984,0.936,1.656,1.08c0.672,0.144,1.32,0.096,1.944-0.145c0.623-0.24,1.151-0.66,1.584-1.26
			c0.432-0.602,0.647-1.357,0.647-2.268V54.368c0-2.017-0.468-3.563-1.404-4.644c-0.936-1.08-2.411-1.621-4.428-1.621h-13.68
			c-0.768,0-1.344,0.252-1.729,0.757c-0.385,0.504-0.575,1.056-0.575,1.655c0,0.602,0.19,1.152,0.575,1.656s0.961,0.756,1.729,0.756
			h10.729c1.343,0,2.016,0.721,2.016,2.16v9.648h-12.744c-0.768,0-1.344,0.252-1.729,0.756s-0.575,1.055-0.575,1.656
			c0,0.6,0.19,1.152,0.575,1.656s0.961,0.756,1.729,0.756h8.424c1.104,0,2.04,0.239,2.809,0.72
			C197.689,70.759,198.506,71.576,199.369,72.728z M196.777,34.855c-0.528,0.337-0.996,0.469-1.404,0.396s-0.732-0.252-0.972-0.54
			c-0.241-0.288-0.385-0.659-0.432-1.116c-0.048-0.455,0.071-0.899,0.36-1.332c0.576-0.91,1.104-1.775,1.584-2.592
			c0.479-0.815,1.055-1.871,1.728-3.168c0.623-1.199,1.415-1.823,2.376-1.871c0.959-0.048,1.775,0.215,2.448,0.791
			c0.671,0.576,1.067,1.368,1.188,2.377c0.119,1.008-0.35,1.992-1.404,2.951c-0.961,0.864-1.825,1.572-2.592,2.124
			C198.888,33.428,197.929,34.089,196.777,34.855z M211.105,70.64c0,1.247,0.36,2.171,1.08,2.771c0.721,0.6,1.512,0.9,2.376,0.9
			s1.656-0.301,2.376-0.9c0.721-0.601,1.08-1.524,1.08-2.771V18.224c0-1.199-0.359-2.112-1.08-2.736
			c-0.72-0.623-1.512-0.936-2.376-0.936s-1.655,0.3-2.376,0.899c-0.72,0.601-1.08,1.524-1.08,2.772V70.64z M228.961,65.599
			c2.449-1.055,4.272-2.627,5.473-4.715c1.199-2.089,1.775-4.5,1.729-7.236c-0.049-2.783-0.949-5.568-2.701-8.353
			c-1.752-2.783-4.211-5.327-7.379-7.632c1.247-1.968,2.604-4.295,4.067-6.984c1.464-2.688,2.892-5.976,4.284-9.863
			c0.24-0.672,0.359-1.368,0.359-2.088c0-0.721-0.156-1.368-0.467-1.944c-0.313-0.576-0.793-1.044-1.44-1.403
			c-0.647-0.361-1.476-0.541-2.484-0.541h-8.784c-0.768,0-1.344,0.252-1.728,0.756c-0.385,0.504-0.576,1.057-0.576,1.656
			c0,0.602,0.191,1.152,0.576,1.656c0.384,0.504,0.96,0.756,1.728,0.756h5.041c0.096,0,0.203,0.049,0.323,0.145
			s0.155,0.215,0.108,0.359c-0.288,1.776-0.589,3.408-0.9,4.896c-0.313,1.488-0.66,2.916-1.044,4.283
			c-0.385,1.369-0.817,2.749-1.296,4.141c-0.48,1.393-1.008,2.88-1.584,4.464c-0.097,0.337-0.107,0.589-0.036,0.756
			c0.072,0.169,0.204,0.349,0.396,0.54c1.488,1.439,2.64,2.82,3.457,4.141c0.814,1.32,1.415,2.531,1.799,3.635
			c0.385,1.105,0.624,2.113,0.721,3.025c0.096,0.912,0.145,1.68,0.145,2.303c0,0.817-0.098,1.561-0.289,2.232
			c-0.191,0.673-0.539,1.213-1.043,1.62c-0.504,0.408-1.213,0.685-2.125,0.828s-2.088,0.12-3.527-0.072
			c-0.529-0.047-0.925,0.062-1.188,0.324c-0.266,0.265-0.422,0.576-0.469,0.937c-0.049,0.359,0.023,0.708,0.217,1.043
			c0.19,0.337,0.479,0.553,0.863,0.648c1.872,0.385,3.228,0.864,4.068,1.439c0.839,0.576,1.115,1.297,0.828,2.16
			c-0.098,0.337-0.098,0.674,0,1.008c0.096,0.337,0.287,0.625,0.576,0.865c0.287,0.24,0.623,0.396,1.008,0.467
			C228.049,65.923,228.481,65.84,228.961,65.599z"/>
		<path class="st1" d="M247.466,25.64c0-1.199,0.371-2.088,1.116-2.664c0.743-0.576,1.571-0.852,2.483-0.828
			c0.911,0.024,1.739,0.336,2.484,0.936c0.743,0.602,1.116,1.501,1.116,2.7v44.64c0,1.199-0.373,2.1-1.116,2.7
			c-0.745,0.6-1.573,0.899-2.484,0.899c-0.912,0-1.74-0.3-2.483-0.899c-0.745-0.601-1.116-1.501-1.116-2.7V25.64z M258.338,21.103
			c-1.105-1.918-2.077-3.551-2.916-4.896c-0.841-1.343-1.74-2.711-2.7-4.104c-0.288-0.432-0.409-0.875-0.36-1.332
			c0.047-0.455,0.228-0.827,0.54-1.115c0.312-0.288,0.708-0.455,1.188-0.504c0.479-0.047,0.982,0.12,1.512,0.504
			c2.16,1.537,3.924,2.869,5.292,3.996c1.368,1.128,2.604,2.244,3.708,3.348c0.911,0.864,1.235,1.836,0.973,2.916
			c-0.266,1.08-0.805,1.944-1.621,2.592c-0.816,0.648-1.764,0.926-2.844,0.828C260.029,23.24,259.105,22.497,258.338,21.103z
			 M272.09,19.952c-0.816,0-1.43-0.263-1.836-0.792c-0.408-0.527-0.612-1.092-0.612-1.691s0.204-1.164,0.612-1.692
			c0.406-0.528,1.02-0.792,1.836-0.792h25.992c4.463,0,6.695,2.208,6.695,6.623v43.777c0,3.935-1.943,6.911-5.832,8.928
			c-0.624,0.335-1.2,0.42-1.728,0.252c-0.528-0.169-0.841-0.637-0.937-1.404c-0.24-1.537-0.984-2.664-2.231-3.384
			c-1.249-0.72-3.049-1.249-5.4-1.585c-0.624-0.096-1.068-0.336-1.332-0.719c-0.265-0.385-0.372-0.793-0.323-1.225
			c0.047-0.432,0.227-0.815,0.539-1.152c0.313-0.335,0.756-0.504,1.332-0.504c1.824,0.049,3.313,0.025,4.465-0.072
			c1.151-0.096,2.039-0.323,2.664-0.684c0.623-0.359,1.043-0.9,1.26-1.619c0.216-0.721,0.324-1.68,0.324-2.881V22.832
			c0-0.911-0.277-1.62-0.828-2.124c-0.553-0.504-1.285-0.756-2.196-0.756H272.09z"/>
		<path class="st1" d="M317.162,31.976c-0.721,0-1.261-0.252-1.621-0.756c-0.359-0.504-0.539-1.056-0.539-1.656
			c0-0.6,0.18-1.152,0.539-1.656c0.36-0.504,0.9-0.756,1.621-0.756h5.039V12.679c0-1.151,0.371-2.027,1.116-2.627
			c0.743-0.6,1.548-0.9,2.412-0.9s1.667,0.301,2.412,0.9c0.743,0.6,1.116,1.476,1.116,2.627v14.473h4.824
			c0.72,0,1.26,0.252,1.619,0.756c0.36,0.504,0.541,1.057,0.541,1.656c0,0.601-0.181,1.152-0.541,1.656
			c-0.359,0.504-0.899,0.756-1.619,0.756h-4.824v38.808c0,1.199-0.373,2.099-1.116,2.7c-0.745,0.6-1.548,0.9-2.412,0.9
			s-1.669-0.301-2.412-0.9c-0.745-0.602-1.116-1.501-1.116-2.7V31.976H317.162z M340.057,34.208
			c0.191-0.479,0.479-0.815,0.864-1.008c0.383-0.191,0.756-0.239,1.115-0.144c0.36,0.096,0.685,0.3,0.973,0.611
			c0.287,0.313,0.407,0.732,0.359,1.26c-0.144,1.537-0.372,3.096-0.684,4.68c-0.313,1.584-0.648,3.097-1.008,4.537
			c-0.36,1.439-0.732,2.797-1.116,4.067c-0.385,1.272-0.72,2.364-1.008,3.276c-0.528,1.393-1.249,2.244-2.16,2.556
			c-0.912,0.313-1.765,0.265-2.556-0.144c-0.793-0.408-1.368-1.104-1.729-2.088c-0.359-0.983-0.205-2.053,0.469-3.205
			c1.104-2.063,2.255-4.402,3.455-7.02C338.232,38.972,339.24,36.511,340.057,34.208z M349.561,13.183
			c0-1.199,0.384-2.111,1.151-2.735s1.596-0.937,2.484-0.937s1.703,0.313,2.448,0.937c0.743,0.624,1.116,1.536,1.116,2.735
			c0,1.729-0.013,3.385-0.036,4.969c-0.024,1.584-0.061,3.145-0.108,4.68h9c4.08,0,6.121,2.16,6.121,6.48
			c0,6.048-0.062,11.34-0.181,15.875c-0.12,4.537-0.385,8.509-0.792,11.916c-0.408,3.409-1.008,6.313-1.8,8.713
			c-0.792,2.399-1.86,4.464-3.204,6.191c-0.529,0.721-1.092,1.225-1.691,1.512c-0.602,0.289-1.142,0.396-1.621,0.324
			c-0.48-0.072-0.876-0.3-1.188-0.684c-0.313-0.385-0.469-0.889-0.469-1.512c0-0.721-0.396-1.393-1.188-2.016
			c-0.792-0.625-2.365-1.057-4.716-1.297c-0.624-0.049-1.069-0.276-1.332-0.684c-0.265-0.408-0.385-0.854-0.36-1.332
			c0.023-0.479,0.191-0.9,0.504-1.26c0.313-0.36,0.731-0.516,1.26-0.469c2.208,0.193,3.961-0.096,5.257-0.863
			s2.279-2.377,2.952-4.824c0.672-2.448,1.091-5.939,1.26-10.477c0.168-4.535,0.252-10.476,0.252-17.82
			c0-1.055-0.216-1.799-0.648-2.231c-0.432-0.432-1.176-0.647-2.231-0.647h-5.4c-0.288,6.096-0.853,11.4-1.692,15.912
			s-1.992,8.531-3.455,12.06c-1.465,3.528-3.276,6.708-5.437,9.54c-2.159,2.832-4.728,5.64-7.704,8.424
			c-0.528,0.527-1.08,0.768-1.656,0.721c-0.576-0.049-1.056-0.229-1.439-0.541c-0.385-0.313-0.611-0.732-0.684-1.26
			c-0.072-0.529,0.107-1.033,0.539-1.512c2.208-2.4,4.152-4.932,5.832-7.596s3.097-5.688,4.248-9.072
			c1.152-3.385,2.076-7.236,2.772-11.557c0.695-4.319,1.188-9.359,1.476-15.119h-10.367c-0.817,0-1.43-0.252-1.836-0.756
			c-0.408-0.504-0.612-1.068-0.612-1.692s0.204-1.188,0.612-1.692c0.406-0.504,1.019-0.756,1.836-0.756h10.584
			c0.047-1.535,0.083-3.096,0.107-4.68C349.549,16.568,349.561,14.912,349.561,13.183z M373.033,36.511
			c-0.096-0.432-0.024-0.815,0.217-1.151c0.239-0.335,0.515-0.552,0.828-0.648c0.311-0.095,0.647-0.083,1.008,0.036
			c0.359,0.121,0.658,0.396,0.899,0.828c1.152,2.447,2.196,4.777,3.132,6.984c0.937,2.208,1.668,4.272,2.196,6.191
			c0.433,1.439,0.384,2.581-0.144,3.42c-0.529,0.841-1.213,1.368-2.053,1.584c-0.84,0.217-1.656,0.108-2.447-0.324
			c-0.793-0.432-1.236-1.199-1.332-2.304c-0.193-2.016-0.493-4.247-0.9-6.696C374.029,41.984,373.56,39.344,373.033,36.511z"/>
		<path class="st1" d="M398.953,12.536c0.433-1.296,1.164-2.124,2.196-2.483c1.032-0.361,2.027-0.361,2.988,0
			c0.96,0.359,1.703,1.043,2.231,2.051c0.527,1.009,0.479,2.186-0.144,3.529c-2.112,4.656-4.489,9.215-7.128,13.68
			c-2.641,4.464-5.592,8.904-8.855,13.32c-0.48,0.623-0.973,0.96-1.477,1.008s-0.925-0.084-1.26-0.396
			c-0.336-0.312-0.564-0.744-0.684-1.296c-0.121-0.552-0.014-1.091,0.323-1.62c1.056-1.775,2.063-3.637,3.024-5.58
			c0.959-1.943,1.919-4.043,2.88-6.3c0.96-2.256,1.932-4.691,2.916-7.308C396.949,18.524,397.945,15.656,398.953,12.536z
			 M403.273,70.351c0,1.248-0.372,2.184-1.115,2.809c-0.746,0.623-1.549,0.936-2.412,0.936c-0.865,0-1.669-0.313-2.412-0.936
			c-0.745-0.625-1.116-1.561-1.116-2.809V40.255c0-1.296,0.36-2.256,1.079-2.88c0.721-0.623,1.523-0.937,2.412-0.937
			s1.703,0.313,2.449,0.937c0.743,0.624,1.115,1.584,1.115,2.88V70.351z M409.466,38.095c-0.433,0.576-0.925,0.9-1.476,0.973
			c-0.553,0.072-1.033-0.023-1.44-0.288c-0.409-0.263-0.696-0.659-0.864-1.188c-0.169-0.527-0.084-1.104,0.252-1.728
			c1.199-2.16,2.256-4.14,3.168-5.94c0.911-1.8,1.729-3.6,2.448-5.4c0.72-1.799,1.368-3.658,1.944-5.579
			c0.576-1.919,1.151-4.032,1.728-6.337c0.335-1.343,0.995-2.219,1.979-2.627s1.955-0.456,2.916-0.145
			c0.96,0.313,1.729,0.925,2.305,1.836c0.576,0.912,0.623,2.016,0.145,3.313c-0.865,2.352-1.789,4.561-2.773,6.623
			c-0.984,2.064-2.04,4.033-3.168,5.904c-1.128,1.873-2.292,3.672-3.491,5.4C411.937,34.64,410.713,36.368,409.466,38.095z
			 M421.561,31.759c0-1.199,0.371-2.1,1.116-2.699c0.744-0.6,1.571-0.9,2.484-0.9c0.91,0,1.738,0.301,2.483,0.9
			c0.743,0.6,1.116,1.5,1.116,2.699V70.28c0,1.296-0.373,2.269-1.116,2.916c-0.745,0.647-1.56,0.972-2.448,0.972
			s-1.717-0.324-2.484-0.972s-1.151-1.62-1.151-2.916V31.759z M424.082,25.423c-0.817,0-1.417-0.264-1.801-0.791
			c-0.385-0.528-0.576-1.104-0.576-1.729c0-0.623,0.191-1.199,0.576-1.729c0.384-0.527,0.983-0.791,1.801-0.791h26.424
			c0.863,0,1.5,0.264,1.908,0.791c0.406,0.529,0.611,1.105,0.611,1.729c0,0.624-0.205,1.2-0.611,1.729
			c-0.408,0.527-1.045,0.791-1.908,0.791H424.082z M433.369,41.048c-0.816,0-1.416-0.264-1.799-0.793
			c-0.385-0.527-0.576-1.104-0.576-1.728s0.191-1.199,0.576-1.728c0.383-0.528,0.982-0.793,1.799-0.793h14.185
			c0.864,0,1.499,0.265,1.907,0.793s0.613,1.104,0.613,1.728s-0.205,1.2-0.613,1.728c-0.408,0.529-1.043,0.793-1.907,0.793H433.369z
			 M433.369,57.32c-0.816,0-1.416-0.264-1.799-0.792c-0.385-0.528-0.576-1.104-0.576-1.728c0-0.624,0.191-1.199,0.576-1.729
			c0.383-0.527,0.982-0.792,1.799-0.792h14.904c0.864,0,1.5,0.265,1.908,0.792c0.407,0.529,0.611,1.104,0.611,1.729
			c0,0.623-0.204,1.199-0.611,1.728c-0.408,0.528-1.044,0.792-1.908,0.792H433.369z"/>
	</g>
	<g>
		<g>
			<path class="st1" d="M40.839,0C18.32,0,0,18.32,0,40.839c0,22.519,18.32,40.839,40.839,40.839s40.839-18.32,40.839-40.839
				C81.677,18.32,63.357,0,40.839,0z M40.839,74.27c-18.434,0-33.431-14.998-33.431-33.432c0-18.434,14.997-33.431,33.431-33.431
				S74.27,22.405,74.27,40.839C74.27,59.273,59.273,74.27,40.839,74.27z"/>
			<path class="st1" d="M60.783,33.354H47.639c-0.624,0-1.176-0.402-1.369-0.995l-4.062-12.501c-0.431-1.327-2.307-1.327-2.739,0
				l-4.062,12.501c-0.193,0.593-0.745,0.995-1.369,0.995H20.894c-1.395,0-1.975,1.785-0.846,2.604l10.634,7.726
				c0.505,0.367,0.716,1.017,0.523,1.61l-4.062,12.501c-0.431,1.327,1.087,2.429,2.216,1.61l10.634-7.726
				c0.505-0.367,1.188-0.367,1.693,0l10.634,7.726c1.128,0.82,2.646-0.283,2.216-1.61l-4.062-12.501
				c-0.193-0.593,0.018-1.243,0.523-1.61l10.634-7.726C62.758,35.139,62.178,33.354,60.783,33.354z"/>
		</g>
	</g>
</g>
</svg>