<!-- Generator: Adobe Illustrator 24.1.3, SVG Export Plug-In  -->
<svg version="1.1" xmlns="http://www.w3.org/2000/svg" xmlns:xlink="http://www.w3.org/1999/xlink" x="0px" y="0px"
	 width="477.675px" height="93.196px" viewBox="0 0 477.675 93.196"
	 style="overflow:visible;enable-background:new 0 0 477.675 93.196;" xml:space="preserve">
<style type="text/css">
	.st0{fill:#BF2222;}
	.st1{fill:none;}
	.st2{font-family:'HYQingFenTi-W';}
	.st3{font-size:72px;}
</style>
<defs>
</defs>
<g>
	<g>
		<g>
			<path class="st0" d="M111.08,62.726c-0.576,1.008-1.249,1.68-2.017,2.016c-0.768,0.335-1.512,0.396-2.231,0.18
				c-0.72-0.216-1.321-0.673-1.8-1.368c-0.48-0.696-0.721-1.62-0.721-2.772V33.998c0-0.959-0.504-1.44-1.512-1.44h-4.104
				c-0.817,0-1.429-0.263-1.836-0.792c-0.409-0.528-0.612-1.104-0.612-1.728c0-0.623,0.216-1.199,0.647-1.728
				c0.433-0.527,1.056-0.792,1.872-0.792h8.208c1.199,0,2.16,0.421,2.88,1.26c0.721,0.84,1.08,1.86,1.08,3.06v22.104
				c0,0.288,0.096,0.529,0.288,0.72c0.191,0.192,0.433,0.169,0.721-0.072l4.248-3.24c0.479-0.24,0.947-0.288,1.403-0.144
				s0.792,0.421,1.008,0.828c0.217,0.408,0.276,0.864,0.181,1.368c-0.097,0.504-0.457,0.997-1.08,1.476
				c-1.104,0.817-2.257,1.944-3.456,3.384C113.047,59.702,111.991,61.19,111.08,62.726z M101,9.23
				c-0.337-0.479-0.457-0.959-0.36-1.44c0.096-0.479,0.3-0.864,0.612-1.152c0.312-0.288,0.72-0.456,1.224-0.504
				c0.504-0.047,0.996,0.144,1.477,0.576c2.304,1.969,4.127,3.625,5.472,4.968c1.344,1.344,2.472,2.544,3.384,3.6
				c0.624,0.72,0.96,1.452,1.009,2.196c0.047,0.745-0.098,1.429-0.433,2.052c-0.336,0.624-0.816,1.128-1.439,1.512
				c-0.625,0.385-1.297,0.601-2.017,0.648c-0.72,0.048-1.416-0.119-2.088-0.504c-0.673-0.384-1.224-1.055-1.656-2.016
				c-0.575-1.343-1.092-2.495-1.548-3.456c-0.457-0.959-0.889-1.811-1.296-2.556c-0.408-0.744-0.792-1.416-1.152-2.016
				C101.828,10.538,101.431,9.902,101,9.23z M159.895,47.606h-17.712v11.592h9.145V53.51c0-1.104,0.335-1.932,1.008-2.484
				c0.672-0.551,1.428-0.828,2.268-0.828s1.596,0.277,2.269,0.828c0.672,0.552,1.008,1.38,1.008,2.484v11.592
				c0,0.72-0.24,1.32-0.72,1.8c-0.48,0.479-1.044,0.815-1.692,1.008c-0.647,0.191-1.309,0.191-1.979,0
				c-0.673-0.192-1.201-0.625-1.584-1.296c-0.721-1.152-1.453-1.908-2.196-2.268c-0.745-0.36-1.597-0.54-2.556-0.54h-17.353
				c-0.673,0-1.188-0.241-1.548-0.72c-0.36-0.48-0.54-1.008-0.54-1.584c0-0.576,0.18-1.104,0.54-1.584
				c0.36-0.479,0.875-0.72,1.548-0.72h5.977V47.606h-17.929c-0.72,0-1.248-0.239-1.584-0.72c-0.336-0.479-0.504-1.02-0.504-1.62
				c0-0.6,0.168-1.14,0.504-1.62c0.336-0.479,0.864-0.72,1.584-0.72h17.929v-2.88c0-1.104,0.335-1.944,1.008-2.52
				c0.671-0.576,1.403-0.864,2.195-0.864s1.523,0.277,2.196,0.828c0.672,0.552,1.008,1.404,1.008,2.556v2.88h17.712
				c0.768,0,1.332,0.241,1.692,0.72c0.36,0.48,0.54,1.021,0.54,1.62c0,0.601-0.18,1.141-0.54,1.62
				C161.227,47.366,160.663,47.606,159.895,47.606z M153.704,6.134c1.151-0.335,2.088-0.228,2.808,0.324
				c0.72,0.553,1.152,1.236,1.296,2.052c0.145,0.816-0.071,1.62-0.647,2.412s-1.584,1.285-3.024,1.476
				c-2.16,0.288-4.464,0.553-6.912,0.792c-2.447,0.241-5.124,0.468-8.027,0.684c-2.905,0.216-6.061,0.409-9.469,0.576
				c-3.408,0.168-7.152,0.324-11.231,0.468c-0.433,0-0.781-0.167-1.044-0.504c-0.265-0.335-0.421-0.708-0.468-1.116
				c-0.049-0.407,0.023-0.792,0.216-1.152c0.191-0.36,0.504-0.563,0.936-0.612c3.983-0.288,7.776-0.648,11.376-1.08
				c3.601-0.432,6.936-0.9,10.008-1.404c3.071-0.504,5.808-1.008,8.208-1.512S152.12,6.566,153.704,6.134z M126.704,32.054
				c-0.529,1.2-1.225,2.424-2.088,3.672c-0.864,1.249-2.041,2.833-3.528,4.752c-0.385,0.529-0.841,0.817-1.368,0.864
				c-0.528,0.048-0.996-0.06-1.403-0.324c-0.409-0.263-0.697-0.659-0.864-1.188c-0.169-0.527-0.061-1.127,0.324-1.8
				c0.72-1.248,1.296-2.472,1.728-3.672c0.432-1.199,0.911-2.567,1.44-4.104c0.383-1.152,0.982-1.896,1.8-2.232
				c0.815-0.335,1.584-0.371,2.304-0.108c0.72,0.265,1.284,0.769,1.692,1.512C127.147,30.17,127.135,31.045,126.704,32.054z
				 M126.127,64.958c0,1.008-0.336,1.775-1.008,2.304c-0.673,0.527-1.417,0.792-2.232,0.792c-0.816,0-1.561-0.265-2.231-0.792
				c-0.673-0.529-1.009-1.296-1.009-2.304V53.51c0-1.104,0.336-1.932,1.009-2.484c0.671-0.551,1.415-0.828,2.231-0.828
				c0.815,0,1.56,0.277,2.232,0.828c0.672,0.552,1.008,1.38,1.008,2.484V64.958z M123.175,16.502
				c1.344,1.393,2.412,2.52,3.204,3.384c0.792,0.864,1.451,1.632,1.98,2.304c0.72,0.961,0.923,1.872,0.611,2.736
				c-0.313,0.864-0.828,1.5-1.548,1.908c-0.72,0.409-1.501,0.504-2.34,0.288c-0.841-0.216-1.452-0.947-1.836-2.196
				c-0.529-1.584-0.984-2.868-1.368-3.852c-0.385-0.983-0.769-1.883-1.152-2.7c-0.192-0.383-0.228-0.756-0.107-1.116
				c0.119-0.36,0.312-0.648,0.576-0.864c0.263-0.216,0.587-0.324,0.972-0.324C122.551,16.07,122.887,16.214,123.175,16.502z
				 M155.431,35.654h-25.416c-0.72,0-1.248-0.24-1.584-0.72c-0.336-0.479-0.504-0.996-0.504-1.548c0-0.551,0.168-1.068,0.504-1.548
				c0.336-0.479,0.864-0.72,1.584-0.72h25.416c0.672,0,1.176,0.241,1.513,0.72c0.335,0.48,0.504,0.997,0.504,1.548
				c0,0.552-0.169,1.069-0.504,1.548C156.607,35.414,156.103,35.654,155.431,35.654z M137.143,15.422
				c0.911,1.249,1.729,2.4,2.448,3.456c0.72,1.057,1.415,2.185,2.088,3.384c0.623,1.056,0.731,2.005,0.324,2.844
				c-0.408,0.84-0.984,1.44-1.728,1.8c-0.745,0.36-1.537,0.408-2.376,0.144c-0.841-0.263-1.381-0.996-1.62-2.196
				c-0.288-1.44-0.565-2.724-0.828-3.852c-0.265-1.127-0.612-2.436-1.044-3.924c-0.145-0.479-0.121-0.9,0.071-1.26
				c0.191-0.36,0.443-0.624,0.757-0.792c0.312-0.168,0.647-0.228,1.008-0.18C136.603,14.894,136.903,15.087,137.143,15.422z
				 M147.656,25.43c0.432-1.152,0.828-2.376,1.188-3.672c0.36-1.296,0.78-2.927,1.26-4.896c0.288-1.152,0.84-1.883,1.656-2.196
				c0.815-0.312,1.607-0.324,2.376-0.036c0.768,0.288,1.368,0.853,1.8,1.692c0.433,0.84,0.36,1.836-0.216,2.988
				c-0.72,1.537-1.476,2.893-2.268,4.068c-0.792,1.177-1.74,2.412-2.844,3.708c-0.288,0.385-0.648,0.612-1.08,0.684
				c-0.433,0.072-0.817,0.025-1.152-0.144c-0.337-0.167-0.589-0.432-0.756-0.792C147.451,26.474,147.463,26.006,147.656,25.43z"/>
			<path class="st0" d="M230.168,19.166h-57.313c-0.863,0-1.512-0.263-1.943-0.792c-0.433-0.527-0.648-1.091-0.648-1.692
				c0-0.6,0.216-1.163,0.648-1.692c0.432-0.528,1.08-0.792,1.943-0.792h57.313c0.815,0,1.44,0.264,1.872,0.792
				c0.432,0.529,0.647,1.092,0.647,1.692c0,0.601-0.204,1.165-0.611,1.692C231.668,18.902,231.032,19.166,230.168,19.166z
				 M223.328,29.75h-43.561c-0.912,0-1.596-0.252-2.052-0.756c-0.457-0.504-0.684-1.068-0.684-1.692
				c0-0.624,0.227-1.188,0.684-1.692c0.456-0.504,1.14-0.756,2.052-0.756h43.561c0.864,0,1.523,0.252,1.979,0.756
				c0.456,0.504,0.685,1.068,0.685,1.692c0,0.624-0.216,1.188-0.648,1.692C224.912,29.498,224.239,29.75,223.328,29.75z
				 M223.183,40.045h-43.271c-0.912,0-1.597-0.252-2.052-0.756c-0.457-0.504-0.685-1.067-0.685-1.692
				c0-0.623,0.228-1.188,0.685-1.692c0.455-0.504,1.14-0.756,2.052-0.756h43.271c0.864,0,1.523,0.252,1.98,0.756
				c0.455,0.504,0.684,1.069,0.684,1.692c0,0.625-0.216,1.188-0.647,1.692C224.767,39.794,224.094,40.045,223.183,40.045z
				 M177.895,65.39c0,1.152,0.384,2.003,1.152,2.556c0.768,0.551,1.596,0.828,2.484,0.828c0.888,0,1.715-0.276,2.483-0.828
				c0.768-0.553,1.152-1.404,1.152-2.556V48.758c0-1.152-0.385-2.004-1.152-2.556c-0.769-0.551-1.596-0.828-2.483-0.828
				c-0.889,0-1.717,0.277-2.484,0.828c-0.769,0.552-1.152,1.404-1.152,2.556V65.39z M218.647,67.694
				c0.433,0.576,0.996,0.923,1.692,1.044c0.695,0.119,1.368,0.072,2.016-0.144c0.648-0.216,1.199-0.625,1.656-1.224
				c0.456-0.601,0.685-1.332,0.685-2.196v-13.68c0-3.935-1.969-5.904-5.904-5.904h-29.664c-0.769,0-1.345,0.252-1.728,0.756
				c-0.385,0.504-0.576,1.069-0.576,1.692c0,0.625,0.191,1.188,0.576,1.692c0.383,0.504,0.959,0.756,1.728,0.756h26.208
				c0.768,0,1.308,0.144,1.62,0.432c0.312,0.288,0.468,0.792,0.468,1.512v7.416h-28.296c-0.769,0-1.345,0.252-1.728,0.756
				c-0.385,0.504-0.576,1.055-0.576,1.656c0,0.6,0.191,1.152,0.576,1.656c0.383,0.504,0.959,0.756,1.728,0.756h24.192
				c1.055,0,1.991,0.228,2.808,0.684C216.943,65.809,217.784,66.589,218.647,67.694z M199.135,3.542
				c1.968,1.249,3.72,2.473,5.256,3.672c1.056,0.912,1.5,1.848,1.332,2.808c-0.169,0.961-0.647,1.728-1.439,2.304
				s-1.717,0.84-2.772,0.792c-1.057-0.047-1.896-0.623-2.52-1.728c-1.057-1.872-2.113-3.624-3.168-5.256
				c-0.337-0.479-0.469-0.96-0.396-1.44c0.072-0.479,0.288-0.864,0.648-1.152c0.359-0.288,0.803-0.456,1.332-0.504
				C197.935,2.99,198.511,3.158,199.135,3.542z"/>
			<path class="st0" d="M244.784,19.526c0-1.2,0.359-2.088,1.08-2.664c0.72-0.576,1.512-0.864,2.376-0.864
				c0.863,0,1.655,0.288,2.376,0.864c0.72,0.576,1.08,1.464,1.08,2.664V63.95c0,1.248-0.36,2.171-1.08,2.772
				c-0.721,0.6-1.513,0.9-2.376,0.9c-0.864,0-1.656-0.3-2.376-0.9c-0.721-0.601-1.08-1.524-1.08-2.772V19.526z M254,40.226
				c-0.432-0.504-0.648-1.044-0.648-1.62c0-0.576,0.217-1.116,0.648-1.62c0.432-0.504,1.055-0.756,1.872-0.756h7.632V23.486
				c0-0.864-0.288-1.536-0.864-2.016c-0.576-0.479-1.32-0.72-2.231-0.72h-4.536c-0.769,0-1.345-0.227-1.729-0.684
				c-0.385-0.456-0.601-0.972-0.647-1.548c-0.049-0.576,0.083-1.116,0.396-1.62c0.312-0.504,0.804-0.803,1.477-0.9
				c0.191-1.343,0.348-2.747,0.468-4.212c0.119-1.464,0.203-2.556,0.252-3.276c0.047-1.343,0.491-2.304,1.332-2.88
				c0.839-0.576,1.716-0.792,2.628-0.648c0.911,0.144,1.68,0.625,2.304,1.44c0.624,0.816,0.768,1.92,0.433,3.312
				c-0.241,0.816-0.576,1.74-1.008,2.772c-0.433,1.033-0.984,2.172-1.656,3.42h3.815c2.4,0,4.068,0.612,5.004,1.836
				c0.937,1.224,1.404,2.7,1.404,4.428v35.28c0,1.681-0.444,3.024-1.332,4.032c-0.889,1.008-2.46,1.512-4.716,1.512h-8.424
				c-0.817,0-1.417-0.252-1.8-0.756c-0.385-0.504-0.576-1.055-0.576-1.656c0-0.6,0.191-1.152,0.576-1.656
				c0.383-0.504,0.982-0.756,1.8-0.756h7.632V40.982h-7.632C255.054,40.982,254.431,40.73,254,40.226z M271.927,30.434
				c0.191,0.504,0.492,0.864,0.9,1.08c0.407,0.216,0.864,0.277,1.368,0.18c0.504-0.096,0.972-0.456,1.403-1.08
				c2.017-3.024,3.816-6.252,5.4-9.684c1.584-3.431,2.88-7.308,3.888-11.628c0.288-1.296,0.108-2.352-0.54-3.168
				c-0.647-0.816-1.439-1.308-2.376-1.476c-0.936-0.167-1.86,0.025-2.771,0.576c-0.913,0.552-1.465,1.524-1.656,2.916
				c-0.673,4.129-1.476,7.884-2.412,11.268c-0.936,3.384-1.979,6.516-3.132,9.396C271.758,29.39,271.735,29.93,271.927,30.434z
				 M280.244,38.606c-0.792-1.872-1.524-3.503-2.196-4.896c-0.192-0.432-0.216-0.852-0.072-1.26
				c0.145-0.407,0.384-0.744,0.721-1.008c0.335-0.263,0.73-0.396,1.188-0.396c0.456,0,0.9,0.216,1.332,0.648
				c3.313,3.36,5.951,6.552,7.92,9.576c0.72,1.105,0.875,2.16,0.468,3.168c-0.408,1.008-1.056,1.764-1.943,2.268
				c-0.889,0.504-1.836,0.648-2.844,0.432c-1.009-0.216-1.729-0.972-2.16-2.268C281.838,42.566,281.036,40.478,280.244,38.606z
				 M291.763,68.63c-0.696-0.336-1.092-0.841-1.188-1.512c-0.145-0.864-0.468-1.548-0.973-2.052c-0.504-0.504-1.188-0.9-2.052-1.188
				c-0.864-0.288-1.896-0.504-3.096-0.648c-1.2-0.144-2.545-0.288-4.032-0.432c-0.528-0.048-0.925-0.277-1.188-0.684
				c-0.265-0.409-0.385-0.839-0.36-1.296c0.023-0.456,0.191-0.864,0.504-1.224c0.312-0.36,0.779-0.54,1.404-0.54
				c1.055,0.048,2.135,0.072,3.239,0.072s2.136-0.023,3.097-0.072c0.959-0.047,1.823-0.144,2.592-0.288
				c0.768-0.144,1.392-0.36,1.872-0.648c0.96-0.576,1.692-1.644,2.196-3.204c0.504-1.559,0.875-3.755,1.115-6.588
				c0.24-2.832,0.384-6.347,0.433-10.548c0.047-4.2,0.072-9.18,0.072-14.94c0-0.767-0.157-1.332-0.469-1.692
				c-0.313-0.36-0.899-0.54-1.764-0.54h-6.696c-0.769,0-1.344-0.252-1.728-0.756c-0.385-0.504-0.576-1.055-0.576-1.656
				c0-0.6,0.191-1.152,0.576-1.656c0.384-0.504,0.959-0.756,1.728-0.756h10.8c1.056,0,1.92,0.168,2.593,0.504
				c0.671,0.336,1.211,0.792,1.62,1.368c0.407,0.576,0.684,1.224,0.827,1.944c0.145,0.72,0.217,1.44,0.217,2.16
				c0,7.296-0.072,13.561-0.217,18.792c-0.144,5.232-0.504,9.672-1.08,13.32c-0.575,3.648-1.429,6.613-2.556,8.892
				c-1.128,2.279-2.652,4.091-4.572,5.436C293.24,68.821,292.459,68.965,291.763,68.63z"/>
			<path class="st0" d="M315.055,37.094c-0.816,0-1.416-0.252-1.8-0.756c-0.385-0.504-0.576-1.055-0.576-1.656
				c0-0.6,0.191-1.152,0.576-1.656c0.384-0.504,0.983-0.756,1.8-0.756h19.008c0.768,0,1.368,0.252,1.801,0.756
				c0.432,0.504,0.647,1.056,0.647,1.656c0,0.601-0.204,1.152-0.611,1.656c-0.409,0.504-1.021,0.756-1.837,0.756H315.055z
				 M321.391,41.99c0-1.152,0.348-2.027,1.044-2.628c0.695-0.6,1.464-0.9,2.305-0.9c0.839,0,1.595,0.301,2.268,0.9
				c0.672,0.601,0.983,1.476,0.937,2.628l-0.217,4.104h6.769c0.815,0,1.428,0.241,1.836,0.72c0.407,0.48,0.612,1.021,0.612,1.62
				c0,0.601-0.205,1.141-0.612,1.62c-0.408,0.48-1.021,0.72-1.836,0.72h-7.344c-0.337,1.92-0.792,3.636-1.368,5.148
				c-0.576,1.512-1.309,2.952-2.196,4.32c-0.889,1.368-1.969,2.736-3.24,4.104c-1.272,1.368-2.748,2.844-4.428,4.428
				c-0.385,0.335-0.78,0.479-1.188,0.432c-0.408-0.048-0.756-0.216-1.044-0.504c-0.287-0.288-0.456-0.66-0.504-1.116
				c-0.048-0.457,0.096-0.9,0.433-1.332c1.151-1.44,2.135-2.748,2.952-3.924c0.815-1.176,1.512-2.351,2.088-3.528
				c0.575-1.176,1.044-2.412,1.403-3.708c0.36-1.296,0.636-2.736,0.828-4.32h-5.399c-0.769,0-1.345-0.239-1.729-0.72
				c-0.385-0.479-0.576-1.02-0.576-1.62c0-0.6,0.191-1.14,0.576-1.62c0.384-0.479,0.96-0.72,1.729-0.72h5.76L321.391,41.99z
				 M322.616,12.542c-0.337-0.815-0.696-1.62-1.08-2.412c-0.385-0.792-0.817-1.596-1.296-2.412
				c-0.288-0.528-0.385-1.055-0.288-1.584c0.096-0.528,0.348-0.947,0.756-1.26c0.407-0.312,0.9-0.456,1.476-0.432
				c0.576,0.025,1.176,0.324,1.801,0.9c2.207,2.064,3.6,3.456,4.176,4.176c0.672,0.817,0.936,1.597,0.792,2.34
				c-0.145,0.745-0.48,1.357-1.008,1.836h5.688c0.768,0,1.368,0.241,1.8,0.72c0.433,0.48,0.648,1.008,0.648,1.584
				c0,0.576-0.192,1.105-0.576,1.584c-0.385,0.48-1.008,0.72-1.872,0.72h-17.136c-0.817,0-1.44-0.24-1.872-0.72
				c-0.432-0.479-0.648-1.008-0.648-1.584c0-0.576,0.217-1.104,0.648-1.584c0.432-0.479,1.055-0.72,1.872-0.72h6.912
				C323.071,13.358,322.807,12.974,322.616,12.542z M318.511,28.094c-0.192-0.528-0.444-1.26-0.756-2.196
				c-0.313-0.936-0.709-1.932-1.188-2.988c-0.192-0.432-0.229-0.839-0.108-1.224c0.119-0.383,0.335-0.684,0.648-0.9
				c0.312-0.216,0.671-0.312,1.079-0.288c0.407,0.025,0.804,0.229,1.188,0.612c0.911,0.912,1.703,1.764,2.376,2.556
				c0.672,0.792,1.271,1.501,1.8,2.124c0.72,0.913,0.947,1.789,0.685,2.628c-0.265,0.84-0.745,1.465-1.44,1.872
				c-0.696,0.409-1.476,0.48-2.34,0.216C319.591,30.242,318.944,29.438,318.511,28.094z M330.463,29.534
				c-0.432,0.48-0.864,0.756-1.296,0.828c-0.432,0.072-0.828,0.012-1.188-0.18c-0.359-0.191-0.611-0.468-0.756-0.828
				c-0.144-0.36-0.144-0.756,0-1.188c0.672-1.68,1.225-3.528,1.656-5.544c0.239-1.152,0.731-1.883,1.476-2.196
				c0.744-0.312,1.464-0.335,2.16-0.072c0.695,0.265,1.225,0.781,1.584,1.548c0.36,0.768,0.3,1.656-0.18,2.664
				c-0.385,0.72-0.864,1.501-1.44,2.34C331.904,27.746,331.231,28.623,330.463,29.534z M336.944,68.846
				c-0.433,0.288-0.877,0.384-1.332,0.288c-0.457-0.097-0.841-0.313-1.152-0.648c-0.313-0.336-0.468-0.756-0.468-1.26
				s0.263-0.997,0.792-1.476c2.639-2.352,4.763-4.799,6.372-7.344c1.607-2.544,2.795-5.544,3.563-9
				c0.335-1.44,0.6-3.156,0.792-5.148c0.191-1.991,0.336-4.536,0.433-7.632c0.095-3.096,0.155-6.912,0.18-11.448
				c0.023-4.536,0.036-10.091,0.036-16.668c0-1.152,0.312-2.016,0.936-2.592c0.623-0.576,1.308-0.864,2.052-0.864
				s1.428,0.288,2.053,0.864c0.623,0.576,0.936,1.44,0.936,2.592c0,5.616-0.024,10.645-0.072,15.084
				c-0.048,4.44-0.144,8.364-0.287,11.772c-0.145,3.409-0.35,6.348-0.612,8.82c-0.265,2.473-0.637,4.572-1.116,6.3
				c-0.528,1.872-1.128,3.612-1.8,5.22c-0.673,1.609-1.512,3.145-2.521,4.608c-1.008,1.464-2.221,2.892-3.636,4.284
				C340.675,65.989,338.96,67.406,336.944,68.846z M342.919,44.366c0,1.104-0.276,1.92-0.828,2.448
				c-0.553,0.529-1.164,0.792-1.836,0.792c-0.673,0-1.285-0.263-1.836-0.792c-0.553-0.527-0.828-1.343-0.828-2.448V18.518
				c0-1.008,0.275-1.775,0.828-2.304c0.551-0.528,1.163-0.792,1.836-0.792c0.672,0,1.283,0.264,1.836,0.792
				c0.552,0.528,0.828,1.296,0.828,2.304V44.366z M354.223,51.71c-0.769,0-1.344-0.239-1.728-0.72
				c-0.385-0.479-0.576-1.02-0.576-1.62c0-0.6,0.191-1.14,0.576-1.62c0.384-0.479,0.959-0.72,1.728-0.72H362v-4.32
				c0-1.152,0.348-2.016,1.044-2.592c0.695-0.576,1.451-0.864,2.268-0.864s1.572,0.288,2.269,0.864
				c0.695,0.576,1.044,1.44,1.044,2.592v4.32h6.696c0.863,0,1.499,0.241,1.907,0.72c0.407,0.48,0.612,1.021,0.612,1.62
				c0,0.601-0.205,1.141-0.612,1.62c-0.408,0.48-1.044,0.72-1.907,0.72h-6.696v13.968c0,1.152-0.349,2.003-1.044,2.556
				c-0.696,0.551-1.452,0.828-2.269,0.828s-1.572-0.277-2.268-0.828C362.347,67.681,362,66.83,362,65.678V51.71H354.223z
				 M361.855,12.542c-0.816-1.823-1.584-3.431-2.304-4.824c-0.288-0.528-0.372-1.055-0.252-1.584c0.119-0.528,0.36-0.947,0.72-1.26
				c0.36-0.312,0.816-0.456,1.368-0.432c0.552,0.025,1.116,0.324,1.692,0.9c1.008,1.008,1.847,1.861,2.52,2.556
				c0.672,0.697,1.152,1.236,1.44,1.62c0.527,0.72,0.768,1.404,0.72,2.052s-0.265,1.212-0.647,1.692h7.56
				c0.768,0,1.355,0.241,1.764,0.72c0.407,0.48,0.624,1.021,0.648,1.62c0.023,0.601-0.169,1.141-0.576,1.62
				c-0.408,0.48-1.021,0.72-1.836,0.72h-18.792c-0.816,0-1.429-0.239-1.836-0.72c-0.408-0.479-0.612-1.019-0.612-1.62
				c0-0.6,0.204-1.14,0.612-1.62c0.407-0.479,1.02-0.72,1.836-0.72h6.336C362.023,12.974,361.903,12.734,361.855,12.542z
				 M355.807,37.382c-0.816,0-1.416-0.24-1.8-0.72c-0.385-0.479-0.576-1.019-0.576-1.62c0-0.6,0.191-1.14,0.576-1.62
				c0.384-0.479,0.983-0.72,1.8-0.72h20.232c0.768,0,1.343,0.241,1.728,0.72c0.384,0.48,0.576,1.02,0.576,1.62
				c0,0.601-0.192,1.141-0.576,1.62c-0.385,0.48-0.96,0.72-1.728,0.72H355.807z M358.112,28.382
				c-0.433-1.296-0.841-2.436-1.225-3.42c-0.385-0.983-0.696-1.788-0.936-2.412c-0.192-0.432-0.216-0.839-0.072-1.224
				c0.144-0.384,0.371-0.684,0.684-0.9c0.313-0.216,0.672-0.312,1.08-0.288c0.407,0.025,0.804,0.252,1.188,0.684
				c2.016,2.16,3.479,3.913,4.392,5.256c0.624,0.864,0.78,1.705,0.469,2.52c-0.313,0.817-0.805,1.417-1.477,1.8
				c-0.673,0.385-1.416,0.457-2.231,0.216C359.167,30.374,358.543,29.63,358.112,28.382z M370.423,29.39
				c-0.432,0.529-0.876,0.817-1.332,0.864c-0.457,0.049-0.864-0.036-1.224-0.252c-0.36-0.216-0.612-0.515-0.756-0.9
				c-0.145-0.383-0.121-0.792,0.071-1.224c0.721-1.536,1.487-3.624,2.305-6.264c0.288-1.008,0.803-1.631,1.548-1.872
				c0.743-0.24,1.451-0.216,2.124,0.072c0.672,0.288,1.188,0.792,1.548,1.512c0.36,0.72,0.299,1.537-0.18,2.448
				c-0.385,0.769-0.925,1.62-1.62,2.556C372.211,27.266,371.383,28.286,370.423,29.39z"/>
			<path class="st0" d="M421.471,43.574c0,2.401-0.036,4.692-0.107,6.876c-0.072,2.185-0.265,4.237-0.576,6.156
				c-0.313,1.92-0.792,3.685-1.44,5.292c-0.647,1.608-1.548,3.012-2.7,4.212c-0.672,0.72-1.331,1.188-1.979,1.404
				s-1.2,0.252-1.656,0.108c-0.457-0.144-0.816-0.408-1.08-0.792c-0.264-0.385-0.349-0.84-0.252-1.368
				c0.096-0.72-0.3-1.344-1.188-1.872c-0.889-0.529-2.532-0.913-4.933-1.152c-0.624-0.048-1.068-0.276-1.332-0.684
				c-0.264-0.408-0.385-0.839-0.359-1.296c0.023-0.456,0.191-0.864,0.504-1.224c0.312-0.36,0.731-0.54,1.26-0.54
				c1.296,0.097,2.412,0.108,3.348,0.036c0.937-0.072,1.788-0.155,2.557-0.252c0.576-0.096,1.044-0.407,1.403-0.936
				c0.36-0.527,0.636-1.332,0.828-2.412c0.191-1.08,0.324-2.459,0.396-4.14c0.072-1.68,0.107-3.719,0.107-6.12
				c0-1.055-0.156-1.775-0.468-2.16c-0.313-0.383-0.996-0.576-2.052-0.576h-6.48c-0.336,2.784-0.912,5.364-1.728,7.74
				c-0.816,2.376-1.92,4.633-3.313,6.768c-1.393,2.136-3.107,4.176-5.147,6.12c-2.041,1.944-4.428,3.852-7.164,5.724
				c-0.673,0.479-1.272,0.671-1.8,0.576c-0.529-0.097-0.937-0.324-1.225-0.684c-0.287-0.36-0.42-0.792-0.396-1.296
				c0.023-0.504,0.228-0.925,0.612-1.26c1.967-1.728,3.695-3.409,5.184-5.04c1.487-1.631,2.76-3.372,3.816-5.22
				c1.055-1.847,1.907-3.852,2.556-6.012c0.648-2.16,1.116-4.632,1.404-7.416H389c-0.816,0-1.429-0.252-1.836-0.756
				c-0.408-0.504-0.612-1.067-0.612-1.692c0-0.623,0.204-1.188,0.612-1.692c0.407-0.504,1.02-0.756,1.836-0.756h9.36
				c0.047-0.384,0.071-0.792,0.071-1.224s0-0.864,0-1.296c0-1.199,0.384-2.1,1.152-2.7c0.768-0.6,1.595-0.888,2.484-0.864
				c0.887,0.024,1.715,0.36,2.483,1.008c0.768,0.648,1.152,1.573,1.152,2.772c0,0.385,0,0.769,0,1.152
				c0,0.385-0.025,0.769-0.072,1.152h9.937c2.063,0,3.563,0.516,4.5,1.548C421.003,39.818,421.471,41.414,421.471,43.574z
				 M397.208,25.718c0,1.152-0.372,2.016-1.116,2.592c-0.744,0.576-1.548,0.864-2.412,0.864c-0.863,0-1.668-0.288-2.412-0.864
				c-0.744-0.576-1.115-1.44-1.115-2.592V11.966c0-1.152,0.371-2.016,1.115-2.592c0.744-0.576,1.549-0.864,2.412-0.864
				c0.864,0,1.668,0.288,2.412,0.864c0.744,0.576,1.116,1.44,1.116,2.592V25.718z M414.992,8.654c1.775,0,3.119,0.504,4.031,1.512
				c0.912,1.008,1.368,2.448,1.368,4.32v11.088c0,0.912-0.336,1.717-1.008,2.412c-0.673,0.696-1.488,1.044-2.448,1.044h-15.84
				c-0.72,0-1.272-0.252-1.656-0.756c-0.385-0.504-0.575-1.067-0.575-1.692c0-0.623,0.19-1.188,0.575-1.692
				c0.384-0.504,0.937-0.756,1.656-0.756h12.384v-8.352c0-0.864-0.156-1.464-0.468-1.8c-0.313-0.335-0.804-0.504-1.476-0.504h-10.44
				c-0.72,0-1.272-0.252-1.656-0.756c-0.385-0.504-0.575-1.055-0.575-1.656c0-0.6,0.19-1.152,0.575-1.656
				c0.384-0.504,0.937-0.756,1.656-0.756H414.992z M432.919,48.614c0,1.344-0.349,2.34-1.044,2.988
				c-0.696,0.648-1.476,0.972-2.34,0.972s-1.645-0.335-2.34-1.008c-0.696-0.671-1.044-1.656-1.044-2.952V15.422
				c0-1.2,0.348-2.1,1.044-2.7c0.695-0.6,1.476-0.9,2.34-0.9s1.644,0.3,2.34,0.9c0.695,0.601,1.044,1.5,1.044,2.7V48.614z
				 M446.887,59.63c0,2.016-0.385,3.719-1.151,5.112c-0.769,1.392-1.872,2.664-3.313,3.816c-0.912,0.72-1.8,0.911-2.664,0.576
				c-0.864-0.336-1.249-0.936-1.151-1.8c0.144-1.249-0.433-2.221-1.729-2.916c-1.296-0.696-3.48-1.141-6.552-1.332
				c-0.673-0.048-1.152-0.252-1.44-0.612s-0.432-0.745-0.432-1.152s0.132-0.78,0.396-1.116c0.264-0.335,0.636-0.504,1.116-0.504
				c1.056,0,2.196-0.011,3.42-0.036c1.225-0.023,2.243-0.06,3.061-0.108c1.392-0.096,2.304-0.587,2.735-1.476
				c0.433-0.888,0.648-2.052,0.648-3.492V9.518c0-1.296,0.371-2.268,1.116-2.916c0.743-0.648,1.548-0.972,2.412-0.972
				c0.863,0,1.667,0.324,2.411,0.972s1.116,1.62,1.116,2.916V59.63z"/>
		</g>
	</g>
	<g>
		<g>
			<path class="st0" d="M74.12,60.786l-5.958-14.853c2.658-4.459,4.053-9.429,4.053-14.489C72.215,14.106,56.018,0,36.108,0
				S0,14.106,0,31.444c0,17.339,16.198,31.444,36.108,31.444c5.667,0,11.268-1.166,16.303-3.384l16.929,6.207
				c0.422,0.155,0.859,0.23,1.292,0.23c0.998,0,1.976-0.398,2.697-1.141C74.362,63.736,74.672,62.163,74.12,60.786z M60.468,46.933
				l3.538,8.821l-10.474-3.841c-0.418-0.154-0.856-0.23-1.293-0.23c-0.571,0-1.14,0.13-1.663,0.388
				c-4.38,2.162-9.383,3.304-14.469,3.304c-15.767,0-28.595-10.735-28.595-23.931c0-13.195,12.828-23.931,28.595-23.931
				c15.767,0,28.594,10.735,28.594,23.931c0,4.194-1.327,8.327-3.837,11.952C60.148,44.434,59.998,45.762,60.468,46.933z"/>
			<path class="st0" d="M22.014,27.026c-2.462,0-4.459,1.996-4.459,4.458c0,2.462,1.996,4.458,4.459,4.458
				c2.462,0,4.457-1.996,4.457-4.458C26.472,29.022,24.476,27.026,22.014,27.026z"/>
			<path class="st0" d="M36.108,27.026c-2.462,0-4.458,1.996-4.458,4.458c0,2.462,1.996,4.458,4.458,4.458
				c2.462,0,4.457-1.996,4.457-4.458C40.565,29.022,38.569,27.026,36.108,27.026z"/>
			<circle class="st0" cx="50.984" cy="31.484" r="4.458"/>
		</g>
	</g>
</g>
</svg>