<!-- Generator: Adobe Illustrator 24.0.1, SVG Export Plug-In  -->
<svg version="1.1" xmlns="http://www.w3.org/2000/svg" xmlns:xlink="http://www.w3.org/1999/xlink" x="0px" y="0px"
	 width="841.433px" height="546.258px" viewBox="0 0 841.433 546.258" style="enable-background:new 0 0 841.433 546.258;"
	 xml:space="preserve">
<style type="text/css">
	.st0{fill:#E58E8E;stroke:#1C3B94;stroke-width:2;stroke-miterlimit:10;}
	.st1{fill:#EBD084;stroke:#1C3B94;stroke-width:2;stroke-miterlimit:10;}
	.st2{fill:#9AC8EF;stroke:#1C3B94;stroke-width:2;stroke-miterlimit:10;}
	.st3{fill:none;stroke:#1C3B94;stroke-width:2;stroke-miterlimit:10;}
	.st4{fill:#1C3B94;}
	.st5{fill:#FFFFFF;stroke:#1C3B94;stroke-width:2;stroke-linecap:round;stroke-linejoin:round;stroke-miterlimit:10;}
	.st6{fill:none;stroke:#1C3B94;stroke-width:2;stroke-linecap:round;stroke-linejoin:round;stroke-miterlimit:10;}
	.st7{fill:#EFB9B9;stroke:#1C3B94;stroke-width:2;stroke-linecap:round;stroke-linejoin:round;stroke-miterlimit:10;}
	.st8{fill:none;}
	.st9{font-family:'FZLANTY_ZHUNK--GBK1-0';}
	.st10{font-size:28px;}
	.st11{letter-spacing:1;}
	.st12{font-size:50px;}
	.st13{letter-spacing:2;}
</style>
<defs>
</defs>
<g>
	<g>
		<path class="st0" d="M571.948,545.258c-40.179,0.001-80.141-9.143-117.315-27.275c-64.37-31.395-112.662-85.979-135.978-153.695
			c-9.829-28.548-14.608-57.101-14.608-87.293h73.369c0,22.235,3.371,42.382,10.61,63.406
			c34.962,101.537,146.012,155.7,247.551,120.738c49.187-16.936,88.834-52.013,111.638-98.769
			c22.804-46.756,26.036-99.594,9.1-148.781c-16.936-49.187-52.013-88.834-98.769-111.639c-46.757-22.804-99.594-26.036-148.781-9.1
			l-23.886-69.372c67.716-23.317,140.46-18.867,204.83,12.528c64.37,31.395,112.662,85.979,135.978,153.695
			c23.317,67.716,18.868,140.46-12.528,204.83s-85.979,112.662-153.695,135.978C630.854,540.362,601.341,545.257,571.948,545.258z"
			/>
	</g>
	<g>
		<path class="st1" d="M429.736,144.173l-53.658-50.038c31.105-33.356,65.677-55.807,108.801-70.656l23.886,69.372
			C477.012,103.784,452.639,119.612,429.736,144.173z"/>
	</g>
	<g>
		<path class="st2" d="M377.416,276.995h-73.369c0-36.037,5.807-68.297,17.753-98.624c11.946-30.326,29.7-57.88,54.277-84.236
			l53.659,50.038C393.552,182.975,377.416,223.939,377.416,276.995z"/>
	</g>
</g>
<g>
	<polyline class="st3" points="333.381,399.783 302.47,430.695 175.104,430.695 	"/>
	<line class="st3" x1="306.42" y1="238.672" x2="170.553" y2="238.672"/>
	<polyline class="st3" points="170.553,47.095 381.031,46.44 402.255,67.664 	"/>
	<g>
		<g>
			<path class="st4" d="M176.782,401.143c-0.366-0.147-0.547-0.585-0.547-1.313v-11.266c0-0.438-0.183-0.656-0.547-0.656h-1.422
				c-0.511-0.072-0.803-0.438-0.875-1.094c0.072-0.802,0.4-1.239,0.984-1.313h2.734c0.947,0,1.422,0.511,1.422,1.531v10.063
				c0,0.146,0.036,0.256,0.109,0.328c0.145,0,0.255-0.036,0.328-0.109c0.291-0.291,0.766-0.656,1.422-1.094
				c0.509-0.364,0.947-0.291,1.313,0.219c0.438,0.656,0.328,1.313-0.328,1.969c-0.948,0.875-2.042,1.712-3.281,2.516
				C177.583,401.287,177.146,401.361,176.782,401.143z M179.297,382.549c-0.656,0.365-1.241,0.256-1.75-0.328
				c-0.438-0.656-1.203-1.713-2.297-3.172c-0.292-0.656-0.183-1.203,0.328-1.641c0.802-0.364,1.384-0.219,1.75,0.438
				c0.802,0.948,1.603,1.933,2.406,2.953C180.099,381.602,179.953,382.185,179.297,382.549z M181.813,391.518
				c-0.438-0.51-0.511-1.057-0.219-1.641c0.947-1.166,1.786-2.406,2.516-3.719c0.364-0.656,0.875-0.875,1.531-0.656
				c0.656,0.365,0.837,0.839,0.547,1.422l-0.109,0.109c0,0.073-0.038,0.146-0.109,0.219h12.141c0.583,0.073,0.911,0.401,0.984,0.984
				c-0.073,0.656-0.402,1.021-0.984,1.094h-6.344v3.172h7.547c0.656,0.073,1.02,0.401,1.094,0.984c0,0.656-0.366,1.021-1.094,1.094
				h-7.547v5.141h3.719c0.364,0,0.547-0.184,0.547-0.547v-2.297c0.072-0.656,0.473-1.021,1.203-1.094
				c0.728,0.073,1.13,0.475,1.203,1.203v3.281c0,0.946-0.475,1.422-1.422,1.422H184c-0.875,0-1.35-0.476-1.422-1.422v-3.281
				c0.072-0.729,0.473-1.13,1.203-1.203c0.728,0.073,1.13,0.438,1.203,1.094v2.297c0,0.363,0.181,0.547,0.547,0.547h3.828v-5.141
				h-7.656c-0.656-0.072-0.984-0.438-0.984-1.094s0.328-0.984,0.984-0.984h7.656v-3.172h-4.594
				c-0.438,0.656-0.875,1.276-1.313,1.859C183.088,391.7,182.541,391.81,181.813,391.518z M182.688,380.361
				c-0.73,0-1.167-0.328-1.313-0.984c-0.147-0.656,0.145-1.057,0.875-1.203c6.125-0.146,11.411-0.364,15.859-0.656
				c0.656-0.072,1.056,0.219,1.203,0.875c0.072,0.584-0.219,0.984-0.875,1.203c-2.772,0.219-7.328,0.438-13.672,0.656
				C183.817,380.325,183.125,380.361,182.688,380.361z M185.094,385.283c-0.73,0.292-1.241,0.109-1.531-0.547
				c-0.073-0.146-0.219-0.474-0.438-0.984c-0.292-0.438-0.475-0.729-0.547-0.875c-0.219-0.656-0.038-1.13,0.547-1.422
				c0.802-0.219,1.348-0.036,1.641,0.547c0,0.073,0.072,0.183,0.219,0.328c0.364,0.803,0.619,1.313,0.766,1.531
				C185.896,384.518,185.677,384.992,185.094,385.283z M191.11,385.174c-0.803,0.219-1.313,0.037-1.531-0.547
				c-0.147-0.438-0.438-1.203-0.875-2.297c-0.147-0.656,0.109-1.094,0.766-1.313c0.728-0.219,1.239-0.036,1.531,0.547
				c0.145,0.438,0.438,1.203,0.875,2.297C192.021,384.518,191.766,384.955,191.11,385.174z M194.828,385.721
				c-0.656-0.364-0.839-0.875-0.547-1.531c0.438-0.51,1.02-1.422,1.75-2.734c0.291-0.583,0.837-0.766,1.641-0.547
				c0.583,0.292,0.766,0.803,0.547,1.531c-0.073,0.146-0.292,0.475-0.656,0.984c-0.584,0.948-0.984,1.568-1.203,1.859
				C195.994,385.794,195.485,385.939,194.828,385.721z"/>
			<path class="st4" d="M203.994,382.111c-0.656-0.072-1.022-0.438-1.094-1.094c0.072-0.729,0.438-1.094,1.094-1.094h11.484
				c-0.366-0.802-0.656-1.531-0.875-2.188c-0.292-0.729,0-1.239,0.875-1.531c0.728-0.219,1.275,0.037,1.641,0.766
				c0.072,0.146,0.181,0.365,0.328,0.656c0.364,0.948,0.619,1.568,0.766,1.859c0,0.146,0,0.292,0,0.438h10.391
				c0.728,0,1.094,0.365,1.094,1.094c-0.073,0.656-0.438,1.021-1.094,1.094H203.994z M206.619,386.377
				c-0.584-0.072-0.913-0.4-0.984-0.984c0.072-0.583,0.4-0.911,0.984-0.984h19.469c0.656,0.073,1.021,0.401,1.094,0.984
				c-0.073,0.584-0.438,0.912-1.094,0.984H206.619z M206.619,390.643c-0.584-0.072-0.913-0.4-0.984-0.984
				c0.072-0.583,0.4-0.911,0.984-0.984h19.469c0.656,0.073,1.021,0.401,1.094,0.984c-0.073,0.584-0.438,0.912-1.094,0.984H206.619z
				 M207.603,401.799c-0.948,0-1.422-0.512-1.422-1.531v-5.797c0-1.021,0.474-1.531,1.422-1.531h17.391
				c1.021,0,1.531,0.511,1.531,1.531v5.797c0,1.02-0.511,1.531-1.531,1.531H207.603z M208.697,395.674v3.281
				c0,0.438,0.219,0.656,0.656,0.656h13.891c0.438,0,0.656-0.219,0.656-0.656v-3.172c0-0.438-0.219-0.656-0.656-0.656h-13.891
				C208.916,395.127,208.697,395.31,208.697,395.674z"/>
			<path class="st4" d="M183.782,468.117h-7.875c-1.094-0.072-1.678-0.583-1.75-1.531c0-0.51,0.255-1.166,0.766-1.969l7.656-12.578
				c0.656-1.094,1.348-1.641,2.078-1.641c1.166-0.072,1.712,0.729,1.641,2.406v12.906h0.984c0.947-0.072,1.384,0.328,1.313,1.203
				c0.072,0.875-0.366,1.276-1.313,1.203h-0.984v3.938c0.072,0.946-0.328,1.384-1.203,1.313c-0.875,0-1.313-0.438-1.313-1.313
				V468.117z M177,465.711h6.781v-11.047L177,465.711z"/>
			<path class="st4" d="M193.056,456.523c0.291-3.791,2.442-5.833,6.453-6.125c3.938,0.292,6.052,2.334,6.344,6.125
				c0,1.969-0.766,3.609-2.297,4.922c1.896,1.24,2.88,2.99,2.953,5.25c-0.219,4.229-2.553,6.453-7,6.672
				c-4.448-0.147-6.745-2.369-6.891-6.672c0-2.188,0.984-3.938,2.953-5.25C193.894,460.279,193.056,458.639,193.056,456.523z
				 M195.025,466.695c0.146,2.698,1.641,4.12,4.484,4.266c2.844-0.146,4.337-1.567,4.484-4.266c-0.219-2.552-1.714-3.9-4.484-4.047
				C196.738,462.795,195.244,464.144,195.025,466.695z M195.463,456.523c0.219,2.261,1.567,3.5,4.047,3.719
				c2.478-0.146,3.755-1.385,3.828-3.719c-0.073-2.333-1.35-3.572-3.828-3.719C196.956,452.951,195.608,454.19,195.463,456.523z"/>
			<path class="st4" d="M211.191,456.523c0.291-3.791,2.442-5.833,6.453-6.125c3.938,0.292,6.052,2.334,6.344,6.125
				c0,1.969-0.766,3.609-2.297,4.922c1.895,1.24,2.88,2.99,2.953,5.25c-0.219,4.229-2.553,6.453-7,6.672
				c-4.448-0.147-6.745-2.369-6.891-6.672c0-2.188,0.984-3.938,2.953-5.25C212.028,460.279,211.191,458.639,211.191,456.523z
				 M213.16,466.695c0.145,2.698,1.641,4.12,4.484,4.266c2.844-0.146,4.337-1.567,4.484-4.266c-0.219-2.552-1.714-3.9-4.484-4.047
				C214.872,462.795,213.378,464.144,213.16,466.695z M213.597,456.523c0.219,2.261,1.567,3.5,4.047,3.719
				c2.478-0.146,3.755-1.385,3.828-3.719c-0.073-2.333-1.35-3.572-3.828-3.719C215.091,452.951,213.742,454.19,213.597,456.523z"/>
			<path class="st4" d="M231.732,457.398c-0.73,0.438-1.35,0.401-1.859-0.109c-0.511-0.656-0.475-1.239,0.109-1.75
				c2.77-2.041,4.922-4.192,6.453-6.453c0.583-0.583,1.203-0.729,1.859-0.438c0.728,0.292,0.911,0.729,0.547,1.313
				c-0.292,0.438-0.62,0.875-0.984,1.313h12.031c0.728,0.073,1.13,0.438,1.203,1.094c0,0.729-0.256,1.313-0.766,1.75
				c-1.823,1.604-3.756,2.953-5.797,4.047c2.406,0.729,5.395,1.313,8.969,1.75c0.728,0.219,1.056,0.693,0.984,1.422
				c-0.219,0.656-0.803,0.948-1.75,0.875c-4.448-0.583-8.131-1.458-11.047-2.625c-2.698,1.167-6.672,2.188-11.922,3.063
				c-0.875,0.146-1.459-0.109-1.75-0.766c-0.073-0.875,0.219-1.349,0.875-1.422c4.375-0.656,7.728-1.422,10.063-2.297
				c-1.531-0.802-2.953-1.932-4.266-3.391c-0.438,0.438-1.094,1.021-1.969,1.75C232.278,456.889,231.95,457.18,231.732,457.398z
				 M230.747,473.367c-0.656,0.363-1.241,0.254-1.75-0.328c-0.438-0.585-0.366-1.094,0.219-1.531
				c1.677-0.947,3.681-2.297,6.016-4.047c0.656-0.364,1.239-0.328,1.75,0.109c0.509,0.656,0.473,1.203-0.109,1.641
				C235.631,470.159,233.591,471.545,230.747,473.367z M230.2,466.148c-0.656-0.072-1.022-0.438-1.094-1.094
				c0.072-0.729,0.438-1.13,1.094-1.203h10.172v-1.531c0.072-0.802,0.509-1.239,1.313-1.313c0.802,0.073,1.239,0.511,1.313,1.313
				v1.531h9.406c0.656,0.073,1.02,0.475,1.094,1.203c-0.073,0.656-0.438,1.021-1.094,1.094h-9.406v4.813
				c0.145,2.551-1.022,3.79-3.5,3.719c-0.147,0-0.511,0-1.094,0c-0.73,0.071-1.241,0.109-1.531,0.109
				c-0.73,0-1.203-0.366-1.422-1.094c0-0.804,0.328-1.241,0.984-1.313h1.969c1.458,0.145,2.114-0.512,1.969-1.969v-4.266H230.2z
				 M236.325,453.352c1.603,1.531,3.391,2.771,5.359,3.719c1.969-0.875,3.791-1.969,5.469-3.281
				c0.145-0.072,0.181-0.146,0.109-0.219c-0.073-0.146-0.183-0.219-0.328-0.219H236.325z M251.966,473.148
				c-0.219-0.147-0.62-0.402-1.203-0.766c-2.406-1.531-4.084-2.552-5.031-3.063c-0.438-0.438-0.511-0.947-0.219-1.531
				c0.509-0.438,1.13-0.51,1.859-0.219c1.094,0.584,2.844,1.604,5.25,3.063c0.438,0.292,0.728,0.475,0.875,0.547
				c0.583,0.511,0.692,1.056,0.328,1.641C253.314,473.477,252.694,473.586,251.966,473.148z"/>
		</g>
	</g>
	<g>
		<path class="st4" d="M179.078,24.938c-1.531,0.875-2.406,0.473-2.625-1.203V13.016c0-0.291-0.183-0.438-0.547-0.438h-1.422
			c-0.656-0.072-1.022-0.474-1.094-1.203c0.072-0.729,0.473-1.13,1.203-1.203h2.734c0.947,0.146,1.458,0.656,1.531,1.531v9.953
			c0.072,0.219,0.181,0.292,0.328,0.219c0.145-0.146,0.4-0.328,0.766-0.547c0.364-0.291,0.619-0.474,0.766-0.547
			c0.583-0.364,1.094-0.291,1.531,0.219c0.438,0.584,0.364,1.131-0.219,1.641C181.01,23.516,180.025,24.281,179.078,24.938z
			 M179.844,7.109c-0.73,0.438-1.35,0.328-1.859-0.328c-0.584-0.802-1.422-1.859-2.516-3.172c-0.438-0.656-0.328-1.203,0.328-1.641
			s1.239-0.328,1.75,0.328c0.364,0.365,1.02,1.094,1.969,2.188c0.291,0.365,0.509,0.62,0.656,0.766
			C180.61,6.053,180.5,6.672,179.844,7.109z M183.016,14.656c-0.656-0.072-1.022-0.4-1.094-0.984
			c0.072-0.729,0.438-1.094,1.094-1.094h15.203c0.728,0,1.094,0.365,1.094,1.094c-0.073,0.584-0.438,0.912-1.094,0.984h-6.344
			c0,1.167-0.109,2.151-0.328,2.953h7.547c0.656,0.073,1.02,0.438,1.094,1.094c0,0.656-0.366,1.021-1.094,1.094h-6.781
			c1.458,2.406,3.791,4.084,7,5.031c0.728,0.363,1.02,0.946,0.875,1.75c-0.366,0.656-0.984,0.875-1.859,0.656
			c-3.719-1.313-6.344-3.427-7.875-6.344c-1.167,2.698-3.828,4.884-7.984,6.563c-0.875,0.219-1.495-0.038-1.859-0.766
			c-0.147-0.73,0.109-1.241,0.766-1.531c3.864-1.385,6.234-3.172,7.109-5.359h-6.125c-0.656-0.072-1.022-0.438-1.094-1.094
			c0.072-0.656,0.438-1.021,1.094-1.094h6.781c0.145-0.802,0.219-1.786,0.219-2.953H183.016z M184.547,10.281
			c-0.875-0.146-1.386-0.656-1.531-1.531V3.719c0.072-0.875,0.583-1.385,1.531-1.531h12.25c0.947,0.073,1.458,0.584,1.531,1.531
			V8.75c-0.147,0.948-0.656,1.459-1.531,1.531H184.547z M195.813,7.656V4.922c0-0.364-0.147-0.547-0.438-0.547h-9.297
			c-0.366,0-0.547,0.183-0.547,0.547v2.734c0,0.292,0.181,0.438,0.547,0.438h9.297C195.666,8.094,195.813,7.948,195.813,7.656z"/>
		<path class="st4" d="M206.728,26.031c-1.022,0-1.531-0.547-1.531-1.641V4.375c0-1.094,0.509-1.641,1.531-1.641h21
			c0.728,0.073,1.13,0.511,1.203,1.313c-0.073,0.729-0.475,1.131-1.203,1.203h-19.25c-0.438,0-0.694,0.256-0.766,0.766V22.75
			c0,0.438,0.291,0.693,0.875,0.766h19.578c0.728,0.073,1.13,0.511,1.203,1.313c-0.073,0.728-0.475,1.129-1.203,1.203H206.728z
			 M210.885,21.984c-0.803,0.365-1.459,0.219-1.969-0.438c-0.366-0.729-0.219-1.313,0.438-1.75c2.114-1.313,4.556-3.135,7.328-5.469
			c-2.334-2.114-4.413-3.9-6.234-5.359c-0.584-0.51-0.656-1.094-0.219-1.75c0.583-0.51,1.203-0.547,1.859-0.109
			c2.114,1.75,4.337,3.573,6.672,5.469c2.259-2.041,4.083-3.864,5.469-5.469c0.728-0.51,1.384-0.547,1.969-0.109
			c0.438,0.584,0.438,1.167,0,1.75c-1.167,1.386-3.026,3.209-5.578,5.469c2.916,2.479,4.958,4.266,6.125,5.359
			c0.583,0.584,0.656,1.276,0.219,2.078c-0.511,0.584-1.167,0.656-1.969,0.219c-0.292-0.219-0.729-0.619-1.313-1.203
			c-2.116-2.041-3.792-3.609-5.031-4.703C215.441,18.667,212.853,20.672,210.885,21.984z"/>
		<path class="st4" d="M183.782,92.677h-7.875c-1.094-0.071-1.678-0.583-1.75-1.531c0-0.509,0.255-1.165,0.766-1.969l7.656-12.578
			c0.656-1.094,1.348-1.641,2.078-1.641c1.166-0.071,1.712,0.729,1.641,2.406v12.906h0.984c0.947-0.071,1.384,0.328,1.313,1.203
			c0.072,0.875-0.366,1.276-1.313,1.203h-0.984v3.938c0.072,0.947-0.328,1.385-1.203,1.313c-0.875,0-1.313-0.438-1.313-1.313V92.677
			z M177,90.271h6.781V79.224L177,90.271z"/>
		<path class="st4" d="M197.213,95.958l6.453-18.047h-9.625c-1.022,0.073-1.495-0.29-1.422-1.094
			c-0.073-0.875,0.4-1.313,1.422-1.313h10.281c1.313,0,1.969,0.547,1.969,1.641c0.072,0.292,0,0.656-0.219,1.094l-6.453,18.484
			c-0.366,1.021-0.913,1.422-1.641,1.203C197.103,97.708,196.847,97.052,197.213,95.958z"/>
		<path class="st4" d="M213.597,81.958c-0.73,0.438-1.35,0.401-1.859-0.109c-0.511-0.656-0.475-1.239,0.109-1.75
			c2.77-2.04,4.922-4.192,6.453-6.453c0.583-0.583,1.203-0.728,1.859-0.438c0.728,0.292,0.911,0.729,0.547,1.313
			c-0.292,0.438-0.62,0.875-0.984,1.313h12.031c0.728,0.073,1.13,0.438,1.203,1.094c0,0.729-0.256,1.313-0.766,1.75
			c-1.823,1.604-3.756,2.953-5.797,4.047c2.406,0.729,5.395,1.313,8.969,1.75c0.728,0.219,1.056,0.694,0.984,1.422
			c-0.219,0.656-0.803,0.948-1.75,0.875c-4.448-0.583-8.131-1.458-11.047-2.625c-2.698,1.167-6.672,2.188-11.922,3.063
			c-0.875,0.147-1.459-0.109-1.75-0.766c-0.073-0.875,0.219-1.349,0.875-1.422c4.375-0.656,7.728-1.422,10.063-2.297
			c-1.531-0.802-2.953-1.931-4.266-3.391c-0.438,0.438-1.094,1.022-1.969,1.75C214.144,81.449,213.816,81.739,213.597,81.958z
			 M212.613,97.927c-0.656,0.364-1.241,0.255-1.75-0.328c-0.438-0.584-0.366-1.094,0.219-1.531c1.677-0.946,3.681-2.297,6.016-4.047
			c0.656-0.364,1.239-0.328,1.75,0.109c0.509,0.656,0.473,1.203-0.109,1.641C217.497,94.719,215.457,96.105,212.613,97.927z
			 M212.066,90.708c-0.656-0.071-1.022-0.438-1.094-1.094c0.072-0.728,0.438-1.13,1.094-1.203h10.172V86.88
			c0.072-0.802,0.509-1.239,1.313-1.313c0.802,0.073,1.239,0.511,1.313,1.313v1.531h9.406c0.656,0.073,1.02,0.476,1.094,1.203
			c-0.073,0.656-0.438,1.022-1.094,1.094h-9.406v4.813c0.145,2.552-1.022,3.791-3.5,3.719c-0.147,0-0.511,0-1.094,0
			c-0.73,0.072-1.241,0.109-1.531,0.109c-0.73,0-1.203-0.365-1.422-1.094c0-0.803,0.328-1.24,0.984-1.313h1.969
			c1.458,0.146,2.114-0.511,1.969-1.969v-4.266H212.066z M218.191,77.911c1.603,1.531,3.391,2.772,5.359,3.719
			c1.969-0.875,3.791-1.969,5.469-3.281c0.145-0.071,0.181-0.146,0.109-0.219c-0.073-0.146-0.183-0.219-0.328-0.219H218.191z
			 M233.832,97.708c-0.219-0.146-0.62-0.401-1.203-0.766c-2.406-1.531-4.084-2.552-5.031-3.063
			c-0.438-0.438-0.511-0.946-0.219-1.531c0.509-0.438,1.13-0.509,1.859-0.219c1.094,0.585,2.844,1.604,5.25,3.063
			c0.438,0.292,0.728,0.476,0.875,0.547c0.583,0.511,0.692,1.057,0.328,1.641C235.18,98.036,234.56,98.146,233.832,97.708z"/>
	</g>
	<g>
		<g>
			<path class="st4" d="M174.704,197.873c-0.584-0.072-0.913-0.364-0.984-0.875c0-0.583,0.328-0.875,0.984-0.875h10.938v-1.203
				c0.072-0.729,0.473-1.13,1.203-1.203c0.802,0.073,1.239,0.475,1.313,1.203v1.203h11.156c0.509,0.073,0.802,0.365,0.875,0.875
				c-0.073,0.511-0.366,0.803-0.875,0.875h-11.156v1.641h7.547c0.875,0,1.313,0.401,1.313,1.203v2.734
				c0,0.803-0.438,1.203-1.313,1.203h-7.547v1.641h7.984c0.947,0,1.422,0.475,1.422,1.422v2.297h1.859
				c0.583,0,0.875,0.292,0.875,0.875c-0.073,0.511-0.366,0.803-0.875,0.875h-1.859v2.297c0,0.875-0.475,1.313-1.422,1.313h-7.984
				v0.766c0.145,2.479-1.058,3.755-3.609,3.828c-0.219,0-0.694,0-1.422,0c-0.803,0.072-1.386,0.109-1.75,0.109
				c-0.73-0.073-1.167-0.475-1.313-1.203c0.072-0.584,0.4-0.912,0.984-0.984c1.02,0,1.895,0,2.625,0
				c1.458,0.146,2.114-0.511,1.969-1.969v-0.547h-9.734c-0.511-0.072-0.803-0.364-0.875-0.875c0.072-0.438,0.364-0.692,0.875-0.766
				h9.734v-1.969h-11.156c-0.511-0.072-0.803-0.364-0.875-0.875c0-0.583,0.291-0.875,0.875-0.875h11.156v-2.078h-9.406
				c-0.438-0.072-0.694-0.328-0.766-0.766c0.072-0.51,0.328-0.802,0.766-0.875h9.406v-1.641h-7.438
				c-0.875,0-1.313-0.438-1.313-1.313v-2.516c0-0.875,0.438-1.313,1.313-1.313h7.438v-1.641H174.704z M179.297,201.482v1.203
				c0,0.219,0.145,0.365,0.438,0.438h5.906v-2.078h-5.906C179.443,201.045,179.297,201.191,179.297,201.482z M194.172,201.045
				h-6.016v2.078h6.016c0.291-0.072,0.438-0.219,0.438-0.438v-1.203C194.61,201.191,194.463,201.045,194.172,201.045z
				 M194.501,207.936h-6.344v2.078h7v-1.422C195.157,208.154,194.938,207.936,194.501,207.936z M194.501,213.732
				c0.438,0,0.656-0.219,0.656-0.656v-1.313h-7v1.969H194.501z"/>
			<path class="st4" d="M204.104,212.529c-0.656-0.072-1.022-0.474-1.094-1.203c0.072-0.729,0.438-1.13,1.094-1.203h12.578
				c0.072-0.146,0.109-0.291,0.109-0.438c0.656-2.406,0.984-5.177,0.984-8.313c0.072-0.729,0.509-1.13,1.313-1.203
				c0.875,0.073,1.348,0.475,1.422,1.203c-0.147,3.428-0.438,6.234-0.875,8.422c-0.074,0.073-0.109,0.183-0.109,0.328h9.188
				c0.728,0.073,1.129,0.475,1.203,1.203c-0.074,0.729-0.475,1.131-1.203,1.203h-9.953l-0.109,0.219
				c0,0.073-0.109,0.256-0.328,0.547c0.438,0.219,1.166,0.547,2.188,0.984c3.645,1.531,6.27,2.625,7.875,3.281
				c0.656,0.438,0.837,1.021,0.547,1.75c-0.438,0.656-1.022,0.838-1.75,0.547c-4.084-1.896-7.475-3.427-10.172-4.594
				c-1.75,2.188-5.616,3.864-11.594,5.031c-1.022,0.291-1.714,0.036-2.078-0.766c-0.219-0.948,0.036-1.531,0.766-1.75
				c6.634-1.094,10.5-2.844,11.594-5.25H204.104z M227.401,203.342c-0.803,0-1.241-0.4-1.313-1.203v-2.188
				c0-0.364-0.219-0.547-0.656-0.547h-18.266c-0.438,0-0.656,0.183-0.656,0.547v2.188c-0.074,0.729-0.511,1.131-1.313,1.203
				c-0.803,0-1.203-0.438-1.203-1.313v-3.391c0.072-0.875,0.583-1.349,1.531-1.422h10.063c-0.147-0.291-0.366-0.692-0.656-1.203
				c-0.219-0.51-0.366-0.838-0.438-0.984c-0.292-0.875,0.072-1.385,1.094-1.531c0.583-0.146,1.056,0.073,1.422,0.656
				c0.145,0.219,0.364,0.656,0.656,1.313c0.291,0.584,0.473,1.021,0.547,1.313c0.072,0.073,0.109,0.219,0.109,0.438h8.75
				c0.947,0.073,1.458,0.547,1.531,1.422v3.281C228.676,202.795,228.276,203.27,227.401,203.342z M211.541,209.357
				c-1.605-0.875-3.209-1.713-4.813-2.516c-0.511-0.364-0.621-0.838-0.328-1.422c0.438-0.583,0.984-0.729,1.641-0.438
				c0.291,0.146,0.766,0.401,1.422,0.766c1.676,0.803,2.806,1.35,3.391,1.641c0.656,0.365,0.801,0.912,0.438,1.641
				C212.926,209.54,212.343,209.649,211.541,209.357z M214.166,205.311c-0.803-0.364-2.225-1.13-4.266-2.297
				c-0.219-0.072-0.366-0.146-0.438-0.219c-0.584-0.364-0.73-0.838-0.438-1.422c0.438-0.583,0.947-0.729,1.531-0.438
				c0.583,0.219,1.712,0.766,3.391,1.641c0.656,0.365,1.129,0.62,1.422,0.766c0.583,0.438,0.728,0.948,0.438,1.531
				C215.369,205.457,214.823,205.603,214.166,205.311z"/>
			<path class="st4" d="M179.079,288.801l6.453-18.047h-9.625c-1.022,0.073-1.495-0.291-1.422-1.094
				c-0.073-0.875,0.4-1.313,1.422-1.313h10.281c1.313,0,1.969,0.547,1.969,1.641c0.072,0.292,0,0.656-0.219,1.094l-6.453,18.484
				c-0.366,1.02-0.913,1.422-1.641,1.203C178.969,290.551,178.713,289.895,179.079,288.801z"/>
			<path class="st4" d="M201.916,285.52h-7.875c-1.094-0.072-1.678-0.583-1.75-1.531c0-0.51,0.254-1.166,0.766-1.969l7.656-12.578
				c0.656-1.094,1.348-1.641,2.078-1.641c1.166-0.072,1.712,0.729,1.641,2.406v12.906h0.984c0.947-0.072,1.384,0.328,1.313,1.203
				c0.072,0.875-0.366,1.276-1.313,1.203h-0.984v3.938c0.072,0.946-0.328,1.384-1.203,1.313c-0.875,0-1.313-0.438-1.313-1.313
				V285.52z M195.135,283.113h6.781v-11.047L195.135,283.113z"/>
			<path class="st4" d="M213.597,274.801c-0.73,0.438-1.35,0.401-1.859-0.109c-0.511-0.656-0.475-1.239,0.109-1.75
				c2.77-2.041,4.922-4.192,6.453-6.453c0.583-0.583,1.203-0.729,1.859-0.438c0.728,0.292,0.911,0.729,0.547,1.313
				c-0.292,0.438-0.62,0.875-0.984,1.313h12.031c0.728,0.073,1.13,0.438,1.203,1.094c0,0.729-0.256,1.313-0.766,1.75
				c-1.823,1.604-3.756,2.953-5.797,4.047c2.406,0.729,5.395,1.313,8.969,1.75c0.728,0.219,1.056,0.693,0.984,1.422
				c-0.219,0.656-0.803,0.948-1.75,0.875c-4.448-0.583-8.131-1.458-11.047-2.625c-2.698,1.167-6.672,2.188-11.922,3.063
				c-0.875,0.146-1.459-0.109-1.75-0.766c-0.073-0.875,0.219-1.349,0.875-1.422c4.375-0.656,7.728-1.422,10.063-2.297
				c-1.531-0.802-2.953-1.932-4.266-3.391c-0.438,0.438-1.094,1.021-1.969,1.75C214.144,274.291,213.816,274.582,213.597,274.801z
				 M212.613,290.77c-0.656,0.363-1.241,0.254-1.75-0.328c-0.438-0.585-0.366-1.094,0.219-1.531
				c1.677-0.947,3.681-2.297,6.016-4.047c0.656-0.364,1.239-0.328,1.75,0.109c0.509,0.656,0.473,1.203-0.109,1.641
				C217.497,287.562,215.457,288.947,212.613,290.77z M212.066,283.551c-0.656-0.072-1.022-0.438-1.094-1.094
				c0.072-0.729,0.438-1.13,1.094-1.203h10.172v-1.531c0.072-0.802,0.509-1.239,1.313-1.313c0.802,0.073,1.239,0.511,1.313,1.313
				v1.531h9.406c0.656,0.073,1.02,0.475,1.094,1.203c-0.073,0.656-0.438,1.021-1.094,1.094h-9.406v4.813
				c0.145,2.551-1.022,3.79-3.5,3.719c-0.147,0-0.511,0-1.094,0c-0.73,0.071-1.241,0.109-1.531,0.109
				c-0.73,0-1.203-0.366-1.422-1.094c0-0.804,0.328-1.241,0.984-1.313h1.969c1.458,0.145,2.114-0.512,1.969-1.969v-4.266H212.066z
				 M218.191,270.754c1.603,1.531,3.391,2.771,5.359,3.719c1.969-0.875,3.791-1.969,5.469-3.281
				c0.145-0.072,0.181-0.146,0.109-0.219c-0.073-0.146-0.183-0.219-0.328-0.219H218.191z M233.832,290.551
				c-0.219-0.147-0.62-0.402-1.203-0.766c-2.406-1.531-4.084-2.552-5.031-3.063c-0.438-0.438-0.511-0.947-0.219-1.531
				c0.509-0.438,1.13-0.51,1.859-0.219c1.094,0.584,2.844,1.604,5.25,3.063c0.438,0.292,0.728,0.475,0.875,0.547
				c0.583,0.511,0.692,1.056,0.328,1.641C235.18,290.879,234.56,290.988,233.832,290.551z"/>
		</g>
	</g>
	<g>
		<g>
			<path class="st5" d="M40.82,443.67c-0.397,0-0.789,0.018-1.183,0.03v-34.196h96.077v13.048l13.641,6.688l-13.641,6.804v41.417
				H78.969C76.673,458.425,60.475,443.67,40.82,443.67z"/>
			<path class="st0" d="M78.969,477.46c0.184,1.525,0.29,3.074,0.29,4.649c0,21.229-17.21,38.439-38.439,38.439
				s-38.439-17.21-38.439-38.439c0-20.833,16.576-37.782,37.256-38.409"/>
			<path class="st0" d="M39.637,443.7c0.394-0.012,0.786-0.03,1.183-0.03c19.655,0,35.853,14.755,38.15,33.791"/>
		</g>
		<line class="st6" x1="119.256" y1="425.523" x2="54.315" y2="425.523"/>
		<line class="st6" x1="119.256" y1="443.482" x2="54.315" y2="443.482"/>
		<line class="st6" x1="119.256" y1="461.441" x2="74.736" y2="461.441"/>
		<g>
			<line class="st7" x1="25.117" y1="466.406" x2="56.523" y2="497.812"/>
			<line class="st7" x1="56.523" y1="466.406" x2="25.117" y2="497.812"/>
		</g>
	</g>
	<g>
		<g>
			<g>
				<path class="st5" d="M134.333,41.487V28.439H38.256v34.196c0.394-0.012,0.786-0.03,1.183-0.03
					c19.655,0,35.853,14.755,38.15,33.791h56.744V54.979l13.641-6.804L134.333,41.487z"/>
				<path class="st1" d="M38.256,62.635C17.575,63.262,1,80.211,1,101.044c0,21.229,17.21,38.439,38.439,38.439
					s38.439-17.21,38.439-38.439c0-1.575-0.106-3.124-0.29-4.649"/>
				<path class="st1" d="M77.589,96.396c-2.296-19.036-18.495-33.791-38.15-33.791c-0.397,0-0.789,0.018-1.183,0.03"/>
			</g>
			<line class="st6" x1="117.875" y1="44.459" x2="52.935" y2="44.459"/>
			<line class="st6" x1="117.875" y1="62.417" x2="52.935" y2="62.417"/>
			<line class="st6" x1="117.875" y1="80.376" x2="72.22" y2="80.376"/>
			<line class="st6" x1="38.872" y1="122.05" x2="38.872" y2="127.673"/>
			<polyline class="st6" points="28.904,91.878 28.904,80.376 51.418,80.376 51.418,94.484 38.872,100.496 38.872,113.093 			"/>
		</g>
	</g>
	<g>
		<g>
			<g>
				<path class="st5" d="M134.333,229.952v-13.047H38.256V251.1c0.394-0.012,0.786-0.03,1.183-0.03
					c19.655,0,35.853,14.755,38.15,33.791h56.744v-41.417l13.641-6.804L134.333,229.952z"/>
				<path class="st2" d="M38.256,251.1C17.575,251.726,1,268.676,1,289.509c0,21.229,17.21,38.439,38.439,38.439
					s38.439-17.21,38.439-38.439c0-1.575-0.106-3.124-0.29-4.649"/>
				<path class="st2" d="M77.589,284.86c-2.296-19.036-18.495-33.791-38.15-33.791c-0.397,0-0.789,0.018-1.183,0.03"/>
			</g>
			<line class="st6" x1="117.875" y1="232.923" x2="52.935" y2="232.923"/>
			<line class="st6" x1="117.875" y1="250.882" x2="52.935" y2="250.882"/>
			<line class="st6" x1="117.875" y1="268.841" x2="72.22" y2="268.841"/>
		</g>
	</g>
	<polyline class="st2" points="16.013,289.524 33.968,307.479 65.417,276.029 	"/>
</g>
<g>
	<rect x="458.878" y="220.352" class="st8" width="226.723" height="158.298"/>
	<path class="st4" d="M472.005,253.165c-1.303,0.521-2.148,0.131-2.539-1.172c-0.522-1.3-0.195-2.276,0.977-2.93
		c3.125-1.563,5.402-2.667,6.836-3.32v-0.586v-15.625c0.128-1.563,1.041-2.408,2.734-2.539h15.625
		c-0.131-0.26-0.262-0.65-0.391-1.172c-0.262-0.519-0.458-0.909-0.586-1.172c-0.391-1.432,0.195-2.344,1.758-2.734
		s2.603,0,3.125,1.172c0.128,0.653,0.455,1.693,0.977,3.125c0.128,0.391,0.195,0.653,0.195,0.781h14.648
		c1.041,0.131,1.626,0.781,1.758,1.953c-0.131,1.172-0.717,1.825-1.758,1.953h-32.813c-0.653,0-0.977,0.326-0.977,0.977v13.672
		c0.259,9.375-1.889,17.06-6.445,23.047c-0.913,1.041-2.02,1.172-3.32,0.391c-0.913-0.781-1.044-1.825-0.391-3.125
		c3.644-4.425,5.533-9.635,5.664-15.625C474.999,251.538,473.305,252.515,472.005,253.165z M474.935,243.79
		c-1.044,0.131-1.758-0.26-2.148-1.172c-0.131-0.391-0.327-1.041-0.586-1.953c-0.913-3.125-1.63-5.338-2.148-6.641
		c-0.131-1.041,0.259-1.69,1.172-1.953c1.041-0.26,1.822,0.131,2.344,1.172c0.259,0.781,0.65,2.084,1.172,3.906
		c0.65,1.953,1.105,3.388,1.367,4.297C476.366,242.618,475.976,243.399,474.935,243.79z M482.943,269.376
		c-1.434,0.391-2.475-0.067-3.125-1.367c-0.262-1.435,0.195-2.279,1.367-2.539c5.078-1.044,9.57-2.408,13.477-4.102
		c-2.606-2.344-5.078-5.011-7.422-8.008c-0.262-0.519-0.391-0.977-0.391-1.367h-0.781c-1.044-0.128-1.63-0.714-1.758-1.758
		c0.128-1.172,0.714-1.822,1.758-1.953h24.219c1.172,0.131,1.822,0.781,1.953,1.953c0,1.303-0.391,2.411-1.172,3.32
		c-2.734,3.516-5.469,6.122-8.203,7.813c3.516,1.563,7.745,2.734,12.695,3.516c1.041,0.391,1.431,1.367,1.172,2.93
		c-0.653,1.172-1.694,1.563-3.125,1.172c-6.25-1.303-11.2-2.997-14.844-5.078C494.335,266.251,489.062,268.073,482.943,269.376z
		 M487.24,246.915c-1.172,0.521-2.148,0.326-2.93-0.586c-0.781-1.172-0.653-2.018,0.391-2.539c3.125-1.3,4.556-3.32,4.297-6.055
		v-1.172c0-1.432,0.714-2.148,2.148-2.148h15.625c1.431,0,2.148,0.717,2.148,2.148v2.93c-0.131,1.953,0.781,2.865,2.734,2.734h3.125
		c1.041,0.131,1.495,0.717,1.367,1.758c0,1.172-0.586,1.758-1.758,1.758h-4.492c-3.647,0.131-5.405-1.563-5.273-5.078v-1.758
		c0-0.519-0.262-0.781-0.781-0.781h-9.961c-0.522,0-0.781,0.263-0.781,0.781v0.195C493.358,242.49,491.405,245.093,487.24,246.915z
		 M491.341,251.993c2.344,2.865,4.816,5.209,7.422,7.031c2.472-1.3,5.011-3.385,7.617-6.25c0.128-0.519,0-0.781-0.391-0.781H491.341
		z"/>
	<path class="st4" d="M523.529,246.524c-0.781-0.26-1.239-0.846-1.367-1.758c0.65-3.385,1.236-7.031,1.758-10.938
		c0-1.041,0.586-1.563,1.758-1.563c1.041,0.391,1.495,1.044,1.367,1.953c-0.522,4.037-1.044,7.748-1.563,11.133
		C525.22,246.265,524.569,246.655,523.529,246.524z M530.755,269.962c-1.303-0.131-2.02-0.849-2.148-2.148v-43.945
		c0.128-1.172,0.845-1.822,2.148-1.953c1.3,0.131,2.017,0.781,2.148,1.953v7.227c0.259,0,0.586,0.131,0.977,0.391
		c1.563,1.172,2.667,2.021,3.32,2.539c0.909,0.912,0.977,1.953,0.195,3.125c-0.781,1.044-1.694,1.172-2.734,0.391
		c-0.131-0.128-0.262-0.26-0.391-0.391c-0.653-0.519-1.108-0.977-1.367-1.367v32.031
		C532.773,269.113,532.055,269.831,530.755,269.962z M539.154,229.337c-1.044-0.128-1.63-0.714-1.758-1.758
		c0.128-0.781,0.714-1.236,1.758-1.367h11.719v-2.344c0.128-1.3,0.845-2.018,2.148-2.148c1.3,0.131,2.017,0.849,2.148,2.148v2.344
		h12.5c0.909,0.131,1.431,0.586,1.563,1.367c-0.131,1.044-0.653,1.63-1.563,1.758h-12.5v3.125h11.328
		c0.909,0,1.367,0.521,1.367,1.563c0,0.781-0.458,1.239-1.367,1.367h-11.328v3.32h13.281c0.909,0.131,1.431,0.653,1.563,1.563
		c0,1.044-0.522,1.563-1.563,1.563h-30.273c-1.044,0-1.563-0.519-1.563-1.563c0.128-0.909,0.65-1.432,1.563-1.563h12.695v-3.32
		h-10.547c-0.781-0.128-1.239-0.586-1.367-1.367c0.128-1.041,0.586-1.563,1.367-1.563h10.547v-3.125H539.154z M541.888,269.962
		c-1.303-0.131-2.02-0.912-2.148-2.344v-20.117c0-1.69,0.845-2.539,2.539-2.539h21.68c1.691,0,2.539,0.849,2.539,2.539v15.625
		c0.259,3.775-1.63,5.664-5.664,5.664c-0.262,0-1.044,0-2.344,0c-1.953,0.128-3.192,0.195-3.711,0.195
		c-1.434,0-2.148-0.653-2.148-1.953c-0.131-1.303,0.391-1.889,1.563-1.758c1.563,0,3.253,0,5.078,0
		c2.081,0.128,3.058-0.781,2.93-2.734v-1.758h-18.164v6.836C543.905,269.05,543.188,269.831,541.888,269.962z M544.037,249.063
		v2.539h18.164v-2.539c0-0.65-0.327-0.977-0.977-0.977h-16.406C544.296,248.087,544.037,248.413,544.037,249.063z M544.037,254.532
		v3.32h18.164v-3.32H544.037z"/>
	<path class="st4" d="M576.81,235.782c-1.172-0.128-1.825-0.846-1.953-2.148c0.128-1.172,0.781-1.822,1.953-1.953h5.078v-7.617
		c0.128-1.3,0.909-2.018,2.344-2.148c1.3,0.263,2.017,0.977,2.148,2.148v7.617h4.492c1.3,0.131,2.017,0.781,2.148,1.953
		c-0.131,1.303-0.848,2.021-2.148,2.148h-4.492v5.664c0.519,0,0.977,0.131,1.367,0.391l4.688,4.492
		c0.909,0.912,0.977,1.889,0.195,2.93c-0.913,0.912-1.889,0.977-2.93,0.195l-3.32-3.516v21.875
		c-0.131,1.172-0.848,1.886-2.148,2.148c-1.434-0.131-2.216-0.849-2.344-2.148v-23.047c-1.563,4.169-2.997,7.294-4.297,9.375
		c-0.653,1.044-1.563,1.239-2.734,0.586c-0.391-0.26-0.586-0.781-0.586-1.563c-0.131-0.519,0.128-1.367,0.781-2.539
		c2.472-3.644,4.688-8.594,6.641-14.844H576.81z M597.513,267.228c-1.694-0.131-2.606-1.044-2.734-2.734V227.97
		c0.128-1.69,1.041-2.604,2.734-2.734h19.727c1.691,0.131,2.603,1.044,2.734,2.734v36.523c-0.131,1.69-1.044,2.604-2.734,2.734
		H597.513z M599.076,230.313v7.617h16.602v-7.617c0-0.65-0.391-0.977-1.172-0.977h-14.258
		C599.466,229.337,599.076,229.663,599.076,230.313z M599.076,241.837v8.594h16.602v-8.594H599.076z M614.505,263.126
		c0.781,0,1.172-0.323,1.172-0.977v-7.813h-16.602v7.813c0,0.653,0.391,0.977,1.172,0.977H614.505z"/>
	<path class="st4" d="M632.435,236.563c-1.303-0.128-2.02-0.846-2.148-2.148c0.128-1.3,0.845-2.018,2.148-2.148h9.57
		c-0.522-0.65-1.434-1.886-2.734-3.711c-1.172-1.563-1.953-2.539-2.344-2.93c-0.653-1.041-0.458-2.018,0.586-2.93
		c1.172-0.519,2.277-0.323,3.32,0.586c0.519,0.521,1.563,1.825,3.125,3.906c1.3,1.693,2.148,2.734,2.539,3.125
		c0.519,0.521,0.65,1.172,0.391,1.953h7.227c0.909-1.172,2.734-3.711,5.469-7.617c0.519-0.65,0.845-1.104,0.977-1.367
		c0.909-1.041,2.017-1.3,3.32-0.781c1.3,0.781,1.626,1.758,0.977,2.93c-0.391,0.521-1.239,1.563-2.539,3.125
		c-1.303,1.693-2.216,2.93-2.734,3.711h9.961c1.3,0.131,2.017,0.849,2.148,2.148c-0.131,1.303-0.848,2.021-2.148,2.148h-16.211
		c0,2.084-0.131,4.818-0.391,8.203h19.141c1.431,0.131,2.212,0.849,2.344,2.148c-0.131,1.303-0.913,2.021-2.344,2.148h-18.359
		c2.863,7.685,9.18,12.695,18.945,15.039c1.431,0.65,1.886,1.758,1.367,3.32c-0.653,1.3-1.889,1.69-3.711,1.172
		c-10.028-3.125-16.473-8.268-19.336-15.43c-2.344,6.641-8.725,11.914-19.141,15.82c-1.825,0.65-2.997,0.323-3.516-0.977
		c-0.653-1.303-0.262-2.411,1.172-3.32c10.938-3.644,16.925-8.854,17.969-15.625h-17.578c-1.303-0.128-2.02-0.846-2.148-2.148
		c0.128-1.3,0.845-2.018,2.148-2.148h18.164c0.259-2.862,0.391-5.597,0.391-8.203H632.435z"/>
	<path class="st4" d="M500.599,326.809c-1.694-0.131-2.606-1.044-2.734-2.734v-30.859c0.128-1.69,1.041-2.604,2.734-2.734h2.539
		c0.259-1.041,0.391-1.367,0.391-0.977c0.65-2.472,1.105-4.166,1.367-5.078c0.391-1.563,1.3-2.213,2.734-1.953
		c1.563,0.263,2.212,1.172,1.953,2.734c-0.262,0.653-0.653,1.825-1.172,3.516c-0.262,0.781-0.458,1.367-0.586,1.758h6.25
		c1.563,0.131,2.408,1.044,2.539,2.734v30.859c-0.131,1.69-0.977,2.604-2.539,2.734H500.599z M502.357,295.754v10.938h9.961v-10.938
		c0-0.65-0.327-0.977-0.977-0.977h-8.008C502.68,294.777,502.357,295.104,502.357,295.754z M511.341,322.512
		c0.65,0,0.977-0.323,0.977-0.977v-10.938h-9.961v10.938c0,0.653,0.323,0.977,0.977,0.977H511.341z M519.154,301.809
		c-1.044-0.781-1.303-1.822-0.781-3.125c1.953-3.253,4.034-8.072,6.25-14.453c0.391-1.3,1.367-1.886,2.93-1.758
		c1.3,0.391,1.822,1.303,1.563,2.734c-0.522,1.693-1.172,3.451-1.953,5.273h11.719c1.691,0.131,2.603,1.044,2.734,2.734
		c0,1.044-0.067,2.606-0.195,4.688c-0.131,10.287-0.327,17.646-0.586,22.07c0,5.987-2.802,8.917-8.398,8.789
		c-1.172,0.128-3.256,0.195-6.25,0.195c-1.694-0.131-2.67-0.977-2.93-2.539c0.128-1.303,0.781-2.021,1.953-2.148
		c1.822,0.128,3.711,0.195,5.664,0.195c3.644,0.26,5.469-1.495,5.469-5.273c0-0.391,0-1.041,0-1.953
		c0.391-10.025,0.586-17.188,0.586-21.484c0-0.65-0.327-0.977-0.977-0.977h-10.547c-1.044,2.344-2.084,4.428-3.125,6.25
		C521.626,302.071,520.585,302.33,519.154,301.809z M531.068,314.113c-1.434,0.781-2.539,0.586-3.32-0.586
		c-1.172-1.953-2.997-4.425-5.469-7.422c-0.653-1.172-0.458-2.148,0.586-2.93c1.041-0.65,2.081-0.519,3.125,0.391
		c0.781,0.912,1.886,2.411,3.32,4.492c1.041,1.303,1.758,2.279,2.148,2.93C532.24,312.291,532.108,313.332,531.068,314.113z"/>
	<path class="st4" d="M555.052,304.738c-1.044-0.781-2.802-2.213-5.273-4.297c-0.913-0.909-0.977-1.886-0.195-2.93
		c0.909-1.041,1.953-1.172,3.125-0.391c1.822,1.303,3.644,2.67,5.469,4.102c1.041,1.172,1.105,2.279,0.195,3.32
		C557.46,305.715,556.352,305.782,555.052,304.738z M551.537,329.348c-1.434-0.653-1.953-1.693-1.563-3.125
		c1.822-6.25,3.189-11.197,4.102-14.844c0.519-1.172,1.495-1.627,2.93-1.367c1.3,0.653,1.822,1.63,1.563,2.93
		c-0.131,0.263-0.262,0.717-0.391,1.367c-1.694,5.99-2.93,10.416-3.711,13.281C553.944,328.89,552.968,329.476,551.537,329.348z
		 M556.224,292.043c-0.262-0.26-0.717-0.65-1.367-1.172c-1.825-1.69-3.125-2.799-3.906-3.32c-0.781-0.909-0.848-1.886-0.195-2.93
		c1.041-0.909,2.148-1.041,3.32-0.391c0.65,0.521,1.822,1.498,3.516,2.93c0.781,0.781,1.367,1.303,1.758,1.563
		c1.041,1.044,1.105,2.084,0.195,3.125C558.501,292.892,557.396,292.955,556.224,292.043z M571.068,293.02
		c-1.303,0.521-2.411,0.391-3.32-0.391c-0.653-0.781-1.694-2.081-3.125-3.906c-0.522-0.391-0.848-0.714-0.977-0.977
		c-0.781-0.781-0.717-1.69,0.195-2.734c1.041-0.519,2.081-0.455,3.125,0.195c0.391,0.391,1.105,1.172,2.148,2.344
		c1.041,1.044,1.758,1.825,2.148,2.344C572.044,290.938,571.977,291.979,571.068,293.02z M565.599,330.129
		c-1.303-0.131-2.02-0.849-2.148-2.148v-29.492c0.128-1.563,0.977-2.408,2.539-2.539h9.961v-11.328
		c0.128-1.432,0.909-2.213,2.344-2.344c1.431,0.131,2.212,0.912,2.344,2.344v11.328h9.961c1.563,0.131,2.408,0.912,2.539,2.344
		v24.023c0.259,4.297-1.758,6.51-6.055,6.641c-1.694,0-3.516,0-5.469,0c-1.303,0-2.084-0.653-2.344-1.953
		c0-1.435,0.586-2.148,1.758-2.148c1.431,0,2.93,0,4.492,0c2.212,0.128,3.253-0.912,3.125-3.125v-2.93h-20.703v9.18
		C567.812,329.28,567.03,329.998,565.599,330.129z M567.943,301.027v4.492h20.703v-4.492c0-0.781-0.327-1.104-0.977-0.977h-18.75
		C568.266,299.923,567.943,300.246,567.943,301.027z M567.943,309.426v5.469h20.703v-5.469H567.943z M585.521,293.215
		c-1.044-0.781-1.172-1.758-0.391-2.93c0.128-0.26,0.455-0.586,0.977-0.977c1.431-1.822,2.472-3.125,3.125-3.906
		c0.909-0.909,1.953-1.041,3.125-0.391c1.041,0.781,1.172,1.758,0.391,2.93c-0.522,0.781-1.694,2.148-3.516,4.102
		c-0.391,0.391-0.653,0.717-0.781,0.977C587.407,293.932,586.43,293.996,585.521,293.215z"/>
	<path class="st4" d="M602.669,326.418c-1.172-0.521-1.563-1.498-1.172-2.93c0.909-1.69,1.953-3.971,3.125-6.836
		c0.519-1.172,1.431-1.627,2.734-1.367c1.3,0.521,1.691,1.435,1.172,2.734c-0.653,1.825-1.694,4.297-3.125,7.422
		C604.751,326.613,603.841,326.937,602.669,326.418z M609.896,312.16c-1.825-0.26-2.866-1.3-3.125-3.125V290.09
		c0.259-1.822,1.3-2.862,3.125-3.125h9.375c0.391-1.3,0.714-2.472,0.977-3.516c0.519-1.041,1.431-1.432,2.734-1.172
		c1.431,0.263,2.017,1.044,1.758,2.344c0,0.131-0.067,0.326-0.195,0.586c-0.262,0.781-0.458,1.367-0.586,1.758h15.234
		c1.953,0.263,3.058,1.303,3.32,3.125v18.945c-0.262,1.825-1.367,2.865-3.32,3.125H609.896z M611.263,291.652v2.734h26.758v-2.734
		c-0.131-0.65-0.522-1.041-1.172-1.172h-24.414C611.782,290.611,611.391,291.002,611.263,291.652z M611.263,297.512v4.102h26.758
		v-4.102H611.263z M636.849,308.645c0.65-0.128,1.041-0.519,1.172-1.172v-2.734h-26.758v2.734c0.128,0.653,0.519,1.044,1.172,1.172
		H636.849z M618.88,328.762c-4.428,0.26-6.577-1.889-6.445-6.445v-5.664c0.128-1.3,0.845-2.018,2.148-2.148
		c1.3,0.131,2.017,0.849,2.148,2.148v4.883c-0.131,2.472,1.172,3.644,3.906,3.516h8.398c2.472,0,3.906-0.781,4.297-2.344
		c0.259-1.041,0.519-2.148,0.781-3.32c0.128-1.041,0.977-1.495,2.539-1.367c1.3,0.521,1.822,1.435,1.563,2.734
		c-0.131,0.521-0.262,1.239-0.391,2.148c-0.262,0.653-0.391,1.104-0.391,1.367c-0.653,3.125-3.125,4.62-7.422,4.492H618.88z
		 M628.255,320.559c-1.044,0.521-2.02,0.326-2.93-0.586c-0.913-0.909-2.02-2.148-3.32-3.711c-0.522-0.909-0.391-1.758,0.391-2.539
		c1.3-0.781,2.344-0.714,3.125,0.195c0.909,0.912,2.017,2.148,3.32,3.711C629.491,318.673,629.296,319.649,628.255,320.559z
		 M647.201,324.27c-1.044,0.65-2.084,0.455-3.125-0.586c-0.913-1.3-2.411-3.32-4.492-6.055c-0.522-1.172-0.327-2.018,0.586-2.539
		c1.041-0.65,2.017-0.455,2.93,0.586c0.909,0.912,2.277,2.539,4.102,4.883c0.259,0.391,0.455,0.653,0.586,0.781
		C648.437,322.384,648.241,323.36,647.201,324.27z"/>
</g>
</svg>