<!-- Generator: Adobe Illustrator 24.1.3, SVG Export Plug-In  -->
<svg version="1.1" xmlns="http://www.w3.org/2000/svg" xmlns:xlink="http://www.w3.org/1999/xlink" x="0px" y="0px"
	 width="840.648px" height="1422.327px" viewBox="0 0 840.648 1422.327"
	 style="overflow:visible;enable-background:new 0 0 840.648 1422.327;" xml:space="preserve">
<style type="text/css">
	.st0{fill:#E58E8E;}
</style>
<defs>
</defs>
<rect x="96.855" y="1099.071" class="st0" width="64.651" height="64.651"/>
<rect x="775.787" y="258.605" class="st0" width="64.651" height="64.651"/>
<rect x="0" y="161.628" class="st0" width="64.651" height="64.651"/>
<rect x="97.199" y="161.628" class="st0" width="64.651" height="64.651"/>
<rect x="193.954" y="161.628" class="st0" width="64.651" height="64.651"/>
<rect x="387.908" y="161.628" class="st0" width="64.651" height="64.651"/>
<rect x="485.045" y="161.628" class="st0" width="64.651" height="64.651"/>
<rect x="582.043" y="161.628" class="st0" width="64.651" height="64.651"/>
<rect x="678.798" y="161.628" class="st0" width="64.651" height="64.651"/>
<rect x="775.997" y="161.628" class="st0" width="64.651" height="64.651"/>
<rect x="0.006" y="258.605" class="st0" width="64.651" height="64.651"/>
<rect x="97.004" y="258.605" class="st0" width="64.651" height="64.651"/>
<rect x="290.708" y="161.628" class="st0" width="64.651" height="64.651"/>
<rect x="193.954" y="258.605" class="st0" width="64.651" height="64.651"/>
<rect x="290.708" y="258.605" class="st0" width="64.651" height="64.651"/>
<rect x="387.463" y="258.605" class="st0" width="64.651" height="64.651"/>
<rect x="484.461" y="258.605" class="st0" width="64.651" height="64.651"/>
<rect x="581.216" y="258.605" class="st0" width="64.651" height="64.651"/>
<rect x="678.789" y="258.605" class="st0" width="64.651" height="64.651"/>
<rect y="1260.699" class="st0" width="64.651" height="64.651"/>
<rect x="97.342" y="1260.699" class="st0" width="64.651" height="64.651"/>
<rect x="194.097" y="1260.699" class="st0" width="64.651" height="64.651"/>
<rect x="291.095" y="1260.699" class="st0" width="64.651" height="64.651"/>
<rect x="387.849" y="1260.699" class="st0" width="64.651" height="64.651"/>
<rect x="484.832" y="1260.699" class="st0" width="64.651" height="64.651"/>
<rect x="581.962" y="1260.699" class="st0" width="64.651" height="64.651"/>
<rect x="678.716" y="1260.699" class="st0" width="64.651" height="64.651"/>
<rect x="775.715" y="1260.699" class="st0" width="64.651" height="64.651"/>
<rect x="0.1" y="1357.676" class="st0" width="64.651" height="64.651"/>
<rect x="96.855" y="1357.676" class="st0" width="64.651" height="64.651"/>
<rect x="193.853" y="1357.676" class="st0" width="64.651" height="64.651"/>
<rect x="0.201" y="678.838" class="st0" width="64.651" height="64.651"/>
<rect x="96.955" y="678.838" class="st0" width="64.651" height="64.651"/>
<rect x="193.954" y="678.838" class="st0" width="64.651" height="64.651"/>
<rect x="290.708" y="678.838" class="st0" width="64.651" height="64.651"/>
<rect x="387.908" y="678.838" class="st0" width="64.651" height="64.651"/>
<rect x="193.61" y="1099.071" class="st0" width="64.651" height="64.651"/>
<rect x="484.662" y="678.838" class="st0" width="64.651" height="64.651"/>
<rect x="0" class="st0" width="64.651" height="64.651"/>
<rect x="0.201" y="1099.071" class="st0" width="64.651" height="64.651"/>
</svg>