<!-- Generator: Adobe Illustrator 24.1.3, SVG Export Plug-In  -->
<svg version="1.1" xmlns="http://www.w3.org/2000/svg" xmlns:xlink="http://www.w3.org/1999/xlink" x="0px" y="0px"
	 width="447.125px" height="86.49px" viewBox="0 0 447.125 86.49"
	 style="overflow:visible;enable-background:new 0 0 447.125 86.49;" xml:space="preserve">
<style type="text/css">
	.st0{fill:#BF2222;}
	.st1{fill:none;}
	.st2{font-family:'HYQingFenTi-W';}
	.st3{font-size:72px;}
</style>
<defs>
</defs>
<g>
	<g>
		<g>
			<path class="st0" d="M36.116,23.814L29.23,2.231c-0.538-1.686-2.341-2.617-4.027-2.079L2.295,7.462
				C0.609,8-0.322,9.803,0.216,11.489l6.886,21.583c-6.625,7.665-8.821,18.186-5.714,27.924
				c4.887,15.318,21.325,23.803,36.643,18.916c15.317-4.887,23.803-21.325,18.916-36.643C53.84,33.531,45.956,26.226,36.116,23.814z
				 M36.083,73.805c-11.951,3.813-24.776-2.807-28.589-14.758c-2.581-8.088-0.47-16.871,5.507-22.921
				c0.838-0.848,1.136-2.091,0.774-3.227L7.296,12.594l16.802-5.361l6.479,20.306c0.362,1.136,1.325,1.976,2.499,2.182
				c8.377,1.47,15.184,7.407,17.765,15.495C54.654,57.167,48.034,69.992,36.083,73.805z"/>
			<path class="st0" d="M33.568,50.227c-7.725,0.358-8.952-2.256-17.183-1.429c-1.443,0.145-3.1,0.396-4.861,0.766
				c-0.357,2.559-0.161,5.235,0.677,7.861c2.99,9.372,13.012,14.545,22.383,11.555c9.259-2.954,14.414-12.771,11.654-22.044
				C42.719,48.673,38.585,49.994,33.568,50.227z"/>
		</g>
	</g>
	<g>
		<g>
			<path class="st0" d="M80.735,46.314c2.017-3.313,3.672-6.756,4.968-10.332c1.297-3.575,2.328-7.093,3.097-10.549
				c0.288-1.199,0.888-2.016,1.8-2.447c0.911-0.433,1.812-0.528,2.7-0.288c0.888,0.24,1.607,0.78,2.16,1.62
				c0.551,0.84,0.611,1.933,0.18,3.275c-0.337,1.105-0.792,2.353-1.368,3.744c-0.576,1.393-1.272,2.88-2.088,4.464
				c0.479,0.576,0.72,1.296,0.72,2.16v27.864c0,1.152-0.349,2.027-1.044,2.628c-0.696,0.6-1.452,0.9-2.268,0.9
				c-0.817,0-1.573-0.301-2.269-0.9c-0.696-0.601-1.044-1.476-1.044-2.628V45.378c-0.48,0.625-0.961,1.249-1.439,1.872
				c-0.48,0.624-0.984,1.224-1.513,1.8c-0.432,0.385-0.876,0.565-1.332,0.54c-0.456-0.023-0.84-0.191-1.151-0.504
				c-0.313-0.312-0.504-0.72-0.576-1.224S80.35,46.843,80.735,46.314z M84.191,16.147h20.304c0.864,0,1.523,0.276,1.98,0.827
				c0.456,0.553,0.684,1.152,0.684,1.801c0,0.647-0.228,1.236-0.684,1.764c-0.457,0.528-1.116,0.792-1.98,0.792H84.191
				c-0.864,0-1.501-0.264-1.908-0.792c-0.408-0.527-0.611-1.116-0.611-1.764c0-0.648,0.203-1.248,0.611-1.801
				C82.69,16.423,83.327,16.147,84.191,16.147z M105.935,39.33v21.96c0,1.008-0.36,1.86-1.08,2.556
				c-0.72,0.696-1.561,1.044-2.52,1.044h-5.832c-0.817,0-1.429-0.252-1.836-0.756c-0.409-0.504-0.612-1.067-0.612-1.691
				s0.203-1.188,0.612-1.692c0.407-0.504,1.019-0.756,1.836-0.756h2.88V40.41c0-0.384-0.145-0.708-0.433-0.972
				s-0.624-0.396-1.008-0.396h-1.439c-0.817,0-1.429-0.252-1.836-0.756c-0.409-0.504-0.612-1.056-0.612-1.656
				c0-0.6,0.203-1.151,0.612-1.656c0.407-0.504,1.019-0.756,1.836-0.756h5.184c1.296,0,2.328,0.396,3.096,1.188
				S105.935,37.507,105.935,39.33z M130.343,45.234h-9.216c-0.385,3.072-0.925,5.939-1.62,8.604
				c-0.696,2.664-1.609,5.16-2.736,7.488c-1.128,2.329-2.509,4.513-4.14,6.552c-1.633,2.04-3.577,3.996-5.832,5.868
				c-0.576,0.479-1.141,0.672-1.692,0.576c-0.553-0.097-0.984-0.324-1.296-0.685c-0.313-0.359-0.493-0.804-0.54-1.332
				c-0.048-0.528,0.119-0.984,0.504-1.367c1.729-1.681,3.191-3.373,4.393-5.076c1.199-1.703,2.219-3.552,3.06-5.544
				c0.839-1.991,1.5-4.212,1.98-6.66c0.479-2.448,0.839-5.256,1.079-8.424h-4.319c-0.864,0-1.501-0.264-1.908-0.792
				c-0.408-0.528-0.612-1.116-0.612-1.765c0-0.647,0.204-1.247,0.612-1.8c0.407-0.551,1.044-0.828,1.908-0.828h4.607
				c0.145-3.935,0.217-8.471,0.217-13.607c0-1.248,0.371-2.184,1.115-2.809c0.744-0.623,1.572-0.936,2.484-0.936
				c0.911,0,1.739,0.313,2.484,0.936c0.743,0.625,1.115,1.561,1.115,2.809c0,4.992-0.144,9.528-0.432,13.607h8.784V26.514
				c0-1.247,0.371-2.184,1.116-2.808c0.743-0.623,1.571-0.936,2.483-0.936c0.911,0,1.739,0.313,2.484,0.936
				c0.743,0.624,1.116,1.561,1.116,2.808V40.05h6.119c0.864,0,1.523,0.277,1.98,0.828c0.456,0.553,0.684,1.152,0.684,1.8
				c0,0.648-0.228,1.236-0.684,1.765c-0.457,0.528-1.116,0.792-1.98,0.792h-6.119v25.487c0,1.199-0.373,2.1-1.116,2.7
				c-0.745,0.6-1.573,0.888-2.484,0.864c-0.912-0.024-1.74-0.337-2.483-0.937c-0.745-0.601-1.116-1.476-1.116-2.628V45.234z
				 M110.83,20.826c-0.863,0-1.5-0.264-1.907-0.792c-0.408-0.527-0.612-1.116-0.612-1.764c0-0.648,0.204-1.248,0.612-1.801
				c0.407-0.551,1.044-0.828,1.907-0.828h31.536c0.864,0,1.523,0.277,1.98,0.828c0.455,0.553,0.684,1.152,0.684,1.801
				c0,0.647-0.229,1.236-0.684,1.764c-0.457,0.528-1.116,0.792-1.98,0.792H110.83z"/>
			<path class="st0" d="M177.575,38.61c0-1.296,0.384-2.269,1.152-2.916c0.768-0.648,1.62-0.973,2.556-0.973
				c0.937,0,1.801,0.324,2.593,0.973c0.792,0.647,1.188,1.62,1.188,2.916c0,0.961-0.024,1.908-0.072,2.844s-0.12,1.836-0.216,2.7
				h13.824c3.168,0.288,4.752,2.064,4.752,5.328v14.04c0,1.008,0.18,1.681,0.54,2.016c0.36,0.336,0.803,0.504,1.332,0.504h2.88
				c1.199,0,1.98-0.708,2.34-2.124c0.36-1.415,0.588-3.371,0.685-5.868c0-0.576,0.19-1.008,0.575-1.296
				c0.384-0.288,0.804-0.432,1.261-0.432c0.455,0,0.863,0.144,1.224,0.432s0.54,0.72,0.54,1.296c0,3.121,0.6,4.824,1.8,5.112
				c1.008,0.24,1.62,0.828,1.836,1.764c0.216,0.937,0.012,1.908-0.611,2.916c-0.625,1.008-1.646,1.92-3.061,2.736
				c-1.416,0.815-3.229,1.224-5.436,1.224h-5.04c-2.784,0-4.824-0.66-6.12-1.979c-1.296-1.321-1.944-3.085-1.944-5.292V50.778
				c0-1.152-0.601-1.729-1.8-1.729h-10.296c-0.769,3.409-1.933,6.408-3.492,9c-1.561,2.592-3.517,4.873-5.868,6.84
				c-2.353,1.968-5.101,3.696-8.244,5.185c-3.144,1.487-6.659,2.831-10.548,4.032c-0.528,0.144-1.008,0.083-1.439-0.181
				c-0.433-0.264-0.745-0.624-0.937-1.08c-0.192-0.456-0.229-0.925-0.107-1.403c0.119-0.48,0.491-0.841,1.115-1.08
				c2.928-1.152,5.592-2.365,7.992-3.636c2.399-1.271,4.523-2.736,6.372-4.393c1.848-1.656,3.408-3.563,4.68-5.724
				s2.244-4.681,2.916-7.561h-15.336c-0.816,0-1.416-0.252-1.8-0.756c-0.385-0.504-0.576-1.067-0.576-1.691s0.191-1.188,0.576-1.692
				c0.384-0.504,0.983-0.756,1.8-0.756h16.128c0.096-0.864,0.168-1.752,0.217-2.664C177.55,40.579,177.575,39.618,177.575,38.61z
				 M157.055,43.29c-0.576,0.288-1.08,0.336-1.512,0.144c-0.433-0.19-0.757-0.479-0.973-0.863c-0.216-0.384-0.3-0.804-0.252-1.26
				s0.288-0.828,0.72-1.116c3.744-2.399,7.2-4.764,10.368-7.092s5.977-4.717,8.424-7.164c1.009-1.009,2.053-1.464,3.133-1.368
				c1.08,0.097,1.943,0.504,2.592,1.224c0.647,0.72,0.936,1.608,0.864,2.664c-0.072,1.057-0.709,2.016-1.908,2.88
				c-2.448,1.729-5.4,3.576-8.856,5.544C166.199,38.851,161.998,40.986,157.055,43.29z M161.879,26.586
				c-0.433,1.537-1.177,2.521-2.232,2.952c-1.057,0.432-2.041,0.468-2.952,0.108c-0.912-0.36-1.572-1.032-1.979-2.017
				c-0.408-0.983-0.181-2.099,0.684-3.348c0.911-1.296,1.716-2.604,2.412-3.924c0.695-1.32,1.283-2.676,1.764-4.068
				c0.191-0.623,0.528-1.044,1.009-1.26c0.479-0.216,0.947-0.275,1.403-0.181c0.456,0.098,0.852,0.313,1.188,0.648
				c0.335,0.336,0.504,0.745,0.504,1.224c-0.097,1.537-0.288,3.133-0.576,4.788C162.815,23.166,162.407,24.858,161.879,26.586z
				 M178.799,11.538c-0.288-0.479-0.408-0.96-0.36-1.44c0.047-0.479,0.228-0.875,0.54-1.188c0.312-0.312,0.731-0.492,1.26-0.54
				c0.528-0.047,1.08,0.144,1.656,0.576c2.304,1.584,4.104,2.952,5.4,4.104c0.671,0.673,1.055,1.357,1.151,2.053
				c0.096,0.696,0,1.356-0.288,1.979h23.4c1.104,0,2.027,0.229,2.771,0.684c0.744,0.457,1.297,1.045,1.656,1.765
				c0.36,0.72,0.504,1.512,0.433,2.376c-0.072,0.864-0.373,1.704-0.9,2.52c-0.48,0.817-1.068,1.633-1.764,2.448
				c-0.696,0.816-1.404,1.561-2.124,2.232c-0.576,0.575-1.188,0.889-1.836,0.936c-0.648,0.049-1.213-0.06-1.692-0.324
				c-0.48-0.263-0.841-0.659-1.08-1.188c-0.24-0.527-0.24-1.08,0-1.656c0.239-0.527,0.504-1.176,0.792-1.944
				c0.288-0.767,0.504-1.415,0.648-1.943c0.096-0.24,0.071-0.456-0.072-0.648c-0.145-0.191-0.337-0.288-0.576-0.288h-40.607
				c-0.817,0-1.43-0.263-1.837-0.792c-0.408-0.527-0.611-1.091-0.611-1.691c0-0.6,0.203-1.164,0.611-1.692
				c0.407-0.527,1.02-0.792,1.837-0.792h14.831c-0.528-0.96-1.068-1.883-1.619-2.771C179.867,13.423,179.327,12.499,178.799,11.538z
				 M207.454,42.138c-2.4-2.543-5.028-5.004-7.884-7.38c-2.856-2.376-5.532-4.523-8.027-6.443c-0.385-0.288-0.589-0.672-0.612-1.152
				c-0.024-0.479,0.072-0.924,0.288-1.332c0.216-0.407,0.551-0.695,1.008-0.864c0.456-0.167,0.972-0.083,1.548,0.252
				c1.392,0.817,2.916,1.705,4.572,2.664c1.656,0.961,3.348,1.969,5.076,3.024c1.728,1.057,3.443,2.136,5.147,3.24
				c1.703,1.104,3.276,2.185,4.716,3.239c1.056,0.769,1.572,1.681,1.549,2.736c-0.025,1.057-0.385,1.944-1.08,2.664
				c-0.696,0.72-1.62,1.104-2.772,1.152S208.655,43.387,207.454,42.138z"/>
			<path class="st0" d="M238.559,13.842c0.096-1.296,0.576-2.255,1.44-2.88c0.863-0.623,1.787-0.899,2.771-0.828
				c0.983,0.072,1.859,0.517,2.628,1.332c0.768,0.817,1.08,2.017,0.937,3.601c-0.385,4.8-0.877,9.564-1.477,14.292
				c-0.601,4.729-1.548,9.468-2.844,14.22s-3.085,9.517-5.364,14.292c-2.28,4.776-5.292,9.636-9.036,14.58
				c-0.432,0.527-0.912,0.815-1.439,0.864c-0.529,0.047-0.997-0.072-1.404-0.36c-0.408-0.288-0.66-0.72-0.756-1.296
				c-0.097-0.576,0.072-1.225,0.504-1.944c2.592-3.983,4.691-7.956,6.3-11.916c1.607-3.96,2.904-8.136,3.889-12.527
				c0.982-4.393,1.751-9.145,2.304-14.257C237.562,25.902,238.079,20.178,238.559,13.842z M248.999,38.826
				c1.679,1.92,2.987,3.48,3.924,4.68c0.936,1.2,1.811,2.376,2.628,3.528c0.864,1.393,1.091,2.688,0.684,3.888
				c-0.408,1.2-1.068,2.077-1.98,2.628c-0.913,0.553-1.908,0.673-2.988,0.36c-1.08-0.312-1.86-1.284-2.34-2.916
				c-0.433-1.536-0.912-3.012-1.44-4.428s-1.177-3.107-1.943-5.076c-0.288-0.672-0.35-1.271-0.181-1.8
				c0.168-0.528,0.456-0.937,0.864-1.225c0.407-0.288,0.864-0.419,1.368-0.396C248.099,38.095,248.567,38.347,248.999,38.826z
				 M264.479,13.842c0.047-1.439,0.504-2.459,1.368-3.06c0.864-0.6,1.787-0.828,2.771-0.685c0.983,0.145,1.86,0.637,2.628,1.477
				s1.104,2.005,1.009,3.492c-0.433,6.288-1.044,12.036-1.836,17.244s-1.957,10.115-3.492,14.724
				c-1.537,4.607-3.553,9.048-6.048,13.32c-2.497,4.272-5.688,8.615-9.576,13.031c-0.433,0.528-0.961,0.792-1.584,0.792
				c-0.625,0-1.152-0.156-1.584-0.468c-0.433-0.313-0.72-0.745-0.864-1.296c-0.144-0.553,0.047-1.164,0.576-1.836
				c2.88-3.744,5.292-7.463,7.236-11.16c1.943-3.695,3.539-7.728,4.787-12.096c1.248-4.367,2.232-9.252,2.952-14.652
				C263.543,27.271,264.094,20.995,264.479,13.842z M283.199,72.234c-3.023-4.656-5.615-9.443-7.775-14.364
				c-2.16-4.92-3.985-9.852-5.473-14.796c-0.24-0.768-0.216-1.404,0.072-1.908s0.685-0.828,1.188-0.972
				c0.504-0.145,1.019-0.108,1.548,0.107c0.527,0.217,0.911,0.612,1.151,1.188c1.536,3.696,3.552,7.729,6.049,12.096
				c2.495,4.368,5.399,8.568,8.712,12.601c1.104,1.296,1.595,2.579,1.476,3.852c-0.12,1.271-0.564,2.279-1.332,3.024
				c-0.769,0.743-1.692,1.104-2.771,1.079C284.963,74.117,284.015,73.481,283.199,72.234z"/>
			<path class="st0" d="M298.967,20.178c0-1.151,0.335-2.016,1.008-2.592c0.672-0.576,1.428-0.864,2.268-0.864
				s1.596,0.288,2.269,0.864c0.672,0.576,1.008,1.44,1.008,2.592v40.536c0,1.2-0.336,2.101-1.008,2.7
				c-0.673,0.601-1.429,0.9-2.269,0.9s-1.596-0.3-2.268-0.9c-0.673-0.6-1.008-1.5-1.008-2.7V20.178z M307.103,57.33
				c-0.432-0.527-0.648-1.091-0.648-1.692c0-0.6,0.217-1.163,0.648-1.691s1.056-0.792,1.872-0.792h0.936V23.058
				c0-0.383-0.048-0.707-0.144-0.972c-0.097-0.263-0.336-0.396-0.72-0.396h-0.072c-0.816,0-1.429-0.252-1.836-0.757
				c-0.408-0.504-0.612-1.067-0.612-1.691c0-0.623,0.204-1.188,0.612-1.692c0.407-0.504,1.02-0.756,1.836-0.756h2.52
				c1.632,0,2.783,0.517,3.456,1.548c0.672,1.033,1.009,2.196,1.009,3.492v32.688c0,1.008-0.35,1.86-1.044,2.556
				c-0.697,0.696-1.524,1.044-2.484,1.044h-3.456C308.159,58.122,307.535,57.858,307.103,57.33z M322.871,21.798
				c0.624-0.6,1.32-0.899,2.089-0.899c0.767,0,1.463,0.276,2.088,0.828c0.623,0.552,0.936,1.403,0.936,2.556
				c0,1.104,0,2.148,0,3.132c0,0.984-0.024,1.956-0.072,2.916h1.44c0.72,0,1.271,0.252,1.656,0.756
				c0.384,0.504,0.576,1.057,0.576,1.656c0,0.601-0.192,1.152-0.576,1.656c-0.385,0.504-0.937,0.756-1.656,0.756h-1.512
				c-0.097,2.304-0.192,4.417-0.288,6.336c-0.097,1.92-0.265,3.721-0.504,5.399h2.447c0.721,0,1.271,0.252,1.656,0.757
				c0.384,0.504,0.576,1.056,0.576,1.655c0,0.601-0.192,1.152-0.576,1.656c-0.385,0.504-0.936,0.756-1.656,0.756h-3.168
				c-0.432,2.16-0.948,4.141-1.548,5.94c-0.601,1.8-1.344,3.54-2.231,5.22c-0.889,1.681-1.921,3.337-3.097,4.968
				c-1.177,1.632-2.509,3.336-3.996,5.112c-0.624,0.72-1.212,1.091-1.764,1.116c-0.552,0.023-0.997-0.121-1.332-0.433
				c-0.336-0.313-0.552-0.72-0.647-1.224c-0.097-0.504,0.023-0.972,0.359-1.404c1.104-1.488,2.1-2.94,2.988-4.355
				c0.888-1.415,1.667-2.892,2.34-4.428c0.672-1.536,1.26-3.156,1.764-4.86c0.505-1.703,0.924-3.588,1.261-5.652h-0.504
				c-0.817,0-1.44-0.252-1.872-0.756c-0.433-0.504-0.648-1.056-0.648-1.656c0-0.6,0.216-1.151,0.648-1.655
				c0.432-0.505,1.055-0.757,1.872-0.757h1.151c0.191-1.679,0.336-3.479,0.433-5.399c0.096-1.919,0.19-4.032,0.288-6.336h-1.801
				c-0.816,0-1.439-0.252-1.872-0.756c-0.432-0.504-0.647-1.056-0.647-1.656c0-0.6,0.216-1.152,0.647-1.656
				c0.433-0.504,1.056-0.756,1.872-0.756h1.872c0.048-0.96,0.072-1.919,0.072-2.88c0-0.96,0-1.968,0-3.024
				C321.935,23.274,322.246,22.398,322.871,21.798z M339.251,37.674c-0.025,4.801-0.072,8.917-0.145,12.349s-0.192,6.288-0.36,8.567
				c-0.168,2.28-0.396,4.176-0.684,5.688c-0.288,1.512-0.66,2.783-1.116,3.815s-0.996,2.004-1.62,2.916
				c-0.528,0.768-1.068,1.332-1.619,1.692c-0.553,0.36-1.057,0.54-1.513,0.54s-0.84-0.145-1.151-0.432
				c-0.313-0.288-0.469-0.721-0.469-1.297c-0.048-1.439-0.396-2.473-1.044-3.096c-0.647-0.624-1.717-1.057-3.204-1.296
				c-0.432-0.049-0.732-0.276-0.899-0.684c-0.169-0.407-0.216-0.816-0.145-1.225c0.072-0.407,0.276-0.767,0.612-1.08
				c0.335-0.312,0.792-0.443,1.368-0.396c0.815,0.097,1.476,0.169,1.979,0.216c0.504,0.049,0.924,0.072,1.261,0.072
				c0.288,0,0.563-0.168,0.827-0.504s0.492-1.009,0.685-2.017c0.191-1.008,0.36-2.459,0.504-4.355
				c0.144-1.896,0.252-4.416,0.324-7.561c0.072-3.143,0.132-7.008,0.18-11.592c0.047-4.583,0.072-10.067,0.072-16.452
				c0-0.864-0.156-1.451-0.468-1.764c-0.313-0.312-0.949-0.468-1.908-0.468h-11.592c-0.721,0-1.261-0.252-1.62-0.757
				c-0.36-0.504-0.54-1.055-0.54-1.655c0-0.6,0.18-1.152,0.54-1.656c0.359-0.504,0.899-0.756,1.62-0.756h14.472
				c2.16,0,3.647,0.504,4.464,1.512c0.815,1.008,1.224,2.545,1.224,4.608C339.287,27.187,339.275,32.875,339.251,37.674z
				 M349.511,17.37c0-1.199-0.337-2.1-1.008-2.7c-0.673-0.6-1.404-0.899-2.196-0.899s-1.512,0.3-2.16,0.899
				c-0.647,0.601-0.972,1.501-0.972,2.7v52.992c0,1.247,0.324,2.171,0.972,2.771c0.648,0.6,1.368,0.9,2.16,0.9
				s1.523-0.301,2.196-0.9c0.671-0.601,1.008-1.524,1.008-2.771V17.37z M361.535,56.79c-0.768,1.8-1.943,3.204-3.527,4.212
				c-0.769,0.48-1.429,0.696-1.98,0.648s-0.853-0.456-0.899-1.225c-0.097-0.959-0.48-1.764-1.152-2.412
				c-0.673-0.647-1.488-0.995-2.448-1.044c-0.336,0-0.576-0.131-0.72-0.396c-0.145-0.264-0.216-0.552-0.216-0.864
				c0-0.312,0.083-0.587,0.252-0.828c0.167-0.239,0.419-0.359,0.756-0.359c0.527,0,1.056,0,1.584,0c0.527,0,0.911-0.024,1.152-0.072
				c1.008-0.096,1.644-0.36,1.907-0.792s0.469-1.056,0.612-1.872c0.479-2.544,0.145-5.027-1.008-7.452
				c-1.152-2.423-2.688-4.788-4.608-7.092c-0.192-0.239-0.323-0.456-0.396-0.648c-0.072-0.191-0.036-0.455,0.107-0.792
				c0.288-0.623,0.576-1.392,0.864-2.304c0.288-0.911,0.587-2.016,0.9-3.312c0.312-1.297,0.659-2.832,1.044-4.608
				c0.384-1.775,0.815-3.863,1.296-6.264c0.096-0.384,0.083-0.624-0.036-0.721c-0.12-0.096-0.252-0.144-0.396-0.144h-1.944
				c-0.72,0-1.26-0.239-1.62-0.72c-0.36-0.479-0.54-1.02-0.54-1.62c0-0.6,0.18-1.14,0.54-1.62c0.36-0.479,0.9-0.72,1.62-0.72h4.536
				c0.959,0,1.751,0.204,2.376,0.611c0.623,0.408,1.08,0.925,1.368,1.548c0.287,0.625,0.432,1.309,0.432,2.053
				s-0.097,1.429-0.288,2.052c-0.673,2.016-1.296,3.805-1.872,5.364s-1.104,2.94-1.584,4.14c-0.48,1.2-0.948,2.28-1.404,3.24
				c-0.456,0.961-0.925,1.848-1.403,2.664c0.671,0.528,1.403,1.332,2.195,2.412c0.792,1.079,1.56,2.304,2.305,3.672
				c0.743,1.368,1.392,2.832,1.943,4.392c0.552,1.561,0.9,3.108,1.044,4.645C362.567,52.914,362.302,54.99,361.535,56.79z"/>
			<path class="st0" d="M390.227,46.603c1.08-0.096,2.027,0.144,2.844,0.72c0.815,0.576,1.355,1.368,1.62,2.376
				c0.264,1.008-0.061,2.041-0.972,3.096c-2.592,3.121-5.904,6.12-9.937,9c-4.031,2.88-8.472,5.472-13.319,7.776
				c-0.48,0.239-0.925,0.263-1.332,0.071c-0.408-0.192-0.721-0.479-0.937-0.863c-0.216-0.385-0.3-0.817-0.252-1.296
				c0.048-0.48,0.312-0.864,0.792-1.152c3.408-2.016,6.743-4.572,10.008-7.668c3.264-3.096,6.168-6.491,8.712-10.188
				C388.222,47.322,389.147,46.699,390.227,46.603z M404.879,44.154h26.136c0.815,0,1.428-0.264,1.836-0.792
				c0.407-0.528,0.612-1.092,0.612-1.692c0-0.6-0.205-1.163-0.612-1.691c-0.408-0.528-1.021-0.792-1.836-0.792h-26.136V23.274
				h22.896c0.864,0,1.5-0.252,1.908-0.756c0.407-0.505,0.612-1.056,0.612-1.656c0-0.6-0.205-1.152-0.612-1.656
				c-0.408-0.504-1.044-0.756-1.908-0.756h-22.896v-5.832c0-1.199-0.385-2.111-1.152-2.736c-0.769-0.623-1.608-0.936-2.52-0.936
				c-0.913,0-1.753,0.313-2.521,0.936c-0.769,0.625-1.152,1.537-1.152,2.736v5.832h-22.968c-0.816,0-1.416,0.252-1.8,0.756
				c-0.385,0.504-0.576,1.057-0.576,1.656c0,0.601,0.191,1.151,0.576,1.656c0.384,0.504,0.983,0.756,1.8,0.756h22.968v15.912
				h-26.208c-0.72,0-1.272,0.264-1.655,0.792c-0.385,0.528-0.576,1.092-0.576,1.691c0,0.601,0.191,1.164,0.576,1.692
				c0.383,0.528,0.936,0.792,1.655,0.792h26.208v26.64c0,1.152,0.384,2.027,1.152,2.628c0.768,0.6,1.607,0.9,2.521,0.9
				c0.911,0,1.751-0.288,2.52-0.864c0.768-0.576,1.152-1.465,1.152-2.664V44.154z M380.759,25.326
				c-0.433,0.12-0.781,0.349-1.044,0.684c-0.265,0.337-0.396,0.745-0.396,1.225c0,0.48,0.145,0.912,0.433,1.296
				c0.959,1.151,1.751,2.16,2.376,3.023c0.623,0.864,1.319,1.921,2.088,3.168c0.479,0.817,1.044,1.332,1.691,1.549
				c0.648,0.216,1.296,0.228,1.944,0.035c0.648-0.19,1.235-0.54,1.764-1.044s0.9-1.08,1.116-1.728
				c0.216-0.648,0.228-1.319,0.036-2.016c-0.192-0.695-0.673-1.308-1.44-1.837c-0.96-0.671-1.956-1.296-2.987-1.871
				c-1.033-0.576-2.389-1.32-4.068-2.232C381.695,25.29,381.191,25.207,380.759,25.326z M434.507,64.242
				c0.167,1.057,0,2.016-0.504,2.88s-1.272,1.5-2.305,1.908c-1.032,0.407-2.1,0.252-3.204-0.468c-3.312-2.113-6.6-4.572-9.863-7.381
				c-3.265-2.808-6.673-6.347-10.225-10.619c-0.48-0.576-0.684-1.116-0.611-1.62c0.071-0.504,0.275-0.924,0.611-1.261
				c0.336-0.335,0.744-0.54,1.225-0.611c0.479-0.072,0.911,0.061,1.296,0.396c1.296,1.105,2.735,2.28,4.319,3.528
				c1.584,1.249,3.288,2.509,5.112,3.78c1.824,1.272,3.744,2.496,5.76,3.672c2.017,1.177,4.08,2.268,6.192,3.275
				C433.607,62.347,434.338,63.187,434.507,64.242z M417.515,33.858c0.936-0.672,1.908-1.416,2.916-2.232
				c1.247-0.96,1.8-1.991,1.656-3.096c-0.145-1.104-0.612-1.991-1.404-2.664c-0.792-0.672-1.729-0.983-2.808-0.937
				c-1.08,0.049-1.98,0.721-2.7,2.017c-0.864,1.632-1.561,2.88-2.088,3.744c-0.529,0.863-1.105,1.728-1.729,2.592
				c-0.336,0.432-0.48,0.889-0.432,1.368c0.047,0.48,0.228,0.876,0.54,1.188c0.312,0.313,0.707,0.517,1.188,0.612
				c0.479,0.097,0.983-0.023,1.513-0.36C415.463,35.274,416.579,34.531,417.515,33.858z"/>
		</g>
	</g>
</g>
</svg>