<!-- Generator: Adobe Illustrator 24.1.3, SVG Export Plug-In  -->
<svg version="1.1" xmlns="http://www.w3.org/2000/svg" xmlns:xlink="http://www.w3.org/1999/xlink" x="0px" y="0px"
	 width="868.421px" height="229.787px" viewBox="0 0 868.421 229.787"
	 style="overflow:visible;enable-background:new 0 0 868.421 229.787;" xml:space="preserve">
<style type="text/css">
	.st0{fill:#CBDFEF;}
	.st1{fill:#1C3B94;}
	.st2{fill:none;stroke:#1C3B94;stroke-width:3.3135;stroke-miterlimit:10;}
	.st3{fill:none;}
	.st4{font-family:'HYQingFenTi-W';}
	.st5{font-size:57px;}
</style>
<defs>
</defs>
<g>
	<rect x="365.166" class="st0" width="503.255" height="184.237"/>
	<g>
		<g>
			<path class="st1" d="M54.084,89.021c0.379-0.684,0.892-1.063,1.539-1.14c0.646-0.075,1.225,0.039,1.738,0.342
				c0.513,0.305,0.864,0.76,1.055,1.368c0.189,0.608,0.057,1.254-0.399,1.938c-0.38,0.532-0.789,1.054-1.225,1.567
				c-0.438,0.513-0.932,1.035-1.482,1.567c-0.551,0.532-1.188,1.102-1.909,1.71c-0.722,0.607-1.559,1.273-2.508,1.995
				c-0.342,0.228-0.675,0.313-0.997,0.256c-0.324-0.057-0.599-0.199-0.827-0.427s-0.362-0.513-0.399-0.855
				c-0.039-0.342,0.094-0.684,0.399-1.026c0.835-0.951,1.633-1.967,2.394-3.05C52.222,92.185,53.095,90.769,54.084,89.021z
				 M60.867,66.791c-0.57,0-1.007-0.18-1.311-0.542c-0.305-0.361-0.456-0.76-0.456-1.197c0-0.437,0.151-0.835,0.456-1.197
				c0.304-0.36,0.741-0.542,1.311-0.542H73.35v-6.669c0-1.215-0.608-1.824-1.824-1.824H60.867c-0.608,0-1.064-0.18-1.368-0.542
				c-0.305-0.36-0.456-0.75-0.456-1.168c0-0.418,0.151-0.807,0.456-1.169c0.304-0.36,0.759-0.541,1.368-0.541h13.11
				c1.824,0,3.078,0.427,3.762,1.282s1.026,1.948,1.026,3.277v7.125c0,1.179-0.342,2.09-1.026,2.736
				c-0.684,0.646-1.691,0.969-3.021,0.969h-8.949c0.607,0.533,1.111,0.998,1.51,1.396s0.77,0.808,1.111,1.226
				c0.19,0.267,0.323,0.551,0.399,0.855h11.685c0.607,0,1.055,0.191,1.34,0.57c0.285,0.38,0.427,0.789,0.427,1.226
				c0,0.438-0.143,0.846-0.427,1.226c-0.285,0.38-0.732,0.57-1.34,0.57H50.721c-0.608,0-1.064-0.19-1.368-0.57
				c-0.305-0.379-0.456-0.788-0.456-1.226c0-0.437,0.151-0.845,0.456-1.226c0.304-0.379,0.759-0.57,1.368-0.57h13.281
				c-0.114-0.304-0.228-0.617-0.342-0.94c-0.114-0.323-0.266-0.693-0.456-1.112c-0.266-0.57-0.248-1.044,0.057-1.425H60.867z
				 M52.488,54.08c0-0.874,0.285-1.529,0.855-1.966c0.57-0.437,1.187-0.656,1.853-0.656c0.665,0,1.283,0.219,1.853,0.656
				c0.57,0.437,0.855,1.093,0.855,1.966v10.089c0,0.95-0.285,1.663-0.855,2.138c-0.57,0.476-1.188,0.712-1.853,0.712
				c-0.666,0-1.283-0.237-1.853-0.712c-0.57-0.475-0.855-1.188-0.855-2.138V54.08z M52.83,79.274c0-0.874,0.275-1.529,0.827-1.966
				c0.55-0.437,1.149-0.655,1.795-0.655c0.646,0,1.244,0.219,1.795,0.655c0.551,0.438,0.827,1.093,0.827,1.966v4.617
				c0,0.95-0.276,1.663-0.827,2.137c-0.551,0.476-1.149,0.713-1.795,0.713c-0.646,0-1.245-0.237-1.795-0.713
				c-0.551-0.475-0.827-1.187-0.827-2.137V79.274z M68.676,94.265c0,1.177-0.238,2.175-0.712,2.993
				c-0.476,0.816-1.264,1.643-2.366,2.479c-0.228,0.189-0.484,0.313-0.77,0.37c-0.285,0.057-0.561,0.057-0.826,0
				c-0.267-0.057-0.476-0.181-0.627-0.37c-0.152-0.191-0.228-0.456-0.228-0.798c0.076-1.672-1.122-2.603-3.591-2.793
				c-0.532-0.038-0.922-0.209-1.168-0.513c-0.248-0.304-0.371-0.627-0.371-0.969s0.114-0.655,0.342-0.94s0.55-0.428,0.969-0.428
				c1.71,0.077,2.793,0,3.249-0.228c0.456-0.229,0.684-0.722,0.684-1.482v-1.425c0-0.874,0.285-1.529,0.855-1.967
				c0.57-0.436,1.188-0.655,1.853-0.655c0.665,0,1.283,0.219,1.853,0.655c0.57,0.438,0.855,1.093,0.855,1.967V94.265z
				 M60.981,86.513c-0.57,0-1.007-0.18-1.311-0.542c-0.305-0.361-0.456-0.76-0.456-1.197c0-0.437,0.151-0.835,0.456-1.197
				c0.304-0.361,0.741-0.542,1.311-0.542h11.742v-1.824c0-0.417-0.085-0.721-0.256-0.912c-0.171-0.189-0.484-0.285-0.94-0.285
				H60.981c-0.608,0-1.064-0.18-1.368-0.542c-0.305-0.361-0.456-0.75-0.456-1.168c0-0.418,0.151-0.807,0.456-1.168
				c0.304-0.361,0.76-0.542,1.368-0.542h13.224c2.508,0,3.762,1.254,3.762,3.762v3.021c0,0.989-0.276,1.758-0.827,2.309
				c-0.551,0.551-1.435,0.827-2.65,0.827H60.981z M61.038,60.806c-0.57,0-1.007-0.171-1.311-0.513
				c-0.305-0.342-0.456-0.731-0.456-1.168c0-0.436,0.151-0.827,0.456-1.168c0.303-0.342,0.741-0.513,1.311-0.513h9.12
				c0.607,0,1.055,0.171,1.339,0.513c0.285,0.342,0.428,0.732,0.428,1.168c0,0.438-0.143,0.827-0.428,1.168
				c-0.285,0.342-0.732,0.513-1.339,0.513H61.038z M74.148,94.721c-0.456-0.912-0.884-1.7-1.283-2.366
				c-0.399-0.664-0.827-1.358-1.282-2.08c-0.267-0.38-0.362-0.741-0.285-1.083c0.076-0.342,0.247-0.607,0.513-0.798
				c0.265-0.19,0.579-0.294,0.94-0.313c0.36-0.019,0.693,0.085,0.998,0.313c0.949,0.761,1.738,1.425,2.365,1.995
				s1.244,1.178,1.853,1.824c0.532,0.608,0.712,1.226,0.542,1.853s-0.513,1.121-1.026,1.482c-0.513,0.36-1.093,0.513-1.739,0.456
				C75.097,95.946,74.565,95.519,74.148,94.721z M94.953,80.927c0.456-0.646,0.969-1.073,1.539-1.283
				c0.57-0.208,1.13-0.266,1.682-0.171c0.55,0.095,1.035,0.323,1.454,0.684c0.417,0.361,0.731,0.798,0.94,1.311
				c0.208,0.513,0.256,1.083,0.143,1.71c-0.114,0.627-0.456,1.245-1.026,1.853c-1.14,1.254-2.337,2.461-3.591,3.619
				c-1.254,1.16-2.65,2.309-4.189,3.449s-3.269,2.309-5.187,3.505c-1.919,1.197-4.152,2.46-6.697,3.791
				c-0.533,0.304-1.007,0.379-1.425,0.228c-0.418-0.152-0.732-0.399-0.94-0.741c-0.209-0.342-0.285-0.722-0.228-1.14
				c0.057-0.419,0.275-0.741,0.655-0.969c1.938-1.14,3.705-2.337,5.301-3.591s3.078-2.537,4.446-3.848
				c1.368-1.311,2.631-2.669,3.791-4.076C92.777,83.853,93.889,82.409,94.953,80.927z M91.989,51.971
				c0.684-0.912,1.482-1.377,2.394-1.396c0.912-0.019,1.672,0.228,2.28,0.741c0.607,0.513,0.95,1.217,1.026,2.109
				c0.076,0.893-0.362,1.795-1.311,2.707c-1.064,1.026-2.081,1.948-3.05,2.765c-0.969,0.818-1.958,1.596-2.964,2.337
				c-1.007,0.741-2.081,1.473-3.22,2.195c-1.14,0.722-2.414,1.482-3.819,2.28c-0.533,0.305-1.007,0.409-1.425,0.313
				c-0.418-0.094-0.741-0.294-0.969-0.599c-0.228-0.304-0.313-0.664-0.256-1.083c0.057-0.417,0.294-0.798,0.712-1.14
				c1.026-0.798,1.976-1.615,2.85-2.451c0.874-0.835,1.729-1.7,2.565-2.593c0.835-0.893,1.682-1.843,2.537-2.85
				C90.193,54.299,91.077,53.187,91.989,51.971z M93.756,66.506c0.721-0.949,1.539-1.453,2.451-1.51
				c0.912-0.057,1.671,0.181,2.28,0.712c0.607,0.533,0.94,1.254,0.998,2.166s-0.39,1.844-1.339,2.793
				c-0.989,0.989-1.995,1.91-3.021,2.765c-1.026,0.855-2.119,1.71-3.278,2.565c-1.16,0.855-2.414,1.729-3.762,2.622
				c-1.35,0.893-2.86,1.833-4.532,2.821c-0.494,0.305-0.95,0.399-1.368,0.285c-0.418-0.114-0.741-0.332-0.969-0.656
				c-0.228-0.322-0.333-0.692-0.313-1.111c0.019-0.417,0.218-0.778,0.599-1.083c1.33-1.063,2.555-2.089,3.676-3.078
				c1.121-0.987,2.166-1.975,3.135-2.964c0.969-0.988,1.899-1.995,2.793-3.021C91.998,68.786,92.881,67.685,93.756,66.506z"/>
			<path class="st1" d="M108.063,57.272c0-0.912,0.275-1.596,0.826-2.052c0.551-0.456,1.149-0.684,1.795-0.684
				c0.646,0,1.245,0.228,1.796,0.684c0.55,0.456,0.826,1.14,0.826,2.052v34.941c0,0.912-0.276,1.606-0.826,2.081
				c-0.551,0.475-1.15,0.712-1.796,0.712c-0.646,0-1.245-0.237-1.795-0.712c-0.551-0.475-0.826-1.168-0.826-2.081V57.272z
				 M114.96,89.534c-0.342-0.418-0.513-0.864-0.513-1.34c0-0.475,0.171-0.921,0.513-1.339c0.342-0.417,0.835-0.627,1.482-0.627h1.14
				V59.552c0-0.304-0.039-0.56-0.114-0.77c-0.077-0.208-0.266-0.313-0.57-0.313h-0.456c-0.646,0-1.131-0.2-1.454-0.599
				c-0.323-0.399-0.484-0.845-0.484-1.339c0-0.494,0.161-0.94,0.484-1.34c0.322-0.399,0.807-0.598,1.454-0.598h2.736
				c1.292,0,2.175,0.409,2.65,1.225c0.475,0.818,0.713,1.739,0.713,2.765v28.728c0,0.798-0.248,1.473-0.741,2.023
				c-0.494,0.551-1.121,0.827-1.881,0.827h-3.477C115.795,90.161,115.302,89.953,114.96,89.534z M130.236,99.252
				c-0.533,0.437-1.121,0.656-1.767,0.656c-0.646,0-1.235-0.219-1.767-0.656c-0.532-0.437-0.798-1.111-0.798-2.023V58.07
				c0-0.912,0.266-1.586,0.798-2.023c0.532-0.437,1.121-0.646,1.767-0.627c0.646,0.02,1.234,0.257,1.767,0.712
				c0.532,0.456,0.798,1.14,0.798,2.052v39.045C131.034,98.141,130.768,98.815,130.236,99.252z M156.028,58.726
				c-0.134-0.665-0.38-1.234-0.741-1.71c-0.361-0.475-0.855-0.845-1.482-1.111c-0.627-0.266-1.435-0.399-2.422-0.399h-10.089
				c0.379-0.417,0.741-0.845,1.083-1.282c0.342-0.437,0.703-0.94,1.083-1.511c0.607-0.912,0.76-1.738,0.456-2.479
				c-0.305-0.741-0.789-1.263-1.454-1.567c-0.666-0.304-1.378-0.351-2.138-0.143c-0.76,0.209-1.273,0.808-1.539,1.796
				c-0.266,0.874-0.532,1.748-0.798,2.622c-0.266,0.875-0.589,1.73-0.969,2.565h-3.078c-0.646,0-1.122,0.2-1.425,0.599
				c-0.304,0.399-0.456,0.836-0.456,1.311c0,0.476,0.152,0.912,0.456,1.311c0.304,0.399,0.779,0.599,1.425,0.599h14.934
				c1.443,0,2.166,0.798,2.166,2.394v27.93c0,1.521-0.362,2.528-1.083,3.021c-0.723,0.494-2.129,0.627-4.218,0.399
				c-0.38-0.038-0.675,0.066-0.883,0.313c-0.209,0.247-0.333,0.541-0.371,0.883c-0.038,0.342,0.028,0.665,0.2,0.969
				c0.171,0.304,0.465,0.475,0.883,0.513c1.824,0.189,3.068,0.542,3.733,1.055c0.665,0.513,0.94,1.148,0.827,1.909
				c-0.114,0.684,0.123,1.121,0.712,1.311c0.589,0.19,1.263,0.019,2.023-0.513c1.292-0.95,2.175-1.919,2.65-2.907
				c0.475-0.989,0.713-2.28,0.713-3.876V60.92C156.228,60.122,156.161,59.391,156.028,58.726z M138.672,69.698
				c0-0.874-0.228-1.529-0.684-1.967c-0.456-0.437-0.969-0.655-1.539-0.655c-0.57,0-1.083,0.219-1.539,0.655
				c-0.456,0.438-0.684,1.093-0.684,1.967v13.908c0,0.875,0.228,1.521,0.684,1.938c0.456,0.419,0.969,0.627,1.539,0.627
				c0.57,0,1.083-0.208,1.539-0.627c0.456-0.417,0.684-1.063,0.684-1.938V69.698z M141.18,67.247c-0.533,0-0.94,0.19-1.226,0.57
				c-0.285,0.38-0.427,0.798-0.427,1.254s0.143,0.875,0.427,1.254c0.285,0.38,0.693,0.57,1.226,0.57h1.083
				c0.418,0,0.712,0.114,0.884,0.342c0.171,0.228,0.256,0.627,0.256,1.197v9.804h-2.223c-0.533,0-0.94,0.19-1.226,0.57
				c-0.285,0.38-0.427,0.798-0.427,1.254s0.143,0.875,0.427,1.254c0.285,0.38,0.693,0.57,1.226,0.57h3.42
				c1.026,0,1.824-0.256,2.394-0.77c0.57-0.513,0.855-1.472,0.855-2.878V71.123c0-1.216-0.248-2.166-0.741-2.85
				c-0.495-0.684-1.331-1.026-2.508-1.026H141.18z"/>
			<path class="st1" d="M174.525,95.006c-0.456,0.798-0.989,1.33-1.596,1.596c-0.608,0.266-1.197,0.313-1.767,0.143
				c-0.57-0.171-1.045-0.533-1.425-1.083c-0.38-0.551-0.57-1.283-0.57-2.195V72.263c0-0.76-0.399-1.14-1.197-1.14h-3.249
				c-0.646,0-1.131-0.208-1.454-0.627c-0.323-0.418-0.484-0.874-0.484-1.368c0-0.493,0.171-0.949,0.513-1.368
				c0.342-0.418,0.835-0.627,1.482-0.627h6.498c0.949,0,1.71,0.333,2.28,0.998c0.57,0.665,0.855,1.473,0.855,2.422v17.499
				c0,0.228,0.076,0.418,0.228,0.57c0.151,0.152,0.342,0.134,0.57-0.057L178.572,86c0.379-0.189,0.75-0.228,1.111-0.114
				c0.361,0.114,0.627,0.333,0.798,0.655c0.171,0.323,0.218,0.684,0.143,1.083c-0.077,0.399-0.362,0.789-0.855,1.168
				c-0.875,0.646-1.787,1.539-2.736,2.679C176.082,92.612,175.246,93.79,174.525,95.006z M166.545,52.655
				c-0.267-0.38-0.362-0.76-0.285-1.14c0.076-0.379,0.237-0.684,0.484-0.912c0.247-0.228,0.57-0.361,0.969-0.399
				c0.399-0.038,0.788,0.114,1.168,0.456c1.824,1.559,3.268,2.87,4.332,3.933c1.063,1.064,1.957,2.014,2.679,2.85
				c0.494,0.57,0.76,1.149,0.798,1.738c0.037,0.59-0.077,1.131-0.342,1.625c-0.266,0.494-0.646,0.893-1.14,1.197
				c-0.495,0.305-1.026,0.476-1.596,0.513c-0.57,0.039-1.121-0.094-1.653-0.399c-0.533-0.304-0.969-0.835-1.311-1.596
				c-0.456-1.063-0.865-1.975-1.226-2.736c-0.362-0.76-0.704-1.434-1.026-2.023c-0.323-0.589-0.627-1.121-0.912-1.596
				C167.2,53.691,166.887,53.187,166.545,52.655z M213.171,83.036h-14.022v9.177h7.239V87.71c0-0.874,0.266-1.529,0.798-1.966
				c0.531-0.437,1.13-0.656,1.795-0.656c0.664,0,1.263,0.219,1.795,0.656c0.532,0.437,0.798,1.093,0.798,1.966v9.177
				c0,0.57-0.19,1.044-0.57,1.425c-0.38,0.379-0.827,0.646-1.339,0.798c-0.513,0.151-1.036,0.151-1.568,0
				c-0.532-0.152-0.95-0.495-1.254-1.026c-0.57-0.912-1.15-1.51-1.738-1.795c-0.59-0.285-1.264-0.427-2.023-0.427h-13.737
				c-0.533,0-0.94-0.191-1.226-0.57c-0.285-0.38-0.427-0.798-0.427-1.254s0.143-0.874,0.427-1.254
				c0.285-0.379,0.693-0.57,1.226-0.57h4.731v-9.177h-14.193c-0.57,0-0.989-0.189-1.254-0.57c-0.267-0.379-0.399-0.807-0.399-1.282
				c0-0.475,0.132-0.902,0.399-1.282c0.265-0.38,0.684-0.57,1.254-0.57h14.193v-2.28c0-0.874,0.266-1.539,0.798-1.995
				c0.531-0.456,1.111-0.684,1.738-0.684s1.206,0.219,1.738,0.655c0.532,0.438,0.798,1.112,0.798,2.024v2.28h14.022
				c0.607,0,1.054,0.19,1.339,0.57s0.428,0.808,0.428,1.282c0,0.476-0.143,0.903-0.428,1.282
				C214.225,82.847,213.778,83.036,213.171,83.036z M208.269,50.204c0.912-0.266,1.653-0.18,2.223,0.256
				c0.57,0.438,0.912,0.979,1.026,1.625c0.114,0.646-0.057,1.283-0.513,1.91s-1.254,1.017-2.394,1.168
				c-1.71,0.228-3.534,0.438-5.472,0.627c-1.938,0.19-4.057,0.371-6.355,0.542c-2.299,0.171-4.798,0.323-7.496,0.456
				c-2.698,0.133-5.663,0.256-8.892,0.371c-0.342,0-0.618-0.133-0.827-0.399c-0.209-0.265-0.333-0.56-0.371-0.883
				c-0.038-0.322,0.019-0.627,0.171-0.912c0.151-0.285,0.399-0.446,0.741-0.485c3.154-0.228,6.156-0.513,9.006-0.855
				s5.491-0.712,7.923-1.111c2.431-0.399,4.597-0.798,6.498-1.197C205.437,50.916,207.015,50.546,208.269,50.204z M186.894,70.724
				c-0.419,0.95-0.969,1.919-1.653,2.907c-0.684,0.989-1.616,2.243-2.793,3.762c-0.305,0.418-0.665,0.646-1.083,0.684
				c-0.418,0.038-0.789-0.047-1.111-0.257c-0.323-0.208-0.551-0.521-0.684-0.94c-0.134-0.417-0.048-0.892,0.256-1.425
				c0.57-0.988,1.026-1.957,1.368-2.907c0.342-0.949,0.721-2.032,1.14-3.249c0.304-0.912,0.778-1.5,1.425-1.767
				c0.646-0.266,1.254-0.294,1.824-0.086c0.57,0.209,1.016,0.608,1.339,1.197C187.245,69.233,187.236,69.926,186.894,70.724z
				 M186.438,96.773c0,0.798-0.267,1.406-0.798,1.824c-0.532,0.417-1.121,0.627-1.767,0.627c-0.647,0-1.235-0.209-1.767-0.627
				c-0.533-0.418-0.798-1.026-0.798-1.824V87.71c0-0.874,0.266-1.529,0.798-1.966c0.532-0.437,1.12-0.656,1.767-0.656
				c0.646,0,1.234,0.219,1.767,0.656c0.532,0.437,0.798,1.093,0.798,1.966V96.773z M184.101,58.412
				c1.063,1.103,1.91,1.995,2.537,2.679c0.627,0.685,1.149,1.292,1.567,1.824c0.57,0.761,0.731,1.482,0.485,2.166
				c-0.248,0.684-0.656,1.188-1.226,1.511c-0.57,0.323-1.188,0.399-1.853,0.228c-0.666-0.171-1.15-0.75-1.454-1.738
				c-0.418-1.254-0.779-2.27-1.083-3.049c-0.305-0.779-0.608-1.491-0.912-2.138c-0.152-0.304-0.181-0.599-0.085-0.883
				c0.095-0.285,0.247-0.513,0.456-0.684c0.208-0.171,0.465-0.256,0.77-0.256C183.606,58.07,183.873,58.184,184.101,58.412z
				 M209.637,73.574h-20.121c-0.57,0-0.988-0.19-1.254-0.57c-0.266-0.379-0.399-0.788-0.399-1.226c0-0.436,0.133-0.845,0.399-1.225
				c0.266-0.379,0.684-0.57,1.254-0.57h20.121c0.532,0,0.931,0.191,1.197,0.57c0.265,0.38,0.399,0.789,0.399,1.225
				c0,0.438-0.134,0.846-0.399,1.226C210.567,73.384,210.168,73.574,209.637,73.574z M195.159,57.557
				c0.722,0.989,1.368,1.9,1.938,2.736c0.57,0.836,1.121,1.729,1.653,2.679c0.493,0.836,0.579,1.587,0.256,2.251
				c-0.323,0.665-0.779,1.14-1.368,1.425c-0.589,0.285-1.216,0.323-1.881,0.114c-0.666-0.208-1.093-0.788-1.283-1.739
				c-0.228-1.14-0.447-2.156-0.655-3.049c-0.209-0.893-0.484-1.928-0.827-3.106c-0.114-0.379-0.095-0.712,0.057-0.998
				c0.151-0.285,0.351-0.494,0.599-0.627c0.247-0.133,0.513-0.18,0.798-0.143C194.731,57.14,194.968,57.291,195.159,57.557z
				 M203.481,65.48c0.342-0.912,0.655-1.881,0.94-2.907c0.285-1.026,0.617-2.317,0.998-3.876c0.228-0.912,0.664-1.491,1.311-1.739
				c0.646-0.247,1.272-0.256,1.881-0.028c0.607,0.228,1.083,0.675,1.425,1.339c0.342,0.666,0.285,1.454-0.171,2.366
				c-0.57,1.216-1.168,2.29-1.795,3.22c-0.627,0.932-1.378,1.91-2.251,2.936c-0.228,0.305-0.513,0.484-0.855,0.542
				c-0.342,0.057-0.646,0.02-0.912-0.114c-0.266-0.133-0.466-0.342-0.599-0.627C203.319,66.307,203.329,65.936,203.481,65.48z"/>
			<path class="st1" d="M268.803,60.521h-45.372c-0.684,0-1.197-0.208-1.539-0.627c-0.342-0.417-0.513-0.864-0.513-1.339
				c0-0.475,0.171-0.921,0.513-1.34c0.342-0.417,0.855-0.627,1.539-0.627h45.372c0.646,0,1.14,0.209,1.482,0.627
				c0.342,0.419,0.513,0.865,0.513,1.34c0,0.476-0.162,0.922-0.484,1.339C269.99,60.312,269.487,60.521,268.803,60.521z
				 M263.388,68.9h-34.485c-0.722,0-1.264-0.2-1.625-0.599c-0.362-0.399-0.542-0.845-0.542-1.34c0-0.493,0.18-0.94,0.542-1.339
				c0.361-0.399,0.902-0.599,1.625-0.599h34.485c0.684,0,1.206,0.2,1.567,0.599c0.361,0.399,0.542,0.846,0.542,1.339
				c0,0.495-0.171,0.94-0.513,1.34C264.642,68.701,264.109,68.9,263.388,68.9z M263.274,77.051h-34.257
				c-0.722,0-1.264-0.2-1.625-0.599c-0.361-0.399-0.542-0.845-0.542-1.339c0-0.494,0.18-0.94,0.542-1.34
				c0.361-0.399,0.902-0.599,1.625-0.599h34.257c0.684,0,1.206,0.2,1.567,0.599c0.361,0.399,0.542,0.846,0.542,1.34
				c0,0.494-0.171,0.94-0.513,1.339C264.528,76.852,263.995,77.051,263.274,77.051z M227.421,97.115
				c0,0.912,0.304,1.586,0.912,2.023c0.607,0.437,1.263,0.655,1.966,0.655c0.703,0,1.358-0.219,1.966-0.655
				c0.607-0.438,0.912-1.111,0.912-2.023V83.948c0-0.912-0.305-1.586-0.912-2.023c-0.608-0.437-1.264-0.656-1.966-0.656
				c-0.704,0-1.359,0.219-1.966,0.656c-0.608,0.437-0.912,1.111-0.912,2.023V97.115z M259.683,98.939
				c0.342,0.456,0.789,0.731,1.34,0.827c0.55,0.094,1.083,0.057,1.596-0.114c0.513-0.171,0.95-0.494,1.311-0.969
				c0.361-0.476,0.542-1.055,0.542-1.738v-10.83c0-3.116-1.559-4.674-4.674-4.674h-23.484c-0.608,0-1.064,0.2-1.368,0.599
				c-0.305,0.399-0.456,0.846-0.456,1.339c0,0.495,0.151,0.94,0.456,1.34c0.304,0.399,0.76,0.598,1.368,0.598h20.748
				c0.607,0,1.035,0.114,1.282,0.342c0.247,0.228,0.371,0.627,0.371,1.197v5.871h-22.401c-0.608,0-1.064,0.2-1.368,0.599
				c-0.305,0.399-0.456,0.835-0.456,1.311c0,0.475,0.151,0.912,0.456,1.311c0.304,0.399,0.76,0.599,1.368,0.599h19.152
				c0.835,0,1.576,0.18,2.223,0.542C258.333,97.447,258.999,98.064,259.683,98.939z M244.236,48.152
				c1.558,0.988,2.944,1.958,4.161,2.907c0.835,0.722,1.187,1.463,1.054,2.223c-0.133,0.761-0.513,1.368-1.14,1.824
				c-0.627,0.456-1.359,0.666-2.195,0.627c-0.836-0.037-1.501-0.493-1.995-1.368c-0.836-1.482-1.672-2.869-2.508-4.161
				c-0.266-0.379-0.371-0.76-0.313-1.14c0.057-0.379,0.228-0.684,0.513-0.912c0.285-0.229,0.636-0.361,1.054-0.399
				C243.286,47.716,243.742,47.849,244.236,48.152z"/>
			<path class="st1" d="M29.745,111.116c0.342-1.026,0.921-1.682,1.739-1.967c0.816-0.285,1.605-0.285,2.365,0
				c0.76,0.285,1.349,0.827,1.767,1.625c0.418,0.798,0.379,1.73-0.114,2.793c-1.673,3.686-3.554,7.296-5.643,10.83
				c-2.09,3.534-4.427,7.049-7.011,10.545c-0.38,0.494-0.77,0.76-1.168,0.798c-0.399,0.038-0.732-0.066-0.998-0.313
				c-0.266-0.247-0.447-0.589-0.542-1.026c-0.095-0.436-0.01-0.864,0.257-1.282c0.835-1.405,1.633-2.878,2.394-4.417
				c0.759-1.539,1.519-3.201,2.28-4.988c0.76-1.786,1.529-3.714,2.309-5.785C28.158,115.857,28.947,113.587,29.745,111.116z
				 M32.538,156.887c0,0.988-0.294,1.729-0.883,2.223c-0.589,0.493-1.226,0.741-1.91,0.741c-0.684,0-1.321-0.248-1.909-0.741
				c-0.59-0.495-0.884-1.235-0.884-2.223v-23.826c0-1.026,0.285-1.786,0.855-2.28c0.57-0.494,1.206-0.741,1.91-0.741
				c0.703,0,1.349,0.248,1.938,0.741c0.589,0.494,0.883,1.254,0.883,2.28V156.887z M39.549,120.236c-0.722,0-1.264-0.2-1.625-0.599
				c-0.362-0.399-0.542-0.845-0.542-1.34c0-0.493,0.18-0.94,0.542-1.339c0.361-0.399,0.902-0.598,1.625-0.598h6.897l1.14-5.814
				c0.151-0.949,0.598-1.614,1.339-1.995c0.741-0.379,1.491-0.503,2.251-0.371c0.76,0.134,1.415,0.484,1.966,1.055
				c0.551,0.57,0.731,1.311,0.542,2.223l-1.083,4.902h14.535c0.722,0,1.254,0.199,1.596,0.598c0.342,0.399,0.513,0.846,0.513,1.339
				c0,0.495-0.171,0.941-0.513,1.34c-0.342,0.399-0.875,0.599-1.596,0.599H51.69c-0.305,1.103-0.599,2.204-0.884,3.306
				c-0.285,1.103-0.598,2.204-0.94,3.306h20.463c0.684,0,1.188,0.209,1.511,0.627c0.322,0.418,0.484,0.865,0.484,1.339
				c0,0.476-0.162,0.922-0.484,1.34c-0.323,0.418-0.827,0.627-1.511,0.627h-21.66c-0.267,0.798-0.542,1.605-0.827,2.422
				c-0.285,0.818-0.58,1.663-0.883,2.537c-0.114,0.342-0.105,0.637,0.028,0.883c0.133,0.248,0.408,0.371,0.827,0.371h17.955
				c0.798,0,1.472,0.171,2.023,0.513c0.55,0.342,0.94,0.798,1.168,1.368c0.228,0.57,0.285,1.217,0.171,1.938
				c-0.114,0.722-0.456,1.463-1.026,2.223l-5.016,5.928c-0.57,0.608-1.217,0.922-1.938,0.94c-0.722,0.02-1.349-0.142-1.881-0.484
				c-0.533-0.342-0.875-0.835-1.026-1.482c-0.152-0.646,0.057-1.311,0.627-1.995l2.565-3.648c0.228-0.379,0.265-0.731,0.114-1.054
				c-0.152-0.323-0.494-0.485-1.026-0.485H44.394c-1.559,0-2.622-0.446-3.192-1.339c-0.57-0.892-0.608-1.985-0.114-3.277
				c0.304-0.874,0.607-1.748,0.912-2.622c0.304-0.874,0.607-1.786,0.912-2.736h-6.555c-0.684,0-1.188-0.208-1.511-0.627
				c-0.323-0.418-0.484-0.864-0.484-1.34c0-0.475,0.161-0.921,0.484-1.339c0.323-0.417,0.827-0.627,1.511-0.627h7.638
				c0.304-0.988,0.579-2.033,0.827-3.135c0.247-1.102,0.503-2.26,0.77-3.477H39.549z M59.556,158.996
				c-1.559-1.103-2.992-2.081-4.303-2.936s-2.65-1.691-4.019-2.508c-1.368-0.817-2.822-1.662-4.36-2.537
				c-1.539-0.874-3.297-1.861-5.273-2.964c-0.532-0.266-0.855-0.617-0.969-1.055c-0.114-0.437-0.077-0.827,0.114-1.168
				c0.19-0.342,0.503-0.599,0.941-0.77c0.436-0.171,0.921-0.161,1.453,0.028c2.204,0.836,4.332,1.653,6.384,2.451
				c2.052,0.798,3.961,1.567,5.729,2.309s3.363,1.444,4.788,2.109c1.425,0.666,2.631,1.245,3.619,1.739
				c1.14,0.57,1.786,1.33,1.938,2.28c0.151,0.949-0.01,1.786-0.484,2.508c-0.476,0.722-1.217,1.206-2.223,1.454
				C61.883,160.184,60.771,159.87,59.556,158.996z"/>
			<path class="st1" d="M88.797,119.267h3.249c0.607,0,1.063,0.2,1.368,0.599c0.304,0.399,0.456,0.836,0.456,1.311
				c0,0.476-0.152,0.912-0.456,1.311c-0.304,0.399-0.76,0.599-1.368,0.599h-3.249v8.892c0.532-0.19,1.035-0.379,1.51-0.57
				c0.475-0.19,0.941-0.379,1.396-0.57c0.456-0.189,0.835-0.199,1.14-0.028c0.304,0.171,0.503,0.418,0.599,0.741
				c0.094,0.323,0.085,0.655-0.029,0.997c-0.114,0.342-0.323,0.608-0.627,0.798c-0.76,0.456-1.463,0.883-2.109,1.282
				c-0.646,0.399-1.273,0.77-1.881,1.112v15.105c0,0.989-0.029,1.891-0.085,2.708c-0.057,0.816-0.191,1.558-0.399,2.223
				c-0.209,0.665-0.513,1.273-0.912,1.824c-0.399,0.55-0.922,1.055-1.567,1.511c-0.951,0.646-1.71,0.826-2.28,0.541
				c-0.57-0.285-0.817-0.75-0.741-1.396c0.037-0.57,0.028-1.054-0.029-1.453c-0.057-0.399-0.219-0.732-0.484-0.998
				c-0.266-0.266-0.675-0.485-1.226-0.656c-0.551-0.171-1.282-0.295-2.194-0.37c-0.456-0.039-0.789-0.219-0.998-0.542
				c-0.209-0.323-0.295-0.655-0.256-0.997c0.037-0.342,0.18-0.656,0.427-0.94c0.247-0.285,0.579-0.408,0.998-0.371
				c1.102,0.077,1.957,0.077,2.565,0c0.607-0.076,1.055-0.266,1.339-0.57c0.285-0.303,0.456-0.731,0.513-1.282
				c0.057-0.55,0.085-1.283,0.085-2.195v-9.291l-2.964,1.312c-0.875,0.38-1.587,0.409-2.138,0.085
				c-0.551-0.322-0.912-0.788-1.083-1.396c-0.171-0.607-0.124-1.234,0.143-1.881c0.266-0.646,0.798-1.102,1.596-1.368l4.446-1.481
				v-10.773H79.62c-0.608,0-1.064-0.199-1.368-0.599c-0.305-0.398-0.456-0.835-0.456-1.311c0-0.475,0.151-0.912,0.456-1.311
				c0.304-0.399,0.76-0.599,1.368-0.599h3.933v-7.98c0-0.949,0.275-1.662,0.827-2.138c0.55-0.475,1.149-0.712,1.795-0.712
				c0.646,0,1.244,0.238,1.795,0.712c0.55,0.476,0.827,1.188,0.827,2.138V119.267z M92.958,138.704
				c-0.419,0.19-0.818,0.199-1.197,0.028c-0.38-0.171-0.655-0.427-0.827-0.77c-0.171-0.342-0.219-0.703-0.142-1.083
				c0.076-0.379,0.379-0.703,0.912-0.969c1.71-0.874,3.467-1.91,5.272-3.106c1.805-1.197,3.449-2.498,4.931-3.904
				c0.607-0.57,1.273-0.807,1.995-0.713c0.721,0.095,1.282,0.38,1.682,0.855c0.399,0.476,0.56,1.064,0.484,1.767
				c-0.077,0.704-0.59,1.359-1.539,1.967c-1.445,0.988-3.106,1.947-4.987,2.878C97.66,136.586,95.466,137.602,92.958,138.704z
				 M98.031,119.609c-0.266-0.456-0.361-0.884-0.285-1.283c0.076-0.399,0.237-0.703,0.485-0.912c0.247-0.208,0.56-0.304,0.94-0.285
				c0.379,0.02,0.741,0.181,1.083,0.484c0.835,0.684,1.491,1.264,1.966,1.738c0.475,0.476,0.902,0.922,1.283,1.34
				c0.493,0.532,0.703,1.064,0.627,1.596c-0.077,0.533-0.305,0.989-0.684,1.368h4.218v-4.047c0-0.912,0.266-1.586,0.798-2.024
				c0.532-0.436,1.13-0.655,1.795-0.655c0.665,0,1.272,0.228,1.824,0.684c0.55,0.456,0.845,1.121,0.883,1.995v4.047h4.332
				c-0.38-0.456-0.38-1.026,0-1.71c0.304-0.57,0.57-1.112,0.798-1.625c0.228-0.513,0.494-1.13,0.798-1.852
				c0.342-0.874,0.845-1.377,1.511-1.511c0.665-0.132,1.263-0.028,1.795,0.313c0.532,0.342,0.902,0.836,1.112,1.482
				c0.208,0.646,0.009,1.331-0.599,2.052c-0.418,0.494-0.836,0.95-1.254,1.368c-0.419,0.419-1.007,0.912-1.767,1.482h6.099
				c0.646,0,1.13,0.199,1.453,0.599c0.323,0.398,0.485,0.826,0.485,1.282s-0.162,0.883-0.485,1.282
				c-0.323,0.399-0.808,0.599-1.453,0.599h-12.825v5.985c0,0.912-0.276,1.605-0.827,2.08c-0.551,0.476-1.16,0.713-1.824,0.713
				c-0.666,0-1.274-0.228-1.824-0.684c-0.551-0.456-0.827-1.159-0.827-2.109v-5.985H94.839c-0.646,0-1.122-0.199-1.425-0.599
				c-0.304-0.399-0.456-0.826-0.456-1.282s0.151-0.884,0.456-1.282c0.304-0.399,0.779-0.599,1.425-0.599h5.244
				c-0.152-0.151-0.248-0.322-0.285-0.513c-0.342-0.76-0.646-1.405-0.912-1.938C98.62,120.673,98.334,120.142,98.031,119.609z
				 M122.883,110.09c0.912-0.151,1.633,0.029,2.166,0.542c0.532,0.513,0.827,1.103,0.883,1.767c0.057,0.666-0.152,1.302-0.627,1.91
				c-0.476,0.608-1.245,0.95-2.309,1.026c-1.786,0.114-3.572,0.219-5.358,0.313c-1.787,0.096-3.733,0.171-5.842,0.228
				s-4.466,0.095-7.068,0.114c-2.604,0.02-5.615,0.028-9.035,0.028c-0.38,0-0.684-0.151-0.912-0.456
				c-0.228-0.304-0.352-0.636-0.371-0.998c-0.02-0.36,0.076-0.693,0.285-0.997c0.208-0.304,0.542-0.475,0.998-0.513
				c2.85-0.151,5.443-0.333,7.78-0.542c2.337-0.208,4.56-0.428,6.669-0.656c2.109-0.228,4.19-0.493,6.242-0.798
				C118.437,110.755,120.603,110.432,122.883,110.09z M95.751,139.73c0-0.835,0.275-1.472,0.826-1.91
				c0.551-0.436,1.149-0.655,1.796-0.655c0.646,0,1.244,0.219,1.795,0.655c0.55,0.438,0.826,1.074,0.826,1.91v18.354
				c0,0.722-0.276,1.263-0.826,1.625c-0.551,0.361-1.15,0.542-1.795,0.542c-0.647,0-1.245-0.181-1.796-0.542
				c-0.551-0.361-0.826-0.903-0.826-1.625V139.73z M103.959,149.078c-0.57,0-0.989-0.18-1.254-0.542
				c-0.266-0.361-0.399-0.75-0.399-1.168c0-0.418,0.133-0.807,0.399-1.168c0.266-0.361,0.684-0.542,1.254-0.542h3.648v-1.368
				c0-0.835,0.265-1.462,0.798-1.881c0.532-0.418,1.121-0.627,1.767-0.627c0.646,0,1.234,0.209,1.767,0.627
				c0.532,0.418,0.798,1.045,0.798,1.881v1.368h3.819c0.494,0,0.874,0.181,1.14,0.542c0.266,0.361,0.399,0.75,0.399,1.168
				c0,0.418-0.133,0.808-0.399,1.168c-0.266,0.362-0.646,0.542-1.14,0.542h-3.819v5.016h6.84v-11.229
				c0-0.646-0.152-1.149-0.456-1.511c-0.304-0.36-0.704-0.542-1.197-0.542h-13.908c-0.57,0-1.007-0.18-1.311-0.542
				c-0.304-0.36-0.456-0.77-0.456-1.226s0.151-0.864,0.456-1.226c0.304-0.36,0.741-0.541,1.311-0.541h16.416
				c0.835,0,1.539,0.133,2.109,0.399c0.57,0.266,1.026,0.627,1.368,1.083c0.342,0.456,0.589,0.969,0.741,1.539
				c0.151,0.57,0.228,1.14,0.228,1.71v16.074c0,0.494-0.171,0.902-0.513,1.226c-0.342,0.322-0.732,0.542-1.168,0.655
				c-0.438,0.114-0.883,0.123-1.339,0.029c-0.456-0.095-0.798-0.333-1.026-0.712c-0.418-0.608-0.883-1.036-1.396-1.283
				c-0.513-0.248-1.207-0.371-2.08-0.371h-13.338c-0.608,0-1.064-0.181-1.368-0.542c-0.305-0.361-0.456-0.769-0.456-1.225
				s0.151-0.865,0.456-1.226c0.304-0.362,0.76-0.542,1.368-0.542h3.591v-5.016H103.959z M127.785,133.517
				c0.988,0.38,1.577,0.922,1.767,1.625c0.19,0.704,0.133,1.368-0.171,1.995c-0.305,0.627-0.798,1.093-1.482,1.396
				c-0.684,0.305-1.388,0.248-2.109-0.171c-1.824-1.063-3.525-2.156-5.102-3.278c-1.578-1.12-3.297-2.422-5.159-3.904
				c-0.456-0.379-0.694-0.77-0.712-1.168c-0.02-0.399,0.085-0.731,0.313-0.998c0.228-0.266,0.542-0.446,0.94-0.542
				c0.399-0.095,0.788-0.028,1.168,0.199c1.633,0.989,3.343,1.872,5.13,2.651C124.155,132.102,125.961,132.833,127.785,133.517z"/>
			<path class="st1" d="M137.874,120.806c0-0.95,0.285-1.653,0.855-2.109c0.57-0.456,1.197-0.684,1.881-0.684
				s1.311,0.228,1.881,0.684c0.57,0.456,0.855,1.159,0.855,2.109v35.169c0,0.988-0.285,1.719-0.855,2.194
				c-0.57,0.475-1.197,0.712-1.881,0.712s-1.311-0.237-1.881-0.712c-0.57-0.476-0.855-1.207-0.855-2.194V120.806z M145.17,137.193
				c-0.342-0.399-0.513-0.826-0.513-1.282s0.171-0.884,0.513-1.283c0.342-0.399,0.835-0.598,1.482-0.598h6.042v-10.089
				c0-0.684-0.228-1.215-0.684-1.596c-0.456-0.379-1.045-0.57-1.767-0.57h-3.591c-0.608,0-1.064-0.18-1.368-0.542
				c-0.305-0.36-0.476-0.77-0.513-1.226c-0.039-0.456,0.066-0.883,0.313-1.282c0.247-0.399,0.636-0.636,1.168-0.712
				c0.151-1.063,0.275-2.175,0.371-3.334c0.094-1.159,0.161-2.023,0.199-2.594c0.038-1.063,0.389-1.824,1.055-2.28
				c0.664-0.456,1.358-0.627,2.081-0.513c0.721,0.114,1.33,0.494,1.824,1.14c0.494,0.646,0.607,1.52,0.342,2.622
				c-0.191,0.646-0.456,1.377-0.798,2.194c-0.342,0.818-0.779,1.72-1.311,2.708h3.021c1.9,0,3.221,0.484,3.961,1.454
				c0.741,0.969,1.112,2.137,1.112,3.505v27.93c0,1.331-0.352,2.394-1.055,3.192c-0.704,0.798-1.948,1.197-3.733,1.197h-6.669
				c-0.646,0-1.122-0.2-1.425-0.599c-0.305-0.399-0.456-0.835-0.456-1.311c0-0.475,0.151-0.912,0.456-1.311
				c0.303-0.399,0.778-0.599,1.425-0.599h6.042v-13.623h-6.042C146.005,137.792,145.512,137.593,145.17,137.193z M159.363,129.441
				c0.151,0.399,0.389,0.684,0.712,0.855c0.323,0.171,0.684,0.219,1.083,0.142c0.399-0.076,0.77-0.361,1.112-0.855
				c1.596-2.394,3.021-4.949,4.275-7.667c1.254-2.716,2.28-5.786,3.078-9.206c0.228-1.026,0.085-1.861-0.428-2.508
				c-0.513-0.646-1.14-1.035-1.881-1.168c-0.741-0.133-1.473,0.02-2.195,0.456c-0.722,0.437-1.159,1.207-1.311,2.308
				c-0.532,3.269-1.168,6.242-1.909,8.921c-0.741,2.679-1.567,5.158-2.479,7.438C159.229,128.615,159.21,129.042,159.363,129.441z
				 M165.946,135.911c-0.627-1.482-1.207-2.773-1.738-3.876c-0.152-0.342-0.171-0.674-0.057-0.998
				c0.114-0.322,0.304-0.589,0.57-0.798c0.266-0.208,0.579-0.313,0.94-0.313c0.361,0,0.713,0.171,1.055,0.513
				c2.622,2.661,4.711,5.187,6.27,7.581c0.57,0.875,0.693,1.71,0.371,2.508c-0.323,0.798-0.836,1.396-1.539,1.795
				c-0.704,0.399-1.454,0.513-2.251,0.342c-0.798-0.171-1.368-0.77-1.71-1.795C167.209,139.046,166.573,137.393,165.946,135.911z
				 M175.066,159.68c-0.551-0.266-0.865-0.666-0.94-1.197c-0.114-0.684-0.371-1.225-0.77-1.625c-0.399-0.399-0.94-0.712-1.625-0.94
				s-1.502-0.399-2.451-0.513c-0.95-0.114-2.015-0.228-3.192-0.342c-0.418-0.038-0.732-0.219-0.94-0.542
				c-0.209-0.323-0.305-0.664-0.285-1.026c0.019-0.361,0.151-0.684,0.399-0.969c0.247-0.285,0.617-0.427,1.112-0.427
				c0.835,0.038,1.69,0.057,2.565,0.057c0.874,0,1.69-0.019,2.451-0.057c0.76-0.038,1.444-0.114,2.052-0.228
				c0.607-0.114,1.102-0.285,1.482-0.513c0.76-0.456,1.339-1.301,1.738-2.537c0.399-1.234,0.693-2.973,0.884-5.215
				c0.189-2.242,0.304-5.025,0.342-8.35c0.038-3.325,0.057-7.268,0.057-11.828c0-0.607-0.124-1.055-0.371-1.339
				c-0.248-0.285-0.712-0.428-1.396-0.428h-5.301c-0.608,0-1.064-0.2-1.368-0.599c-0.305-0.399-0.456-0.835-0.456-1.311
				c0-0.475,0.151-0.912,0.456-1.311c0.304-0.399,0.76-0.599,1.368-0.599h8.55c0.835,0,1.52,0.134,2.052,0.399
				c0.532,0.266,0.959,0.627,1.282,1.083c0.322,0.456,0.542,0.969,0.656,1.539c0.114,0.57,0.171,1.14,0.171,1.71
				c0,5.776-0.057,10.735-0.171,14.877c-0.114,4.142-0.399,7.657-0.855,10.545c-0.456,2.888-1.131,5.235-2.024,7.04
				c-0.893,1.804-2.1,3.239-3.619,4.303C176.235,159.831,175.617,159.945,175.066,159.68z"/>
			<path class="st1" d="M200.517,157.172c0,0.912-0.294,1.586-0.883,2.023c-0.589,0.437-1.245,0.656-1.966,0.656
				c-0.723,0-1.378-0.219-1.967-0.656c-0.589-0.437-0.883-1.111-0.883-2.023v-41.895c0-0.912,0.294-1.586,0.883-2.024
				c0.589-0.436,1.244-0.655,1.967-0.655c0.721,0,1.377,0.219,1.966,0.655c0.589,0.438,0.883,1.112,0.883,2.024V157.172z
				 M234.774,112.598c0.949,0,1.757,0.143,2.422,0.427c0.665,0.285,1.206,0.666,1.625,1.14c0.417,0.476,0.721,1.026,0.912,1.653
				c0.189,0.627,0.285,1.302,0.285,2.023v39.159c0,0.684-0.209,1.263-0.627,1.739c-0.418,0.475-0.903,0.798-1.453,0.969
				c-0.551,0.171-1.112,0.208-1.682,0.114c-0.57-0.095-1.026-0.371-1.368-0.827c-0.608-0.836-1.273-1.511-1.995-2.023
				c-0.722-0.513-1.634-0.77-2.736-0.77h-26.049c-0.646,0-1.122-0.2-1.425-0.599c-0.304-0.399-0.456-0.836-0.456-1.311
				c0-0.475,0.151-0.912,0.456-1.311c0.304-0.399,0.779-0.599,1.425-0.599h30.153v-33.687c0-0.722-0.209-1.283-0.627-1.682
				c-0.418-0.399-0.989-0.599-1.71-0.599h-27.816c-0.646,0-1.131-0.199-1.454-0.599c-0.323-0.399-0.484-0.835-0.484-1.311
				c0-0.475,0.161-0.912,0.484-1.312c0.322-0.398,0.807-0.598,1.454-0.598H234.774z M229.701,131.18h-10.146
				c-0.418,2.015-1.017,3.857-1.795,5.529c-0.779,1.673-1.767,3.259-2.964,4.76c-1.197,1.501-2.604,2.945-4.218,4.332
				c-1.615,1.388-3.487,2.803-5.614,4.246c-0.342,0.229-0.694,0.295-1.055,0.2c-0.361-0.094-0.655-0.285-0.883-0.57
				c-0.228-0.285-0.352-0.607-0.371-0.969c-0.02-0.361,0.143-0.693,0.484-0.998c1.482-1.291,2.812-2.565,3.99-3.819
				c1.177-1.254,2.203-2.545,3.078-3.876c0.874-1.33,1.614-2.716,2.223-4.161c0.607-1.444,1.102-3.001,1.482-4.674h-8.835
				c-0.646,0-1.14-0.2-1.482-0.599c-0.342-0.399-0.513-0.827-0.513-1.283c0-0.456,0.171-0.883,0.513-1.282
				c0.342-0.399,0.835-0.599,1.482-0.599h9.405c0.228-1.938,0.342-4.084,0.342-6.441c0-0.949,0.294-1.653,0.884-2.109
				c0.588-0.456,1.244-0.684,1.966-0.684c0.721,0,1.377,0.228,1.966,0.684c0.589,0.456,0.884,1.16,0.884,2.109
				c0,2.357-0.114,4.503-0.342,6.441h9.519c0.646,0,1.13,0.2,1.454,0.599c0.322,0.399,0.484,0.827,0.484,1.282
				c0,0.456-0.162,0.884-0.484,1.283C230.831,130.98,230.347,131.18,229.701,131.18z M221.949,136.652
				c2.28,1.938,4.123,3.563,5.529,4.873c1.405,1.311,2.488,2.366,3.249,3.164c0.684,0.761,0.94,1.549,0.769,2.366
				c-0.171,0.817-0.561,1.473-1.168,1.966c-0.608,0.495-1.331,0.722-2.166,0.684c-0.836-0.037-1.559-0.55-2.166-1.539
				c-0.95-1.633-1.958-3.201-3.021-4.702c-1.064-1.501-2.204-3.107-3.42-4.817c-0.305-0.379-0.418-0.77-0.342-1.168
				c0.076-0.399,0.247-0.712,0.513-0.94c0.266-0.228,0.607-0.351,1.026-0.371C221.169,136.149,221.568,136.31,221.949,136.652z"/>
			<path class="st1" d="M250.221,158.711c-0.456,0.114-0.817,0.086-1.083-0.085c-0.266-0.171-0.447-0.399-0.542-0.684
				c-0.095-0.285-0.095-0.58,0-0.883c0.095-0.305,0.275-0.513,0.542-0.627c1.102-0.495,2.138-0.998,3.106-1.511
				c0.969-0.513,1.91-1.036,2.822-1.567s1.833-1.092,2.764-1.681c0.931-0.589,1.91-1.245,2.936-1.967
				c0.684-0.57,1.377-0.76,2.081-0.57c0.703,0.19,1.234,0.561,1.596,1.111c0.361,0.551,0.475,1.197,0.342,1.938
				c-0.133,0.741-0.675,1.378-1.625,1.91c-0.875,0.532-2.337,1.187-4.389,1.966C256.719,156.839,253.869,157.723,250.221,158.711z
				 M254.61,117.044c-0.608,0-1.064-0.18-1.368-0.542c-0.305-0.361-0.456-0.759-0.456-1.197c0-0.437,0.151-0.835,0.456-1.197
				c0.304-0.36,0.76-0.541,1.368-0.541h17.157v-2.451c0-0.912,0.294-1.596,0.884-2.052c0.588-0.456,1.226-0.684,1.909-0.684
				c0.684,0,1.32,0.228,1.91,0.684c0.589,0.456,0.884,1.14,0.884,2.052v2.451h17.157c0.607,0,1.073,0.181,1.396,0.541
				c0.322,0.362,0.484,0.761,0.484,1.197c0,0.438-0.162,0.836-0.484,1.197c-0.323,0.362-0.789,0.542-1.396,0.542h-17.157v3.306
				h14.022c0.646,0,1.13,0.181,1.453,0.542c0.323,0.361,0.485,0.751,0.485,1.168c0,0.418-0.162,0.808-0.485,1.168
				c-0.323,0.362-0.808,0.542-1.453,0.542h-14.022v3.363h20.178c0.607,0,1.055,0.181,1.339,0.542
				c0.285,0.361,0.428,0.76,0.428,1.197c0,0.437-0.143,0.836-0.428,1.197c-0.285,0.362-0.732,0.542-1.339,0.542h-26.049
				c0.037,0.418-0.077,0.817-0.342,1.197c-0.266,0.38-0.684,0.666-1.254,0.855c-0.456,0.152-0.998,0.333-1.625,0.542
				c-0.627,0.209-1.282,0.418-1.966,0.627c-0.684,0.209-1.388,0.418-2.109,0.627c-0.723,0.209-1.388,0.39-1.995,0.542
				c0.798,0.038,1.786,0.048,2.964,0.028c1.177-0.019,2.26-0.028,3.249-0.028c0.342,0,0.636,0.124,0.883,0.371
				c0.247,0.248,0.379,0.533,0.399,0.855c0.019,0.323-0.105,0.637-0.371,0.94c-0.267,0.305-0.722,0.513-1.368,0.627
				c-0.608,0.152-1.691,0.352-3.249,0.599c-1.559,0.248-3.477,0.522-5.757,0.826c-0.912,0.114-1.625-0.019-2.138-0.398
				c-0.513-0.38-0.836-0.855-0.969-1.425c-0.134-0.57-0.077-1.149,0.171-1.739c0.247-0.588,0.693-1.016,1.339-1.282
				c1.33-0.532,2.631-1.102,3.905-1.71c1.272-0.607,2.631-1.292,4.075-2.052h-13.68c-0.57,0-0.998-0.18-1.283-0.542
				c-0.285-0.36-0.427-0.76-0.427-1.197c0-0.437,0.142-0.835,0.427-1.197c0.285-0.361,0.712-0.542,1.283-0.542h20.121v-3.363
				h-14.022c-0.608,0-1.064-0.18-1.368-0.542c-0.305-0.36-0.456-0.75-0.456-1.168c0-0.417,0.151-0.807,0.456-1.168
				c0.304-0.361,0.76-0.542,1.368-0.542h14.022v-3.306H254.61z M256.149,147.995c-0.761,0-1.359-0.228-1.795-0.684
				c-0.438-0.456-0.704-0.978-0.798-1.567c-0.095-0.589-0.028-1.159,0.2-1.71c0.228-0.55,0.665-0.921,1.311-1.112
				c1.216-0.379,2.631-0.826,4.247-1.339c1.615-0.513,3.306-1.073,5.073-1.681c1.767-0.607,3.563-1.245,5.387-1.91
				c1.824-0.665,3.571-1.33,5.244-1.995c1.672-0.665,3.201-1.32,4.589-1.966c1.387-0.646,2.536-1.234,3.448-1.767
				c0.95-0.57,1.748-0.731,2.394-0.485c0.646,0.248,1.102,0.656,1.368,1.226c0.265,0.57,0.304,1.197,0.114,1.881
				c-0.19,0.684-0.646,1.178-1.368,1.482c-1.217,0.456-2.765,1.007-4.646,1.653c-1.881,0.646-3.953,1.311-6.213,1.995
				c-2.261,0.684-4.646,1.359-7.153,2.023c-2.508,0.666-4.959,1.264-7.353,1.795c2.052,0,4.304-0.047,6.754-0.143
				c2.451-0.094,4.845-0.199,7.182-0.313c2.337-0.114,4.483-0.228,6.441-0.342c1.957-0.114,3.467-0.208,4.532-0.285
				c0.417-0.037,0.741,0.085,0.969,0.371s0.361,0.608,0.399,0.969c0.038,0.361-0.057,0.703-0.285,1.026
				c-0.228,0.323-0.59,0.504-1.083,0.542c-1.749,0.19-3.867,0.418-6.355,0.684c-2.489,0.267-5.073,0.513-7.752,0.741
				c-2.679,0.228-5.32,0.428-7.923,0.599C260.471,147.852,258.163,147.957,256.149,147.995z M271.71,158.483
				c0.189-0.875-0.181-1.454-1.112-1.738c-0.932-0.285-2.194-0.523-3.791-0.712c-0.418-0.039-0.704-0.19-0.855-0.456
				c-0.152-0.267-0.199-0.551-0.142-0.855c0.057-0.305,0.199-0.57,0.427-0.798c0.228-0.228,0.532-0.342,0.912-0.342
				c1.177,0.077,2.109,0.105,2.793,0.085c0.684-0.019,1.197-0.114,1.539-0.285c0.342-0.171,0.55-0.456,0.627-0.855
				c0.076-0.399,0.114-0.94,0.114-1.624v-0.798c0-0.912,0.294-1.605,0.884-2.081c0.588-0.475,1.244-0.712,1.966-0.712
				c0.722,0,1.377,0.228,1.967,0.684c0.588,0.456,0.883,1.14,0.883,2.052v3.705c0,0.76-0.057,1.405-0.171,1.938
				c-0.114,0.532-0.295,1.016-0.542,1.454c-0.248,0.437-0.551,0.827-0.912,1.168c-0.362,0.342-0.789,0.703-1.283,1.083
				c-0.418,0.304-0.836,0.503-1.254,0.599c-0.418,0.094-0.798,0.085-1.14-0.029c-0.342-0.114-0.598-0.294-0.769-0.541
				C271.681,159.176,271.633,158.862,271.71,158.483z M295.479,158.312c-1.217-0.95-2.689-1.938-4.417-2.964
				c-1.73-1.026-3.848-2.223-6.356-3.591c-0.304-0.151-0.465-0.379-0.484-0.684c-0.02-0.304,0.038-0.589,0.171-0.855
				c0.133-0.266,0.351-0.475,0.656-0.627c0.304-0.151,0.665-0.171,1.083-0.057c3.078,0.875,5.586,1.682,7.524,2.422
				c1.938,0.741,3.458,1.339,4.56,1.795c1.026,0.418,1.605,1.007,1.738,1.767c0.133,0.76,0,1.444-0.399,2.052
				c-0.399,0.607-0.979,1.026-1.738,1.254C297.055,159.053,296.277,158.882,295.479,158.312z M290.349,146.513
				c-0.76-1.102-1.567-2.175-2.422-3.221c-0.855-1.044-1.701-2.061-2.537-3.049c-0.304-0.342-0.437-0.693-0.399-1.055
				c0.038-0.36,0.171-0.655,0.399-0.883s0.522-0.361,0.884-0.399c0.36-0.038,0.731,0.076,1.111,0.342
				c1.444,0.989,2.708,1.881,3.791,2.679c1.083,0.798,2.081,1.634,2.993,2.508c0.684,0.57,0.969,1.217,0.855,1.938
				c-0.114,0.722-0.428,1.311-0.94,1.767c-0.513,0.456-1.122,0.684-1.824,0.684C291.555,147.824,290.919,147.388,290.349,146.513z"
				/>
		</g>
	</g>
	<g>
		<g>
			<g>
				<g>
					<path class="st1" d="M454.651,41.999v2.907h11.913c1.71,0,2.926,0.399,3.648,1.197c0.721,0.798,1.083,1.919,1.083,3.363v9.12
						c0,0.761-0.313,1.425-0.94,1.995c-0.627,0.57-1.378,0.855-2.251,0.855h-13.452v3.306h17.157c0.684,0,1.188,0.19,1.511,0.57
						c0.322,0.38,0.484,0.798,0.484,1.254c0,0.456-0.162,0.874-0.484,1.254c-0.323,0.38-0.827,0.57-1.511,0.57h-17.157v3.705h21.432
						c0.684,0,1.197,0.2,1.539,0.598c0.342,0.399,0.513,0.836,0.513,1.312c0,0.475-0.171,0.912-0.513,1.311
						c-0.342,0.399-0.855,0.599-1.539,0.599h-48.222c-0.646,0-1.14-0.199-1.482-0.599c-0.342-0.399-0.513-0.836-0.513-1.311
						c0-0.476,0.171-0.912,0.513-1.312c0.342-0.398,0.835-0.598,1.482-0.598h21.489V68.39h-17.157c-0.684,0-1.188-0.19-1.511-0.57
						c-0.323-0.38-0.484-0.798-0.484-1.254c0-0.456,0.161-0.874,0.484-1.254c0.323-0.379,0.827-0.57,1.511-0.57h17.157v-3.306
						h-8.037c-0.684,0-1.197-0.18-1.539-0.542c-0.342-0.36-0.513-0.77-0.513-1.226s0.171-0.864,0.513-1.226
						c0.342-0.36,0.855-0.541,1.539-0.541h8.037v-3.135h-8.208c-0.608,0-1.064-0.18-1.368-0.542c-0.305-0.36-0.456-0.75-0.456-1.168
						c0-0.417,0.151-0.807,0.456-1.168c0.304-0.361,0.76-0.542,1.368-0.542h8.208v-2.964h-8.037c-0.684,0-1.197-0.18-1.539-0.542
						c-0.342-0.361-0.513-0.76-0.513-1.197c0-0.437,0.171-0.835,0.513-1.197c0.342-0.361,0.855-0.542,1.539-0.542h8.037v-2.907
						h-20.235c-0.646,0-1.14-0.189-1.482-0.57c-0.342-0.379-0.513-0.798-0.513-1.254c0-0.456,0.171-0.874,0.513-1.254
						c0.342-0.379,0.835-0.57,1.482-0.57h20.235c0.038-0.798,0.333-1.405,0.884-1.824c0.55-0.418,1.14-0.627,1.767-0.627
						s1.206,0.209,1.738,0.627c0.532,0.418,0.835,1.026,0.912,1.824h20.178c0.684,0,1.197,0.191,1.539,0.57
						c0.342,0.38,0.513,0.798,0.513,1.254c0,0.456-0.171,0.875-0.513,1.254c-0.342,0.38-0.855,0.57-1.539,0.57H454.651z
						 M467.305,29.459c1.026-0.114,1.795,0.077,2.309,0.57c0.513,0.494,0.77,1.054,0.77,1.682c0,0.627-0.248,1.216-0.741,1.767
						c-0.494,0.551-1.216,0.846-2.166,0.884c-1.178,0.076-2.584,0.133-4.218,0.171c-1.634,0.038-3.42,0.085-5.358,0.143
						c-1.938,0.057-3.971,0.105-6.099,0.143c-2.128,0.038-4.275,0.076-6.441,0.114c-2.166,0.039-4.304,0.067-6.413,0.085
						c-2.109,0.02-4.095,0.028-5.957,0.028c-0.57,0-0.998-0.151-1.282-0.456c-0.285-0.304-0.438-0.655-0.456-1.054
						c-0.02-0.399,0.094-0.76,0.342-1.083c0.247-0.322,0.617-0.503,1.111-0.542c6.688-0.304,13.015-0.665,18.981-1.083
						C457.652,30.409,462.859,29.954,467.305,29.459z M432.535,47.642c0-0.912,0.285-1.586,0.855-2.023
						c0.57-0.437,1.197-0.656,1.881-0.656c0.684,0,1.311,0.219,1.881,0.656c0.57,0.437,0.855,1.111,0.855,2.023v11.115
						c0,0.912-0.285,1.587-0.855,2.024c-0.57,0.437-1.197,0.655-1.881,0.655c-0.684,0-1.311-0.218-1.881-0.655
						c-0.57-0.437-0.855-1.112-0.855-2.024V47.642z M454.651,54.767v3.135h11.172v-7.923c0-0.532-0.199-0.931-0.599-1.197
						c-0.399-0.266-0.883-0.399-1.453-0.399h-9.12v2.964h7.866c0.607,0,1.073,0.181,1.396,0.542
						c0.323,0.361,0.485,0.751,0.485,1.168c0,0.418-0.162,0.808-0.485,1.168c-0.323,0.362-0.789,0.542-1.396,0.542H454.651z"/>
					<path class="st1" d="M485.488,62.12c-0.646,0-1.14-0.199-1.482-0.599c-0.342-0.399-0.513-0.845-0.513-1.339
						c0-0.494,0.171-0.94,0.513-1.339c0.342-0.399,0.835-0.599,1.482-0.599h14.763l0.912-1.938c0.456-0.95,1.055-1.52,1.796-1.71
						c0.741-0.19,1.434-0.133,2.08,0.171c0.646,0.305,1.14,0.779,1.482,1.425c0.342,0.646,0.342,1.33,0,2.052h25.992
						c0.607,0,1.073,0.199,1.396,0.599c0.323,0.399,0.485,0.846,0.485,1.339c0,0.494-0.162,0.94-0.485,1.339
						c-0.323,0.399-0.789,0.599-1.396,0.599h-28.842c-0.95,1.103-1.986,2.204-3.106,3.306c-1.122,1.103-2.461,2.337-4.019,3.705
						c-0.418,0.381-0.808,0.57-1.168,0.57c-0.362,0-0.666-0.114-0.912-0.342c-0.248-0.229-0.399-0.522-0.456-0.884
						c-0.057-0.36,0.047-0.712,0.313-1.055c0.722-0.949,1.396-1.853,2.023-2.707c0.627-0.855,1.206-1.719,1.739-2.594H485.488z
						 M528.124,78.479c-3.497-1.216-6.755-2.318-9.776-3.306s-5.995-1.919-8.92-2.793c-3.002,1.026-6.432,2.052-10.289,3.078
						c-3.857,1.026-8.351,2.109-13.48,3.249c-0.533,0.114-0.96,0.047-1.282-0.199c-0.323-0.248-0.523-0.552-0.599-0.912
						c-0.077-0.362-0.028-0.723,0.143-1.083c0.171-0.362,0.484-0.599,0.94-0.712c3.458-0.875,6.707-1.739,9.747-2.594
						c3.04-0.855,5.908-1.776,8.607-2.764c-0.418-0.151-0.855-0.285-1.311-0.399c-0.456-0.114-0.912-0.247-1.368-0.399
						c-0.418-0.114-0.694-0.342-0.826-0.684c-0.134-0.342-0.162-0.684-0.085-1.026c0.076-0.342,0.247-0.627,0.513-0.855
						c0.266-0.228,0.627-0.285,1.083-0.171l7.125,1.539c3.762-1.596,7.03-3.382,9.804-5.358c0.76-0.531,1.491-0.692,2.194-0.484
						c0.703,0.209,1.226,0.59,1.567,1.14c0.342,0.551,0.446,1.188,0.313,1.91c-0.133,0.722-0.637,1.331-1.51,1.824
						c-0.836,0.456-1.682,0.894-2.537,1.311c-0.855,0.419-1.758,0.836-2.708,1.254c2.622,0.608,5.092,1.188,7.41,1.739
						c2.317,0.551,4.654,1.111,7.011,1.681c0.988,0.229,1.634,0.684,1.938,1.368c0.304,0.684,0.351,1.358,0.143,2.023
						c-0.209,0.665-0.655,1.188-1.339,1.567S529.111,78.821,528.124,78.479z M487.312,34.589c-0.723,0-1.264-0.199-1.625-0.598
						c-0.362-0.399-0.542-0.835-0.542-1.311c0-0.475,0.18-0.912,0.542-1.311c0.36-0.399,0.902-0.599,1.625-0.599h43.377
						c0.721,0,1.254,0.2,1.596,0.599c0.342,0.399,0.513,0.836,0.513,1.311c0,0.476-0.171,0.912-0.513,1.311
						c-0.342,0.399-0.875,0.598-1.596,0.598H487.312z M487.996,42.854c0-0.949,0.294-1.662,0.884-2.137
						c0.588-0.475,1.244-0.713,1.966-0.713c0.722,0,1.377,0.238,1.967,0.713c0.588,0.476,0.883,1.188,0.883,2.137v8.208
						c0,0.951-0.295,1.663-0.883,2.138c-0.59,0.476-1.245,0.712-1.967,0.712c-0.722,0-1.378-0.237-1.966-0.712
						c-0.59-0.475-0.884-1.187-0.884-2.138V42.854z M496.831,53.741c-0.608,0-1.064-0.19-1.368-0.57
						c-0.305-0.379-0.456-0.798-0.456-1.254s0.151-0.874,0.456-1.254c0.304-0.379,0.76-0.57,1.368-0.57h3.534v-6.612h-3.534
						c-0.608,0-1.064-0.19-1.368-0.57c-0.305-0.379-0.456-0.798-0.456-1.254s0.151-0.874,0.456-1.254
						c0.304-0.38,0.76-0.57,1.368-0.57h3.534v-1.254c0-0.835,0.275-1.454,0.827-1.853c0.55-0.399,1.149-0.599,1.795-0.599
						c0.646,0,1.244,0.2,1.795,0.599c0.55,0.399,0.827,1.017,0.827,1.853v1.254h6.726v-1.254c0-0.835,0.275-1.454,0.826-1.853
						c0.551-0.399,1.149-0.599,1.796-0.599c0.646,0,1.244,0.2,1.795,0.599c0.55,0.399,0.826,1.017,0.826,1.853v1.254h8.208
						c1.406,0,2.451,0.456,3.135,1.368s1.026,1.958,1.026,3.135v5.301c0,1.559-0.38,2.632-1.14,3.22
						c-0.76,0.59-1.748,0.884-2.964,0.884H496.831z M505.609,50.093h6.726v-6.612h-6.726V50.093z M517.579,43.481v6.612h6.669
						v-4.788c0-0.57-0.114-1.016-0.342-1.339c-0.228-0.323-0.665-0.484-1.311-0.484H517.579z"/>
					<path class="st1" d="M545.794,39.662c-0.077,2.204-0.191,4.417-0.342,6.641c-0.152,2.223-0.38,4.285-0.684,6.185
						c-0.152,0.988-0.532,1.672-1.14,2.052c-0.608,0.38-1.226,0.513-1.853,0.399c-0.627-0.114-1.14-0.446-1.539-0.998
						c-0.399-0.55-0.466-1.263-0.2-2.137c0.532-1.786,1.017-3.724,1.454-5.814c0.437-2.089,0.827-4.218,1.168-6.384
						c0.076-0.493,0.285-0.855,0.627-1.083c0.342-0.228,0.693-0.332,1.055-0.313c0.361,0.02,0.693,0.152,0.998,0.399
						C545.642,38.855,545.794,39.206,545.794,39.662z M552.463,75.914c0,0.912-0.267,1.596-0.798,2.052
						c-0.533,0.456-1.122,0.684-1.767,0.684c-0.647,0-1.235-0.229-1.767-0.684c-0.533-0.456-0.798-1.14-0.798-2.052V30.428
						c0-0.95,0.265-1.653,0.798-2.109c0.532-0.456,1.12-0.674,1.767-0.656c0.646,0.02,1.234,0.256,1.767,0.712
						c0.531,0.456,0.798,1.14,0.798,2.052V75.914z M553.432,37.895c-0.077-0.493-0.028-0.892,0.143-1.197
						c0.171-0.304,0.379-0.494,0.627-0.57c0.247-0.075,0.513-0.057,0.798,0.057c0.285,0.114,0.503,0.323,0.655,0.627
						c0.342,0.684,0.627,1.283,0.855,1.795c0.228,0.513,0.437,0.998,0.627,1.454c0.19,0.456,0.389,0.922,0.599,1.396
						c0.208,0.476,0.427,1.036,0.655,1.682c0.342,0.95,0.342,1.749,0,2.394c-0.342,0.646-0.808,1.074-1.396,1.282
						c-0.589,0.209-1.178,0.171-1.767-0.114c-0.59-0.285-0.922-0.902-0.998-1.853c-0.077-1.216-0.181-2.346-0.313-3.392
						C553.783,40.413,553.622,39.226,553.432,37.895z M568.594,43.31c-0.646,0-1.131-0.2-1.454-0.598
						c-0.323-0.399-0.484-0.846-0.484-1.34c0-0.493,0.161-0.94,0.484-1.339c0.323-0.399,0.807-0.599,1.454-0.599h3.876v-9.006
						c0-0.95,0.285-1.672,0.855-2.166c0.57-0.494,1.197-0.741,1.881-0.741c0.684,0,1.311,0.248,1.881,0.741
						c0.57,0.494,0.855,1.216,0.855,2.166v9.006h9.918c0.607,0,1.073,0.2,1.396,0.599c0.322,0.399,0.484,0.846,0.484,1.339
						c0,0.494-0.162,0.94-0.484,1.34c-0.323,0.398-0.789,0.598-1.396,0.598h-9.918v11.4h9.177c0.646,0,1.14,0.2,1.482,0.599
						c0.342,0.399,0.513,0.846,0.513,1.34c0,0.494-0.162,0.94-0.484,1.339c-0.323,0.399-0.827,0.598-1.511,0.598h-9.177v12.939
						h12.312c0.607,0,1.073,0.209,1.396,0.627c0.322,0.417,0.484,0.864,0.484,1.339c0,0.475-0.152,0.921-0.456,1.339
						c-0.305,0.418-0.779,0.627-1.425,0.627h-32.433c-0.646,0-1.131-0.209-1.454-0.627c-0.323-0.418-0.484-0.865-0.484-1.339
						c0-0.476,0.161-0.922,0.484-1.339c0.323-0.418,0.807-0.627,1.454-0.627h14.649V58.586h-9.633c-0.684,0-1.197-0.199-1.539-0.598
						c-0.342-0.399-0.513-0.845-0.513-1.339c0-0.494,0.171-0.941,0.513-1.34c0.342-0.399,0.855-0.599,1.539-0.599h9.633v-11.4
						H568.594z M561.184,50.435c-0.304,0.533-0.665,0.865-1.083,0.998c-0.418,0.134-0.808,0.124-1.168-0.028
						c-0.361-0.151-0.627-0.437-0.798-0.855c-0.171-0.418-0.162-0.931,0.028-1.539c0.684-2.052,1.349-4.332,1.995-6.84
						c0.646-2.508,1.159-5.187,1.539-8.037c0.151-1.14,0.57-1.918,1.254-2.337c0.684-0.417,1.387-0.56,2.109-0.427
						c0.722,0.133,1.33,0.513,1.824,1.14c0.494,0.627,0.646,1.435,0.456,2.422c-0.418,2.318-1.15,4.769-2.194,7.353
						C564.1,44.869,562.78,47.585,561.184,50.435z"/>
					<path class="st1" d="M633.687,62.348c0.532,0.533,0.798,1.103,0.798,1.71c0,0.57-0.267,1.122-0.798,1.653
						c-0.456,0.495-1.007,0.741-1.653,0.741c-0.646,0-1.216-0.247-1.71-0.741l-6.213-6.213l-6.213,6.213
						c-0.495,0.495-1.064,0.741-1.71,0.741c-0.608,0-1.16-0.247-1.653-0.741c-0.494-0.493-0.741-1.044-0.741-1.653
						c0-0.646,0.247-1.216,0.741-1.71l6.213-6.213l-6.213-6.213c-0.494-0.493-0.741-1.063-0.741-1.71
						c0-0.646,0.247-1.197,0.741-1.653c0.532-0.532,1.083-0.798,1.653-0.798c0.607,0,1.177,0.266,1.71,0.798l6.213,6.213
						l6.213-6.213c0.532-0.532,1.102-0.798,1.71-0.798c0.646,0,1.197,0.266,1.653,0.798c0.532,0.456,0.798,1.007,0.798,1.653
						c0,0.608-0.267,1.179-0.798,1.71l-6.213,6.213L633.687,62.348z"/>
					<path class="st1" d="M658.709,47.414c0.038-0.835,0.304-1.443,0.798-1.824c0.493-0.379,1.016-0.541,1.567-0.484
						c0.55,0.057,1.035,0.323,1.454,0.798c0.417,0.476,0.588,1.131,0.513,1.966c-0.19,2.129-0.427,4.114-0.712,5.957
						c-0.285,1.844-0.627,3.611-1.026,5.301c-0.399,1.691-0.855,3.315-1.368,4.873c-0.513,1.559-1.093,3.135-1.738,4.731
						c-0.152,0.38-0.38,0.627-0.684,0.741c-0.305,0.114-0.599,0.105-0.884-0.029c-0.285-0.132-0.504-0.36-0.655-0.684
						c-0.152-0.322-0.152-0.75,0-1.283c0.304-0.912,0.579-1.975,0.827-3.192c0.247-1.216,0.475-2.631,0.684-4.247
						c0.208-1.615,0.418-3.458,0.627-5.529C658.319,52.44,658.519,50.074,658.709,47.414z M672.275,42.683h-3.135v33.06
						c0,0.988-0.266,1.738-0.798,2.251c-0.533,0.513-1.112,0.77-1.739,0.77s-1.207-0.248-1.738-0.741
						c-0.533-0.495-0.798-1.254-0.798-2.28v-33.06h-5.529c-0.608,0-1.064-0.2-1.368-0.599c-0.304-0.399-0.456-0.835-0.456-1.311
						c0-0.475,0.151-0.912,0.456-1.311c0.304-0.399,0.76-0.599,1.368-0.599h5.529v-9.006c0-0.912,0.266-1.596,0.798-2.052
						c0.532-0.456,1.111-0.684,1.738-0.684s1.206,0.228,1.739,0.684c0.532,0.456,0.798,1.14,0.798,2.052v9.006h3.135
						c0.607,0,1.055,0.199,1.34,0.599c0.285,0.399,0.427,0.836,0.427,1.311c0,0.476-0.143,0.912-0.427,1.311
						C673.33,42.483,672.883,42.683,672.275,42.683z M672.104,47.072c0.607,1.103,1.121,2.09,1.539,2.964
						c0.418,0.875,0.778,1.673,1.083,2.394c0.379,0.912,0.408,1.701,0.085,2.366c-0.323,0.665-0.77,1.121-1.339,1.368
						c-0.57,0.248-1.14,0.228-1.71-0.057c-0.57-0.285-0.894-0.902-0.969-1.853c-0.077-1.026-0.171-2.023-0.285-2.992
						c-0.114-0.969-0.285-2.118-0.513-3.449c-0.077-0.304-0.038-0.57,0.114-0.798s0.351-0.379,0.599-0.456
						c0.247-0.076,0.494-0.076,0.741,0C671.696,46.636,671.914,46.807,672.104,47.072z M687.438,61.835l-0.228,1.368h-12.768
						c-0.646,0-1.131,0.199-1.453,0.599c-0.323,0.399-0.485,0.836-0.485,1.311c0,0.476,0.162,0.912,0.485,1.311
						c0.322,0.399,0.807,0.598,1.453,0.598h11.571c-0.456,0.951-1.046,1.805-1.767,2.565c-0.722,0.761-1.644,1.482-2.765,2.166
						c-1.121,0.684-2.451,1.349-3.99,1.995c-1.539,0.646-3.354,1.311-5.443,1.995c-0.419,0.114-0.684,0.361-0.798,0.741
						c-0.114,0.379-0.114,0.741,0,1.083c0.114,0.342,0.351,0.627,0.712,0.854c0.361,0.229,0.807,0.266,1.34,0.114
						c2.659-0.761,5.025-1.539,7.096-2.337c2.071-0.798,3.856-1.653,5.358-2.565c1.5-0.912,2.745-1.91,3.733-2.993
						c0.988-1.083,1.767-2.289,2.337-3.62h14.193c0.646,0,1.13-0.199,1.454-0.598c0.322-0.399,0.484-0.835,0.484-1.311
						c0-0.475-0.162-0.912-0.484-1.311c-0.323-0.399-0.808-0.599-1.454-0.599h-13.224c0-0.151,0.019-0.285,0.057-0.399
						c0.114-0.95-0.085-1.69-0.599-2.223c-0.513-0.532-1.103-0.835-1.767-0.912c-0.666-0.076-1.311,0.067-1.938,0.428
						C687.922,60.458,687.552,61.037,687.438,61.835z M686.64,37.04v-0.912h7.125v0.912c0,0.95,0.256,1.663,0.77,2.138
						c0.513,0.476,1.073,0.712,1.682,0.712c0.607,0,1.168-0.237,1.681-0.712c0.513-0.475,0.77-1.188,0.77-2.138v-0.912h7.182
						c0.532,0,0.931-0.189,1.197-0.57c0.266-0.379,0.399-0.798,0.399-1.254s-0.134-0.874-0.399-1.254
						c-0.266-0.379-0.665-0.57-1.197-0.57h-7.182v-2.565c0-0.835-0.256-1.453-0.77-1.853c-0.513-0.399-1.074-0.599-1.681-0.599
						c-0.608,0-1.169,0.2-1.682,0.599c-0.513,0.399-0.77,1.017-0.77,1.853v2.565h-7.125v-2.565c0-0.835-0.256-1.472-0.77-1.909
						c-0.513-0.437-1.074-0.656-1.682-0.656c-0.608,0-1.168,0.219-1.681,0.656c-0.513,0.437-0.77,1.074-0.77,1.909v2.565h-7.125
						c-0.533,0-0.941,0.191-1.226,0.57c-0.285,0.38-0.428,0.798-0.428,1.254s0.143,0.875,0.428,1.254
						c0.285,0.38,0.693,0.57,1.226,0.57h7.125v0.912c0,0.95,0.256,1.663,0.77,2.138c0.513,0.476,1.073,0.712,1.681,0.712
						c0.607,0,1.168-0.237,1.682-0.712C686.383,38.703,686.64,37.99,686.64,37.04z M676.151,56.306c0,0.836,0.275,1.473,0.827,1.91
						c0.55,0.437,1.149,0.665,1.795,0.684c0.646,0.02,1.244-0.18,1.796-0.598c0.55-0.418,0.826-1.083,0.826-1.995V43.652
						c0-0.912-0.276-1.596-0.826-2.052c-0.552-0.456-1.15-0.684-1.796-0.684c-0.646,0-1.245,0.228-1.795,0.684
						c-0.551,0.456-0.827,1.14-0.827,2.052V56.306z M684.474,58.871h16.758c0.722,0,1.34-0.266,1.853-0.798
						c0.513-0.532,0.77-1.178,0.77-1.938v-10.83c0-1.216-0.409-2.251-1.226-3.106c-0.817-0.855-1.815-1.283-2.992-1.283h-15.162
						c-0.533,0-0.932,0.19-1.197,0.57c-0.266,0.38-0.399,0.798-0.399,1.254s0.133,0.875,0.399,1.254
						c0.266,0.38,0.665,0.57,1.197,0.57h12.483c0.607,0,1.026,0.124,1.254,0.371c0.228,0.248,0.342,0.655,0.342,1.226v9.063h-14.079
						c-0.533,0-0.932,0.19-1.197,0.57c-0.266,0.38-0.399,0.798-0.399,1.254c0,0.456,0.133,0.875,0.399,1.254
						C683.542,58.682,683.941,58.871,684.474,58.871z M684.474,51.461h11.229c0.493,0,0.874-0.18,1.14-0.541
						c0.265-0.361,0.399-0.77,0.399-1.226s-0.134-0.864-0.399-1.226c-0.267-0.361-0.647-0.542-1.14-0.542h-11.229
						c-0.533,0-0.932,0.181-1.197,0.542c-0.266,0.361-0.399,0.77-0.399,1.226s0.133,0.865,0.399,1.226
						C683.542,51.281,683.941,51.461,684.474,51.461z M692.682,71.924c1.216,0.759,2.327,1.434,3.334,2.023
						c1.006,0.588,1.976,1.14,2.907,1.653c0.931,0.513,1.852,0.998,2.764,1.454s1.881,0.912,2.907,1.368
						c0.835,0.342,1.605,0.313,2.309-0.085c0.703-0.399,1.187-0.941,1.453-1.625c0.266-0.684,0.237-1.387-0.085-2.109
						c-0.323-0.722-1.054-1.235-2.194-1.539c-1.445-0.342-2.736-0.655-3.876-0.94c-1.14-0.285-2.176-0.57-3.106-0.855
						c-0.932-0.285-1.806-0.57-2.622-0.855c-0.818-0.285-1.625-0.617-2.422-0.998c-0.342-0.189-0.684-0.228-1.026-0.114
						c-0.342,0.114-0.598,0.313-0.77,0.598c-0.171,0.285-0.238,0.608-0.199,0.969C692.092,71.231,692.301,71.582,692.682,71.924z"/>
					<path class="st1" d="M715.368,53.912c0.037-0.912,0.304-1.558,0.798-1.938c0.494-0.379,1.016-0.532,1.567-0.456
						c0.551,0.077,1.035,0.371,1.454,0.883c0.418,0.513,0.55,1.245,0.399,2.195c-0.228,1.672-0.466,3.23-0.712,4.674
						c-0.248,1.445-0.533,2.87-0.855,4.275c-0.323,1.406-0.704,2.822-1.14,4.247c-0.437,1.425-0.96,2.936-1.567,4.532
						c-0.19,0.456-0.427,0.741-0.712,0.855c-0.285,0.114-0.561,0.114-0.827,0c-0.266-0.114-0.476-0.323-0.627-0.627
						c-0.152-0.304-0.19-0.627-0.114-0.969c0.342-1.672,0.636-3.239,0.883-4.702c0.247-1.463,0.465-2.888,0.656-4.275
						c0.189-1.387,0.351-2.793,0.484-4.218C715.187,56.962,715.291,55.471,715.368,53.912z M720.27,30.257
						c0-0.912,0.256-1.596,0.77-2.052s1.063-0.684,1.653-0.684c0.589,0,1.14,0.228,1.653,0.684c0.513,0.456,0.77,1.14,0.77,2.052
						v15.96h3.306c0.722,0,1.254,0.199,1.596,0.598c0.342,0.399,0.513,0.836,0.513,1.311c0,0.476-0.171,0.912-0.513,1.311
						c-0.342,0.399-0.875,0.599-1.596,0.599h-3.306v25.479c0,0.988-0.257,1.739-0.77,2.251c-0.513,0.513-1.064,0.77-1.653,0.77
						c-0.589,0-1.14-0.248-1.653-0.741c-0.513-0.494-0.77-1.254-0.77-2.28V50.036h-4.959c-0.57,0-1.007-0.199-1.311-0.599
						c-0.305-0.399-0.456-0.835-0.456-1.311c0-0.475,0.151-0.912,0.456-1.311c0.304-0.399,0.741-0.598,1.311-0.598h4.959V30.257z
						 M716.28,33.563c0.57,0.912,1.044,1.824,1.425,2.736c0.379,0.912,0.835,2.033,1.368,3.363c0.342,0.912,0.342,1.701,0,2.365
						c-0.342,0.666-0.798,1.112-1.368,1.34s-1.14,0.19-1.71-0.114c-0.57-0.304-0.912-0.969-1.026-1.995
						c-0.152-1.102-0.295-2.166-0.428-3.192c-0.133-1.026-0.313-2.204-0.542-3.534c-0.077-0.418-0.038-0.76,0.114-1.026
						c0.151-0.265,0.36-0.456,0.627-0.57c0.265-0.114,0.542-0.123,0.826-0.028C715.852,33.003,716.089,33.221,716.28,33.563z
						 M728.079,54.482c0.532,1.064,0.959,2.023,1.283,2.878c0.322,0.855,0.655,1.891,0.997,3.107
						c0.266,0.912,0.218,1.644-0.142,2.194c-0.362,0.551-0.818,0.893-1.368,1.026c-0.551,0.134-1.083,0.039-1.596-0.285
						c-0.513-0.322-0.789-0.921-0.826-1.795c-0.039-0.722-0.077-1.358-0.114-1.91c-0.038-0.55-0.067-1.073-0.085-1.568
						c-0.02-0.493-0.057-0.987-0.114-1.481c-0.057-0.494-0.105-1.045-0.143-1.653c-0.039-0.342,0.028-0.617,0.199-0.826
						c0.171-0.209,0.371-0.342,0.599-0.399c0.228-0.057,0.465-0.028,0.712,0.085C727.727,53.969,727.926,54.179,728.079,54.482z
						 M726.083,41.543c0.228-1.14,0.428-2.223,0.599-3.249c0.171-1.026,0.313-2.223,0.427-3.591c0.076-0.912,0.39-1.539,0.941-1.881
						c0.55-0.342,1.111-0.437,1.681-0.285c0.57,0.152,1.045,0.504,1.425,1.055c0.379,0.551,0.436,1.245,0.171,2.08
						c-0.305,1.103-0.666,2.129-1.083,3.078c-0.418,0.95-1.007,2.072-1.767,3.363c-0.266,0.418-0.551,0.684-0.855,0.798
						c-0.305,0.114-0.58,0.114-0.827,0c-0.248-0.114-0.447-0.294-0.598-0.542C726.045,42.123,726.007,41.848,726.083,41.543z
						 M732.524,42.341h4.104v9.747c-0.19,0.267-0.304,0.57-0.342,0.912c-0.038,0.342,0,0.675,0.114,0.998
						c0.114,0.323,0.294,0.59,0.542,0.798c0.247,0.209,0.579,0.313,0.998,0.313h1.767c0.494,0,0.835,0.142,1.026,0.427
						c0.19,0.285,0.285,0.618,0.285,0.998v10.659h-3.078c-0.57,0-0.988,0.19-1.254,0.57c-0.266,0.38-0.399,0.808-0.399,1.283
						c0,0.476,0.133,0.903,0.399,1.282c0.266,0.38,0.684,0.57,1.254,0.57h4.104c1.33,0,2.232-0.333,2.708-0.998
						c0.475-0.664,0.712-1.548,0.712-2.65V55.223c0-1.14-0.238-2.061-0.712-2.765c-0.476-0.703-1.339-1.054-2.593-1.054h-0.969
						v-9.063h3.42c0.57,0,1.007-0.19,1.311-0.57c0.304-0.379,0.456-0.807,0.456-1.282c0-0.475-0.152-0.902-0.456-1.283
						c-0.304-0.379-0.741-0.57-1.311-0.57h-3.42v-8.208c0-0.76-0.238-1.339-0.712-1.739c-0.476-0.399-0.998-0.598-1.567-0.598
						c-0.57,0-1.093,0.19-1.567,0.57c-0.476,0.38-0.713,0.969-0.713,1.767v8.208h-4.104c-0.57,0-0.997,0.19-1.282,0.57
						c-0.285,0.38-0.428,0.808-0.428,1.283c0,0.476,0.143,0.903,0.428,1.282C731.527,42.151,731.955,42.341,732.524,42.341z
						 M731.385,71.354c0,0.761,0.218,1.32,0.655,1.682c0.437,0.361,0.921,0.542,1.454,0.542c0.532,0,1.016-0.181,1.454-0.542
						c0.436-0.362,0.655-0.921,0.655-1.682V53.513c0-0.76-0.219-1.33-0.655-1.71c-0.438-0.379-0.922-0.57-1.454-0.57
						c-0.533,0-1.017,0.19-1.454,0.57c-0.437,0.38-0.655,0.95-0.655,1.71V71.354z M746.034,77.909
						c-0.191,0.342-0.466,0.542-0.827,0.599c-0.361,0.057-0.684,0.009-0.969-0.143c-0.285-0.152-0.495-0.399-0.627-0.741
						c-0.134-0.342-0.086-0.761,0.142-1.254c0.912-1.824,1.644-3.923,2.195-6.298c0.55-2.375,0.969-5.244,1.254-8.607
						c0.285-3.363,0.465-7.372,0.542-12.027c0.076-4.654,0.114-10.174,0.114-16.559c0-0.798,0.247-1.396,0.741-1.795
						c0.493-0.399,1.035-0.598,1.625-0.598c0.589,0,1.13,0.199,1.625,0.598c0.493,0.399,0.741,0.998,0.741,1.795
						c0,6.156-0.048,11.477-0.142,15.96c-0.096,4.484-0.362,8.456-0.798,11.913c-0.437,3.458-1.093,6.546-1.966,9.263
						C748.807,72.731,747.591,75.363,746.034,77.909z M755.496,42.968h2.508v-6.042c0-0.835-0.152-1.454-0.456-1.853
						c-0.305-0.399-1.046-0.599-2.223-0.599c-0.57,0-0.998-0.2-1.283-0.599c-0.285-0.399-0.427-0.845-0.427-1.339
						c0-0.493,0.143-0.94,0.427-1.339c0.285-0.399,0.712-0.599,1.283-0.599h3.078c0.912,0,1.662,0.134,2.251,0.399
						c0.588,0.267,1.054,0.637,1.396,1.111c0.342,0.476,0.57,1.046,0.684,1.71c0.114,0.666,0.171,1.397,0.171,2.195v34.371
						c0,1.596-0.209,2.936-0.627,4.019c-0.419,1.083-1.217,2.099-2.394,3.049c-0.684,0.532-1.321,0.703-1.91,0.513
						c-0.589-0.191-0.846-0.627-0.77-1.311c0.038-0.38-0.01-0.789-0.143-1.226c-0.133-0.438-0.361-0.855-0.684-1.254
						c-0.323-0.399-0.732-0.751-1.225-1.055c-0.495-0.305-1.064-0.513-1.71-0.627c-0.38-0.037-0.647-0.199-0.798-0.484
						c-0.152-0.285-0.199-0.579-0.143-0.884c0.057-0.304,0.2-0.579,0.428-0.826c0.228-0.247,0.513-0.351,0.855-0.313
						c0.988,0.076,1.767,0.105,2.337,0.085c0.57-0.019,0.998-0.123,1.283-0.313c0.285-0.19,0.456-0.494,0.513-0.912
						c0.057-0.417,0.085-0.988,0.085-1.71v-7.467h-2.508c-0.57,0-0.998-0.199-1.283-0.598c-0.285-0.399-0.427-0.827-0.427-1.283
						s0.143-0.883,0.427-1.282c0.285-0.399,0.713-0.599,1.283-0.599h2.508V46.73h-2.508c-0.57,0-0.998-0.199-1.283-0.598
						c-0.285-0.399-0.427-0.827-0.427-1.283s0.143-0.883,0.427-1.283C754.498,43.167,754.926,42.968,755.496,42.968z"/>
					<path class="st1" d="M776.073,39.662c-0.077,2.204-0.191,4.417-0.342,6.641c-0.152,2.223-0.38,4.285-0.684,6.185
						c-0.152,0.988-0.532,1.672-1.14,2.052c-0.608,0.38-1.226,0.513-1.853,0.399c-0.627-0.114-1.14-0.446-1.539-0.998
						c-0.399-0.55-0.466-1.263-0.2-2.137c0.532-1.786,1.017-3.724,1.454-5.814c0.437-2.089,0.827-4.218,1.168-6.384
						c0.076-0.493,0.285-0.855,0.627-1.083c0.342-0.228,0.693-0.332,1.055-0.313c0.361,0.02,0.693,0.152,0.998,0.399
						C775.92,38.855,776.073,39.206,776.073,39.662z M782.742,75.914c0,0.912-0.267,1.596-0.798,2.052
						c-0.533,0.456-1.122,0.684-1.767,0.684c-0.647,0-1.235-0.229-1.767-0.684c-0.533-0.456-0.798-1.14-0.798-2.052V30.428
						c0-0.95,0.265-1.653,0.798-2.109c0.532-0.456,1.12-0.674,1.767-0.656c0.646,0.02,1.234,0.256,1.767,0.712
						c0.531,0.456,0.798,1.14,0.798,2.052V75.914z M783.71,37.895c-0.077-0.493-0.028-0.892,0.143-1.197
						c0.171-0.304,0.379-0.494,0.627-0.57c0.247-0.075,0.513-0.057,0.798,0.057c0.285,0.114,0.503,0.323,0.655,0.627
						c0.342,0.684,0.627,1.283,0.855,1.795c0.228,0.513,0.437,0.998,0.627,1.454c0.19,0.456,0.389,0.922,0.599,1.396
						c0.208,0.476,0.427,1.036,0.655,1.682c0.342,0.95,0.342,1.749,0,2.394c-0.342,0.646-0.808,1.074-1.396,1.282
						c-0.589,0.209-1.178,0.171-1.767-0.114c-0.59-0.285-0.922-0.902-0.998-1.853c-0.077-1.216-0.181-2.346-0.313-3.392
						C784.062,40.413,783.9,39.226,783.71,37.895z M798.873,43.31c-0.646,0-1.131-0.2-1.454-0.598
						c-0.323-0.399-0.484-0.846-0.484-1.34c0-0.493,0.161-0.94,0.484-1.339c0.323-0.399,0.807-0.599,1.454-0.599h3.876v-9.006
						c0-0.95,0.285-1.672,0.855-2.166c0.57-0.494,1.197-0.741,1.881-0.741c0.684,0,1.311,0.248,1.881,0.741
						c0.57,0.494,0.855,1.216,0.855,2.166v9.006h9.918c0.607,0,1.073,0.2,1.396,0.599c0.322,0.399,0.484,0.846,0.484,1.339
						c0,0.494-0.162,0.94-0.484,1.34c-0.323,0.398-0.789,0.598-1.396,0.598h-9.918v11.4h9.177c0.646,0,1.14,0.2,1.482,0.599
						c0.342,0.399,0.513,0.846,0.513,1.34c0,0.494-0.162,0.94-0.484,1.339c-0.323,0.399-0.827,0.598-1.511,0.598h-9.177v12.939
						h12.312c0.607,0,1.073,0.209,1.396,0.627c0.322,0.417,0.484,0.864,0.484,1.339c0,0.475-0.152,0.921-0.456,1.339
						c-0.305,0.418-0.779,0.627-1.425,0.627H788.1c-0.646,0-1.131-0.209-1.454-0.627c-0.323-0.418-0.484-0.865-0.484-1.339
						c0-0.476,0.161-0.922,0.484-1.339c0.323-0.418,0.807-0.627,1.454-0.627h14.649V58.586h-9.633c-0.684,0-1.197-0.199-1.539-0.598
						c-0.342-0.399-0.513-0.845-0.513-1.339c0-0.494,0.171-0.941,0.513-1.34c0.342-0.399,0.855-0.599,1.539-0.599h9.633v-11.4
						H798.873z M791.462,50.435c-0.304,0.533-0.665,0.865-1.083,0.998c-0.418,0.134-0.808,0.124-1.168-0.028
						c-0.361-0.151-0.627-0.437-0.798-0.855c-0.171-0.418-0.162-0.931,0.028-1.539c0.684-2.052,1.349-4.332,1.995-6.84
						c0.646-2.508,1.159-5.187,1.539-8.037c0.151-1.14,0.57-1.918,1.254-2.337c0.684-0.417,1.387-0.56,2.109-0.427
						c0.722,0.133,1.33,0.513,1.824,1.14c0.494,0.627,0.646,1.435,0.456,2.422c-0.418,2.318-1.15,4.769-2.194,7.353
						C794.378,44.869,793.059,47.585,791.462,50.435z"/>
				</g>
			</g>
			<g>
				<g>
					<path class="st1" d="M512.622,122.312h3.933c0.607,0,1.063,0.2,1.368,0.598c0.304,0.399,0.456,0.836,0.456,1.312
						c0,0.476-0.152,0.912-0.456,1.311c-0.304,0.399-0.76,0.599-1.368,0.599h-3.933v9.519c0.721-0.19,1.415-0.361,2.081-0.513
						c0.664-0.151,1.301-0.322,1.909-0.513c0.456-0.114,0.817-0.085,1.083,0.085c0.266,0.171,0.437,0.409,0.513,0.712
						c0.076,0.305,0.066,0.618-0.028,0.94c-0.096,0.323-0.276,0.562-0.542,0.713c-0.875,0.456-1.701,0.864-2.479,1.225
						c-0.779,0.362-1.625,0.751-2.537,1.168v14.022c0,2.014-0.209,3.647-0.627,4.902c-0.419,1.254-1.292,2.337-2.622,3.249
						c-0.95,0.646-1.71,0.827-2.28,0.542c-0.57-0.285-0.817-0.751-0.741-1.396c0.038-0.57,0.028-1.055-0.028-1.454
						c-0.057-0.399-0.219-0.732-0.485-0.998c-0.266-0.266-0.675-0.484-1.226-0.655c-0.551-0.171-1.282-0.295-2.194-0.371
						c-0.456-0.039-0.789-0.219-0.998-0.542c-0.209-0.323-0.294-0.656-0.256-0.998c0.038-0.342,0.18-0.656,0.427-0.94
						c0.247-0.285,0.579-0.408,0.998-0.371c1.102,0.077,1.967,0.077,2.594,0c0.627-0.076,1.092-0.247,1.396-0.513
						c0.304-0.265,0.484-0.674,0.542-1.225s0.085-1.283,0.085-2.195v-8.835l-3.705,1.368c-0.875,0.342-1.596,0.313-2.166-0.085
						c-0.57-0.399-0.932-0.931-1.083-1.596c-0.152-0.665-0.085-1.32,0.2-1.966c0.285-0.646,0.845-1.063,1.681-1.254l5.073-1.197
						v-10.83h-4.446c-0.608,0-1.064-0.199-1.368-0.599c-0.305-0.399-0.456-0.835-0.456-1.311c0-0.475,0.151-0.912,0.456-1.312
						c0.304-0.398,0.76-0.598,1.368-0.598h4.446v-8.379c0-0.95,0.285-1.662,0.855-2.138c0.57-0.475,1.187-0.712,1.853-0.712
						c0.665,0,1.282,0.238,1.853,0.712c0.57,0.476,0.855,1.188,0.855,2.138V122.312z M524.991,160.445
						c-0.38,0.607-0.846,1.006-1.396,1.197c-0.552,0.189-1.093,0.171-1.625-0.057c-0.533-0.228-0.989-0.655-1.368-1.282
						c-0.38-0.627-0.57-1.454-0.57-2.479v-41.781c0-0.988,0.275-1.729,0.826-2.223c0.55-0.493,1.168-0.741,1.853-0.741
						s1.301,0.248,1.853,0.741c0.55,0.495,0.827,1.235,0.827,2.223v35.739c0,0.19,0.076,0.352,0.228,0.484
						c0.151,0.133,0.322,0.143,0.513,0.028c0.798-0.493,1.596-0.998,2.394-1.511c0.798-0.513,1.539-1.035,2.223-1.567
						c0.379-0.304,0.76-0.408,1.14-0.313c0.379,0.096,0.664,0.285,0.855,0.57c0.189,0.285,0.275,0.627,0.256,1.026
						c-0.02,0.399-0.2,0.77-0.542,1.111c-1.9,1.787-3.411,3.354-4.532,4.703C526.805,157.661,525.826,159.039,524.991,160.445z
						 M528.297,133.142c-0.684,0-1.207-0.208-1.567-0.627c-0.362-0.417-0.542-0.883-0.542-1.396c0-0.513,0.18-0.987,0.542-1.425
						c0.361-0.437,0.883-0.655,1.567-0.655h2.508c0.721,0,1.263,0.219,1.625,0.655c0.36,0.438,0.542,0.912,0.542,1.425
						c0,0.513-0.181,0.979-0.542,1.396c-0.362,0.419-0.903,0.627-1.625,0.627H528.297z M541.065,161.015
						c-2.28,0-3.943-0.637-4.987-1.909c-1.046-1.273-1.568-2.916-1.568-4.931v-39.102c0-0.95,0.285-1.653,0.855-2.109
						c0.57-0.456,1.197-0.684,1.881-0.684s1.311,0.238,1.881,0.712c0.57,0.476,0.855,1.169,0.855,2.081v37.905
						c0,1.254,0.266,2.137,0.798,2.65c0.532,0.513,1.292,0.77,2.28,0.77c0.684,0,1.263-0.114,1.738-0.342
						c0.475-0.228,0.855-0.607,1.14-1.14c0.285-0.532,0.503-1.244,0.656-2.138c0.151-0.893,0.247-2.004,0.285-3.334
						c0-0.456,0.143-0.798,0.428-1.026c0.285-0.228,0.598-0.342,0.94-0.342c0.342,0,0.655,0.114,0.94,0.342s0.428,0.57,0.428,1.026
						c0,1.254,0.104,2.337,0.313,3.249c0.208,0.912,0.636,1.501,1.282,1.767c0.722,0.305,1.073,0.808,1.055,1.511
						c-0.02,0.702-0.342,1.434-0.969,2.194c-0.627,0.76-1.53,1.425-2.708,1.995c-1.178,0.57-2.565,0.854-4.161,0.854H541.065z
						 M544.2,133.484c-0.456,0.38-0.884,0.57-1.283,0.57s-0.722-0.114-0.969-0.342c-0.248-0.228-0.399-0.522-0.456-0.883
						c-0.057-0.361,0.028-0.712,0.256-1.055c0.607-0.988,1.244-2.089,1.91-3.306c0.664-1.216,1.32-2.488,1.966-3.819
						c0.494-1.063,1.13-1.671,1.91-1.824c0.778-0.151,1.482-0.019,2.109,0.399c0.627,0.418,1.035,1.036,1.226,1.852
						c0.189,0.818-0.057,1.663-0.741,2.537c-0.836,1.026-1.758,2.043-2.765,3.05C546.356,131.67,545.302,132.61,544.2,133.484z"/>
					<path class="st1" d="M584.955,134.054h-8.664c-0.305,2.927-0.704,5.549-1.197,7.866h10.944c0.646,0,1.13,0.209,1.454,0.627
						c0.322,0.419,0.484,0.865,0.484,1.34c0,0.476-0.162,0.921-0.484,1.339c-0.324,0.418-0.808,0.627-1.454,0.627h-12.027
						c-0.57,1.71-1.235,3.306-1.995,4.788c-0.761,1.482-1.644,2.878-2.65,4.189c-1.007,1.311-2.157,2.574-3.449,3.791
						c-1.292,1.216-2.736,2.413-4.332,3.591c-0.38,0.304-0.779,0.418-1.197,0.342c-0.419-0.076-0.761-0.256-1.026-0.541
						c-0.266-0.285-0.409-0.637-0.427-1.055c-0.02-0.419,0.18-0.817,0.599-1.197c1.102-1.026,2.118-2.033,3.049-3.021
						c0.931-0.988,1.776-2.033,2.537-3.135c0.76-1.102,1.434-2.28,2.023-3.534c0.589-1.254,1.111-2.659,1.567-4.218h-9.405
						c-0.608,0-1.064-0.208-1.368-0.627c-0.305-0.418-0.456-0.864-0.456-1.339c0-0.475,0.151-0.921,0.456-1.34
						c0.304-0.417,0.76-0.627,1.368-0.627h10.317c0.228-1.14,0.427-2.355,0.599-3.648c0.171-1.292,0.332-2.698,0.484-4.218h-9.576
						c-0.608,0-1.064-0.199-1.368-0.598c-0.305-0.399-0.456-0.845-0.456-1.339c0-0.494,0.151-0.941,0.456-1.34
						c0.304-0.399,0.759-0.599,1.368-0.599h9.861c0.228-4.369,0.342-9.595,0.342-15.675c0-0.912,0.294-1.596,0.883-2.052
						c0.589-0.456,1.234-0.684,1.938-0.684c0.703,0,1.349,0.219,1.938,0.655c0.589,0.438,0.884,1.112,0.884,2.023
						c0,3.041-0.029,5.853-0.085,8.436c-0.057,2.585-0.162,5.016-0.313,7.296h8.379c0.607,0,1.054,0.2,1.339,0.599
						s0.428,0.846,0.428,1.34c0,0.494-0.143,0.94-0.428,1.339S585.563,134.054,584.955,134.054z M562.725,116.213
						c0.76,0.95,1.605,2.062,2.537,3.334c0.931,1.274,1.757,2.461,2.479,3.563c0.607,0.912,0.77,1.73,0.484,2.451
						c-0.285,0.722-0.751,1.245-1.396,1.567c-0.646,0.323-1.339,0.38-2.081,0.171c-0.741-0.208-1.264-0.807-1.567-1.795
						c-0.38-1.33-0.798-2.622-1.254-3.876c-0.456-1.254-0.969-2.545-1.539-3.876c-0.191-0.418-0.209-0.778-0.057-1.083
						c0.151-0.304,0.361-0.542,0.627-0.712c0.266-0.171,0.57-0.237,0.912-0.2C562.212,115.795,562.497,115.947,562.725,116.213z
						 M579.654,126.017c0.418-0.988,0.855-2.213,1.311-3.677c0.456-1.462,0.893-2.878,1.311-4.247
						c0.342-1.14,0.874-1.853,1.596-2.137c0.721-0.285,1.415-0.285,2.081,0c0.664,0.285,1.159,0.798,1.482,1.539
						c0.322,0.741,0.237,1.567-0.256,2.479c-0.456,0.875-1.122,1.966-1.995,3.277c-0.875,1.311-1.844,2.613-2.907,3.905
						c-0.342,0.418-0.704,0.665-1.083,0.741c-0.38,0.077-0.712,0.039-0.998-0.114c-0.285-0.151-0.484-0.39-0.598-0.713
						C579.483,126.749,579.502,126.397,579.654,126.017z M595.215,146.936c0,1.064-0.276,1.853-0.826,2.365
						c-0.551,0.513-1.16,0.77-1.824,0.77c-0.665,0-1.273-0.265-1.824-0.798c-0.551-0.532-0.827-1.311-0.827-2.337v-27.303
						c0-0.949,0.275-1.662,0.827-2.137c0.55-0.475,1.159-0.712,1.824-0.712c0.665,0,1.273,0.237,1.824,0.712
						c0.55,0.476,0.826,1.188,0.826,2.137V146.936z M606.159,154.973c0,1.596-0.305,2.945-0.912,4.047
						c-0.608,1.102-1.482,2.109-2.622,3.021c-0.722,0.57-1.425,0.721-2.109,0.456c-0.684-0.267-0.989-0.741-0.912-1.425
						c0.114-0.988-0.342-1.758-1.368-2.308c-1.026-0.552-2.755-0.903-5.187-1.055c-0.532-0.038-0.912-0.2-1.14-0.484
						c-0.228-0.285-0.342-0.59-0.342-0.912s0.104-0.617,0.313-0.884c0.208-0.265,0.503-0.399,0.884-0.399
						c0.835,0,1.738-0.009,2.708-0.028c0.969-0.019,1.776-0.047,2.422-0.085c1.102-0.076,1.814-0.465,2.138-1.168
						c0.322-0.703,0.484-1.625,0.484-2.765v-36.252c0-1.026,0.294-1.795,0.883-2.309c0.589-0.513,1.234-0.77,1.938-0.77
						c0.703,0,1.349,0.256,1.938,0.77c0.589,0.513,0.884,1.283,0.884,2.309V154.973z"/>
					<path class="st1" d="M621.407,148.304c0.399-0.114,0.769-0.114,1.111,0c0.342,0.114,0.617,0.323,0.827,0.627
						c0.208,0.305,0.256,0.704,0.142,1.197c-0.228,0.912-0.447,1.72-0.655,2.422c-0.209,0.704-0.428,1.368-0.656,1.995
						c-0.228,0.627-0.484,1.254-0.769,1.881c-0.285,0.627-0.618,1.301-0.998,2.024c-0.456,0.874-0.969,1.5-1.539,1.881
						c-0.57,0.379-1.14,0.579-1.71,0.599c-0.57,0.019-1.103-0.124-1.596-0.428c-0.494-0.305-0.855-0.684-1.083-1.14
						c-0.228-0.456-0.305-0.979-0.228-1.567c0.076-0.589,0.399-1.168,0.969-1.739c0.607-0.646,1.149-1.244,1.625-1.795
						c0.475-0.551,0.902-1.092,1.282-1.625c0.379-0.531,0.75-1.083,1.112-1.653c0.36-0.57,0.769-1.216,1.225-1.938
						C620.694,148.665,621.007,148.418,621.407,148.304z M665.895,127.584c0.266-0.361,0.389-0.77,0.371-1.226
						c-0.02-0.456-0.162-0.864-0.428-1.226c-0.266-0.361-0.665-0.542-1.197-0.542h-15.504c1.177-0.607,2.127-1.177,2.85-1.71
						c0.646-0.493,0.969-1.055,0.969-1.682s-0.209-1.168-0.627-1.624h8.322c0.646,0,1.13-0.18,1.454-0.542
						c0.322-0.36,0.484-0.759,0.484-1.197c0-0.437-0.162-0.835-0.484-1.197c-0.323-0.361-0.808-0.542-1.454-0.542h-16.758
						c0.076-0.418,0.037-0.835-0.114-1.254c-0.152-0.417-0.476-0.835-0.969-1.254c-0.418-0.304-0.922-0.655-1.511-1.054
						c-0.589-0.399-1.396-0.941-2.422-1.625c-0.456-0.304-0.903-0.437-1.339-0.399c-0.438,0.039-0.789,0.171-1.055,0.399
						c-0.266,0.228-0.427,0.532-0.484,0.912s0.028,0.741,0.256,1.083c0.456,0.684,0.817,1.254,1.083,1.71
						c0.266,0.456,0.55,0.95,0.855,1.482h-18.069c-0.608,0-1.064,0.181-1.368,0.542c-0.305,0.361-0.456,0.76-0.456,1.197
						c0,0.438,0.151,0.836,0.456,1.197c0.304,0.362,0.76,0.542,1.368,0.542h6.669c-0.342,0.456-0.342,0.893,0,1.311
						c0.646,0.723,1.187,1.368,1.625,1.938c0.437,0.57,0.864,1.159,1.283,1.767h-13.623c-0.57,0-0.989,0.181-1.254,0.542
						c-0.267,0.362-0.399,0.77-0.399,1.226s0.133,0.865,0.399,1.226c0.265,0.362,0.684,0.542,1.254,0.542h48.564
						C665.211,128.126,665.629,127.946,665.895,127.584z M621.891,133.769c0-1.026,0.294-1.786,0.883-2.28
						c0.589-0.493,1.226-0.741,1.91-0.741s1.32,0.248,1.91,0.741c0.588,0.495,0.883,1.254,0.883,2.28v9.975
						c0,0.988-0.295,1.72-0.883,2.194c-0.59,0.476-1.226,0.704-1.91,0.684c-0.684-0.019-1.321-0.275-1.91-0.77
						c-0.589-0.494-0.883-1.197-0.883-2.109V133.769z M632.436,160.673c-1.026-0.228-1.91-0.637-2.65-1.226
						c-0.741-0.589-1.311-1.377-1.71-2.365c-0.399-0.988-0.599-2.223-0.599-3.705v-2.109c0-0.95,0.294-1.653,0.883-2.109
						c0.589-0.456,1.244-0.684,1.967-0.684c0.721,0,1.377,0.228,1.966,0.684c0.589,0.456,0.884,1.159,0.884,2.109v1.083
						c0,1.026,0.085,1.815,0.256,2.365c0.171,0.551,0.437,0.969,0.798,1.254c0.361,0.285,0.835,0.456,1.425,0.513
						c0.588,0.057,1.32,0.085,2.194,0.085h6.669c1.14,0,2.014-0.067,2.622-0.199c0.607-0.133,1.063-0.408,1.368-0.827
						c0.304-0.418,0.494-1.016,0.57-1.795c0.076-0.779,0.133-1.833,0.171-3.164c0-0.532,0.171-0.931,0.513-1.197
						c0.342-0.265,0.712-0.399,1.111-0.399s0.77,0.134,1.111,0.399c0.342,0.267,0.513,0.666,0.513,1.197
						c0,0.722,0.019,1.302,0.057,1.738c0.037,0.438,0.123,0.789,0.256,1.055c0.133,0.266,0.313,0.466,0.542,0.599
						c0.228,0.133,0.513,0.256,0.855,0.37c0.798,0.305,1.216,0.818,1.254,1.539c0.038,0.722-0.266,1.463-0.912,2.223
						c-0.647,0.76-1.616,1.434-2.907,2.023c-1.292,0.589-2.87,0.883-4.731,0.883h-11.001
						C634.621,161.015,633.462,160.901,632.436,160.673z M628.987,145.996c-0.285-0.361-0.427-0.75-0.427-1.168
						c0-0.418,0.143-0.807,0.427-1.169c0.285-0.36,0.713-0.541,1.283-0.541h23.028v-7.011c0-0.456-0.095-0.883-0.285-1.283
						c-0.191-0.399-0.551-0.598-1.083-0.598h-21.66c-0.57,0-0.989-0.18-1.254-0.542c-0.267-0.361-0.399-0.75-0.399-1.169
						c0-0.417,0.132-0.807,0.399-1.168c0.265-0.361,0.684-0.542,1.254-0.542h24.225c1.671,0,2.821,0.456,3.448,1.368
						s0.94,2.015,0.94,3.306v8.151c0,0.761-0.209,1.435-0.627,2.023c-0.418,0.59-1.121,0.884-2.109,0.884H630.27
						C629.7,146.537,629.272,146.357,628.987,145.996z M629.358,139.668c-0.266-0.322-0.399-0.684-0.399-1.083
						s0.133-0.76,0.399-1.083c0.266-0.322,0.684-0.484,1.254-0.484h19.608c0.532,0,0.931,0.162,1.197,0.484
						c0.266,0.323,0.399,0.684,0.399,1.083s-0.133,0.761-0.399,1.083c-0.266,0.323-0.665,0.484-1.197,0.484h-19.608
						C630.042,140.153,629.624,139.992,629.358,139.668z M631.381,120.716c-0.551-0.304-1.282-0.684-2.194-1.14h19.779l-0.228,0.342
						c-0.418,0.646-0.826,1.226-1.225,1.738c-0.399,0.513-0.979,1.207-1.739,2.081c-0.228,0.305-0.323,0.59-0.285,0.855h-12.084
						c0.266-0.456,0.371-0.969,0.314-1.539c-0.057-0.57-0.371-1.063-0.941-1.482C632.398,121.306,631.932,121.02,631.381,120.716z
						 M637.766,147.392c-0.323,0.077-0.57,0.219-0.741,0.427c-0.171,0.209-0.276,0.476-0.313,0.798
						c-0.038,0.324,0.057,0.618,0.285,0.884c0.342,0.456,0.627,0.826,0.855,1.111s0.427,0.562,0.599,0.827
						c0.171,0.266,0.342,0.542,0.513,0.827c0.171,0.285,0.371,0.637,0.599,1.054c0.57,0.912,1.234,1.368,1.995,1.368
						c0.76,0,1.396-0.228,1.909-0.684c0.513-0.456,0.807-1.045,0.884-1.767c0.076-0.721-0.267-1.368-1.026-1.938
						c-0.305-0.228-0.599-0.437-0.884-0.627c-0.285-0.189-0.589-0.389-0.912-0.599c-0.323-0.208-0.704-0.427-1.14-0.655
						c-0.438-0.228-0.979-0.513-1.625-0.855C638.421,147.373,638.088,147.316,637.766,147.392z M658.086,148.19
						c-0.342,0-0.646,0.085-0.912,0.256c-0.266,0.171-0.456,0.399-0.57,0.684c-0.114,0.285-0.077,0.599,0.114,0.94
						c0.57,1.064,1.055,2.005,1.454,2.822c0.399,0.817,0.75,1.559,1.055,2.223c0.304,0.666,0.57,1.274,0.798,1.824
						s0.437,1.092,0.627,1.625c0.266,0.721,0.646,1.226,1.14,1.51c0.493,0.285,1.006,0.408,1.539,0.371
						c0.532-0.038,1.044-0.209,1.539-0.513c0.493-0.305,0.883-0.694,1.168-1.168c0.285-0.476,0.399-1.018,0.342-1.625
						c-0.057-0.608-0.352-1.234-0.883-1.881c-1.521-1.861-3.705-4.104-6.555-6.726C658.713,148.304,658.428,148.19,658.086,148.19z"
						/>
					<path class="st1" d="M689.778,147.791c0.494-0.304,0.931-0.399,1.311-0.285c0.379,0.114,0.656,0.333,0.827,0.656
						c0.171,0.323,0.218,0.684,0.143,1.083c-0.077,0.399-0.342,0.75-0.798,1.054c-0.988,0.684-1.929,1.388-2.821,2.109
						c-0.893,0.722-1.691,1.416-2.394,2.08c-0.704,0.666-1.292,1.274-1.767,1.824c-0.476,0.55-0.789,0.978-0.94,1.282
						c-0.342,0.646-0.817,1.112-1.425,1.396c-0.608,0.285-1.207,0.342-1.795,0.171c-0.59-0.171-1.112-0.599-1.568-1.283
						s-0.684-1.69-0.684-3.021v-20.691c0-0.76-0.38-1.14-1.14-1.14h-3.306c-0.722,0-1.254-0.208-1.596-0.627
						c-0.342-0.417-0.513-0.883-0.513-1.396s0.18-0.988,0.542-1.425c0.361-0.437,0.902-0.656,1.625-0.656h6.612
						c0.95,0,1.748,0.352,2.394,1.055c0.646,0.704,0.969,1.53,0.969,2.479v17.898c0,0.533,0.322,0.666,0.969,0.399
						c0.418-0.189,1.112-0.56,2.081-1.111C687.47,149.093,688.562,148.475,689.778,147.791z M680.886,123.053
						c-0.57-0.798-1.083-1.5-1.539-2.109c-0.456-0.607-0.903-1.197-1.34-1.767c-0.437-0.57-0.883-1.14-1.339-1.71
						c-0.456-0.57-0.969-1.177-1.539-1.824c-0.305-0.342-0.466-0.712-0.484-1.112c-0.02-0.399,0.066-0.75,0.256-1.054
						c0.19-0.304,0.465-0.513,0.827-0.627c0.361-0.114,0.75-0.038,1.168,0.228c3.686,2.242,6.479,4.104,8.379,5.586
						c0.912,0.722,1.33,1.549,1.254,2.479c-0.076,0.932-0.418,1.71-1.026,2.337c-0.608,0.627-1.349,0.969-2.223,1.026
						C682.405,124.563,681.607,124.079,680.886,123.053z M696.789,146.081c0.532-1.026,1.206-1.625,2.023-1.796
						c0.817-0.171,1.558-0.065,2.223,0.314c0.664,0.38,1.13,0.979,1.396,1.795c0.265,0.817,0.094,1.72-0.513,2.708
						c-0.684,1.14-1.463,2.233-2.337,3.277c-0.875,1.045-1.844,2.09-2.907,3.135c-1.064,1.044-2.251,2.118-3.563,3.22
						c-1.311,1.102-2.746,2.26-4.303,3.477c-0.38,0.304-0.761,0.408-1.14,0.313c-0.38-0.095-0.694-0.285-0.94-0.57
						c-0.248-0.285-0.39-0.618-0.428-0.998c-0.038-0.38,0.095-0.723,0.399-1.026c1.026-1.064,1.985-2.109,2.878-3.135
						c0.892-1.026,1.738-2.081,2.537-3.164c0.798-1.083,1.576-2.232,2.337-3.448C695.212,148.969,695.991,147.601,696.789,146.081z
						 M697.017,138.899c0,0.912-0.295,1.587-0.884,2.023c-0.589,0.438-1.225,0.656-1.909,0.656s-1.321-0.218-1.91-0.656
						c-0.589-0.436-0.883-1.111-0.883-2.023V118.55c0-0.912,0.294-1.586,0.883-2.023c0.589-0.437,1.226-0.655,1.91-0.655
						s1.32,0.219,1.909,0.655c0.589,0.438,0.884,1.111,0.884,2.023V138.899z M714.687,115.928c1.9,0,3.268,0.523,4.104,1.568
						c0.835,1.045,1.234,2.29,1.197,3.733v16.815c0,1.254-0.399,2.138-1.197,2.65c-0.798,0.513-1.919,0.77-3.363,0.77h-15.105
						c-0.647,0-1.131-0.208-1.454-0.627c-0.323-0.418-0.485-0.883-0.485-1.396c0-0.513,0.162-0.988,0.485-1.425
						c0.322-0.437,0.807-0.656,1.454-0.656h14.022v-15.048c0-1.52-0.761-2.28-2.28-2.28h-11.742c-0.647,0-1.131-0.209-1.454-0.627
						c-0.323-0.417-0.485-0.883-0.485-1.396c0-0.513,0.162-0.988,0.485-1.425c0.322-0.437,0.807-0.656,1.454-0.656H714.687z
						 M712.407,145.112c2.052,2.205,3.856,4.294,5.415,6.27c1.558,1.977,3.001,3.857,4.332,5.643
						c0.684,0.912,0.884,1.814,0.599,2.708c-0.285,0.893-0.789,1.576-1.51,2.052c-0.723,0.475-1.53,0.646-2.423,0.513
						c-0.893-0.133-1.605-0.77-2.137-1.91c-1.445-3.002-2.746-5.586-3.905-7.752c-1.16-2.166-2.176-4.027-3.049-5.586
						c-0.266-0.456-0.333-0.883-0.2-1.282c0.133-0.399,0.351-0.703,0.656-0.912c0.304-0.208,0.665-0.304,1.083-0.285
						C711.685,144.59,712.065,144.77,712.407,145.112z"/>
				</g>
			</g>
			<line class="st2" x1="392.473" y1="95.489" x2="839.039" y2="95.489"/>
		</g>
	</g>
	<g>
		<g>
			<path class="st1" d="M337.276,86.016c0.798,0,1.415,0.248,1.852,0.741c0.437,0.495,0.656,1.083,0.656,1.767
				s-0.219,1.273-0.656,1.767c-0.437,0.494-1.054,0.741-1.852,0.741h-18.924c-0.798,0-1.416-0.247-1.853-0.741
				c-0.437-0.494-0.655-1.083-0.655-1.767s0.218-1.272,0.655-1.767c0.437-0.493,1.055-0.741,1.853-0.741H337.276z M337.276,97.415
				c0.798,0,1.415,0.248,1.852,0.741c0.437,0.495,0.656,1.083,0.656,1.767s-0.219,1.274-0.656,1.767
				c-0.437,0.494-1.054,0.741-1.852,0.741h-18.924c-0.798,0-1.416-0.247-1.853-0.741c-0.437-0.493-0.655-1.083-0.655-1.767
				s0.218-1.272,0.655-1.767c0.437-0.493,1.055-0.741,1.853-0.741H337.276z"/>
		</g>
	</g>
</g>
</svg>