<!-- Generator: Adobe Illustrator 24.1.3, SVG Export Plug-In  -->
<svg version="1.1" xmlns="http://www.w3.org/2000/svg" xmlns:xlink="http://www.w3.org/1999/xlink" x="0px" y="0px"
	 width="477.675px" height="93.196px" viewBox="0 0 477.675 93.196"
	 style="overflow:visible;enable-background:new 0 0 477.675 93.196;" xml:space="preserve">
<style type="text/css">
	.st0{fill:#BF2222;}
	.st1{fill:none;}
	.st2{font-family:'HYQingFenTi-W';}
	.st3{font-size:72px;}
</style>
<defs>
</defs>
<g>
	<g>
		<g>
			<path class="st0" d="M111.079,62.726c-0.576,1.008-1.249,1.68-2.016,2.016c-0.768,0.335-1.512,0.396-2.232,0.18
				c-0.72-0.216-1.321-0.672-1.8-1.367c-0.48-0.697-0.72-1.621-0.72-2.772V33.998c0-0.959-0.504-1.439-1.512-1.439h-4.104
				c-0.817,0-1.429-0.264-1.836-0.793c-0.409-0.527-0.612-1.104-0.612-1.728c0-0.623,0.216-1.199,0.648-1.728
				c0.432-0.527,1.055-0.793,1.872-0.793h8.208c1.199,0,2.16,0.422,2.88,1.261c0.72,0.841,1.08,1.86,1.08,3.06v22.104
				c0,0.289,0.096,0.529,0.288,0.721c0.191,0.192,0.432,0.169,0.72-0.072l4.248-3.24c0.479-0.239,0.947-0.287,1.404-0.144
				c0.456,0.144,0.792,0.421,1.008,0.828c0.216,0.408,0.276,0.864,0.18,1.368c-0.097,0.504-0.457,0.996-1.08,1.476
				c-1.104,0.817-2.257,1.944-3.456,3.384C113.047,59.702,111.991,61.19,111.079,62.726z M100.999,9.23
				c-0.336-0.479-0.457-0.96-0.36-1.44c0.096-0.479,0.299-0.864,0.612-1.151c0.312-0.289,0.72-0.456,1.224-0.504
				s0.996,0.144,1.476,0.575c2.304,1.969,4.127,3.625,5.472,4.968c1.343,1.345,2.472,2.545,3.384,3.601
				c0.624,0.72,0.959,1.452,1.008,2.196c0.047,0.744-0.097,1.428-0.432,2.052c-0.336,0.624-0.817,1.128-1.44,1.512
				c-0.625,0.385-1.296,0.601-2.016,0.647c-0.72,0.049-1.417-0.119-2.088-0.504c-0.673-0.383-1.224-1.055-1.656-2.016
				c-0.576-1.344-1.092-2.495-1.548-3.456c-0.457-0.96-0.889-1.812-1.296-2.556c-0.409-0.744-0.792-1.416-1.152-2.016
				C101.827,10.539,101.431,9.902,100.999,9.23z M159.895,47.605h-17.712v11.593h9.144V53.51c0-1.104,0.335-1.932,1.008-2.483
				c0.672-0.552,1.428-0.828,2.268-0.828c0.839,0,1.595,0.276,2.268,0.828c0.672,0.552,1.008,1.38,1.008,2.483v11.592
				c0,0.721-0.241,1.32-0.72,1.801c-0.48,0.479-1.044,0.815-1.692,1.008c-0.648,0.191-1.309,0.191-1.98,0
				c-0.673-0.192-1.201-0.625-1.584-1.296c-0.72-1.152-1.453-1.908-2.196-2.269c-0.745-0.359-1.596-0.539-2.556-0.539H129.8
				c-0.673,0-1.188-0.241-1.548-0.721c-0.36-0.48-0.54-1.008-0.54-1.584s0.18-1.104,0.54-1.584c0.36-0.479,0.875-0.72,1.548-0.72
				h5.976V47.605h-17.928c-0.72,0-1.249-0.238-1.584-0.719c-0.336-0.48-0.504-1.02-0.504-1.621c0-0.6,0.167-1.139,0.504-1.619
				c0.335-0.479,0.864-0.721,1.584-0.721h17.928v-2.88c0-1.104,0.335-1.944,1.008-2.52c0.671-0.576,1.404-0.864,2.196-0.864
				s1.523,0.277,2.196,0.828c0.671,0.553,1.008,1.404,1.008,2.556v2.88h17.712c0.768,0,1.332,0.241,1.692,0.721
				c0.36,0.48,0.54,1.02,0.54,1.619c0,0.602-0.18,1.141-0.54,1.621C161.227,47.367,160.663,47.605,159.895,47.605z M153.703,6.135
				c1.152-0.336,2.088-0.229,2.808,0.323c0.72,0.553,1.152,1.236,1.296,2.052c0.144,0.816-0.072,1.621-0.648,2.412
				c-0.576,0.793-1.584,1.285-3.024,1.477c-2.16,0.287-4.464,0.553-6.912,0.791c-2.448,0.241-5.125,0.469-8.028,0.685
				c-2.905,0.216-6.061,0.409-9.468,0.576c-3.409,0.169-7.153,0.323-11.232,0.468c-0.432,0-0.781-0.168-1.044-0.504
				c-0.264-0.335-0.421-0.707-0.468-1.115c-0.049-0.408,0.023-0.793,0.216-1.152c0.191-0.36,0.504-0.564,0.936-0.612
				c3.983-0.288,7.776-0.647,11.376-1.08c3.6-0.433,6.936-0.899,10.008-1.403c3.071-0.505,5.808-1.009,8.208-1.513
				C150.127,7.034,152.119,6.566,153.703,6.135z M126.703,32.054c-0.529,1.199-1.224,2.424-2.088,3.672
				c-0.864,1.248-2.041,2.832-3.528,4.752c-0.385,0.528-0.841,0.816-1.368,0.863c-0.529,0.049-0.997-0.059-1.404-0.324
				c-0.409-0.263-0.697-0.658-0.864-1.188c-0.169-0.527-0.061-1.127,0.324-1.8c0.72-1.247,1.296-2.472,1.728-3.673
				c0.432-1.199,0.911-2.566,1.44-4.104c0.383-1.152,0.983-1.896,1.8-2.232c0.815-0.334,1.584-0.371,2.304-0.107
				c0.72,0.265,1.284,0.769,1.692,1.512C127.147,30.171,127.136,31.046,126.703,32.054z M126.127,64.958
				c0,1.009-0.336,1.775-1.008,2.304c-0.673,0.527-1.417,0.793-2.232,0.793c-0.817,0-1.561-0.266-2.232-0.793
				c-0.673-0.528-1.008-1.295-1.008-2.304V53.51c0-1.104,0.335-1.932,1.008-2.483c0.671-0.552,1.415-0.828,2.232-0.828
				c0.815,0,1.559,0.276,2.232,0.828c0.672,0.552,1.008,1.38,1.008,2.483V64.958z M123.176,16.502
				c1.343,1.393,2.412,2.52,3.204,3.385c0.792,0.863,1.451,1.632,1.98,2.303c0.72,0.961,0.923,1.873,0.612,2.736
				c-0.313,0.864-0.828,1.501-1.548,1.908c-0.72,0.408-1.501,0.504-2.34,0.288c-0.84-0.216-1.452-0.947-1.836-2.196
				c-0.529-1.584-0.984-2.867-1.368-3.852c-0.385-0.983-0.769-1.883-1.152-2.7c-0.192-0.384-0.228-0.756-0.108-1.116
				c0.119-0.359,0.312-0.647,0.576-0.863c0.263-0.217,0.587-0.324,0.972-0.324C122.551,16.07,122.887,16.215,123.176,16.502z
				 M155.431,35.654h-25.416c-0.72,0-1.249-0.24-1.584-0.721c-0.336-0.479-0.504-0.995-0.504-1.547s0.167-1.068,0.504-1.549
				c0.335-0.479,0.864-0.72,1.584-0.72h25.416c0.672,0,1.176,0.241,1.512,0.72c0.335,0.48,0.504,0.997,0.504,1.549
				s-0.169,1.068-0.504,1.547C156.607,35.414,156.103,35.654,155.431,35.654z M137.143,15.422c0.911,1.249,1.728,2.4,2.448,3.456
				c0.72,1.057,1.415,2.185,2.088,3.384c0.623,1.057,0.731,2.006,0.324,2.844c-0.409,0.841-0.984,1.44-1.728,1.801
				c-0.745,0.359-1.537,0.408-2.376,0.145c-0.841-0.264-1.38-0.996-1.62-2.197c-0.288-1.439-0.565-2.723-0.828-3.852
				c-0.264-1.127-0.612-2.436-1.044-3.924c-0.144-0.479-0.121-0.9,0.072-1.26c0.191-0.36,0.443-0.623,0.756-0.792
				c0.312-0.168,0.648-0.228,1.008-0.181C136.603,14.894,136.903,15.087,137.143,15.422z M147.656,25.429
				c0.432-1.151,0.828-2.375,1.188-3.672c0.36-1.296,0.78-2.927,1.26-4.896c0.288-1.152,0.839-1.884,1.656-2.196
				c0.815-0.312,1.607-0.324,2.376-0.035c0.767,0.287,1.368,0.852,1.8,1.691c0.432,0.84,0.36,1.836-0.216,2.988
				c-0.72,1.536-1.476,2.893-2.268,4.067c-0.792,1.177-1.74,2.412-2.844,3.708c-0.288,0.385-0.648,0.612-1.08,0.684
				c-0.432,0.072-0.817,0.025-1.152-0.144c-0.336-0.167-0.588-0.432-0.756-0.792C147.45,26.474,147.463,26.006,147.656,25.429z"/>
			<path class="st0" d="M230.167,19.166h-57.312c-0.864,0-1.512-0.264-1.944-0.792c-0.432-0.527-0.648-1.091-0.648-1.692
				c0-0.6,0.216-1.162,0.648-1.691c0.432-0.527,1.08-0.792,1.944-0.792h57.312c0.816,0,1.44,0.265,1.872,0.792
				c0.432,0.529,0.648,1.092,0.648,1.691c0,0.602-0.205,1.165-0.612,1.692C231.667,18.902,231.032,19.166,230.167,19.166z
				 M223.327,29.75h-43.56c-0.912,0-1.596-0.252-2.052-0.756c-0.457-0.504-0.684-1.068-0.684-1.691c0-0.624,0.227-1.188,0.684-1.692
				c0.456-0.505,1.14-0.757,2.052-0.757h43.56c0.864,0,1.523,0.252,1.98,0.757c0.456,0.504,0.684,1.068,0.684,1.692
				c0,0.623-0.216,1.188-0.648,1.691S224.239,29.75,223.327,29.75z M223.183,40.046h-43.272c-0.912,0-1.596-0.252-2.052-0.756
				c-0.457-0.504-0.684-1.067-0.684-1.692c0-0.623,0.227-1.188,0.684-1.691c0.456-0.504,1.14-0.756,2.052-0.756h43.272
				c0.864,0,1.523,0.252,1.98,0.756c0.456,0.504,0.684,1.068,0.684,1.691c0,0.625-0.216,1.188-0.648,1.692
				S224.095,40.046,223.183,40.046z M177.895,65.39c0,1.151,0.384,2.003,1.152,2.556c0.767,0.552,1.595,0.827,2.484,0.827
				c0.888,0,1.715-0.275,2.484-0.827c0.767-0.553,1.152-1.404,1.152-2.556V48.758c0-1.152-0.385-2.004-1.152-2.556
				c-0.769-0.552-1.596-0.828-2.484-0.828c-0.889,0-1.717,0.276-2.484,0.828c-0.769,0.552-1.152,1.403-1.152,2.556V65.39z
				 M218.647,67.694c0.432,0.575,0.996,0.923,1.692,1.044c0.695,0.119,1.368,0.072,2.016-0.145c0.648-0.216,1.199-0.624,1.656-1.224
				c0.456-0.601,0.684-1.332,0.684-2.196v-13.68c0-3.936-1.969-5.904-5.904-5.904h-29.664c-0.768,0-1.344,0.252-1.728,0.756
				c-0.385,0.504-0.576,1.069-0.576,1.692c0,0.624,0.191,1.188,0.576,1.692c0.383,0.504,0.959,0.756,1.728,0.756h26.208
				c0.768,0,1.308,0.145,1.62,0.432c0.312,0.288,0.468,0.792,0.468,1.512v7.416h-28.296c-0.768,0-1.344,0.252-1.728,0.756
				c-0.385,0.504-0.576,1.056-0.576,1.656c0,0.6,0.191,1.152,0.576,1.656c0.383,0.504,0.959,0.756,1.728,0.756h24.192
				c1.055,0,1.991,0.228,2.808,0.684C216.943,65.809,217.783,66.59,218.647,67.694z M199.136,3.542
				c1.968,1.249,3.719,2.473,5.256,3.673c1.055,0.912,1.5,1.848,1.332,2.807c-0.169,0.961-0.648,1.729-1.44,2.305
				s-1.717,0.84-2.772,0.792c-1.057-0.048-1.897-0.623-2.52-1.728c-1.057-1.873-2.113-3.624-3.168-5.256
				c-0.336-0.48-0.468-0.961-0.396-1.44c0.072-0.479,0.288-0.864,0.648-1.152s0.803-0.456,1.332-0.504
				C197.935,2.99,198.511,3.158,199.136,3.542z"/>
			<path class="st0" d="M244.207,18.95c-0.816,0-1.404-0.263-1.764-0.792c-0.36-0.527-0.54-1.092-0.54-1.691
				c0-0.6,0.191-1.164,0.576-1.693c0.384-0.527,0.96-0.791,1.728-0.791h18.576c0.576-1.152,1.104-2.279,1.584-3.385
				c0.479-1.104,0.936-2.207,1.368-3.312c0.527-1.343,1.296-2.22,2.304-2.628c1.008-0.407,1.968-0.443,2.88-0.107
				c0.912,0.336,1.62,0.96,2.124,1.871c0.504,0.912,0.516,2.016,0.036,3.313c-0.288,0.72-0.588,1.429-0.9,2.123
				c-0.313,0.697-0.66,1.404-1.044,2.125h32.04c0.767,0,1.343,0.264,1.728,0.791c0.383,0.529,0.576,1.094,0.576,1.693
				c0,0.6-0.192,1.164-0.576,1.691c-0.385,0.529-0.961,0.792-1.728,0.792h-34.92c-1.776,2.784-3.841,5.641-6.192,8.567
				c0.576,0.576,0.864,1.321,0.864,2.232v35.855c0,1.152-0.373,2.004-1.116,2.557c-0.745,0.551-1.56,0.828-2.448,0.828
				c-0.889,0-1.705-0.277-2.448-0.828c-0.745-0.553-1.116-1.404-1.116-2.557V34.79c-1.92,2.064-3.9,4.081-5.94,6.048
				c-2.041,1.969-4.117,3.865-6.228,5.688c-0.529,0.479-1.069,0.684-1.62,0.612c-0.552-0.072-1.008-0.289-1.368-0.648
				c-0.36-0.359-0.576-0.792-0.648-1.296c-0.072-0.505,0.108-0.947,0.54-1.332c4.367-4.32,8.147-8.556,11.34-12.708
				c3.192-4.151,5.94-8.219,8.244-12.204H244.207z M297.632,59.558c0,2.016-0.288,3.707-0.864,5.076
				c-0.576,1.367-1.752,2.65-3.528,3.852c-0.961,0.672-1.849,0.887-2.664,0.648c-0.817-0.241-1.249-0.793-1.296-1.656
				c0-0.674-0.133-1.225-0.396-1.656c-0.265-0.432-0.661-0.781-1.188-1.044c-0.529-0.265-1.201-0.48-2.016-0.647
				c-0.817-0.17-1.8-0.35-2.952-0.541c-0.576-0.097-1.008-0.349-1.296-0.756c-0.288-0.408-0.432-0.828-0.432-1.26
				s0.155-0.828,0.468-1.188c0.312-0.36,0.756-0.541,1.332-0.541c1.44,0,2.639-0.023,3.6-0.072c0.959-0.047,1.739-0.203,2.34-0.467
				c0.6-0.264,1.032-0.648,1.296-1.152c0.263-0.504,0.396-1.212,0.396-2.124V34.215c0-2.017-0.961-3.025-2.88-3.025h-20.592
				c-0.816,0-1.429-0.252-1.836-0.756c-0.408-0.504-0.612-1.066-0.612-1.691c0-0.623,0.204-1.188,0.612-1.691
				c0.407-0.505,1.02-0.757,1.836-0.757h24.408c1.296,0,2.351,0.157,3.168,0.468c0.815,0.313,1.451,0.769,1.908,1.369
				c0.456,0.6,0.767,1.32,0.936,2.159c0.167,0.841,0.252,1.765,0.252,2.772V59.558z M267.32,42.494
				c-0.817,0-1.429-0.252-1.836-0.756c-0.409-0.504-0.612-1.055-0.612-1.656c0-0.6,0.204-1.152,0.612-1.656
				c0.407-0.504,1.019-0.756,1.836-0.756h19.152c0.815,0,1.428,0.252,1.836,0.756c0.407,0.504,0.612,1.057,0.612,1.656
				c0,0.602-0.205,1.152-0.612,1.656c-0.408,0.504-1.021,0.756-1.836,0.756H267.32z M267.32,53.799
				c-0.817,0-1.429-0.253-1.836-0.757c-0.409-0.504-0.612-1.056-0.612-1.655s0.204-1.152,0.612-1.656
				c0.407-0.504,1.019-0.756,1.836-0.756h19.152c0.815,0,1.428,0.252,1.836,0.756c0.407,0.504,0.612,1.057,0.612,1.656
				s-0.205,1.151-0.612,1.655c-0.408,0.504-1.021,0.757-1.836,0.757H267.32z"/>
			<path class="st0" d="M318.296,68.99c-0.913,0.191-1.62,0.096-2.124-0.288c-0.504-0.385-0.805-0.864-0.9-1.44
				c-0.097-0.576-0.024-1.141,0.216-1.691c0.24-0.553,0.671-0.9,1.296-1.044c5.231-1.104,10.211-2.329,14.94-3.673
				c4.727-1.343,9.132-2.771,13.212-4.283c4.08-1.512,7.776-3.096,11.088-4.752c3.312-1.656,6.167-3.372,8.568-5.148
				c0.527-0.383,0.731-0.803,0.612-1.26c-0.12-0.455-0.493-0.684-1.116-0.684h-9.648c-0.816,0-1.429-0.264-1.836-0.793
				c-0.408-0.527-0.612-1.115-0.612-1.764s0.204-1.234,0.612-1.764c0.407-0.527,1.02-0.792,1.836-0.792h14.112
				c1.343,0,2.472,0.385,3.384,1.151c0.912,0.77,1.523,1.692,1.836,2.772c0.312,1.08,0.288,2.208-0.072,3.384
				c-0.36,1.178-1.116,2.196-2.268,3.061c-2.353,1.824-5.304,3.625-8.856,5.4c-3.553,1.775-7.585,3.48-12.096,5.111
				c-4.512,1.631-9.48,3.168-14.904,4.607C330.151,66.542,324.391,67.838,318.296,68.99z M318.583,41.342
				c-0.72,0.193-1.308,0.098-1.764-0.287c-0.457-0.385-0.745-0.852-0.864-1.404c-0.12-0.551-0.072-1.092,0.144-1.62
				c0.216-0.528,0.636-0.864,1.26-1.009c4.896-1.247,9.54-2.615,13.932-4.104c4.392-1.487,8.46-2.988,12.204-4.5
				s7.092-3.023,10.044-4.535c2.952-1.513,5.436-2.916,7.452-4.213c0.623-0.383,0.888-0.792,0.792-1.224
				c-0.097-0.433-0.432-0.647-1.008-0.647h-13.68c-0.913,0-1.596-0.264-2.052-0.793c-0.457-0.527-0.684-1.091-0.684-1.691
				c0-0.6,0.227-1.164,0.684-1.692c0.456-0.527,1.14-0.792,2.052-0.792h17.496c1.536,0,2.819,0.396,3.852,1.188
				c1.031,0.793,1.703,1.754,2.016,2.881c0.312,1.128,0.24,2.293-0.216,3.492c-0.457,1.199-1.404,2.231-2.844,3.096
				c-1.825,1.104-4.248,2.376-7.272,3.816c-3.024,1.439-6.588,2.951-10.692,4.535s-8.737,3.193-13.896,4.824
				C330.379,38.295,324.727,39.855,318.583,41.342z M339.176,54.23c-0.961-1.344-1.728-2.436-2.304-3.276
				c-0.576-0.839-1.104-1.571-1.584-2.196c-2.16,0.961-4.44,1.908-6.84,2.844c-2.401,0.937-4.968,1.885-7.704,2.845
				c-0.625,0.241-1.177,0.216-1.656-0.072c-0.48-0.288-0.817-0.671-1.008-1.151c-0.192-0.48-0.216-0.984-0.072-1.513
				c0.144-0.527,0.527-0.911,1.152-1.151c3.312-1.297,6.275-2.544,8.892-3.744c2.616-1.199,5.051-2.448,7.308-3.744
				c2.255-1.297,4.403-2.664,6.444-4.104c2.04-1.44,4.14-3.072,6.3-4.896c0.96-0.816,1.944-1.164,2.952-1.044s1.8,0.504,2.376,1.151
				c0.576,0.648,0.839,1.465,0.792,2.448c-0.048,0.984-0.648,1.908-1.8,2.772c-3.216,2.447-7.513,4.92-12.888,7.416
				c1.536,1.104,2.675,1.956,3.42,2.556c0.744,0.601,1.307,1.069,1.692,1.403c0.768,0.721,1.056,1.502,0.864,2.341
				c-0.192,0.841-0.637,1.524-1.332,2.052c-0.696,0.529-1.524,0.769-2.484,0.721C340.735,55.839,339.895,55.287,339.176,54.23z
				 M332.192,21.902c-1.584,0.961-3.276,1.908-5.076,2.844s-3.733,1.933-5.796,2.988c-0.576,0.287-1.128,0.349-1.656,0.18
				c-0.529-0.168-0.912-0.468-1.152-0.9c-0.241-0.432-0.324-0.899-0.252-1.403c0.072-0.505,0.419-0.947,1.044-1.332
				c2.207-1.343,4.259-2.651,6.156-3.925c1.896-1.271,3.672-2.603,5.328-3.996c1.656-1.391,3.215-2.854,4.68-4.391
				c1.463-1.536,2.891-3.216,4.284-5.041c0.864-1.152,1.86-1.764,2.988-1.836c1.127-0.072,2.088,0.193,2.88,0.793
				s1.235,1.464,1.332,2.592c0.096,1.128-0.48,2.316-1.728,3.563c-1.344,1.393-2.749,2.677-4.212,3.853
				c-1.465,1.176-3.037,2.316-4.716,3.42c1.536,0.768,2.688,1.367,3.456,1.8c0.768,0.432,1.343,0.769,1.728,1.008
				c0.912,0.576,1.343,1.296,1.296,2.16c-0.048,0.864-0.385,1.608-1.008,2.231c-0.625,0.625-1.417,0.997-2.376,1.116
				c-0.96,0.12-1.872-0.275-2.736-1.188L332.192,21.902z"/>
			<path class="st0" d="M387.127,69.062c-0.528,0.144-1.02,0.035-1.476-0.324c-0.457-0.36-0.756-0.792-0.9-1.297
				c-0.144-0.504-0.12-1.02,0.072-1.547c0.191-0.529,0.671-0.889,1.44-1.08c5.663-1.488,10.739-3.072,15.228-4.752
				c4.488-1.68,8.556-3.516,12.204-5.508c3.647-1.992,6.959-4.177,9.936-6.553c2.976-2.376,5.807-4.979,8.496-7.813
				c0.816-0.863,1.728-1.271,2.736-1.223c1.008,0.048,1.836,0.385,2.484,1.008c0.648,0.624,0.996,1.451,1.044,2.483
				c0.047,1.032-0.48,2.077-1.584,3.132c-2.736,2.689-5.724,5.137-8.964,7.344c-3.24,2.209-6.865,4.261-10.872,6.156
				c-4.008,1.896-8.46,3.66-13.356,5.293C398.72,66.013,393.223,67.574,387.127,69.062z M391.736,46.166
				c-0.48,0.576-0.997,0.9-1.548,0.973c-0.552,0.071-1.033-0.023-1.44-0.289c-0.408-0.263-0.684-0.658-0.828-1.188
				c-0.144-0.527-0.024-1.08,0.36-1.656c2.448-3.646,4.56-7.619,6.336-11.916c1.775-4.295,3.287-8.916,4.536-13.859
				c0.335-1.248,0.947-2.088,1.836-2.521c0.888-0.432,1.775-0.527,2.664-0.288c0.887,0.241,1.595,0.805,2.124,1.692
				c0.527,0.889,0.6,2.005,0.216,3.348c-1.44,4.657-3.301,9.049-5.58,13.177C398.131,37.767,395.239,41.943,391.736,46.166z
				 M413.623,8.51c0-1.199,0.372-2.1,1.116-2.699c0.744-0.6,1.559-0.9,2.448-0.9c0.888,0,1.704,0.301,2.448,0.9
				c0.744,0.6,1.116,1.5,1.116,2.699v34.633c0,1.199-0.372,2.1-1.116,2.699c-0.745,0.602-1.561,0.9-2.448,0.9
				c-0.889,0-1.704-0.299-2.448-0.9c-0.745-0.6-1.116-1.5-1.116-2.699V8.51z M431.696,16.142c3.215,3.792,6.144,7.297,8.784,10.512
				c2.64,3.217,5.136,6.264,7.488,9.145c0.623,0.816,0.959,1.607,1.008,2.375c0.047,0.769-0.084,1.465-0.396,2.088
				c-0.313,0.625-0.768,1.141-1.368,1.549c-0.601,0.408-1.249,0.637-1.944,0.684c-0.696,0.049-1.404-0.119-2.124-0.504
				c-0.72-0.384-1.321-1.031-1.8-1.944c-1.969-3.503-3.973-6.948-6.012-10.331c-2.041-3.385-4.284-7.021-6.732-10.908
				c-0.432-0.672-0.588-1.284-0.468-1.836c0.119-0.552,0.371-0.973,0.756-1.261c0.384-0.288,0.839-0.407,1.368-0.36
				C430.783,15.398,431.263,15.663,431.696,16.142z"/>
		</g>
	</g>
	<g>
		<g>
			<path class="st0" d="M74.12,60.786l-5.958-14.853c2.658-4.459,4.053-9.429,4.053-14.489C72.215,14.106,56.018,0,36.108,0
				S0,14.106,0,31.444c0,17.339,16.198,31.444,36.108,31.444c5.667,0,11.268-1.166,16.303-3.384l16.929,6.207
				c0.422,0.155,0.859,0.23,1.292,0.23c0.998,0,1.976-0.398,2.697-1.141C74.362,63.736,74.672,62.163,74.12,60.786z M60.468,46.933
				l3.538,8.821l-10.474-3.841c-0.418-0.154-0.856-0.23-1.293-0.23c-0.571,0-1.14,0.13-1.663,0.388
				c-4.38,2.162-9.383,3.304-14.469,3.304c-15.767,0-28.595-10.735-28.595-23.931c0-13.195,12.828-23.931,28.595-23.931
				c15.767,0,28.594,10.735,28.594,23.931c0,4.194-1.327,8.327-3.837,11.952C60.148,44.434,59.998,45.762,60.468,46.933z"/>
			<path class="st0" d="M22.014,27.026c-2.462,0-4.459,1.996-4.459,4.458c0,2.462,1.996,4.458,4.459,4.458
				c2.462,0,4.457-1.996,4.457-4.458C26.472,29.022,24.476,27.026,22.014,27.026z"/>
			<path class="st0" d="M36.108,27.026c-2.462,0-4.458,1.996-4.458,4.458c0,2.462,1.996,4.458,4.458,4.458
				c2.462,0,4.457-1.996,4.457-4.458C40.565,29.022,38.569,27.026,36.108,27.026z"/>
			<circle class="st0" cx="50.984" cy="31.484" r="4.458"/>
		</g>
	</g>
</g>
</svg>