<!-- Generator: Adobe Illustrator 24.1.3, SVG Export Plug-In  -->
<svg version="1.1" xmlns="http://www.w3.org/2000/svg" xmlns:xlink="http://www.w3.org/1999/xlink" x="0px" y="0px"
	 width="516.616px" height="40.465px" viewBox="0 0 516.616 40.465"
	 style="overflow:visible;enable-background:new 0 0 516.616 40.465;" xml:space="preserve">
<style type="text/css">
	.st0{fill:#1C3B94;}
	.st1{fill:none;stroke:#BF2222;stroke-width:3;stroke-linecap:round;stroke-linejoin:round;stroke-miterlimit:10;}
	.st2{font-family:'HYQingFenTi-W';}
	.st3{font-size:34px;}
	.st4{letter-spacing:1;}
</style>
<defs>
</defs>
<g>
	<g>
		<path class="st0" d="M63.906,5.888c-0.136,1.088-0.301,2.131-0.493,3.128S62.988,11,62.717,11.974h14.008
			c0.361,0,0.629,0.125,0.799,0.374s0.255,0.516,0.255,0.799s-0.091,0.55-0.272,0.799c-0.182,0.25-0.441,0.374-0.781,0.374H62.002
			c-1.156,3.423-2.76,6.647-4.811,9.673c-2.052,3.026-4.517,6.024-7.395,8.993c-0.25,0.249-0.506,0.374-0.766,0.374
			c-0.261,0-0.482-0.068-0.663-0.204c-0.182-0.136-0.295-0.317-0.34-0.544c-0.046-0.227,0.034-0.442,0.237-0.646
			c2.381-2.674,4.426-5.462,6.138-8.363c1.711-2.901,3.089-5.995,4.131-9.282h-6.46c-0.34,0-0.623-0.068-0.85-0.204
			s-0.402-0.306-0.527-0.51s-0.204-0.419-0.238-0.646c-0.033-0.226-0.028-0.441,0.018-0.646l1.836-5.168
			c0.136-0.544,0.419-0.912,0.85-1.105c0.431-0.192,0.85-0.243,1.258-0.152s0.731,0.312,0.969,0.663
			c0.238,0.352,0.244,0.776,0.018,1.274l-1.632,3.876c-0.022,0.046-0.017,0.103,0.017,0.17c0.034,0.068,0.097,0.103,0.188,0.103
			h5.201c0.545-2.04,0.953-4.159,1.225-6.358c0.068-0.634,0.301-1.076,0.697-1.326c0.396-0.249,0.811-0.345,1.24-0.289
			c0.431,0.058,0.816,0.25,1.156,0.578C63.838,4.908,63.974,5.344,63.906,5.888z M60.302,23.16c-0.25-0.227-0.369-0.476-0.357-0.748
			c0.012-0.271,0.102-0.504,0.271-0.697c0.17-0.191,0.392-0.3,0.664-0.322c0.271-0.022,0.543,0.079,0.815,0.306
			c0.748,0.658,1.484,1.258,2.21,1.802c0.725,0.544,1.439,1.043,2.143,1.496c0.701-0.544,1.394-1.122,2.074-1.733
			c0.68-0.612,1.348-1.247,2.006-1.904c0.271-0.272,0.385-0.51,0.34-0.714c-0.046-0.204-0.262-0.307-0.646-0.307h-8.023
			c-0.363,0-0.635-0.118-0.816-0.356s-0.271-0.504-0.271-0.799s0.09-0.562,0.271-0.8c0.182-0.237,0.453-0.356,0.816-0.356h10.336
			c0.68,0,1.224,0.147,1.631,0.442c0.408,0.294,0.691,0.662,0.851,1.104c0.158,0.442,0.17,0.918,0.034,1.428
			c-0.137,0.511-0.408,0.981-0.816,1.411c-1.338,1.338-3.025,2.754-5.065,4.25c1.519,0.862,3.048,1.621,4.59,2.278
			c1.541,0.657,3.185,1.314,4.93,1.972c0.544,0.204,0.872,0.556,0.986,1.054c0.113,0.499,0.073,0.98-0.119,1.445
			s-0.521,0.827-0.985,1.088c-0.465,0.261-1.016,0.232-1.649-0.085c-1.904-0.93-3.685-1.882-5.339-2.855
			c-1.654-0.975-3.275-2.052-4.861-3.23c-1.768,1.156-3.684,2.267-5.746,3.332c-2.063,1.065-4.25,2.052-6.563,2.958
			c-0.362,0.136-0.674,0.136-0.935,0s-0.448-0.323-0.562-0.561c-0.113-0.238-0.135-0.493-0.067-0.766
			c0.067-0.271,0.249-0.476,0.544-0.611c2.131-0.998,4.092-1.983,5.883-2.958c1.789-0.975,3.502-2.04,5.133-3.196
			c-0.611-0.521-1.224-1.06-1.836-1.615C61.56,24.356,60.936,23.772,60.302,23.16z M68.633,5.242
			c1.155,0.59,2.107,1.105,2.855,1.547c0.748,0.442,1.383,0.856,1.904,1.241c0.476,0.34,0.702,0.737,0.68,1.19
			c-0.023,0.453-0.182,0.833-0.477,1.139s-0.674,0.476-1.139,0.51s-0.912-0.187-1.343-0.663c-0.431-0.521-0.924-1.088-1.479-1.7
			c-0.555-0.611-1.195-1.246-1.92-1.903c-0.159-0.137-0.233-0.307-0.222-0.51c0.011-0.204,0.073-0.38,0.187-0.527
			s0.256-0.261,0.426-0.34S68.451,5.152,68.633,5.242z"/>
		<path class="st0" d="M84.205,30.113c-0.182-0.124-0.318-0.289-0.408-0.493c-0.092-0.204-0.114-0.413-0.068-0.629
			c0.045-0.215,0.182-0.379,0.408-0.493c1.11-0.544,2.227-1.122,3.349-1.733c1.122-0.612,2.204-1.247,3.247-1.904
			s2.023-1.326,2.941-2.006c0.918-0.681,1.729-1.36,2.431-2.04c0.431-0.408,0.861-0.595,1.292-0.562
			c0.43,0.034,0.776,0.199,1.037,0.493c0.26,0.295,0.391,0.669,0.391,1.122c0,0.454-0.215,0.873-0.646,1.258
			c-0.567,0.522-1.31,1.066-2.228,1.632c-0.918,0.567-1.961,1.151-3.127,1.752c-1.168,0.601-2.426,1.206-3.775,1.818
			c-1.348,0.612-2.748,1.213-4.198,1.802C84.601,30.244,84.386,30.238,84.205,30.113z M110.844,14.506
			c0.191-0.237,0.289-0.492,0.289-0.765c0-0.271-0.098-0.527-0.289-0.765c-0.193-0.238-0.471-0.357-0.833-0.357h-8.942V9.9h10.71
			c0.362,0,0.64-0.119,0.833-0.357c0.192-0.237,0.289-0.498,0.289-0.781s-0.097-0.544-0.289-0.782
			c-0.193-0.238-0.471-0.357-0.833-0.357h-10.71v-1.87c0-0.566-0.176-0.991-0.527-1.274s-0.73-0.425-1.139-0.425
			s-0.787,0.142-1.139,0.425s-0.527,0.708-0.527,1.274v1.87h-10.71c-0.362,0-0.635,0.119-0.815,0.357
			c-0.182,0.238-0.272,0.499-0.272,0.782s0.091,0.544,0.272,0.781C86.391,9.781,86.664,9.9,87.026,9.9h10.71v2.72h-8.941
			c-0.363,0-0.635,0.119-0.816,0.357c-0.182,0.237-0.271,0.493-0.271,0.765c0,0.272,0.09,0.527,0.271,0.765
			c0.182,0.238,0.453,0.357,0.816,0.357h8.941v2.822H85.802c-0.363,0-0.641,0.119-0.833,0.356c-0.192,0.238-0.289,0.499-0.289,0.782
			c0,0.284,0.091,0.544,0.272,0.782c0.181,0.238,0.464,0.356,0.85,0.356h27.166c0.362,0,0.641-0.118,0.833-0.356
			s0.288-0.498,0.288-0.782c0-0.283-0.096-0.544-0.288-0.782c-0.192-0.237-0.471-0.356-0.833-0.356h-11.9v-2.822h8.942
			C110.373,14.864,110.65,14.745,110.844,14.506z M101.34,29.042c0.205,0.137,0.341,0.313,0.408,0.527
			c0.068,0.216,0.051,0.437-0.051,0.663s-0.301,0.396-0.595,0.51c-0.815,0.294-1.547,0.572-2.192,0.833
			c-0.646,0.261-1.225,0.521-1.734,0.782c-0.51,0.26-0.958,0.527-1.344,0.799c-0.385,0.272-0.736,0.578-1.054,0.918
			c-0.317,0.317-0.641,0.504-0.969,0.562c-0.329,0.056-0.629,0.017-0.901-0.119c-0.271-0.137-0.498-0.363-0.68-0.681
			s-0.271-0.68-0.271-1.088v-4.216c0-0.544,0.175-0.952,0.526-1.224c0.351-0.272,0.736-0.408,1.156-0.408
			c0.419,0,0.804,0.142,1.155,0.425c0.352,0.284,0.527,0.709,0.527,1.275v1.258c0,0.25,0.125,0.352,0.374,0.306
			c0.861-0.181,1.666-0.368,2.414-0.561s1.587-0.413,2.517-0.663C100.898,28.872,101.136,28.906,101.34,29.042z M109.381,31.371
			c-1.167-0.714-2.312-1.501-3.434-2.363c-1.121-0.86-2.199-1.796-3.23-2.805c-1.031-1.008-1.966-2.057-2.805-3.145
			c-0.182-0.249-0.254-0.493-0.221-0.731c0.034-0.238,0.137-0.425,0.307-0.561c0.17-0.137,0.379-0.204,0.629-0.204
			c0.248,0,0.476,0.102,0.68,0.306c0.975,1.021,1.96,1.933,2.958,2.737c0.997,0.805,2.017,1.53,3.06,2.176
			c1.043,0.646,2.108,1.235,3.196,1.768c1.088,0.533,2.222,1.037,3.399,1.514c0.566,0.227,0.918,0.556,1.055,0.985
			c0.136,0.431,0.119,0.839-0.051,1.225c-0.17,0.385-0.448,0.691-0.834,0.918c-0.385,0.227-0.793,0.238-1.223,0.034
			C111.711,32.702,110.549,32.085,109.381,31.371z M107.172,25.761c-0.193-0.079-0.346-0.198-0.459-0.357
			c-0.114-0.158-0.17-0.34-0.17-0.544s0.09-0.385,0.271-0.544c0.521-0.453,0.991-0.872,1.411-1.258
			c0.419-0.386,0.855-0.839,1.31-1.36c0.385-0.476,0.793-0.68,1.223-0.612c0.432,0.068,0.783,0.261,1.055,0.578
			c0.271,0.318,0.402,0.697,0.391,1.14c-0.012,0.441-0.254,0.799-0.73,1.07c-0.59,0.34-1.145,0.646-1.666,0.918
			c-0.521,0.272-1.18,0.578-1.973,0.918C107.585,25.824,107.363,25.84,107.172,25.761z"/>
		<path class="st0" d="M130.002,26.764c0.227-0.137,0.437-0.164,0.629-0.085c0.193,0.079,0.334,0.209,0.426,0.391
			c0.09,0.182,0.13,0.38,0.119,0.595c-0.012,0.216-0.108,0.38-0.289,0.493c-1.202,0.794-2.16,1.593-2.873,2.397
			c-0.715,0.804-1.174,1.399-1.377,1.784c-0.205,0.386-0.488,0.663-0.851,0.833c-0.362,0.171-0.72,0.204-1.071,0.103
			c-0.352-0.103-0.662-0.357-0.935-0.765c-0.272-0.408-0.408-1.01-0.408-1.803V17.686c0-0.453-0.227-0.681-0.68-0.681h-1.836
			c-0.431,0-0.748-0.124-0.952-0.374c-0.204-0.249-0.307-0.526-0.307-0.833c0-0.306,0.107-0.589,0.324-0.85
			c0.215-0.26,0.537-0.391,0.969-0.391h3.808c0.566,0,1.042,0.21,1.429,0.629c0.385,0.42,0.577,0.912,0.577,1.479v11.356
			c0,0.317,0.192,0.396,0.578,0.238c0.249-0.113,0.583-0.289,1.003-0.527C128.705,27.495,129.276,27.171,130.002,26.764z
			 M125.038,11.089c-0.295-0.498-0.567-0.939-0.815-1.325c-0.25-0.386-0.494-0.76-0.731-1.122s-0.481-0.72-0.731-1.071
			c-0.249-0.352-0.532-0.731-0.85-1.139c-0.158-0.204-0.232-0.431-0.221-0.681c0.011-0.249,0.073-0.459,0.188-0.629
			c0.112-0.17,0.276-0.277,0.492-0.323c0.215-0.045,0.447,0.012,0.697,0.171c1.064,0.748,1.988,1.428,2.771,2.04
			c0.781,0.611,1.444,1.155,1.988,1.632c0.521,0.476,0.742,0.985,0.663,1.529s-0.312,0.992-0.697,1.344
			c-0.386,0.352-0.845,0.526-1.377,0.526S125.424,11.725,125.038,11.089z M130.41,17.04c-0.317,0.25-0.606,0.363-0.867,0.34
			c-0.261-0.021-0.471-0.118-0.629-0.289c-0.158-0.17-0.238-0.379-0.238-0.629c0-0.249,0.103-0.486,0.307-0.714
			c0.906-0.906,1.711-1.768,2.414-2.584c0.702-0.815,1.348-1.637,1.938-2.465c0.59-0.827,1.15-1.711,1.684-2.652
			c0.531-0.939,1.082-2,1.648-3.179c0.227-0.476,0.578-0.776,1.055-0.9c0.476-0.125,0.918-0.097,1.326,0.085
			c0.407,0.182,0.701,0.498,0.883,0.951c0.182,0.454,0.103,1.009-0.237,1.666c-0.612,1.156-1.253,2.188-1.921,3.095
			c-0.669,0.906-1.377,1.763-2.125,2.566c-0.748,0.805-1.553,1.581-2.414,2.329S131.429,16.202,130.41,17.04z M138.4,33.598
			c-1.633,0-2.902-0.392-3.809-1.174c-0.906-0.781-1.359-2.136-1.359-4.063V16.836c0-0.611,0.176-1.064,0.527-1.359
			c0.351-0.295,0.742-0.442,1.172-0.442c0.431,0,0.822,0.147,1.174,0.442s0.527,0.748,0.527,1.359v10.847
			c0,0.657,0.051,1.189,0.152,1.598s0.266,0.731,0.493,0.969c0.226,0.238,0.521,0.397,0.884,0.477
			c0.362,0.079,0.793,0.119,1.292,0.119h3.944c0.884,0,1.569-0.42,2.057-1.259c0.487-0.838,0.754-2.198,0.799-4.08
			c0-0.316,0.097-0.555,0.289-0.714c0.192-0.158,0.402-0.237,0.629-0.237s0.437,0.079,0.629,0.237
			c0.193,0.159,0.289,0.397,0.289,0.714c0,0.952,0.074,1.746,0.221,2.381c0.148,0.635,0.414,1.02,0.8,1.155
			c0.476,0.182,0.731,0.517,0.765,1.003c0.034,0.488-0.142,0.997-0.527,1.53c-0.385,0.532-0.963,1.003-1.733,1.411
			s-1.712,0.612-2.822,0.612H138.4z M137.448,22.242c1.269-0.793,2.397-1.609,3.383-2.448c0.986-0.838,2.001-1.756,3.043-2.754
			c0.499-0.476,1.003-0.686,1.513-0.629c0.511,0.057,0.906,0.267,1.19,0.629c0.283,0.363,0.402,0.794,0.356,1.292
			c-0.045,0.499-0.352,0.952-0.918,1.36c-0.861,0.59-1.971,1.241-3.332,1.955c-1.359,0.714-2.73,1.399-4.113,2.057
			c-0.318,0.159-0.584,0.188-0.799,0.085c-0.216-0.102-0.374-0.249-0.477-0.441c-0.102-0.192-0.142-0.402-0.119-0.629
			C137.199,22.492,137.289,22.333,137.448,22.242z M147.75,16.598c-0.611-0.59-1.246-1.259-1.904-2.006
			c-0.657-0.748-1.291-1.542-1.903-2.381c-0.612-0.838-1.19-1.722-1.734-2.651s-1.021-1.882-1.428-2.856
			c-0.114-0.227-0.125-0.453-0.034-0.68c0.09-0.227,0.227-0.396,0.408-0.51s0.385-0.153,0.611-0.119s0.432,0.198,0.613,0.493
			c0.611,0.93,1.184,1.751,1.717,2.465c0.531,0.714,1.093,1.389,1.683,2.022c0.589,0.635,1.241,1.264,1.955,1.888
			c0.714,0.623,1.547,1.298,2.499,2.022c0.408,0.317,0.589,0.691,0.544,1.122c-0.046,0.431-0.222,0.799-0.527,1.105
			c-0.306,0.306-0.691,0.498-1.155,0.577C148.629,17.17,148.18,17.005,147.75,16.598z"/>
		<path class="st0" d="M186.375,31.626c0.158,0.477,0.152,0.936-0.018,1.377c-0.17,0.442-0.465,0.794-0.884,1.055
			c-0.42,0.26-0.913,0.277-1.479,0.051c-2.471-0.952-4.794-2.097-6.97-3.435c-2.176-1.337-4.194-2.844-6.052-4.521
			c-1.995,1.678-4.193,3.15-6.596,4.42c-2.403,1.27-5.021,2.482-7.854,3.638c-0.295,0.113-0.556,0.113-0.782,0
			s-0.385-0.277-0.476-0.492c-0.091-0.216-0.103-0.448-0.034-0.697c0.068-0.25,0.249-0.442,0.544-0.578
			c2.765-1.314,5.229-2.623,7.396-3.927c2.164-1.304,4.097-2.737,5.797-4.302c-1.383-1.45-2.646-2.979-3.791-4.59
			c-1.145-1.609-2.159-3.298-3.043-5.065c-0.137-0.249-0.148-0.499-0.034-0.748c0.112-0.249,0.282-0.431,0.51-0.544
			c0.227-0.113,0.476-0.142,0.748-0.085s0.51,0.267,0.714,0.629c0.816,1.563,1.797,3.049,2.941,4.454s2.441,2.731,3.893,3.978
			c1.043-1.201,1.989-2.499,2.84-3.893c0.85-1.395,1.614-2.964,2.295-4.709c0.226-0.566,0.566-0.912,1.02-1.037
			s0.884-0.091,1.292,0.102c0.407,0.193,0.726,0.505,0.952,0.936s0.227,0.918,0,1.462c-0.794,1.813-1.7,3.457-2.721,4.93
			c-1.02,1.474-2.142,2.834-3.365,4.08c1.768,1.314,3.654,2.511,5.66,3.587c2.006,1.077,4.131,2.035,6.375,2.873
			C185.842,30.798,186.216,31.15,186.375,31.626z M185.439,11.226c0.215-0.249,0.316-0.527,0.307-0.833
			c-0.012-0.307-0.125-0.59-0.341-0.851c-0.216-0.26-0.526-0.391-0.935-0.391h-12.342c0.316-0.249,0.521-0.572,0.611-0.969
			c0.09-0.396-0.022-0.811-0.34-1.241c-0.271-0.362-0.623-0.793-1.055-1.292c-0.43-0.498-1.008-1.076-1.733-1.734
			c-0.204-0.181-0.413-0.277-0.629-0.289c-0.216-0.011-0.403,0.034-0.562,0.137c-0.158,0.102-0.271,0.255-0.34,0.459
			c-0.067,0.204-0.057,0.419,0.034,0.646l1.326,3.604c0.091,0.317,0.216,0.544,0.374,0.68h-12.58c-0.431,0-0.754,0.131-0.969,0.391
			c-0.216,0.261-0.323,0.544-0.323,0.851c0,0.306,0.107,0.584,0.323,0.833c0.215,0.249,0.538,0.374,0.969,0.374h27.234
			C184.9,11.6,185.223,11.475,185.439,11.226z"/>
		<path class="st0" d="M194.84,12.246c-0.385,0-0.691-0.152-0.918-0.459c-0.227-0.306-0.34-0.651-0.34-1.037
			c0-0.294,0.068-0.549,0.204-0.765c0.136-0.215,0.34-0.368,0.612-0.459l3.773-1.19c0.477-0.158,0.93-0.237,1.36-0.237
			c0.612,0,1.065,0.176,1.36,0.526c0.294,0.352,0.441,0.833,0.441,1.445v19.652h1.904c0.408,0,0.725,0.113,0.951,0.34
			s0.341,0.51,0.341,0.85s-0.114,0.623-0.341,0.851c-0.227,0.226-0.543,0.34-0.951,0.34h-7.549c-0.407,0-0.725-0.114-0.951-0.34
			c-0.227-0.228-0.34-0.511-0.34-0.851s0.113-0.623,0.34-0.85s0.544-0.34,0.951-0.34h2.244v-18.36l-2.651,0.816
			C195.054,12.223,194.908,12.246,194.84,12.246z"/>
		<path class="st0" d="M219.797,7.757c1.699,0,3.179,0.517,4.437,1.548s2.232,2.487,2.924,4.368
			c0.691,1.882,1.037,4.059,1.037,6.528c0,2.471-0.346,4.647-1.037,6.528c-0.691,1.882-1.666,3.338-2.924,4.369
			c-1.258,1.031-2.737,1.547-4.437,1.547c-1.701,0-3.18-0.516-4.438-1.547c-1.258-1.031-2.232-2.487-2.924-4.369
			c-0.691-1.881-1.037-4.058-1.037-6.528c0-2.47,0.346-4.646,1.037-6.528c0.691-1.881,1.666-3.337,2.924-4.368
			S218.095,7.757,219.797,7.757z M219.797,10.206c-1.542,0-2.743,0.879-3.604,2.635c-0.862,1.757-1.292,4.211-1.292,7.361
			c0,3.128,0.43,5.576,1.292,7.344c0.861,1.769,2.063,2.652,3.604,2.652c1.541,0,2.742-0.884,3.604-2.652
			c0.861-1.768,1.292-4.216,1.292-7.344c0-3.15-0.431-5.604-1.292-7.361C222.539,11.085,221.338,10.206,219.797,10.206z"/>
		<path class="st0" d="M233.617,34.431c-0.261,0.056-0.499,0.033-0.714-0.068c-0.216-0.102-0.368-0.261-0.459-0.476
			c-0.091-0.216-0.058-0.482,0.102-0.8c0.566-1.088,1.065-2.181,1.496-3.28s0.782-2.335,1.054-3.706
			c0.272-1.371,0.477-2.941,0.612-4.709c0.136-1.769,0.204-3.843,0.204-6.223c0-0.589,0.176-1.031,0.527-1.325
			c0.351-0.295,0.736-0.442,1.156-0.442c0.418,0,0.804,0.147,1.155,0.442c0.351,0.294,0.527,0.736,0.527,1.325
			c0,2.244-0.097,4.229-0.289,5.95c-0.192,1.723-0.493,3.304-0.901,4.743s-0.93,2.805-1.564,4.097s-1.394,2.63-2.277,4.013
			C234.088,34.221,233.877,34.374,233.617,34.431z M232.801,12.807c0.034,0.192,0.131,0.34,0.289,0.441
			c0.158,0.103,0.346,0.153,0.561,0.153c0.216,0,0.426-0.091,0.63-0.272c0.657-0.565,1.252-1.099,1.784-1.598
			c0.533-0.498,1.025-1.014,1.479-1.547c0.453-0.532,0.872-1.094,1.259-1.683c0.385-0.59,0.758-1.247,1.121-1.973
			c0.25-0.498,0.256-0.952,0.018-1.359c-0.238-0.408-0.572-0.697-1.004-0.867c-0.43-0.17-0.883-0.176-1.359-0.018
			c-0.477,0.159-0.828,0.544-1.055,1.156c-0.294,0.839-0.572,1.576-0.832,2.21c-0.262,0.635-0.533,1.219-0.816,1.751
			c-0.283,0.533-0.578,1.037-0.884,1.513c-0.306,0.477-0.651,0.976-1.037,1.496C232.818,12.416,232.767,12.615,232.801,12.807z
			 M248.373,9.049c0.192-0.226,0.289-0.476,0.289-0.747c0-0.272-0.097-0.521-0.289-0.748c-0.193-0.227-0.493-0.341-0.9-0.341h-6.767
			c-0.386,0-0.669,0.114-0.851,0.341s-0.271,0.476-0.271,0.748c0,0.271,0.09,0.521,0.271,0.747c0.182,0.228,0.465,0.341,0.851,0.341
			h6.767C247.88,9.39,248.179,9.277,248.373,9.049z M239.584,23.058c0-0.499,0.158-0.867,0.477-1.105
			c0.316-0.238,0.674-0.351,1.07-0.34c0.396,0.012,0.754,0.142,1.071,0.391c0.317,0.25,0.476,0.624,0.476,1.122v10.2
			c0,0.498-0.158,0.872-0.476,1.122c-0.317,0.249-0.675,0.374-1.071,0.374s-0.754-0.125-1.07-0.374
			c-0.318-0.25-0.477-0.624-0.477-1.122V23.058z M240.451,9.849c-0.17,0.079-0.289,0.198-0.357,0.356
			c-0.068,0.159-0.079,0.323-0.033,0.493c0.045,0.17,0.17,0.301,0.373,0.391c0.205,0.114,0.494,0.301,0.867,0.562
			c0.375,0.261,0.834,0.618,1.377,1.071c0.408,0.317,0.811,0.425,1.207,0.322c0.396-0.102,0.709-0.3,0.936-0.595
			c0.227-0.294,0.306-0.623,0.238-0.986c-0.068-0.362-0.352-0.634-0.851-0.815c-0.386-0.136-0.799-0.261-1.241-0.374
			c-0.441-0.113-1.06-0.261-1.853-0.442C240.842,9.764,240.621,9.77,240.451,9.849z M240.485,19.301
			c-0.192-0.216-0.289-0.459-0.289-0.731s0.097-0.516,0.289-0.731c0.192-0.215,0.493-0.322,0.901-0.322h16.115v-1.225
			c0-0.226-0.045-0.407-0.136-0.544c-0.091-0.136-0.295-0.204-0.612-0.204h-15.367c-0.408,0-0.709-0.107-0.901-0.322
			c-0.192-0.216-0.289-0.459-0.289-0.731c0-0.271,0.097-0.516,0.289-0.73c0.192-0.216,0.493-0.323,0.901-0.323h5.508
			c-0.114-0.204-0.232-0.419-0.357-0.646c-0.125-0.226-0.277-0.498-0.459-0.815c-0.113-0.182-0.152-0.357-0.119-0.527
			c0.034-0.17,0.119-0.312,0.256-0.425c0.135-0.113,0.299-0.182,0.492-0.204c0.192-0.022,0.379,0.012,0.561,0.102
			c0.635,0.318,1.14,0.602,1.514,0.851s0.708,0.51,1.003,0.782c0.272,0.249,0.407,0.544,0.407,0.884h7.65
			c1.179,0,1.973,0.221,2.381,0.663c0.407,0.441,0.611,1.049,0.611,1.818v1.53c0,0.726-0.188,1.27-0.561,1.632
			c-0.375,0.363-0.969,0.544-1.785,0.544h-17.102C240.978,19.624,240.678,19.516,240.485,19.301z M258.505,34.703
			c-0.374-0.057-0.55-0.277-0.526-0.663c0.021-0.386-0.103-0.635-0.375-0.748c-0.271-0.113-0.657-0.192-1.155-0.237
			c-0.25-0.023-0.431-0.103-0.544-0.238c-0.113-0.136-0.17-0.289-0.17-0.459s0.063-0.317,0.187-0.442
			c0.124-0.125,0.289-0.187,0.493-0.187c0.725,0,1.189-0.034,1.395-0.103c0.203-0.067,0.306-0.328,0.306-0.781v-6.257
			c0-0.181-0.058-0.362-0.17-0.544c-0.114-0.181-0.341-0.271-0.681-0.271h-12.58c-0.362,0-0.635-0.107-0.815-0.323
			c-0.182-0.215-0.272-0.459-0.272-0.73c0-0.272,0.091-0.516,0.272-0.731c0.181-0.215,0.453-0.323,0.815-0.323h13.805
			c1.156,0,1.909,0.267,2.261,0.799c0.351,0.533,0.526,1.265,0.526,2.193v6.563c0,0.725-0.146,1.348-0.441,1.869
			s-0.669,0.94-1.122,1.259C259.281,34.64,258.879,34.759,258.505,34.703z M243.868,28.719c-0.159-0.216-0.238-0.447-0.238-0.697
			c0-0.249,0.079-0.481,0.238-0.697c0.158-0.215,0.407-0.323,0.748-0.323h1.325v-1.088c0-0.498,0.154-0.872,0.459-1.122
			c0.307-0.249,0.641-0.368,1.004-0.356c0.362,0.012,0.697,0.147,1.003,0.408s0.459,0.641,0.459,1.139v1.02h3.162v-1.088
			c0-0.498,0.153-0.872,0.459-1.122c0.306-0.249,0.64-0.368,1.003-0.356c0.362,0.012,0.697,0.147,1.003,0.408
			s0.459,0.641,0.459,1.139v1.02h1.19c0.34,0,0.589,0.108,0.748,0.323c0.158,0.216,0.237,0.448,0.237,0.697
			c0,0.25-0.079,0.481-0.237,0.697c-0.159,0.215-0.408,0.322-0.748,0.322h-1.19v3.435c0,0.498-0.153,0.872-0.459,1.122
			c-0.306,0.249-0.641,0.374-1.003,0.374c-0.363,0-0.697-0.125-1.003-0.374c-0.306-0.25-0.459-0.624-0.459-1.122v-3.435h-3.162
			v3.435c0,0.498-0.153,0.872-0.459,1.122c-0.306,0.249-0.641,0.374-1.003,0.374c-0.363,0-0.697-0.125-1.004-0.374
			c-0.305-0.25-0.459-0.624-0.459-1.122v-3.435h-1.325C244.275,29.042,244.026,28.934,243.868,28.719z M248.628,10.903
			c0.068,0.216,0.198,0.374,0.392,0.476c0.191,0.103,0.413,0.143,0.662,0.119c0.25-0.022,0.477-0.136,0.681-0.34
			c0.702-0.657,1.365-1.349,1.989-2.074c0.623-0.725,1.184-1.586,1.683-2.584c0.294-0.566,0.328-1.059,0.103-1.479
			c-0.228-0.419-0.551-0.714-0.97-0.884c-0.419-0.17-0.866-0.176-1.343-0.018c-0.477,0.159-0.816,0.544-1.02,1.156
			c-0.228,0.657-0.432,1.219-0.613,1.683c-0.182,0.465-0.346,0.885-0.492,1.259c-0.148,0.373-0.301,0.714-0.459,1.02
			c-0.159,0.306-0.318,0.618-0.477,0.935C248.605,10.444,248.56,10.688,248.628,10.903z M254.119,9.9
			c-0.17,0.091-0.283,0.216-0.34,0.374c-0.057,0.159-0.057,0.323,0,0.493s0.188,0.312,0.391,0.425
			c0.317,0.182,0.657,0.402,1.02,0.663c0.363,0.261,0.794,0.584,1.293,0.969c0.408,0.317,0.811,0.425,1.207,0.323
			c0.396-0.103,0.702-0.301,0.918-0.595c0.215-0.295,0.289-0.624,0.221-0.986s-0.363-0.635-0.884-0.816
			c-0.386-0.136-0.812-0.271-1.275-0.407c-0.465-0.137-1.094-0.295-1.887-0.477C254.51,9.797,254.289,9.809,254.119,9.9z
			 M262.89,9.049c0.193-0.226,0.289-0.476,0.289-0.747c0-0.272-0.096-0.521-0.289-0.748c-0.192-0.227-0.481-0.341-0.867-0.341
			h-6.969c-0.408,0-0.709,0.114-0.901,0.341s-0.289,0.476-0.289,0.748c0,0.271,0.097,0.521,0.289,0.747
			c0.192,0.228,0.493,0.341,0.901,0.341h6.969C262.409,9.39,262.698,9.277,262.89,9.049z"/>
		<path class="st0" d="M281.676,23.126c0.25-0.113,0.482-0.113,0.697,0c0.215,0.114,0.374,0.272,0.477,0.477
			c0.102,0.204,0.119,0.431,0.051,0.68c-0.068,0.25-0.25,0.454-0.544,0.612c-1.95,1.088-3.599,2.165-4.947,3.229
			c-1.349,1.066-2.374,2.086-3.077,3.061c-0.227,0.316-0.51,0.526-0.85,0.629c-0.34,0.102-0.663,0.102-0.969,0
			c-0.307-0.103-0.573-0.318-0.799-0.646c-0.228-0.328-0.34-0.753-0.34-1.274V7.826c0-0.544,0.175-0.952,0.526-1.224
			c0.351-0.272,0.736-0.408,1.155-0.408c0.42,0,0.805,0.142,1.156,0.425c0.352,0.284,0.527,0.709,0.527,1.275v17.85
			c0,0.114,0.022,0.21,0.068,0.289c0.045,0.08,0.146,0.085,0.306,0.017L281.676,23.126z M289.7,6.602
			c0.022-0.612,0.222-1.055,0.595-1.326c0.375-0.272,0.782-0.385,1.225-0.34c0.441,0.046,0.838,0.221,1.189,0.526
			c0.352,0.307,0.516,0.731,0.493,1.275c-0.091,2.018-0.21,3.927-0.356,5.729c-0.148,1.802-0.397,3.519-0.748,5.15
			c-0.352,1.632-0.84,3.185-1.463,4.658s-1.439,2.901-2.447,4.284c-1.01,1.383-2.25,2.72-3.723,4.012
			c-1.475,1.292-3.242,2.562-5.305,3.808c-0.34,0.204-0.652,0.267-0.936,0.188c-0.283-0.08-0.504-0.227-0.662-0.442
			c-0.159-0.216-0.227-0.459-0.204-0.73c0.022-0.272,0.17-0.499,0.442-0.681c1.677-1.179,3.115-2.316,4.317-3.417
			c1.201-1.099,2.228-2.227,3.077-3.383s1.547-2.38,2.091-3.672s0.975-2.708,1.292-4.25c0.317-1.541,0.555-3.241,0.715-5.1
			C289.451,11.034,289.586,8.937,289.7,6.602z M280.656,5.888c1.156,1.201,2.057,2.176,2.703,2.924s1.184,1.439,1.615,2.074
			c0.249,0.386,0.367,0.759,0.357,1.121c-0.012,0.363-0.114,0.692-0.307,0.986c-0.193,0.295-0.441,0.533-0.748,0.714
			c-0.307,0.182-0.629,0.272-0.969,0.272s-0.669-0.107-0.986-0.323c-0.318-0.215-0.578-0.572-0.781-1.071
			c-0.5-1.246-0.941-2.283-1.326-3.11c-0.387-0.827-0.805-1.626-1.258-2.397c-0.183-0.294-0.238-0.566-0.171-0.815
			c0.068-0.25,0.204-0.442,0.408-0.578c0.204-0.137,0.442-0.192,0.714-0.17S280.429,5.662,280.656,5.888z M292.965,24.078
			c1.291,1.292,2.425,2.477,3.399,3.553c0.974,1.077,1.79,2.023,2.448,2.84c0.476,0.589,0.635,1.155,0.476,1.699
			c-0.159,0.544-0.454,0.964-0.884,1.259c-0.431,0.294-0.93,0.401-1.496,0.322s-1.02-0.471-1.359-1.173
			c-0.59-1.134-1.242-2.317-1.955-3.553c-0.715-1.235-1.479-2.499-2.295-3.791c-0.182-0.294-0.244-0.566-0.188-0.816
			c0.057-0.249,0.182-0.441,0.374-0.578c0.192-0.136,0.425-0.191,0.696-0.17C292.454,23.693,292.715,23.829,292.965,24.078z"/>
		<path class="st0" d="M333.832,32.612H305c-0.386,0-0.68-0.131-0.884-0.391c-0.204-0.262-0.306-0.556-0.306-0.885
			c0-0.328,0.102-0.623,0.306-0.884c0.204-0.26,0.498-0.391,0.884-0.391h11.866V5.854c0-0.59,0.187-1.025,0.562-1.31
			c0.373-0.283,0.787-0.425,1.24-0.425s0.867,0.147,1.241,0.442s0.562,0.726,0.562,1.292v24.208h13.361
			c0.362,0,0.646,0.131,0.85,0.391c0.205,0.261,0.307,0.556,0.307,0.884c0,0.329-0.098,0.623-0.289,0.885
			C334.506,32.481,334.217,32.612,333.832,32.612z M330.84,17.005h-7.582c-0.363,0-0.635-0.124-0.816-0.374
			c-0.182-0.249-0.271-0.526-0.271-0.833c0-0.306,0.09-0.589,0.271-0.85c0.182-0.26,0.453-0.391,0.816-0.391h7.582
			c0.362,0,0.635,0.131,0.816,0.391c0.182,0.261,0.271,0.544,0.271,0.85c0,0.307-0.09,0.584-0.271,0.833
			C331.474,16.881,331.202,17.005,330.84,17.005z"/>
		<path class="st0" d="M341.618,11.226c0-0.566,0.17-0.986,0.511-1.258c0.34-0.272,0.713-0.408,1.121-0.408s0.782,0.136,1.122,0.408
			c0.341,0.271,0.511,0.691,0.511,1.258v20.978c0,0.589-0.17,1.025-0.511,1.31c-0.34,0.283-0.714,0.425-1.122,0.425
			s-0.781-0.142-1.121-0.425c-0.341-0.284-0.511-0.721-0.511-1.31V11.226z M345.97,21.001c-0.205-0.237-0.307-0.493-0.307-0.765
			c0-0.272,0.102-0.527,0.307-0.765c0.203-0.238,0.498-0.357,0.883-0.357h3.604v-6.018c0-0.408-0.136-0.726-0.407-0.952
			c-0.272-0.227-0.624-0.34-1.055-0.34h-2.143c-0.362,0-0.635-0.107-0.815-0.323c-0.182-0.215-0.284-0.459-0.306-0.731
			c-0.023-0.271,0.039-0.526,0.188-0.765c0.146-0.238,0.379-0.379,0.696-0.425c0.091-0.635,0.164-1.298,0.222-1.989
			c0.056-0.691,0.096-1.207,0.118-1.547c0.022-0.635,0.232-1.088,0.63-1.36c0.396-0.271,0.81-0.374,1.24-0.306
			c0.43,0.068,0.793,0.295,1.088,0.68c0.295,0.386,0.362,0.907,0.204,1.564c-0.114,0.386-0.272,0.821-0.476,1.309
			c-0.205,0.488-0.465,1.026-0.782,1.615h1.802c1.133,0,1.921,0.289,2.363,0.867c0.441,0.578,0.662,1.274,0.662,2.091v16.66
			c0,0.793-0.209,1.428-0.629,1.903c-0.419,0.477-1.161,0.715-2.227,0.715h-3.979c-0.385,0-0.668-0.119-0.85-0.357
			s-0.271-0.498-0.271-0.782c0-0.283,0.09-0.544,0.271-0.782c0.182-0.237,0.465-0.356,0.85-0.356h3.604v-8.126h-3.604
			C346.469,21.358,346.174,21.239,345.97,21.001z M354.435,16.377c0.091,0.238,0.232,0.408,0.426,0.511
			c0.192,0.102,0.408,0.13,0.646,0.085c0.237-0.046,0.459-0.216,0.662-0.511c0.952-1.428,1.803-2.952,2.551-4.572
			c0.748-1.621,1.359-3.451,1.836-5.491c0.136-0.612,0.051-1.11-0.256-1.496c-0.306-0.385-0.68-0.617-1.121-0.697
			c-0.442-0.079-0.879,0.012-1.31,0.272s-0.691,0.72-0.782,1.377c-0.317,1.949-0.697,3.723-1.139,5.32
			c-0.441,1.599-0.936,3.077-1.479,4.438C354.356,15.884,354.345,16.139,354.435,16.377z M358.363,20.236
			c-0.374-0.884-0.72-1.654-1.037-2.313c-0.091-0.203-0.102-0.401-0.034-0.595c0.068-0.192,0.181-0.351,0.341-0.476
			c0.158-0.125,0.345-0.188,0.561-0.188c0.215,0,0.425,0.103,0.629,0.307c1.564,1.587,2.811,3.094,3.74,4.521
			c0.34,0.521,0.413,1.021,0.221,1.496c-0.193,0.476-0.499,0.833-0.918,1.071c-0.42,0.237-0.867,0.306-1.344,0.204
			c-0.475-0.103-0.815-0.459-1.02-1.071C359.117,22.106,358.737,21.12,358.363,20.236z M363.802,34.414
			c-0.328-0.158-0.516-0.396-0.561-0.714c-0.068-0.408-0.221-0.73-0.459-0.969s-0.561-0.425-0.969-0.562
			c-0.408-0.136-0.896-0.237-1.463-0.306s-1.201-0.136-1.903-0.204c-0.249-0.022-0.437-0.131-0.562-0.323s-0.182-0.396-0.17-0.611
			s0.091-0.408,0.238-0.578s0.368-0.255,0.663-0.255c0.499,0.022,1.009,0.034,1.53,0.034s1.008-0.012,1.462-0.034
			c0.453-0.022,0.86-0.068,1.224-0.137c0.362-0.067,0.657-0.17,0.885-0.306c0.453-0.271,0.799-0.776,1.037-1.513
			c0.237-0.736,0.412-1.773,0.526-3.111c0.113-1.337,0.181-2.997,0.204-4.98c0.021-1.983,0.033-4.335,0.033-7.056
			c0-0.362-0.073-0.629-0.221-0.799s-0.425-0.255-0.832-0.255h-3.162c-0.363,0-0.635-0.119-0.816-0.357
			c-0.182-0.237-0.271-0.498-0.271-0.781s0.09-0.544,0.271-0.782s0.453-0.357,0.816-0.357h5.1c0.498,0,0.906,0.08,1.225,0.238
			c0.316,0.159,0.571,0.374,0.764,0.646c0.193,0.271,0.324,0.577,0.392,0.918c0.067,0.34,0.103,0.68,0.103,1.02
			c0,3.445-0.035,6.403-0.103,8.874s-0.237,4.567-0.51,6.29s-0.675,3.123-1.207,4.199c-0.533,1.076-1.253,1.932-2.159,2.566
			C364.5,34.504,364.131,34.572,363.802,34.414z"/>
		<path class="st0" d="M386.566,28.294c-1.225,0.726-2.551,1.411-3.979,2.058c-1.428,0.646-3.117,1.377-5.066,2.192
			c-0.59,0.249-1.088,0.244-1.496-0.017s-0.68-0.612-0.815-1.054c-0.136-0.442-0.108-0.89,0.085-1.344
			c0.192-0.453,0.596-0.748,1.207-0.884c0.453-0.09,1.043-0.232,1.768-0.425c0.726-0.192,1.524-0.402,2.397-0.629
			c0.872-0.227,1.769-0.477,2.687-0.748c0.918-0.272,1.795-0.544,2.635-0.816c0.227-0.09,0.43-0.079,0.611,0.034
			c0.182,0.114,0.307,0.272,0.375,0.477c0.067,0.204,0.072,0.413,0.016,0.629S386.792,28.158,386.566,28.294z M376.128,14.421
			c0.906-1.246,1.728-2.584,2.465-4.012c0.736-1.428,1.49-3.071,2.261-4.93c0.227-0.521,0.566-0.827,1.021-0.918
			c0.453-0.091,0.872-0.034,1.258,0.17s0.657,0.538,0.815,1.003c0.159,0.465,0.057,1.003-0.305,1.615
			c-0.885,1.428-1.769,2.776-2.652,4.046c-0.885,1.27-1.689,2.289-2.414,3.06l2.107,0.034c0.272-0.022,0.477,0.034,0.612,0.17
			s0.21,0.301,0.222,0.493c0.01,0.192-0.041,0.386-0.154,0.578s-0.283,0.335-0.51,0.425c-0.657,0.272-1.252,0.505-1.785,0.697
			c-0.532,0.192-1.002,0.334-1.41,0.425c-0.477,0.113-0.879,0.091-1.207-0.068c-0.329-0.158-0.561-0.385-0.697-0.68
			c-0.137-0.294-0.176-0.635-0.119-1.02C375.691,15.125,375.855,14.762,376.128,14.421z M376.842,22.31
			c0.68-0.681,1.371-1.445,2.074-2.295c0.702-0.851,1.371-1.751,2.006-2.703s1.229-1.915,1.785-2.891
			c0.555-0.974,1.037-1.915,1.445-2.821c0.203-0.453,0.515-0.72,0.935-0.799c0.419-0.08,0.804-0.022,1.155,0.17
			s0.602,0.498,0.748,0.918c0.148,0.419,0.052,0.9-0.288,1.444c-1.224,1.95-2.42,3.678-3.587,5.186
			c-1.168,1.508-2.363,2.805-3.588,3.893c1.156-0.09,2.193-0.198,3.111-0.323c0.918-0.124,1.898-0.277,2.941-0.459
			c0.271-0.045,0.48,0,0.629,0.137c0.146,0.136,0.232,0.306,0.255,0.51s-0.012,0.408-0.103,0.612
			c-0.09,0.204-0.237,0.34-0.441,0.407c-0.816,0.295-1.553,0.55-2.21,0.766s-1.28,0.42-1.87,0.611
			c-0.59,0.193-1.179,0.369-1.768,0.527c-0.59,0.159-1.225,0.317-1.904,0.477c-0.453,0.113-0.85,0.073-1.189-0.119
			c-0.341-0.192-0.59-0.465-0.748-0.816c-0.159-0.352-0.199-0.748-0.119-1.189C376.189,23.109,376.433,22.696,376.842,22.31z
			 M405.402,32.85H386.26c-0.386,0-0.668-0.125-0.85-0.374c-0.182-0.25-0.272-0.517-0.272-0.799c0-0.284,0.091-0.55,0.272-0.8
			c0.182-0.249,0.464-0.374,0.85-0.374h2.21V7.757c0-0.565,0.171-0.985,0.511-1.258c0.34-0.271,0.713-0.407,1.121-0.407
			s0.782,0.136,1.123,0.407c0.34,0.272,0.51,0.692,0.51,1.258v22.746h8.432V9.797c0-0.906-0.441-1.359-1.326-1.359h-5.1
			c-0.387,0-0.675-0.124-0.867-0.374c-0.193-0.249-0.289-0.516-0.289-0.799s0.096-0.55,0.289-0.8
			c0.192-0.249,0.48-0.373,0.867-0.373h6.63c1.088,0,1.881,0.306,2.38,0.918c0.498,0.611,0.748,1.349,0.748,2.21v21.283h1.904
			c0.361,0,0.634,0.125,0.815,0.374c0.181,0.25,0.272,0.516,0.272,0.8c0,0.282-0.092,0.549-0.272,0.799
			C406.036,32.725,405.763,32.85,405.402,32.85z M398.193,15.986h-4.453c-0.387,0-0.675-0.119-0.867-0.357
			c-0.193-0.237-0.289-0.504-0.289-0.799c0-0.294,0.096-0.561,0.289-0.799c0.192-0.238,0.48-0.357,0.867-0.357h4.453
			c0.408,0,0.715,0.119,0.918,0.357c0.205,0.238,0.307,0.505,0.307,0.799c0,0.295-0.102,0.562-0.307,0.799
			C398.908,15.867,398.601,15.986,398.193,15.986z M398.193,23.839h-4.453c-0.387,0-0.675-0.118-0.867-0.356
			c-0.193-0.238-0.289-0.504-0.289-0.799s0.096-0.562,0.289-0.799c0.192-0.238,0.48-0.357,0.867-0.357h4.453
			c0.408,0,0.715,0.119,0.918,0.357c0.205,0.237,0.307,0.504,0.307,0.799s-0.102,0.561-0.307,0.799
			C398.908,23.721,398.601,23.839,398.193,23.839z"/>
		<path class="st0" d="M422.265,28.396c-1.224,0.703-2.549,1.371-3.978,2.006c-1.428,0.634-3.116,1.36-5.065,2.176
			c-0.408,0.158-0.771,0.204-1.088,0.136c-0.318-0.067-0.578-0.209-0.783-0.425c-0.203-0.216-0.352-0.481-0.441-0.799
			c-0.091-0.317-0.107-0.623-0.051-0.918c0.057-0.294,0.191-0.561,0.408-0.799c0.215-0.238,0.526-0.402,0.935-0.493
			c0.431-0.09,1.015-0.227,1.751-0.408c0.736-0.181,1.541-0.385,2.414-0.611c0.872-0.227,1.773-0.471,2.703-0.731
			s1.813-0.527,2.652-0.799c0.248-0.068,0.459-0.045,0.629,0.067c0.17,0.114,0.289,0.268,0.356,0.459
			c0.067,0.193,0.067,0.397,0,0.612C422.64,28.085,422.492,28.26,422.265,28.396z M411.76,14.421
			c0.906-1.246,1.734-2.544,2.482-3.893s1.508-2.952,2.277-4.811c0.227-0.521,0.566-0.845,1.021-0.97
			c0.453-0.124,0.867-0.102,1.241,0.068s0.641,0.471,0.799,0.901s0.057,0.951-0.307,1.563c-0.883,1.428-1.768,2.788-2.651,4.08
			s-1.688,2.323-2.414,3.094l2.142,0.034c0.25-0.022,0.442,0.034,0.578,0.17c0.137,0.136,0.209,0.301,0.221,0.493
			s-0.039,0.386-0.152,0.578s-0.283,0.335-0.51,0.425c-0.658,0.272-1.253,0.505-1.785,0.697c-0.533,0.192-0.992,0.334-1.377,0.425
			c-0.477,0.113-0.879,0.091-1.207-0.068c-0.329-0.158-0.561-0.385-0.697-0.68c-0.136-0.294-0.176-0.635-0.119-1.02
			C411.357,15.125,411.51,14.762,411.76,14.421z M412.474,22.31c0.611-0.657,1.246-1.411,1.903-2.262
			c0.657-0.85,1.298-1.745,1.921-2.686s1.213-1.898,1.768-2.873c0.556-0.975,1.037-1.915,1.445-2.822
			c0.205-0.453,0.516-0.719,0.936-0.799c0.419-0.079,0.805-0.022,1.156,0.17c0.351,0.193,0.6,0.499,0.748,0.918
			c0.146,0.42,0.051,0.901-0.289,1.445c-1.225,1.949-2.426,3.694-3.604,5.236c-1.179,1.541-2.267,2.799-3.264,3.773
			c0.565-0.045,1.099-0.09,1.598-0.136c0.499-0.045,0.98-0.103,1.445-0.17c0.464-0.068,0.929-0.136,1.394-0.204
			s0.957-0.147,1.479-0.238c0.272-0.045,0.481,0,0.629,0.136c0.147,0.137,0.231,0.307,0.255,0.511
			c0.022,0.204-0.012,0.408-0.102,0.611c-0.092,0.204-0.238,0.341-0.442,0.408c-0.815,0.295-1.547,0.55-2.192,0.766
			c-0.646,0.215-1.259,0.413-1.837,0.595c-0.577,0.182-1.155,0.352-1.733,0.51c-0.578,0.159-1.207,0.317-1.887,0.477
			c-0.455,0.113-0.851,0.073-1.19-0.119c-0.341-0.192-0.584-0.459-0.731-0.8c-0.147-0.34-0.182-0.73-0.102-1.173
			C411.856,23.143,412.088,22.718,412.474,22.31z M426.72,24.792c0.316-0.611,0.725-0.969,1.224-1.07
			c0.498-0.103,0.94-0.034,1.325,0.203c0.386,0.238,0.658,0.602,0.816,1.089s0.057,1.015-0.306,1.581
			c-0.431,0.68-0.901,1.331-1.411,1.954c-0.51,0.624-1.082,1.247-1.717,1.87s-1.332,1.264-2.092,1.921
			c-0.76,0.657-1.604,1.349-2.532,2.074c-0.228,0.182-0.454,0.243-0.681,0.188c-0.227-0.057-0.408-0.17-0.543-0.34
			c-0.137-0.171-0.217-0.369-0.238-0.596c-0.023-0.227,0.057-0.431,0.238-0.611c0.611-0.635,1.178-1.259,1.699-1.87
			c0.521-0.612,1.02-1.241,1.496-1.888c0.477-0.646,0.936-1.331,1.377-2.057C425.819,26.514,426.266,25.699,426.72,24.792z
			 M427.025,20.507c0,0.545-0.17,0.947-0.51,1.207c-0.34,0.262-0.719,0.392-1.139,0.392s-0.799-0.13-1.139-0.392
			c-0.34-0.26-0.51-0.662-0.51-1.207V8.37c0-0.544,0.17-0.946,0.51-1.207c0.34-0.26,0.719-0.391,1.139-0.391
			s0.799,0.131,1.139,0.391c0.34,0.261,0.51,0.663,0.51,1.207V20.507z M436.886,6.806c1.133,0,1.943,0.312,2.43,0.935
			c0.488,0.624,0.721,1.366,0.697,2.228v10.029c0,0.748-0.232,1.275-0.697,1.581c-0.465,0.307-1.127,0.459-1.988,0.459h-8.363
			c-0.387,0-0.67-0.124-0.851-0.374c-0.182-0.249-0.272-0.526-0.272-0.833c0-0.306,0.091-0.589,0.272-0.85
			c0.181-0.261,0.464-0.392,0.851-0.392h7.717v-8.976c0-0.906-0.441-1.36-1.326-1.36h-6.391c-0.387,0-0.67-0.124-0.851-0.374
			c-0.182-0.249-0.272-0.526-0.272-0.833c0-0.306,0.091-0.589,0.272-0.85c0.181-0.261,0.464-0.391,0.851-0.391H436.886z
			 M435.662,24.213c1.225,1.315,2.289,2.563,3.195,3.74c0.907,1.179,1.757,2.301,2.551,3.366c0.408,0.544,0.527,1.082,0.357,1.615
			c-0.17,0.532-0.471,0.94-0.901,1.224s-0.907,0.386-1.429,0.306c-0.521-0.079-0.94-0.459-1.258-1.139
			c-0.861-1.791-1.632-3.332-2.312-4.624c-0.681-1.292-1.28-2.402-1.802-3.332c-0.159-0.271-0.199-0.526-0.119-0.765
			c0.079-0.238,0.209-0.419,0.391-0.544s0.396-0.182,0.646-0.17C435.231,23.903,435.458,24.01,435.662,24.213z"/>
		<path class="st0" d="M448.513,15.952c0.046-0.498,0.227-0.855,0.545-1.071c0.316-0.215,0.656-0.306,1.02-0.271
			c0.362,0.034,0.68,0.198,0.952,0.493s0.386,0.691,0.34,1.189c-0.249,2.426-0.635,4.653-1.155,6.682
			c-0.522,2.028-1.213,4.04-2.074,6.034c-0.113,0.228-0.268,0.369-0.459,0.426c-0.193,0.057-0.381,0.045-0.562-0.034
			c-0.182-0.079-0.323-0.215-0.425-0.408c-0.102-0.192-0.107-0.447-0.018-0.765c0.453-1.654,0.845-3.457,1.174-5.406
			C448.179,20.871,448.4,18.582,448.513,15.952z M458.306,13.266h-2.891V32.85c0,0.589-0.164,1.037-0.492,1.343
			c-0.33,0.306-0.697,0.459-1.105,0.459s-0.777-0.147-1.105-0.442s-0.492-0.748-0.492-1.359V13.266h-3.74
			c-0.363,0-0.635-0.119-0.816-0.357s-0.271-0.498-0.271-0.782c0-0.283,0.09-0.544,0.271-0.781c0.182-0.238,0.453-0.357,0.816-0.357
			h3.74V5.82c0-0.544,0.164-0.952,0.492-1.224c0.328-0.272,0.697-0.408,1.105-0.408s0.775,0.136,1.105,0.408
			c0.328,0.271,0.492,0.68,0.492,1.224v5.168h2.891c0.361,0,0.629,0.119,0.799,0.357c0.17,0.237,0.255,0.498,0.255,0.781
			c0,0.284-0.085,0.544-0.255,0.782S458.668,13.266,458.306,13.266z M457.558,16.292c0.316,0.635,0.64,1.298,0.969,1.989
			c0.328,0.691,0.584,1.253,0.766,1.683c0.248,0.567,0.26,1.055,0.033,1.463c-0.227,0.407-0.533,0.68-0.918,0.815
			c-0.386,0.136-0.766,0.119-1.139-0.051c-0.374-0.17-0.572-0.538-0.596-1.105l-0.408-4.352c-0.021-0.182,0.012-0.346,0.103-0.493
			s0.21-0.243,0.356-0.289c0.148-0.045,0.301-0.045,0.459,0C457.343,15.998,457.467,16.111,457.558,16.292z M460.924,8.472
			c0,3.604-0.033,6.692-0.102,9.265c-0.068,2.573-0.221,4.794-0.459,6.664s-0.59,3.479-1.055,4.828s-1.104,2.612-1.92,3.791
			c-0.182,0.271-0.238,0.532-0.17,0.782c0.067,0.249,0.191,0.447,0.373,0.595s0.402,0.215,0.664,0.204
			c0.26-0.012,0.504-0.153,0.73-0.425c0.771-0.907,1.434-1.825,1.988-2.755c0.556-0.929,1.025-1.938,1.412-3.025
			c0.385-1.088,0.691-2.272,0.918-3.553c0.227-1.281,0.402-2.721,0.527-4.318c0.123-1.598,0.209-3.383,0.254-5.355
			c0.045-1.972,0.068-4.182,0.068-6.63c0-0.566-0.17-0.991-0.51-1.274s-0.709-0.426-1.105-0.426s-0.765,0.137-1.105,0.408
			C461.094,7.52,460.924,7.928,460.924,8.472z M465.957,9.253h1.631c0.59,0,0.885,0.272,0.885,0.816v19.584
			c0,1.156,0.306,2.045,0.918,2.669c0.611,0.623,1.462,0.935,2.55,0.935h1.258c0.634,0,1.212-0.091,1.733-0.271
			c0.521-0.182,0.975-0.402,1.361-0.663c0.385-0.261,0.701-0.544,0.951-0.85c0.25-0.307,0.42-0.596,0.51-0.867
			c0.182-0.477,0.188-0.861,0.018-1.156c-0.17-0.294-0.414-0.521-0.73-0.68c-0.16-0.068-0.289-0.227-0.392-0.477
			c-0.103-0.249-0.182-0.538-0.238-0.866c-0.057-0.329-0.097-0.681-0.118-1.055c-0.023-0.374-0.035-0.719-0.035-1.037
			c0-0.271-0.084-0.476-0.254-0.611c-0.17-0.137-0.357-0.204-0.562-0.204s-0.392,0.067-0.562,0.204
			c-0.17,0.136-0.254,0.34-0.254,0.611c-0.047,1.836-0.176,3.157-0.392,3.961c-0.216,0.806-0.618,1.207-1.207,1.207
			c-0.431,0-0.737-0.106-0.918-0.322c-0.182-0.216-0.272-0.606-0.272-1.174V9.492c0-0.771-0.176-1.394-0.526-1.87
			c-0.353-0.476-0.89-0.714-1.615-0.714h-3.739c-0.387,0-0.67,0.125-0.851,0.374c-0.182,0.25-0.272,0.516-0.272,0.799
			c0,0.284,0.091,0.55,0.272,0.799C465.287,9.129,465.57,9.253,465.957,9.253z"/>
		<path class="st0" d="M484.179,15.646c0.045-0.498,0.232-0.855,0.562-1.071c0.328-0.215,0.674-0.306,1.036-0.271
			c0.363,0.033,0.681,0.198,0.953,0.492c0.271,0.295,0.385,0.692,0.34,1.19c-0.25,2.539-0.635,4.828-1.156,6.868
			s-1.213,4.012-2.074,5.916c-0.091,0.227-0.232,0.368-0.425,0.425s-0.38,0.046-0.562-0.034c-0.182-0.079-0.328-0.215-0.441-0.408
			c-0.113-0.192-0.125-0.447-0.034-0.765c0.204-0.771,0.392-1.547,0.562-2.329s0.322-1.648,0.459-2.601
			c0.136-0.952,0.266-2.028,0.391-3.23C483.913,18.627,484.044,17.233,484.179,15.646z M487.648,5.582
			c0-0.544,0.164-0.952,0.492-1.224c0.328-0.272,0.686-0.408,1.071-0.408s0.742,0.136,1.071,0.408
			c0.328,0.271,0.492,0.68,0.492,1.224v5.338h2.244c0.363,0,0.629,0.119,0.799,0.357c0.171,0.238,0.256,0.499,0.256,0.782
			s-0.085,0.544-0.256,0.781c-0.17,0.238-0.436,0.357-0.799,0.357h-2.244v19.754c0,0.589-0.164,1.037-0.492,1.343
			c-0.329,0.307-0.686,0.459-1.071,0.459s-0.743-0.147-1.071-0.441c-0.328-0.295-0.492-0.748-0.492-1.36V13.198h-3.672
			c-0.363,0-0.635-0.119-0.816-0.357c-0.182-0.237-0.271-0.498-0.271-0.781s0.09-0.544,0.271-0.782s0.453-0.357,0.816-0.357h3.672
			V5.582z M492.849,15.68c0.272,0.407,0.51,0.776,0.715,1.104c0.203,0.329,0.391,0.635,0.561,0.918
			c0.17,0.284,0.323,0.562,0.459,0.833c0.137,0.272,0.271,0.567,0.408,0.884c0.227,0.544,0.232,1.015,0.017,1.411
			c-0.216,0.397-0.51,0.663-0.884,0.799c-0.374,0.137-0.754,0.108-1.139-0.085c-0.387-0.192-0.624-0.595-0.715-1.207
			c-0.067-0.498-0.125-0.906-0.17-1.224s-0.096-0.612-0.152-0.884c-0.057-0.272-0.119-0.562-0.188-0.867s-0.158-0.697-0.271-1.173
			c-0.046-0.182-0.023-0.34,0.068-0.477c0.09-0.136,0.215-0.231,0.373-0.289c0.158-0.056,0.323-0.067,0.493-0.033
			C492.595,15.424,492.736,15.522,492.849,15.68z M493.972,14.626c0.34-0.68,0.656-1.354,0.951-2.022s0.572-1.36,0.833-2.074
			s0.511-1.479,0.748-2.295c0.238-0.816,0.481-1.7,0.731-2.652c0.158-0.634,0.464-1.059,0.918-1.274
			c0.453-0.216,0.889-0.267,1.309-0.153s0.766,0.374,1.037,0.782s0.307,0.906,0.102,1.496c-0.317,0.884-0.641,1.711-0.969,2.481
			c-0.328,0.771-0.691,1.52-1.088,2.244c-0.396,0.726-0.833,1.445-1.309,2.159c-0.477,0.714-1.01,1.479-1.598,2.295
			c-0.205,0.272-0.432,0.425-0.681,0.459s-0.471-0.011-0.663-0.136c-0.193-0.125-0.328-0.307-0.408-0.544
			C493.806,15.153,493.836,14.898,493.972,14.626z M496.08,27.376c0.975-0.113,1.938-0.271,2.891-0.476
			c0.951-0.204,1.959-0.453,3.025-0.748c0.295-0.068,0.493-0.215,0.595-0.442c0.103-0.226,0.13-0.447,0.085-0.663
			c-0.045-0.215-0.164-0.407-0.357-0.577c-0.192-0.171-0.436-0.244-0.73-0.222c-0.839,0.046-1.604,0.085-2.295,0.119
			s-1.468,0.063-2.329,0.085c0.681-0.725,1.496-1.773,2.448-3.145s1.824-2.986,2.617-4.846c0.25-0.611,0.277-1.139,0.086-1.581
			c-0.193-0.441-0.482-0.748-0.867-0.918c-0.386-0.17-0.794-0.17-1.225,0c-0.43,0.17-0.748,0.573-0.951,1.207
			c-0.363,1.088-0.709,2.052-1.037,2.891c-0.329,0.839-0.675,1.62-1.037,2.346c-0.363,0.726-0.748,1.417-1.156,2.074
			s-0.861,1.349-1.359,2.074c-0.205,0.317-0.318,0.651-0.34,1.003c-0.023,0.352,0.033,0.675,0.17,0.969
			c0.136,0.295,0.351,0.527,0.646,0.697C495.252,27.393,495.627,27.444,496.08,27.376z M508.252,34.142
			c0.477-0.477,0.9-0.976,1.275-1.496c0.373-0.521,0.697-1.146,0.969-1.87c0.271-0.726,0.498-1.592,0.68-2.602
			c0.182-1.008,0.328-2.255,0.442-3.739c0.112-1.484,0.192-3.235,0.237-5.253c0.046-2.018,0.068-4.397,0.068-7.141
			c0-0.34-0.033-0.68-0.102-1.02s-0.193-0.646-0.374-0.918c-0.183-0.272-0.431-0.487-0.748-0.646
			c-0.317-0.158-0.714-0.237-1.19-0.237h-8.398c-0.34,0-0.594,0.118-0.764,0.356s-0.256,0.499-0.256,0.782s0.086,0.544,0.256,0.782
			c0.17,0.237,0.424,0.356,0.764,0.356h6.664c0.386,0,0.652,0.085,0.8,0.255s0.221,0.438,0.221,0.8c0,2.584-0.012,4.794-0.034,6.63
			s-0.074,3.383-0.152,4.641c-0.08,1.258-0.188,2.267-0.323,3.026s-0.317,1.349-0.544,1.768c-0.227,0.42-0.499,0.714-0.816,0.884
			s-0.691,0.301-1.121,0.392c-0.455,0.091-0.891,0.142-1.31,0.152c-0.42,0.012-0.901,0.018-1.445,0.018
			c-0.272,0-0.481,0.091-0.629,0.271c-0.147,0.182-0.227,0.38-0.237,0.596c-0.012,0.215,0.039,0.413,0.152,0.595
			c0.113,0.181,0.295,0.271,0.544,0.271c1.382,0.046,2.335,0.261,2.856,0.646c0.521,0.385,0.77,0.815,0.748,1.292
			c0,0.181,0.057,0.34,0.17,0.476c0.113,0.137,0.255,0.227,0.425,0.272c0.17,0.045,0.356,0.045,0.562,0
			C507.844,34.436,508.048,34.323,508.252,34.142z M503.933,26.152c0.113,0.68,0.38,1.128,0.799,1.343
			c0.42,0.216,0.834,0.25,1.242,0.103c0.407-0.147,0.725-0.447,0.951-0.901c0.227-0.453,0.204-0.997-0.068-1.632
			c-0.589-1.383-1.155-2.606-1.699-3.672s-1.009-1.961-1.395-2.687c-0.136-0.227-0.301-0.368-0.492-0.425
			c-0.193-0.057-0.381-0.051-0.562,0.017c-0.182,0.068-0.317,0.204-0.407,0.408c-0.092,0.204-0.103,0.442-0.035,0.714
			c0.272,0.93,0.498,1.751,0.681,2.466c0.181,0.714,0.34,1.337,0.476,1.869c0.137,0.533,0.244,0.992,0.323,1.377
			C503.826,25.517,503.888,25.858,503.933,26.152z"/>
	</g>
</g>
<rect x="1.5" y="1.5" class="st1" width="34.468" height="34.468"/>
</svg>