<!-- Generator: Adobe Illustrator 24.1.3, SVG Export Plug-In  -->
<svg version="1.1" xmlns="http://www.w3.org/2000/svg" xmlns:xlink="http://www.w3.org/1999/xlink" x="0px" y="0px"
	 width="477.675px" height="93.196px" viewBox="0 0 477.675 93.196"
	 style="overflow:visible;enable-background:new 0 0 477.675 93.196;" xml:space="preserve">
<style type="text/css">
	.st0{fill:#BF2222;}
	.st1{fill:none;}
	.st2{font-family:'HYQingFenTi-W';}
	.st3{font-size:72px;}
</style>
<defs>
</defs>
<g>
	<g>
		<g>
			<path class="st0" d="M111.08,62.725c-0.576,1.008-1.249,1.68-2.017,2.016c-0.768,0.335-1.512,0.396-2.231,0.18
				c-0.72-0.216-1.321-0.673-1.8-1.368c-0.48-0.696-0.721-1.62-0.721-2.772V33.997c0-0.959-0.504-1.44-1.512-1.44h-4.104
				c-0.817,0-1.429-0.263-1.836-0.792c-0.409-0.528-0.612-1.104-0.612-1.728c0-0.623,0.216-1.199,0.647-1.728
				c0.433-0.527,1.056-0.792,1.872-0.792h8.208c1.199,0,2.16,0.421,2.88,1.26c0.721,0.84,1.08,1.86,1.08,3.06v22.104
				c0,0.288,0.096,0.529,0.288,0.72c0.191,0.192,0.433,0.169,0.721-0.072l4.248-3.24c0.479-0.24,0.947-0.288,1.403-0.144
				s0.792,0.421,1.008,0.828c0.217,0.408,0.276,0.864,0.181,1.368c-0.097,0.504-0.457,0.997-1.08,1.476
				c-1.104,0.817-2.257,1.944-3.456,3.384C113.047,59.701,111.991,61.19,111.08,62.725z M101,9.229
				c-0.337-0.479-0.457-0.959-0.36-1.44c0.096-0.479,0.3-0.864,0.612-1.152c0.312-0.288,0.72-0.456,1.224-0.504
				c0.504-0.047,0.996,0.144,1.477,0.576c2.304,1.969,4.127,3.625,5.472,4.968c1.344,1.344,2.472,2.544,3.384,3.6
				c0.624,0.72,0.96,1.452,1.009,2.196c0.047,0.745-0.098,1.429-0.433,2.052c-0.336,0.624-0.816,1.128-1.439,1.512
				c-0.625,0.385-1.297,0.601-2.017,0.648c-0.72,0.048-1.416-0.119-2.088-0.504c-0.673-0.384-1.224-1.055-1.656-2.016
				c-0.575-1.343-1.092-2.495-1.548-3.456c-0.457-0.959-0.889-1.811-1.296-2.556c-0.408-0.744-0.792-1.416-1.152-2.016
				C101.828,10.538,101.431,9.902,101,9.229z M159.895,47.605h-17.712v11.592h9.145V53.51c0-1.104,0.335-1.932,1.008-2.484
				c0.672-0.551,1.428-0.828,2.268-0.828s1.596,0.277,2.269,0.828c0.672,0.552,1.008,1.38,1.008,2.484v11.592
				c0,0.72-0.24,1.32-0.72,1.8c-0.48,0.479-1.044,0.815-1.692,1.008c-0.647,0.191-1.309,0.191-1.979,0
				c-0.673-0.192-1.201-0.625-1.584-1.296c-0.721-1.152-1.453-1.908-2.196-2.268c-0.745-0.36-1.597-0.54-2.556-0.54h-17.353
				c-0.673,0-1.188-0.241-1.548-0.72c-0.36-0.48-0.54-1.008-0.54-1.584c0-0.576,0.18-1.104,0.54-1.584
				c0.36-0.479,0.875-0.72,1.548-0.72h5.977V47.605h-17.929c-0.72,0-1.248-0.239-1.584-0.72c-0.336-0.479-0.504-1.02-0.504-1.62
				c0-0.6,0.168-1.14,0.504-1.62c0.336-0.479,0.864-0.72,1.584-0.72h17.929v-2.88c0-1.104,0.335-1.944,1.008-2.52
				c0.671-0.576,1.403-0.864,2.195-0.864s1.523,0.277,2.196,0.828c0.672,0.552,1.008,1.404,1.008,2.556v2.88h17.712
				c0.768,0,1.332,0.241,1.692,0.72c0.36,0.48,0.54,1.021,0.54,1.62c0,0.601-0.18,1.141-0.54,1.62
				C161.227,47.366,160.663,47.605,159.895,47.605z M153.704,6.134c1.151-0.335,2.088-0.228,2.808,0.324
				c0.72,0.553,1.152,1.236,1.296,2.052c0.145,0.816-0.071,1.62-0.647,2.412s-1.584,1.285-3.024,1.476
				c-2.16,0.288-4.464,0.553-6.912,0.792c-2.447,0.241-5.124,0.468-8.027,0.684c-2.905,0.216-6.061,0.409-9.469,0.576
				c-3.408,0.168-7.152,0.324-11.231,0.468c-0.433,0-0.781-0.167-1.044-0.504c-0.265-0.335-0.421-0.708-0.468-1.116
				c-0.049-0.407,0.023-0.792,0.216-1.152c0.191-0.36,0.504-0.563,0.936-0.612c3.983-0.288,7.776-0.648,11.376-1.08
				c3.601-0.432,6.936-0.9,10.008-1.404c3.071-0.504,5.808-1.008,8.208-1.512S152.12,6.565,153.704,6.134z M126.704,32.054
				c-0.529,1.2-1.225,2.424-2.088,3.672c-0.864,1.249-2.041,2.833-3.528,4.752c-0.385,0.529-0.841,0.817-1.368,0.864
				c-0.528,0.048-0.996-0.06-1.403-0.324c-0.409-0.263-0.697-0.659-0.864-1.188c-0.169-0.527-0.061-1.127,0.324-1.8
				c0.72-1.248,1.296-2.472,1.728-3.672c0.432-1.199,0.911-2.567,1.44-4.104c0.383-1.152,0.982-1.896,1.8-2.232
				c0.815-0.335,1.584-0.371,2.304-0.108c0.72,0.265,1.284,0.769,1.692,1.512C127.147,30.17,127.135,31.045,126.704,32.054z
				 M126.128,64.957c0,1.008-0.336,1.775-1.008,2.304c-0.673,0.527-1.417,0.792-2.232,0.792c-0.816,0-1.561-0.265-2.231-0.792
				c-0.673-0.529-1.009-1.296-1.009-2.304V53.51c0-1.104,0.336-1.932,1.009-2.484c0.671-0.551,1.415-0.828,2.231-0.828
				c0.815,0,1.56,0.277,2.232,0.828c0.672,0.552,1.008,1.38,1.008,2.484V64.957z M123.175,16.501
				c1.344,1.393,2.412,2.52,3.204,3.384c0.792,0.864,1.451,1.632,1.98,2.304c0.72,0.961,0.923,1.872,0.611,2.736
				c-0.313,0.864-0.828,1.5-1.548,1.908c-0.72,0.409-1.501,0.504-2.34,0.288c-0.841-0.216-1.452-0.947-1.836-2.196
				c-0.529-1.584-0.984-2.868-1.368-3.852c-0.385-0.983-0.769-1.883-1.152-2.7c-0.192-0.383-0.228-0.756-0.107-1.116
				c0.119-0.36,0.312-0.648,0.576-0.864c0.263-0.216,0.587-0.324,0.972-0.324C122.551,16.07,122.887,16.214,123.175,16.501z
				 M155.431,35.654h-25.416c-0.72,0-1.248-0.24-1.584-0.72c-0.336-0.479-0.504-0.996-0.504-1.548c0-0.551,0.168-1.068,0.504-1.548
				c0.336-0.479,0.864-0.72,1.584-0.72h25.416c0.672,0,1.176,0.241,1.513,0.72c0.335,0.48,0.504,0.997,0.504,1.548
				c0,0.552-0.169,1.069-0.504,1.548C156.607,35.414,156.103,35.654,155.431,35.654z M137.143,15.422
				c0.911,1.249,1.729,2.4,2.448,3.456c0.72,1.057,1.415,2.185,2.088,3.384c0.623,1.056,0.731,2.005,0.324,2.844
				c-0.408,0.84-0.984,1.44-1.728,1.8c-0.745,0.36-1.537,0.408-2.376,0.144c-0.841-0.263-1.381-0.996-1.62-2.196
				c-0.288-1.44-0.565-2.724-0.828-3.852c-0.265-1.127-0.612-2.436-1.044-3.924c-0.145-0.479-0.121-0.9,0.071-1.26
				c0.191-0.36,0.443-0.624,0.757-0.792c0.312-0.168,0.647-0.228,1.008-0.18C136.603,14.894,136.903,15.086,137.143,15.422z
				 M147.656,25.43c0.432-1.152,0.828-2.376,1.188-3.672c0.36-1.296,0.78-2.927,1.26-4.896c0.288-1.152,0.84-1.883,1.656-2.196
				c0.815-0.312,1.607-0.324,2.376-0.036c0.768,0.288,1.368,0.853,1.8,1.692c0.433,0.84,0.36,1.836-0.216,2.988
				c-0.72,1.537-1.476,2.893-2.268,4.068c-0.792,1.177-1.74,2.412-2.844,3.708c-0.288,0.385-0.648,0.612-1.08,0.684
				c-0.433,0.072-0.817,0.025-1.152-0.144c-0.337-0.167-0.589-0.432-0.756-0.792C147.451,26.473,147.464,26.006,147.656,25.43z"/>
			<path class="st0" d="M230.168,19.165h-57.313c-0.863,0-1.512-0.263-1.943-0.792c-0.433-0.527-0.648-1.091-0.648-1.692
				c0-0.6,0.216-1.163,0.648-1.692c0.432-0.528,1.08-0.792,1.943-0.792h57.313c0.815,0,1.44,0.264,1.872,0.792
				c0.432,0.529,0.647,1.092,0.647,1.692c0,0.601-0.204,1.165-0.611,1.692C231.668,18.902,231.032,19.165,230.168,19.165z
				 M223.328,29.749h-43.561c-0.912,0-1.596-0.252-2.052-0.756c-0.457-0.504-0.684-1.068-0.684-1.692
				c0-0.624,0.227-1.188,0.684-1.692c0.456-0.504,1.14-0.756,2.052-0.756h43.561c0.864,0,1.523,0.252,1.979,0.756
				c0.456,0.504,0.685,1.068,0.685,1.692c0,0.624-0.216,1.188-0.648,1.692C224.912,29.497,224.239,29.749,223.328,29.749z
				 M223.183,40.045h-43.271c-0.912,0-1.597-0.252-2.052-0.756c-0.457-0.504-0.685-1.067-0.685-1.692
				c0-0.623,0.228-1.188,0.685-1.692c0.455-0.504,1.14-0.756,2.052-0.756h43.271c0.864,0,1.523,0.252,1.98,0.756
				c0.455,0.504,0.684,1.069,0.684,1.692c0,0.625-0.216,1.188-0.647,1.692C224.767,39.793,224.094,40.045,223.183,40.045z
				 M177.895,65.389c0,1.152,0.384,2.003,1.152,2.556c0.768,0.551,1.596,0.828,2.484,0.828c0.888,0,1.715-0.276,2.483-0.828
				c0.768-0.553,1.152-1.404,1.152-2.556V48.758c0-1.152-0.385-2.004-1.152-2.556c-0.769-0.551-1.596-0.828-2.483-0.828
				c-0.889,0-1.717,0.277-2.484,0.828c-0.769,0.552-1.152,1.404-1.152,2.556V65.389z M218.647,67.694
				c0.433,0.576,0.996,0.923,1.692,1.044c0.695,0.119,1.368,0.072,2.016-0.144c0.648-0.216,1.199-0.625,1.656-1.224
				c0.456-0.601,0.685-1.332,0.685-2.196v-13.68c0-3.935-1.969-5.904-5.904-5.904h-29.664c-0.769,0-1.345,0.252-1.728,0.756
				c-0.385,0.504-0.576,1.069-0.576,1.692c0,0.625,0.191,1.188,0.576,1.692c0.383,0.504,0.959,0.756,1.728,0.756h26.208
				c0.768,0,1.308,0.144,1.62,0.432c0.312,0.288,0.468,0.792,0.468,1.512v7.416h-28.296c-0.769,0-1.345,0.252-1.728,0.756
				c-0.385,0.504-0.576,1.055-0.576,1.656c0,0.6,0.191,1.152,0.576,1.656c0.383,0.504,0.959,0.756,1.728,0.756h24.192
				c1.055,0,1.991,0.228,2.808,0.684C216.943,65.809,217.784,66.589,218.647,67.694z M199.135,3.541
				c1.968,1.249,3.72,2.473,5.256,3.672c1.056,0.912,1.5,1.848,1.332,2.808c-0.169,0.961-0.647,1.728-1.439,2.304
				s-1.717,0.84-2.772,0.792c-1.057-0.047-1.896-0.623-2.52-1.728c-1.057-1.872-2.113-3.624-3.168-5.256
				c-0.337-0.479-0.469-0.96-0.396-1.44c0.072-0.479,0.288-0.864,0.648-1.152c0.359-0.288,0.803-0.456,1.332-0.504
				C197.935,2.99,198.511,3.158,199.135,3.541z"/>
			<path class="st0" d="M244.784,19.526c0-1.2,0.359-2.088,1.08-2.664c0.72-0.576,1.512-0.864,2.376-0.864
				c0.863,0,1.655,0.288,2.376,0.864c0.72,0.576,1.08,1.464,1.08,2.664V63.95c0,1.248-0.36,2.171-1.08,2.772
				c-0.721,0.6-1.513,0.9-2.376,0.9c-0.864,0-1.656-0.3-2.376-0.9c-0.721-0.601-1.08-1.524-1.08-2.772V19.526z M254,40.225
				c-0.432-0.504-0.648-1.044-0.648-1.62c0-0.576,0.217-1.116,0.648-1.62c0.432-0.504,1.055-0.756,1.872-0.756h7.632V23.486
				c0-0.864-0.288-1.536-0.864-2.016c-0.576-0.479-1.32-0.72-2.231-0.72h-4.536c-0.769,0-1.345-0.227-1.729-0.684
				c-0.385-0.456-0.601-0.972-0.647-1.548c-0.049-0.576,0.083-1.116,0.396-1.62c0.312-0.504,0.804-0.803,1.477-0.9
				c0.191-1.343,0.348-2.747,0.468-4.212c0.119-1.464,0.203-2.556,0.252-3.276c0.047-1.343,0.491-2.304,1.332-2.88
				c0.839-0.576,1.716-0.792,2.628-0.648c0.911,0.144,1.68,0.625,2.304,1.44c0.624,0.816,0.768,1.92,0.433,3.312
				c-0.241,0.816-0.576,1.74-1.008,2.772c-0.433,1.033-0.984,2.172-1.656,3.42h3.815c2.4,0,4.068,0.612,5.004,1.836
				c0.937,1.224,1.404,2.7,1.404,4.428v35.28c0,1.681-0.444,3.024-1.332,4.032c-0.889,1.008-2.46,1.512-4.716,1.512h-8.424
				c-0.817,0-1.417-0.252-1.8-0.756c-0.385-0.504-0.576-1.055-0.576-1.656c0-0.6,0.191-1.152,0.576-1.656
				c0.383-0.504,0.982-0.756,1.8-0.756h7.632V40.981h-7.632C255.054,40.981,254.431,40.729,254,40.225z M271.927,30.433
				c0.191,0.504,0.492,0.864,0.9,1.08c0.407,0.216,0.864,0.277,1.368,0.18c0.504-0.096,0.972-0.456,1.403-1.08
				c2.017-3.024,3.816-6.252,5.4-9.684c1.584-3.431,2.88-7.308,3.888-11.628c0.288-1.296,0.108-2.352-0.54-3.168
				c-0.647-0.816-1.439-1.308-2.376-1.476c-0.936-0.167-1.86,0.025-2.771,0.576c-0.913,0.552-1.465,1.524-1.656,2.916
				c-0.673,4.129-1.476,7.884-2.412,11.268c-0.936,3.384-1.979,6.516-3.132,9.396C271.758,29.389,271.735,29.93,271.927,30.433z
				 M280.244,38.605c-0.792-1.872-1.524-3.503-2.196-4.896c-0.192-0.432-0.216-0.852-0.072-1.26
				c0.145-0.407,0.384-0.744,0.721-1.008c0.335-0.263,0.73-0.396,1.188-0.396c0.456,0,0.9,0.216,1.332,0.648
				c3.313,3.36,5.951,6.552,7.92,9.576c0.72,1.105,0.875,2.16,0.468,3.168c-0.408,1.008-1.056,1.764-1.943,2.268
				c-0.889,0.504-1.836,0.648-2.844,0.432c-1.009-0.216-1.729-0.972-2.16-2.268C281.839,42.565,281.036,40.477,280.244,38.605z
				 M291.763,68.63c-0.696-0.336-1.092-0.841-1.188-1.512c-0.145-0.864-0.468-1.548-0.973-2.052c-0.504-0.504-1.188-0.9-2.052-1.188
				c-0.864-0.288-1.896-0.504-3.096-0.648c-1.2-0.144-2.545-0.288-4.032-0.432c-0.528-0.048-0.925-0.277-1.188-0.684
				c-0.265-0.409-0.385-0.839-0.36-1.296c0.023-0.456,0.191-0.864,0.504-1.224c0.312-0.36,0.779-0.54,1.404-0.54
				c1.055,0.048,2.135,0.072,3.239,0.072s2.136-0.023,3.097-0.072c0.959-0.047,1.823-0.144,2.592-0.288
				c0.768-0.144,1.392-0.36,1.872-0.648c0.96-0.576,1.692-1.644,2.196-3.204c0.504-1.559,0.875-3.755,1.115-6.588
				c0.24-2.832,0.384-6.347,0.433-10.548c0.047-4.2,0.072-9.18,0.072-14.94c0-0.767-0.157-1.332-0.469-1.692
				c-0.313-0.36-0.899-0.54-1.764-0.54h-6.696c-0.769,0-1.344-0.252-1.728-0.756c-0.385-0.504-0.576-1.055-0.576-1.656
				c0-0.6,0.191-1.152,0.576-1.656c0.384-0.504,0.959-0.756,1.728-0.756h10.8c1.056,0,1.92,0.168,2.593,0.504
				c0.671,0.336,1.211,0.792,1.62,1.368c0.407,0.576,0.684,1.224,0.827,1.944c0.145,0.72,0.217,1.44,0.217,2.16
				c0,7.296-0.072,13.561-0.217,18.792c-0.144,5.232-0.504,9.672-1.08,13.32c-0.575,3.648-1.429,6.613-2.556,8.892
				c-1.128,2.279-2.652,4.091-4.572,5.436C293.24,68.821,292.459,68.965,291.763,68.63z"/>
			<path class="st0" d="M334.316,41.557c1.079-0.096,2.026,0.144,2.844,0.72c0.815,0.576,1.355,1.368,1.62,2.376
				c0.263,1.008-0.062,2.041-0.973,3.096c-2.592,3.121-5.903,6.12-9.936,9c-4.032,2.88-8.473,5.472-13.32,7.776
				c-0.48,0.239-0.925,0.263-1.332,0.072c-0.408-0.192-0.72-0.48-0.936-0.864c-0.216-0.385-0.301-0.817-0.252-1.296
				c0.047-0.48,0.312-0.864,0.792-1.152c3.407-2.016,6.743-4.572,10.008-7.668c3.264-3.096,6.167-6.491,8.712-10.188
				C332.311,42.278,333.236,41.654,334.316,41.557z M348.967,39.11h26.136c0.816,0,1.428-0.264,1.836-0.792
				c0.408-0.528,0.612-1.091,0.612-1.692c0-0.6-0.204-1.163-0.612-1.692c-0.408-0.527-1.02-0.792-1.836-0.792h-26.136V18.229h22.896
				c0.863,0,1.499-0.252,1.907-0.756c0.407-0.504,0.612-1.055,0.612-1.656c0-0.6-0.205-1.152-0.612-1.656
				c-0.408-0.504-1.044-0.756-1.907-0.756h-22.896V7.574c0-1.199-0.385-2.112-1.151-2.736c-0.769-0.623-1.609-0.936-2.521-0.936
				c-0.912,0-1.753,0.313-2.52,0.936c-0.769,0.625-1.152,1.537-1.152,2.736v5.832h-22.968c-0.817,0-1.417,0.252-1.801,0.756
				c-0.385,0.504-0.575,1.057-0.575,1.656c0,0.601,0.19,1.152,0.575,1.656c0.384,0.504,0.983,0.756,1.801,0.756h22.968v15.912
				h-26.208c-0.72,0-1.272,0.265-1.656,0.792c-0.385,0.529-0.576,1.092-0.576,1.692c0,0.601,0.191,1.165,0.576,1.692
				c0.384,0.528,0.937,0.792,1.656,0.792h26.208v26.64c0,1.152,0.384,2.027,1.152,2.628c0.767,0.6,1.607,0.9,2.52,0.9
				c0.911,0,1.752-0.288,2.521-0.864c0.767-0.576,1.151-1.465,1.151-2.664V39.11z M324.847,20.282
				c-0.432,0.12-0.78,0.349-1.044,0.684c-0.265,0.336-0.396,0.745-0.396,1.224c0,0.48,0.144,0.913,0.432,1.296
				c0.96,1.152,1.752,2.16,2.376,3.024c0.623,0.864,1.319,1.92,2.088,3.168c0.479,0.817,1.044,1.332,1.692,1.548
				c0.647,0.216,1.296,0.229,1.943,0.036c0.648-0.191,1.235-0.54,1.765-1.044c0.527-0.504,0.899-1.08,1.116-1.728
				c0.216-0.648,0.227-1.32,0.035-2.016c-0.192-0.695-0.672-1.307-1.439-1.836c-0.961-0.672-1.956-1.296-2.988-1.872
				s-2.389-1.32-4.067-2.232C325.784,20.245,325.28,20.162,324.847,20.282z M378.595,59.198c0.168,1.056,0,2.016-0.504,2.88
				s-1.272,1.5-2.304,1.908c-1.033,0.407-2.101,0.252-3.204-0.468c-3.313-2.113-6.601-4.572-9.864-7.38
				c-3.265-2.808-6.672-6.347-10.224-10.62c-0.48-0.576-0.685-1.116-0.612-1.62c0.072-0.504,0.275-0.923,0.612-1.26
				c0.335-0.335,0.743-0.54,1.224-0.612c0.479-0.072,0.911,0.061,1.296,0.396c1.296,1.104,2.736,2.28,4.32,3.528
				c1.584,1.249,3.287,2.509,5.112,3.78c1.823,1.272,3.744,2.497,5.76,3.672c2.016,1.177,4.079,2.268,6.192,3.276
				C377.696,57.302,378.426,58.142,378.595,59.198z M361.603,28.813c0.937-0.671,1.908-1.415,2.916-2.232
				c1.248-0.959,1.801-1.991,1.656-3.096c-0.144-1.104-0.612-1.991-1.404-2.664c-0.792-0.672-1.728-0.983-2.808-0.936
				c-1.08,0.048-1.979,0.72-2.7,2.016c-0.863,1.632-1.561,2.88-2.088,3.744c-0.528,0.864-1.104,1.728-1.728,2.592
				c-0.337,0.432-0.48,0.889-0.433,1.368c0.048,0.48,0.228,0.876,0.54,1.188c0.312,0.313,0.708,0.517,1.188,0.612
				c0.479,0.097,0.983-0.024,1.512-0.36C359.551,30.23,360.668,29.486,361.603,28.813z"/>
			<path class="st0" d="M384.752,25.285c-0.336-0.335-0.504-0.744-0.504-1.224c0-0.479,0.132-0.888,0.396-1.224
				c0.264-0.335,0.624-0.576,1.08-0.72s0.947-0.072,1.477,0.216c2.447,1.345,4.571,2.581,6.372,3.708
				c1.8,1.128,3.348,2.293,4.644,3.492c0.672,0.576,1.067,1.213,1.188,1.908c0.119,0.697,0.071,1.357-0.145,1.98
				c-0.216,0.624-0.576,1.177-1.08,1.656c-0.504,0.48-1.08,0.804-1.728,0.972c-0.648,0.168-1.309,0.144-1.98-0.072
				c-0.673-0.216-1.296-0.731-1.872-1.548c-1.439-2.112-2.797-3.852-4.067-5.22C387.259,27.842,386,26.534,384.752,25.285z
				 M393.824,63.446c-0.721,1.728-1.669,2.783-2.845,3.168c-1.177,0.383-2.244,0.324-3.203-0.18
				c-0.961-0.504-1.656-1.308-2.089-2.412c-0.432-1.104-0.264-2.256,0.505-3.456c2.447-3.935,4.415-7.38,5.903-10.332
				c1.487-2.952,2.712-5.652,3.672-8.1c0.191-0.576,0.528-0.972,1.009-1.188c0.479-0.216,0.959-0.263,1.439-0.144
				c0.479,0.12,0.864,0.396,1.152,0.828c0.288,0.432,0.359,0.984,0.216,1.656c-0.673,3.553-1.44,6.937-2.304,10.152
				C396.416,56.654,395.263,59.99,393.824,63.446z M394.759,18.302c-0.673-0.911-1.296-1.739-1.872-2.484
				c-0.576-0.744-1.141-1.452-1.691-2.124c-0.553-0.672-1.142-1.343-1.765-2.016c-0.624-0.672-1.32-1.392-2.088-2.16
				c-0.432-0.384-0.647-0.815-0.647-1.296c0-0.479,0.144-0.9,0.432-1.26c0.288-0.36,0.684-0.6,1.188-0.72
				c0.504-0.119,1.044-0.036,1.619,0.252c1.248,0.673,2.352,1.296,3.313,1.872c0.96,0.576,1.847,1.116,2.664,1.62
				c0.815,0.504,1.571,1.02,2.268,1.548c0.695,0.529,1.428,1.104,2.196,1.728c0.768,0.625,1.235,1.296,1.404,2.016
				c0.167,0.72,0.144,1.404-0.072,2.052s-0.589,1.224-1.116,1.728c-0.528,0.504-1.116,0.84-1.764,1.008
				c-0.648,0.169-1.345,0.133-2.088-0.108C395.995,19.718,395.336,19.165,394.759,18.302z M404.767,12.902
				c0-1.296,0.372-2.268,1.116-2.916c0.744-0.648,1.571-0.972,2.484-0.972c0.911,0,1.739,0.336,2.483,1.008
				c0.744,0.673,1.116,1.681,1.116,3.024c0,7.344-0.156,13.669-0.468,18.972c-0.313,5.304-0.828,10.021-1.548,14.148
				c-0.721,4.129-1.692,7.873-2.916,11.232c-1.225,3.36-2.772,6.72-4.645,10.08c-0.385,0.672-0.863,1.068-1.439,1.188
				c-0.576,0.119-1.104,0.06-1.584-0.18c-0.48-0.241-0.828-0.648-1.044-1.224c-0.216-0.576-0.156-1.249,0.18-2.016
				c1.344-2.928,2.423-6,3.24-9.216c0.815-3.215,1.451-6.876,1.908-10.98c0.455-4.104,0.756-8.759,0.899-13.968
				C404.696,25.874,404.767,19.813,404.767,12.902z M411.248,65.174c-0.48,0.432-0.925,0.623-1.332,0.576
				c-0.408-0.048-0.745-0.216-1.008-0.504c-0.265-0.288-0.433-0.648-0.504-1.08c-0.072-0.432-0.013-0.792,0.18-1.08
				c1.487-2.111,2.783-4.091,3.888-5.94c1.104-1.847,2.136-3.947,3.097-6.3c0.479-1.104,1.175-1.764,2.088-1.98
				c0.911-0.216,1.739-0.119,2.483,0.288c0.744,0.408,1.271,1.08,1.584,2.016c0.312,0.936,0.084,2.005-0.684,3.204
				c-0.624,0.961-1.26,1.884-1.908,2.772c-0.647,0.889-1.356,1.764-2.124,2.628c-0.769,0.864-1.62,1.739-2.556,2.628
				C413.515,63.289,412.447,64.213,411.248,65.174z M446.528,13.981h-30.744c-0.817,0-1.417-0.252-1.8-0.756
				c-0.385-0.504-0.576-1.067-0.576-1.692c0-0.624,0.191-1.188,0.576-1.692c0.383-0.504,0.982-0.756,1.8-0.756h30.744
				c0.767,0,1.343,0.252,1.728,0.756c0.384,0.504,0.576,1.068,0.576,1.692c0,0.625-0.192,1.188-0.576,1.692
				C447.871,13.729,447.295,13.981,446.528,13.981z M415.063,24.565c0-1.104,0.348-1.932,1.045-2.484
				c0.694-0.551,1.476-0.828,2.34-0.828c0.863,0,1.644,0.277,2.34,0.828c0.695,0.552,1.044,1.38,1.044,2.484v17.28
				c0,1.152-0.349,2.028-1.044,2.628c-0.696,0.601-1.477,0.9-2.34,0.9c-0.864,0-1.646-0.299-2.34-0.9
				c-0.697-0.6-1.045-1.476-1.045-2.628V24.565z M426.944,67.118c0.239-1.105-0.252-2.064-1.477-2.88
				c-1.224-0.817-2.7-1.417-4.428-1.8c-0.529-0.097-0.877-0.324-1.044-0.684c-0.169-0.36-0.216-0.72-0.145-1.08
				c0.072-0.36,0.252-0.684,0.54-0.972s0.648-0.407,1.08-0.36c1.487,0.144,2.652,0.192,3.492,0.144
				c0.839-0.047,1.464-0.252,1.872-0.612c0.407-0.36,0.659-0.9,0.756-1.62c0.096-0.72,0.145-1.703,0.145-2.952v-4.536
				c0-1.199,0.359-2.088,1.08-2.664c0.72-0.576,1.522-0.864,2.411-0.864c0.888,0,1.692,0.288,2.412,0.864
				c0.721,0.576,1.08,1.465,1.08,2.664v10.512c0,2.255-0.408,3.971-1.224,5.148c-0.817,1.175-1.704,2.124-2.664,2.844
				c-0.529,0.384-1.044,0.636-1.548,0.756c-0.504,0.119-0.948,0.108-1.332-0.036c-0.385-0.144-0.673-0.373-0.864-0.684
				C426.895,67.993,426.847,67.597,426.944,67.118z M425.647,45.085c-0.768,0-1.344-0.239-1.728-0.72
				c-0.385-0.479-0.576-1.02-0.576-1.62c0-0.6,0.191-1.14,0.576-1.62c0.384-0.479,0.96-0.72,1.728-0.72h14.4V28.094
				c0-1.487-0.72-2.232-2.16-2.232h-12.24c-0.816,0-1.416-0.24-1.8-0.72c-0.385-0.479-0.576-1.019-0.576-1.62
				c0-0.6,0.191-1.14,0.576-1.62c0.384-0.479,0.983-0.72,1.8-0.72h0.937c0.191-0.479,0.371-1.008,0.54-1.584
				c0.168-0.576,0.371-1.199,0.612-1.872c0.335-1.296,0.959-2.099,1.872-2.412c0.911-0.312,1.764-0.312,2.556,0
				c0.792,0.313,1.392,0.9,1.8,1.764c0.407,0.864,0.275,1.825-0.396,2.88c-0.098,0.192-0.217,0.385-0.36,0.576
				c-0.145,0.192-0.337,0.408-0.576,0.648h8.424c2.063,0,3.539,0.504,4.429,1.512c0.887,1.008,1.332,2.52,1.332,4.536v12.744
				c0,1.296-0.409,2.473-1.225,3.528c-0.816,1.057-2.064,1.584-3.744,1.584H425.647z M425.792,35.222
				c-0.769,0-1.345-0.24-1.729-0.72c-0.385-0.479-0.575-1.008-0.575-1.584c0-0.576,0.19-1.104,0.575-1.584
				c0.384-0.479,0.96-0.72,1.729-0.72h10.224c0.768,0,1.355,0.241,1.765,0.72c0.407,0.48,0.611,1.008,0.611,1.584
				c0,0.576-0.204,1.105-0.611,1.584c-0.409,0.48-0.997,0.72-1.765,0.72H425.792z M444.152,62.222
				c-0.576-1.248-1.105-2.351-1.584-3.312c-0.48-0.959-0.937-1.847-1.368-2.664c-0.433-0.815-0.853-1.572-1.261-2.268
				c-0.408-0.695-0.853-1.404-1.331-2.124c-0.241-0.383-0.313-0.779-0.217-1.188c0.096-0.407,0.312-0.744,0.648-1.008
				c0.335-0.263,0.72-0.407,1.152-0.432c0.432-0.023,0.839,0.156,1.224,0.54c1.968,1.825,3.552,3.36,4.752,4.608
				c1.199,1.249,2.279,2.473,3.24,3.672c0.911,1.105,1.247,2.173,1.008,3.204c-0.241,1.032-0.732,1.812-1.477,2.34
				c-0.744,0.527-1.596,0.731-2.556,0.612C445.422,64.081,444.679,63.421,444.152,62.222z"/>
		</g>
	</g>
	<g>
		<g>
			<path class="st0" d="M74.12,60.786l-5.958-14.853c2.658-4.459,4.053-9.429,4.053-14.489C72.215,14.106,56.018,0,36.108,0
				S0,14.106,0,31.444c0,17.339,16.198,31.444,36.108,31.444c5.667,0,11.268-1.166,16.303-3.384l16.929,6.207
				c0.422,0.155,0.859,0.23,1.292,0.23c0.998,0,1.976-0.398,2.697-1.141C74.362,63.736,74.672,62.163,74.12,60.786z M60.468,46.933
				l3.538,8.821l-10.474-3.841c-0.418-0.154-0.856-0.23-1.293-0.23c-0.571,0-1.14,0.13-1.663,0.388
				c-4.38,2.162-9.383,3.304-14.469,3.304c-15.767,0-28.595-10.735-28.595-23.931c0-13.195,12.828-23.931,28.595-23.931
				c15.767,0,28.594,10.735,28.594,23.931c0,4.194-1.327,8.327-3.837,11.952C60.148,44.434,59.998,45.762,60.468,46.933z"/>
			<path class="st0" d="M22.014,27.026c-2.462,0-4.459,1.996-4.459,4.458c0,2.462,1.996,4.458,4.459,4.458
				c2.462,0,4.457-1.996,4.457-4.458C26.472,29.022,24.476,27.026,22.014,27.026z"/>
			<path class="st0" d="M36.108,27.026c-2.462,0-4.458,1.996-4.458,4.458c0,2.462,1.996,4.458,4.458,4.458
				c2.462,0,4.457-1.996,4.457-4.458C40.565,29.022,38.569,27.026,36.108,27.026z"/>
			<circle class="st0" cx="50.984" cy="31.484" r="4.458"/>
		</g>
	</g>
</g>
</svg>