<!-- Generator: Adobe Illustrator 24.0.1, SVG Export Plug-In  -->
<svg version="1.1" xmlns="http://www.w3.org/2000/svg" xmlns:xlink="http://www.w3.org/1999/xlink" x="0px" y="0px"
	 width="408.616px" height="93.11px" viewBox="0 0 408.616 93.11" style="enable-background:new 0 0 408.616 93.11;"
	 xml:space="preserve">
<style type="text/css">
	.st0{fill:#BF2222;}
	.st1{fill:none;}
	.st2{font-family:'HYQiuShi-W';}
	.st3{font-size:72px;}
</style>
<defs>
</defs>
<g>
	<g>
		<path class="st0" d="M31.724,26.1c1.008,0.072,1.968,0.108,2.88,0.108c0.96,0,1.824-0.18,2.592-0.54
			c0.767-0.36,1.271-0.684,1.512-0.972c1.824,0,3.323,0.313,4.5,0.936c1.176,0.624,1.764,1.849,1.764,3.672
			c0,0.529-0.084,1.285-0.252,2.269c-0.169,0.984-0.252,2.124-0.252,3.42v18.936c1.104-0.672,2.171-1.368,3.204-2.088
			c1.032-0.72,2.027-1.439,2.988-2.16c0,1.057-0.144,2.064-0.432,3.024c-0.288,0.961-0.673,1.849-1.152,2.664
			c-0.432,0.72-0.984,1.561-1.656,2.52c-0.672,0.961-1.416,1.849-2.232,2.664c-0.816,0.815-1.656,1.512-2.52,2.088
			c-0.864,0.576-1.681,0.864-2.448,0.864c-0.529,0-1.057-0.097-1.584-0.288c-0.529-0.192-1.021-0.48-1.476-0.864
			c-0.457-0.385-0.828-0.899-1.116-1.548c-0.288-0.647-0.432-1.428-0.432-2.34c0.432-0.239,0.803-0.551,1.116-0.936
			c0.312-0.384,0.468-0.937,0.468-1.656V29.377c-1.152,0.049-2.137,0.133-2.952,0.252c-0.817,0.12-1.561,0.18-2.232,0.18
			c-1.008,0-1.692-0.359-2.052-1.08c-0.36-0.72-0.54-1.728-0.54-3.023C29.947,25.897,30.716,26.029,31.724,26.1z M37.268,13.464
			c-0.385-1.008-0.828-2.075-1.332-3.204c-0.504-1.127-1.069-2.147-1.692-3.06c3.071,0,5.699,0.637,7.884,1.908
			c2.184,1.271,3.611,3.203,4.284,5.796c0.335,1.248,0.227,2.412-0.324,3.491c-0.552,1.08-1.38,1.765-2.484,2.053
			c-1.104,0.288-2.148,0.107-3.132-0.54c-0.984-0.648-1.668-1.596-2.052-2.845C38.083,15.865,37.7,14.665,37.268,13.464z
			 M80.432,28.476c-0.745,0.217-1.62,0.324-2.628,0.324H60.812c-0.192-0.576-0.601-1.031-1.224-1.368
			c-0.624-0.335-1.56-0.504-2.808-0.504h-3.456c0,0.529-0.121,1.225-0.36,2.088c-0.241,0.864-0.588,1.836-1.044,2.916
			c-0.457,1.08-0.997,2.209-1.62,3.385c-0.625,1.177-1.321,2.292-2.088,3.348c1.824,0,3.323-0.216,4.5-0.648
			c1.176-0.432,2.292-0.983,3.348-1.655c0.815-0.576,1.572-1.261,2.268-2.053c0.695-0.792,1.26-1.595,1.692-2.412h5.688v8.353
			H54.332c-0.529,0-1.092-0.012-1.692-0.036c-0.601-0.023-1.188-0.06-1.764-0.108c-0.576-0.047-1.104-0.095-1.584-0.144
			c-0.48-0.047-0.864-0.119-1.152-0.216c0,2.4,0.695,3.6,2.088,3.6h15.48v16.704h-6.912v-5.688c0-1.824,0.083-3.18,0.252-4.068
			c0.167-0.888,0.252-1.596,0.252-2.124c0-1.008-0.409-1.775-1.224-2.304c-0.817-0.528-1.728-0.792-2.736-0.792
			c-1.057,0-1.908,0.107-2.556,0.323c-0.648,0.217-1.357,0.469-2.124,0.757c0.384,0.672,0.659,1.429,0.828,2.268
			c0.167,0.841,0.252,1.789,0.252,2.844v4.104c0,1.057-0.121,1.969-0.36,2.735c-0.241,0.769-0.48,1.417-0.72,1.944
			c0.144,0.769,0.443,1.428,0.9,1.98c0.456,0.551,1.02,1.019,1.692,1.403c0.672,0.384,1.428,0.672,2.268,0.864
			c0.839,0.191,1.692,0.288,2.556,0.288c0.815-0.528,1.751-0.912,2.808-1.152c1.055-0.24,2.351-0.359,3.888-0.359H80.18
			c0.384,0.527,0.888,0.972,1.512,1.332c0.624,0.359,1.392,0.54,2.304,0.54c1.152,0,1.968-0.36,2.448-1.08
			c0.479-0.721,0.72-1.705,0.72-2.952v-6.48c0-1.823,0.096-3.179,0.288-4.067c0.191-0.888,0.288-1.596,0.288-2.124
			c0-1.008-0.288-1.775-0.864-2.305c-0.576-0.527-1.512-0.792-2.808-0.792c-0.96,0-1.836,0.108-2.628,0.324s-1.573,0.468-2.34,0.756
			c0.672,1.296,1.008,3.001,1.008,5.112v5.4c0,1.439-0.192,2.544-0.576,3.312h-6.696V43.344H89.18c0.767,0,1.296-0.132,1.584-0.396
			s0.432-0.659,0.432-1.188c0-0.384-0.169-0.731-0.504-1.044c-0.336-0.312-0.756-0.576-1.26-0.792s-1.057-0.384-1.656-0.504
			c-0.601-0.119-1.164-0.18-1.692-0.18c-0.241,0.24-0.732,0.468-1.476,0.684c-0.745,0.216-1.62,0.324-2.628,0.324h-9.144v-8.353
			h12.168c0.768,0,1.296-0.119,1.584-0.359c0.288-0.24,0.432-0.623,0.432-1.152c0-0.384-0.168-0.743-0.504-1.08
			c-0.336-0.335-0.756-0.611-1.26-0.828c-0.504-0.216-1.057-0.383-1.656-0.504c-0.601-0.119-1.165-0.18-1.692-0.18
			C81.667,28.033,81.175,28.26,80.432,28.476z M62.828,13.789c2.448-0.072,4.835-0.168,7.164-0.288
			c2.328-0.119,4.523-0.299,6.588-0.54c2.063-0.239,3.863-0.527,5.4-0.864c1.536-0.335,2.76-0.731,3.672-1.188
			c0.911-0.456,1.368-0.996,1.368-1.62c0-1.056-0.732-1.752-2.196-2.088c-1.465-0.336-3.636-0.504-6.516-0.504
			c-1.056,0.528-2.712,1.044-4.968,1.548c-2.257,0.504-4.777,0.972-7.56,1.404c-2.785,0.432-5.665,0.827-8.64,1.188
			c-2.977,0.36-5.688,0.684-8.136,0.972c0.288,0.433,0.695,0.781,1.224,1.044c0.528,0.265,1.104,0.48,1.728,0.648
			c0.624,0.169,1.26,0.276,1.908,0.324s1.26,0.071,1.836,0.071C58.004,13.896,60.38,13.861,62.828,13.789z M51.812,20.088
			c-0.336-0.768-0.708-1.584-1.116-2.448c-0.409-0.863-0.805-1.631-1.188-2.304c1.296,0,2.531,0.084,3.708,0.252
			c1.175,0.169,2.255,0.468,3.24,0.9c0.983,0.432,1.824,0.996,2.52,1.691c0.695,0.696,1.188,1.548,1.476,2.557
			c0.288,1.104,0.216,2.148-0.216,3.132c-0.432,0.984-1.201,1.62-2.304,1.908c-1.105,0.287-2.136,0.144-3.096-0.433
			c-0.96-0.576-1.584-1.415-1.872-2.52C52.579,21.865,52.195,20.953,51.812,20.088z M66.536,25.92
			c-0.792-0.72-1.236-1.631-1.332-2.736c-0.097-1.247-0.205-2.603-0.324-4.067c-0.12-1.464-0.444-2.916-0.972-4.356
			c2.543,0.241,4.631,1.044,6.264,2.412c1.631,1.368,2.567,3.132,2.808,5.292c0.096,1.104-0.192,2.088-0.864,2.952
			c-0.673,0.864-1.584,1.345-2.736,1.439C68.275,26.954,67.328,26.64,66.536,25.92z M79.532,16.344
			c-0.241,1.008-0.565,2.113-0.972,3.313c-0.408,1.2-0.9,2.447-1.476,3.744c-0.576,1.296-1.224,2.544-1.944,3.743
			c1.296,0,2.664-0.312,4.104-0.936c1.44-0.623,2.772-1.428,3.996-2.412c1.224-0.983,2.243-2.04,3.06-3.168
			c0.815-1.127,1.224-2.196,1.224-3.204c0-1.343-0.732-2.279-2.196-2.808c-1.465-0.528-3.276-0.792-5.436-0.792
			C79.892,14.498,79.772,15.336,79.532,16.344z"/>
		<path class="st0" d="M103.508,14.401c0.527,0.144,1.427,0.264,2.7,0.359c1.271,0.097,2.436,0.145,3.492,0.145h19.656
			c-0.768-0.864-1.152-1.896-1.152-3.097c-0.048-0.959-0.121-1.872-0.216-2.735c-0.097-0.721-0.205-1.451-0.324-2.196
			c-0.12-0.743-0.277-1.355-0.468-1.836c1.872,0,3.467,0.169,4.788,0.504c1.32,0.336,2.376,0.816,3.168,1.44
			c0.792,0.624,1.368,1.344,1.728,2.159c0.36,0.817,0.54,1.681,0.54,2.593c0,0.336-0.048,0.696-0.144,1.08
			c-0.097,0.336-0.205,0.684-0.324,1.044c-0.121,0.359-0.3,0.708-0.54,1.044h12.384c1.536,0,2.88-0.108,4.032-0.324
			s1.847-0.443,2.088-0.685c0.768,0,1.523,0.085,2.268,0.253c0.744,0.168,1.404,0.396,1.98,0.684s1.044,0.624,1.404,1.008
			c0.36,0.385,0.54,0.769,0.54,1.152c0,0.528-0.144,0.912-0.432,1.151c-0.288,0.241-0.84,0.36-1.656,0.36
			c-0.385,0-0.792-0.023-1.224-0.072c-0.432-0.047-1.02-0.107-1.764-0.18c-0.745-0.072-1.692-0.132-2.844-0.18
			c-1.152-0.048-2.617-0.072-4.392-0.072H115.82c-1.537,0-2.833,0.024-3.888,0.072c-1.057,0.048-1.957,0.107-2.7,0.18
			c-0.745,0.072-1.356,0.133-1.836,0.18c-0.48,0.049-0.912,0.072-1.296,0.072c-1.056,0-1.753-0.36-2.088-1.08
			C103.675,16.705,103.508,15.697,103.508,14.401z M150.308,32.184c0.528,0,1.091,0.062,1.692,0.181c0.6,0.12,1.152,0.3,1.656,0.54
			s0.923,0.516,1.26,0.828c0.335,0.313,0.504,0.66,0.504,1.044c0,0.528-0.144,0.925-0.432,1.188
			c-0.288,0.265-0.817,0.396-1.584,0.396h-42.696c-1.393,0-2.088-1.199-2.088-3.601c0.288,0.097,0.671,0.169,1.152,0.216
			c0.479,0.049,1.008,0.097,1.584,0.145c0.576,0.048,1.164,0.084,1.764,0.107c0.6,0.025,1.163,0.036,1.692,0.036h31.392
			c1.008,0,1.883-0.107,2.628-0.323C149.575,32.724,150.067,32.472,150.308,32.184z M150.308,23.113c0.528,0,1.091,0.061,1.692,0.18
			c0.6,0.12,1.152,0.301,1.656,0.54c0.504,0.24,0.923,0.517,1.26,0.828c0.335,0.313,0.504,0.66,0.504,1.044
			c0,0.528-0.144,0.925-0.432,1.188c-0.288,0.265-0.817,0.396-1.584,0.396h-42.192c-0.768,0-1.296-0.288-1.584-0.864
			c-0.288-0.576-0.432-1.487-0.432-2.736c0.239,0.098,0.6,0.169,1.08,0.217c0.479,0.048,1.008,0.097,1.584,0.144
			c0.576,0.049,1.164,0.085,1.764,0.108c0.6,0.024,1.164,0.036,1.692,0.036h30.888c1.008,0,1.883-0.108,2.628-0.324
			C149.575,23.653,150.067,23.401,150.308,23.113z M115.172,65.737c-1.632,0-2.892-0.504-3.78-1.513
			c-0.889-1.008-1.452-2.016-1.692-3.023c0.24-0.24,0.443-0.731,0.612-1.477c0.167-0.743,0.252-1.62,0.252-2.628v-9.792
			c0-1.008-0.061-1.943-0.18-2.808c-0.121-0.864-0.349-1.632-0.684-2.304c0.671-0.384,1.44-0.66,2.304-0.828
			c0.864-0.168,1.752-0.252,2.664-0.252c0.624,0,1.284,0.133,1.98,0.396c0.695,0.265,1.235,0.66,1.62,1.188h21.456
			c1.536,0,2.916-0.132,4.14-0.396c1.224-0.263,2.243-0.659,3.06-1.188c0.767,0,1.595,0.071,2.484,0.216
			c0.888,0.144,1.703,0.396,2.448,0.756c0.744,0.36,1.356,0.841,1.836,1.44c0.479,0.601,0.72,1.356,0.72,2.268
			c0,0.528-0.084,1.285-0.252,2.268c-0.169,0.984-0.252,2.101-0.252,3.349v10.224c0,1.056-0.3,2.004-0.9,2.844
			c-0.601,0.84-1.501,1.261-2.7,1.261c-1.296,0-2.34-0.313-3.132-0.937c-0.792-0.624-1.404-1.344-1.836-2.16h-27.072
			C118.027,64.704,116.995,65.737,115.172,65.737z M145.916,45.793h-27.288c-0.097,0.528-0.168,1.152-0.216,1.872
			c-0.048,0.72-0.072,1.632-0.072,2.736v9.287h27.072c0.144-0.527,0.263-1.091,0.36-1.691c0.096-0.6,0.144-1.235,0.144-1.908V45.793
			z"/>
		<path class="st0" d="M209.852,26.136c-1.104,1.393-2.28,2.557-3.528,3.492c-1.249,0.936-2.736,1.476-4.464,1.62v28.296
			c0,1.2-0.324,2.171-0.972,2.916c-0.648,0.743-1.524,1.116-2.628,1.116c-1.057,0-1.92-0.313-2.592-0.937
			c-0.673-0.624-1.2-1.344-1.584-2.16h-8.712v0.576c0,1.248-0.288,2.256-0.864,3.024c-0.576,0.768-1.417,1.152-2.52,1.152
			c-0.72,0-1.345-0.145-1.872-0.433c-0.529-0.288-0.984-0.66-1.368-1.116c-0.385-0.456-0.696-0.948-0.936-1.476
			c-0.241-0.528-0.432-1.031-0.576-1.512c0.239-0.24,0.456-0.731,0.648-1.477c0.191-0.743,0.288-1.62,0.288-2.628V23.113
			c0-1.009-0.061-1.944-0.18-2.809c-0.121-0.863-0.373-1.631-0.756-2.304c0.767-0.288,1.512-0.527,2.232-0.72
			c0.72-0.191,1.559-0.288,2.52-0.288c1.055,0,1.967,0.264,2.736,0.792c0.191-0.815,0.371-1.752,0.54-2.809
			c0.167-1.055,0.299-2.124,0.396-3.204c0.096-1.079,0.167-2.111,0.216-3.096c0.047-0.983,0.072-1.812,0.072-2.483
			c1.728,0,3.143,0.061,4.248,0.18c1.104,0.12,1.991,0.288,2.664,0.504c0.672,0.216,1.14,0.48,1.404,0.792
			c0.263,0.313,0.396,0.66,0.396,1.044c0,0.576-0.108,1.249-0.324,2.016c-0.216,0.769-0.504,1.561-0.864,2.376
			c-0.36,0.817-0.792,1.646-1.296,2.484c-0.504,0.841-1.021,1.597-1.548,2.268c2.16-0.239,3.816-0.743,4.968-1.512
			c0.767,0,1.559,0.072,2.376,0.216c0.815,0.145,1.548,0.396,2.196,0.757c0.648,0.359,1.188,0.84,1.62,1.439
			c0.432,0.601,0.648,1.356,0.648,2.269c0,0.528-0.097,1.284-0.288,2.268c-0.192,0.984-0.288,2.101-0.288,3.348v3.024
			c0.96-1.632,1.908-3.601,2.844-5.904s1.788-4.583,2.556-6.84c0.767-2.256,1.379-4.32,1.836-6.192
			c0.456-1.872,0.684-3.239,0.684-4.104h3.672c1.44,0,2.484,0.252,3.132,0.756s0.972,1.26,0.972,2.269
			c0,0.863-0.241,1.979-0.72,3.348c-0.48,1.368-1.056,2.797-1.728,4.284h2.592c1.536,0,2.916-0.119,4.14-0.36
			c1.224-0.239,2.243-0.623,3.06-1.152c0.768,0,1.548,0.072,2.34,0.217c0.792,0.144,1.512,0.396,2.16,0.756
			c0.648,0.359,1.176,0.828,1.584,1.403c0.407,0.576,0.612,1.321,0.612,2.232c0,0.528-0.084,1.285-0.252,2.268
			c-0.169,0.984-0.252,2.101-0.252,3.349L230.588,57.6c0,1.009-0.156,1.969-0.468,2.88c-0.313,0.912-0.792,1.729-1.44,2.448
			c-0.648,0.721-1.453,1.284-2.412,1.692c-0.961,0.407-2.113,0.612-3.456,0.612c-0.864-0.337-1.789-0.781-2.772-1.332
			c-0.984-0.553-1.969-1.165-2.952-1.837c-0.984-0.672-1.884-1.392-2.7-2.159c-0.817-0.768-1.465-1.536-1.944-2.305
			c1.44,0.337,2.855,0.589,4.248,0.756c1.392,0.169,2.567,0.253,3.528,0.253c1.008,0,1.775-0.24,2.304-0.721
			c0.528-0.479,0.792-1.104,0.792-1.872l0.504-35.64h-10.296c-0.624,1.104-1.249,2.16-1.872,3.168
			C211.028,24.552,210.428,25.417,209.852,26.136z M185.372,36.936h9.216V21.025h-8.784c-0.097,0.528-0.192,1.2-0.288,2.016
			c-0.097,0.816-0.144,1.872-0.144,3.168V36.936z M194.156,57.384c0.096-0.527,0.191-1.08,0.288-1.656
			c0.095-0.575,0.144-1.175,0.144-1.8V39.96h-9.216v17.424H194.156z M210.284,41.976c-0.241-1.392-0.504-2.735-0.792-4.031
			c-0.241-1.104-0.552-2.292-0.936-3.564c-0.385-1.271-0.84-2.436-1.368-3.492c1.152,0.145,2.328,0.504,3.528,1.08
			c1.199,0.576,2.304,1.309,3.312,2.196c1.008,0.889,1.859,1.92,2.556,3.096c0.695,1.177,1.164,2.412,1.404,3.708
			c0.335,1.681,0.299,3.085-0.108,4.212c-0.408,1.129-1.164,1.813-2.268,2.053c-1.249,0.24-2.376-0.155-3.384-1.188
			C211.22,45.013,210.572,43.657,210.284,41.976z"/>
		<path class="st0" d="M260.036,19.512c2.16,0,3.708,0.192,4.644,0.576c0.936,0.385,1.404,1.224,1.404,2.521
			c0,0.816-0.156,1.668-0.468,2.556c-0.313,0.889-0.745,1.764-1.296,2.628c-0.553,0.864-1.165,1.681-1.836,2.448
			c-0.672,0.769-1.368,1.439-2.088,2.016c0.768-0.096,1.392-0.228,1.872-0.396c0.479-0.168,0.839-0.372,1.08-0.612
			c0.527,0,1.091,0.061,1.692,0.18c0.6,0.12,1.163,0.301,1.692,0.54c0.528,0.241,0.96,0.517,1.296,0.828
			c0.335,0.313,0.504,0.66,0.504,1.044c0,1.008-0.696,1.512-2.088,1.512H260.9v9.072c0.479-0.096,0.888-0.216,1.224-0.36
			c0.335-0.144,0.576-0.287,0.72-0.432c0.527,0,1.091,0.061,1.692,0.18c0.6,0.121,1.152,0.288,1.656,0.505
			c0.504,0.216,0.924,0.479,1.26,0.792c0.335,0.313,0.504,0.66,0.504,1.044c0,0.528-0.144,0.925-0.432,1.188
			c-0.288,0.265-0.816,0.396-1.584,0.396h-5.04v0.575c0,1.537-0.168,3.313-0.504,5.328c-0.336,2.017-0.984,3.924-1.944,5.725
			c-0.961,1.8-2.304,3.312-4.032,4.536c-1.728,1.224-3.96,1.836-6.696,1.836c1.296-1.152,2.34-2.509,3.132-4.068
			s1.416-3.155,1.872-4.788c0.456-1.631,0.767-3.204,0.936-4.716c0.167-1.512,0.252-2.796,0.252-3.853v-0.575h-5.184
			c-0.768,0-1.296-0.276-1.584-0.828s-0.432-1.477-0.432-2.772c0.239,0.097,0.6,0.169,1.08,0.216
			c0.479,0.049,1.008,0.097,1.584,0.145c0.576,0.048,1.164,0.084,1.764,0.107c0.6,0.025,1.163,0.036,1.692,0.036h1.08v-9.288h-5.688
			c-0.768,0-1.296-0.275-1.584-0.827s-0.432-1.477-0.432-2.772c0.24,0.097,0.6,0.18,1.08,0.252c0.479,0.072,1.008,0.133,1.584,0.18
			c0.576,0.049,1.164,0.085,1.764,0.108c0.6,0.024,1.163,0.036,1.692,0.036h5.04c0.672-1.775,1.284-3.731,1.836-5.868
			C259.759,24.325,260.036,22.009,260.036,19.512z M253.124,13.104c0-0.959-0.072-1.932-0.216-2.916
			c-0.144-0.982-0.409-1.907-0.792-2.771c2.639,0,4.691,0.48,6.156,1.439c1.464,0.961,2.196,2.377,2.196,4.248
			c0,0.625-0.072,1.177-0.216,1.656c1.343-0.239,2.208-0.551,2.592-0.936c0.527,0,1.091,0.061,1.692,0.18
			c0.6,0.12,1.152,0.288,1.656,0.504c0.504,0.216,0.924,0.493,1.26,0.828c0.335,0.336,0.504,0.696,0.504,1.08
			c0,0.528-0.144,0.912-0.432,1.152c-0.288,0.24-0.816,0.359-1.584,0.359h-17.208c-0.768,0-1.296-0.275-1.584-0.828
			c-0.288-0.551-0.432-1.476-0.432-2.771c0.239,0.097,0.6,0.169,1.08,0.216c0.479,0.049,1.008,0.097,1.584,0.144
			c0.576,0.049,1.164,0.085,1.764,0.108c0.6,0.024,1.163,0.036,1.692,0.036h0.576C253.219,14.401,253.124,13.825,253.124,13.104z
			 M248.588,19.873c0.432,0.961,0.78,2.005,1.044,3.132c0.263,1.129,0.396,2.532,0.396,4.212c0,1.296,0.275,2.329,0.828,3.096
			c0.551,0.769,1.284,1.152,2.196,1.152c1.104,0,1.847-0.384,2.232-1.152c0.384-0.767,0.576-1.8,0.576-3.096
			c0-1.199-0.252-2.256-0.756-3.168c-0.504-0.911-1.128-1.68-1.872-2.304c-0.745-0.623-1.537-1.092-2.376-1.404
			C250.015,20.029,249.259,19.873,248.588,19.873z M269.324,38.737c-0.288,1.681-0.349,3.168-0.18,4.464
			c0.167,1.296,0.731,2.04,1.692,2.231c0.96,0.192,1.728,0.013,2.304-0.54c0.576-0.551,0.983-1.211,1.224-1.979
			c0.288-0.864,0.456-1.872,0.504-3.024c0.191-1.008,0.275-2.207,0.252-3.6c-0.025-1.392-0.133-2.855-0.324-4.393
			c-0.192-1.535-0.444-3.071-0.756-4.607c-0.313-1.536-0.673-2.964-1.08-4.284c-0.408-1.319-0.864-2.459-1.368-3.42
			c-0.504-0.96-0.997-1.631-1.476-2.016c0.191,1.824,0.263,3.948,0.216,6.372c-0.048,2.424-0.144,4.74-0.288,6.947
			C269.851,33.48,269.612,36.097,269.324,38.737z M277.316,14.184c0-2.159-0.336-3.888-1.008-5.184
			c0.815-0.384,1.523-0.648,2.124-0.792c0.6-0.145,1.404-0.216,2.412-0.216c1.055,0,1.788,0.252,2.196,0.756
			c0.407,0.504,0.612,1.284,0.612,2.34c0,0.769-0.084,1.597-0.252,2.484c-0.168,0.889-0.252,2.1-0.252,3.636v25.488
			c0,3.023-0.205,5.929-0.612,8.712c-0.408,2.784-1.08,5.232-2.016,7.344c-0.936,2.112-2.16,3.804-3.672,5.076
			c-1.512,1.271-3.396,1.908-5.652,1.908c0.911-1.105,1.739-2.305,2.484-3.601c0.744-1.296,1.379-2.831,1.908-4.607
			c0.528-1.775,0.947-3.863,1.26-6.265c0.312-2.399,0.468-5.256,0.468-8.567V14.184z M298.052,19.512
			c2.16,0,3.708,0.192,4.644,0.576c0.936,0.385,1.404,1.224,1.404,2.521c0,0.863-0.18,1.788-0.54,2.771
			c-0.36,0.984-0.84,1.933-1.44,2.844c-0.601,0.913-1.285,1.765-2.052,2.557c-0.768,0.792-1.537,1.452-2.304,1.979
			c1.919-0.096,3.168-0.432,3.744-1.008c0.527,0,1.091,0.061,1.692,0.18c0.6,0.121,1.152,0.288,1.656,0.504
			c0.504,0.217,0.924,0.48,1.26,0.792c0.335,0.313,0.504,0.661,0.504,1.044c0,0.529-0.144,0.925-0.432,1.188
			c-0.288,0.265-0.816,0.396-1.584,0.396h-6.048v8.713c1.248-0.24,2.063-0.552,2.448-0.937c0.479,0,1.02,0.061,1.62,0.18
			c0.6,0.121,1.164,0.288,1.692,0.505c0.528,0.216,0.96,0.479,1.296,0.792c0.335,0.313,0.504,0.66,0.504,1.044
			c0,0.528-0.144,0.925-0.432,1.188c-0.288,0.265-0.817,0.396-1.584,0.396h-5.544v14.399c0,1.536-0.432,2.521-1.296,2.952
			c-0.864,0.432-2.064,0.648-3.6,0.648c-0.817,0-1.368-0.145-1.656-0.433c-0.288-0.288-0.432-0.816-0.432-1.584V47.737h-4.68
			c-0.769,0-1.296-0.276-1.584-0.828s-0.432-1.477-0.432-2.772c0.528,0.145,1.392,0.265,2.592,0.36
			c1.199,0.097,2.304,0.144,3.312,0.144h0.792v-8.784h-5.184c-0.769,0-1.309-0.275-1.62-0.827c-0.313-0.552-0.468-1.477-0.468-2.772
			c0.288,0.097,0.671,0.169,1.152,0.216c0.479,0.049,1.008,0.097,1.584,0.145s1.163,0.084,1.764,0.107
			c0.6,0.025,1.163,0.036,1.692,0.036h4.68c0.72-1.823,1.379-3.84,1.98-6.048C297.752,24.505,298.052,22.104,298.052,19.512z
			 M290.996,13.104c0-0.959-0.072-1.932-0.216-2.916c-0.144-0.982-0.409-1.907-0.792-2.771c2.639,0,4.691,0.48,6.156,1.439
			c1.464,0.961,2.196,2.377,2.196,4.248c0,0.673-0.072,1.249-0.216,1.729c1.44-0.145,2.4-0.456,2.88-0.937
			c0.479,0,1.02,0.062,1.62,0.181c0.6,0.12,1.164,0.288,1.692,0.504c0.528,0.216,0.96,0.492,1.296,0.828
			c0.335,0.336,0.504,0.696,0.504,1.08c0,0.528-0.144,0.912-0.432,1.151c-0.288,0.241-0.817,0.36-1.584,0.36h-17.208
			c-0.769,0-1.296-0.275-1.584-0.828c-0.288-0.551-0.432-1.476-0.432-2.771c0.24,0.097,0.6,0.168,1.08,0.216
			c0.479,0.048,1.008,0.097,1.584,0.144c0.576,0.049,1.163,0.085,1.764,0.108c0.6,0.024,1.163,0.036,1.692,0.036h0.36
			C291.115,14.329,290.996,13.729,290.996,13.104z M286.676,19.873c0.432,0.961,0.779,2.005,1.044,3.132
			c0.263,1.129,0.396,2.532,0.396,4.212c0,1.296,0.275,2.329,0.828,3.096c0.551,0.769,1.283,1.152,2.196,1.152
			c1.104,0,1.847-0.384,2.232-1.152c0.384-0.767,0.576-1.8,0.576-3.096c0-1.199-0.252-2.256-0.756-3.168
			c-0.504-0.911-1.128-1.68-1.872-2.304c-0.745-0.623-1.537-1.092-2.376-1.404C288.103,20.029,287.347,19.873,286.676,19.873z"/>
		<path class="st0" d="M343.124,8.424c0.767,0,1.56,0.072,2.376,0.216c0.816,0.145,1.572,0.396,2.268,0.756
			c0.695,0.36,1.26,0.841,1.692,1.44c0.432,0.601,0.648,1.332,0.648,2.196c0,0.528-0.084,1.296-0.252,2.304
			c-0.168,1.008-0.252,2.137-0.252,3.384v7.344c0,1.057-0.288,2.005-0.864,2.845c-0.576,0.84-1.465,1.26-2.664,1.26
			c-1.008,0-1.825-0.204-2.448-0.612c-0.624-0.407-1.128-0.899-1.512-1.476h-4.104l-0.576,6.84c3.12,0,5.472-0.504,7.056-1.512
			c0.767,0,1.559,0.071,2.376,0.216c0.815,0.144,1.548,0.396,2.196,0.756s1.176,0.828,1.584,1.404
			c0.407,0.576,0.612,1.32,0.612,2.231c0,0.529-0.072,1.368-0.216,2.521c-0.144,1.151-0.241,2.376-0.288,3.672l-0.504,14.4
			c-0.048,0.863-0.216,1.728-0.504,2.592c-0.288,0.863-0.684,1.631-1.188,2.304c-0.504,0.672-1.116,1.212-1.836,1.62
			c-0.72,0.407-1.537,0.612-2.448,0.612c-0.864-0.337-1.752-0.817-2.664-1.44c-0.913-0.624-1.813-1.332-2.7-2.124
			c-0.889-0.792-1.717-1.631-2.484-2.52c-0.769-0.888-1.417-1.739-1.944-2.557c1.056,0.192,2.063,0.324,3.024,0.396
			c0.959,0.071,1.847,0.107,2.664,0.107c1.008,0,1.716-0.18,2.124-0.54c0.407-0.359,0.612-1.044,0.612-2.052l0.504-16.992h-6.192
			l-0.072,1.08c-0.385,4.273-1.141,8.064-2.268,11.376c-1.128,3.313-2.544,6.109-4.248,8.389c-1.705,2.28-3.697,4.02-5.976,5.22
			c-2.281,1.199-4.765,1.8-7.452,1.8c1.199-1.008,2.484-2.376,3.852-4.104c1.368-1.729,2.664-3.744,3.888-6.049
			c1.224-2.304,2.292-4.859,3.204-7.668c0.912-2.808,1.512-5.796,1.8-8.964l0.072-1.08h-8.712c-0.817,0-1.368-0.275-1.656-0.828
			c-0.288-0.551-0.432-1.476-0.432-2.771c0.527,0.144,1.428,0.265,2.7,0.36c1.271,0.097,2.436,0.144,3.492,0.144h4.896l0.576-6.84
			h-1.44c-0.48,1.393-1.512,2.088-3.096,2.088c-0.913,0-1.681-0.144-2.304-0.432c-0.624-0.288-1.141-0.659-1.548-1.116
			c-0.408-0.456-0.732-0.947-0.972-1.477c-0.241-0.527-0.432-1.055-0.576-1.584c0.239-0.288,0.468-0.792,0.684-1.512
			c0.216-0.72,0.324-1.607,0.324-2.664v-6.768c0-1.056-0.072-2.017-0.216-2.88c-0.144-0.864-0.409-1.632-0.792-2.305
			c1.728-0.671,3.6-1.008,5.616-1.008c1.536,0,2.639,0.529,3.312,1.584h6.048C339.044,10.008,341.443,9.481,343.124,8.424z
			 M329.732,24.985h11.52c0.24-0.576,0.432-1.261,0.576-2.053s0.216-1.644,0.216-2.556v-7.344H330.02
			c-0.097,0.528-0.168,1.164-0.216,1.908c-0.048,0.744-0.072,1.668-0.072,2.771V24.985z M362.06,50.905
			c0.528-0.721,0.792-1.729,0.792-3.024V22.176c0-1.823,0.083-3.179,0.252-4.067c0.168-0.888,0.252-1.596,0.252-2.124
			c0-1.009-0.349-1.765-1.044-2.269c-0.696-0.504-1.573-0.756-2.628-0.756c-2.016,0-3.72,0.313-5.112,0.936
			c0.671,1.297,1.008,3.001,1.008,5.112v23.185c0,1.008-0.108,2.052-0.324,3.132c-0.216,1.08-0.445,1.74-0.684,1.979
			c0.144,0.529,0.324,1.069,0.54,1.62c0.216,0.553,0.527,1.057,0.936,1.512c0.407,0.457,0.887,0.828,1.44,1.116
			c0.551,0.288,1.211,0.433,1.98,0.433C360.667,51.985,361.531,51.625,362.06,50.905z M371.96,65.197
			c0.792-0.36,1.487-0.864,2.088-1.513c0.6-0.647,1.067-1.403,1.404-2.268c0.335-0.864,0.504-1.8,0.504-2.808V15.913
			c0-1.824,0.083-3.168,0.252-4.032c0.167-0.864,0.252-1.56,0.252-2.088c0-1.056-0.396-1.836-1.188-2.34s-1.692-0.756-2.7-0.756
			c-1.057,0-2.041,0.097-2.952,0.288c-0.913,0.192-1.705,0.432-2.376,0.72c0.384,0.673,0.648,1.439,0.792,2.304
			s0.216,1.825,0.216,2.88v42.12c0,1.008-0.216,1.692-0.648,2.052c-0.432,0.36-1.033,0.54-1.8,0.54c-1.057,0-2.16-0.071-3.312-0.216
			c-1.152-0.144-2.28-0.407-3.384-0.792c0.528,0.912,1.188,1.849,1.98,2.809s1.656,1.871,2.592,2.735s1.896,1.62,2.88,2.269
			c0.983,0.647,1.932,1.091,2.844,1.332C370.315,65.737,371.168,65.556,371.96,65.197z"/>
	</g>
</g>
</svg>