<!-- Generator: Adobe Illustrator 24.0.1, SVG Export Plug-In  -->
<svg version="1.1" xmlns="http://www.w3.org/2000/svg" xmlns:xlink="http://www.w3.org/1999/xlink" x="0px" y="0px"
	 width="408.616px" height="93.11px" viewBox="0 0 408.616 93.11" style="enable-background:new 0 0 408.616 93.11;"
	 xml:space="preserve">
<style type="text/css">
	.st0{fill:#BF2222;}
	.st1{fill:none;}
	.st2{font-family:'HYQiuShi-W';}
	.st3{font-size:72px;}
</style>
<defs>
</defs>
<g>
	<g>
		<path class="st0" d="M31.723,26.101c1.008,0.072,1.968,0.108,2.88,0.108c0.96,0,1.824-0.18,2.593-0.54
			c0.767-0.36,1.271-0.684,1.512-0.972c1.823,0,3.323,0.313,4.5,0.936c1.176,0.624,1.764,1.848,1.764,3.672
			c0,0.529-0.084,1.285-0.252,2.268c-0.169,0.984-0.252,2.124-0.252,3.42v18.936c1.104-0.672,2.171-1.368,3.204-2.088
			c1.031-0.72,2.027-1.44,2.988-2.16c0,1.056-0.145,2.064-0.433,3.024c-0.288,0.961-0.673,1.849-1.151,2.664
			c-0.433,0.72-0.984,1.561-1.656,2.52c-0.673,0.961-1.416,1.848-2.232,2.664c-0.816,0.815-1.655,1.512-2.52,2.088
			s-1.681,0.864-2.448,0.864c-0.528,0-1.057-0.097-1.584-0.288c-0.528-0.192-1.021-0.48-1.476-0.864
			c-0.457-0.385-0.828-0.9-1.116-1.548s-0.432-1.428-0.432-2.34c0.432-0.24,0.803-0.551,1.115-0.936
			c0.312-0.384,0.469-0.936,0.469-1.656V29.377c-1.152,0.049-2.137,0.133-2.952,0.252c-0.817,0.12-1.561,0.18-2.232,0.18
			c-1.008,0-1.691-0.36-2.052-1.08c-0.36-0.72-0.54-1.728-0.54-3.024C29.947,25.897,30.716,26.029,31.723,26.101z M37.267,13.465
			c-0.385-1.008-0.828-2.076-1.332-3.204c-0.504-1.127-1.068-2.147-1.691-3.06c3.071,0,5.699,0.637,7.884,1.908
			c2.184,1.272,3.611,3.204,4.284,5.796c0.335,1.249,0.227,2.412-0.324,3.492c-0.553,1.08-1.381,1.764-2.484,2.052
			c-1.104,0.288-2.148,0.108-3.132-0.54c-0.984-0.648-1.668-1.595-2.052-2.844C38.083,15.865,37.7,14.665,37.267,13.465z
			 M80.431,28.477c-0.744,0.216-1.62,0.324-2.628,0.324H60.811c-0.192-0.576-0.601-1.032-1.224-1.368
			c-0.624-0.335-1.561-0.504-2.808-0.504h-3.456c0,0.529-0.121,1.224-0.36,2.088c-0.241,0.864-0.589,1.836-1.044,2.916
			c-0.457,1.08-0.997,2.208-1.62,3.384c-0.624,1.177-1.32,2.292-2.088,3.348c1.823,0,3.323-0.216,4.5-0.648
			c1.176-0.432,2.292-0.983,3.348-1.656c0.815-0.576,1.572-1.26,2.269-2.052c0.695-0.792,1.26-1.595,1.691-2.412h5.688v8.352H54.332
			c-0.529,0-1.093-0.011-1.692-0.036c-0.601-0.024-1.188-0.06-1.764-0.108c-0.576-0.047-1.104-0.095-1.584-0.144
			c-0.48-0.047-0.864-0.119-1.152-0.216c0,2.401,0.695,3.6,2.088,3.6h15.48v16.704h-6.912v-5.688c0-1.824,0.083-3.179,0.252-4.068
			c0.168-0.887,0.252-1.595,0.252-2.124c0-1.008-0.408-1.775-1.224-2.304c-0.817-0.528-1.729-0.792-2.736-0.792
			c-1.057,0-1.908,0.108-2.556,0.324c-0.648,0.216-1.357,0.468-2.124,0.756c0.384,0.672,0.659,1.429,0.828,2.268
			c0.167,0.84,0.252,1.789,0.252,2.844v4.104c0,1.057-0.121,1.969-0.36,2.736c-0.241,0.769-0.48,1.417-0.72,1.944
			c0.144,0.768,0.443,1.427,0.899,1.98c0.456,0.551,1.02,1.019,1.692,1.404c0.672,0.384,1.428,0.672,2.268,0.864
			c0.84,0.191,1.692,0.288,2.557,0.288c0.815-0.528,1.751-0.912,2.808-1.152c1.056-0.241,2.352-0.36,3.888-0.36H80.18
			c0.384,0.527,0.888,0.972,1.512,1.332s1.392,0.54,2.305,0.54c1.151,0,1.968-0.36,2.448-1.08c0.479-0.72,0.72-1.705,0.72-2.952
			v-6.48c0-1.824,0.096-3.179,0.288-4.068c0.191-0.888,0.288-1.595,0.288-2.124c0-1.008-0.288-1.775-0.864-2.304
			c-0.576-0.527-1.512-0.792-2.809-0.792c-0.96,0-1.836,0.108-2.628,0.324c-0.792,0.216-1.572,0.468-2.34,0.756
			c0.672,1.296,1.008,3,1.008,5.112v5.4c0,1.44-0.192,2.544-0.575,3.312h-6.696V43.345H89.18c0.768,0,1.296-0.132,1.584-0.396
			c0.288-0.263,0.433-0.659,0.433-1.188c0-0.384-0.169-0.731-0.505-1.044c-0.336-0.312-0.756-0.576-1.26-0.792
			c-0.504-0.216-1.057-0.384-1.656-0.504c-0.601-0.12-1.164-0.18-1.691-0.18c-0.241,0.241-0.732,0.468-1.477,0.684
			c-0.744,0.216-1.619,0.324-2.628,0.324h-9.144v-8.352h12.168c0.768,0,1.296-0.119,1.584-0.36c0.288-0.24,0.432-0.623,0.432-1.152
			c0-0.384-0.168-0.744-0.504-1.08c-0.336-0.335-0.756-0.612-1.26-0.828c-0.504-0.216-1.057-0.383-1.656-0.504
			c-0.601-0.119-1.164-0.18-1.691-0.18C81.667,28.033,81.176,28.261,80.431,28.477z M62.828,13.789
			c2.447-0.072,4.835-0.167,7.164-0.288c2.327-0.119,4.523-0.299,6.588-0.54c2.063-0.239,3.863-0.527,5.399-0.864
			c1.536-0.335,2.76-0.731,3.673-1.188c0.911-0.456,1.367-0.996,1.367-1.62c0-1.055-0.732-1.751-2.195-2.088
			c-1.465-0.335-3.637-0.504-6.517-0.504c-1.056,0.529-2.712,1.044-4.968,1.548c-2.257,0.504-4.776,0.972-7.56,1.404
			c-2.785,0.432-5.665,0.828-8.641,1.188c-2.977,0.36-5.688,0.684-8.136,0.972c0.288,0.432,0.695,0.781,1.224,1.044
			c0.528,0.265,1.104,0.48,1.729,0.648c0.623,0.169,1.26,0.277,1.908,0.324c0.647,0.048,1.26,0.072,1.836,0.072
			C58.004,13.897,60.38,13.861,62.828,13.789z M51.811,20.089c-0.336-0.768-0.708-1.584-1.115-2.448
			c-0.409-0.864-0.805-1.631-1.188-2.304c1.296,0,2.531,0.084,3.708,0.252c1.176,0.168,2.256,0.468,3.24,0.9
			c0.983,0.432,1.823,0.997,2.52,1.692c0.695,0.696,1.188,1.548,1.477,2.556c0.288,1.104,0.216,2.148-0.216,3.132
			c-0.433,0.984-1.201,1.62-2.305,1.908c-1.104,0.288-2.136,0.144-3.096-0.432c-0.961-0.576-1.584-1.416-1.872-2.52
			C52.579,21.865,52.195,20.953,51.811,20.089z M66.536,25.921c-0.792-0.72-1.236-1.631-1.332-2.736
			c-0.097-1.248-0.205-2.603-0.324-4.068c-0.12-1.464-0.444-2.916-0.972-4.356c2.543,0.241,4.631,1.044,6.264,2.412
			c1.631,1.368,2.567,3.132,2.808,5.292c0.096,1.104-0.192,2.088-0.863,2.952c-0.673,0.864-1.584,1.345-2.736,1.44
			C68.275,26.954,67.328,26.641,66.536,25.921z M79.532,16.345c-0.241,1.008-0.565,2.113-0.973,3.312
			c-0.408,1.2-0.899,2.448-1.476,3.744c-0.576,1.296-1.225,2.544-1.944,3.744c1.296,0,2.664-0.312,4.104-0.936
			c1.439-0.623,2.771-1.427,3.996-2.412c1.224-0.983,2.243-2.04,3.06-3.168c0.815-1.127,1.224-2.196,1.224-3.204
			c0-1.343-0.732-2.279-2.195-2.808c-1.465-0.528-3.276-0.792-5.437-0.792C79.891,14.498,79.771,15.337,79.532,16.345z"/>
		<path class="st0" d="M103.508,14.401c0.527,0.144,1.428,0.264,2.7,0.36c1.271,0.097,2.436,0.144,3.492,0.144h19.655
			c-0.768-0.864-1.151-1.896-1.151-3.096c-0.049-0.959-0.121-1.872-0.216-2.736c-0.098-0.72-0.205-1.451-0.324-2.196
			c-0.12-0.743-0.277-1.355-0.468-1.836c1.871,0,3.467,0.169,4.787,0.504c1.32,0.336,2.376,0.816,3.169,1.44
			c0.792,0.624,1.367,1.344,1.728,2.16c0.36,0.817,0.54,1.681,0.54,2.592c0,0.336-0.049,0.696-0.145,1.08
			c-0.097,0.336-0.204,0.684-0.323,1.044c-0.121,0.36-0.301,0.708-0.54,1.044h12.384c1.535,0,2.88-0.108,4.032-0.324
			c1.151-0.216,1.847-0.443,2.088-0.684c0.768,0,1.523,0.084,2.268,0.252c0.744,0.168,1.404,0.396,1.98,0.684
			c0.576,0.288,1.044,0.625,1.403,1.008c0.36,0.385,0.54,0.768,0.54,1.152c0,0.529-0.144,0.913-0.432,1.152
			c-0.288,0.241-0.84,0.36-1.656,0.36c-0.385,0-0.792-0.024-1.224-0.072c-0.432-0.047-1.021-0.108-1.764-0.18
			c-0.745-0.072-1.692-0.131-2.845-0.18c-1.151-0.047-2.616-0.072-4.392-0.072H115.82c-1.537,0-2.833,0.025-3.889,0.072
			c-1.057,0.048-1.956,0.108-2.7,0.18c-0.744,0.072-1.356,0.133-1.836,0.18c-0.48,0.048-0.912,0.072-1.296,0.072
			c-1.056,0-1.753-0.36-2.088-1.08C103.676,16.705,103.508,15.697,103.508,14.401z M150.307,32.185c0.528,0,1.092,0.061,1.692,0.18
			c0.6,0.12,1.152,0.3,1.656,0.54c0.504,0.241,0.923,0.516,1.26,0.828c0.335,0.313,0.504,0.66,0.504,1.044
			c0,0.529-0.145,0.925-0.432,1.188c-0.288,0.264-0.817,0.396-1.584,0.396h-42.696c-1.393,0-2.088-1.199-2.088-3.6
			c0.288,0.097,0.671,0.168,1.151,0.216c0.479,0.048,1.009,0.097,1.584,0.144c0.576,0.048,1.164,0.084,1.765,0.108
			c0.6,0.025,1.163,0.036,1.691,0.036h31.393c1.008,0,1.883-0.108,2.628-0.324C149.575,32.725,150.067,32.473,150.307,32.185z
			 M150.307,23.113c0.528,0,1.092,0.061,1.692,0.18c0.6,0.121,1.152,0.301,1.656,0.54c0.504,0.241,0.923,0.517,1.26,0.828
			c0.335,0.313,0.504,0.661,0.504,1.044c0,0.529-0.145,0.925-0.432,1.188c-0.288,0.265-0.817,0.396-1.584,0.396h-42.192
			c-0.769,0-1.296-0.288-1.584-0.864c-0.288-0.576-0.432-1.487-0.432-2.736c0.239,0.097,0.6,0.169,1.079,0.216
			c0.479,0.048,1.009,0.097,1.584,0.144c0.576,0.048,1.164,0.084,1.765,0.108c0.6,0.025,1.163,0.036,1.691,0.036h30.889
			c1.008,0,1.883-0.108,2.628-0.324C149.575,23.653,150.067,23.401,150.307,23.113z M115.172,65.737
			c-1.633,0-2.893-0.504-3.78-1.512c-0.889-1.008-1.452-2.016-1.691-3.024c0.239-0.24,0.443-0.731,0.611-1.476
			c0.168-0.744,0.252-1.62,0.252-2.628v-9.792c0-1.008-0.061-1.944-0.18-2.808c-0.12-0.864-0.349-1.631-0.684-2.304
			c0.671-0.384,1.439-0.66,2.304-0.828c0.864-0.167,1.752-0.252,2.664-0.252c0.623,0,1.283,0.133,1.979,0.396
			c0.695,0.264,1.235,0.66,1.62,1.188h21.456c1.536,0,2.916-0.132,4.141-0.396c1.224-0.263,2.243-0.659,3.06-1.188
			c0.768,0,1.596,0.072,2.484,0.216c0.888,0.144,1.703,0.396,2.447,0.756c0.744,0.36,1.356,0.841,1.836,1.44
			c0.479,0.601,0.721,1.356,0.721,2.268c0,0.529-0.085,1.285-0.252,2.268c-0.169,0.984-0.252,2.101-0.252,3.348v10.224
			c0,1.055-0.301,2.003-0.9,2.844c-0.601,0.839-1.501,1.26-2.7,1.26c-1.296,0-2.34-0.313-3.132-0.936
			c-0.792-0.625-1.404-1.344-1.836-2.16h-27.072C118.027,64.704,116.995,65.737,115.172,65.737z M145.916,45.793h-27.288
			c-0.097,0.529-0.169,1.152-0.216,1.872c-0.049,0.72-0.072,1.632-0.072,2.736v9.288h27.072c0.144-0.527,0.263-1.091,0.359-1.692
			c0.096-0.6,0.145-1.235,0.145-1.908V45.793z"/>
		<path class="st0" d="M209.851,26.137c-1.104,1.393-2.28,2.556-3.527,3.492c-1.249,0.936-2.736,1.476-4.465,1.62v28.296
			c0,1.2-0.323,2.171-0.972,2.916c-0.647,0.744-1.524,1.116-2.628,1.116c-1.057,0-1.92-0.313-2.592-0.936
			c-0.673-0.625-1.2-1.344-1.584-2.16h-8.712v0.576c0,1.248-0.288,2.256-0.864,3.024c-0.576,0.768-1.416,1.152-2.52,1.152
			c-0.721,0-1.345-0.144-1.872-0.432c-0.529-0.288-0.984-0.661-1.368-1.116c-0.385-0.457-0.696-0.948-0.937-1.476
			c-0.24-0.528-0.432-1.031-0.575-1.512c0.239-0.24,0.455-0.731,0.647-1.476c0.191-0.744,0.288-1.62,0.288-2.628v-33.48
			c0-1.008-0.061-1.944-0.18-2.808c-0.121-0.864-0.373-1.631-0.756-2.304c0.767-0.288,1.512-0.527,2.231-0.72
			c0.72-0.191,1.56-0.288,2.521-0.288c1.055,0,1.967,0.264,2.735,0.792c0.191-0.815,0.371-1.751,0.54-2.808
			c0.168-1.055,0.3-2.124,0.396-3.204c0.096-1.08,0.167-2.111,0.216-3.096c0.047-0.983,0.072-1.812,0.072-2.484
			c1.728,0,3.143,0.061,4.248,0.18c1.104,0.121,1.991,0.288,2.663,0.504c0.672,0.216,1.14,0.48,1.404,0.792
			c0.264,0.313,0.396,0.661,0.396,1.044c0,0.576-0.108,1.249-0.324,2.016c-0.216,0.769-0.504,1.561-0.864,2.376
			c-0.359,0.817-0.792,1.645-1.296,2.484c-0.504,0.84-1.021,1.596-1.548,2.268c2.16-0.239,3.816-0.743,4.968-1.512
			c0.768,0,1.56,0.072,2.376,0.216c0.815,0.144,1.548,0.396,2.196,0.756c0.647,0.36,1.188,0.84,1.62,1.44
			c0.432,0.601,0.647,1.356,0.647,2.268c0,0.528-0.097,1.285-0.288,2.268c-0.192,0.984-0.288,2.101-0.288,3.348v3.024
			c0.96-1.631,1.908-3.6,2.845-5.904c0.936-2.304,1.787-4.583,2.556-6.84c0.768-2.256,1.379-4.32,1.836-6.192
			c0.456-1.872,0.685-3.24,0.685-4.104h3.672c1.439,0,2.483,0.252,3.132,0.756c0.647,0.504,0.972,1.26,0.972,2.268
			c0,0.864-0.24,1.98-0.72,3.348c-0.48,1.368-1.057,2.797-1.729,4.284h2.593c1.535,0,2.916-0.119,4.14-0.36
			c1.224-0.24,2.243-0.624,3.06-1.152c0.768,0,1.549,0.072,2.341,0.216c0.792,0.144,1.512,0.396,2.159,0.756
			c0.648,0.36,1.176,0.828,1.584,1.404c0.407,0.576,0.612,1.321,0.612,2.232c0,0.529-0.084,1.285-0.252,2.268
			c-0.169,0.984-0.252,2.101-0.252,3.348l-0.504,31.608c0,1.008-0.156,1.969-0.468,2.88c-0.313,0.912-0.792,1.728-1.44,2.448
			c-0.647,0.72-1.452,1.284-2.412,1.692c-0.961,0.407-2.112,0.612-3.456,0.612c-0.863-0.336-1.788-0.781-2.771-1.332
			c-0.984-0.553-1.969-1.165-2.952-1.836c-0.984-0.672-1.885-1.392-2.7-2.16c-0.816-0.768-1.465-1.536-1.943-2.304
			c1.439,0.336,2.854,0.588,4.247,0.756c1.392,0.169,2.567,0.252,3.528,0.252c1.008,0,1.775-0.24,2.304-0.72
			c0.528-0.479,0.792-1.104,0.792-1.872l0.505-35.64h-10.297c-0.624,1.105-1.248,2.16-1.871,3.168
			C211.027,24.553,210.428,25.417,209.851,26.137z M185.372,36.937h9.216V21.025h-8.784c-0.097,0.528-0.192,1.2-0.288,2.016
			c-0.097,0.817-0.144,1.872-0.144,3.168V36.937z M194.156,57.385c0.096-0.528,0.19-1.08,0.288-1.656
			c0.095-0.576,0.144-1.175,0.144-1.8V39.961h-9.216v17.424H194.156z M210.284,41.977c-0.241-1.392-0.504-2.736-0.792-4.032
			c-0.241-1.104-0.553-2.292-0.937-3.564c-0.385-1.271-0.84-2.436-1.368-3.492c1.152,0.144,2.328,0.504,3.528,1.08
			c1.199,0.576,2.304,1.308,3.313,2.196c1.008,0.889,1.859,1.92,2.556,3.096c0.695,1.177,1.163,2.412,1.404,3.708
			c0.335,1.681,0.299,3.084-0.108,4.212c-0.408,1.128-1.164,1.813-2.268,2.052c-1.249,0.241-2.376-0.155-3.385-1.188
			C211.22,45.013,210.572,43.657,210.284,41.977z"/>
		<path class="st0" d="M270.044,40.537c1.008,0,1.944,0.313,2.808,0.936c0.864,0.625,1.296,1.344,1.296,2.16
			c0,0.241-0.156,0.468-0.468,0.684c-0.313,0.216-0.853,0.324-1.62,0.324h-5.328v10.8c3.456,1.104,6.924,1.908,10.404,2.412
			c3.479,0.504,6.732,0.756,9.756,0.756c2.063,0,4.079-0.036,6.048-0.108c1.968-0.072,3.816-0.18,5.544-0.324
			c1.729-0.144,3.3-0.348,4.717-0.612c1.415-0.263,2.556-0.587,3.42-0.972c0,0.912-0.205,1.872-0.612,2.88
			c-0.408,1.008-1.093,1.944-2.052,2.808c-0.961,0.864-2.221,1.572-3.78,2.124c-1.561,0.551-3.492,0.828-5.796,0.828
			c-8.688,0-16.344-0.864-22.968-2.592c-6.624-1.728-12.168-4.464-16.632-8.208c-0.913,3.409-2.257,6.132-4.032,8.172
			c-1.776,2.04-3.889,3.06-6.336,3.06c0.623-1.2,1.235-2.617,1.836-4.248c0.6-1.631,1.14-3.359,1.62-5.184
			c0.479-1.824,0.852-3.732,1.115-5.724c0.264-1.991,0.396-3.948,0.396-5.868v-3.096c0-1.008-0.084-1.944-0.252-2.808
			c-0.169-0.864-0.444-1.631-0.828-2.304c0.768-0.384,1.404-0.648,1.908-0.792s1.283-0.216,2.34-0.216
			c1.008,0,1.836,0.228,2.484,0.684c0.647,0.457,0.972,1.236,0.972,2.34v6.192c0,2.064-0.145,3.985-0.432,5.76
			c0.72,0.432,1.439,0.84,2.159,1.224c0.721,0.385,1.487,0.769,2.305,1.152V31.393h-11.521c-0.769,0-1.296-0.288-1.584-0.864
			c-0.288-0.576-0.432-1.487-0.432-2.736c0.239,0.097,0.6,0.169,1.08,0.216c0.479,0.048,1.008,0.097,1.584,0.144
			c0.576,0.048,1.163,0.084,1.764,0.108c0.6,0.025,1.163,0.036,1.692,0.036h5.184v-9.288h-6.696c-0.768,0-1.308-0.276-1.619-0.828
			c-0.313-0.551-0.469-1.476-0.469-2.772c0.288,0.097,0.672,0.18,1.152,0.252c0.479,0.072,1.008,0.121,1.584,0.144
			c0.576,0.025,1.163,0.048,1.764,0.072c0.6,0.025,1.164,0.036,1.692,0.036h2.592v-3.024c0-2.16-0.336-3.888-1.008-5.184
			c0.815-0.335,1.571-0.587,2.268-0.756c0.695-0.167,1.572-0.252,2.628-0.252c1.009,0,1.848,0.252,2.521,0.756
			c0.672,0.504,1.008,1.285,1.008,2.34c0,0.241-0.024,0.504-0.072,0.792c-0.048,0.288-0.107,0.637-0.18,1.044
			c-0.072,0.408-0.133,0.912-0.18,1.512c-0.049,0.601-0.072,1.357-0.072,2.268v0.504c0.815-0.047,1.523-0.167,2.124-0.36
			c0.6-0.191,1.02-0.407,1.26-0.648c0.479,0,1.02,0.061,1.62,0.18c0.6,0.121,1.163,0.288,1.692,0.504
			c0.527,0.216,0.959,0.493,1.296,0.828c0.335,0.336,0.504,0.697,0.504,1.08c0,0.529-0.145,0.913-0.432,1.152
			c-0.288,0.241-0.817,0.36-1.584,0.36h-6.48v9.288h2.448c1.008,0,1.883-0.108,2.628-0.324c0.743-0.216,1.235-0.443,1.476-0.684
			c0.528,0,1.104,0.072,1.729,0.216c0.623,0.144,1.199,0.336,1.728,0.576c-0.673-0.383-1.008-1.463-1.008-3.24
			c-0.673,0.144-1.404,0.241-2.196,0.288c-0.792,0.048-1.596,0.072-2.412,0.072c0.768-0.576,1.56-1.392,2.376-2.448
			c0.816-1.055,1.596-2.207,2.341-3.456c0.743-1.248,1.463-2.531,2.159-3.852c0.695-1.32,1.297-2.544,1.801-3.672
			c0.504-1.127,0.899-2.099,1.188-2.916c0.288-0.815,0.433-1.368,0.433-1.656h3.6c1.44,0,2.567,0.229,3.384,0.684
			c0.815,0.457,1.225,1.092,1.225,1.908c0,0.625-0.145,1.296-0.433,2.016c1.536,0,2.819-0.036,3.853-0.108
			c1.031-0.072,1.955-0.371,2.771-0.9c2.063,0,3.78,0.277,5.148,0.828c1.368,0.552,2.052,1.476,2.052,2.772
			c0,0.528-0.241,1.224-0.72,2.088c-0.48,0.864-1.129,1.789-1.944,2.772c-0.816,0.984-1.753,1.98-2.808,2.988
			c-1.057,1.008-2.16,1.944-3.313,2.808c0.72-0.096,1.428-0.252,2.124-0.468c0.695-0.216,1.332-0.516,1.908-0.9
			c2.304,0,4.007,0.313,5.112,0.936c1.104,0.625,1.655,1.849,1.655,3.672c0,0.528-0.084,1.368-0.252,2.52
			c-0.169,1.152-0.252,2.376-0.252,3.672v17.424c0,1.296-0.264,2.316-0.792,3.06c-0.528,0.745-1.32,1.116-2.376,1.116
			c-1.632-0.047-2.856-0.576-3.672-1.584h-19.872c-0.769,0-1.309-0.276-1.62-0.828c-0.313-0.551-0.468-1.476-0.468-2.772
			c0.288,0.097,0.672,0.168,1.152,0.216c0.479,0.048,1.008,0.097,1.584,0.144c0.576,0.048,1.163,0.084,1.764,0.108
			c0.6,0.025,1.163,0.036,1.692,0.036h14.472c0.239-0.335,0.443-0.864,0.612-1.584c0.167-0.72,0.252-1.559,0.252-2.52v-6.192
			h-18.937c-0.769,0-1.309-0.276-1.62-0.828c-0.313-0.551-0.468-1.476-0.468-2.772c0.288,0.097,0.672,0.18,1.152,0.252
			c0.479,0.072,1.008,0.133,1.584,0.18c0.576,0.048,1.163,0.084,1.764,0.108c0.6,0.025,1.163,0.036,1.692,0.036h14.832v-9.792
			h-19.44c-0.385,0-0.647-0.024-0.792-0.072c0.911,0.48,1.368,1.008,1.368,1.584c0,0.529-0.144,0.925-0.432,1.188
			c-0.288,0.265-0.817,0.396-1.584,0.396h-7.633v10.152h0.217c0.767,0,1.415-0.108,1.943-0.324S269.803,40.778,270.044,40.537z
			 M291.716,14.905h-5.976c-0.769,1.344-1.646,2.628-2.628,3.852c-0.984,1.224-1.885,2.172-2.7,2.844
			c-1.872,1.632-4.032,2.689-6.48,3.168c0.623,0.144,1.536,0.252,2.736,0.324c1.199,0.072,2.279,0.108,3.24,0.108h5.399
			c1.536-1.824,2.868-3.647,3.996-5.472C290.431,17.905,291.235,16.298,291.716,14.905z"/>
		<path class="st0" d="M363.643,46.657H348.38c-0.385,2.401-1.177,4.705-2.376,6.912c-1.2,2.208-2.965,4.165-5.292,5.868
			c-2.329,1.705-5.256,3.06-8.784,4.068c-3.528,1.008-7.765,1.463-12.708,1.368c2.256-0.96,4.464-2.028,6.624-3.204
			c2.16-1.175,4.151-2.495,5.977-3.96c1.823-1.463,3.407-3.107,4.752-4.932c1.343-1.824,2.304-3.863,2.88-6.12h-3.672
			c-1.537,0-2.845,0.025-3.925,0.072c-1.08,0.048-1.979,0.108-2.699,0.18c-0.721,0.072-1.332,0.133-1.836,0.18
			c-0.505,0.048-0.949,0.072-1.332,0.072c-1.009,0-1.692-0.36-2.053-1.08c-0.359-0.72-0.54-1.728-0.54-3.024
			c0.288,0.097,0.672,0.18,1.152,0.252c0.479,0.072,1.008,0.121,1.584,0.144c0.576,0.025,1.163,0.048,1.764,0.072
			c0.6,0.024,1.164,0.036,1.692,0.036h10.224c-0.048-1.152-0.288-2.135-0.72-2.952c0.815-0.335,1.68-0.587,2.592-0.756
			c0.911-0.167,1.991-0.252,3.24-0.252c1.296,0,2.243,0.277,2.844,0.828c0.6,0.552,0.9,1.476,0.9,2.772v0.36h10.728
			c1.536,0,2.809-0.119,3.816-0.36c1.008-0.24,1.896-0.623,2.664-1.152c0.911,0,1.775,0.072,2.592,0.216
			c0.815,0.144,1.536,0.396,2.16,0.756c0.623,0.36,1.116,0.828,1.476,1.404c0.36,0.576,0.54,1.321,0.54,2.232
			c0,0.241-0.048,0.457-0.144,0.648c-0.097,0.192-0.216,0.421-0.36,0.684c-0.144,0.264-0.288,0.612-0.432,1.044
			c-0.145,0.432-0.265,1.033-0.36,1.8l-1.296,6.768c-0.288,1.344-0.612,2.52-0.972,3.528c-0.36,1.008-0.864,1.859-1.513,2.556
			c-0.647,0.695-1.488,1.212-2.52,1.548c-1.033,0.335-2.389,0.504-4.068,0.504c-0.816-0.385-1.681-0.949-2.592-1.692
			c-0.912-0.745-1.824-1.573-2.735-2.484c-0.913-0.911-1.777-1.847-2.593-2.808c-0.816-0.959-1.512-1.847-2.088-2.664
			c1.68,0.336,3.24,0.588,4.681,0.756c1.439,0.169,2.639,0.252,3.6,0.252c0.96,0,1.667-0.18,2.124-0.54
			c0.455-0.36,0.756-1.044,0.899-2.052L363.643,46.657z M337.508,12.313c0.527,0,1.091,0.061,1.692,0.18
			c0.6,0.121,1.151,0.3,1.655,0.54c0.504,0.241,0.924,0.516,1.261,0.828c0.335,0.313,0.504,0.66,0.504,1.044
			c0,0.529-0.145,0.925-0.433,1.188c-0.288,0.264-0.816,0.396-1.584,0.396h-5.04v5.112c1.296-0.335,2.557-0.671,3.78-1.008
			c1.224-0.335,2.315-0.695,3.276-1.08c0,1.296-0.169,2.208-0.504,2.736c-0.337,0.529-0.841,1.008-1.513,1.44
			c-1.248,0.72-2.928,1.465-5.04,2.232v9.576c0,1.825-0.588,3.216-1.764,4.176c-1.177,0.96-2.677,1.44-4.5,1.44
			c-0.673-0.24-1.368-0.672-2.088-1.296c-0.72-0.624-1.429-1.32-2.124-2.088c-0.696-0.767-1.332-1.584-1.908-2.448
			c-0.576-0.864-1.008-1.656-1.296-2.376c0.623,0.192,1.355,0.324,2.196,0.396c0.839,0.072,1.644,0.108,2.412,0.108
			c0.767,0,1.235-0.24,1.403-0.72c0.168-0.479,0.252-1.08,0.252-1.8v-2.664c-1.248,0.336-2.364,0.601-3.348,0.792
			c-0.984,0.192-1.717,0.288-2.196,0.288c-1.296,0-2.136-0.468-2.52-1.404c-0.385-0.936-0.576-2.171-0.576-3.708
			c1.104-0.047,2.399-0.155,3.888-0.324c1.487-0.167,3.071-0.419,4.752-0.756v-6.624h-6.552c-1.393,0-2.088-1.199-2.088-3.6
			c0.527,0.144,1.428,0.264,2.7,0.36c1.271,0.097,2.436,0.144,3.492,0.144h2.447v-0.504c0-2.16-0.336-3.888-1.008-5.184
			c1.487-0.671,3.24-1.008,5.256-1.008c1.009,0,1.872,0.252,2.593,0.756c0.72,0.504,1.079,1.285,1.079,2.34
			c0,0.385-0.048,0.828-0.144,1.332c-0.097,0.504-0.192,1.188-0.288,2.052C336.596,12.937,337.22,12.649,337.508,12.313z
			 M361.34,36.001c-0.769,0.625-1.813,0.697-3.132,0.216c-1.321-0.479-2.532-1.368-3.636-2.664l-1.584-1.872
			c-1.633,2.448-3.708,4.381-6.229,5.796c-2.52,1.417-5.58,2.124-9.18,2.124c2.688-1.824,4.896-3.755,6.624-5.796
			c1.728-2.04,3.071-4.475,4.032-7.308c-0.913-0.864-1.825-1.68-2.736-2.448c-0.912-0.768-1.849-1.416-2.809-1.944
			c1.056,0,2.124,0.061,3.204,0.18c1.08,0.121,2.172,0.3,3.276,0.54c0.239-1.104,0.42-2.268,0.54-3.492
			c0.119-1.224,0.203-2.531,0.252-3.924h-4.248c-0.769,0-1.296-0.275-1.584-0.828c-0.288-0.551-0.432-1.476-0.432-2.772
			c0.239,0.097,0.6,0.18,1.08,0.252c0.479,0.072,1.008,0.121,1.584,0.144c0.575,0.025,1.163,0.048,1.764,0.072
			c0.6,0.024,1.163,0.036,1.692,0.036h0.144c-0.049-0.911-0.144-1.751-0.288-2.52c-0.144-0.767-0.385-1.463-0.72-2.088
			c0.72-0.288,1.403-0.527,2.052-0.72c0.648-0.191,1.62-0.288,2.916-0.288c2.592,0,3.888,1.008,3.888,3.024v2.592
			c1.392-0.095,2.724-0.263,3.996-0.504c1.271-0.24,2.243-0.576,2.916-1.008c0.864,0,1.703,0.072,2.521,0.216
			c0.815,0.144,1.548,0.396,2.195,0.756c0.648,0.36,1.164,0.828,1.549,1.404c0.383,0.576,0.575,1.321,0.575,2.232
			c0,0.529-0.097,1.296-0.288,2.304c-0.192,1.008-0.287,2.136-0.287,3.384c0,0.529,0.023,1.249,0.071,2.16
			c0.048,0.912,0.119,1.872,0.216,2.88c0.096,1.008,0.228,1.992,0.396,2.952c0.168,0.96,0.371,1.728,0.612,2.304
			c0.432-1.248,0.779-2.567,1.044-3.96c0.263-1.392,0.587-2.999,0.972-4.824c0.72,1.92,1.296,3.769,1.729,5.544
			c0.432,1.776,0.72,3.697,0.863,5.76c0,2.113-0.528,3.672-1.584,4.68c-1.056,1.008-2.231,1.512-3.527,1.512
			c-1.584,0-2.893-0.612-3.925-1.836c-1.032-1.224-1.848-2.927-2.447-5.112c-0.602-2.184-1.033-4.788-1.296-7.812
			c-0.265-3.024-0.396-6.336-0.396-9.936h-5.976c-0.097,1.776-0.277,3.504-0.54,5.184c-0.265,1.681-0.661,3.288-1.188,4.824
			c0.768,0.48,1.487,1.021,2.16,1.62c0.672,0.601,1.319,1.236,1.944,1.908c1.104,1.296,1.774,2.628,2.016,3.996
			C362.371,34.309,362.107,35.329,361.34,36.001z"/>
	</g>
</g>
</svg>