<!-- Generator: Adobe Illustrator 24.1.3, SVG Export Plug-In  -->
<svg version="1.1" xmlns="http://www.w3.org/2000/svg" xmlns:xlink="http://www.w3.org/1999/xlink" x="0px" y="0px" width="807.5px"
	 height="602.382px" viewBox="0 0 807.5 602.382" style="overflow:visible;enable-background:new 0 0 807.5 602.382;"
	 xml:space="preserve">
<style type="text/css">
	.st0{opacity:0.7;fill:#E58E8E;stroke:#1C3B94;stroke-width:2;stroke-miterlimit:10;}
</style>
<defs>
</defs>
<circle class="st0" cx="678.77" cy="382.58" r="100.446"/>
<ellipse class="st0" cx="207.755" cy="546.787" rx="12.179" ry="12.179"/>
<circle class="st0" cx="603.128" cy="446.284" r="11.627"/>
<circle class="st0" cx="62.525" cy="383.755" r="58.133"/>
<ellipse class="st0" cx="189.203" cy="36.689" rx="35.689" ry="35.689"/>
<circle class="st0" cx="769.443" cy="358.688" r="16.447"/>
<circle class="st0" cx="750.485" cy="392.92" r="13.761"/>
<ellipse class="st0" cx="19.397" cy="278.437" rx="18.397" ry="18.397"/>
<ellipse class="st0" cx="785.712" cy="388.562" rx="20.788" ry="20.788"/>
<circle class="st0" cx="283.342" cy="135.052" r="19.795"/>
<ellipse class="st0" cx="223.807" cy="101.425" rx="18.728" ry="18.728"/>
<ellipse class="st0" cx="269.409" cy="60.853" rx="17.624" ry="17.624"/>
<ellipse class="st0" cx="243.416" cy="53.705" rx="11.627" ry="11.627"/>
<ellipse class="st0" cx="236.932" cy="68.594" rx="12.179" ry="12.179"/>
<ellipse class="st0" cx="257.945" cy="97.543" rx="16.851" ry="16.851"/>
<ellipse class="st0" cx="770.519" cy="580.925" rx="20.457" ry="20.457"/>
</svg>