<!-- Generator: Adobe Illustrator 24.0.1, SVG Export Plug-In  -->
<svg version="1.1" xmlns="http://www.w3.org/2000/svg" xmlns:xlink="http://www.w3.org/1999/xlink" x="0px" y="0px"
	 width="749.138px" height="1298.267px" viewBox="0 0 749.138 1298.267" style="enable-background:new 0 0 749.138 1298.267;"
	 xml:space="preserve">
<style type="text/css">
	.st0{fill:#E58E8E;stroke:#1C3B94;stroke-width:2;stroke-miterlimit:10;}
</style>
<defs>
</defs>
<g>
	<g>
		<g>
			<rect x="500.869" y="1" class="st0" width="78.278" height="19.157"/>
			<rect x="500.869" y="40.91" class="st0" width="222.214" height="19.157"/>
			<rect x="500.869" y="80.819" class="st0" width="186.184" height="19.157"/>
			<rect x="500.869" y="120.729" class="st0" width="62.549" height="19.157"/>
			<rect x="500.869" y="160.639" class="st0" width="247.27" height="19.157"/>
			<rect x="500.869" y="200.549" class="st0" width="232.638" height="19.157"/>
			<rect x="500.869" y="240.458" class="st0" width="115.405" height="19.157"/>
			<rect x="500.869" y="280.368" class="st0" width="54.136" height="19.157"/>
			<rect x="500.869" y="320.278" class="st0" width="87.971" height="19.157"/>
			<rect x="500.869" y="360.187" class="st0" width="58.16" height="19.157"/>
			<rect x="500.869" y="400.097" class="st0" width="138.632" height="19.157"/>
			<rect x="500.869" y="440.007" class="st0" width="98.579" height="19.157"/>
			<rect x="500.869" y="479.916" class="st0" width="22.861" height="19.157"/>
			<rect x="500.869" y="519.826" class="st0" width="181.063" height="19.157"/>
			<rect x="500.869" y="559.736" class="st0" width="171.004" height="19.157"/>
			<rect x="500.869" y="599.646" class="st0" width="105.346" height="19.157"/>
			<rect x="500.869" y="639.555" class="st0" width="46.089" height="19.157"/>
			<rect x="500.869" y="679.465" class="st0" width="30.726" height="19.157"/>
			<rect x="500.869" y="719.375" class="st0" width="24.873" height="19.157"/>
			<rect x="500.869" y="759.284" class="st0" width="24.325" height="19.157"/>
			<rect x="500.869" y="799.194" class="st0" width="17.009" height="19.157"/>
			<rect x="500.869" y="839.104" class="st0" width="13.717" height="19.157"/>
			<rect x="500.869" y="879.014" class="st0" width="44.809" height="19.157"/>
			<rect x="500.869" y="918.923" class="st0" width="31.823" height="19.157"/>
			<rect x="500.869" y="958.833" class="st0" width="26.702" height="19.157"/>
			<rect x="500.869" y="998.743" class="st0" width="21.947" height="19.157"/>
			<rect x="500.869" y="1038.652" class="st0" width="19.935" height="19.157"/>
			<rect x="500.869" y="1078.562" class="st0" width="13.9" height="19.157"/>
			<rect x="500.869" y="1118.472" class="st0" width="3.292" height="19.157"/>
			<rect x="500.869" y="1158.381" class="st0" width="13.717" height="19.157"/>
			<rect x="500.869" y="1198.291" class="st0" width="8.23" height="19.157"/>
			<rect x="500.869" y="1238.201" class="st0" width="1.829" height="19.157"/>
			<rect x="500.869" y="1278.111" class="st0" width="0.183" height="19.157"/>
		</g>
	</g>
</g>
<g>
	<rect x="1" y="1" class="st0" width="339.427" height="19.157"/>
	<rect x="129.432" y="40.91" class="st0" width="210.995" height="19.157"/>
	<rect x="138.606" y="80.819" class="st0" width="201.822" height="19.157"/>
	<rect x="175.301" y="120.729" class="st0" width="165.127" height="19.157"/>
	<rect x="202.822" y="160.639" class="st0" width="137.606" height="19.157"/>
	<rect x="202.822" y="200.549" class="st0" width="137.606" height="19.157"/>
	<rect x="221.169" y="240.458" class="st0" width="119.258" height="19.157"/>
	<rect x="248.69" y="280.368" class="st0" width="91.737" height="19.157"/>
	<rect x="267.038" y="320.278" class="st0" width="73.39" height="19.157"/>
	<rect x="267.038" y="360.187" class="st0" width="73.39" height="19.157"/>
	<rect x="276.211" y="400.097" class="st0" width="64.216" height="19.157"/>
	<rect x="276.211" y="440.007" class="st0" width="64.216" height="19.157"/>
	<rect x="285.385" y="479.916" class="st0" width="55.042" height="19.157"/>
	<rect x="294.559" y="519.826" class="st0" width="45.869" height="19.157"/>
	<rect x="303.733" y="559.736" class="st0" width="36.695" height="19.157"/>
	<rect x="303.733" y="599.646" class="st0" width="36.695" height="19.157"/>
	<rect x="303.733" y="639.555" class="st0" width="36.695" height="19.157"/>
	<rect x="312.906" y="679.465" class="st0" width="27.521" height="19.157"/>
	<rect x="312.906" y="719.375" class="st0" width="27.521" height="19.157"/>
	<rect x="312.906" y="759.284" class="st0" width="27.521" height="19.157"/>
	<rect x="312.906" y="799.194" class="st0" width="27.521" height="19.157"/>
	<rect x="312.906" y="839.104" class="st0" width="27.521" height="19.157"/>
	<rect x="322.08" y="879.014" class="st0" width="18.347" height="19.157"/>
	<rect x="322.08" y="918.923" class="st0" width="18.347" height="19.157"/>
	<rect x="331.254" y="958.833" class="st0" width="9.174" height="19.157"/>
	<rect x="331.254" y="998.743" class="st0" width="9.174" height="19.157"/>
	<rect x="331.254" y="1038.652" class="st0" width="9.174" height="19.157"/>
	<rect x="331.254" y="1078.562" class="st0" width="9.174" height="19.157"/>
	<rect x="331.254" y="1118.472" class="st0" width="9.174" height="19.157"/>
	<rect x="340.427" y="1158.381" class="st0" width="0" height="19.157"/>
	<rect x="340.427" y="1198.291" class="st0" width="0" height="19.157"/>
	<rect x="340.427" y="1238.201" class="st0" width="0" height="19.157"/>
	<rect x="340.427" y="1278.111" class="st0" width="0" height="19.157"/>
</g>
</svg>