<!-- Generator: Adobe Illustrator 24.1.3, SVG Export Plug-In  -->
<svg version="1.1" xmlns="http://www.w3.org/2000/svg" xmlns:xlink="http://www.w3.org/1999/xlink" x="0px" y="0px"
	 width="447.125px" height="86.49px" viewBox="0 0 447.125 86.49"
	 style="overflow:visible;enable-background:new 0 0 447.125 86.49;" xml:space="preserve">
<style type="text/css">
	.st0{fill:#BF2222;}
	.st1{fill:none;}
	.st2{font-family:'HYQingFenTi-W';}
	.st3{font-size:72px;}
</style>
<defs>
</defs>
<g>
	<g>
		<g>
			<path class="st0" d="M36.116,23.814L29.23,2.231c-0.538-1.686-2.341-2.617-4.027-2.079L2.295,7.462
				C0.609,8-0.322,9.803,0.216,11.489l6.886,21.583c-6.625,7.665-8.821,18.186-5.714,27.924
				c4.887,15.318,21.325,23.803,36.643,18.916c15.317-4.887,23.803-21.325,18.916-36.643C53.84,33.531,45.956,26.226,36.116,23.814z
				 M36.083,73.805c-11.951,3.813-24.776-2.807-28.589-14.758c-2.581-8.088-0.47-16.871,5.507-22.921
				c0.838-0.848,1.136-2.091,0.774-3.227L7.296,12.594l16.802-5.361l6.479,20.306c0.362,1.136,1.325,1.976,2.499,2.182
				c8.377,1.47,15.184,7.407,17.765,15.495C54.654,57.167,48.034,69.992,36.083,73.805z"/>
			<path class="st0" d="M33.568,50.227c-7.725,0.358-8.952-2.256-17.183-1.429c-1.443,0.145-3.1,0.396-4.861,0.766
				c-0.357,2.559-0.161,5.235,0.677,7.861c2.99,9.372,13.012,14.545,22.383,11.555c9.259-2.954,14.414-12.771,11.654-22.044
				C42.719,48.673,38.585,49.994,33.568,50.227z"/>
		</g>
	</g>
	<g>
		<g>
			<path class="st0" d="M91.246,70.722c0,1.152-0.372,2.004-1.115,2.557c-0.745,0.551-1.573,0.828-2.484,0.828
				c-0.912,0-1.74-0.277-2.484-0.828c-0.744-0.553-1.115-1.404-1.115-2.557V16.434c0-1.151,0.371-2.003,1.115-2.556
				c0.744-0.551,1.572-0.828,2.484-0.828c0.911,0,1.739,0.277,2.484,0.828c0.743,0.553,1.115,1.404,1.115,2.556V70.722z
				 M135.671,13.195c4.464,0,6.695,2.208,6.695,6.624v50.832c0,0.863-0.264,1.595-0.792,2.195c-0.528,0.6-1.151,1.009-1.872,1.225
				c-0.72,0.216-1.439,0.263-2.159,0.144c-0.721-0.12-1.297-0.468-1.729-1.044c-0.769-1.057-1.608-1.908-2.52-2.556
				c-0.913-0.648-2.064-0.973-3.456-0.973H95.567c-0.816,0-1.416-0.252-1.8-0.756c-0.385-0.504-0.576-1.056-0.576-1.655
				c0-0.602,0.191-1.152,0.576-1.656c0.384-0.504,0.983-0.756,1.8-0.756h39.601v-43.92c0-0.911-0.288-1.62-0.864-2.124
				s-1.321-0.756-2.232-0.756H95.567c-0.816,0-1.429-0.253-1.836-0.757c-0.408-0.504-0.612-1.055-0.612-1.655
				c0-0.6,0.204-1.152,0.612-1.656c0.407-0.504,1.02-0.756,1.836-0.756H135.671z M109.535,35.227c0-1.2,0.372-2.1,1.116-2.7
				c0.744-0.6,1.56-0.9,2.448-0.9c0.888,0,1.703,0.301,2.448,0.9c0.743,0.601,1.115,1.5,1.115,2.7v2.304h9.36
				c0.768,0,1.355,0.24,1.764,0.72c0.407,0.48,0.612,1.021,0.612,1.62c0,0.601-0.205,1.141-0.612,1.62
				c-0.408,0.48-0.996,0.72-1.764,0.72h-9.36v11.521h13.248c0.768,0,1.356,0.252,1.765,0.756c0.407,0.504,0.611,1.056,0.611,1.655
				c0,0.602-0.204,1.152-0.611,1.656c-0.408,0.504-0.997,0.756-1.765,0.756H96.503c-0.817,0-1.417-0.252-1.801-0.756
				c-0.385-0.504-0.575-1.055-0.575-1.656c0-0.6,0.203-1.151,0.611-1.655c0.407-0.504,0.996-0.756,1.765-0.756h13.031V42.21h-9.216
				c-0.769,0-1.344-0.239-1.728-0.72c-0.385-0.479-0.576-1.02-0.576-1.62c0-0.6,0.191-1.14,0.576-1.62
				c0.384-0.479,0.959-0.72,1.728-0.72h9.216V35.227z M127.751,29.25h-29.16c-0.769,0-1.345-0.252-1.729-0.756
				c-0.385-0.504-0.576-1.044-0.576-1.62s0.191-1.116,0.576-1.62c0.384-0.504,0.96-0.756,1.729-0.756h29.16
				c0.767,0,1.355,0.252,1.764,0.756c0.407,0.504,0.612,1.044,0.612,1.62s-0.205,1.116-0.612,1.62
				C129.107,28.998,128.518,29.25,127.751,29.25z M121.415,44.227c1.247,0.575,2.314,1.104,3.203,1.584
				c0.888,0.479,1.596,0.912,2.124,1.296c0.864,0.575,1.284,1.284,1.261,2.124c-0.025,0.84-0.288,1.548-0.792,2.124
				c-0.504,0.575-1.152,0.912-1.944,1.008c-0.792,0.097-1.524-0.336-2.196-1.296c-0.72-1.009-1.332-1.848-1.836-2.521
				c-0.504-0.672-1.021-1.319-1.548-1.943c-0.288-0.288-0.421-0.612-0.396-0.973c0.023-0.359,0.119-0.684,0.287-0.972
				s0.42-0.479,0.757-0.576C120.67,43.987,121.031,44.035,121.415,44.227z"/>
			<path class="st0" d="M157.775,24.498c0-1.199,0.371-2.088,1.116-2.664c0.743-0.576,1.56-0.852,2.448-0.828
				c0.888,0.025,1.703,0.337,2.447,0.937c0.744,0.601,1.116,1.5,1.116,2.699V69.93c0,1.199-0.372,2.1-1.116,2.7
				c-0.744,0.6-1.56,0.9-2.447,0.9c-0.889,0-1.705-0.301-2.448-0.9c-0.745-0.601-1.116-1.501-1.116-2.7V24.498z M169.367,26.082
				c-0.816,0-1.429-0.264-1.836-0.792c-0.408-0.527-0.611-1.104-0.611-1.728s0.203-1.199,0.611-1.729
				c0.407-0.527,1.02-0.792,1.836-0.792h12.816c0.096-1.247,0.144-2.544,0.144-3.888s0-2.76,0-4.248
				c0-1.152,0.348-2.017,1.044-2.592c0.695-0.576,1.477-0.852,2.341-0.828c0.863,0.024,1.644,0.336,2.34,0.936
				c0.695,0.601,1.044,1.477,1.044,2.628c0,1.44-0.013,2.82-0.036,4.141c-0.024,1.32-0.061,2.604-0.108,3.852h17.425
				c4.367,0,6.552,2.208,6.552,6.624V64.89c0,1.92-0.396,3.66-1.188,5.221c-0.792,1.559-2.172,2.844-4.14,3.852
				c-0.624,0.335-1.296,0.371-2.016,0.108c-0.721-0.265-1.057-0.781-1.009-1.548c0.048-0.721-0.061-1.309-0.323-1.765
				c-0.265-0.456-0.697-0.828-1.297-1.116c-0.601-0.287-1.393-0.516-2.376-0.684c-0.984-0.169-2.195-0.349-3.636-0.54
				c-0.624-0.048-1.068-0.276-1.332-0.684c-0.265-0.408-0.372-0.828-0.324-1.261c0.048-0.432,0.228-0.815,0.54-1.151
				c0.313-0.335,0.757-0.504,1.332-0.504c2.88,0.097,4.969,0.024,6.265-0.216c1.055-0.145,1.703-0.564,1.943-1.261
				c0.24-0.695,0.36-1.787,0.36-3.275V28.89c0-1.871-0.961-2.808-2.88-2.808h-14.256c-0.337,3.648-0.877,6.937-1.62,9.864
				c-0.745,2.928-1.8,5.641-3.168,8.136c-1.368,2.496-3.096,4.885-5.185,7.164c-2.088,2.28-4.62,4.597-7.596,6.948
				c-0.624,0.528-1.224,0.744-1.8,0.647c-0.576-0.096-1.033-0.335-1.368-0.72c-0.336-0.384-0.504-0.875-0.504-1.476
				c0-0.6,0.264-1.14,0.792-1.62c2.304-2.017,4.259-4.032,5.868-6.048c1.607-2.017,2.952-4.151,4.032-6.408
				c1.08-2.256,1.919-4.716,2.52-7.38c0.6-2.664,1.044-5.699,1.332-9.108H169.367z M187.655,43.434
				c-0.385-0.432-0.552-0.899-0.504-1.403s0.228-0.911,0.54-1.225c0.312-0.312,0.72-0.491,1.225-0.54
				c0.504-0.047,1.019,0.145,1.548,0.576c2.592,2.16,4.788,4.081,6.588,5.761c1.8,1.681,3.371,3.239,4.716,4.68
				c0.864,0.912,1.199,1.836,1.008,2.771c-0.192,0.937-0.637,1.692-1.332,2.269c-0.696,0.576-1.512,0.853-2.448,0.828
				c-0.936-0.024-1.74-0.54-2.411-1.548c-0.864-1.248-1.656-2.388-2.376-3.421c-0.721-1.031-1.417-2.016-2.089-2.951
				c-0.672-0.937-1.367-1.872-2.088-2.809C189.311,45.487,188.519,44.49,187.655,43.434z"/>
			<path class="st0" d="M237.119,13.554c0.191-1.247,0.744-2.111,1.656-2.592c0.911-0.479,1.859-0.636,2.844-0.468
				c0.983,0.169,1.824,0.624,2.521,1.368c0.695,0.744,0.972,1.717,0.828,2.916c-0.192,1.393-0.517,2.977-0.973,4.752
				c-0.456,1.776-1.02,3.636-1.691,5.58c-0.673,1.943-1.465,3.948-2.376,6.012c-0.912,2.064-1.896,4.08-2.952,6.048
				c1.631,0.961,2.855,1.753,3.672,2.376c0.815,0.625,1.631,1.296,2.448,2.017c1.151,1.008,1.631,2.04,1.439,3.096
				c-0.192,1.057-0.684,1.884-1.476,2.483c-0.792,0.602-1.704,0.864-2.736,0.792c-1.032-0.071-1.836-0.73-2.412-1.979
				c-0.528-1.152-0.996-2.124-1.403-2.916c-0.408-0.792-0.877-1.667-1.404-2.628c-1.104,1.776-2.268,3.433-3.492,4.968
				c-1.224,1.537-2.509,2.929-3.852,4.176c-0.433,0.385-0.864,0.565-1.296,0.54c-0.433-0.023-0.805-0.18-1.116-0.468
				c-0.313-0.288-0.517-0.647-0.612-1.08c-0.097-0.432,0-0.864,0.288-1.296c3.313-4.991,5.904-10.379,7.776-16.164
				C234.671,25.303,236.111,19.458,237.119,13.554z M253.823,21.691c1.968,0,3.456,0.552,4.464,1.655
				c1.009,1.105,1.392,2.736,1.152,4.896c-0.48,4.032-1.38,8.076-2.7,12.132c-1.32,4.057-3.156,8.028-5.508,11.916
				c-2.353,3.888-5.256,7.645-8.712,11.268c-3.456,3.624-7.56,7.044-12.312,10.261c-0.48,0.335-0.961,0.443-1.44,0.323
				c-0.48-0.12-0.864-0.359-1.152-0.72c-0.288-0.359-0.444-0.792-0.468-1.296c-0.024-0.504,0.204-0.948,0.684-1.332
				c3.647-2.929,6.877-6.071,9.685-9.432c2.808-3.359,5.184-6.864,7.128-10.513c1.944-3.646,3.479-7.38,4.608-11.195
				c1.127-3.816,1.883-7.62,2.268-11.412c0.047-1.056-0.36-1.584-1.224-1.584h-3.528c-0.72,0-1.272-0.264-1.656-0.792
				c-0.385-0.527-0.576-1.092-0.576-1.692c0-0.6,0.191-1.163,0.576-1.691c0.384-0.528,0.937-0.792,1.656-0.792H253.823z
				 M271.319,70.578c0,1.199-0.385,2.1-1.151,2.7c-0.769,0.6-1.597,0.888-2.484,0.863c-0.889-0.024-1.717-0.336-2.484-0.936
				c-0.768-0.601-1.151-1.476-1.151-2.628V13.842c0-1.199,0.384-2.099,1.151-2.7c0.768-0.6,1.596-0.899,2.484-0.899
				c0.888,0,1.716,0.3,2.484,0.899c0.767,0.602,1.151,1.501,1.151,2.7V70.578z M278.663,30.762c0.96,1.152,1.872,2.28,2.736,3.385
				s1.729,2.208,2.592,3.312c0.864,1.104,1.729,2.257,2.593,3.456c0.863,1.2,1.774,2.496,2.735,3.888
				c0.672,0.961,0.996,1.885,0.973,2.772c-0.025,0.889-0.241,1.681-0.648,2.376c-0.408,0.696-0.984,1.249-1.728,1.656
				c-0.745,0.408-1.513,0.601-2.305,0.575c-0.792-0.023-1.548-0.299-2.268-0.827s-1.272-1.368-1.656-2.521
				c-0.432-1.296-0.864-2.508-1.296-3.636c-0.432-1.127-0.889-2.304-1.368-3.528c-0.48-1.224-1.021-2.544-1.62-3.96
				c-0.601-1.415-1.332-3.06-2.195-4.932c-0.192-0.433-0.192-0.864,0-1.296c0.19-0.433,0.479-0.78,0.863-1.044
				c0.384-0.264,0.815-0.384,1.296-0.36C277.846,30.103,278.278,30.33,278.663,30.762z"/>
			<path class="st0" d="M322.727,27.45c0.239-1.296,0.792-2.207,1.656-2.736c0.863-0.527,1.751-0.72,2.664-0.576
				c0.911,0.145,1.691,0.565,2.34,1.261c0.647,0.696,0.875,1.62,0.684,2.771c-0.097,0.385-0.144,0.625-0.144,0.72h22.032
				c0.863,0,1.499,0.252,1.907,0.757c0.407,0.504,0.612,1.044,0.612,1.619c0,0.576-0.205,1.116-0.612,1.62
				c-0.408,0.504-1.044,0.756-1.907,0.756h-23.328c-0.385,1.057-0.769,2.077-1.152,3.061c-0.385,0.984-0.816,1.956-1.296,2.916
				h33.192c0.863,0,1.499,0.252,1.907,0.756c0.407,0.504,0.612,1.057,0.612,1.656c0,0.601-0.205,1.151-0.612,1.656
				c-0.408,0.504-1.044,0.756-1.907,0.756h-35.929c-2.735,4.224-6.155,8.053-10.26,11.483c-4.104,3.433-8.772,6.613-14.004,9.54
				c-0.624,0.337-1.177,0.408-1.656,0.216c-0.48-0.19-0.828-0.491-1.044-0.899c-0.216-0.407-0.288-0.864-0.216-1.368
				s0.371-0.924,0.9-1.26c3.888-2.448,7.416-5.112,10.584-7.992s5.903-6.12,8.208-9.72h-16.561c-0.864,0-1.501-0.252-1.908-0.756
				c-0.408-0.505-0.611-1.056-0.611-1.656c0-0.6,0.203-1.152,0.611-1.656c0.407-0.504,1.044-0.756,1.908-0.756h19.368
				c0.911-1.823,1.703-3.816,2.376-5.977h-14.328c-0.864,0-1.501-0.252-1.908-0.756c-0.408-0.504-0.611-1.044-0.611-1.62
				c0-0.575,0.203-1.115,0.611-1.619c0.407-0.505,1.044-0.757,1.908-0.757h15.624c0.047-0.239,0.083-0.479,0.108-0.72
				C322.571,27.931,322.63,27.691,322.727,27.45z M339.791,11.323c0.432-1.152,1.079-1.836,1.943-2.052
				c0.864-0.217,1.692-0.145,2.484,0.216c0.792,0.359,1.368,0.936,1.728,1.728c0.36,0.792,0.252,1.62-0.323,2.484
				c-0.385,0.528-0.925,1.141-1.62,1.836c-0.696,0.696-1.501,1.452-2.412,2.268c-0.145,0.097-0.277,0.192-0.396,0.288
				c-0.12,0.097-0.252,0.169-0.396,0.216h15.048c0.864,0,1.499,0.252,1.908,0.757c0.407,0.504,0.611,1.056,0.611,1.655
				c0,0.601-0.204,1.152-0.611,1.656c-0.409,0.504-1.044,0.756-1.908,0.756h-52.92c-0.864,0-1.501-0.252-1.908-0.756
				c-0.408-0.504-0.612-1.056-0.612-1.656c0-0.6,0.204-1.151,0.612-1.655c0.407-0.505,1.044-0.757,1.908-0.757h16.92
				c-0.673-0.287-1.272-0.911-1.8-1.872c-0.385-0.72-0.781-1.427-1.188-2.123c-0.408-0.695-0.828-1.332-1.26-1.908
				c-0.337-0.479-0.457-0.96-0.36-1.44c0.096-0.479,0.324-0.852,0.685-1.116c0.359-0.263,0.828-0.407,1.403-0.432
				c0.576-0.023,1.152,0.156,1.729,0.54c2.304,1.537,3.888,2.784,4.752,3.744c0.768,0.816,0.96,1.691,0.576,2.628
				c-0.385,0.936-1.008,1.597-1.872,1.979h16.056c-0.432-0.239-0.732-0.575-0.899-1.008c-0.169-0.432-0.108-0.936,0.18-1.512
				c0.239-0.527,0.527-1.176,0.864-1.944C339.046,13.075,339.407,12.235,339.791,11.323z M308.327,71.227
				c-0.863,0-1.5-0.253-1.907-0.757c-0.409-0.504-0.612-1.068-0.612-1.691c0-0.625,0.203-1.188,0.612-1.692
				c0.407-0.504,1.044-0.756,1.907-0.756h21.097v-5.472c0-1.199,0.384-2.112,1.151-2.736c0.768-0.623,1.608-0.936,2.521-0.936
				c0.911,0,1.751,0.3,2.52,0.899c0.768,0.601,1.152,1.524,1.152,2.772v5.472h20.304c0.864,0,1.5,0.252,1.908,0.756
				c0.407,0.504,0.612,1.067,0.612,1.692c0,0.623-0.205,1.188-0.612,1.691c-0.408,0.504-1.044,0.757-1.908,0.757H308.327z
				 M321.287,55.674c-0.863,0-1.5-0.252-1.907-0.756c-0.409-0.504-0.612-1.055-0.612-1.656c0-0.6,0.203-1.151,0.612-1.655
				c0.407-0.504,1.044-0.757,1.907-0.757h29.376c0.864,0,1.5,0.253,1.908,0.757c0.407,0.504,0.612,1.056,0.612,1.655
				c0,0.602-0.205,1.152-0.612,1.656c-0.408,0.504-1.044,0.756-1.908,0.756H321.287z"/>
			<path class="st0" d="M417.551,70.722c0,1.199-0.385,2.1-1.152,2.7c-0.769,0.6-1.62,0.888-2.556,0.864
				c-0.937-0.024-1.789-0.337-2.557-0.937c-0.768-0.601-1.151-1.476-1.151-2.628V56.611h-17.856
				c-0.432,1.872-1.104,3.589-2.016,5.147c-0.912,1.561-2.185,3.049-3.816,4.464c-1.632,1.416-3.708,2.783-6.228,4.104
				c-2.521,1.319-5.58,2.675-9.181,4.068c-0.624,0.239-1.164,0.239-1.619,0c-0.457-0.241-0.769-0.576-0.937-1.009
				c-0.169-0.432-0.18-0.889-0.036-1.367c0.145-0.48,0.528-0.864,1.152-1.152c2.399-1.104,4.451-2.173,6.156-3.204
				c1.703-1.033,3.155-2.111,4.355-3.24c1.199-1.127,2.147-2.315,2.844-3.563c0.695-1.248,1.235-2.664,1.62-4.248h-13.536
				c-0.816,0-1.429-0.264-1.836-0.792c-0.408-0.528-0.611-1.116-0.611-1.765c0-0.647,0.203-1.235,0.611-1.764
				c0.407-0.527,1.02-0.792,1.836-0.792h14.185c0.047-0.623,0.083-1.26,0.107-1.908c0.024-0.647,0.036-1.332,0.036-2.052
				c0-1.199,0.396-2.111,1.188-2.736c0.792-0.623,1.68-0.936,2.664-0.936c0.983,0,1.872,0.313,2.664,0.936
				c0.792,0.625,1.188,1.537,1.188,2.736c0,0.72-0.012,1.404-0.036,2.052c-0.024,0.648-0.061,1.285-0.107,1.908h17.208v-3.672
				c0-1.248,0.384-2.184,1.151-2.808s1.62-0.937,2.557-0.937c0.936,0,1.787,0.313,2.556,0.937c0.768,0.624,1.152,1.56,1.152,2.808
				v3.672h13.68c0.864,0,1.523,0.265,1.98,0.792c0.455,0.528,0.684,1.116,0.684,1.764c0,0.648-0.229,1.236-0.684,1.765
				c-0.457,0.528-1.116,0.792-1.98,0.792h-13.68V70.722z M375.503,16.29c0-1.152,0.371-2.004,1.115-2.556s1.572-0.828,2.484-0.828
				c0.911,0,1.739,0.288,2.484,0.864c0.743,0.575,1.115,1.416,1.115,2.52v15.336c0,1.584,0.336,2.736,1.009,3.456
				c0.671,0.72,1.774,1.08,3.312,1.08h30.096c1.44,0,2.604-0.096,3.492-0.288c0.888-0.191,1.584-0.563,2.088-1.116
				c0.504-0.551,0.864-1.307,1.08-2.268c0.216-0.96,0.348-2.232,0.396-3.816c0-0.576,0.191-1.008,0.576-1.296
				c0.383-0.288,0.803-0.432,1.26-0.432c0.455,0,0.864,0.144,1.224,0.432c0.36,0.288,0.54,0.72,0.54,1.296
				c0,1.633,0.096,2.82,0.288,3.564c0.191,0.744,0.527,1.188,1.008,1.332c0.815,0.24,1.38,0.804,1.692,1.691
				c0.312,0.889,0.132,1.801-0.54,2.736c-0.673,0.936-1.98,1.776-3.924,2.521c-1.944,0.744-4.741,1.115-8.389,1.115h-33.84
				c-5.713,0-8.567-2.88-8.567-8.64V16.29z M417.551,12.979c2.351,0,3.911,0.492,4.68,1.476c0.768,0.984,1.152,2.268,1.152,3.852
				v5.904c0,1.729-0.468,2.952-1.404,3.672c-0.936,0.721-2.484,1.08-4.644,1.08h-30.385c-0.816,0-1.429-0.239-1.836-0.72
				c-0.408-0.479-0.611-1.008-0.611-1.584s0.203-1.104,0.611-1.584c0.407-0.479,1.02-0.72,1.836-0.72h29.376v-4.969
				c0-1.104-0.575-1.655-1.728-1.655h-27.648c-0.816,0-1.429-0.252-1.836-0.757c-0.408-0.504-0.611-1.044-0.611-1.619
				c0-0.576,0.203-1.116,0.611-1.62c0.407-0.504,1.02-0.756,1.836-0.756H417.551z"/>
		</g>
	</g>
</g>
</svg>