<!-- Generator: Adobe Illustrator 24.1.3, SVG Export Plug-In  -->
<svg version="1.1" xmlns="http://www.w3.org/2000/svg" xmlns:xlink="http://www.w3.org/1999/xlink" x="0px" y="0px"
	 width="391.555px" height="243.899px" viewBox="0 0 391.555 243.899"
	 style="overflow:visible;enable-background:new 0 0 391.555 243.899;" xml:space="preserve">
<style type="text/css">
	.st0{fill:#FFFFFF;stroke:#1C3B94;stroke-width:2;stroke-linecap:round;stroke-linejoin:round;stroke-miterlimit:10;}
	.st1{fill:#FFFFFF;stroke:#1C3B94;stroke-width:2;stroke-miterlimit:10;}
	.st2{fill:#FFE291;stroke:#1C3B94;stroke-width:2;stroke-linecap:round;stroke-linejoin:round;stroke-miterlimit:10;}
	.st3{fill:#1C3B94;}
	.st4{fill:#BF2222;}
	.st5{fill:none;stroke:#1C3B94;stroke-width:2;stroke-linecap:round;stroke-linejoin:round;stroke-miterlimit:10;}
	.st6{fill:none;}
	.st7{font-family:'FZLANTY_ZHUNK--GBK1-0';}
	.st8{font-size:28.8559px;}
	.st9{letter-spacing:1;}
	.st10{font-size:19px;}
	.st11{font-size:17.3135px;}
	.st12{font-size:21px;}
</style>
<defs>
</defs>
<g>
	<g>
		<path class="st0" d="M267.984,65.904v-16.51H135.227c0,0.016,0.001,0.032,0.001,0.049c0,26.754-21.689,48.442-48.442,48.442
			S38.343,76.196,38.343,49.442c0-0.016,0.001-0.032,0.001-0.049H1v193.505h389.555V65.904H267.984z"/>
		<path class="st1" d="M86.786,97.885c26.754,0,48.442-21.688,48.442-48.442c0-0.016-0.001-0.032-0.001-0.049
			C135.2,22.662,113.523,1,86.786,1S38.371,22.662,38.345,49.394c0,0.016-0.001,0.032-0.001,0.049
			C38.343,76.196,60.032,97.885,86.786,97.885z"/>
	</g>
	<polygon class="st2" points="267.984,17.001 267.984,49.394 267.984,65.904 390.555,65.904 390.555,49.394 390.555,17.001 	"/>
	<g>
		<g>
			<path class="st3" d="M280.484,49.007h8.905c1.051-0.074,1.539,0.338,1.465,1.24c0,0.826-0.489,1.24-1.465,1.24h-10.258
				c-1.278,0-1.916-0.602-1.916-1.803c0-0.826,0.187-1.578,0.563-2.254c1.127-2.328,3.343-4.959,6.65-7.89
				c2.479-1.953,3.644-3.794,3.494-5.523c-0.151-2.029-1.353-3.08-3.607-3.156c-2.33,0-3.758,1.09-4.283,3.269
				c-0.225,1.353-0.752,1.916-1.578,1.691c-0.827-0.15-1.165-0.789-1.014-1.917c0.75-3.531,3.043-5.372,6.875-5.523
				c4.059,0.151,6.124,2.029,6.2,5.636c0.149,2.556-1.353,5.072-4.509,7.552c-2.931,2.631-4.886,4.922-5.861,6.876
				C280.07,48.82,280.183,49.007,280.484,49.007z"/>
		</g>
	</g>
	<g>
		<g>
			<path class="st4" d="M148.83,37.985c-0.496-0.049-0.77-0.321-0.818-0.816c0.049-0.494,0.322-0.767,0.818-0.816h7.367v-1.707
				c0.049-0.494,0.347-0.767,0.893-0.816c0.546,0.05,0.843,0.322,0.894,0.816v1.707h7.366c0.446,0.05,0.694,0.322,0.744,0.816
				c-0.05,0.495-0.298,0.768-0.744,0.816h-7.366v3.563c-0.051,0.494-0.348,0.767-0.894,0.816c-0.546-0.05-0.844-0.322-0.893-0.816
				v-3.563H148.83z M151.733,33.903c-0.596,0.1-1.018,0.025-1.265-0.223c-0.149-0.148-0.249-0.52-0.298-1.113v-7.422
				c0.049-0.544,0.347-0.841,0.893-0.891c0.495,0.05,0.769,0.347,0.818,0.891v1.93h3.944c0.446,0.05,0.694,0.297,0.744,0.742
				c0,0.445-0.249,0.693-0.744,0.742h-3.944v3.117c0.049,0.297,0.224,0.421,0.521,0.371c0.298-0.049,0.769-0.173,1.414-0.371
				c0.843-0.247,1.487-0.42,1.935-0.52c0.545-0.148,0.867,0.05,0.967,0.594c0.099,0.495-0.124,0.816-0.67,0.965
				c-0.248,0.1-0.744,0.223-1.487,0.371C153.27,33.433,152.328,33.705,151.733,33.903z M160.141,33.828
				c-1.637,0.1-2.431-0.742-2.381-2.523v-6.309c0.049-0.494,0.322-0.767,0.818-0.816c0.546,0.05,0.843,0.322,0.893,0.816v2.969
				c2.034-0.841,3.498-1.533,4.391-2.078c0.545-0.148,0.941-0.049,1.19,0.297c0.248,0.396,0.174,0.768-0.223,1.113
				c-0.101,0.05-0.273,0.124-0.521,0.223c-2.232,1.039-3.845,1.732-4.837,2.078v1.336c-0.05,0.99,0.347,1.436,1.191,1.336h2.083
				c0.793,0.05,1.239-0.297,1.34-1.039c0-0.197,0.049-0.643,0.148-1.336c0.148-0.544,0.471-0.767,0.968-0.668
				c0.495,0.1,0.718,0.445,0.669,1.039c0,0.05,0,0.148,0,0.297c-0.1,0.644-0.198,1.089-0.297,1.336
				c-0.199,1.287-1.042,1.93-2.53,1.93H160.141z"/>
			<path class="st4" d="M167.879,41.102c-0.496-0.05-0.77-0.322-0.818-0.816c0.049-0.544,0.322-0.841,0.818-0.891h4.911v-14.25
				c0.049-0.494,0.347-0.767,0.894-0.816c0.545,0.05,0.843,0.322,0.893,0.816v14.25h3.051v-14.25
				c0.049-0.544,0.347-0.841,0.893-0.891c0.546,0.05,0.844,0.347,0.894,0.891v14.25h4.911c0.545,0.05,0.843,0.347,0.893,0.891
				c-0.05,0.494-0.348,0.767-0.893,0.816H167.879z M171.377,35.832c-0.547,0.1-0.919-0.074-1.116-0.52
				c-0.744-2.177-1.514-4.255-2.307-6.234c-0.101-0.494,0.074-0.841,0.521-1.039c0.545-0.099,0.917,0.074,1.116,0.52
				c0.298,0.842,0.793,2.178,1.488,4.008c0.396,0.99,0.67,1.707,0.818,2.152C171.996,35.264,171.823,35.635,171.377,35.832z
				 M180.678,35.758c-0.496-0.247-0.646-0.618-0.446-1.113c0.495-1.088,1.34-3.117,2.53-6.086c0.197-0.445,0.545-0.618,1.041-0.52
				c0.496,0.198,0.694,0.569,0.596,1.113c-0.148,0.396-0.397,1.015-0.744,1.855c-0.844,2.078-1.464,3.514-1.86,4.305
				C181.545,35.808,181.173,35.956,180.678,35.758z"/>
			<path class="st4" d="M186.928,32.641c-0.397-0.396-0.472-0.816-0.223-1.262c1.289-1.682,2.307-3.563,3.051-5.641
				c0.148-0.494,0.521-0.717,1.116-0.668c0.595,0.198,0.793,0.545,0.595,1.039c-0.198,0.644-0.446,1.287-0.744,1.93h4.019v-3.117
				c0.049-0.544,0.347-0.841,0.893-0.891c0.546,0.05,0.844,0.347,0.894,0.891v3.117h6.102c0.495,0.05,0.769,0.322,0.818,0.816
				c-0.05,0.495-0.323,0.768-0.818,0.816h-6.102v3.934h5.506c0.495,0.05,0.769,0.322,0.818,0.816
				c-0.05,0.495-0.323,0.768-0.818,0.816h-5.506v4.305h6.994c0.495,0.05,0.769,0.346,0.818,0.891
				c-0.05,0.494-0.323,0.767-0.818,0.816h-16.444c-0.497-0.05-0.77-0.322-0.818-0.816c0.049-0.545,0.321-0.841,0.818-0.891h7.664
				v-4.305h-5.879c-0.496-0.049-0.77-0.321-0.818-0.816c0.049-0.494,0.322-0.767,0.818-0.816h5.879v-3.934h-4.837
				c-0.695,1.287-1.24,2.178-1.637,2.672C187.87,32.839,187.424,32.938,186.928,32.641z"/>
		</g>
	</g>
	<g>
		<g>
			<path class="st3" d="M298.134,39.236c-0.451,0.271-0.835,0.249-1.149-0.067c-0.316-0.406-0.294-0.766,0.067-1.082
				c1.713-1.262,3.044-2.592,3.99-3.99c0.36-0.36,0.744-0.45,1.149-0.271c0.45,0.181,0.563,0.451,0.339,0.812
				c-0.181,0.271-0.384,0.541-0.609,0.812h7.439c0.45,0.045,0.699,0.271,0.744,0.676c0,0.451-0.158,0.812-0.474,1.082
				c-1.127,0.992-2.322,1.826-3.584,2.502c1.487,0.451,3.336,0.812,5.546,1.082c0.45,0.135,0.652,0.429,0.608,0.879
				c-0.135,0.406-0.497,0.586-1.082,0.541c-2.751-0.36-5.028-0.901-6.831-1.623c-1.668,0.722-4.125,1.353-7.371,1.894
				c-0.541,0.091-0.903-0.068-1.082-0.474c-0.046-0.541,0.135-0.833,0.541-0.879c2.705-0.406,4.778-0.879,6.222-1.42
				c-0.947-0.496-1.826-1.194-2.638-2.097c-0.271,0.271-0.677,0.632-1.218,1.082C298.472,38.921,298.27,39.101,298.134,39.236z
				 M297.526,49.111c-0.406,0.225-0.768,0.157-1.082-0.203c-0.271-0.361-0.227-0.676,0.135-0.947c1.037-0.585,2.276-1.42,3.72-2.502
				c0.406-0.225,0.767-0.203,1.082,0.068c0.315,0.406,0.293,0.744-0.067,1.014C300.546,47.127,299.283,47.984,297.526,49.111z
				 M297.188,44.647c-0.406-0.044-0.632-0.271-0.677-0.676c0.045-0.45,0.271-0.699,0.677-0.744h6.289V42.28
				c0.045-0.496,0.315-0.766,0.812-0.812c0.496,0.045,0.767,0.316,0.812,0.812v0.947h5.816c0.406,0.045,0.631,0.294,0.677,0.744
				c-0.046,0.406-0.271,0.632-0.677,0.676H305.1v2.976c0.09,1.578-0.632,2.344-2.164,2.3c-0.091,0-0.315,0-0.676,0
				c-0.451,0.044-0.768,0.067-0.947,0.067c-0.451,0-0.744-0.226-0.879-0.676c0-0.497,0.203-0.767,0.608-0.812h1.218
				c0.901,0.09,1.307-0.316,1.217-1.217v-2.638H297.188z M300.975,36.734c0.991,0.947,2.097,1.714,3.313,2.299
				c1.218-0.541,2.344-1.217,3.382-2.029c0.09-0.044,0.112-0.09,0.067-0.135c-0.045-0.09-0.113-0.135-0.203-0.135H300.975z
				 M310.646,48.975c-0.135-0.091-0.384-0.249-0.744-0.474c-1.487-0.947-2.525-1.578-3.11-1.894
				c-0.271-0.271-0.316-0.585-0.136-0.947c0.315-0.271,0.698-0.315,1.15-0.135c0.676,0.361,1.758,0.992,3.246,1.894
				c0.271,0.181,0.45,0.294,0.541,0.338c0.36,0.316,0.428,0.653,0.202,1.015C311.48,49.178,311.096,49.246,310.646,48.975z"/>
			<path class="st3" d="M313.892,38.56c-0.405-0.044-0.632-0.292-0.676-0.744c0.044-0.406,0.271-0.631,0.676-0.676h1.759v-2.638
				c0.044-0.45,0.314-0.699,0.812-0.744c0.45,0.091,0.698,0.338,0.744,0.744v2.638h1.556c0.45,0.045,0.698,0.271,0.743,0.676
				c-0.045,0.451-0.293,0.699-0.743,0.744h-1.556v1.961c0.18,0,0.338,0.045,0.474,0.135l1.623,1.556
				c0.314,0.316,0.338,0.654,0.067,1.014c-0.316,0.316-0.654,0.338-1.015,0.068l-1.149-1.217v7.575
				c-0.046,0.406-0.294,0.653-0.744,0.744c-0.497-0.045-0.768-0.293-0.812-0.744v-7.98c-0.541,1.443-1.038,2.525-1.488,3.246
				c-0.226,0.361-0.541,0.429-0.946,0.203c-0.136-0.09-0.203-0.271-0.203-0.541c-0.046-0.18,0.044-0.474,0.271-0.879
				c0.856-1.262,1.623-2.976,2.3-5.14H313.892z M321.061,49.449c-0.586-0.045-0.902-0.361-0.946-0.947V35.855
				c0.044-0.585,0.36-0.901,0.946-0.947h6.831c0.585,0.045,0.901,0.361,0.946,0.947v12.647c-0.045,0.585-0.361,0.901-0.946,0.947
				H321.061z M321.602,36.666v2.638h5.749v-2.638c0-0.225-0.136-0.338-0.406-0.338h-4.937
				C321.738,36.328,321.602,36.441,321.602,36.666z M321.602,40.657v2.976h5.749v-2.976H321.602z M326.945,48.028
				c0.271,0,0.406-0.112,0.406-0.338v-2.705h-5.749v2.705c0,0.226,0.136,0.338,0.406,0.338H326.945z"/>
			<path class="st3" d="M332.287,38.83c-0.451-0.044-0.699-0.292-0.743-0.744c0.044-0.45,0.292-0.699,0.743-0.744h3.314
				c-0.181-0.225-0.497-0.653-0.947-1.285c-0.405-0.542-0.676-0.879-0.812-1.015c-0.226-0.36-0.158-0.699,0.203-1.015
				c0.406-0.18,0.788-0.112,1.149,0.203c0.18,0.181,0.541,0.632,1.082,1.353c0.45,0.586,0.744,0.947,0.88,1.082
				c0.18,0.181,0.225,0.406,0.135,0.676h2.503c0.314-0.406,0.946-1.285,1.894-2.638c0.18-0.225,0.292-0.382,0.338-0.473
				c0.314-0.36,0.698-0.45,1.149-0.271c0.45,0.271,0.563,0.608,0.339,1.014c-0.136,0.181-0.43,0.541-0.88,1.083
				c-0.451,0.586-0.767,1.014-0.946,1.285h3.449c0.45,0.045,0.698,0.294,0.743,0.744c-0.045,0.451-0.293,0.699-0.743,0.744h-5.613
				c0,0.722-0.046,1.669-0.136,2.841h6.628c0.495,0.045,0.766,0.293,0.812,0.744c-0.046,0.451-0.316,0.7-0.812,0.744h-6.357
				c0.991,2.661,3.179,4.396,6.561,5.208c0.495,0.225,0.652,0.609,0.474,1.15c-0.227,0.45-0.654,0.585-1.285,0.406
				c-3.473-1.082-5.704-2.863-6.695-5.343c-0.813,2.299-3.021,4.125-6.628,5.478c-0.632,0.225-1.038,0.112-1.218-0.338
				c-0.227-0.451-0.091-0.835,0.406-1.149c3.787-1.262,5.86-3.066,6.222-5.411h-6.087c-0.451-0.044-0.699-0.293-0.744-0.744
				c0.045-0.45,0.293-0.698,0.744-0.744h6.29c0.09-0.991,0.135-1.938,0.135-2.841H332.287z"/>
			<path class="st3" d="M348.655,36.666c-0.406-0.044-0.632-0.271-0.677-0.676c0.045-0.45,0.271-0.699,0.677-0.744h6.763
				c0.406,0.045,0.631,0.294,0.677,0.744c-0.046,0.406-0.271,0.632-0.677,0.676h-1.961v4.125h1.556
				c0.405,0.045,0.631,0.271,0.676,0.676c-0.045,0.451-0.271,0.7-0.676,0.744h-1.556v4.193c0.18-0.044,0.45-0.09,0.812-0.135
				c0.45-0.09,0.766-0.157,0.946-0.203c0.542-0.044,0.834,0.181,0.88,0.676c0.044,0.451-0.181,0.722-0.677,0.812
				c-0.496,0.091-1.42,0.249-2.772,0.473c-1.804,0.36-3.156,0.609-4.058,0.744c-0.451,0-0.744-0.226-0.88-0.676
				c-0.045-0.541,0.18-0.856,0.677-0.947c0.135,0,0.314-0.022,0.541-0.068v-7.236c0.044-0.45,0.271-0.699,0.676-0.744
				c0.45,0.045,0.699,0.294,0.744,0.744v7.034c0.541-0.044,1.104-0.135,1.691-0.271v-9.942H348.655z M354.876,40.454
				c-0.271-0.36-0.248-0.744,0.067-1.15c1.083-1.488,1.938-3.133,2.57-4.937c0.18-0.406,0.518-0.585,1.015-0.541
				c0.495,0.226,0.653,0.564,0.474,1.014c-0.271,0.722-0.564,1.353-0.88,1.894h5.546c0.406,0.045,0.631,0.293,0.677,0.744
				c-0.046,0.451-0.271,0.7-0.677,0.744h-0.879c-0.316,3.156-1.105,5.681-2.367,7.575c0.901,1.082,2.029,1.984,3.382,2.705
				c0.405,0.271,0.518,0.676,0.338,1.217c-0.316,0.45-0.722,0.541-1.218,0.271c-1.397-0.857-2.569-1.826-3.517-2.908
				c-0.946,1.083-2.188,2.074-3.72,2.976c-0.451,0.225-0.856,0.157-1.217-0.203c-0.271-0.451-0.181-0.857,0.271-1.217
				c1.577-0.812,2.817-1.758,3.72-2.84c-1.038-1.713-1.714-3.674-2.029-5.884c-0.045,0-0.067-0.044-0.067-0.136
				c-0.136,0.227-0.294,0.474-0.474,0.744C355.574,40.792,355.237,40.77,354.876,40.454z M357.65,38.222
				c-0.046,0-0.113-0.022-0.203-0.068c0.044,0.045,0.067,0.113,0.067,0.203c0.315,2.57,0.947,4.622,1.894,6.154
				c1.082-1.713,1.713-3.81,1.894-6.29H357.65z"/>
			<path class="st3" d="M365.901,40.386c-0.362-0.044-0.564-0.271-0.609-0.676c0.045-0.36,0.247-0.563,0.609-0.609h6.627v-0.406
				c0.09-0.496,0.36-0.766,0.813-0.812c0.45,0.045,0.698,0.316,0.743,0.812v0.406h6.695c0.36,0.045,0.563,0.249,0.609,0.609
				c-0.046,0.406-0.249,0.632-0.609,0.676h-6.695v1.353h4.938c0.676,0,1.015,0.338,1.015,1.015v1.488
				c0.044,1.127-0.52,1.714-1.691,1.758c-0.361,0-0.743,0-1.149,0s-0.654-0.18-0.744-0.541c-0.045-0.36,0.09-0.563,0.406-0.608
				c0.314,0,0.608,0,0.879,0c0.45,0.045,0.698-0.158,0.744-0.609v-0.879c0.044-0.179-0.067-0.292-0.338-0.338h-4.059v1.015
				c1.668,1.939,3.968,3.27,6.898,3.99c0.496,0.225,0.653,0.585,0.474,1.083c-0.181,0.45-0.564,0.585-1.149,0.406
				c-2.705-0.903-4.78-2.165-6.223-3.788v3.99c-0.091,0.45-0.338,0.699-0.743,0.744c-0.452-0.045-0.723-0.294-0.813-0.744v-3.99
				c-1.308,1.533-3.404,2.863-6.289,3.99c-0.497,0.18-0.879,0.044-1.149-0.406c-0.136-0.497,0.021-0.857,0.473-1.082
				c2.976-0.856,5.298-2.276,6.966-4.261v-0.947h-3.854c-0.271,0-0.406,0.135-0.406,0.406v1.894c-0.045,0.451-0.315,0.7-0.812,0.744
				c-0.451-0.09-0.699-0.338-0.743-0.744v-2.57c0-0.676,0.338-1.015,1.014-1.015h4.802v-1.353H365.901z M365.36,38.289
				c-0.316-0.271-0.316-0.585,0-0.947c1.172-1.037,2.073-2.141,2.705-3.314c0.225-0.406,0.563-0.541,1.015-0.406
				c0.449,0.181,0.585,0.474,0.405,0.879c-0.045,0.091-0.113,0.203-0.203,0.338c-0.091,0.181-0.158,0.316-0.202,0.406h3.922
				c0.36,0.045,0.563,0.249,0.609,0.609c-0.046,0.361-0.249,0.564-0.609,0.609h-4.869c-0.497,0.676-1.06,1.285-1.69,1.826
				C366.035,38.56,365.674,38.56,365.36,38.289z M370.905,38.628c-0.271,0.271-0.586,0.248-0.946-0.068
				c-0.046-0.09-0.181-0.247-0.406-0.473c-0.226-0.271-0.384-0.428-0.473-0.474c-0.271-0.271-0.271-0.541,0-0.812
				c0.314-0.225,0.631-0.225,0.946,0c0.496,0.497,0.788,0.812,0.879,0.947C371.22,38.019,371.22,38.313,370.905,38.628z
				 M373.542,37.816c-0.361-0.225-0.405-0.541-0.135-0.947c0.766-0.766,1.396-1.713,1.894-2.841c0.135-0.36,0.474-0.496,1.015-0.406
				c0.36,0.181,0.495,0.474,0.405,0.879l-0.338,0.744h4.464c0.405,0.045,0.631,0.249,0.676,0.609
				c-0.045,0.361-0.271,0.564-0.676,0.609h-5.275c-0.046,0.091-0.113,0.203-0.203,0.338c-0.181,0.226-0.429,0.541-0.744,0.947
				C374.263,38.064,373.903,38.087,373.542,37.816z M378.614,38.628c-0.361,0.271-0.676,0.271-0.946,0
				c-0.091-0.09-0.271-0.271-0.541-0.541c-0.271-0.315-0.451-0.496-0.541-0.541c-0.227-0.271-0.203-0.541,0.067-0.812
				c0.314-0.271,0.631-0.271,0.947,0c0.36,0.316,0.698,0.654,1.014,1.014C378.885,38.064,378.885,38.357,378.614,38.628z"/>
		</g>
	</g>
	<g>
		<g>
			<path class="st3" d="M34.777,118.164c-0.438-0.054-0.685-0.273-0.738-0.656c0-0.437,0.246-0.656,0.738-0.656h8.203v-0.902
				c0.054-0.546,0.355-0.847,0.902-0.902c0.602,0.055,0.93,0.356,0.984,0.902v0.902h8.367c0.382,0.055,0.602,0.274,0.656,0.656
				c-0.055,0.383-0.274,0.603-0.656,0.656h-8.367v1.23h5.66c0.656,0,0.984,0.301,0.984,0.902v2.051c0,0.603-0.328,0.902-0.984,0.902
				h-5.66v1.23h5.988c0.71,0,1.066,0.356,1.066,1.066v1.723h1.395c0.438,0,0.656,0.219,0.656,0.656
				c-0.055,0.383-0.274,0.603-0.656,0.656h-1.395v1.723c0,0.656-0.356,0.984-1.066,0.984h-5.988v0.574
				c0.109,1.858-0.793,2.816-2.707,2.871c-0.164,0-0.521,0-1.066,0c-0.603,0.054-1.039,0.082-1.313,0.082
				c-0.547-0.055-0.875-0.356-0.984-0.902c0.054-0.438,0.3-0.685,0.738-0.738c0.766,0,1.422,0,1.969,0
				c1.094,0.109,1.586-0.383,1.477-1.477v-0.41h-7.301c-0.383-0.054-0.603-0.273-0.656-0.656c0.054-0.328,0.273-0.519,0.656-0.574
				h7.301v-1.477h-8.367c-0.383-0.054-0.603-0.273-0.656-0.656c0-0.437,0.218-0.656,0.656-0.656h8.367v-1.559h-7.055
				c-0.328-0.054-0.521-0.246-0.574-0.574c0.054-0.382,0.246-0.601,0.574-0.656h7.055v-1.23h-5.578
				c-0.656,0-0.984-0.328-0.984-0.984v-1.887c0-0.656,0.328-0.984,0.984-0.984h5.578v-1.23H34.777z M38.222,120.871v0.902
				c0,0.164,0.109,0.274,0.328,0.328h4.43v-1.559h-4.43C38.331,120.543,38.222,120.653,38.222,120.871z M49.378,120.543h-4.512
				v1.559h4.512c0.218-0.054,0.328-0.164,0.328-0.328v-0.902C49.706,120.653,49.596,120.543,49.378,120.543z M49.624,125.711h-4.758
				v1.559h5.25v-1.066C50.116,125.875,49.952,125.711,49.624,125.711z M49.624,130.058c0.328,0,0.492-0.164,0.492-0.492v-0.984
				h-5.25v1.477H49.624z"/>
			<path class="st3" d="M55.859,133.832c-0.547-0.055-0.849-0.356-0.902-0.902c0.054-0.601,0.355-0.929,0.902-0.984h5.414v-15.75
				c0.054-0.546,0.382-0.847,0.984-0.902c0.602,0.055,0.93,0.356,0.984,0.902v15.75h3.363v-15.75
				c0.054-0.601,0.382-0.929,0.984-0.984c0.602,0.055,0.93,0.383,0.984,0.984v15.75h5.414c0.602,0.055,0.93,0.383,0.984,0.984
				c-0.055,0.546-0.383,0.847-0.984,0.902H55.859z M59.714,128.008c-0.603,0.11-1.013-0.082-1.23-0.574
				c-0.82-2.406-1.669-4.703-2.543-6.891c-0.11-0.546,0.082-0.929,0.574-1.148c0.602-0.109,1.012,0.082,1.23,0.574
				c0.328,0.931,0.874,2.407,1.641,4.43c0.438,1.095,0.738,1.887,0.902,2.379C60.398,127.38,60.206,127.79,59.714,128.008z
				 M69.968,127.926c-0.547-0.273-0.711-0.683-0.492-1.23c0.546-1.202,1.477-3.445,2.789-6.727c0.218-0.492,0.602-0.683,1.148-0.574
				c0.546,0.219,0.766,0.629,0.656,1.23c-0.164,0.438-0.438,1.122-0.82,2.051c-0.931,2.297-1.613,3.884-2.051,4.758
				C70.924,127.981,70.514,128.145,69.968,127.926z"/>
			<path class="st3" d="M79.073,127.515c-0.711-0.054-1.095-0.437-1.148-1.148v-6.891c0.054-0.765,0.438-1.175,1.148-1.23h3.035
				c-0.11-0.109-0.274-0.3-0.492-0.574c-0.492-0.601-0.82-0.984-0.984-1.148c-0.328-0.437-0.274-0.847,0.164-1.23
				c0.546-0.273,1.012-0.218,1.395,0.164c0.328,0.328,0.93,1.013,1.805,2.051c0.054,0.055,0.109,0.11,0.164,0.164
				c0.109,0.11,0.109,0.301,0,0.574h3.527c0.71-0.984,1.313-1.858,1.805-2.625c0.382-0.492,0.874-0.628,1.477-0.41
				c0.492,0.274,0.602,0.685,0.328,1.23c-0.055,0.11-0.192,0.301-0.41,0.574c-0.383,0.547-0.685,0.958-0.902,1.23h2.871
				c0.766,0,1.148,0.41,1.148,1.23v6.891c0,0.767-0.383,1.148-1.148,1.148h-5.906v2.133h8.285c0.546,0,0.82,0.274,0.82,0.82
				c-0.055,0.547-0.328,0.849-0.82,0.902h-8.285v2.953c-0.055,0.601-0.383,0.929-0.984,0.984c-0.603-0.055-0.931-0.383-0.984-0.984
				v-2.953h-8.285c-0.547-0.054-0.849-0.355-0.902-0.902c0.054-0.492,0.355-0.765,0.902-0.82h8.285v-2.133H79.073z M79.812,120.297
				v1.887h5.168v-2.297h-4.676C79.976,119.886,79.812,120.024,79.812,120.297z M79.812,125.465c0,0.274,0.164,0.41,0.492,0.41h4.676
				v-2.297h-5.168V125.465z M91.624,119.886h-4.676v2.297h5.168v-1.887C92.116,120.024,91.952,119.886,91.624,119.886z
				 M91.624,125.875c0.328,0,0.492-0.136,0.492-0.41v-1.887h-5.168v2.297H91.624z"/>
			<path class="st3" d="M97.284,125.793c-0.274-0.164-0.41-0.41-0.41-0.738c0-0.273,0.082-0.519,0.246-0.738
				c1.694-2.843,2.98-5.632,3.855-8.367c0.164-0.546,0.574-0.792,1.23-0.738c0.546,0.219,0.766,0.603,0.656,1.148
				c-0.055,0.164-0.164,0.438-0.328,0.82c-0.219,0.711-0.574,1.641-1.066,2.789v14.355c-0.055,0.601-0.356,0.929-0.902,0.984
				c-0.603-0.055-0.931-0.383-0.984-0.984v-10.5c-0.164,0.328-0.438,0.793-0.82,1.395c-0.055,0.11-0.11,0.192-0.164,0.246
				C98.322,125.957,97.886,126.067,97.284,125.793z M103.355,134.078c-0.547-0.055-0.849-0.356-0.902-0.902
				c0.054-0.547,0.355-0.847,0.902-0.902h6.398c1.366-3.718,2.461-6.973,3.281-9.762c0.328-0.546,0.766-0.765,1.313-0.656
				c0.546,0.219,0.766,0.629,0.656,1.23c-0.438,1.259-1.148,3.281-2.133,6.07c-0.492,1.477-0.849,2.516-1.066,3.117h4.43
				c0.546,0.055,0.848,0.355,0.902,0.902c-0.055,0.546-0.356,0.847-0.902,0.902H103.355z M103.847,120.625
				c-0.547-0.054-0.849-0.355-0.902-0.902c0.054-0.546,0.355-0.847,0.902-0.902h5.414c0-0.054-0.028-0.082-0.082-0.082
				c-0.055-0.218-0.192-0.656-0.41-1.313c-0.219-0.601-0.356-1.011-0.41-1.23c-0.164-0.601,0.082-0.956,0.738-1.066
				c0.602-0.054,1.012,0.164,1.23,0.656c0.164,0.438,0.464,1.313,0.902,2.625c0,0.164,0,0.301,0,0.41h4.594
				c0.546,0.055,0.848,0.356,0.902,0.902c-0.055,0.547-0.356,0.849-0.902,0.902H103.847z M107.702,130.715
				c-0.603,0.11-0.984-0.136-1.148-0.738c-0.383-1.257-1.039-3.445-1.969-6.562c-0.055-0.164-0.082-0.273-0.082-0.328
				c-0.219-0.546-0.028-0.956,0.574-1.23c0.602-0.109,1.012,0.11,1.23,0.656c0.218,0.603,0.273,0.793,0.164,0.574
				c0.984,2.953,1.641,5.059,1.969,6.316C108.55,130.058,108.304,130.497,107.702,130.715z"/>
			<path class="st3" d="M119.843,125.465c-0.656,0.328-1.203,0.274-1.641-0.164c-0.328-0.546-0.219-1.066,0.328-1.559
				c2.406-1.858,4.319-4.266,5.742-7.219c0.382-0.546,0.848-0.71,1.395-0.492c0.546,0.274,0.71,0.711,0.492,1.313
				C124.628,120.352,122.522,123.059,119.843,125.465z M122.14,133.832c-1.203,0.054-1.859-0.192-1.969-0.738
				c-0.219-0.547-0.028-1.148,0.574-1.805c1.969-2.022,3.855-4.594,5.66-7.711c0.438-0.601,0.93-0.765,1.477-0.492
				c0.656,0.383,0.792,0.849,0.41,1.395c-1.423,2.188-3.117,4.512-5.086,6.973c-0.055,0.11-0.082,0.219-0.082,0.328
				c0.054,0.055,0.136,0.082,0.246,0.082c0.328,0,0.792-0.027,1.395-0.082c3.227-0.054,5.77-0.136,7.629-0.246
				c-0.274-0.328-0.685-0.847-1.23-1.559c-0.656-0.874-1.148-1.503-1.477-1.887c-0.328-0.492-0.246-0.929,0.246-1.312
				c0.492-0.218,0.93-0.136,1.313,0.246c0.874,1.04,2.351,2.871,4.43,5.496c0.328,0.437,0.574,0.738,0.738,0.902
				c0.382,0.492,0.328,0.984-0.164,1.477c-0.492,0.273-1.013,0.191-1.559-0.246c-0.11-0.164-0.274-0.383-0.492-0.656
				c-0.219-0.328-0.383-0.574-0.492-0.738c-1.531,0.054-3.638,0.164-6.316,0.328C125.093,133.695,123.342,133.777,122.14,133.832z
				 M136.003,125.054c-2.844-2.187-4.977-4.922-6.398-8.203c-0.219-0.601-0.028-1.011,0.574-1.23
				c0.546-0.218,0.984-0.027,1.313,0.574c1.258,2.953,3.199,5.305,5.824,7.055c0.546,0.383,0.656,0.931,0.328,1.641
				C137.205,125.329,136.659,125.383,136.003,125.054z"/>
			<path class="st3" d="M140.761,118.328c-0.547-0.054-0.849-0.355-0.902-0.902c0.054-0.546,0.355-0.847,0.902-0.902h16.57
				c0.546,0.055,0.848,0.356,0.902,0.902c-0.055,0.547-0.356,0.849-0.902,0.902h-3.035v5.66h3.855
				c0.546,0.055,0.848,0.383,0.902,0.984c-0.055,0.547-0.356,0.849-0.902,0.902h-3.855v8.121c-0.055,0.656-0.41,1.011-1.066,1.066
				c-0.603-0.11-0.931-0.465-0.984-1.066v-8.121h-6.152c0.109,3.993-1.395,6.917-4.512,8.777c-0.656,0.437-1.203,0.41-1.641-0.082
				c-0.383-0.492-0.328-1.013,0.164-1.559c2.734-1.477,4.073-3.855,4.02-7.137h-4.348c-0.547-0.054-0.849-0.355-0.902-0.902
				c0-0.656,0.3-0.984,0.902-0.984h4.348v-5.66H140.761z M146.175,118.328v5.66h6.07v-5.66H146.175z"/>
			<path class="st3" d="M160.941,120.707c-0.547-0.054-0.849-0.355-0.902-0.902c0.109-0.546,0.41-0.847,0.902-0.902h1.723v-2.789
				c0.054-0.546,0.355-0.847,0.902-0.902c0.602,0,0.902,0.301,0.902,0.902v2.789h1.559c0.492,0.055,0.792,0.356,0.902,0.902
				c-0.055,0.547-0.356,0.849-0.902,0.902h-1.559v4.02c0.164-0.054,0.438-0.109,0.82-0.164c0.273-0.109,0.464-0.164,0.574-0.164
				c0.546-0.109,0.874,0.11,0.984,0.656c0.054,0.603-0.219,1.013-0.82,1.23c-0.164,0-0.383,0.055-0.656,0.164
				c-0.383,0.055-0.685,0.11-0.902,0.164v5.66c0.054,1.585-0.685,2.379-2.215,2.379c-0.164,0.054-0.521,0.082-1.066,0.082
				c-0.656-0.055-1.013-0.383-1.066-0.984c-0.055-0.492,0.191-0.793,0.738-0.902c0.109,0.054,0.382,0.082,0.82,0.082
				c0.71,0,1.038-0.383,0.984-1.148v-4.676c-0.11,0.055-0.301,0.11-0.574,0.164c-0.547,0.164-0.931,0.274-1.148,0.328
				c-0.547,0.11-0.902-0.136-1.066-0.738c0-0.656,0.273-1.066,0.82-1.23c0.273-0.054,0.766-0.164,1.477-0.328
				c0.218-0.054,0.382-0.082,0.492-0.082v-4.512H160.941z M173.327,124.398c-0.711-0.054-1.095-0.41-1.148-1.066
				c-0.055-0.601,0.246-0.902,0.902-0.902c0.602,0,1.258,0,1.969,0c1.148,0.11,1.723-0.41,1.723-1.559
				c0-0.109,0.027-0.273,0.082-0.492c0.054-0.929,0.082-1.667,0.082-2.215c0-0.273-0.137-0.41-0.41-0.41h-4.43
				c0,3.063-1.203,5.305-3.609,6.727c-0.547,0.328-1.013,0.274-1.395-0.164c-0.328-0.382-0.301-0.792,0.082-1.23
				c2.078-1.148,3.089-2.925,3.035-5.332h-2.379c-0.547-0.054-0.849-0.355-0.902-0.902c0.054-0.546,0.355-0.847,0.902-0.902h9.844
				c0.766,0.055,1.176,0.492,1.23,1.313c0,0.328-0.028,0.767-0.082,1.313c-0.055,1.095-0.11,2.024-0.164,2.789
				c0,1.969-0.984,2.953-2.953,2.953C175.268,124.371,174.476,124.398,173.327,124.398z M168.816,134.242
				c-0.767,0-1.148-0.383-1.148-1.148v-6.07c0.054-0.71,0.438-1.093,1.148-1.148h8.777c0.71,0.055,1.094,0.438,1.148,1.148v6.07
				c-0.055,0.71-0.438,1.093-1.148,1.148H168.816z M176.855,132.109v-4.102c0-0.273-0.164-0.41-0.492-0.41h-6.398
				c-0.274-0.054-0.41,0.082-0.41,0.41v4.102c0,0.328,0.136,0.464,0.41,0.41h6.398C176.691,132.519,176.855,132.384,176.855,132.109
				z"/>
			<path class="st3" d="M181.695,118c-0.438-0.054-0.685-0.3-0.738-0.738c0.054-0.492,0.3-0.765,0.738-0.82h6.563
				c0.438,0.055,0.684,0.328,0.738,0.82c-0.055,0.438-0.301,0.685-0.738,0.738h-0.41v11.402c0.109-0.054,0.246-0.082,0.41-0.082
				c0.218-0.054,0.355-0.082,0.41-0.082c0.438,0,0.71,0.246,0.82,0.738c-0.055,0.547-0.328,0.875-0.82,0.984
				c-0.055,0-0.164,0-0.328,0c-0.219,0.055-0.383,0.082-0.492,0.082v3.199c-0.055,0.492-0.301,0.765-0.738,0.82
				c-0.492-0.055-0.767-0.328-0.82-0.82v-2.953c-0.656,0.164-1.669,0.356-3.035,0.574c-0.656,0.11-1.121,0.192-1.395,0.246
				c-0.603,0.055-0.931-0.191-0.984-0.738c-0.11-0.492,0.109-0.82,0.656-0.984c0.109,0,0.218-0.027,0.328-0.082
				c0.109,0,0.191,0,0.246,0V118H181.695z M183.663,118v2.953h2.625V118H183.663z M183.663,122.429v2.953h2.625v-2.953H183.663z
				 M183.663,130.058c0.273-0.054,0.684-0.109,1.23-0.164c0.656-0.109,1.12-0.191,1.395-0.246v-2.871h-2.625V130.058z
				 M189.241,127.515c-0.438-0.054-0.685-0.3-0.738-0.738c0.054-0.437,0.3-0.683,0.738-0.738h11.074
				c0.438,0.055,0.684,0.301,0.738,0.738c-0.055,0.438-0.301,0.685-0.738,0.738h-7.547l-0.328,1.066c0,0.274,0.136,0.41,0.41,0.41
				h5.332c0.766,0,1.12,0.356,1.066,1.066c0,0.219-0.028,0.603-0.082,1.148c0,0.438,0,0.738,0,0.902
				c-0.055,1.641-1.013,2.461-2.871,2.461c-0.11,0-0.356,0-0.738,0c-0.875,0.054-1.531,0.054-1.969,0
				c-0.547,0.054-0.875-0.192-0.984-0.738c0-0.492,0.218-0.793,0.656-0.902c0.546,0.054,1.422,0.082,2.625,0.082
				c0.874,0.054,1.34-0.246,1.395-0.902c0.164-0.382,0.246-0.82,0.246-1.313c0.054-0.218-0.082-0.355-0.41-0.41h-5.66
				c-0.656-0.054-0.931-0.41-0.82-1.066l0.41-1.805H189.241z M190.882,124.644c-0.767-0.054-1.177-0.464-1.23-1.23v-5.168
				c0.054-0.765,0.464-1.175,1.23-1.23h3.117v-1.23c0.054-0.437,0.3-0.683,0.738-0.738c0.492,0.055,0.766,0.301,0.82,0.738v1.23
				h3.199c0.71,0.055,1.094,0.465,1.148,1.23v5.168c-0.055,0.767-0.438,1.177-1.148,1.23H190.882z M191.21,118.984v1.148h2.789
				v-1.641h-2.297C191.374,118.492,191.21,118.656,191.21,118.984z M191.21,122.758c0,0.328,0.164,0.492,0.492,0.492h2.297v-1.723
				h-2.789V122.758z M197.855,118.492h-2.297v1.641h2.789v-1.148C198.347,118.656,198.183,118.492,197.855,118.492z M197.855,123.25
				c0.328,0,0.492-0.164,0.492-0.492v-1.23h-2.789v1.723H197.855z"/>
			<path class="st3" d="M202.613,118.574c-0.438-0.054-0.685-0.328-0.738-0.82c0.054-0.437,0.3-0.683,0.738-0.738h8.613
				c-0.055-0.164-0.11-0.382-0.164-0.656c-0.11-0.164-0.164-0.273-0.164-0.328c-0.055-0.546,0.191-0.874,0.738-0.984
				c0.546-0.109,0.93,0.11,1.148,0.656c0,0.11,0.054,0.356,0.164,0.738c0.109,0.274,0.164,0.465,0.164,0.574h8.121
				c0.438,0.055,0.684,0.301,0.738,0.738c-0.055,0.492-0.301,0.767-0.738,0.82H202.613z M204.007,135.062
				c-0.547-0.055-0.849-0.356-0.902-0.902v-7.547c0-0.82,0.382-1.23,1.148-1.23h15.34c0.766,0.055,1.176,0.465,1.23,1.23v5.578
				c0.054,1.641-0.738,2.488-2.379,2.543c-0.767,0-1.559,0-2.379,0c-0.656,0-1.013-0.219-1.066-0.656
				c0-0.547,0.246-0.875,0.738-0.984c0.164,0,0.464,0.027,0.902,0.082c0.438,0,0.71,0,0.82,0c1.038,0.054,1.53-0.41,1.477-1.395
				v-4.43c0-0.328-0.164-0.492-0.492-0.492h-13.043c-0.274,0.055-0.438,0.219-0.492,0.492v6.809
				C204.855,134.706,204.553,135.007,204.007,135.062z M206.304,124.07c-0.656-0.054-1.013-0.437-1.066-1.148v-1.969
				c0.054-0.71,0.41-1.066,1.066-1.066h11.32c0.71,0,1.066,0.356,1.066,1.066v1.969c-0.055,0.711-0.41,1.095-1.066,1.148H206.304z
				 M216.476,122.758c0.218-0.054,0.328-0.164,0.328-0.328v-0.902c0-0.218-0.11-0.328-0.328-0.328h-9.105
				c-0.164,0-0.274,0.11-0.328,0.328v0.902c0.054,0.164,0.164,0.274,0.328,0.328H216.476z M208.519,132.601
				c-0.656,0-1.013-0.355-1.066-1.066v-2.215c0.054-0.71,0.41-1.066,1.066-1.066h6.809c0.766,0,1.148,0.356,1.148,1.066v2.215
				c0,0.711-0.383,1.066-1.148,1.066H208.519z M214.261,131.289c0.273-0.054,0.41-0.164,0.41-0.328v-1.066
				c0-0.273-0.137-0.41-0.41-0.41h-4.676c-0.274,0-0.41,0.137-0.41,0.41v1.066c0,0.164,0.136,0.274,0.41,0.328H214.261z"/>
			<path class="st3" d="M226.73,114.801c0.492,0.055,0.766,0.328,0.82,0.82v3.609h1.641c0.492,0.055,0.766,0.328,0.82,0.82
				c-0.055,0.492-0.328,0.767-0.82,0.82h-1.641v1.723c0.328-0.109,0.574-0.082,0.738,0.082c0.492,0.438,0.93,0.931,1.313,1.477
				c0.273,0.328,0.273,0.656,0,0.984c-0.438,0.383-0.82,0.383-1.148,0c-0.11-0.109-0.274-0.273-0.492-0.492
				c-0.164-0.273-0.301-0.464-0.41-0.574v10.582c0,0.546-0.301,0.82-0.902,0.82c-0.547-0.055-0.849-0.328-0.902-0.82v-10.008
				c-0.547,1.641-1.121,3.008-1.723,4.102c-0.383,0.492-0.793,0.492-1.23,0c-0.164-0.164-0.219-0.382-0.164-0.656
				c0-0.273,0.082-0.519,0.246-0.738c0.93-1.257,1.858-3.417,2.789-6.48h-1.887c-0.547-0.054-0.849-0.328-0.902-0.82
				c0.054-0.492,0.355-0.765,0.902-0.82h1.969v-3.609C225.799,115.129,226.127,114.856,226.73,114.801z M230.421,134.898
				c-0.656,0.273-1.148,0.164-1.477-0.328c-0.219-0.603-0.082-1.066,0.41-1.395c2.461-0.929,4.319-1.94,5.578-3.035
				c-1.095-1.148-1.969-2.57-2.625-4.266c-0.164-0.546,0-0.929,0.492-1.148c0.492-0.218,0.874-0.082,1.148,0.41
				c0.602,1.477,1.34,2.707,2.215,3.691c0.93-0.984,1.641-2.242,2.133-3.773c0.273-0.437,0.684-0.601,1.23-0.492
				c0.438,0.219,0.602,0.603,0.492,1.148c-0.603,1.751-1.449,3.228-2.543,4.43c1.366,1.148,3.117,2.051,5.25,2.707
				c0.492,0.273,0.628,0.71,0.41,1.313c-0.328,0.492-0.82,0.656-1.477,0.492c-2.188-0.875-4.02-1.942-5.496-3.199
				C234.74,132.71,232.827,133.859,230.421,134.898z M234.851,120.543c0.328,0.219,0.41,0.574,0.246,1.066
				c-0.875,1.148-2.188,2.598-3.938,4.348c-0.274,0.219-0.629,0.219-1.066,0c-0.328-0.382-0.383-0.765-0.164-1.148
				c1.694-1.694,2.953-3.089,3.773-4.184C233.976,120.352,234.359,120.325,234.851,120.543z M230.831,119.804
				c-0.492-0.054-0.767-0.355-0.82-0.902c0.054-0.492,0.328-0.765,0.82-0.82h5.004L235.753,118c0-0.054-0.055-0.191-0.164-0.41
				c-0.328-0.82-0.547-1.339-0.656-1.559c-0.055-0.546,0.136-0.902,0.574-1.066c0.656-0.164,1.066,0.055,1.23,0.656
				c0.218,0.438,0.492,1.066,0.82,1.887c0.109,0.219,0.109,0.41,0,0.574h4.512c0.546,0.055,0.848,0.328,0.902,0.82
				c-0.055,0.547-0.356,0.849-0.902,0.902H230.831z M242.644,125.383c-0.383,0.383-0.82,0.41-1.313,0.082
				c-1.367-1.477-2.598-2.679-3.691-3.609c-0.274-0.382-0.274-0.738,0-1.066c0.382-0.328,0.792-0.355,1.23-0.082
				c0.546,0.492,1.477,1.341,2.789,2.543c0.438,0.383,0.738,0.656,0.902,0.82C242.944,124.509,242.972,124.946,242.644,125.383z"/>
			<path class="st3" d="M244.859,130.386c-0.547-0.054-0.849-0.355-0.902-0.902c0.054-0.546,0.355-0.847,0.902-0.902h8.121v-1.887
				c0.054-0.546,0.382-0.847,0.984-0.902c0.602,0.055,0.93,0.356,0.984,0.902v1.887h8.121c0.492,0.055,0.766,0.356,0.82,0.902
				c-0.055,0.547-0.328,0.849-0.82,0.902h-8.121v3.938c-0.055,0.546-0.383,0.847-0.984,0.902c-0.603-0.055-0.931-0.356-0.984-0.902
				v-3.938H244.859z M248.058,125.875c-0.656,0.11-1.121,0.028-1.395-0.246c-0.164-0.164-0.274-0.574-0.328-1.23v-8.203
				c0.054-0.601,0.382-0.929,0.984-0.984c0.546,0.055,0.848,0.383,0.902,0.984v2.133h4.348c0.492,0.055,0.766,0.328,0.82,0.82
				c0,0.492-0.274,0.767-0.82,0.82h-4.348v3.445c0.054,0.328,0.246,0.465,0.574,0.41c0.328-0.054,0.848-0.191,1.559-0.41
				c0.93-0.273,1.641-0.464,2.133-0.574c0.602-0.164,0.956,0.055,1.066,0.656c0.109,0.547-0.137,0.902-0.738,1.066
				c-0.274,0.11-0.82,0.246-1.641,0.41C249.752,125.356,248.714,125.657,248.058,125.875z M257.327,125.793
				c-1.805,0.11-2.68-0.82-2.625-2.789v-6.973c0.054-0.546,0.355-0.847,0.902-0.902c0.602,0.055,0.93,0.356,0.984,0.902v3.281
				c2.242-0.929,3.855-1.694,4.84-2.297c0.602-0.164,1.038-0.054,1.313,0.328c0.273,0.438,0.191,0.849-0.246,1.23
				c-0.11,0.055-0.301,0.137-0.574,0.246c-2.461,1.148-4.238,1.915-5.332,2.297v1.477c-0.055,1.095,0.382,1.587,1.313,1.477h2.297
				c0.874,0.055,1.366-0.328,1.477-1.148c0-0.218,0.054-0.71,0.164-1.477c0.164-0.601,0.52-0.847,1.066-0.738
				c0.546,0.11,0.792,0.492,0.738,1.148c0,0.055,0,0.164,0,0.328c-0.11,0.711-0.219,1.204-0.328,1.477
				c-0.219,1.423-1.148,2.133-2.789,2.133H257.327z"/>
			<path class="st3" d="M265.859,133.832c-0.547-0.055-0.849-0.356-0.902-0.902c0.054-0.601,0.355-0.929,0.902-0.984h5.414v-15.75
				c0.054-0.546,0.382-0.847,0.984-0.902c0.602,0.055,0.93,0.356,0.984,0.902v15.75h3.363v-15.75
				c0.054-0.601,0.382-0.929,0.984-0.984c0.602,0.055,0.93,0.383,0.984,0.984v15.75h5.414c0.602,0.055,0.93,0.383,0.984,0.984
				c-0.055,0.546-0.383,0.847-0.984,0.902H265.859z M269.714,128.008c-0.603,0.11-1.013-0.082-1.23-0.574
				c-0.82-2.406-1.669-4.703-2.543-6.891c-0.11-0.546,0.082-0.929,0.574-1.148c0.602-0.109,1.012,0.082,1.23,0.574
				c0.328,0.931,0.874,2.407,1.641,4.43c0.438,1.095,0.738,1.887,0.902,2.379C270.398,127.38,270.206,127.79,269.714,128.008z
				 M279.968,127.926c-0.547-0.273-0.711-0.683-0.492-1.23c0.546-1.202,1.477-3.445,2.789-6.727
				c0.218-0.492,0.602-0.683,1.148-0.574c0.546,0.219,0.766,0.629,0.656,1.23c-0.164,0.438-0.438,1.122-0.82,2.051
				c-0.931,2.297-1.613,3.884-2.051,4.758C280.924,127.981,280.514,128.145,279.968,127.926z"/>
			<path class="st3" d="M286.859,124.48c-0.438-0.437-0.521-0.902-0.246-1.395c1.422-1.858,2.543-3.938,3.363-6.234
				c0.164-0.546,0.574-0.792,1.23-0.738c0.656,0.219,0.874,0.603,0.656,1.148c-0.219,0.711-0.492,1.423-0.82,2.133h4.43v-3.445
				c0.054-0.601,0.382-0.929,0.984-0.984c0.602,0.055,0.93,0.383,0.984,0.984v3.445h6.727c0.546,0.055,0.848,0.356,0.902,0.902
				c-0.055,0.547-0.356,0.849-0.902,0.902h-6.727v4.348h6.07c0.546,0.055,0.848,0.356,0.902,0.902
				c-0.055,0.547-0.356,0.849-0.902,0.902h-6.07v4.758h7.711c0.546,0.055,0.848,0.382,0.902,0.984
				c-0.055,0.546-0.356,0.847-0.902,0.902h-18.129c-0.547-0.055-0.849-0.356-0.902-0.902c0.054-0.603,0.355-0.929,0.902-0.984h8.449
				v-4.758h-6.48c-0.547-0.054-0.849-0.355-0.902-0.902c0.054-0.546,0.355-0.847,0.902-0.902h6.48v-4.348h-5.332
				c-0.767,1.423-1.367,2.407-1.805,2.953C287.897,124.699,287.405,124.808,286.859,124.48z"/>
			<path class="st3" d="M309.089,118.902c-0.603-0.054-0.931-0.382-0.984-0.984c0.054-0.601,0.382-0.929,0.984-0.984h15.586
				c0.602,0.055,0.93,0.383,0.984,0.984c-0.055,0.603-0.383,0.931-0.984,0.984h-6.645v12.715h7.793
				c0.602,0.055,0.93,0.383,0.984,0.984c-0.055,0.601-0.383,0.929-0.984,0.984h-17.883c-0.603-0.055-0.931-0.383-0.984-0.984
				c0.109-0.601,0.438-0.929,0.984-0.984h7.957v-12.715H309.089z"/>
			<path class="st3" d="M328.202,126.121c-0.219-0.164-0.328-0.41-0.328-0.738c0-0.273,0.054-0.519,0.164-0.738
				c1.694-2.625,3.063-5.55,4.102-8.777c0.218-0.546,0.628-0.765,1.23-0.656c0.546,0.164,0.766,0.547,0.656,1.148
				c-0.383,1.313-0.875,2.571-1.477,3.773v14.191c-0.055,0.546-0.356,0.847-0.902,0.902c-0.547-0.055-0.849-0.356-0.902-0.902v-10.5
				c-0.11,0.164-0.246,0.383-0.41,0.656c-0.383,0.603-0.656,1.04-0.82,1.313C329.187,126.285,328.748,126.395,328.202,126.121z
				 M334.109,124.234c-0.492-0.382-0.547-0.847-0.164-1.395c1.366-1.914,2.543-4.21,3.527-6.891c0.218-0.546,0.628-0.792,1.23-0.738
				c0.546,0.164,0.766,0.547,0.656,1.148c-0.055,0.219-0.192,0.547-0.41,0.984c-0.164,0.438-0.301,0.767-0.41,0.984h8.695
				c0.546,0.055,0.848,0.328,0.902,0.82c-0.055,0.603-0.356,0.931-0.902,0.984h-6.316v3.281h5.25
				c0.492,0.055,0.766,0.356,0.82,0.902c-0.055,0.492-0.328,0.767-0.82,0.82h-5.25v3.363h5.824c0.492,0.055,0.766,0.356,0.82,0.902
				c-0.055,0.547-0.328,0.849-0.82,0.902h-5.824v3.938c-0.055,0.601-0.383,0.929-0.984,0.984c-0.547-0.055-0.849-0.383-0.902-0.984
				v-14.109h-1.313c-0.656,1.368-1.367,2.625-2.133,3.773C335.093,124.509,334.601,124.617,334.109,124.234z"/>
			<path class="st3" d="M34.038,165.383c-0.164-0.109-0.246-0.3-0.246-0.574c0-0.328,0.082-0.656,0.246-0.984
				c1.258-2.078,2.324-4.703,3.199-7.875c0.218-0.546,0.602-0.792,1.148-0.738c0.546,0.164,0.766,0.521,0.656,1.066
				c-0.11,0.274-0.219,0.656-0.328,1.148c-0.383,1.095-0.685,1.915-0.902,2.461v14.438c-0.055,0.492-0.356,0.765-0.902,0.82
				c-0.492-0.055-0.767-0.328-0.82-0.82v-10.582c-0.055,0.164-0.192,0.41-0.41,0.738c-0.164,0.328-0.301,0.574-0.41,0.738
				C34.941,165.657,34.53,165.711,34.038,165.383z M39.37,160.871c-0.492-0.054-0.767-0.328-0.82-0.82
				c0.054-0.492,0.328-0.765,0.82-0.82h2.215v-3.199c0.054-0.546,0.355-0.847,0.902-0.902c0.546,0.055,0.848,0.356,0.902,0.902
				v3.199h2.051c0.492,0.055,0.766,0.328,0.82,0.82c0,0.492-0.274,0.767-0.82,0.82H43.39v3.691h0.984
				c0.71,0.055,1.094,0.438,1.148,1.148v6.234c-0.055,0.71-0.438,1.093-1.148,1.148h-3.773c-0.767-0.055-1.177-0.438-1.23-1.148
				v-6.234c0.054-0.71,0.464-1.093,1.23-1.148h0.984v-3.691H39.37z M41.093,166.531v4.594c0,0.274,0.136,0.41,0.41,0.41h1.969
				c0.273,0,0.41-0.136,0.41-0.41v-4.594c-0.055-0.273-0.192-0.41-0.41-0.41h-1.969C41.229,166.121,41.093,166.258,41.093,166.531z
				 M45.687,164.398c-0.383-0.273-0.438-0.683-0.164-1.23c1.148-2.187,2.051-4.621,2.707-7.301c0.273-0.546,0.656-0.792,1.148-0.738
				c0.492,0.11,0.71,0.465,0.656,1.066c-0.274,0.931-0.574,1.86-0.902,2.789h4.102c0.492,0.055,0.766,0.328,0.82,0.82
				c-0.055,0.492-0.328,0.767-0.82,0.82h-0.41c-0.219,3.72-0.902,6.727-2.051,9.023c0.71,1.095,1.641,2.133,2.789,3.117
				c0.492,0.437,0.574,0.956,0.246,1.559c-0.383,0.437-0.849,0.492-1.395,0.164c-1.039-0.984-1.915-2.024-2.625-3.117
				c-0.547,0.875-1.559,2.022-3.035,3.445c-0.438,0.328-0.902,0.273-1.395-0.164c-0.328-0.492-0.274-0.958,0.164-1.395
				c1.366-1.148,2.461-2.379,3.281-3.691c-0.875-1.585-1.423-3.554-1.641-5.906c-0.055,0.164-0.137,0.301-0.246,0.41
				C46.589,164.617,46.179,164.726,45.687,164.398z M48.558,160.625c0,0.055-0.028,0.11-0.082,0.164c0,0.055-0.028,0.11-0.082,0.164
				c0,0.055,0,0.11,0,0.164c0.164,2.68,0.628,4.868,1.395,6.563c0.766-1.858,1.23-4.21,1.395-7.055H48.558z"/>
			<path class="st3" d="M54.792,160.051c0-0.546,0.246-0.82,0.738-0.82h1.723c0.273-1.202,0.438-2.379,0.492-3.527
				c0.164-0.656,0.546-0.956,1.148-0.902c0.546,0.164,0.82,0.521,0.82,1.066c-0.164,1.148-0.356,2.27-0.574,3.363h2.543
				c0.71,0.055,1.038,0.492,0.984,1.313c-0.438,3.773-1.039,6.591-1.805,8.449c1.038,0.82,1.969,1.587,2.789,2.297
				c0.438,0.438,0.438,0.902,0,1.395c-0.383,0.382-0.849,0.41-1.395,0.082c-0.328-0.328-0.984-0.956-1.969-1.887
				c0.71,0.656,0.602,0.574-0.328-0.246c-0.656,1.204-1.833,2.488-3.527,3.855c-0.492,0.382-0.957,0.41-1.395,0.082
				c-0.219-0.438-0.219-0.849,0-1.23c1.53-1.257,2.707-2.57,3.527-3.938c-0.219-0.218-0.574-0.519-1.066-0.902
				c-0.383-0.273-0.656-0.492-0.82-0.656c-0.603-0.601-0.82-1.313-0.656-2.133c0.328-1.477,0.656-3.089,0.984-4.84h-1.395
				C55.12,160.817,54.846,160.543,54.792,160.051z M58.155,166.777c0.438,0.328,0.848,0.656,1.23,0.984
				c0.71-1.641,1.148-3.827,1.313-6.563c0-0.218-0.11-0.328-0.328-0.328h-1.477c-0.11,0.603-0.301,1.45-0.574,2.543
				c-0.219,1.095-0.383,1.887-0.492,2.379C57.773,166.285,57.881,166.613,58.155,166.777z M63.898,166.039
				c-0.547-0.054-0.849-0.382-0.902-0.984c0.054-0.546,0.355-0.847,0.902-0.902h4.512v-1.313c0-0.82,0.191-1.448,0.574-1.887
				l2.543-2.297c0.109-0.273,0.054-0.437-0.164-0.492h-6.809c-0.547-0.054-0.849-0.355-0.902-0.902
				c0.054-0.546,0.355-0.847,0.902-0.902h8.777c0.546,0.055,0.874,0.328,0.984,0.82c0.109,0.547-0.055,1.04-0.492,1.477
				l-3.035,2.953c-0.274,0.383-0.41,0.767-0.41,1.148v1.395h3.938c0.546,0.055,0.848,0.356,0.902,0.902
				c0,0.656-0.301,0.984-0.902,0.984h-3.938v5.906c0.054,1.805-0.849,2.707-2.707,2.707c-0.82,0-1.587,0-2.297,0
				c-0.656,0.054-1.013-0.246-1.066-0.902c0.054-0.603,0.355-0.931,0.902-0.984c0.546,0,1.148,0,1.805,0
				c0.984,0.054,1.448-0.41,1.395-1.395v-5.332H63.898z"/>
			<path class="st3" d="M79.155,171.453h6.48c0.766-0.054,1.12,0.246,1.066,0.902c0,0.601-0.356,0.902-1.066,0.902h-7.465
				c-0.931,0-1.395-0.438-1.395-1.313c0-0.601,0.136-1.148,0.41-1.641c0.82-1.694,2.433-3.609,4.84-5.742
				c1.805-1.421,2.652-2.761,2.543-4.02c-0.11-1.477-0.984-2.242-2.625-2.297c-1.695,0-2.735,0.793-3.117,2.379
				c-0.164,0.984-0.547,1.395-1.148,1.23c-0.603-0.109-0.849-0.574-0.738-1.395c0.546-2.57,2.215-3.909,5.004-4.02
				c2.953,0.11,4.457,1.477,4.512,4.102c0.109,1.86-0.984,3.691-3.281,5.496c-2.133,1.915-3.556,3.583-4.266,5.004
				C78.855,171.317,78.937,171.453,79.155,171.453z"/>
			<path class="st3" d="M94.331,156.441c3.335,0.164,5.086,3.035,5.25,8.613c-0.11,5.688-1.859,8.558-5.25,8.613
				c-3.392-0.164-5.114-3.035-5.168-8.613C89.273,159.423,90.995,156.552,94.331,156.441z M94.331,158.246
				c-2.079,0.11-3.172,2.379-3.281,6.809c0.054,4.376,1.148,6.645,3.281,6.809c2.187-0.109,3.309-2.379,3.363-6.809
				C97.584,160.68,96.464,158.41,94.331,158.246z"/>
			<path class="st3" d="M104.257,171.453h6.48c0.766-0.054,1.12,0.246,1.066,0.902c0,0.601-0.356,0.902-1.066,0.902h-7.465
				c-0.931,0-1.395-0.438-1.395-1.313c0-0.601,0.136-1.148,0.41-1.641c0.82-1.694,2.433-3.609,4.84-5.742
				c1.805-1.421,2.652-2.761,2.543-4.02c-0.11-1.477-0.984-2.242-2.625-2.297c-1.695,0-2.735,0.793-3.117,2.379
				c-0.164,0.984-0.547,1.395-1.148,1.23c-0.603-0.109-0.849-0.574-0.738-1.395c0.546-2.57,2.215-3.909,5.004-4.02
				c2.953,0.11,4.457,1.477,4.512,4.102c0.109,1.86-0.984,3.691-3.281,5.496c-2.133,1.915-3.556,3.583-4.266,5.004
				C103.956,171.317,104.038,171.453,104.257,171.453z"/>
			<path class="st3" d="M119.433,156.441c3.335,0.164,5.086,3.035,5.25,8.613c-0.11,5.688-1.859,8.558-5.25,8.613
				c-3.392-0.164-5.114-3.035-5.168-8.613C114.374,159.423,116.097,156.552,119.433,156.441z M119.433,158.246
				c-2.079,0.11-3.172,2.379-3.281,6.809c0.054,4.376,1.148,6.645,3.281,6.809c2.187-0.109,3.309-2.379,3.363-6.809
				C122.686,160.68,121.566,158.41,119.433,158.246z"/>
			<path class="st3" d="M126.734,174.57c-0.438-0.383-0.521-0.849-0.246-1.395c0.71-1.313,1.176-2.652,1.395-4.02
				c0.218-1.421,0.328-3.554,0.328-6.398v-5.496c0.054-0.71,0.438-1.093,1.148-1.148h14.355c0.766,0,1.148,0.383,1.148,1.148v3.281
				c-0.055,0.711-0.438,1.095-1.148,1.148h-13.699v1.066c0,3.063-0.137,5.36-0.41,6.891c-0.219,1.587-0.738,3.117-1.559,4.594
				C127.718,174.734,127.28,174.843,126.734,174.57z M130.015,158.246v1.805h12.633c0.273,0,0.41-0.136,0.41-0.41v-1.477
				c0-0.273-0.137-0.41-0.41-0.41h-12.141C130.179,157.754,130.015,157.918,130.015,158.246z M132.558,174.242
				c-0.711-0.055-1.095-0.438-1.148-1.148v-7.793c0.054-0.71,0.438-1.093,1.148-1.148h4.594v-1.23
				c0.054-0.546,0.355-0.847,0.902-0.902c0.546,0.055,0.848,0.356,0.902,0.902v1.23h4.594c0.71,0.055,1.094,0.465,1.148,1.23v7.711
				c-0.055,0.71-0.438,1.093-1.148,1.148H132.558z M133.214,166.121v2.379h3.938v-2.789h-3.527
				C133.35,165.711,133.214,165.848,133.214,166.121z M133.214,172.355c0,0.273,0.136,0.41,0.41,0.41h3.527v-2.871h-3.938V172.355z
				 M142.484,165.711h-3.527v2.789h3.938v-2.379C142.894,165.848,142.757,165.711,142.484,165.711z M142.484,172.765
				c0.273,0,0.41-0.137,0.41-0.41v-2.461h-3.938v2.871H142.484z"/>
			<path class="st3" d="M148.8,163.824c-0.656,0.274-1.148,0.137-1.477-0.41c-0.274-0.546-0.137-0.984,0.41-1.313
				c3.391-1.694,6.042-3.691,7.957-5.988c0.546-0.601,1.038-0.874,1.477-0.82c0.492,0,0.984,0.274,1.477,0.82
				c1.805,2.461,4.43,4.376,7.875,5.742c0.546,0.328,0.71,0.793,0.492,1.395c-0.383,0.603-0.902,0.738-1.559,0.41
				c-3.392-1.53-6.07-3.527-8.039-5.988c-0.164-0.164-0.328-0.164-0.492,0C154.898,160.079,152.191,162.13,148.8,163.824z
				 M151.753,164.316c-0.547-0.054-0.849-0.355-0.902-0.902c0.054-0.546,0.355-0.847,0.902-0.902h10.828
				c0.546,0.055,0.848,0.356,0.902,0.902c-0.055,0.547-0.356,0.849-0.902,0.902h-4.43v2.871h5.66
				c0.546,0.055,0.848,0.356,0.902,0.902c-0.055,0.547-0.356,0.849-0.902,0.902h-5.66v3.199h7.465
				c0.546,0.055,0.848,0.355,0.902,0.902c-0.055,0.546-0.356,0.847-0.902,0.902h-16.98c-0.547-0.055-0.849-0.356-0.902-0.902
				c0.054-0.547,0.355-0.847,0.902-0.902h7.465v-3.199h-5.578c-0.547-0.054-0.849-0.355-0.902-0.902
				c0.054-0.546,0.355-0.847,0.902-0.902h5.578v-2.871H151.753z"/>
			<path class="st3" d="M170.374,174.324c-0.711-0.055-1.095-0.438-1.148-1.148v-15.996c0.054-0.71,0.438-1.093,1.148-1.148h15.586
				c0.71,0.055,1.094,0.438,1.148,1.148v15.996c-0.055,0.71-0.438,1.093-1.148,1.148H170.374z M184.73,172.601
				c0.273,0,0.41-0.137,0.41-0.41v-14.027c0-0.273-0.137-0.41-0.41-0.41h-13.125c-0.328,0-0.492,0.137-0.492,0.41v14.027
				c0,0.273,0.164,0.41,0.492,0.41H184.73z M172.835,161.281c-0.438-0.054-0.685-0.328-0.738-0.82c0.054-0.492,0.3-0.765,0.738-0.82
				h10.5c0.546,0,0.82,0.274,0.82,0.82c-0.055,0.492-0.328,0.767-0.82,0.82h-4.43v2.379h4.102c0.492,0.055,0.766,0.301,0.82,0.738
				c0,0.492-0.274,0.767-0.82,0.82h-4.102v3.527h4.758c0.492,0.055,0.766,0.328,0.82,0.82c-0.055,0.492-0.328,0.767-0.82,0.82
				h-10.992c-0.492-0.054-0.767-0.328-0.82-0.82c0.054-0.492,0.328-0.765,0.82-0.82h4.43v-3.527h-3.773
				c-0.492-0.054-0.767-0.328-0.82-0.82c0.054-0.437,0.328-0.683,0.82-0.738h3.773v-2.379H172.835z M182.761,168.254
				c-0.328,0.328-0.685,0.328-1.066,0c-0.711-0.71-1.203-1.175-1.477-1.395c-0.274-0.328-0.274-0.656,0-0.984
				c0.273-0.273,0.602-0.273,0.984,0c0.164,0.11,0.438,0.328,0.82,0.656c0.438,0.383,0.71,0.629,0.82,0.738
				C183.061,167.544,183.034,167.872,182.761,168.254z"/>
			<path class="st3" d="M190.472,158.82c-0.438-0.054-0.685-0.3-0.738-0.738c0.054-0.437,0.3-0.683,0.738-0.738h4.84
				c-0.11-0.109-0.301-0.328-0.574-0.656c-0.219-0.273-0.356-0.437-0.41-0.492c-0.219-0.492-0.082-0.847,0.41-1.066
				c0.546-0.218,0.984-0.109,1.313,0.328c0.109,0.11,0.3,0.328,0.574,0.656c0.328,0.383,0.546,0.629,0.656,0.738
				c0.054,0.164,0.082,0.328,0.082,0.492h3.609c0.109-0.164,0.273-0.382,0.492-0.656c0.438-0.546,0.738-0.956,0.902-1.23
				c0.273-0.382,0.71-0.492,1.313-0.328c0.492,0.274,0.628,0.629,0.41,1.066c-0.055,0.11-0.164,0.246-0.328,0.41
				c-0.055,0.164-0.246,0.41-0.574,0.738h4.594c0.492,0,0.738,0.246,0.738,0.738s-0.246,0.738-0.738,0.738h-5.414v4.102h6.07
				c0.492,0.055,0.766,0.301,0.82,0.738c-0.055,0.438-0.328,0.685-0.82,0.738h-18.539c-0.492-0.054-0.767-0.3-0.82-0.738
				c0.054-0.437,0.328-0.683,0.82-0.738h5.988v-4.102H190.472z M194.081,162.183c-0.438,0.328-0.849,0.301-1.23-0.082
				c-0.055-0.054-0.219-0.218-0.492-0.492c-0.438-0.492-0.738-0.82-0.902-0.984c-0.274-0.437-0.219-0.792,0.164-1.066
				c0.328-0.328,0.71-0.3,1.148,0.082c0.218,0.164,0.574,0.492,1.066,0.984c0.164,0.219,0.273,0.356,0.328,0.41
				C194.491,161.418,194.463,161.802,194.081,162.183z M193.015,174.324c-0.767,0-1.148-0.41-1.148-1.23v-5.824
				c0-0.82,0.382-1.23,1.148-1.23h12.305c0.766,0,1.148,0.41,1.148,1.23v5.824c0,0.82-0.383,1.23-1.148,1.23H193.015z
				 M193.753,167.926v1.477h10.828v-1.477c0-0.273-0.137-0.41-0.41-0.41h-10.008C193.889,167.515,193.753,167.653,193.753,167.926z
				 M204.171,172.847c0.273,0,0.41-0.137,0.41-0.41v-1.723h-10.828v1.723c0,0.273,0.136,0.41,0.41,0.41H204.171z M197.773,158.82
				v4.102h2.789v-4.102H197.773z M204.171,162.265c-0.383-0.382-0.41-0.765-0.082-1.148c0.492-0.492,0.956-0.956,1.395-1.395
				c0.438-0.382,0.848-0.41,1.23-0.082c0.438,0.328,0.492,0.685,0.164,1.066c-0.11,0.11-0.274,0.246-0.492,0.41
				c-0.492,0.547-0.82,0.902-0.984,1.066C204.963,162.511,204.553,162.54,204.171,162.265z"/>
			<path class="st3" d="M229.027,174.406c-3.664,0-7.137-0.055-10.418-0.164c-2.079,0.054-3.638-0.603-4.676-1.969
				c-0.219-0.273-0.438-0.3-0.656-0.082c-0.711,0.874-1.23,1.53-1.559,1.969c-0.438,0.437-0.902,0.437-1.395,0
				c-0.328-0.492-0.301-0.984,0.082-1.477c0.218-0.219,0.574-0.601,1.066-1.148c0.492-0.492,0.848-0.847,1.066-1.066v-5.988
				c0-0.328-0.137-0.492-0.41-0.492h-1.23c-0.438-0.054-0.685-0.355-0.738-0.902c0.054-0.546,0.328-0.847,0.82-0.902h2.297
				c0.71,0,1.066,0.383,1.066,1.148v6.973c1.038,1.587,2.625,2.351,4.758,2.297c3.063,0.109,6.452,0.109,10.172,0
				c0.656,0.054,0.956,0.382,0.902,0.984C230.065,174.132,229.683,174.406,229.027,174.406z M214.999,159.886
				c-0.656,0.274-1.121,0.164-1.395-0.328c-0.164-0.218-0.521-0.628-1.066-1.23c-0.492-0.601-0.849-1.011-1.066-1.23
				c-0.219-0.546-0.137-0.929,0.246-1.148c0.492-0.328,0.93-0.273,1.313,0.164c0.164,0.164,0.52,0.547,1.066,1.148
				c0.546,0.656,0.93,1.095,1.148,1.313C215.463,159.066,215.381,159.505,214.999,159.886z M217.46,171.781
				c-0.547-0.054-0.849-0.355-0.902-0.902v-9.27c0-0.71,0.382-1.066,1.148-1.066h3.609c-0.219-0.109-0.603-0.328-1.148-0.656
				c-0.767-0.437-1.313-0.738-1.641-0.902c-0.328-0.273-0.383-0.574-0.164-0.902c0.328-0.273,0.738-0.328,1.23-0.164
				c0.382,0.219,0.52,0.301,0.41,0.246c1.094,0.603,1.94,1.066,2.543,1.395l2.953-1.641c0.054-0.054,0.082-0.109,0.082-0.164
				c0-0.054-0.055-0.082-0.164-0.082h-8.695c-0.438-0.054-0.685-0.328-0.738-0.82c0-0.437,0.246-0.656,0.738-0.656h11.156
				c0.492,0.055,0.766,0.301,0.82,0.738c0,0.656-0.246,1.066-0.738,1.23l-4.102,2.379h3.855c0.766,0,1.148,0.356,1.148,1.066v7.629
				c0.109,1.532-0.603,2.297-2.133,2.297c-0.328,0.055-0.82,0.082-1.477,0.082c-0.492-0.054-0.793-0.3-0.902-0.738
				c-0.055-0.437,0.109-0.683,0.492-0.738c0.109,0,0.3,0.028,0.574,0.082c0.273,0,0.438,0,0.492,0
				c0.874,0.055,1.284-0.41,1.23-1.395v-0.492h-3.527v2.215c-0.055,0.547-0.356,0.849-0.902,0.902
				c-0.547-0.054-0.849-0.355-0.902-0.902v-2.215h-3.527v2.543C218.226,171.426,217.952,171.727,217.46,171.781z M218.28,162.429
				v1.395h3.527v-1.887h-2.871C218.498,161.937,218.28,162.101,218.28,162.429z M218.28,165.136v1.887h3.527v-1.887H218.28z
				 M226.566,161.937h-2.953v1.887h3.527v-1.395C227.14,162.101,226.947,161.937,226.566,161.937z M223.613,165.136v1.887h3.527
				v-1.887H223.613z"/>
			<path class="st3" d="M231.816,158.574c-0.438-0.054-0.685-0.328-0.738-0.82c0.054-0.437,0.3-0.683,0.738-0.738h8.613
				c-0.055-0.164-0.11-0.382-0.164-0.656c-0.11-0.164-0.164-0.273-0.164-0.328c-0.055-0.546,0.191-0.874,0.738-0.984
				c0.546-0.109,0.93,0.11,1.148,0.656c0,0.11,0.054,0.356,0.164,0.738c0.109,0.274,0.164,0.465,0.164,0.574h8.121
				c0.438,0.055,0.684,0.301,0.738,0.738c-0.055,0.492-0.301,0.767-0.738,0.82H231.816z M233.21,175.062
				c-0.547-0.055-0.849-0.356-0.902-0.902v-7.547c0-0.82,0.382-1.23,1.148-1.23h15.34c0.766,0.055,1.176,0.465,1.23,1.23v5.578
				c0.054,1.641-0.738,2.488-2.379,2.543c-0.767,0-1.559,0-2.379,0c-0.656,0-1.013-0.219-1.066-0.656
				c0-0.547,0.246-0.875,0.738-0.984c0.164,0,0.464,0.027,0.902,0.082c0.438,0,0.71,0,0.82,0c1.038,0.054,1.53-0.41,1.477-1.395
				v-4.43c0-0.328-0.164-0.492-0.492-0.492h-13.043c-0.274,0.055-0.438,0.219-0.492,0.492v6.809
				C234.058,174.706,233.756,175.007,233.21,175.062z M235.507,164.07c-0.656-0.054-1.013-0.437-1.066-1.148v-1.969
				c0.054-0.71,0.41-1.066,1.066-1.066h11.32c0.71,0,1.066,0.356,1.066,1.066v1.969c-0.055,0.711-0.41,1.095-1.066,1.148H235.507z
				 M245.679,162.758c0.218-0.054,0.328-0.164,0.328-0.328v-0.902c0-0.218-0.11-0.328-0.328-0.328h-9.105
				c-0.164,0-0.274,0.11-0.328,0.328v0.902c0.054,0.164,0.164,0.274,0.328,0.328H245.679z M237.722,172.601
				c-0.656,0-1.013-0.355-1.066-1.066v-2.215c0.054-0.71,0.41-1.066,1.066-1.066h6.809c0.766,0,1.148,0.356,1.148,1.066v2.215
				c0,0.711-0.383,1.066-1.148,1.066H237.722z M243.464,171.289c0.273-0.054,0.41-0.164,0.41-0.328v-1.066
				c0-0.273-0.137-0.41-0.41-0.41h-4.676c-0.274,0-0.41,0.137-0.41,0.41v1.066c0,0.164,0.136,0.274,0.41,0.328H243.464z"/>
			<path class="st3" d="M254.21,163.004c-0.438-0.054-0.685-0.3-0.738-0.738c0.054-0.382,0.3-0.601,0.738-0.656h6.891v-0.574
				c0.054-0.601,0.355-0.929,0.902-0.984c0.602,0.055,0.93,0.383,0.984,0.984v0.574h6.973c0.438,0.055,0.684,0.274,0.738,0.656
				c-0.055,0.438-0.301,0.685-0.738,0.738h-6.973v1.887h8.531c0.438,0.055,0.684,0.328,0.738,0.82
				c-0.055,0.438-0.301,0.685-0.738,0.738h-4.348c0.109,0.164,0.164,0.356,0.164,0.574v1.23h3.527
				c0.438,0.055,0.684,0.328,0.738,0.82c-0.055,0.438-0.301,0.685-0.738,0.738h-3.527v2.051c0.109,1.914-0.82,2.871-2.789,2.871
				c-0.875,0-1.751,0-2.625,0c-0.547-0.055-0.875-0.328-0.984-0.82c-0.11-0.547,0.109-0.82,0.656-0.82c0.766,0,1.504,0,2.215,0
				c1.148,0.054,1.694-0.465,1.641-1.559v-1.723h-11.895c-0.438-0.054-0.685-0.3-0.738-0.738c0.054-0.492,0.3-0.765,0.738-0.82
				h11.895v-1.23c0-0.218,0.054-0.41,0.164-0.574h-12.715c-0.492-0.054-0.767-0.3-0.82-0.738c0.054-0.546,0.328-0.82,0.82-0.82
				h8.203v-1.887H254.21z M252.488,160.789c-0.383-0.437-0.383-0.874,0-1.313c1.366-1.148,2.433-2.543,3.199-4.184
				c0.273-0.492,0.684-0.628,1.23-0.41c0.492,0.164,0.684,0.492,0.574,0.984c-0.219,0.328-0.41,0.656-0.574,0.984h4.84
				c0.438,0.055,0.684,0.301,0.738,0.738c-0.055,0.438-0.301,0.685-0.738,0.738h-5.824c-0.603,0.931-1.313,1.723-2.133,2.379
				C253.362,161.09,252.925,161.117,252.488,160.789z M259.788,173.094c-0.438,0.437-0.875,0.437-1.313,0
				c-0.984-0.82-1.669-1.421-2.051-1.805c-0.383-0.382-0.41-0.765-0.082-1.148c0.438-0.328,0.848-0.328,1.23,0
				c0.984,0.711,1.694,1.286,2.133,1.723C260.088,172.246,260.116,172.655,259.788,173.094z M259.378,160.871
				c-0.328,0.328-0.711,0.301-1.148-0.082c-0.055-0.109-0.246-0.328-0.574-0.656c-0.274-0.328-0.465-0.519-0.574-0.574
				c-0.274-0.382-0.219-0.71,0.164-0.984c0.273-0.273,0.628-0.273,1.066,0c0.164,0.219,0.546,0.629,1.148,1.23
				C259.788,160.243,259.76,160.598,259.378,160.871z M262.331,160.051c-0.383-0.328-0.41-0.738-0.082-1.23
				c0.766-0.71,1.504-1.858,2.215-3.445c0.218-0.492,0.602-0.656,1.148-0.492c0.492,0.164,0.684,0.492,0.574,0.984
				c-0.164,0.328-0.328,0.656-0.492,0.984h5.66c0.492,0.055,0.766,0.301,0.82,0.738c-0.055,0.438-0.328,0.685-0.82,0.738h-4.348
				c0.054,0,0.109,0.028,0.164,0.082c0.109,0,0.164,0.028,0.164,0.082c0.109,0.11,0.355,0.328,0.738,0.656
				c0.328,0.328,0.546,0.547,0.656,0.656c0.328,0.328,0.328,0.685,0,1.066c-0.328,0.274-0.711,0.274-1.148,0
				c-0.711-0.71-1.177-1.148-1.395-1.313c-0.219-0.382-0.219-0.738,0-1.066c0.054-0.054,0.109-0.082,0.164-0.082
				c0.109-0.054,0.191-0.082,0.246-0.082h-1.723c-0.383,0.547-0.793,1.04-1.23,1.477
				C263.316,160.297,262.877,160.379,262.331,160.051z"/>
			<path class="st3" d="M273.898,169.566c-0.547-0.054-0.849-0.328-0.902-0.82c0.054-0.601,0.355-0.929,0.902-0.984h8.777
				c0.054-0.492,0.328-0.874,0.82-1.148l2.461-1.477c0.054-0.109,0.027-0.191-0.082-0.246h-8.367
				c-0.492-0.054-0.767-0.355-0.82-0.902c0.054-0.546,0.328-0.847,0.82-0.902h10.664c0.546,0.055,0.848,0.356,0.902,0.902
				c0,0.656-0.246,1.122-0.738,1.395l-3.281,2.051c-0.164,0.11-0.274,0.219-0.328,0.328h7.711c0.546,0.055,0.848,0.383,0.902,0.984
				c-0.055,0.492-0.356,0.767-0.902,0.82h-7.793v2.625c0.054,1.805-0.82,2.707-2.625,2.707c-0.875,0-1.751,0-2.625,0
				c-0.711,0-1.121-0.328-1.23-0.984c0.054-0.603,0.355-0.931,0.902-0.984c0.164,0,0.492,0,0.984,0
				c0.546,0.054,0.93,0.082,1.148,0.082c1.038,0.054,1.53-0.41,1.477-1.395v-2.051H273.898z M274.882,164.07
				c-0.547-0.054-0.849-0.382-0.902-0.984v-2.543c0.054-0.71,0.438-1.093,1.148-1.148h11.238c-0.164-0.273-0.137-0.546,0.082-0.82
				c0.492-0.546,1.202-1.448,2.133-2.707c0.328-0.601,0.82-0.765,1.477-0.492c0.602,0.274,0.738,0.685,0.41,1.23
				c-0.164,0.219-0.521,0.656-1.066,1.313c-0.492,0.656-0.849,1.095-1.066,1.313v0.082c-0.055,0-0.082,0.028-0.082,0.082h2.953
				c0.71,0.055,1.094,0.438,1.148,1.148v2.543c-0.055,0.603-0.383,0.931-0.984,0.984c-0.547-0.109-0.875-0.437-0.984-0.984v-1.559
				c0-0.273-0.137-0.41-0.41-0.41h-13.699c-0.274,0-0.41,0.137-0.41,0.41v1.559C275.812,163.688,275.484,164.016,274.882,164.07z
				 M278.738,159.148c-0.492,0.328-0.957,0.246-1.395-0.246c-0.711-0.984-1.285-1.694-1.723-2.133
				c-0.219-0.382-0.137-0.765,0.246-1.148c0.602-0.328,1.094-0.273,1.477,0.164c0.164,0.164,0.492,0.521,0.984,1.066
				c0.382,0.492,0.656,0.82,0.82,0.984C279.365,158.383,279.23,158.82,278.738,159.148z M284.152,159.066
				c-0.492,0.274-0.931,0.164-1.313-0.328c-0.711-1.093-1.285-1.914-1.723-2.461c-0.274-0.492-0.137-0.902,0.41-1.23
				c0.438-0.273,0.874-0.191,1.313,0.246c0.164,0.219,0.464,0.629,0.902,1.23c0.438,0.656,0.71,1.095,0.82,1.313
				C284.78,158.328,284.644,158.738,284.152,159.066z"/>
			<path class="st3" d="M297.933,154.801c0.492,0.055,0.766,0.328,0.82,0.82v3.609h1.641c0.492,0.055,0.766,0.328,0.82,0.82
				c-0.055,0.492-0.328,0.767-0.82,0.82h-1.641v1.723c0.328-0.109,0.574-0.082,0.738,0.082c0.492,0.438,0.93,0.931,1.313,1.477
				c0.273,0.328,0.273,0.656,0,0.984c-0.438,0.383-0.82,0.383-1.148,0c-0.11-0.109-0.274-0.273-0.492-0.492
				c-0.164-0.273-0.301-0.464-0.41-0.574v10.582c0,0.546-0.301,0.82-0.902,0.82c-0.547-0.055-0.849-0.328-0.902-0.82v-10.008
				c-0.547,1.641-1.121,3.008-1.723,4.102c-0.383,0.492-0.793,0.492-1.23,0c-0.164-0.164-0.219-0.382-0.164-0.656
				c0-0.273,0.082-0.519,0.246-0.738c0.93-1.257,1.858-3.417,2.789-6.48h-1.887c-0.547-0.054-0.849-0.328-0.902-0.82
				c0.054-0.492,0.355-0.765,0.902-0.82h1.969v-3.609C297.002,155.129,297.33,154.856,297.933,154.801z M301.624,174.898
				c-0.656,0.273-1.148,0.164-1.477-0.328c-0.219-0.603-0.082-1.066,0.41-1.395c2.461-0.929,4.319-1.94,5.578-3.035
				c-1.095-1.148-1.969-2.57-2.625-4.266c-0.164-0.546,0-0.929,0.492-1.148c0.492-0.218,0.874-0.082,1.148,0.41
				c0.602,1.477,1.34,2.707,2.215,3.691c0.93-0.984,1.641-2.242,2.133-3.773c0.273-0.437,0.684-0.601,1.23-0.492
				c0.438,0.219,0.602,0.603,0.492,1.148c-0.603,1.751-1.449,3.228-2.543,4.43c1.366,1.148,3.117,2.051,5.25,2.707
				c0.492,0.273,0.628,0.71,0.41,1.313c-0.328,0.492-0.82,0.656-1.477,0.492c-2.188-0.875-4.02-1.942-5.496-3.199
				C305.944,172.71,304.03,173.859,301.624,174.898z M306.054,160.543c0.328,0.219,0.41,0.574,0.246,1.066
				c-0.875,1.148-2.188,2.598-3.938,4.348c-0.274,0.219-0.629,0.219-1.066,0c-0.328-0.382-0.383-0.765-0.164-1.148
				c1.694-1.694,2.953-3.089,3.773-4.184C305.179,160.352,305.562,160.325,306.054,160.543z M302.034,159.804
				c-0.492-0.054-0.767-0.355-0.82-0.902c0.054-0.492,0.328-0.765,0.82-0.82h5.004L306.956,158c0-0.054-0.055-0.191-0.164-0.41
				c-0.328-0.82-0.547-1.339-0.656-1.559c-0.055-0.546,0.136-0.902,0.574-1.066c0.656-0.164,1.066,0.055,1.23,0.656
				c0.218,0.438,0.492,1.066,0.82,1.887c0.109,0.219,0.109,0.41,0,0.574h4.512c0.546,0.055,0.848,0.328,0.902,0.82
				c-0.055,0.547-0.356,0.849-0.902,0.902H302.034z M313.847,165.383c-0.383,0.383-0.82,0.41-1.313,0.082
				c-1.367-1.477-2.598-2.679-3.691-3.609c-0.274-0.382-0.274-0.738,0-1.066c0.382-0.328,0.792-0.355,1.23-0.082
				c0.546,0.492,1.477,1.341,2.789,2.543c0.438,0.383,0.738,0.656,0.902,0.82C314.147,164.509,314.175,164.946,313.847,165.383z"/>
			<path class="st3" d="M316.062,170.386c-0.547-0.054-0.849-0.355-0.902-0.902c0.054-0.546,0.355-0.847,0.902-0.902h8.121v-1.887
				c0.054-0.546,0.382-0.847,0.984-0.902c0.602,0.055,0.93,0.356,0.984,0.902v1.887h8.121c0.492,0.055,0.766,0.356,0.82,0.902
				c-0.055,0.547-0.328,0.849-0.82,0.902h-8.121v3.938c-0.055,0.546-0.383,0.847-0.984,0.902c-0.603-0.055-0.931-0.356-0.984-0.902
				v-3.938H316.062z M319.261,165.875c-0.656,0.11-1.121,0.028-1.395-0.246c-0.164-0.164-0.274-0.574-0.328-1.23v-8.203
				c0.054-0.601,0.382-0.929,0.984-0.984c0.546,0.055,0.848,0.383,0.902,0.984v2.133h4.348c0.492,0.055,0.766,0.328,0.82,0.82
				c0,0.492-0.274,0.767-0.82,0.82h-4.348v3.445c0.054,0.328,0.246,0.465,0.574,0.41c0.328-0.054,0.848-0.191,1.559-0.41
				c0.93-0.273,1.641-0.464,2.133-0.574c0.602-0.164,0.956,0.055,1.066,0.656c0.109,0.547-0.137,0.902-0.738,1.066
				c-0.274,0.11-0.82,0.246-1.641,0.41C320.955,165.356,319.917,165.657,319.261,165.875z M328.53,165.793
				c-1.805,0.11-2.68-0.82-2.625-2.789v-6.973c0.054-0.546,0.355-0.847,0.902-0.902c0.602,0.055,0.93,0.356,0.984,0.902v3.281
				c2.242-0.929,3.855-1.694,4.84-2.297c0.602-0.164,1.038-0.054,1.313,0.328c0.273,0.438,0.191,0.849-0.246,1.23
				c-0.11,0.055-0.301,0.137-0.574,0.246c-2.461,1.148-4.238,1.915-5.332,2.297v1.477c-0.055,1.095,0.382,1.587,1.313,1.477h2.297
				c0.874,0.055,1.366-0.328,1.477-1.148c0-0.218,0.054-0.71,0.164-1.477c0.164-0.601,0.52-0.847,1.066-0.738
				c0.546,0.11,0.792,0.492,0.738,1.148c0,0.055,0,0.164,0,0.328c-0.11,0.711-0.219,1.204-0.328,1.477
				c-0.219,1.423-1.148,2.133-2.789,2.133H328.53z"/>
			<path class="st3" d="M337.062,173.832c-0.547-0.055-0.849-0.356-0.902-0.902c0.054-0.601,0.355-0.929,0.902-0.984h5.414v-15.75
				c0.054-0.546,0.382-0.847,0.984-0.902c0.602,0.055,0.93,0.356,0.984,0.902v15.75h3.363v-15.75
				c0.054-0.601,0.382-0.929,0.984-0.984c0.602,0.055,0.93,0.383,0.984,0.984v15.75h5.414c0.602,0.055,0.93,0.383,0.984,0.984
				c-0.055,0.546-0.383,0.847-0.984,0.902H337.062z M340.917,168.008c-0.603,0.11-1.013-0.082-1.23-0.574
				c-0.82-2.406-1.669-4.703-2.543-6.891c-0.11-0.546,0.082-0.929,0.574-1.148c0.602-0.109,1.012,0.082,1.23,0.574
				c0.328,0.931,0.874,2.407,1.641,4.43c0.438,1.095,0.738,1.887,0.902,2.379C341.601,167.38,341.409,167.79,340.917,168.008z
				 M351.171,167.926c-0.547-0.273-0.711-0.683-0.492-1.23c0.546-1.202,1.477-3.445,2.789-6.727
				c0.218-0.492,0.602-0.683,1.148-0.574c0.546,0.219,0.766,0.629,0.656,1.23c-0.164,0.438-0.438,1.122-0.82,2.051
				c-0.931,2.297-1.613,3.884-2.051,4.758C352.127,167.981,351.717,168.145,351.171,167.926z"/>
			<path class="st3" d="M34.859,204.48c-0.438-0.437-0.521-0.902-0.246-1.395c1.422-1.858,2.543-3.938,3.363-6.234
				c0.164-0.546,0.574-0.792,1.23-0.738c0.656,0.219,0.874,0.603,0.656,1.148c-0.219,0.711-0.492,1.423-0.82,2.133h4.43v-3.445
				c0.054-0.601,0.382-0.929,0.984-0.984c0.602,0.055,0.93,0.383,0.984,0.984v3.445h6.727c0.546,0.055,0.848,0.356,0.902,0.902
				c-0.055,0.547-0.356,0.849-0.902,0.902h-6.727v4.348h6.07c0.546,0.055,0.848,0.356,0.902,0.902
				c-0.055,0.547-0.356,0.849-0.902,0.902h-6.07v4.758h7.711c0.546,0.055,0.848,0.382,0.902,0.984
				c-0.055,0.546-0.356,0.847-0.902,0.902H35.023c-0.547-0.055-0.849-0.356-0.902-0.902c0.054-0.603,0.355-0.929,0.902-0.984h8.449
				v-4.758h-6.48c-0.547-0.054-0.849-0.355-0.902-0.902c0.054-0.546,0.355-0.847,0.902-0.902h6.48v-4.348H38.14
				c-0.767,1.423-1.367,2.407-1.805,2.953C35.897,204.699,35.405,204.808,34.859,204.48z"/>
			<path class="st3" d="M55.777,199.23c-0.492-0.054-0.767-0.328-0.82-0.82c0.054-0.437,0.328-0.683,0.82-0.738h3.938
				c-0.164-0.546-0.301-1.148-0.41-1.805c-0.055-0.492,0.164-0.792,0.656-0.902c0.492-0.109,0.874,0.082,1.148,0.574
				c0.164,0.603,0.3,1.204,0.41,1.805c0,0.11,0,0.219,0,0.328H64.8c0.438,0.055,0.684,0.301,0.738,0.738
				c-0.055,0.492-0.301,0.767-0.738,0.82H55.777z M55.613,212.683c-0.438-0.219-0.574-0.574-0.41-1.066
				c0.602-1.148,1.094-2.215,1.477-3.199c0.218-0.437,0.546-0.601,0.984-0.492c0.438,0.11,0.628,0.465,0.574,1.066
				c-0.164,0.383-0.219,0.492-0.164,0.328c-0.656,1.423-1.121,2.407-1.395,2.953C56.46,212.71,56.105,212.847,55.613,212.683z
				 M57.335,206.777c-0.656-0.054-1.013-0.41-1.066-1.066v-3.691c0.054-0.656,0.41-1.011,1.066-1.066h5.988
				c0.71,0,1.066,0.356,1.066,1.066v3.691c0,0.656-0.356,1.013-1.066,1.066h-2.051v5.414c0.109,1.641-0.629,2.461-2.215,2.461
				c-0.164,0.054-0.603,0.082-1.313,0.082c-0.492,0-0.793-0.274-0.902-0.82c0-0.547,0.218-0.82,0.656-0.82c0.382,0,0.71,0,0.984,0
				c0.766,0.054,1.12-0.328,1.066-1.148v-5.168H57.335z M57.991,202.922v1.887c0,0.274,0.136,0.41,0.41,0.41h3.855
				c0.273,0,0.41-0.136,0.41-0.41v-1.887c0-0.273-0.137-0.41-0.41-0.41h-3.855C58.127,202.511,57.991,202.649,57.991,202.922z
				 M64.39,211.043c-0.492,0.164-0.849,0.028-1.066-0.41c-0.055-0.109-0.164-0.328-0.328-0.656c-0.383-0.656-0.656-1.093-0.82-1.313
				c-0.164-0.382-0.028-0.683,0.41-0.902c0.438-0.164,0.792-0.027,1.066,0.41c0.109,0.11,0.3,0.41,0.574,0.902
				c0.273,0.438,0.438,0.738,0.492,0.902C64.936,210.415,64.827,210.77,64.39,211.043z M65.702,202.347
				c-0.492-0.054-0.767-0.355-0.82-0.902c0.054-0.492,0.328-0.765,0.82-0.82h1.559c0-0.492,0-1.23,0-2.215
				c0.054-1.093,0.082-1.94,0.082-2.543c0.054-0.546,0.355-0.847,0.902-0.902c0.546,0.055,0.848,0.356,0.902,0.902
				c0,0.492,0,1.259,0,2.297c-0.055,1.095-0.082,1.915-0.082,2.461h4.84c0.492,0.055,0.766,0.328,0.82,0.82
				c-0.055,0.547-0.328,0.849-0.82,0.902h-3.199c0.273,0.11,0.41,0.356,0.41,0.738v8.613c0,0.765,0.273,1.12,0.82,1.066h0.328
				c0.602,0.054,0.93-0.328,0.984-1.148c0.054-0.273,0.109-0.792,0.164-1.559c0.054-0.492,0.082-0.847,0.082-1.066
				c0.054-0.437,0.328-0.601,0.82-0.492c0.382,0.11,0.602,0.41,0.656,0.902c-0.055,0.383-0.11,0.958-0.164,1.723
				c-0.11,0.547-0.164,0.931-0.164,1.148c-0.164,1.53-0.957,2.269-2.379,2.215h-0.82c-1.367,0.054-2.051-0.685-2.051-2.215v-9.188
				c0-0.382,0.136-0.628,0.41-0.738h-0.82c-0.219,5.086-1.505,9.134-3.855,12.141c-0.383,0.437-0.82,0.492-1.313,0.164
				c-0.383-0.328-0.465-0.767-0.246-1.313c2.351-2.679,3.555-6.343,3.609-10.992H65.702z M72.183,199.23
				c-0.164-0.109-0.492-0.382-0.984-0.82c-0.383-0.382-0.656-0.628-0.82-0.738c-0.328-0.382-0.301-0.738,0.082-1.066
				c0.328-0.273,0.738-0.273,1.23,0c0.164,0.11,0.464,0.383,0.902,0.82c0.382,0.383,0.656,0.629,0.82,0.738
				c0.382,0.383,0.382,0.767,0,1.148C72.975,199.64,72.565,199.614,72.183,199.23z"/>
			<path class="st3" d="M76.859,213.832c-0.547-0.055-0.849-0.356-0.902-0.902c0.054-0.601,0.355-0.929,0.902-0.984h5.414v-15.75
				c0.054-0.546,0.382-0.847,0.984-0.902c0.602,0.055,0.93,0.356,0.984,0.902v15.75h3.363v-15.75
				c0.054-0.601,0.382-0.929,0.984-0.984c0.602,0.055,0.93,0.383,0.984,0.984v15.75h5.414c0.602,0.055,0.93,0.383,0.984,0.984
				c-0.055,0.546-0.383,0.847-0.984,0.902H76.859z M80.714,208.008c-0.603,0.11-1.013-0.082-1.23-0.574
				c-0.82-2.406-1.669-4.703-2.543-6.891c-0.11-0.546,0.082-0.929,0.574-1.148c0.602-0.109,1.012,0.082,1.23,0.574
				c0.328,0.931,0.874,2.407,1.641,4.43c0.438,1.095,0.738,1.887,0.902,2.379C81.398,207.38,81.206,207.79,80.714,208.008z
				 M90.968,207.926c-0.547-0.273-0.711-0.683-0.492-1.23c0.546-1.202,1.477-3.445,2.789-6.727c0.218-0.492,0.602-0.683,1.148-0.574
				c0.546,0.219,0.766,0.629,0.656,1.23c-0.164,0.438-0.438,1.122-0.82,2.051c-0.931,2.297-1.613,3.884-2.051,4.758
				C91.924,207.981,91.514,208.145,90.968,207.926z"/>
			<path class="st3" d="M98.433,203.086c-0.492,0.383-0.957,0.356-1.395-0.082c-0.274-0.492-0.192-0.956,0.246-1.395
				c1.858-1.313,3.445-3.062,4.758-5.25c0.328-0.546,0.738-0.82,1.23-0.82c0.328,0,0.766,0.301,1.313,0.902
				c1.805,1.587,3.117,2.871,3.938,3.855c0.438,0.492,0.464,0.958,0.082,1.395c-0.438,0.383-0.902,0.356-1.395-0.082
				c-1.148-1.366-2.352-2.625-3.609-3.773c-0.11-0.109-0.219-0.109-0.328,0C101.85,200.024,100.238,201.773,98.433,203.086z
				 M101.796,214.406c-1.915,0.054-2.844-0.902-2.789-2.871v-8.203c0-0.71,0.328-1.066,0.984-1.066h6.398
				c0.656,0,0.984,0.328,0.984,0.984c0,1.148-0.055,2.297-0.164,3.445c-0.055,1.696-0.931,2.571-2.625,2.625
				c-0.603,0-1.23,0-1.887,0c-0.547-0.054-0.849-0.328-0.902-0.82c0-0.546,0.218-0.82,0.656-0.82c0.546,0,1.066,0,1.559,0
				c0.93,0,1.422-0.437,1.477-1.313c0-0.164,0-0.437,0-0.82c0.054-0.492,0.082-0.847,0.082-1.066c0-0.328-0.164-0.492-0.492-0.492
				h-3.773c-0.328,0.055-0.521,0.219-0.574,0.492v6.727c-0.055,1.04,0.438,1.53,1.477,1.477h2.789c0.93,0,1.53-0.355,1.805-1.066
				c0.054-0.109,0.109-0.437,0.164-0.984c0.054-0.328,0.082-0.546,0.082-0.656c0.164-0.546,0.546-0.765,1.148-0.656
				c0.492,0.219,0.71,0.603,0.656,1.148c-0.055,0.164-0.137,0.492-0.246,0.984c-0.11,0.547-0.192,0.902-0.246,1.066
				c-0.328,1.313-1.341,1.94-3.035,1.887H101.796z M110.573,210.304c-0.492-0.054-0.767-0.355-0.82-0.902V198
				c0.054-0.601,0.328-0.929,0.82-0.984c0.546,0.055,0.848,0.356,0.902,0.902v11.484
				C111.421,209.949,111.119,210.251,110.573,210.304z M111.066,214.652c-0.711-0.055-1.095-0.383-1.148-0.984
				c0.054-0.547,0.328-0.849,0.82-0.902c0.656,0,1.313,0,1.969,0c0.874,0.054,1.313-0.41,1.313-1.395v-15.504
				c0.054-0.601,0.382-0.929,0.984-0.984c0.546,0.055,0.848,0.383,0.902,0.984v15.996c0.054,1.858-0.793,2.789-2.543,2.789
				C112.542,214.652,111.776,214.652,111.066,214.652z"/>
			<path class="st3" d="M118.859,213.832c-0.547-0.055-0.849-0.356-0.902-0.902c0.054-0.601,0.355-0.929,0.902-0.984h5.414v-15.75
				c0.054-0.546,0.382-0.847,0.984-0.902c0.602,0.055,0.93,0.356,0.984,0.902v15.75h3.363v-15.75
				c0.054-0.601,0.382-0.929,0.984-0.984c0.602,0.055,0.93,0.383,0.984,0.984v15.75h5.414c0.602,0.055,0.93,0.383,0.984,0.984
				c-0.055,0.546-0.383,0.847-0.984,0.902H118.859z M122.714,208.008c-0.603,0.11-1.013-0.082-1.23-0.574
				c-0.82-2.406-1.669-4.703-2.543-6.891c-0.11-0.546,0.082-0.929,0.574-1.148c0.602-0.109,1.012,0.082,1.23,0.574
				c0.328,0.931,0.874,2.407,1.641,4.43c0.438,1.095,0.738,1.887,0.902,2.379C123.398,207.38,123.206,207.79,122.714,208.008z
				 M132.968,207.926c-0.547-0.273-0.711-0.683-0.492-1.23c0.546-1.202,1.477-3.445,2.789-6.727
				c0.218-0.492,0.602-0.683,1.148-0.574c0.546,0.219,0.766,0.629,0.656,1.23c-0.164,0.438-0.438,1.122-0.82,2.051
				c-0.931,2.297-1.613,3.884-2.051,4.758C133.924,207.981,133.514,208.145,132.968,207.926z"/>
			<path class="st3" d="M141.089,198.902c-0.603-0.054-0.931-0.382-0.984-0.984c0.054-0.601,0.382-0.929,0.984-0.984h15.586
				c0.602,0.055,0.93,0.383,0.984,0.984c-0.055,0.603-0.383,0.931-0.984,0.984h-6.645v12.715h7.793
				c0.602,0.055,0.93,0.383,0.984,0.984c-0.055,0.601-0.383,0.929-0.984,0.984h-17.883c-0.603-0.055-0.931-0.383-0.984-0.984
				c0.109-0.601,0.438-0.929,0.984-0.984h7.957v-12.715H141.089z"/>
			<path class="st3" d="M160.202,206.121c-0.219-0.164-0.328-0.41-0.328-0.738c0-0.273,0.054-0.519,0.164-0.738
				c1.694-2.625,3.063-5.55,4.102-8.777c0.218-0.546,0.628-0.765,1.23-0.656c0.546,0.164,0.766,0.547,0.656,1.148
				c-0.383,1.313-0.875,2.571-1.477,3.773v14.191c-0.055,0.546-0.356,0.847-0.902,0.902c-0.547-0.055-0.849-0.356-0.902-0.902v-10.5
				c-0.11,0.164-0.246,0.383-0.41,0.656c-0.383,0.603-0.656,1.04-0.82,1.313C161.187,206.285,160.748,206.395,160.202,206.121z
				 M166.109,204.234c-0.492-0.382-0.547-0.847-0.164-1.395c1.366-1.914,2.543-4.21,3.527-6.891c0.218-0.546,0.628-0.792,1.23-0.738
				c0.546,0.164,0.766,0.547,0.656,1.148c-0.055,0.219-0.192,0.547-0.41,0.984c-0.164,0.438-0.301,0.767-0.41,0.984h8.695
				c0.546,0.055,0.848,0.328,0.902,0.82c-0.055,0.603-0.356,0.931-0.902,0.984h-6.316v3.281h5.25
				c0.492,0.055,0.766,0.356,0.82,0.902c-0.055,0.492-0.328,0.767-0.82,0.82h-5.25v3.363h5.824c0.492,0.055,0.766,0.356,0.82,0.902
				c-0.055,0.547-0.328,0.849-0.82,0.902h-5.824v3.938c-0.055,0.601-0.383,0.929-0.984,0.984c-0.547-0.055-0.849-0.383-0.902-0.984
				v-14.109h-1.313c-0.656,1.368-1.367,2.625-2.133,3.773C167.093,204.509,166.601,204.617,166.109,204.234z"/>
		</g>
	</g>
	<path class="st2" d="M109.263,62.974l-3.1,13.919l-3.229,1.615l1.615,4.844l-3.068,12.256c-2.132,0.678-4.311,1.211-6.556,1.582
		l2.083-25.093l1.017-12.126L109.263,62.974z M109.263,62.974"/>
	<path class="st2" d="M119.081,84.967l0.291,0.307c-5.087,4.634-11.175,8.203-17.891,10.334l3.068-12.256l-1.615-4.844l3.229-1.615
		l3.1-13.919l3.827,1.017c3.536,0.937,5.991,4.151,5.991,7.799V84.967z M119.081,84.967"/>
	<path class="st2" d="M69.024,83.352l3.068,12.256c-6.717-2.131-12.804-5.7-17.891-10.334l0.291-0.307V71.79
		c0-3.649,2.454-6.863,5.991-7.799l3.827-1.017l3.1,13.919l3.229,1.615L69.024,83.352z M69.024,83.352"/>
	<path class="st2" d="M76.564,72.097l2.083,25.093c-2.245-0.371-4.424-0.904-6.556-1.582l-3.068-12.256l1.615-4.844l-3.229-1.615
		l-3.1-13.919l11.238-3.003L76.564,72.097z M76.564,72.097"/>
	<path class="st5" d="M97.007,72.097L94.924,97.19c-0.581,0.113-1.163,0.194-1.744,0.259l-3.165-22.17l1.615-4.844l0.323-0.646
		l4.521,2.26L97.007,72.097z M97.007,72.097"/>
	<path class="st5" d="M98.024,59.971l-1.017,12.126l-0.533-0.048l-9.688-4.844l8.074-8.074L98.024,59.971z M98.024,59.971"/>
	<path class="st5" d="M81.942,70.434l1.615,4.844l-3.165,22.17c-0.581-0.065-1.163-0.145-1.744-0.259l-2.083-25.093l0.533-0.048
		l4.521-2.26L81.942,70.434z M81.942,70.434"/>
	<path class="st5" d="M86.786,67.205l-9.688,4.844l-0.533,0.048l-1.017-12.126l3.165-0.84L86.786,67.205z M86.786,67.205"/>
	<path class="st2" d="M91.953,69.788l-0.323,0.646l-1.615,4.844h-6.459l-1.615-4.844l-0.323-0.646l5.168-2.584L91.953,69.788z
		 M91.953,69.788"/>
	<path class="st2" d="M90.015,75.278l3.165,22.17c-2.099,0.291-4.231,0.436-6.394,0.436c-2.164,0-4.295-0.145-6.394-0.436
		l3.165-22.17H90.015z M90.015,75.278"/>
	<path class="st2" d="M102.933,26.836v1.615h-4.166c-5.603,0-10.98-2.228-14.936-6.185l-0.274-0.274
		c-3.117,4.166-7.67,7.024-12.756,8.041l-0.162,0.032v-3.23c-3.569,0-6.459,2.89-6.459,6.459V19.392
		c0-2.633,0.807-5.119,2.212-7.202c1.405-2.083,3.423-3.762,5.861-4.731l4.376-2.923c3.31-2.196,7.154-3.423,11.109-3.504
		c1.179,0,2.342,0.065,3.504,0.177c10.254,1.405,18.15,10.206,18.15,20.862v11.223C109.392,29.726,106.502,26.836,102.933,26.836
		L102.933,26.836z M102.933,26.836"/>
	<path class="st5" d="M94.86,52.672v6.459l-8.074,8.074l-8.074-8.074v-6.459l0.242-0.419c2.325,1.307,4.99,2.034,7.832,2.034
		s5.507-0.727,7.832-2.034L94.86,52.672z M94.86,52.672"/>
	<path class="st5" d="M102.933,28.451v-1.615c3.569,0,6.459,2.89,6.459,6.459c0,3.569-2.89,6.459-6.459,6.459h-0.08
		c0.048-0.533,0.08-1.066,0.08-1.615V28.451z M102.933,28.451"/>
	<path class="st5" d="M83.831,22.266c3.957,3.957,9.334,6.185,14.936,6.185h4.166v9.688c0,0.549-0.032,1.082-0.08,1.615
		c-0.533,5.393-3.73,9.995-8.235,12.499c-2.325,1.307-4.99,2.034-7.832,2.034s-5.506-0.727-7.832-2.034
		c-1.324-0.727-2.519-1.631-3.584-2.697c-2.568-2.567-4.28-5.991-4.651-9.801c-0.048-0.533-0.08-1.066-0.08-1.615v-8.074
		l0.162-0.032c5.086-1.017,9.64-3.875,12.756-8.041L83.831,22.266z M83.831,22.266"/>
	<path class="st5" d="M70.638,30.065v8.074c0,0.549,0.032,1.082,0.08,1.615h-0.08c-3.569,0-6.459-2.89-6.459-6.459
		c0-3.569,2.89-6.459,6.459-6.459V30.065z M70.638,30.065"/>
	<path class="st5" d="M80.327,33.295c0,0.892-0.723,1.615-1.615,1.615s-1.615-0.723-1.615-1.615c0-0.892,0.723-1.615,1.615-1.615
		S80.327,32.403,80.327,33.295L80.327,33.295z M80.327,33.295"/>
	<path class="st5" d="M96.474,33.295c0,0.892-0.723,1.615-1.615,1.615c-0.892,0-1.615-0.723-1.615-1.615
		c0-0.892,0.723-1.615,1.615-1.615C95.751,31.68,96.474,32.403,96.474,33.295L96.474,33.295z M96.474,33.295"/>
	<path class="st5" d="M92.078,42.305c0,2.923-2.369,5.292-5.292,5.292s-5.292-2.369-5.292-5.292"/>
</g>
</svg>